<?xml version="1.0" standalone="no"?>
<!DOCTYPE svg PUBLIC "-//W3C//DTD SVG 1.1//EN" "http://www.w3.org/Graphics/SVG/1.1/DTD/svg11.dtd" >
<svg xmlns="http://www.w3.org/2000/svg" xmlns:xlink="http://www.w3.org/1999/xlink" version="1.1">
<metadata>
Created by FontForge 20170731 at Mon Mar 26 22:41:51 2018
 By Aleksey,,,
Copyright (c) 2017 by Deni Anggara. All rights reserved.
</metadata>
<defs>
<font id="Gelion-BlackItalic" horiz-adv-x="0" >
  <font-face 
    font-family="Gelion Black Italic"
    font-weight="900"
    font-style="italic"
    font-stretch="normal"
    units-per-em="2048"
    panose-1="0 0 10 0 0 0 0 0 0 0"
    ascent="1638"
    descent="-410"
    x-height="930"
    cap-height="1313"
    bbox="-1022 -575 4071 1970"
    underline-thickness="0"
    underline-position="0"
    unicode-range="U+000D-FB02"
  />
<missing-glyph horiz-adv-x="1087" 
d="M950 1124v-1124h-786v1124h786z" />
    <glyph glyph-name="uniFB01" unicode="fi" horiz-adv-x="1261" 
d="M1145 0h-316l95 668h-432l-160 -1112h-316l156 1112h-123l37 262h123l6 47q31 219 178.5 340t380.5 121q147 0 262 -51.5t180.5 -145.5t67.5 -217h-317q-10 59 -63.5 96t-133.5 37q-96 0 -158.5 -48t-74.5 -136l-7 -43h746z" />
    <glyph glyph-name="uniFB02" unicode="fl" horiz-adv-x="1284" 
d="M1313 1405l-197 -1405h-317l94 668h-358l-156 -1112h-318l156 1112h-168l37 262h166l16 110q29 197 148 288t309 91q72 0 135 -14l-35 -260q-18 6 -67 6q-100 0 -134 -45t-44 -113l-9 -63h359l65 475h318z" />
    <glyph glyph-name="f_f.liga" unicode="ff" horiz-adv-x="1458" 
d="M1322 1106q-34 -45 -44 -113l-8 -63h223l-37 -262h-223l-156 -1112h-317l155 1112h-380l-156 -1112h-318l156 1112h-168l37 262h166l16 110q29 197 148 288t309 91q72 0 135 -14l-35 -260q-18 6 -67 6q-100 0 -134 -45t-44 -113l-9 -63h379l17 110q29 197 147.5 288
t308.5 91q72 0 136 -14l-35 -260q-18 6 -68 6q-100 0 -134 -45z" />
    <glyph glyph-name="f_f_i.liga" unicode="ffi" horiz-adv-x="1916" 
d="M1227 930h702l-131 -930h-317l94 668h-385l-158 -1112h-317l157 1112h-380l-158 -1112h-314l156 1112h-127l37 262h127l10 86q27 201 168 311.5t359 110.5q109 0 204 -37t154 -101q127 137 356 138q207 0 336 -109.5t144 -304.5h-316q-10 59 -59 96t-121 37
q-88 0 -143.5 -43t-67.5 -117zM918 1001q0 72 -47.5 114t-127.5 42q-88 0 -141 -47t-65 -127l-9 -53h381l6 41q3 10 3 30z" />
    <glyph glyph-name="f_f_l.liga" unicode="ffl" horiz-adv-x="1968" 
d="M1997 1405l-197 -1405h-317l94 668h-397l-156 -1112h-315l155 1112h-329l-156 -1112h-316l156 1112h-170l37 262h168l16 110q29 197 148 288t309 91q70 0 133 -14l-35 -260q-18 6 -67 6q-100 0 -134 -45t-44 -113l-9 -63h328l16 110q29 197 148 288t309 91q70 0 133 -14
l-35 -260q-18 6 -67 6q-100 0 -134 -45t-44 -113l-8 -63h397l65 475h318z" />
    <glyph glyph-name="f_i_i.liga" unicode="fii" horiz-adv-x="1828" 
d="M1663 0h-317l92 668h-199l-94 -668h-316l95 668h-432l-160 -1112h-316l156 1112h-123l37 262h123l6 47q31 219 178.5 340t380.5 121q147 0 262 -51.5t180.5 -145.5t67.5 -217h-317q-10 59 -63.5 96t-133.5 37q-96 0 -158.5 -48t-74.5 -136l-7 -43h1262zM1837 1389.5
q51 -48.5 51 -121.5q0 -59 -32.5 -111.5t-88 -84.5t-116.5 -32q-80 0 -131.5 49.5t-51.5 122.5q0 59 33 111.5t87 83.5t118 31q80 0 131 -48.5z" />
    <glyph glyph-name="f_t.liga" unicode="ft" horiz-adv-x="1388" 
d="M1397 668h-172l-95 -668h-317l94 668h-372l-156 -1112h-316l156 1112h-170l37 262h168l16 110q29 197 148 288t309 91q70 0 133 -14l-35 -260q-18 6 -67 6q-100 0 -134 -45t-44 -113l-9 -63h373l53 383h318l-53 -383h172z" />
    <glyph glyph-name="f_y.liga" unicode="fy" horiz-adv-x="1796" 
d="M1841 930l-581 -1071q-45 -84 -98.5 -150.5t-147.5 -119t-230 -52.5q-82 0 -194 25l41 258q80 -14 137 -15q92 0 134 37t77 107l25 49l-187 670h-282l-156 -1112h-318l156 1112h-168l37 262h166l16 110q29 197 148 288t309 91q72 0 135 -14l-35 -260q-18 6 -67 6
q-100 0 -134 -45t-44 -113l-9 -63h506l123 -565l293 565h348z" />
    <glyph glyph-name="i_j.liga" unicode="ij" horiz-adv-x="1036" 
d="M209 1089.5q-51 49.5 -51 122.5q0 59 32.5 111.5t87 83.5t117.5 31q80 0 131.5 -48.5t51.5 -121.5q0 -59 -33 -111.5t-88.5 -84.5t-116.5 -32q-80 0 -131 49.5zM1045.5 1389.5q50.5 -48.5 50.5 -121.5q0 -59 -33 -111.5t-88 -84.5t-117 -32q-80 0 -131 49.5t-51 122.5
q0 59 32.5 111.5t88 83.5t118.5 31q80 0 130.5 -48.5zM809 -444h-315l153 1112h-203l-92 -668h-317l129 930h837z" />
    <glyph glyph-name="i_t_i.liga" unicode="iti" horiz-adv-x="1734" 
d="M1745 1402q51 -48 51 -122q0 -59 -32.5 -111.5t-87 -84t-115.5 -31.5q-82 0 -132.5 49t-50.5 123q0 59 33 111.5t88 83t117 30.5q78 0 129 -48zM209 1089.5q-51 49.5 -51 122.5q0 59 32.5 111.5t87 83.5t117.5 31q80 0 131.5 -48.5t51.5 -121.5q0 -59 -33 -111.5
t-88.5 -84.5t-116.5 -32q-80 0 -131 49.5zM1094 930h606l-129 -930h-318l95 668h-291l-94 -668h-318l94 668h-295l-92 -668h-317l129 930h612l33 239h317z" />
    <glyph glyph-name="i_t_y.liga" unicode="ity" horiz-adv-x="2177" 
d="M209 1089.5q-51 49.5 -51 122.5q0 59 32.5 111.5t87 83.5t117.5 31q80 0 131.5 -48.5t51.5 -121.5q0 -59 -33 -111.5t-88.5 -84.5t-116.5 -32q-80 0 -131 49.5zM2222 930l-582 -1071q-45 -84 -98 -150.5t-147.5 -119t-229.5 -52.5q-82 0 -194 25l41 258q80 -14 137 -15
q92 0 134 37t77 107l24 49l-186 670h-182l-94 -668h-318l94 668h-254l-92 -668h-317l129 930h571l33 239h317l-32 -239h405l123 -565l293 565h348z" />
    <glyph glyph-name="t_i.liga" unicode="ti" horiz-adv-x="1218" 
d="M1228 1402q52 -48 52 -122q0 -59 -33 -111.5t-88 -84t-117 -31.5q-80 0 -131 49t-51 123q0 59 33 111.5t88 83t117 30.5q78 0 130 -48zM575 930h609l-131 -930h-318l94 668h-290l-95 -668h-317l94 668h-172l37 262h172l33 239h317z" />
    <glyph glyph-name="t_t.liga" unicode="tt" horiz-adv-x="1394" 
d="M1403 668h-168l-94 -668h-318l95 668h-379l-95 -668h-317l94 668h-172l37 262h172l33 239h317l-33 -239h379l33 239h318l-33 -239h168z" />
    <glyph glyph-name="t_u.liga" unicode="tu" horiz-adv-x="1814" 
d="M1788 930l-131 -930h-264l-4 98q-117 -125 -297 -125q-147 0 -225.5 79t-78.5 216q0 37 7 76l45 324h-303l-95 -668h-317l94 668h-170l37 262h170l33 239h317l-33 -239h621l-76 -539q-2 -12 -2 -35q0 -109 121 -108q66 0 106.5 39t51.5 106l75 537h318z" />
    <glyph glyph-name="t_y.liga" unicode="ty" horiz-adv-x="1718" 
d="M1763 930l-581 -1071q-45 -84 -98.5 -150.5t-147.5 -119t-229 -52.5q-82 0 -195 25l41 258q80 -14 137 -15q92 0 134 37t77 107l25 49l-187 670h-200l-95 -668h-317l94 668h-172l37 262h172l33 239h317l-33 -239h424l123 -565l293 565h348z" />
    <glyph glyph-name=".notdef" horiz-adv-x="1087" 
d="M950 1124v-1124h-786v1124h786z" />
    <glyph glyph-name="glyph1" 
 />
    <glyph glyph-name="uni000D" unicode="&#xd;" horiz-adv-x="380" 
 />
    <glyph glyph-name="space" unicode=" " horiz-adv-x="487" 
 />
    <glyph glyph-name="exclam" unicode="!" horiz-adv-x="669" 
d="M281 1313h344l-174 -803h-220zM131 28.5q-57 55.5 -57 137.5q0 96 68.5 163.5t168.5 67.5q88 0 146.5 -58t58.5 -142q0 -94 -65.5 -159t-169.5 -65q-93 0 -150 55.5z" />
    <glyph glyph-name="quotedbl" unicode="&#x22;" horiz-adv-x="845" 
d="M166 1118q-2 18 -2 56q0 76 43 121.5t115 45.5q70 0 110.5 -39.5t40.5 -107.5q0 -45 -27 -119l-159 -448h-86zM578 1118q-2 18 -3 56q0 76 43.5 121.5t114.5 45.5q70 0 111 -39.5t41 -107.5q0 -45 -27 -119l-160 -448h-86z" />
    <glyph glyph-name="numbersign" unicode="#" horiz-adv-x="1261" 
d="M1047 713l-23 -113h193l-43 -303h-211l-62 -297h-315l61 297h-153l-62 -297h-311l61 297h-143l43 303h162l22 113h-168l43 305h189l59 295h313l-61 -295h154l61 295h313l-59 -295h166l-43 -305h-186zM733 713h-153l-25 -113h154z" />
    <glyph glyph-name="dollar" unicode="$" horiz-adv-x="1296" 
d="M1081.5 630.5q77.5 -98.5 77.5 -235.5q0 -186 -140 -298.5t-362 -123.5l-30 -209h-164l31 220q-174 29 -276.5 136t-104.5 265h323q8 -68 61.5 -106.5t145.5 -38.5q82 0 128 31.5t46 82.5t-34.5 74t-90.5 37l-155 37q-160 39 -239 133t-79 229q0 119 57.5 211t160 146.5
t233.5 60.5l26 197h164l-29 -205q160 -31 258.5 -134.5t102.5 -250.5h-324q-6 59 -53 93t-119 34q-68 0 -106.5 -29t-38.5 -76t41 -69.5t129 -42.5l131 -33q152 -37 229.5 -135.5z" />
    <glyph glyph-name="percent" unicode="%" horiz-adv-x="1591" 
d="M260 886q-88 83 -88 214q0 90 44 160.5t119 110.5t167 40q135 0 223 -83t88 -214q0 -90 -44 -160.5t-119 -110.5t-167 -40q-135 0 -223 83zM1323 1376h219l-1237 -1376h-219zM571.5 1025q32.5 32 32.5 83q0 49 -30.5 81t-75.5 32q-51 0 -84 -32t-33 -83t29.5 -82
t76.5 -31q52 0 84.5 32zM930 56q-88 83 -88 214q0 90 44 161t118.5 111t166.5 40q135 0 223.5 -83t88.5 -214q0 -90 -44 -161t-119 -111t-167 -40q-135 0 -223 83zM1241 195.5q33 31.5 33 83.5q0 49 -31 80.5t-76 31.5q-51 0 -83.5 -31.5t-32.5 -83.5q0 -51 29.5 -81.5
t76.5 -30.5q51 0 84 31.5z" />
    <glyph glyph-name="ampersand" unicode="&#x26;" horiz-adv-x="1548" 
d="M1247 475q-31 -109 -94 -186l221 -289h-407l-52 68q-66 -43 -164 -69t-198 -26q-211 0 -318.5 86t-107.5 234q0 98 43 173t92 116t121 88l43 28l-35 47q-33 43 -56.5 91.5t-23.5 126.5q0 106 60.5 192t168 136t238.5 50q166 0 265.5 -76.5t99.5 -205.5q0 -186 -234 -346
l-55 -37l115 -150q35 82 49 191h428l-33 -242h-166zM659.5 1075.5q-28.5 -24.5 -28.5 -65.5q0 -35 18.5 -63.5t46.5 -65.5l6 -9l33 25q39 31 62.5 56.5t23.5 66.5q0 35 -24.5 57.5t-63.5 22.5q-45 0 -73.5 -24.5zM750 281l-175 225l-18 -14q-76 -55 -76 -132q0 -51 37 -80.5
t100 -29.5q71 0 132 31z" />
    <glyph glyph-name="quotesingle" unicode="'" horiz-adv-x="434" 
d="M166 1118q-2 18 -2 56q0 76 43 121.5t115 45.5q70 0 110.5 -39.5t40.5 -107.5q0 -45 -27 -119l-159 -448h-86z" />
    <glyph glyph-name="parenleft" unicode="(" horiz-adv-x="600" 
d="M270 -160q-90 152 -136 327t-46 345q0 260 112.5 513t299.5 407h235q-170 -213 -257 -473.5t-87 -522.5q0 -154 32 -317.5t85 -278.5h-238z" />
    <glyph glyph-name="parenright" unicode=")" horiz-adv-x="591" 
d="M377 1432q90 -152 136 -327t46 -345q0 -260 -112.5 -513t-299.5 -407h-235q170 213 257 473t87 523q0 154 -31.5 317.5t-85.5 278.5h238z" />
    <glyph glyph-name="asterisk" unicode="*" horiz-adv-x="786" 
d="M637 969l117 -68l-72 -125l-117 68q-68 41 -116 86q16 -78 16 -144v-137h-143v137q0 66 16 144q-49 -45 -117 -86l-117 -68l-71 125l117 68q55 31 133 57q-76 20 -133 55l-117 70l71 123l117 -68q68 -37 117 -86q-16 78 -16 146v135h143v-135q0 -68 -16 -146
q49 49 116 86l117 68l72 -123l-117 -70q-57 -35 -133 -55q78 -26 133 -57z" />
    <glyph glyph-name="plus" unicode="+" horiz-adv-x="1224" 
d="M1061 502h-309l-47 -330h-263l47 330h-313l33 237h313l47 334h262l-47 -334h310z" />
    <glyph glyph-name="comma" unicode="," horiz-adv-x="522" 
d="M337 273.5q56 -58.5 56 -154.5q0 -92 -53 -172t-142 -127t-190 -47q-25 0 -37 2l13 84q98 -4 157.5 38t71.5 109q-20 -6 -43 -6q-70 0 -114 44t-44 114q0 76 51.5 125t131.5 49q86 0 142 -58.5z" />
    <glyph glyph-name="hyphen" unicode="-" horiz-adv-x="1245" 
d="M1122 637l-41 -279h-948l41 279h948z" />
    <glyph glyph-name="period" unicode="." horiz-adv-x="487" 
d="M59 19.5q-47 46.5 -47 115.5q0 82 58.5 139.5t142.5 57.5q74 0 123 -48t49 -120q0 -80 -57.5 -135.5t-145.5 -55.5q-76 0 -123 46.5z" />
    <glyph glyph-name="slash" unicode="/" horiz-adv-x="948" 
d="M692 1313h314l-697 -1313h-313z" />
    <glyph glyph-name="zero" unicode="0" horiz-adv-x="1216" 
d="M319.5 49q-112.5 76 -174 215t-61.5 324q0 209 78 381t216 272t316 100q150 0 261.5 -73.5t172 -211.5t60.5 -323q0 -211 -76 -385t-214 -274.5t-314 -100.5q-152 0 -264.5 76zM732.5 321.5q58.5 59.5 92 165t33.5 240.5q0 164 -47 245t-135 81q-76 0 -135.5 -58.5
t-93 -163t-33.5 -239.5q0 -166 48 -248t136 -82q76 0 134.5 59.5z" />
    <glyph glyph-name="one" unicode="1" horiz-adv-x="870" 
d="M147 1069q193 0 291.5 62.5t136.5 181.5h287l-184 -1313h-324l117 825h-358z" />
    <glyph glyph-name="two" unicode="2" horiz-adv-x="1091" 
d="M590 287h395l-41 -287h-883l33 227l537 484q57 51 91 98t34 111q0 59 -36 94t-102 35q-74 0 -119.5 -46.5t-49.5 -121.5h-318q12 135 80 239.5t179.5 161.5t250.5 57q133 0 234.5 -47t156.5 -133t55 -198q0 -139 -69.5 -243t-169.5 -198z" />
    <glyph glyph-name="three" unicode="3" horiz-adv-x="1126" 
d="M1069 1059l-291 -252q129 -29 205 -124t76 -237q0 -131 -66.5 -237.5t-187.5 -167.5t-275 -61q-147 0 -256.5 57t-166 160.5t-50.5 238.5h318q0 -78 48 -125t130 -47t132 47t50 123t-50 118t-136 42h-201l29 211l268 231h-432l39 277h852z" />
    <glyph glyph-name="four" unicode="4" horiz-adv-x="1155" 
d="M1122 522l-37 -266h-170l-36 -256h-314l37 256h-590l33 240l633 817h387l-113 -791h170zM639 522l51 365l-280 -365h229z" />
    <glyph glyph-name="five" unicode="5" horiz-adv-x="1181" 
d="M902 839.5q93 -53.5 146.5 -150.5t53.5 -224q0 -141 -67.5 -251t-189.5 -171t-280 -61q-152 0 -263.5 56t-171.5 159.5t-60 240.5h317q0 -78 49 -125t129 -47q90 0 148.5 53.5t58.5 139.5q0 76 -49 123t-129 47q-53 0 -101.5 -19.5t-78.5 -54.5l-305 31l272 727h743
l-39 -277h-497l-76 -180q88 37 180 37q117 0 210 -53.5z" />
    <glyph glyph-name="six" unicode="6" horiz-adv-x="1210" 
d="M924.5 834.5q97.5 -54.5 154 -152.5t56.5 -225q0 -137 -78 -247t-211 -170t-293 -60q-150 0 -259.5 54t-167.5 151.5t-58 224.5q0 94 31.5 175t76.5 139t117 140l49 56l338 393h350l-356 -426q12 2 35 2q118 0 215.5 -54.5zM742.5 314.5q60.5 50.5 60.5 134.5
q0 78 -52.5 127t-138.5 49q-88 0 -150.5 -52.5t-62.5 -136.5q0 -78 53.5 -125t139.5 -47q90 0 150.5 50.5z" />
    <glyph glyph-name="seven" unicode="7" horiz-adv-x="970" 
d="M1067 1313l-35 -250l-641 -1063h-344l627 1036h-572l39 277h926z" />
    <glyph glyph-name="eight" unicode="8" horiz-adv-x="1118" 
d="M1016 602.5q37 -63.5 37 -149.5q0 -135 -73 -243t-201 -168t-287 -60q-201 0 -324 94t-123 258q0 123 61.5 222t161.5 146q-45 37 -72.5 97.5t-27.5 128.5q0 113 69.5 207t187.5 149t259 55q123 0 217 -42t144.5 -115.5t50.5 -165.5q0 -100 -53.5 -184t-131.5 -132
q68 -34 105 -97.5zM720 857q50 40 50 99q0 47 -35 76t-92 29q-66 0 -112 -40t-46 -97q0 -49 37 -78t88 -29q60 0 110 40zM668.5 311q56.5 47 56.5 119q0 55 -41 89t-111 34q-84 0 -141 -47t-57 -117q0 -55 42 -90t111 -35q84 0 140.5 47z" />
    <glyph glyph-name="nine" unicode="9" horiz-adv-x="1208" 
d="M960.5 1283q112.5 -54 174 -153.5t61.5 -228.5q0 -102 -38 -190t-89 -153.5t-149 -176.5l-338 -381h-353l373 422q-16 -2 -49 -2q-115 0 -213 52t-155.5 146.5t-57.5 217.5q0 143 76 257.5t208 179t291 64.5q146 0 258.5 -54zM508 735q51 -45 133 -45q94 0 157.5 55.5
t63.5 141.5q0 72 -50 116t-134 44q-94 0 -157.5 -53.5t-63.5 -141.5q0 -72 51 -117z" />
    <glyph glyph-name="colon" unicode=":" horiz-adv-x="649" 
d="M240.5 638q-54.5 52 -54.5 124t53.5 125t127.5 53q72 0 126 -53t54 -125t-54.5 -124t-125.5 -52q-72 0 -126.5 52zM154.5 42q-52.5 52 -52.5 124t53.5 125t127.5 53q72 0 126 -53t54 -125t-54.5 -124t-125.5 -52q-76 0 -128.5 52z" />
    <glyph glyph-name="semicolon" unicode=";" horiz-adv-x="638" 
d="M494.5 887q54.5 -53 54.5 -125t-54.5 -124t-125.5 -52q-72 0 -126.5 52t-54.5 124t53.5 125t127.5 53q71 0 125.5 -53zM413.5 281.5q57.5 -56.5 57.5 -154.5q0 -102 -50 -182t-136 -124t-191 -44q-29 0 -45 2v84q106 -4 168 37t74 108q-14 -6 -41 -6q-70 0 -115 43
t-45 113q0 80 52.5 130t131.5 50q82 0 139.5 -56.5z" />
    <glyph glyph-name="less" unicode="&#x3c;" horiz-adv-x="819" 
d="M768 600l-346 -131l309 -133l-49 -350l-639 315l49 336l725 315z" />
    <glyph glyph-name="equal" unicode="=" horiz-adv-x="1140" 
d="M1012 979l-37 -260h-739l36 260h740zM946 508l-37 -262h-739l37 262h739z" />
    <glyph glyph-name="greater" unicode="&#x3e;" horiz-adv-x="835" 
d="M778 637l-49 -336l-725 -315l49 358l346 133l-309 131l49 344z" />
    <glyph glyph-name="question" unicode="?" horiz-adv-x="1038" 
d="M330 465l2 14q14 102 73.5 170t163.5 148q82 63 118 102t36 90q0 39 -33 64.5t-84 25.5q-72 0 -119 -41t-51 -104h-297q12 109 79 202t178.5 148t254.5 55q174 0 282.5 -80.5t108.5 -216.5q0 -92 -35.5 -161.5t-85 -115.5t-128.5 -106q-76 -55 -115 -94t-51 -86
q-2 -6 -2 -14h-295zM283.5 19q-50.5 42 -50.5 116q0 94 67 157.5t165 63.5q78 0 127 -42t49 -117q0 -94 -64.5 -157t-164.5 -63q-78 0 -128.5 42z" />
    <glyph glyph-name="at" unicode="@" horiz-adv-x="1976" 
d="M1356 844v-510q0 -51 28.5 -81t69.5 -30q82 0 124 76t42 207q0 182 -79 321.5t-220 216t-326 76.5q-182 0 -325.5 -79.5t-223 -223t-79.5 -330.5q0 -186 79.5 -331.5t222 -225.5t326.5 -80q197 0 353 97l104 -199q-207 -115 -457 -115q-246 0 -444.5 107.5t-312 301.5
t-113.5 445q0 252 115.5 445.5t314.5 300t440 106.5q238 0 437.5 -105.5t315.5 -293.5t116 -424q0 -145 -52.5 -259t-148.5 -177.5t-223 -63.5q-133 0 -207 67t-92 155q-37 -47 -97.5 -73t-134.5 -26q-152 0 -246 99.5t-94 259.5q0 106 45 189t126 130t186 47
q72 0 133 -25.5t98 -70.5l10 76h189zM1084.5 371q48.5 49 48.5 129t-48.5 130t-121.5 50q-80 0 -128.5 -50t-48.5 -128q0 -80 49.5 -130t127.5 -50q73 0 121.5 49z" />
    <glyph glyph-name="A" unicode="A" horiz-adv-x="1318" 
d="M623 1313h315l301 -1313h-340l-55 256h-410l-127 -256h-358zM788 532l-61 324l-158 -324h219z" />
    <glyph glyph-name="B" unicode="B" horiz-adv-x="1243" 
d="M1115 558.5q52 -62.5 52 -159.5q0 -184 -142 -291.5t-388 -107.5h-565l184 1313h569q195 0 303.5 -84t108.5 -225q0 -131 -71.5 -223.5t-192.5 -129.5q90 -30 142 -92.5zM851 817q44 45 44 101q0 45 -29.5 80.5t-95.5 35.5h-225l-37 -262h223q76 0 120 45zM797 318.5
q47 39.5 47 101.5q0 49 -36 82t-91 33h-242l-37 -256h242q70 0 117 39.5z" />
    <glyph glyph-name="C" unicode="C" horiz-adv-x="1505" 
d="M389 52q-143 79 -221 222.5t-78 329.5q0 209 97.5 377t269.5 264t389 96q174 0 313 -63.5t225 -179t103 -267.5h-369q-31 98 -106.5 150.5t-184.5 52.5t-196.5 -51t-138 -144.5t-50.5 -211.5q0 -156 84 -251t224 -95q111 0 202.5 56t124.5 148h369
q-29 -150 -130.5 -266.5t-256 -181t-338.5 -64.5q-189 0 -332 79z" />
    <glyph glyph-name="D" unicode="D" horiz-adv-x="1427" 
d="M1102 1236q137 -77 214 -214t77 -313q0 -211 -102.5 -372t-288 -249t-427.5 -88h-503l184 1313h532q177 0 314 -77zM834.5 349q97.5 50 151.5 140.5t54 206.5q0 150 -78.5 234t-220.5 84h-196l-101 -715h164q129 0 226.5 50z" />
    <glyph glyph-name="E" unicode="E" horiz-adv-x="1122" 
d="M545 1014l-29 -205h488l-39 -289h-488l-31 -221h549l-41 -299h-882l184 1313h883l-43 -299h-551z" />
    <glyph glyph-name="F" unicode="F" horiz-adv-x="1087" 
d="M547 1014l-33 -226h471l-43 -288h-469l-70 -500h-331l184 1313h891l-43 -299h-557z" />
    <glyph glyph-name="G" unicode="G" horiz-adv-x="1499" 
d="M1470 735l-14 -141q-18 -184 -113.5 -325.5t-252 -218.5t-353.5 -77q-193 0 -340 79t-228 221.5t-81 328.5q0 209 97.5 378t268.5 265t384 96q168 0 302 -60t218 -170t106 -253h-352q-35 82 -112.5 129t-182.5 47q-106 0 -193 -50t-137.5 -142t-50.5 -211q0 -158 89 -254
t235 -96q109 0 192.5 49t114.5 131h-311l39 274h675z" />
    <glyph glyph-name="H" unicode="H" horiz-adv-x="1390" 
d="M256 1313h332l-72 -508h471l72 508h334l-185 -1313h-334l72 516h-471l-72 -516h-331z" />
    <glyph glyph-name="I" unicode="I" horiz-adv-x="585" 
d="M72 0l184 1313h332l-185 -1313h-331z" />
    <glyph glyph-name="J" unicode="J" horiz-adv-x="1081" 
d="M946 391q-29 -215 -158 -316.5t-333 -101.5q-195 0 -311.5 116t-116.5 310l2 41h319q-4 -25 -4 -39q0 -59 34 -94t91 -35q129 0 147 131l86 611h-356l43 299h686z" />
    <glyph glyph-name="K" unicode="K" horiz-adv-x="1339" 
d="M918 748l344 -748h-398l-215 459l-213 -230l-33 -235h-331l184 1319h332l-80 -565l520 565h414z" />
    <glyph glyph-name="L" unicode="L" horiz-adv-x="1054" 
d="M983 299l-41 -299h-870l184 1313h336l-143 -1014h534z" />
    <glyph glyph-name="M" unicode="M" horiz-adv-x="1622" 
d="M1606 1313l-185 -1313h-323l12 94q35 258 86 467l-315 -524h-293l-150 518q-12 -258 -39 -461l-12 -94h-315l184 1313h281l251 -907l519 907h299z" />
    <glyph glyph-name="N" unicode="N" horiz-adv-x="1409" 
d="M1393 1313l-185 -1313h-307l-397 737l-105 -737h-327l184 1313h307l398 -742l104 742h328z" />
    <glyph glyph-name="O" unicode="O" horiz-adv-x="1527" 
d="M410.5 54q-150.5 81 -234.5 228.5t-84 340.5q0 203 93.5 366.5t261 257.5t380.5 94q195 0 345.5 -80.5t234.5 -228t84 -340.5q0 -203 -93 -366.5t-261 -258t-381 -94.5q-195 0 -345.5 81zM958 331q84 50 132.5 140t48.5 207q0 160 -89 258t-237 98q-104 0 -188 -50
t-132.5 -140t-48.5 -207q0 -160 89.5 -258t236.5 -98q104 0 188 50z" />
    <glyph glyph-name="P" unicode="P" horiz-adv-x="1222" 
d="M1119 1201.5q118 -111.5 118 -296.5q0 -143 -69.5 -251.5t-197.5 -169t-294 -60.5h-213l-60 -424h-331l184 1313h535q210 0 328 -111.5zM827.5 754q55.5 47 55.5 125q0 147 -170 147h-166l-45 -319h170q100 0 155.5 47z" />
    <glyph glyph-name="Q" unicode="Q" horiz-adv-x="1527" 
d="M862 -45q-8 -41 -8 -64q0 -39 27.5 -62.5t99.5 -23.5q47 0 84 7l-37 -261q-61 -14 -156 -14q-168 0 -251.5 76t-83.5 221q0 43 6 90l10 74q-211 55 -336 221t-125 404q0 203 93.5 366.5t261 257.5t380.5 94q195 0 345.5 -80.5t234.5 -228t84 -340.5q0 -186 -78 -338.5
t-220 -251t-327 -122.5zM533.5 379q89.5 -98 236.5 -98q104 0 188 50t132.5 140t48.5 207q0 160 -89 258t-237 98q-104 0 -188 -50t-132.5 -140t-48.5 -207q0 -160 89.5 -258z" />
    <glyph glyph-name="R" unicode="R" horiz-adv-x="1294" 
d="M256 1313h573q135 0 240 -53.5t162 -149.5t57 -221q0 -129 -80 -235.5t-211 -153.5l162 -500h-373l-129 442h-192l-62 -442h-331zM719 725q92 0 145.5 46t53.5 118q0 66 -38 101.5t-110 35.5h-223l-41 -301h213z" />
    <glyph glyph-name="S" unicode="S" horiz-adv-x="1224" 
d="M232.5 1132.5q66.5 100.5 183 154.5t264.5 54q143 0 256 -52t177.5 -146t68.5 -213h-338q-6 63 -54.5 98t-123.5 35q-72 0 -112 -29.5t-40 -79.5q0 -49 42 -72.5t134 -45.5l137 -35q158 -39 240 -141.5t82 -243.5q0 -135 -74 -235.5t-202 -154t-289 -53.5
q-156 0 -275 53.5t-185.5 151.5t-68.5 225h338q8 -70 63.5 -110.5t151.5 -40.5q86 0 134.5 32.5t48.5 88.5q0 53 -37 77.5t-95 36.5l-161 39q-166 41 -249 139.5t-83 237.5q0 129 66.5 229.5z" />
    <glyph glyph-name="T" unicode="T" horiz-adv-x="1179" 
d="M1223 1014h-387l-142 -1014h-332l142 1014h-391l41 299h1110z" />
    <glyph glyph-name="U" unicode="U" horiz-adv-x="1433" 
d="M248 1313h332l-101 -760q-4 -33 -4 -53q0 -104 62.5 -167t177.5 -63q102 0 175 60.5t87 161.5l115 821h331l-118 -854q-31 -231 -195 -358.5t-410 -127.5q-254 0 -404.5 140.5t-150.5 392.5q0 43 9 104z" />
    <glyph glyph-name="V" unicode="V" horiz-adv-x="1411" 
d="M485 1313l201 -907l457 907h370l-698 -1313h-340l-340 1313h350z" />
    <glyph glyph-name="W" unicode="W" horiz-adv-x="1986" 
d="M487 1313l113 -785l320 750h364l107 -750l333 785h365l-606 -1313h-324l-117 799l-342 -799h-323l-238 1313h348z" />
    <glyph glyph-name="X" unicode="X" horiz-adv-x="1427" 
d="M528 672l-376 641h405l211 -410l295 410h450l-557 -680l371 -635h-409l-205 389l-287 -387h-459z" />
    <glyph glyph-name="Y" unicode="Y" horiz-adv-x="1325" 
d="M500 1313l198 -484l336 484h393l-591 -811l-72 -502h-334l72 504l-367 809h365z" />
    <glyph glyph-name="Z" unicode="Z" horiz-adv-x="1140" 
d="M1153 1059l-651 -760h536l-41 -299h-991l37 268l631 746h-514l43 299h987z" />
    <glyph glyph-name="bracketleft" unicode="[" horiz-adv-x="632" 
d="M524 -227h-471l254 1804h471l-33 -236h-206l-189 -1333h207z" />
    <glyph glyph-name="backslash" unicode="\" horiz-adv-x="1218" 
d="M840 0l-721 1313h315l719 -1313h-313z" />
    <glyph glyph-name="bracketright" unicode="]" horiz-adv-x="632" 
d="M154 8l188 1333h-207l33 236h471l-254 -1804h-471l33 235h207z" />
    <glyph glyph-name="asciicircum" unicode="^" horiz-adv-x="1021" 
d="M672 887l-74 184l-127 -184h-266l295 426h264l172 -426h-264z" />
    <glyph glyph-name="underscore" unicode="_" horiz-adv-x="825" 
d="M760 -29l-33 -219h-831l32 219h832z" />
    <glyph glyph-name="grave" unicode="`" horiz-adv-x="837" 
d="M344 1714l148 152l346 -365l-93 -96z" />
    <glyph glyph-name="a" unicode="a" horiz-adv-x="1228" 
d="M1192 930l-131 -930h-318l13 88q-51 -53 -130 -84t-167 -31q-117 0 -207 56.5t-140.5 159t-50.5 235.5q0 154 66 276.5t179.5 192.5t250.5 70q98 0 182 -37t135 -103l54 107h264zM737.5 324.5q63.5 64.5 63.5 160.5q0 88 -52.5 140.5t-138.5 52.5q-94 0 -157.5 -63.5
t-63.5 -159.5q0 -86 53.5 -140.5t137.5 -54.5q94 0 157.5 64.5z" />
    <glyph glyph-name="b" unicode="b" horiz-adv-x="1220" 
d="M957.5 905.5q95.5 -57.5 147.5 -162t52 -241.5q0 -156 -67.5 -276t-184.5 -186.5t-260 -66.5q-102 0 -182 35t-127 98l-33 -106h-264l197 1405h317l-74 -526q49 41 117 62.5t143 21.5q123 0 218.5 -57.5zM768 324.5q63 64.5 63 160.5q0 88 -52 140.5t-138 52.5
q-94 0 -157.5 -63.5t-63.5 -159.5q0 -86 53 -140.5t137 -54.5q95 0 158 64.5z" />
    <glyph glyph-name="c" unicode="c" horiz-adv-x="1126" 
d="M282.5 31.5q-104.5 58.5 -162 164t-57.5 242.5q0 152 70 271.5t191.5 186.5t273.5 67q131 0 235.5 -51.5t169 -144.5t74.5 -216h-323q-14 59 -59.5 95t-104.5 36q-88 0 -144.5 -64.5t-56.5 -168.5q0 -90 44 -143.5t122 -53.5q61 0 111.5 36t66.5 93h320
q-14 -115 -87 -208t-188.5 -146.5t-251.5 -53.5q-139 0 -243.5 58.5z" />
    <glyph glyph-name="d" unicode="d" horiz-adv-x="1206" 
d="M1245 1405l-196 -1405h-265l-2 102q-51 -59 -134 -94t-179 -35q-121 0 -213 56.5t-143.5 159t-51.5 235.5q0 158 67 280.5t181.5 190.5t253.5 68q86 0 162 -29t125 -80l78 551h317zM737.5 324.5q63.5 64.5 63.5 160.5q0 88 -52.5 140.5t-138.5 52.5q-94 0 -157.5 -63.5
t-63.5 -159.5q0 -86 53.5 -140.5t137.5 -54.5q94 0 157.5 64.5z" />
    <glyph glyph-name="e" unicode="e" horiz-adv-x="1095" 
d="M942 137q-70 -76 -177.5 -120t-229.5 -44q-141 0 -248 59.5t-165.5 166t-58.5 245.5q0 150 68 268.5t185.5 184.5t258.5 66q137 0 245 -58.5t167.5 -165t59.5 -243.5q0 -61 -17 -115h-659q2 -68 50 -110t124 -42q51 0 98 20.5t72 55.5h311q-14 -92 -84 -168zM727 586
q-8 53 -51 86t-103 33q-66 0 -111.5 -33t-58.5 -86h324z" />
    <glyph glyph-name="f" unicode="f" horiz-adv-x="759" 
d="M623.5 1106q-33.5 -45 -43.5 -113l-9 -63h224l-37 -262h-223l-156 -1112h-318l156 1112h-168l37 262h166l16 110q29 197 148 288t309 91q72 0 135 -14l-35 -260q-18 6 -67 6q-101 0 -134.5 -45z" />
    <glyph glyph-name="g" unicode="g" horiz-adv-x="1222" 
d="M1196 930l-139 -983q-29 -209 -173.5 -316.5t-355.5 -107.5q-215 0 -350 110.5t-158 305.5h316q12 -66 63.5 -102t126.5 -36q88 0 144.5 43t66.5 115l25 164q-51 -55 -130 -86t-169 -31q-117 0 -207 55.5t-140 154.5t-50 230q0 150 65.5 267.5t179 183.5t248.5 66
q102 0 183 -37t135 -103l41 107h278zM741.5 350.5q63.5 57.5 63.5 147.5q0 82 -53.5 131t-139.5 49q-92 0 -155.5 -56.5t-63.5 -148.5q0 -80 52.5 -130t138.5 -50q94 0 157.5 57.5z" />
    <glyph glyph-name="h" unicode="h" horiz-adv-x="1126" 
d="M236 1405h317l-78 -557q49 55 124 85t159 30q147 0 222 -81t75 -220q0 -41 -6 -84l-80 -578h-318l70 502q4 33 4 43q0 82 -41 106.5t-78 24.5q-158 0 -180 -168l-72 -508h-315z" />
    <glyph glyph-name="i" unicode="i" horiz-adv-x="518" 
d="M209 1089.5q-51 49.5 -51 122.5q0 59 32.5 111.5t87 83.5t117.5 31q80 0 131.5 -48.5t51.5 -121.5q0 -59 -33 -111.5t-88.5 -84.5t-116.5 -32q-80 0 -131 49.5zM164 930h317l-129 -930h-317z" />
    <glyph glyph-name="j" unicode="j" horiz-adv-x="518" 
d="M209 1089.5q-51 49.5 -51 122.5q0 59 32.5 111.5t88 83.5t118.5 31q80 0 130.5 -48.5t50.5 -121.5q0 -59 -33 -111.5t-88.5 -84.5t-116.5 -32q-80 0 -131 49.5zM166 930h317l-192 -1374h-316z" />
    <glyph glyph-name="k" unicode="k" horiz-adv-x="1103" 
d="M780 586l230 -586h-361l-129 348l-131 -119l-33 -229h-317l197 1405h317l-111 -787l324 312h393z" />
    <glyph glyph-name="l" unicode="l" horiz-adv-x="524" 
d="M236 1405h317l-197 -1405h-317z" />
    <glyph glyph-name="m" unicode="m" horiz-adv-x="1703" 
d="M1555.5 883q80.5 -80 80.5 -213q0 -18 -4 -60l-86 -610h-317l74 530q2 12 2 33q0 59 -31 92t-80 33q-70 0 -117 -46t-57 -128l-72 -514h-311l74 530q2 12 2 33q0 59 -32 91t-85 32q-66 0 -112 -47t-56 -125l-72 -514h-317l129 930h295l2 -82q51 53 124 84t150 31
q96 0 171 -43t104 -115q53 76 137 117t186 41q138 0 218.5 -80z" />
    <glyph glyph-name="n" unicode="n" horiz-adv-x="1116" 
d="M966.5 879q77.5 -84 77.5 -226q0 -35 -6 -75l-80 -578h-317l70 502q4 37 4 47q0 127 -121 127q-74 0 -116 -44t-52 -124l-72 -508h-315l129 930h264l4 -96q51 59 133 94t172 35q148 0 225.5 -84z" />
    <glyph glyph-name="o" unicode="o" horiz-adv-x="1144" 
d="M133 707.5q70 119.5 194 187.5t279 68q145 0 253 -58.5t165 -164t57 -242.5q0 -152 -69.5 -272t-193.5 -186.5t-279 -66.5q-145 0 -253 58.5t-165.5 164t-57.5 240.5q0 152 70 271.5zM433 305q44 -53 122 -53q88 0 144.5 64.5t56.5 168.5q0 90 -44 143.5t-122 53.5
q-88 0 -144.5 -64.5t-56.5 -168.5q0 -91 44 -144z" />
    <glyph glyph-name="p" unicode="p" horiz-adv-x="1216" 
d="M960.5 900q92.5 -56 143.5 -158.5t51 -235.5q0 -158 -66.5 -281t-181 -190.5t-254.5 -67.5q-86 0 -161.5 29t-124.5 80l-74 -520h-318l193 1374h264l2 -103q51 59 134 94t180 35q120 0 212.5 -56zM763.5 315.5q63.5 63.5 63.5 159.5q0 86 -53 140.5t-137 54.5
q-92 0 -156.5 -63.5t-64.5 -162.5q0 -86 53 -139t137 -53q94 0 157.5 63.5z" />
    <glyph glyph-name="q" unicode="q" horiz-adv-x="1208" 
d="M1182 930l-193 -1374h-317l69 495q-49 -41 -116.5 -62.5t-143.5 -21.5q-123 0 -218 57.5t-147.5 162t-52.5 241.5q0 156 68 275.5t184.5 186t259.5 66.5q102 0 182.5 -34.5t127.5 -98.5l33 107h264zM737.5 315.5q63.5 63.5 63.5 159.5q0 86 -53.5 140.5t-137.5 54.5
q-92 0 -156.5 -63.5t-64.5 -162.5q0 -86 53.5 -139t137.5 -53q94 0 157.5 63.5z" />
    <glyph glyph-name="r" unicode="r" horiz-adv-x="765" 
d="M799 940l-37 -283q-29 6 -92 7q-109 0 -173.5 -60.5t-80.5 -175.5l-60 -428h-317l129 930h291l4 -107q33 57 97.5 91t144.5 34q53 0 94 -8z" />
    <glyph glyph-name="s" unicode="s" horiz-adv-x="962" 
d="M155.5 59q-108.5 86 -118.5 232h309q4 -37 34 -59.5t75 -22.5q43 0 67.5 15.5t24.5 41.5q0 23 -17.5 34t-44.5 17l-149 39q-115 31 -174.5 102.5t-59.5 170.5q0 92 54.5 168.5t149.5 121t212 44.5q168 0 273.5 -86t111.5 -226h-309q-2 33 -24.5 52.5t-59.5 19.5
t-59.5 -14.5t-22.5 -38.5q0 -23 16.5 -33t55.5 -21l135 -34q117 -31 179.5 -103.5t62.5 -173.5q0 -98 -58.5 -174t-157 -117t-219.5 -41q-178 0 -286.5 86z" />
    <glyph glyph-name="t" unicode="t" horiz-adv-x="700" 
d="M709 668h-172l-95 -668h-317l94 668h-170l37 262h170l33 239h317l-33 -239h172z" />
    <glyph glyph-name="u" unicode="u" horiz-adv-x="1097" 
d="M1069 930l-129 -930h-264l-4 100q-57 -63 -134 -95t-165 -32q-147 0 -225 79t-78 216q0 37 6 76l82 586h317l-76 -539q-2 -12 -2 -35q0 -109 121 -108q66 0 107 39t51 106l76 537h317z" />
    <glyph glyph-name="v" unicode="v" horiz-adv-x="1101" 
d="M412 930l100 -590l291 590h344l-518 -930h-312l-231 930h326z" />
    <glyph glyph-name="w" unicode="w" horiz-adv-x="1611" 
d="M432 930l55 -508l209 489h336l55 -512l213 531h347l-461 -930h-307l-64 516l-213 -516h-323l-183 930h336z" />
    <glyph glyph-name="x" unicode="x" horiz-adv-x="1050" 
d="M334 0h-361l357 449l-244 481h348q39 -82 94 -211l23 -53l176 264h369l-369 -475l227 -455h-346q-68 154 -83 195t-21 53z" />
    <glyph glyph-name="y" unicode="y" horiz-adv-x="1136" 
d="M1182 930l-582 -1071q-45 -84 -98 -150.5t-147.5 -119t-229.5 -52.5q-82 0 -195 25l41 258q78 -14 138 -15q92 0 134 37t76 107l25 49l-258 932h332l123 -565l293 565h348z" />
    <glyph glyph-name="z" unicode="z" horiz-adv-x="940" 
d="M47 281l416 370h-365l39 279h795l-39 -283l-430 -364h379l-39 -283h-795z" />
    <glyph glyph-name="braceleft" unicode="{" horiz-adv-x="716" 
d="M150 805q100 2 148 63.5t67 202.5l22 168q29 213 154 309.5t321 91.5l-31 -217q-86 0 -130 -52t-56 -148l-31 -219q-14 -106 -56 -180t-132 -124q57 -37 83 -88t26 -125q0 -41 -7 -90l-30 -219q-4 -41 -4 -57q0 -143 135 -144l-31 -217q-190 -4 -279.5 77t-89.5 233
q0 43 7 92l24 168q8 49 8 104q0 78 -32.5 119t-114.5 43z" />
    <glyph glyph-name="bar" unicode="|" horiz-adv-x="735" 
d="M618 1397l-217 -1557h-241l217 1557h241z" />
    <glyph glyph-name="braceright" unicode="}" horiz-adv-x="718" 
d="M484 529.5q-46 -64.5 -64 -199.5l-23 -168q-27 -193 -142.5 -299.5t-332.5 -102.5l31 217q76 0 124 46.5t62 154.5l31 219q16 111 59 184.5t129 118.5q-59 35 -84.5 89.5t-25.5 125.5q0 43 6 89l31 219q4 45 4 61q0 68 -31 103.5t-102 35.5l30 217q367 10 367 -311
q0 -41 -6 -90l-23 -168q-8 -74 -8 -102q0 -78 33 -120t115 -44l-31 -209q-103 -2 -149 -66.5z" />
    <glyph glyph-name="asciitilde" unicode="~" horiz-adv-x="880" 
d="M848 702q2 -16 2 -45q0 -131 -69.5 -203.5t-172.5 -72.5q-61 0 -107 23.5t-102 66.5q-39 31 -63.5 45t-50.5 14q-29 0 -47.5 -20.5t-18.5 -63.5q0 -18 2 -30h-160q-2 16 -2 45q0 125 69 198.5t171 73.5q59 0 103 -23.5t102 -66.5q37 -33 64.5 -48t56.5 -15q66 0 65 86
q0 23 -2 36h160z" />
    <glyph glyph-name="uni00A0" unicode="&#xa0;" horiz-adv-x="487" 
 />
    <glyph glyph-name="exclamdown" unicode="&#xa1;" horiz-adv-x="667" 
d="M265.5 973.5q-58.5 58.5 -58.5 142.5q0 94 65.5 158.5t169.5 64.5q92 0 149.5 -55t57.5 -137q0 -96 -68.5 -164t-168.5 -68q-88 0 -146.5 58.5zM272 803h220l-50 -803h-344z" />
    <glyph glyph-name="cent" unicode="&#xa2;" horiz-adv-x="1310" 
d="M787.5 494.5q50.5 35.5 66.5 93.5h320q-12 -106 -78 -195.5t-170.5 -144.5t-229.5 -66l-28 -209h-164l31 217q-162 35 -256.5 157t-94.5 298q0 141 60.5 255t167 183.5t241.5 81.5l25 176h164l-25 -180q160 -27 263.5 -134t117.5 -269h-324q-14 59 -59 95t-104 36
q-88 0 -144.5 -64.5t-56.5 -169.5q0 -90 44 -143t122 -53q61 0 111.5 35.5z" />
    <glyph glyph-name="sterling" unicode="&#xa3;" horiz-adv-x="1464" 
d="M646 365.5q-32 -58.5 -85 -95.5l705 -2v-268h-1078v270q84 0 135.5 56.5t51.5 146.5v25h-187v235h111q-23 76 -23 141q0 139 66 245t182.5 163t268.5 57q150 0 262 -56t174.5 -159.5t62.5 -236.5h-307q2 78 -54.5 126t-146.5 48q-88 0 -144 -52.5t-56 -138.5
q0 -63 32 -137h437v-235h-373q-2 -74 -34 -132.5z" />
    <glyph glyph-name="currency" unicode="&#xa4;" horiz-adv-x="1568" 
d="M1282 420l152 -133l-203 -205l-137 149q-127 -78 -277 -77q-150 0 -278 77l-138 -149l-202 205l153 137q-72 123 -71 266q0 143 71 271l-153 137l202 205l138 -150q129 78 278 78q147 0 277 -78l137 150l203 -205l-154 -135q76 -123 76 -273q0 -145 -74 -270zM941 474
q58 34 92 92.5t34 123.5q0 104 -73.5 178t-176.5 74q-104 0 -178 -73.5t-74 -178.5q0 -66 34 -124t92.5 -92t125.5 -34q66 0 124 34z" />
    <glyph glyph-name="yen" unicode="&#xa5;" horiz-adv-x="1622" 
d="M1155 791h164l-31 -228h-307l-14 -104h305l-31 -226h-307l-33 -233h-315l32 233h-309l31 226h309l15 104h-308l31 228h170l-285 522h363l211 -484l344 484h397z" />
    <glyph glyph-name="brokenbar" unicode="&#xa6;" horiz-adv-x="759" 
d="M643 1399l-80 -578h-266l80 578h266zM514 473l-84 -596h-266l84 596h266z" />
    <glyph glyph-name="section" unicode="&#xa7;" horiz-adv-x="1247" 
d="M404.5 -334q-97.5 45 -150.5 126t-53 188h295q-2 -66 37.5 -100t97.5 -34q57 0 90 30t33 77q0 49 -34 69.5t-72 28.5t-52 12l-119 33q-264 72 -264 291q0 90 46 155.5t132 100.5q-102 39 -154.5 108.5t-52.5 168.5q0 154 118 244.5t306 90.5q197 0 313.5 -97t116.5 -259
h-297q2 66 -37.5 99.5t-99.5 33.5q-53 0 -86 -27.5t-33 -74.5q0 -41 23.5 -63.5t47.5 -30t87 -23.5l119 -31q96 -25 180 -89t84 -199q0 -92 -47 -159t-131 -99q102 -39 154.5 -110t52.5 -169q0 -154 -119 -245t-305 -91q-129 0 -226.5 45zM718 376.5q32 22.5 32 63.5
q0 43 -37 63.5t-97 20.5q-63 0 -95 -22.5t-32 -61.5q0 -45 37 -65.5t97 -20.5q63 0 95 22.5z" />
    <glyph glyph-name="dieresis" unicode="&#xa8;" horiz-adv-x="911" 
d="M279 1447q-43 42 -43 105q0 66 43 107t106 41t105 -41t42 -107q0 -63 -41.5 -105t-105.5 -42q-63 0 -106 42zM707 1447q-43 42 -43 105q0 66 43 107t106 41t105.5 -41t42.5 -107q0 -63 -42 -105t-106 -42q-63 0 -106 42z" />
    <glyph glyph-name="copyright" unicode="&#xa9;" horiz-adv-x="1361" 
d="M445.5 223.5q-123.5 71.5 -196.5 195.5t-73 269q0 147 73 271t196.5 196t269.5 72q145 0 268 -73t194.5 -196.5t71.5 -269.5q0 -145 -71.5 -268t-194.5 -195.5t-268 -72.5q-146 0 -269.5 71.5zM911 348q90 53 142.5 143.5t52.5 196.5q0 109 -52.5 199t-142.5 143t-196 53
q-109 0 -199 -53t-143.5 -143t-53.5 -199q0 -106 53.5 -196.5t143.5 -143.5t199 -53q106 0 196 53zM543.5 869.5q68.5 68.5 177.5 68.5q88 0 151.5 -49t77.5 -127h-137q-8 27 -33.5 44t-58.5 17q-49 0 -80 -37.5t-31 -97.5q0 -57 31 -93t80 -36q33 0 58.5 14.5t33.5 44.5
h137q-14 -78 -77.5 -127t-151.5 -49q-109 0 -177.5 69t-68.5 177q0 113 68.5 181.5z" />
    <glyph glyph-name="guillemotleft" unicode="&#xab;" horiz-adv-x="1224" 
d="M473 465l168 -395h-350l-168 395l278 393h351zM965 465l165 -395h-350l-166 395l277 393h350z" />
    <glyph glyph-name="logicalnot" unicode="&#xac;" horiz-adv-x="1236" 
d="M764 217l31 209h-699l47 338h1037l-78 -547h-338z" />
    <glyph glyph-name="registered" unicode="&#xae;" horiz-adv-x="1124" 
d="M869.5 1279q111.5 -60 176 -170t64.5 -251q0 -143 -64.5 -253.5t-175 -171t-247.5 -60.5q-139 0 -253 60.5t-179.5 171t-65.5 253.5q0 141 65.5 251t179 170t253.5 60q135 0 246.5 -60zM806 537q83 45 130 128t47 191q0 106 -47 189t-130 128.5t-185 45.5
q-104 0 -188.5 -45.5t-131.5 -128t-47 -189.5q0 -109 47 -190.5t131 -127.5t189 -46q102 0 185 45zM733 797l68 -142h-115l-55 125h-72v-125h-108v402h202q72 0 113 -38t41 -101q0 -88 -74 -121zM559 881h80q49 0 49 37t-49 36h-80v-73z" />
    <glyph glyph-name="macron" unicode="&#xaf;" horiz-adv-x="933" 
d="M932 1624v-207h-604v207h604z" />
    <glyph glyph-name="degree" unicode="&#xb0;" horiz-adv-x="667" 
d="M226.5 877.5q-76.5 76.5 -76.5 191.5t76.5 192.5t191.5 77.5q117 0 193.5 -77.5t76.5 -192.5t-76.5 -191.5t-193.5 -76.5q-115 0 -191.5 76.5zM494.5 995.5q29.5 28.5 29.5 73.5t-29.5 76t-76.5 31t-76 -32t-29 -75t29 -72.5t76 -29.5t76.5 28.5z" />
    <glyph glyph-name="plusminus" unicode="&#xb1;" horiz-adv-x="927" 
d="M891 731l-35 -242h-266l-23 -157h-243l22 157h-268l35 242h266l22 156h244l-22 -156h268zM43 242h778l-33 -242h-778z" />
    <glyph glyph-name="uni00B2" unicode="&#xb2;" horiz-adv-x="819" 
d="M512 686h260l-31 -215h-628l24 170l379 336q33 29 54.5 59.5t21.5 71.5q0 37 -22.5 59.5t-63.5 22.5q-47 0 -76 -28.5t-33 -76.5h-237q14 145 114.5 234.5t247.5 89.5q143 0 231.5 -73.5t88.5 -194.5q0 -162 -164 -307z" />
    <glyph glyph-name="uni00B3" unicode="&#xb3;" horiz-adv-x="835" 
d="M821 1202l-190 -166q86 -25 136 -89t50 -161q0 -90 -47 -165.5t-132 -119.5t-196 -44q-158 0 -251 89t-85 234h240q0 -49 31 -78.5t82 -29.5t83.5 28.5t32.5 75.5q0 45 -29.5 73t-88.5 28h-150l21 157l170 148h-285l29 209h606z" />
    <glyph glyph-name="acute" unicode="&#xb4;" horiz-adv-x="712" 
d="M414 1503l346 365l147 -152l-403 -309z" />
    <glyph glyph-name="mu" unicode="&#xb5;" horiz-adv-x="1361" 
d="M1253 215l-30 -215q-76 -23 -156 -23q-90 0 -152.5 34t-83.5 93q-43 -59 -114.5 -95t-147.5 -36q-74 0 -126 28t-70 77l-74 -522h-313l192 1374h318l-68 -484q-4 -33 -4 -45q0 -78 43 -116.5t117 -38.5q84 0 141 52t72 148l67 484h318l-82 -584q-2 -14 -2 -39
q0 -53 25.5 -74.5t72.5 -21.5q39 0 57 4z" />
    <glyph glyph-name="paragraph" unicode="&#xb6;" horiz-adv-x="1136" 
d="M1272 1194h-146l-208 -1491h-87l209 1491h-178l-211 -1487h-264l131 920h-78q-168 0 -253 80.5t-85 222.5q0 174 112 278.5t300 104.5h774z" />
    <glyph glyph-name="periodcentered" unicode="&#xb7;" horiz-adv-x="765" 
d="M281.5 359.5q-54.5 31.5 -87 85t-32.5 112.5q0 94 69.5 164t165.5 70q59 0 113.5 -33t86.5 -87.5t32 -113.5t-32 -112.5t-85 -85t-115 -31.5q-61 0 -115.5 31.5z" />
    <glyph glyph-name="cedilla" unicode="&#xb8;" horiz-adv-x="624" 
d="M303 -149.5q49 -22.5 84 -71.5t35 -123q0 -109 -80 -169t-195 -60q-100 0 -182 45v153q20 -25 56 -39t73 -14q51 0 86 24.5t35 71.5q0 51 -40 82t-85 25l-53 67l121 232h127v-76l-74 -127q43 2 92 -20.5z" />
    <glyph glyph-name="uni00B9" unicode="&#xb9;" horiz-adv-x="690" 
d="M168 1214q141 0 211 45.5t96 131.5h217l-129 -920h-244l78 559h-256z" />
    <glyph glyph-name="guillemotright" unicode="&#xbb;" horiz-adv-x="1224" 
d="M612 465l-278 -395h-350l278 395l-168 393h350zM1102 465l-277 -395h-350l277 395l-166 393h350z" />
    <glyph glyph-name="onequarter" unicode="&#xbc;" horiz-adv-x="1650" 
d="M1612 354l-27 -190h-112l-23 -164h-227l24 164h-379l23 172l403 518h277l-72 -500h113zM1274 354l26 189l-145 -189h119zM233 80l1104 1263l119 -102l-1104 -1261zM133 1147q135 0 201 43t90 123h207l-121 -854h-234l74 512h-241z" />
    <glyph glyph-name="onehalf" unicode="&#xbd;" horiz-adv-x="1697" 
d="M1378 207h232l-29 -207h-588l25 164l350 309q66 59 66 117q0 33 -20 52q-19 19 -54 20q-41 0 -67 -27t-29 -66h-230q14 131 107 216q92 85 233 85q135 0 218 -68q83 -69 83 -181q0 -90 -47 -162t-104 -123zM233 80l1104 1263l119 -102l-1104 -1261zM133 1147
q135 0 201 43t90 123h207l-121 -854h-234l74 512h-241z" />
    <glyph glyph-name="threequarters" unicode="&#xbe;" horiz-adv-x="1726" 
d="M1688 354l-27 -190h-113l-22 -164h-228l25 164h-379l23 172l403 518h277l-72 -500h113zM1350 354l26 189l-145 -189h119zM309 80l1104 1263l119 -102l-1104 -1261zM737 1133l-170 -148q80 -23 125 -84t45 -147t-44 -157t-125 -112t-183 -41q-147 0 -234 83t-79 221h229
q0 -43 28 -70t72 -27q47 0 75 26t28 66q0 88 -105 88h-143l20 152l150 129h-258l29 201h565z" />
    <glyph glyph-name="questiondown" unicode="&#xbf;" horiz-adv-x="1040" 
d="M810 1297q50 -42 50 -115q0 -94 -66.5 -157.5t-166.5 -63.5q-76 0 -126 43t-50 116q0 94 65.5 156.5t163.5 62.5q80 0 130 -42zM764 852l-2 -14q-14 -102 -73.5 -170t-166.5 -148q-82 -63 -117.5 -102t-35.5 -90q0 -39 33.5 -64.5t84.5 -25.5q72 0 119 40.5t51 104.5h297
q-12 -109 -78.5 -202t-178 -148.5t-255.5 -55.5q-174 0 -282.5 81t-108.5 216q0 92 36 162t85 116t129 105q76 57 114 95.5t52 85.5l2 14h295z" />
    <glyph glyph-name="Agrave" unicode="&#xc0;" horiz-adv-x="1318" 
d="M379 1692l147 151l346 -364l-92 -97zM623 1313h315l301 -1313h-340l-55 256h-410l-127 -256h-358zM788 532l-61 324l-158 -324h219z" />
    <glyph glyph-name="Aacute" unicode="&#xc1;" horiz-adv-x="1318" 
d="M690 1481l346 364l148 -151l-404 -310zM623 1313h315l301 -1313h-340l-55 256h-410l-127 -256h-358zM788 532l-61 324l-158 -324h219z" />
    <glyph glyph-name="Acircumflex" unicode="&#xc2;" horiz-adv-x="1318" 
d="M647 1784h268l232 -316l-148 -100l-219 236l-219 -236l-145 100zM623 1313h315l301 -1313h-340l-55 256h-410l-127 -256h-358zM788 532l-61 324l-158 -324h219z" />
    <glyph glyph-name="Atilde" unicode="&#xc3;" horiz-adv-x="1318" 
d="M440 1462q0 113 53.5 178.5t139.5 65.5q45 0 83 -16.5t89 -47.5q25 -14 49.5 -26t42.5 -12q37 0 51.5 23.5t12.5 72.5h151q8 -53 8 -76q0 -102 -53 -165.5t-139 -63.5q-45 0 -86 16t-92 47q-25 14 -48.5 25.5t-39.5 11.5q-41 0 -54.5 -34t-9.5 -79h-152q-6 43 -6 80z
M623 1313h315l301 -1313h-340l-55 256h-410l-127 -256h-358zM788 532l-61 324l-158 -324h219z" />
    <glyph glyph-name="Adieresis" unicode="&#xc4;" horiz-adv-x="1318" 
d="M461 1424q-43 42 -43 106q0 66 43 106.5t106 40.5t105.5 -41t42.5 -106q0 -63 -42 -105.5t-106 -42.5q-63 0 -106 42zM889 1424q-43 42 -43 106q0 66 43 106.5t106 40.5t105.5 -41t42.5 -106q0 -63 -42 -105.5t-106 -42.5q-63 0 -106 42zM623 1313h315l301 -1313h-340
l-55 256h-410l-127 -256h-358zM788 532l-61 324l-158 -324h219z" />
    <glyph glyph-name="Aring" unicode="&#xc5;" horiz-adv-x="1318" 
d="M669.5 1194q67.5 -39 159.5 -39q90 0 158 39t103.5 102.5t35.5 133.5t-35.5 133t-103 103t-158.5 40q-92 0 -159.5 -39t-102.5 -102.5t-35 -134.5q0 -70 35 -133.5t102.5 -102.5zM904 1354.5q-30 -31.5 -75 -31.5t-74.5 31.5t-29.5 79.5q0 43 29.5 73.5t74.5 30.5
q43 0 74 -30.5t31 -73.5q0 -48 -30 -79.5zM623 1313h315l301 -1313h-340l-55 256h-410l-127 -256h-358zM788 532l-61 324l-158 -324h219z" />
    <glyph glyph-name="AE" unicode="&#xc6;" horiz-adv-x="1832" 
d="M1231 1001l-27 -184l510 -2l-43 -299l-510 2l-28 -205l575 -2l-43 -311l-575 2v-2h-314l37 266h-338l-143 -266h-383l729 1280l4 33h1167l-43 -312h-575zM918 1004h-46l-243 -453h225z" />
    <glyph glyph-name="Ccedilla" unicode="&#xc7;" horiz-adv-x="1505" 
d="M776 -129q49 -23 84 -72t35 -123q0 -109 -80 -169t-194 -60q-100 0 -183 45v154q20 -25 56 -39.5t73 -14.5q51 0 86 25t35 72q0 51 -40 81.5t-85 24.5l-53 68l121 231h127v-76l-74 -127q43 3 92 -20zM389 52q143 -79 332 -79q184 0 338.5 64.5t256 181.5t130.5 266h-369
q-33 -92 -125 -148t-202 -56q-139 0 -223.5 95t-84.5 251q0 119 50.5 212t138.5 144t196 51q109 0 184.5 -52t106.5 -151h369q-16 152 -102.5 267.5t-225.5 179t-313 63.5q-217 0 -389 -96t-269.5 -264t-97.5 -377q0 -186 78 -329.5t221 -222.5z" />
    <glyph glyph-name="Egrave" unicode="&#xc8;" horiz-adv-x="1122" 
d="M297 1692l147 151l347 -364l-93 -97zM545 1014l-29 -205h488l-39 -289h-488l-31 -221h549l-41 -299h-882l184 1313h883l-43 -299h-551z" />
    <glyph glyph-name="Eacute" unicode="&#xc9;" horiz-adv-x="1122" 
d="M608 1481l346 364l148 -151l-404 -310zM545 1014l-29 -205h488l-39 -289h-488l-31 -221h549l-41 -299h-882l184 1313h883l-43 -299h-551z" />
    <glyph glyph-name="Ecircumflex" unicode="&#xca;" horiz-adv-x="1122" 
d="M565 1784h269l231 -316l-147 -100l-220 236l-219 -236l-145 100zM545 1014l-29 -205h488l-39 -289h-488l-31 -221h549l-41 -299h-882l184 1313h883l-43 -299h-551z" />
    <glyph glyph-name="Edieresis" unicode="&#xcb;" horiz-adv-x="1122" 
d="M379 1424q-43 42 -43 106q0 66 43 106.5t106 40.5t105.5 -41t42.5 -106q0 -63 -42 -105.5t-106 -42.5q-63 0 -106 42zM807 1424q-43 42 -43 106q0 66 43 106.5t106 40.5t105.5 -41t42.5 -106q0 -63 -42 -105.5t-106 -42.5q-63 0 -106 42zM545 1014l-29 -205h488l-39 -289
h-488l-31 -221h549l-41 -299h-882l184 1313h883l-43 -299h-551z" />
    <glyph glyph-name="Igrave" unicode="&#xcc;" horiz-adv-x="585" 
d="M20 1692l148 151l346 -364l-92 -97zM72 0l184 1313h332l-185 -1313h-331z" />
    <glyph glyph-name="Iacute" unicode="&#xcd;" horiz-adv-x="585" 
d="M332 1481l346 364l147 -151l-403 -310zM72 0l184 1313h332l-185 -1313h-331z" />
    <glyph glyph-name="Icircumflex" unicode="&#xce;" horiz-adv-x="585" 
d="M289 1784h268l231 -316l-147 -100l-219 236l-219 -236l-146 100zM72 0l184 1313h332l-185 -1313h-331z" />
    <glyph glyph-name="Idieresis" unicode="&#xcf;" horiz-adv-x="585" 
d="M102 1424q-43 42 -43 106q0 66 43 106.5t107 40.5q63 0 105 -41t42 -106q0 -63 -42 -105.5t-105 -42.5q-64 0 -107 42zM530 1424q-43 42 -43 106q0 66 43 106.5t107 40.5q63 0 105 -41t42 -106q0 -63 -42 -105.5t-105 -42.5q-64 0 -107 42zM72 0l184 1313h332l-185 -1313
h-331z" />
    <glyph glyph-name="Eth" unicode="&#xd0;" horiz-adv-x="1536" 
d="M1141 1236q137 -77 214 -214t77 -313q0 -211 -102.5 -372t-288 -249t-427.5 -88h-503l75 545h-129v225h162l76 543h532q177 0 314 -77zM873.5 349q97.5 50 151.5 140.5t54 206.5q0 150 -78.5 234t-220.5 84h-196l-35 -244h131v-225h-162l-35 -246h164q129 0 226.5 50z
" />
    <glyph glyph-name="Ntilde" unicode="&#xd1;" horiz-adv-x="1409" 
d="M502 1505q0 113 53 178.5t139 65.5q45 0 83 -16.5t89 -46.5q25 -14 49.5 -26.5t42.5 -12.5q37 0 51.5 23.5t12.5 72.5h152q8 -53 8 -76q0 -102 -53.5 -165.5t-139.5 -63.5q-45 0 -86 16t-92 47q-25 14 -48.5 25.5t-39.5 11.5q-41 0 -54.5 -34t-9.5 -79h-151q-6 43 -6 80z
M1393 1313l-185 -1313h-307l-397 737l-105 -737h-327l184 1313h307l398 -742l104 742h328z" />
    <glyph glyph-name="Ograve" unicode="&#xd2;" horiz-adv-x="1527" 
d="M510 1720l147 152l347 -365l-93 -96zM410.5 54q-150.5 81 -234.5 228.5t-84 340.5q0 203 93.5 366.5t261 257.5t380.5 94q195 0 345.5 -80.5t234.5 -228t84 -340.5q0 -203 -93 -366.5t-261 -258t-381 -94.5q-195 0 -345.5 81zM958 331q84 50 132.5 140t48.5 207
q0 160 -89 258t-237 98q-104 0 -188 -50t-132.5 -140t-48.5 -207q0 -160 89.5 -258t236.5 -98q104 0 188 50z" />
    <glyph glyph-name="Oacute" unicode="&#xd3;" horiz-adv-x="1527" 
d="M821 1509l346 365l148 -152l-404 -309zM410.5 54q-150.5 81 -234.5 228.5t-84 340.5q0 203 93.5 366.5t261 257.5t380.5 94q195 0 345.5 -80.5t234.5 -228t84 -340.5q0 -203 -93 -366.5t-261 -258t-381 -94.5q-195 0 -345.5 81zM958 331q84 50 132.5 140t48.5 207
q0 160 -89 258t-237 98q-104 0 -188 -50t-132.5 -140t-48.5 -207q0 -160 89.5 -258t236.5 -98q104 0 188 50z" />
    <glyph glyph-name="Ocircumflex" unicode="&#xd4;" horiz-adv-x="1527" 
d="M778 1812h269l231 -315l-148 -100l-219 235l-219 -235l-145 100zM410.5 54q-150.5 81 -234.5 228.5t-84 340.5q0 203 93.5 366.5t261 257.5t380.5 94q195 0 345.5 -80.5t234.5 -228t84 -340.5q0 -203 -93 -366.5t-261 -258t-381 -94.5q-195 0 -345.5 81zM958 331
q84 50 132.5 140t48.5 207q0 160 -89 258t-237 98q-104 0 -188 -50t-132.5 -140t-48.5 -207q0 -160 89.5 -258t236.5 -98q104 0 188 50z" />
    <glyph glyph-name="Otilde" unicode="&#xd5;" horiz-adv-x="1527" 
d="M571 1491q0 113 53.5 178.5t139.5 65.5q45 0 83 -16.5t89 -47.5q25 -14 49.5 -26.5t42.5 -12.5q37 0 51.5 23.5t12.5 73.5h151q8 -53 8 -76q0 -102 -53 -166t-139 -64q-45 0 -86 16.5t-92 47.5q-25 14 -48.5 25.5t-39.5 11.5q-41 0 -54.5 -34t-9.5 -79h-151q-7 43 -7 80z
M410.5 54q-150.5 81 -234.5 228.5t-84 340.5q0 203 93.5 366.5t261 257.5t380.5 94q195 0 345.5 -80.5t234.5 -228t84 -340.5q0 -203 -93 -366.5t-261 -258t-381 -94.5q-195 0 -345.5 81zM958 331q84 50 132.5 140t48.5 207q0 160 -89 258t-237 98q-104 0 -188 -50
t-132.5 -140t-48.5 -207q0 -160 89.5 -258t236.5 -98q104 0 188 50z" />
    <glyph glyph-name="Odieresis" unicode="&#xd6;" horiz-adv-x="1527" 
d="M592 1453q-43 42 -43 106q0 66 43 106.5t106 40.5t105.5 -41t42.5 -106q0 -63 -42 -105.5t-106 -42.5q-63 0 -106 42zM1020 1453q-43 42 -43 106q0 66 43 106.5t106 40.5t105.5 -41t42.5 -106q0 -63 -42 -105.5t-106 -42.5q-63 0 -106 42zM410.5 54
q-150.5 81 -234.5 228.5t-84 340.5q0 203 93.5 366.5t261 257.5t380.5 94q195 0 345.5 -80.5t234.5 -228t84 -340.5q0 -203 -93 -366.5t-261 -258t-381 -94.5q-195 0 -345.5 81zM958 331q84 50 132.5 140t48.5 207q0 160 -89 258t-237 98q-104 0 -188 -50t-132.5 -140
t-48.5 -207q0 -160 89.5 -258t236.5 -98q104 0 188 50z" />
    <glyph glyph-name="multiply" unicode="&#xd7;" horiz-adv-x="1193" 
d="M449 623l-230 227l168 168l229 -227l228 227l168 -168l-228 -227l228 -230l-168 -168l-228 230l-229 -230l-168 168z" />
    <glyph glyph-name="Oslash" unicode="&#xd8;" horiz-adv-x="1527" 
d="M1172.5 1262.5q150.5 -80.5 234.5 -228t84 -340.5q0 -203 -93 -366.5t-261 -258t-381 -94.5q-195 0 -345.5 81t-234.5 228.5t-84 340.5q0 203 93.5 366.5t261 257.5t380.5 94q195 0 345.5 -80.5zM625 986q-84 -50 -132.5 -140t-48.5 -207q0 -92 33 -170l426 555
q-39 12 -90 12q-104 0 -188 -50zM958 333q84 50 132.5 140t48.5 207q0 111 -43 190l-430 -573q57 -14 104 -14q104 0 188 50z" />
    <glyph glyph-name="Ugrave" unicode="&#xd9;" horiz-adv-x="1433" 
d="M430 1692l148 151l346 -364l-93 -97zM248 1313h332l-101 -760q-4 -33 -4 -53q0 -104 62.5 -167t177.5 -63q102 0 175 60.5t87 161.5l115 821h331l-118 -854q-31 -231 -195 -358.5t-410 -127.5q-254 0 -404.5 140.5t-150.5 392.5q0 43 9 104z" />
    <glyph glyph-name="Uacute" unicode="&#xda;" horiz-adv-x="1433" 
d="M741 1481l346 364l148 -151l-404 -310zM248 1313h332l-101 -760q-4 -33 -4 -53q0 -104 62.5 -167t177.5 -63q102 0 175 60.5t87 161.5l115 821h331l-118 -854q-31 -231 -195 -358.5t-410 -127.5q-254 0 -404.5 140.5t-150.5 392.5q0 43 9 104z" />
    <glyph glyph-name="Ucircumflex" unicode="&#xdb;" horiz-adv-x="1433" 
d="M698 1784h269l231 -316l-147 -100l-220 236l-219 -236l-145 100zM248 1313h332l-101 -760q-4 -33 -4 -53q0 -104 62.5 -167t177.5 -63q102 0 175 60.5t87 161.5l115 821h331l-118 -854q-31 -231 -195 -358.5t-410 -127.5q-254 0 -404.5 140.5t-150.5 392.5q0 43 9 104z
" />
    <glyph glyph-name="Udieresis" unicode="&#xdc;" horiz-adv-x="1433" 
d="M512 1424q-43 42 -43 106q0 66 43 106.5t106 40.5t105.5 -41t42.5 -106q0 -63 -42 -105.5t-106 -42.5q-63 0 -106 42zM940 1424q-43 42 -43 106q0 66 43 106.5t107 40.5q63 0 105 -41t42 -106q0 -63 -42 -105.5t-105 -42.5q-64 0 -107 42zM248 1313h332l-101 -760
q-4 -33 -4 -53q0 -104 62.5 -167t177.5 -63q102 0 175 60.5t87 161.5l115 821h331l-118 -854q-31 -231 -195 -358.5t-410 -127.5q-254 0 -404.5 140.5t-150.5 392.5q0 43 9 104z" />
    <glyph glyph-name="Yacute" unicode="&#xdd;" horiz-adv-x="1325" 
d="M698 1481l346 364l148 -151l-404 -310zM500 1313l198 -484l336 484h393l-591 -811l-72 -502h-334l72 504l-367 809h365z" />
    <glyph glyph-name="Thorn" unicode="&#xde;" horiz-adv-x="1226" 
d="M1094.5 996.5q117.5 -111.5 117.5 -296.5q0 -143 -69.5 -251.5t-197.5 -169t-294 -60.5h-217l-31 -219h-331l184 1313h332l-29 -205h207q211 0 328.5 -111.5zM803 549q55 47 55 125q0 147 -170 147h-170l-45 -319h174q101 0 156 47z" />
    <glyph glyph-name="germandbls" unicode="&#xdf;" horiz-adv-x="1161" 
d="M1032.5 653q59.5 -86 59.5 -209q0 -131 -67 -236.5t-183.5 -164.5t-263.5 -59q-96 0 -156 18l39 272q33 -12 84 -12q100 0 162.5 59.5t62.5 151.5q0 84 -53 137.5t-148 53.5h-24l37 243h24q70 0 113 39t43 105q0 55 -33 85.5t-90 30.5q-59 0 -96 -34.5t-47 -98.5
l-142 -1036h-317l145 1036q29 199 164 301.5t332 102.5q186 0 300 -94.5t114 -247.5q0 -115 -62.5 -200t-169.5 -118q113 -39 172.5 -125z" />
    <glyph glyph-name="agrave" unicode="&#xe0;" horiz-adv-x="1228" 
d="M201 1341l147 152l346 -365l-92 -96zM1192 930l-131 -930h-318l13 88q-51 -53 -130 -84t-167 -31q-117 0 -207 56.5t-140.5 159t-50.5 235.5q0 154 66 276.5t179.5 192.5t250.5 70q98 0 182 -37t135 -103l54 107h264zM737.5 324.5q63.5 64.5 63.5 160.5q0 88 -52.5 140.5
t-138.5 52.5q-94 0 -157.5 -63.5t-63.5 -159.5q0 -86 53.5 -140.5t137.5 -54.5q94 0 157.5 64.5z" />
    <glyph glyph-name="aacute" unicode="&#xe1;" horiz-adv-x="1228" 
d="M512 1128l346 365l148 -152l-404 -309zM1192 930l-131 -930h-318l13 88q-51 -53 -130 -84t-167 -31q-117 0 -207 56.5t-140.5 159t-50.5 235.5q0 154 66 276.5t179.5 192.5t250.5 70q98 0 182 -37t135 -103l54 107h264zM737.5 324.5q63.5 64.5 63.5 160.5
q0 88 -52.5 140.5t-138.5 52.5q-94 0 -157.5 -63.5t-63.5 -159.5q0 -86 53.5 -140.5t137.5 -54.5q94 0 157.5 64.5z" />
    <glyph glyph-name="acircumflex" unicode="&#xe2;" horiz-adv-x="1228" 
d="M469 1434h266l232 -316l-146 -100l-219 235l-219 -235l-145 100zM1192 930l-131 -930h-318l13 88q-51 -53 -130 -84t-167 -31q-117 0 -207 56.5t-140.5 159t-50.5 235.5q0 154 66 276.5t179.5 192.5t250.5 70q98 0 182 -37t135 -103l54 107h264zM737.5 324.5
q63.5 64.5 63.5 160.5q0 88 -52.5 140.5t-138.5 52.5q-94 0 -157.5 -63.5t-63.5 -159.5q0 -86 53.5 -140.5t137.5 -54.5q94 0 157.5 64.5z" />
    <glyph glyph-name="atilde" unicode="&#xe3;" horiz-adv-x="1228" 
d="M262 1112q0 113 53.5 178.5t139.5 65.5q45 0 82.5 -16.5t89.5 -47.5q25 -14 49 -26.5t43 -12.5q37 0 51 23.5t12 73.5h152q8 -53 8 -76q0 -102 -53 -166t-139 -64q-45 0 -86 16.5t-93 47.5q-25 14 -48 25.5t-40 11.5q-41 0 -54 -34t-9 -79h-152q-6 43 -6 80zM1192 930
l-131 -930h-318l13 88q-51 -53 -130 -84t-167 -31q-117 0 -207 56.5t-140.5 159t-50.5 235.5q0 154 66 276.5t179.5 192.5t250.5 70q98 0 182 -37t135 -103l54 107h264zM737.5 324.5q63.5 64.5 63.5 160.5q0 88 -52.5 140.5t-138.5 52.5q-94 0 -157.5 -63.5t-63.5 -159.5
q0 -86 53.5 -140.5t137.5 -54.5q94 0 157.5 64.5z" />
    <glyph glyph-name="adieresis" unicode="&#xe4;" horiz-adv-x="1228" 
d="M283 1074q-43 42 -43 106q0 66 43 106.5t106 40.5t105.5 -41t42.5 -106q0 -63 -42 -105.5t-106 -42.5q-63 0 -106 42zM711 1074q-43 42 -43 106q0 66 43 106.5t106 40.5t105.5 -41t42.5 -106q0 -63 -42 -105.5t-106 -42.5q-63 0 -106 42zM1192 930l-131 -930h-318l13 88
q-51 -53 -130 -84t-167 -31q-117 0 -207 56.5t-140.5 159t-50.5 235.5q0 154 66 276.5t179.5 192.5t250.5 70q98 0 182 -37t135 -103l54 107h264zM737.5 324.5q63.5 64.5 63.5 160.5q0 88 -52.5 140.5t-138.5 52.5q-94 0 -157.5 -63.5t-63.5 -159.5q0 -86 53.5 -140.5
t137.5 -54.5q94 0 157.5 64.5z" />
    <glyph glyph-name="aring" unicode="&#xe5;" horiz-adv-x="1228" 
d="M442.5 1048.5q-67.5 38.5 -102.5 102t-35 133.5q0 72 35 135.5t102.5 102.5t159.5 39q90 0 157.5 -40t103.5 -103.5t36 -133.5t-36 -133.5t-103.5 -102t-157.5 -38.5q-92 0 -159.5 38.5zM677 1209.5q30 31.5 30 78.5q0 43 -31 74t-74 31q-45 0 -74.5 -31t-29.5 -74
q0 -47 29.5 -78.5t74.5 -31.5t75 31.5zM1192 930l-131 -930h-318l13 88q-51 -53 -130 -84t-167 -31q-117 0 -207 56.5t-140.5 159t-50.5 235.5q0 154 66 276.5t179.5 192.5t250.5 70q98 0 182 -37t135 -103l54 107h264zM737.5 324.5q63.5 64.5 63.5 160.5q0 88 -52.5 140.5
t-138.5 52.5q-94 0 -157.5 -63.5t-63.5 -159.5q0 -86 53.5 -140.5t137.5 -54.5q94 0 157.5 64.5z" />
    <glyph glyph-name="ae" unicode="&#xe6;" horiz-adv-x="1677" 
d="M1615 465q-5 -37 -10.5 -57.5t-7.5 -26.5h-645q0 -66 46 -107t122 -41q55 0 101.5 19.5t66.5 52.5h309q-35 -150 -168 -241t-315 -91q-125 0 -222 42t-144 114q-47 -72 -142.5 -114t-214.5 -42q-162 0 -257 81t-95 216q0 90 47 161t134 112t204 41h225l2 18
q6 59 -31.5 91t-107.5 32q-57 0 -100 -27.5t-54 -74.5h-268q20 154 146 247t301 93q106 0 187 -31t128 -86q57 55 143 85t181 30q125 0 226 -52.5t159.5 -147.5t58.5 -220q0 -39 -5 -76zM1267 670.5q-42 31.5 -110 31.5q-72 0 -119 -33.5t-55 -84.5h324q2 55 -40 86.5z
M625 385h-129q-66 0 -97.5 -25.5t-31.5 -68.5q0 -41 28.5 -64.5t73.5 -23.5q133 0 152 149z" />
    <glyph glyph-name="ccedilla" unicode="&#xe7;" horiz-adv-x="1126" 
d="M516 -124.5q49 -22.5 84 -72t35 -122.5q0 -109 -80 -169.5t-195 -60.5q-100 0 -182 45v154q20 -25 56 -39t73 -14q51 0 86 24.5t35 71.5q0 51 -40 81.5t-85 24.5l-53 68l121 231h127v-75l-74 -127q43 2 92 -20.5zM282.5 31.5q-104.5 58.5 -162 164t-57.5 242.5
q0 152 70 271.5t191.5 186.5t273.5 67q131 0 235.5 -51.5t169 -144.5t74.5 -216h-323q-14 59 -59.5 95t-104.5 36q-88 0 -144.5 -64.5t-56.5 -168.5q0 -90 44 -143.5t122 -53.5q61 0 111.5 36t66.5 93h320q-14 -115 -87 -208t-188.5 -146.5t-251.5 -53.5q-139 0 -243.5 58.5
z" />
    <glyph glyph-name="egrave" unicode="&#xe8;" horiz-adv-x="1095" 
d="M266 1341l148 152l346 -365l-92 -96zM942 137q-70 -76 -177.5 -120t-229.5 -44q-141 0 -248 59.5t-165.5 166t-58.5 245.5q0 150 68 268.5t185.5 184.5t258.5 66q137 0 245 -58.5t167.5 -165t59.5 -243.5q0 -61 -17 -115h-659q2 -68 50 -110t124 -42q51 0 98 20.5
t72 55.5h311q-14 -92 -84 -168zM727 586q-8 53 -51 86t-103 33q-66 0 -111.5 -33t-58.5 -86h324z" />
    <glyph glyph-name="eacute" unicode="&#xe9;" horiz-adv-x="1095" 
d="M578 1130l346 365l147 -152l-403 -309zM942 137q-70 -76 -177.5 -120t-229.5 -44q-141 0 -248 59.5t-165.5 166t-58.5 245.5q0 150 68 268.5t185.5 184.5t258.5 66q137 0 245 -58.5t167.5 -165t59.5 -243.5q0 -61 -17 -115h-659q2 -68 50 -110t124 -42q51 0 98 20.5
t72 55.5h311q-14 -92 -84 -168zM727 586q-8 53 -51 86t-103 33q-66 0 -111.5 -33t-58.5 -86h324z" />
    <glyph glyph-name="ecircumflex" unicode="&#xea;" horiz-adv-x="1095" 
d="M535 1434h268l231 -316l-147 -100l-219 235l-219 -235l-146 100zM942 137q-70 -76 -177.5 -120t-229.5 -44q-141 0 -248 59.5t-165.5 166t-58.5 245.5q0 150 68 268.5t185.5 184.5t258.5 66q137 0 245 -58.5t167.5 -165t59.5 -243.5q0 -61 -17 -115h-659q2 -68 50 -110
t124 -42q51 0 98 20.5t72 55.5h311q-14 -92 -84 -168zM727 586q-8 53 -51 86t-103 33q-66 0 -111.5 -33t-58.5 -86h324z" />
    <glyph glyph-name="edieresis" unicode="&#xeb;" horiz-adv-x="1095" 
d="M348 1074q-43 42 -43 106q0 66 43 106.5t107 40.5q63 0 105 -41t42 -106q0 -63 -42 -105.5t-105 -42.5q-64 0 -107 42zM776 1074q-43 42 -43 106q0 66 43 106.5t107 40.5q63 0 105 -41t42 -106q0 -63 -42 -105.5t-105 -42.5q-64 0 -107 42zM942 137q-70 -76 -177.5 -120
t-229.5 -44q-141 0 -248 59.5t-165.5 166t-58.5 245.5q0 150 68 268.5t185.5 184.5t258.5 66q137 0 245 -58.5t167.5 -165t59.5 -243.5q0 -61 -17 -115h-659q2 -68 50 -110t124 -42q51 0 98 20.5t72 55.5h311q-14 -92 -84 -168zM727 586q-8 53 -51 86t-103 33
q-66 0 -111.5 -33t-58.5 -86h324z" />
    <glyph glyph-name="igrave" unicode="&#xec;" horiz-adv-x="524" 
d="M-63 1372l147 152l346 -365l-92 -96zM485 930l-129 -930h-317l129 930h317z" />
    <glyph glyph-name="iacute" unicode="&#xed;" horiz-adv-x="524" 
d="M248 1161l346 365l147 -152l-403 -309zM485 930l-129 -930h-317l129 930h317z" />
    <glyph glyph-name="icircumflex" unicode="&#xee;" horiz-adv-x="524" 
d="M205 1464h268l232 -315l-148 -100l-219 235l-219 -235l-146 100zM485 930l-129 -930h-317l129 930h317z" />
    <glyph glyph-name="idieresis" unicode="&#xef;" horiz-adv-x="524" 
d="M18 1105q-43 42 -43 105q0 66 43 107t107 41q63 0 105 -41t42 -107q0 -63 -42 -105t-105 -42q-64 0 -107 42zM446 1105q-43 42 -43 105q0 66 43 107t107 41q63 0 105 -41t42 -107q0 -63 -42 -105t-105 -42q-64 0 -107 42zM485 930l-129 -930h-317l129 930h317z" />
    <glyph glyph-name="eth" unicode="&#xf0;" horiz-adv-x="1136" 
d="M122.5 644.5q63.5 103.5 177.5 159.5t259 56h21l-80 113l-213 -92l-62 184l160 70l-129 178h399l35 -47l182 80l56 -185l-123 -53l98 -135q170 -233 170 -473q0 -150 -65.5 -269.5t-186.5 -188.5t-280 -69q-141 0 -251 53.5t-170.5 151.5t-60.5 230q0 133 63.5 236.5z
M430 302q45 -50 121 -50q90 0 146.5 68.5t56.5 164.5q0 86 -45 135.5t-121 49.5q-90 0 -146.5 -66.5t-56.5 -165.5q0 -86 45 -136z" />
    <glyph glyph-name="ntilde" unicode="&#xf1;" horiz-adv-x="1116" 
d="M289 1112q0 113 53 178.5t139 65.5q45 0 83 -16.5t89 -47.5q25 -14 49.5 -26.5t42.5 -12.5q37 0 51.5 23.5t12.5 73.5h152q8 -53 8 -76q0 -102 -53.5 -166t-139.5 -64q-45 0 -86 16.5t-92 47.5q-25 14 -48.5 25.5t-39.5 11.5q-41 0 -54.5 -34t-9.5 -79h-151q-6 43 -6 80z
M966.5 879q77.5 -84 77.5 -226q0 -35 -6 -75l-80 -578h-317l70 502q4 37 4 47q0 127 -121 127q-74 0 -116 -44t-52 -124l-72 -508h-315l129 930h264l4 -96q51 59 133 94t172 35q148 0 225.5 -84z" />
    <glyph glyph-name="ograve" unicode="&#xf2;" horiz-adv-x="1144" 
d="M264 1341l148 152l346 -365l-92 -96zM133 707.5q70 119.5 194 187.5t279 68q145 0 253 -58.5t165 -164t57 -242.5q0 -152 -69.5 -272t-193.5 -186.5t-279 -66.5q-145 0 -253 58.5t-165.5 164t-57.5 240.5q0 152 70 271.5zM433 305q44 -53 122 -53q88 0 144.5 64.5
t56.5 168.5q0 90 -44 143.5t-122 53.5q-88 0 -144.5 -64.5t-56.5 -168.5q0 -91 44 -144z" />
    <glyph glyph-name="oacute" unicode="&#xf3;" horiz-adv-x="1144" 
d="M575 1130l347 365l147 -152l-403 -309zM133 707.5q70 119.5 194 187.5t279 68q145 0 253 -58.5t165 -164t57 -242.5q0 -152 -69.5 -272t-193.5 -186.5t-279 -66.5q-145 0 -253 58.5t-165.5 164t-57.5 240.5q0 152 70 271.5zM433 305q44 -53 122 -53q88 0 144.5 64.5
t56.5 168.5q0 90 -44 143.5t-122 53.5q-88 0 -144.5 -64.5t-56.5 -168.5q0 -91 44 -144z" />
    <glyph glyph-name="ocircumflex" unicode="&#xf4;" horiz-adv-x="1144" 
d="M532 1434h269l231 -316l-147 -100l-219 235l-220 -235l-145 100zM133 707.5q70 119.5 194 187.5t279 68q145 0 253 -58.5t165 -164t57 -242.5q0 -152 -69.5 -272t-193.5 -186.5t-279 -66.5q-145 0 -253 58.5t-165.5 164t-57.5 240.5q0 152 70 271.5zM433 305
q44 -53 122 -53q88 0 144.5 64.5t56.5 168.5q0 90 -44 143.5t-122 53.5q-88 0 -144.5 -64.5t-56.5 -168.5q0 -91 44 -144z" />
    <glyph glyph-name="otilde" unicode="&#xf5;" horiz-adv-x="1144" 
d="M326 1112q0 113 53 178.5t139 65.5q45 0 83 -16.5t89 -47.5q25 -14 49.5 -26.5t42.5 -12.5q37 0 51.5 23.5t12.5 73.5h151q8 -53 9 -76q0 -102 -53.5 -166t-139.5 -64q-45 0 -86 16.5t-92 47.5q-25 14 -48.5 25.5t-39.5 11.5q-41 0 -54.5 -34t-9.5 -79h-151q-6 43 -6 80z
M133 707.5q70 119.5 194 187.5t279 68q145 0 253 -58.5t165 -164t57 -242.5q0 -152 -69.5 -272t-193.5 -186.5t-279 -66.5q-145 0 -253 58.5t-165.5 164t-57.5 240.5q0 152 70 271.5zM433 305q44 -53 122 -53q88 0 144.5 64.5t56.5 168.5q0 90 -44 143.5t-122 53.5
q-88 0 -144.5 -64.5t-56.5 -168.5q0 -91 44 -144z" />
    <glyph glyph-name="odieresis" unicode="&#xf6;" horiz-adv-x="1144" 
d="M346 1074q-43 42 -43 106q0 66 43 106.5t107 40.5q63 0 105 -41t42 -106q0 -63 -42 -105.5t-105 -42.5q-64 0 -107 42zM774 1074q-43 42 -43 106q0 66 43 106.5t107 40.5q63 0 105 -41t42 -106q0 -63 -42 -105.5t-105 -42.5q-64 0 -107 42zM133 707.5q70 119.5 194 187.5
t279 68q145 0 253 -58.5t165 -164t57 -242.5q0 -152 -69.5 -272t-193.5 -186.5t-279 -66.5q-145 0 -253 58.5t-165.5 164t-57.5 240.5q0 152 70 271.5zM433 305q44 -53 122 -53q88 0 144.5 64.5t56.5 168.5q0 90 -44 143.5t-122 53.5q-88 0 -144.5 -64.5t-56.5 -168.5
q0 -91 44 -144z" />
    <glyph glyph-name="divide" unicode="&#xf7;" horiz-adv-x="1026" 
d="M470 861q-48 48 -48 112q0 66 49 111.5t117 45.5q66 0 111.5 -49t45.5 -112t-49 -109.5t-112 -46.5q-66 0 -114 48zM913 725l-32 -240h-729l32 240h729zM366.5 128q-47.5 48 -47.5 112q0 66 49.5 111.5t116.5 45.5q61 0 109.5 -49t48.5 -112q0 -66 -50 -111t-116 -45
q-63 0 -110.5 48z" />
    <glyph glyph-name="oslash" unicode="&#xf8;" horiz-adv-x="1144" 
d="M859.5 904.5q107.5 -58.5 164.5 -164t57 -242.5q0 -152 -69.5 -272t-193.5 -186.5t-279 -66.5q-145 0 -253 58.5t-165.5 164t-57.5 240.5q0 152 70 271.5t194 187.5t279 68q146 0 253.5 -58.5zM445.5 617.5q-56.5 -64.5 -56.5 -168.5q0 -39 8 -70l232 299q-25 4 -39 4
q-88 0 -144.5 -64.5zM699.5 316.5q56.5 64.5 56.5 168.5q0 41 -8 68l-226 -299q10 -2 33 -2q88 0 144.5 64.5z" />
    <glyph glyph-name="ugrave" unicode="&#xf9;" horiz-adv-x="1097" 
d="M213 1309l147 151l347 -364l-93 -97zM1069 930l-129 -930h-264l-4 100q-57 -63 -134 -95t-165 -32q-147 0 -225 79t-78 216q0 37 6 76l82 586h317l-76 -539q-2 -12 -2 -35q0 -109 121 -108q66 0 107 39t51 106l76 537h317z" />
    <glyph glyph-name="uacute" unicode="&#xfa;" horiz-adv-x="1097" 
d="M524 1098l346 364l148 -151l-404 -310zM1069 930l-129 -930h-264l-4 100q-57 -63 -134 -95t-165 -32q-147 0 -225 79t-78 216q0 37 6 76l82 586h317l-76 -539q-2 -12 -2 -35q0 -109 121 -108q66 0 107 39t51 106l76 537h317z" />
    <glyph glyph-name="ucircumflex" unicode="&#xfb;" horiz-adv-x="1097" 
d="M481 1401h269l231 -316l-147 -100l-220 236l-219 -236l-145 100zM1069 930l-129 -930h-264l-4 100q-57 -63 -134 -95t-165 -32q-147 0 -225 79t-78 216q0 37 6 76l82 586h317l-76 -539q-2 -12 -2 -35q0 -109 121 -108q66 0 107 39t51 106l76 537h317z" />
    <glyph glyph-name="udieresis" unicode="&#xfc;" horiz-adv-x="1097" 
d="M295 1041q-43 42 -43 106q0 66 43 106.5t106 40.5t105.5 -41t42.5 -106q0 -63 -42 -105.5t-106 -42.5q-63 0 -106 42zM723 1041q-43 42 -43 106q0 66 43 106.5t106 40.5t105.5 -41t42.5 -106q0 -63 -42 -105.5t-106 -42.5q-63 0 -106 42zM1069 930l-129 -930h-264l-4 100
q-57 -63 -134 -95t-165 -32q-147 0 -225 79t-78 216q0 37 6 76l82 586h317l-76 -539q-2 -12 -2 -35q0 -109 121 -108q66 0 107 39t51 106l76 537h317z" />
    <glyph glyph-name="yacute" unicode="&#xfd;" horiz-adv-x="1136" 
d="M549 1098l346 364l147 -151l-403 -310zM1182 930l-582 -1071q-45 -84 -98 -150.5t-147.5 -119t-229.5 -52.5q-82 0 -195 25l41 258q78 -14 138 -15q92 0 134 37t76 107l25 49l-258 932h332l123 -565l293 565h348z" />
    <glyph glyph-name="thorn" unicode="&#xfe;" horiz-adv-x="1218" 
d="M962.5 900q92.5 -56 143.5 -158.5t51 -235.5q0 -158 -66.5 -281t-181 -190.5t-254.5 -67.5q-86 0 -161.5 29t-124.5 80l-74 -520h-318l259 1849h317l-74 -537q51 41 121 64.5t150 23.5q120 0 212.5 -56zM765.5 315.5q63.5 63.5 63.5 159.5q0 86 -53 140.5t-137 54.5
q-92 0 -156.5 -63.5t-64.5 -162.5q0 -86 53 -139t137 -53q94 0 157.5 63.5z" />
    <glyph glyph-name="ydieresis" unicode="&#xff;" horiz-adv-x="1136" 
d="M319 1041q-43 42 -43 106q0 66 43 106.5t107 40.5q63 0 105 -41t42 -106q0 -63 -42 -105.5t-105 -42.5q-64 0 -107 42zM748 1041q-43 42 -43 106q0 66 43 106.5t106 40.5t105 -41t42 -106q0 -63 -41.5 -105.5t-105.5 -42.5q-63 0 -106 42zM1182 930l-582 -1071
q-45 -84 -98 -150.5t-147.5 -119t-229.5 -52.5q-82 0 -195 25l41 258q78 -14 138 -15q92 0 134 37t76 107l25 49l-258 932h332l123 -565l293 565h348z" />
    <glyph glyph-name="Amacron" unicode="&#x100;" horiz-adv-x="1318" 
d="M1083 1602v-207h-604v207h604zM623 1313h315l301 -1313h-340l-55 256h-410l-127 -256h-358zM788 532l-61 324l-158 -324h219z" />
    <glyph glyph-name="amacron" unicode="&#x101;" horiz-adv-x="1228" 
d="M905 1251v-207h-604v207h604zM1192 930l-131 -930h-318l13 88q-51 -53 -130 -84t-167 -31q-117 0 -207 56.5t-140.5 159t-50.5 235.5q0 154 66 276.5t179.5 192.5t250.5 70q98 0 182 -37t135 -103l54 107h264zM737.5 324.5q63.5 64.5 63.5 160.5q0 88 -52.5 140.5
t-138.5 52.5q-94 0 -157.5 -63.5t-63.5 -159.5q0 -86 53.5 -140.5t137.5 -54.5q94 0 157.5 64.5z" />
    <glyph glyph-name="Abreve" unicode="&#x102;" horiz-adv-x="1318" 
d="M1045.5 1475.5q-105.5 -91.5 -263.5 -91.5q-166 0 -269 95.5t-112 251.5h215q2 -68 47.5 -106t118.5 -38q72 0 115 38t45 106h217q-8 -164 -113.5 -255.5zM623 1313h315l301 -1313h-340l-55 256h-410l-127 -256h-358zM788 532l-61 324l-158 -324h219z" />
    <glyph glyph-name="abreve" unicode="&#x103;" horiz-adv-x="1228" 
d="M867.5 1125.5q-105.5 -91.5 -263.5 -91.5q-166 0 -269.5 95.5t-111.5 250.5h215q2 -68 47 -105.5t119 -37.5q72 0 115 38t45 105h217q-8 -163 -113.5 -254.5zM1192 930l-131 -930h-318l13 88q-51 -53 -130 -84t-167 -31q-117 0 -207 56.5t-140.5 159t-50.5 235.5
q0 154 66 276.5t179.5 192.5t250.5 70q98 0 182 -37t135 -103l54 107h264zM737.5 324.5q63.5 64.5 63.5 160.5q0 88 -52.5 140.5t-138.5 52.5q-94 0 -157.5 -63.5t-63.5 -159.5q0 -86 53.5 -140.5t137.5 -54.5q94 0 157.5 64.5z" />
    <glyph glyph-name="Aogonek" unicode="&#x104;" horiz-adv-x="1318" 
d="M1239 0q-66 -41 -97.5 -82t-31.5 -76q0 -29 21.5 -46t56.5 -17q33 0 69 14v-155q-78 -23 -131 -23q-96 0 -151 49t-55 121q0 55 37.5 112.5t109.5 102.5h172zM623 1313h315l301 -1313h-340l-55 256h-410l-127 -256h-358zM788 532l-61 324l-158 -324h219z" />
    <glyph glyph-name="aogonek" unicode="&#x105;" horiz-adv-x="1228" 
d="M1051 0q-66 -41 -97.5 -82t-31.5 -76q0 -29 21.5 -46t55.5 -17q33 0 70 14v-155q-78 -23 -131 -23q-96 0 -151.5 49t-55.5 121q0 55 38 112.5t110 102.5h172zM1192 930l-131 -930h-318l13 88q-51 -53 -130 -84t-167 -31q-117 0 -207 56.5t-140.5 159t-50.5 235.5
q0 154 66 276.5t179.5 192.5t250.5 70q98 0 182 -37t135 -103l54 107h264zM737.5 324.5q63.5 64.5 63.5 160.5q0 88 -52.5 140.5t-138.5 52.5q-94 0 -157.5 -63.5t-63.5 -159.5q0 -86 53.5 -140.5t137.5 -54.5q94 0 157.5 64.5z" />
    <glyph glyph-name="Cacute" unicode="&#x106;" horiz-adv-x="1505" 
d="M805 1507l346 365l147 -152l-403 -309zM389 52q-143 79 -221 222.5t-78 329.5q0 209 97.5 377t269.5 264t389 96q174 0 313 -63.5t225 -179t103 -267.5h-369q-31 98 -106.5 150.5t-184.5 52.5t-196.5 -51t-138 -144.5t-50.5 -211.5q0 -156 84 -251t224 -95
q111 0 202.5 56t124.5 148h369q-29 -150 -130.5 -266.5t-256 -181t-338.5 -64.5q-189 0 -332 79z" />
    <glyph glyph-name="cacute" unicode="&#x107;" horiz-adv-x="1126" 
d="M696 1128l346 365l148 -152l-404 -309zM282.5 31.5q-104.5 58.5 -162 164t-57.5 242.5q0 152 70 271.5t191.5 186.5t273.5 67q131 0 235.5 -51.5t169 -144.5t74.5 -216h-323q-14 59 -59.5 95t-104.5 36q-88 0 -144.5 -64.5t-56.5 -168.5q0 -90 44 -143.5t122 -53.5
q61 0 111.5 36t66.5 93h320q-14 -115 -87 -208t-188.5 -146.5t-251.5 -53.5q-139 0 -243.5 58.5z" />
    <glyph glyph-name="Ccircumflex" unicode="&#x108;" horiz-adv-x="1505" 
d="M762 1812h266l232 -315l-146 -100l-219 235l-219 -235l-146 100zM389 52q-143 79 -221 222.5t-78 329.5q0 209 97.5 377t269.5 264t389 96q174 0 313 -63.5t225 -179t103 -267.5h-369q-31 98 -106.5 150.5t-184.5 52.5t-196.5 -51t-138 -144.5t-50.5 -211.5
q0 -156 84 -251t224 -95q111 0 202.5 56t124.5 148h369q-29 -150 -130.5 -266.5t-256 -181t-338.5 -64.5q-189 0 -332 79z" />
    <glyph glyph-name="ccircumflex" unicode="&#x109;" horiz-adv-x="1126" 
d="M653 1434h267l231 -316l-145 -100l-220 235l-219 -235l-145 100zM282.5 31.5q-104.5 58.5 -162 164t-57.5 242.5q0 152 70 271.5t191.5 186.5t273.5 67q131 0 235.5 -51.5t169 -144.5t74.5 -216h-323q-14 59 -59.5 95t-104.5 36q-88 0 -144.5 -64.5t-56.5 -168.5
q0 -90 44 -143.5t122 -53.5q61 0 111.5 36t66.5 93h320q-14 -115 -87 -208t-188.5 -146.5t-251.5 -53.5q-139 0 -243.5 58.5z" />
    <glyph glyph-name="Cdotaccent" unicode="&#x10a;" horiz-adv-x="1505" 
d="M788 1453q-43 42 -43 106q0 66 43 106.5t107 40.5q63 0 105 -41t42 -106q0 -63 -42 -105.5t-105 -42.5q-64 0 -107 42zM389 52q-143 79 -221 222.5t-78 329.5q0 209 97.5 377t269.5 264t389 96q174 0 313 -63.5t225 -179t103 -267.5h-369q-31 98 -106.5 150.5
t-184.5 52.5t-196.5 -51t-138 -144.5t-50.5 -211.5q0 -156 84 -251t224 -95q111 0 202.5 56t124.5 148h369q-29 -150 -130.5 -266.5t-256 -181t-338.5 -64.5q-189 0 -332 79z" />
    <glyph glyph-name="cdotaccent" unicode="&#x10b;" horiz-adv-x="1126" 
d="M680 1074q-43 42 -43 106q0 66 43 106.5t106 40.5t105.5 -41t42.5 -106q0 -63 -42 -105.5t-106 -42.5q-63 0 -106 42zM282.5 31.5q-104.5 58.5 -162 164t-57.5 242.5q0 152 70 271.5t191.5 186.5t273.5 67q131 0 235.5 -51.5t169 -144.5t74.5 -216h-323q-14 59 -59.5 95
t-104.5 36q-88 0 -144.5 -64.5t-56.5 -168.5q0 -90 44 -143.5t122 -53.5q61 0 111.5 36t66.5 93h320q-14 -115 -87 -208t-188.5 -146.5t-251.5 -53.5q-139 0 -243.5 58.5z" />
    <glyph glyph-name="Ccaron" unicode="&#x10c;" horiz-adv-x="1505" 
d="M676 1827l219 -236l219 236l148 -101l-232 -315h-268l-232 315zM389 52q-143 79 -221 222.5t-78 329.5q0 209 97.5 377t269.5 264t389 96q174 0 313 -63.5t225 -179t103 -267.5h-369q-31 98 -106.5 150.5t-184.5 52.5t-196.5 -51t-138 -144.5t-50.5 -211.5
q0 -156 84 -251t224 -95q111 0 202.5 56t124.5 148h369q-29 -150 -130.5 -266.5t-256 -181t-338.5 -64.5q-189 0 -332 79z" />
    <glyph glyph-name="ccaron" unicode="&#x10d;" horiz-adv-x="1126" 
d="M567 1448l219 -236l220 236l147 -100l-231 -316h-269l-231 316zM282.5 31.5q-104.5 58.5 -162 164t-57.5 242.5q0 152 70 271.5t191.5 186.5t273.5 67q131 0 235.5 -51.5t169 -144.5t74.5 -216h-323q-14 59 -59.5 95t-104.5 36q-88 0 -144.5 -64.5t-56.5 -168.5
q0 -90 44 -143.5t122 -53.5q61 0 111.5 36t66.5 93h320q-14 -115 -87 -208t-188.5 -146.5t-251.5 -53.5q-139 0 -243.5 58.5z" />
    <glyph glyph-name="Dcaron" unicode="&#x10e;" horiz-adv-x="1427" 
d="M442 1798l220 -235l219 235l147 -100l-231 -316h-269l-231 316zM1102 1236q137 -77 214 -214t77 -313q0 -211 -102.5 -372t-288 -249t-427.5 -88h-503l184 1313h532q177 0 314 -77zM834.5 349q97.5 50 151.5 140.5t54 206.5q0 150 -78.5 234t-220.5 84h-196l-101 -715
h164q129 0 226.5 50z" />
    <glyph glyph-name="dcaron" unicode="&#x10f;" horiz-adv-x="1261" 
d="M817 1405h318v-1405h-301l-11 82q-47 -49 -123.5 -77t-158.5 -28q-143 0 -253 60.5t-170.5 170t-60.5 257.5q0 147 60.5 260t170 174.5t253.5 61.5q84 0 159.5 -21.5t116.5 -58.5v524zM1456 1405l-47 -461h-192v461h239zM747.5 319.5q63.5 57.5 63.5 153.5
q0 94 -62.5 148.5t-152.5 54.5q-92 0 -155.5 -53.5t-63.5 -149.5t64.5 -153.5t154.5 -57.5q88 0 151.5 57.5z" />
    <glyph glyph-name="Dcroat" unicode="&#x110;" horiz-adv-x="1603" 
d="M1204 1236q137 -77 214 -214t77 -313q0 -211 -102.5 -372t-287.5 -249t-427 -88h-504l76 545h-129v225h162l75 543h533q176 0 313 -77zM937 349q97 50 151.5 140.5t54.5 206.5q0 150 -79 234t-220 84h-197l-35 -244h131v-225h-161l-35 -246h164q129 0 226 50z" />
    <glyph glyph-name="dcroat" unicode="&#x111;" horiz-adv-x="1122" 
d="M1307 1268l-35 -213h-828l36 213h827zM1245 1405l-196 -1405h-265l-2 102q-51 -59 -134 -94t-179 -35q-121 0 -213 56.5t-143.5 159t-51.5 235.5q0 158 67 280.5t181.5 190.5t253.5 68q86 0 162 -29t125 -80l78 551h317zM737.5 324.5q63.5 64.5 63.5 160.5
q0 88 -52.5 140.5t-138.5 52.5q-94 0 -157.5 -63.5t-63.5 -159.5q0 -86 53.5 -140.5t137.5 -54.5q94 0 157.5 64.5z" />
    <glyph glyph-name="Emacron" unicode="&#x112;" horiz-adv-x="1122" 
d="M1001 1602v-207h-604v207h604zM545 1014l-29 -205h488l-39 -289h-488l-31 -221h549l-41 -299h-882l184 1313h883l-43 -299h-551z" />
    <glyph glyph-name="emacron" unicode="&#x113;" horiz-adv-x="1095" 
d="M971 1251v-207h-604v207h604zM942 137q-70 -76 -177.5 -120t-229.5 -44q-141 0 -248 59.5t-165.5 166t-58.5 245.5q0 150 68 268.5t185.5 184.5t258.5 66q137 0 245 -58.5t167.5 -165t59.5 -243.5q0 -61 -17 -115h-659q2 -68 50 -110t124 -42q51 0 98 20.5t72 55.5h311
q-14 -92 -84 -168zM727 586q-8 53 -51 86t-103 33q-66 0 -111.5 -33t-58.5 -86h324z" />
    <glyph glyph-name="Ebreve" unicode="&#x114;" horiz-adv-x="1122" 
d="M963.5 1475.5q-105.5 -91.5 -263.5 -91.5q-166 0 -269 95.5t-112 251.5h216q2 -68 47 -106t118 -38q72 0 115 38t45 106h217q-8 -164 -113.5 -255.5zM545 1014l-29 -205h488l-39 -289h-488l-31 -221h549l-41 -299h-882l184 1313h883l-43 -299h-551z" />
    <glyph glyph-name="ebreve" unicode="&#x115;" horiz-adv-x="1095" 
d="M932.5 1125.5q-105.5 -91.5 -262.5 -91.5q-166 0 -269.5 95.5t-111.5 250.5h215q2 -68 47 -105.5t119 -37.5q72 0 114.5 38t44.5 105h218q-9 -163 -114.5 -254.5zM942 137q-70 -76 -177.5 -120t-229.5 -44q-141 0 -248 59.5t-165.5 166t-58.5 245.5q0 150 68 268.5
t185.5 184.5t258.5 66q137 0 245 -58.5t167.5 -165t59.5 -243.5q0 -61 -17 -115h-659q2 -68 50 -110t124 -42q51 0 98 20.5t72 55.5h311q-14 -92 -84 -168zM727 586q-8 53 -51 86t-103 33q-66 0 -111.5 -33t-58.5 -86h324z" />
    <glyph glyph-name="Edotaccent" unicode="&#x116;" horiz-adv-x="1122" 
d="M592 1424q-43 42 -43 106q0 66 43 106.5t106 40.5t105.5 -41t42.5 -106q0 -63 -42 -105.5t-106 -42.5q-63 0 -106 42zM545 1014l-29 -205h488l-39 -289h-488l-31 -221h549l-41 -299h-882l184 1313h883l-43 -299h-551z" />
    <glyph glyph-name="edotaccent" unicode="&#x117;" horiz-adv-x="1095" 
d="M561 1074q-43 42 -43 106q0 66 43 106.5t107 40.5q63 0 105 -41t42 -106q0 -63 -42 -105.5t-105 -42.5q-64 0 -107 42zM942 137q-70 -76 -177.5 -120t-229.5 -44q-141 0 -248 59.5t-165.5 166t-58.5 245.5q0 150 68 268.5t185.5 184.5t258.5 66q137 0 245 -58.5
t167.5 -165t59.5 -243.5q0 -61 -17 -115h-659q2 -68 50 -110t124 -42q51 0 98 20.5t72 55.5h311q-14 -92 -84 -168zM727 586q-8 53 -51 86t-103 33q-66 0 -111.5 -33t-58.5 -86h324z" />
    <glyph glyph-name="Eogonek" unicode="&#x118;" horiz-adv-x="1122" 
d="M954 0q-66 -41 -97.5 -82t-31.5 -76q0 -29 21.5 -46t56.5 -17q33 0 70 14v-155q-78 -23 -131 -23q-96 0 -151.5 49t-55.5 121q0 55 38 112.5t109 102.5h172zM545 1014l-29 -205h488l-39 -289h-488l-31 -221h549l-41 -299h-882l184 1313h883l-43 -299h-551z" />
    <glyph glyph-name="eogonek" unicode="&#x119;" horiz-adv-x="1095" 
d="M647 35q-66 -41 -97.5 -82t-31.5 -76q0 -29 21.5 -46t56.5 -17q33 0 70 14v-156q-78 -23 -131 -22q-96 0 -151.5 49t-55.5 121q0 55 37.5 112.5t109.5 102.5h172zM942 137q70 76 84 168h-311q-25 -35 -72 -55.5t-98 -20.5q-76 0 -124 42t-50 110h659q16 53 17 115
q0 137 -59.5 243.5t-167 165t-245.5 58.5q-141 0 -258.5 -66t-185.5 -184.5t-68 -268.5q0 -139 58.5 -245.5t165 -166t248.5 -59.5q123 0 230 44t177 120zM727 586h-324q12 53 58.5 86t111.5 33q59 0 102.5 -33t51.5 -86z" />
    <glyph glyph-name="Ecaron" unicode="&#x11a;" horiz-adv-x="1122" 
d="M479 1798l219 -235l220 235l147 -100l-231 -316h-269l-231 316zM545 1014l-29 -205h488l-39 -289h-488l-31 -221h549l-41 -299h-882l184 1313h883l-43 -299h-551z" />
    <glyph glyph-name="ecaron" unicode="&#x11b;" horiz-adv-x="1095" 
d="M449 1448l219 -236l219 236l147 -100l-231 -316h-268l-232 316zM942 137q-70 -76 -177.5 -120t-229.5 -44q-141 0 -248 59.5t-165.5 166t-58.5 245.5q0 150 68 268.5t185.5 184.5t258.5 66q137 0 245 -58.5t167.5 -165t59.5 -243.5q0 -61 -17 -115h-659q2 -68 50 -110
t124 -42q51 0 98 20.5t72 55.5h311q-14 -92 -84 -168zM727 586q-8 53 -51 86t-103 33q-66 0 -111.5 -33t-58.5 -86h324z" />
    <glyph glyph-name="Gcircumflex" unicode="&#x11c;" horiz-adv-x="1499" 
d="M694 1812h267l231 -315l-145 -100l-220 235l-219 -235l-145 100zM1470 735l-14 -141q-18 -184 -113.5 -325.5t-252 -218.5t-353.5 -77q-193 0 -340 79t-228 221.5t-81 328.5q0 209 97.5 378t268.5 265t384 96q168 0 302 -60t218 -170t106 -253h-352q-35 82 -112.5 129
t-182.5 47q-106 0 -193 -50t-137.5 -142t-50.5 -211q0 -158 89 -254t235 -96q109 0 192.5 49t114.5 131h-311l39 274h675z" />
    <glyph glyph-name="gcircumflex" unicode="&#x11d;" horiz-adv-x="1280" 
d="M686 1403h266l232 -262l-146 -83l-219 195l-219 -195l-145 83zM1196 930l-139 -983q-29 -209 -173.5 -316.5t-355.5 -107.5q-215 0 -350 110.5t-158 305.5h316q12 -66 63.5 -102t126.5 -36q88 0 144.5 43t66.5 115l25 164q-51 -55 -130 -86t-169 -31q-117 0 -207 55.5
t-140 154.5t-50 230q0 150 65.5 267.5t179 183.5t248.5 66q102 0 183 -37t135 -103l41 107h278zM741.5 350.5q63.5 57.5 63.5 147.5q0 82 -53.5 131t-139.5 49q-92 0 -155.5 -56.5t-63.5 -148.5q0 -80 52.5 -130t138.5 -50q94 0 157.5 57.5z" />
    <glyph glyph-name="Gbreve" unicode="&#x11e;" horiz-adv-x="1499" 
d="M1092.5 1504q-105.5 -91 -263.5 -91q-166 0 -269 95.5t-111 250.5h215q2 -68 47 -105.5t118 -37.5q72 0 115 38t45 105h217q-8 -164 -113.5 -255zM1470 735l-14 -141q-18 -184 -113.5 -325.5t-252 -218.5t-353.5 -77q-193 0 -340 79t-228 221.5t-81 328.5q0 209 97.5 378
t268.5 265t384 96q168 0 302 -60t218 -170t106 -253h-352q-35 82 -112.5 129t-182.5 47q-106 0 -193 -50t-137.5 -142t-50.5 -211q0 -158 89 -254t235 -96q109 0 192.5 49t114.5 131h-311l39 274h675z" />
    <glyph glyph-name="gbreve" unicode="&#x11f;" horiz-adv-x="1222" 
d="M853 1125.5q-105 -91.5 -263 -91.5q-166 0 -269.5 95.5t-111.5 250.5h215q2 -68 47 -105.5t119 -37.5q72 0 115 38t45 105h217q-9 -163 -114 -254.5zM1196 930l-139 -983q-29 -209 -173.5 -316.5t-355.5 -107.5q-215 0 -350 110.5t-158 305.5h316q12 -66 63.5 -102
t126.5 -36q88 0 144.5 43t66.5 115l25 164q-51 -55 -130 -86t-169 -31q-117 0 -207 55.5t-140 154.5t-50 230q0 150 65.5 267.5t179 183.5t248.5 66q102 0 183 -37t135 -103l41 107h278zM741.5 350.5q63.5 57.5 63.5 147.5q0 82 -53.5 131t-139.5 49q-92 0 -155.5 -56.5
t-63.5 -148.5q0 -80 52.5 -130t138.5 -50q94 0 157.5 57.5z" />
    <glyph glyph-name="Gdotaccent" unicode="&#x120;" horiz-adv-x="1499" 
d="M721 1453q-43 42 -43 106q0 66 43 106.5t106 40.5t105.5 -41t42.5 -106q0 -63 -42 -105.5t-106 -42.5q-63 0 -106 42zM1470 735l-14 -141q-18 -184 -113.5 -325.5t-252 -218.5t-353.5 -77q-193 0 -340 79t-228 221.5t-81 328.5q0 209 97.5 378t268.5 265t384 96
q168 0 302 -60t218 -170t106 -253h-352q-35 82 -112.5 129t-182.5 47q-106 0 -193 -50t-137.5 -142t-50.5 -211q0 -158 89 -254t235 -96q109 0 192.5 49t114.5 131h-311l39 274h675z" />
    <glyph glyph-name="gdotaccent" unicode="&#x121;" horiz-adv-x="1222" 
d="M481 1074q-43 42 -43 106q0 66 43 106.5t107 40.5q63 0 105 -41t42 -106q0 -63 -42 -105.5t-105 -42.5q-64 0 -107 42zM1196 930l-139 -983q-29 -209 -173.5 -316.5t-355.5 -107.5q-215 0 -350 110.5t-158 305.5h316q12 -66 63.5 -102t126.5 -36q88 0 144.5 43t66.5 115
l25 164q-51 -55 -130 -86t-169 -31q-117 0 -207 55.5t-140 154.5t-50 230q0 150 65.5 267.5t179 183.5t248.5 66q102 0 183 -37t135 -103l41 107h278zM741.5 350.5q63.5 57.5 63.5 147.5q0 82 -53.5 131t-139.5 49q-92 0 -155.5 -56.5t-63.5 -148.5q0 -80 52.5 -130
t138.5 -50q94 0 157.5 57.5z" />
    <glyph glyph-name="uni0122" unicode="&#x122;" horiz-adv-x="1499" 
d="M825 -130q41 -48 41 -124q0 -113 -67.5 -190.5t-206.5 -85.5v61q76 14 114.5 50t43.5 89q-23 -12 -54 -12q-53 0 -87 36t-34 89q0 59 40 97t104 38q65 0 106 -48zM1470 735l-14 -141q-18 -184 -113.5 -325.5t-252 -218.5t-353.5 -77q-193 0 -340 79t-228 221.5t-81 328.5
q0 209 97.5 378t268.5 265t384 96q168 0 302 -60t218 -170t106 -253h-352q-35 82 -112.5 129t-182.5 47q-106 0 -193 -50t-137.5 -142t-50.5 -211q0 -158 89 -254t235 -96q109 0 192.5 49t114.5 131h-311l39 274h675z" />
    <glyph glyph-name="uni0123" unicode="&#x123;" horiz-adv-x="1222" 
d="M498 1130l346 365l147 -152l-403 -309zM1196 930l-139 -983q-29 -209 -173.5 -316.5t-355.5 -107.5q-215 0 -350 110.5t-158 305.5h316q12 -66 63.5 -102t126.5 -36q88 0 144.5 43t66.5 115l25 164q-51 -55 -130 -86t-169 -31q-117 0 -207 55.5t-140 154.5t-50 230
q0 150 65.5 267.5t179 183.5t248.5 66q102 0 183 -37t135 -103l41 107h278zM741.5 350.5q63.5 57.5 63.5 147.5q0 82 -53.5 131t-139.5 49q-92 0 -155.5 -56.5t-63.5 -148.5q0 -80 52.5 -130t138.5 -50q94 0 157.5 57.5z" />
    <glyph glyph-name="Hbar" unicode="&#x126;" horiz-adv-x="1619" 
d="M1603 1181l-34 -252h-1365l34 252h1365zM387 1313h332l-72 -508h471l72 508h334l-185 -1313h-333l71 516h-471l-71 -516h-332z" />
    <glyph glyph-name="hbar" unicode="&#x127;" horiz-adv-x="1226" 
d="M849 1054l-637 198l31 220l637 -198zM336 1405h317l-78 -557q49 55 124 85t159 30q147 0 222 -81t75 -220q0 -41 -6 -84l-80 -578h-317l69 502q4 33 4 43q0 82 -41 106q-41 25 -77 25q-158 0 -181 -168l-71 -508h-316z" />
    <glyph glyph-name="Itilde" unicode="&#x128;" horiz-adv-x="585" 
d="M82 1462q0 113 53 178.5t139 65.5q45 0 83 -16.5t89 -47.5q25 -14 49.5 -26t43.5 -12q37 0 51 23.5t12 72.5h152q8 -53 8 -76q0 -102 -53.5 -165.5t-139.5 -63.5q-45 0 -86 16t-92 47q-25 14 -48.5 25.5t-39.5 11.5q-41 0 -54 -34t-9 -79h-152q-6 43 -6 80zM72 0
l184 1313h332l-185 -1313h-331z" />
    <glyph glyph-name="itilde" unicode="&#x129;" horiz-adv-x="524" 
d="M-2 1143q0 113 53 178t139 65q45 0 83 -16t89 -47q25 -14 49.5 -26.5t43.5 -12.5q37 0 51 23.5t12 72.5h152q8 -53 8 -75q0 -102 -53.5 -166t-139.5 -64q-45 0 -86 16.5t-92 47.5q-25 14 -48 25.5t-40 11.5q-41 0 -54 -34t-9 -79h-152q-6 43 -6 80zM485 930l-129 -930
h-317l129 930h317z" />
    <glyph glyph-name="Imacron" unicode="&#x12a;" horiz-adv-x="585" 
d="M725 1602v-207h-604v207h604zM72 0l184 1313h332l-185 -1313h-331z" />
    <glyph glyph-name="imacron" unicode="&#x12b;" horiz-adv-x="524" 
d="M641 1282v-207h-604v207h604zM485 930l-129 -930h-317l129 930h317z" />
    <glyph glyph-name="Iogonek" unicode="&#x12e;" horiz-adv-x="585" 
d="M403 0q-66 -41 -97.5 -82t-31.5 -76q0 -29 21.5 -46t56.5 -17q33 0 70 14v-155q-78 -23 -131 -23q-96 0 -151.5 49t-55.5 121q0 55 38 112.5t109 102.5h172zM72 0l184 1313h332l-185 -1313h-331z" />
    <glyph glyph-name="iogonek" unicode="&#x12f;" horiz-adv-x="524" 
d="M354 0q-66 -41 -97.5 -82t-31.5 -76q0 -29 21.5 -46t56.5 -17q33 0 70 14v-155q-78 -23 -131 -23q-96 0 -151.5 49t-55.5 121q0 55 38 112.5t109 102.5h172zM231 1105q-43 42 -43 105q0 66 43 107t107 41q63 0 105 -41t42 -107q0 -63 -42 -105t-105 -42q-64 0 -107 42z
M485 930l-129 -930h-317l129 930h317z" />
    <glyph glyph-name="Idotaccent" unicode="&#x130;" horiz-adv-x="585" 
d="M315 1424q-43 42 -43 106q0 66 43 106.5t107 40.5q63 0 105 -41t42 -106q0 -63 -42 -105.5t-105 -42.5q-64 0 -107 42zM72 0l184 1313h332l-185 -1313h-331z" />
    <glyph glyph-name="dotlessi" unicode="&#x131;" horiz-adv-x="524" 
d="M485 930l-129 -930h-317l129 930h317z" />
    <glyph glyph-name="Jcircumflex" unicode="&#x134;" horiz-adv-x="1081" 
d="M612 1784h267l231 -316l-145 -100l-220 236l-219 -236l-145 100zM946 391q-29 -215 -158 -316.5t-333 -101.5q-195 0 -311.5 116t-116.5 310l2 41h319q-4 -25 -4 -39q0 -59 34 -94t91 -35q129 0 147 131l86 611h-356l43 299h686z" />
    <glyph glyph-name="jcircumflex" unicode="&#x135;" horiz-adv-x="788" 
d="M229 1464h267l231 -315l-145 -100l-220 235l-219 -235l-145 100zM201 930h317v-1385h-315z" />
    <glyph glyph-name="uni0136" unicode="&#x136;" horiz-adv-x="1339" 
d="M739 -111.5q41 -48.5 41 -124.5q0 -113 -67.5 -190.5t-206.5 -85.5v61q76 14 114.5 50t43.5 90q-23 -12 -54 -13q-53 0 -87 36t-34 89q0 59 40 97.5t104 38.5q65 0 106 -48.5zM918 748l344 -748h-398l-215 459l-213 -230l-33 -235h-331l184 1319h332l-80 -565l520 565
h414z" />
    <glyph glyph-name="uni0137" unicode="&#x137;" horiz-adv-x="1103" 
d="M592 -111.5q41 -48.5 41 -124.5q0 -113 -67.5 -190.5t-207.5 -85.5v61q76 14 115 50t43 90q-23 -12 -53 -13q-53 0 -87 36t-34 89q0 59 40 97.5t103 38.5q66 0 107 -48.5zM780 586l230 -586h-361l-129 348l-131 -119l-33 -229h-317l197 1405h317l-111 -787l324 312h393z
" />
    <glyph glyph-name="Lacute" unicode="&#x139;" horiz-adv-x="1054" 
d="M334 1479l346 364l147 -151l-403 -310zM983 299l-41 -299h-870l184 1313h336l-143 -1014h534z" />
    <glyph glyph-name="lacute" unicode="&#x13a;" horiz-adv-x="524" 
d="M305 1575l346 364l148 -151l-404 -309zM236 1405h317l-197 -1405h-317z" />
    <glyph glyph-name="uni013B" unicode="&#x13b;" horiz-adv-x="1054" 
d="M571 -111.5q41 -48.5 41 -124.5q0 -113 -67.5 -190.5t-206.5 -85.5v61q76 14 115 50t43 90q-23 -12 -54 -13q-53 0 -86.5 36t-33.5 89q0 59 39.5 97.5t103.5 38.5q65 0 106 -48.5zM983 299l-41 -299h-870l184 1313h336l-143 -1014h534z" />
    <glyph glyph-name="uni013C" unicode="&#x13c;" horiz-adv-x="524" 
d="M303 -111.5q41 -48.5 41 -124.5q0 -113 -67.5 -190.5t-206.5 -85.5v61q76 14 114.5 50t42.5 90q-23 -12 -53 -13q-53 0 -87 36t-34 89q0 59 40 97.5t104 38.5q65 0 106 -48.5zM236 1405h317l-197 -1405h-317z" />
    <glyph glyph-name="Lcaron" unicode="&#x13d;" horiz-adv-x="1054" 
d="M983 1298q41 -45 41 -114q0 -20 -2 -33q-12 -102 -81 -170t-187 -68q-27 0 -41 2l8 60q76 2 121 33.5t55 83.5q-14 -6 -33 -7q-14 0 -22 2q-47 6 -76 40t-29 79q0 61 40 99t97 38q68 0 109 -45zM449 299h534l-41 -299h-870l184 1313h336z" />
    <glyph glyph-name="lcaron" unicode="&#x13e;" horiz-adv-x="524" 
d="M236 1405h317l-197 -1405h-317z" />
    <glyph glyph-name="Ldot" unicode="&#x13f;" horiz-adv-x="1095" 
d="M726 577q-38 22 -60.5 59t-22.5 78q0 65 48 113.5t115 48.5q41 0 79 -22.5t60 -60.5t22 -79t-22 -78t-59 -59t-80 -22q-42 0 -80 22zM983 299l-41 -299h-870l184 1313h336l-143 -1014h534z" />
    <glyph glyph-name="ldot" unicode="&#x140;" horiz-adv-x="894" 
d="M656 495.5q-38 22.5 -61 59.5t-23 79q0 66 48.5 114.5t116.5 48.5q42 0 79.5 -23t60 -61t22.5 -79q0 -42 -22.5 -79t-59.5 -59.5t-80 -22.5t-81 22.5zM236 1405h317l-197 -1405h-317z" />
    <glyph glyph-name="Lslash" unicode="&#x141;" horiz-adv-x="1173" 
d="M1102 299l-41 -299h-871l78 557l-121 -51l33 264l125 53l70 490h336l-47 -342l227 96l-33 -264l-233 -96l-58 -408h535z" />
    <glyph glyph-name="lslash" unicode="&#x142;" horiz-adv-x="712" 
d="M657 807l-100 -45l-106 -762h-318l86 610l-102 -45l30 219l103 45l80 576h317l-59 -426l100 45z" />
    <glyph glyph-name="Nacute" unicode="&#x143;" horiz-adv-x="1409" 
d="M752 1522l346 364l147 -151l-403 -310zM1393 1313l-185 -1313h-307l-397 737l-105 -737h-327l184 1313h307l398 -742l104 742h328z" />
    <glyph glyph-name="nacute" unicode="&#x144;" horiz-adv-x="1116" 
d="M539 1128l346 365l147 -152l-403 -309zM966.5 879q77.5 -84 77.5 -226q0 -35 -6 -75l-80 -578h-317l70 502q4 37 4 47q0 127 -121 127q-74 0 -116 -44t-52 -124l-72 -508h-315l129 930h264l4 -96q51 59 133 94t172 35q148 0 225.5 -84z" />
    <glyph glyph-name="uni0145" unicode="&#x145;" horiz-adv-x="1409" 
d="M745.5 -111.5q40.5 -48.5 40.5 -124.5q0 -113 -67.5 -190.5t-206.5 -85.5v61q76 14 115 50t43 90q-23 -12 -54 -13q-53 0 -86.5 36t-33.5 89q0 59 39.5 97.5t103.5 38.5q66 0 106.5 -48.5zM1393 1313l-185 -1313h-307l-397 737l-105 -737h-327l184 1313h307l398 -742
l104 742h328z" />
    <glyph glyph-name="uni0146" unicode="&#x146;" horiz-adv-x="1116" 
d="M602 -111.5q41 -48.5 41 -124.5q0 -113 -67.5 -190.5t-206.5 -85.5v61q76 14 114.5 50t42.5 90q-23 -12 -53 -13q-53 0 -87 36t-34 89q0 59 40 97.5t104 38.5q65 0 106 -48.5zM966.5 879q77.5 -84 77.5 -226q0 -35 -6 -75l-80 -578h-317l70 502q4 37 4 47q0 127 -121 127
q-74 0 -116 -44t-52 -124l-72 -508h-315l129 930h264l4 -96q51 59 133 94t172 35q148 0 225.5 -84z" />
    <glyph glyph-name="Ncaron" unicode="&#x147;" horiz-adv-x="1409" 
d="M623 1841l219 -235l219 235l147 -100l-231 -316h-268l-232 316zM1393 1313l-185 -1313h-307l-397 737l-105 -737h-327l184 1313h307l398 -742l104 742h328z" />
    <glyph glyph-name="ncaron" unicode="&#x148;" horiz-adv-x="1116" 
d="M410 1448l219 -236l219 236l147 -100l-231 -316h-268l-232 316zM966.5 879q77.5 -84 77.5 -226q0 -35 -6 -75l-80 -578h-317l70 502q4 37 4 47q0 127 -121 127q-74 0 -116 -44t-52 -124l-72 -508h-315l129 930h264l4 -96q51 59 133 94t172 35q148 0 225.5 -84z" />
    <glyph glyph-name="Eng" unicode="&#x14a;" horiz-adv-x="1685" 
d="M256 1313h328l551 -795v795h327v-1440q0 -182 -113.5 -262t-271.5 -80q-68 0 -135 14v246h96q57 0 92 27.5t35 105.5v76h-30l-551 791v-791h-328v1313z" />
    <glyph glyph-name="eng" unicode="&#x14b;" horiz-adv-x="1130" 
d="M168 930h297l8 -88q53 57 131 88t160 31q145 0 220 -83t75 -223q0 -39 -6 -80l-88 -638q-25 -178 -129.5 -253t-235.5 -75q-70 0 -131 20l33 244q12 -2 37 -2q100 0 112 98l74 529q4 33 4 47q0 80 -39 104.5t-80 24.5q-61 0 -114.5 -30t-69.5 -138l-72 -506h-315z" />
    <glyph glyph-name="Omacron" unicode="&#x14c;" horiz-adv-x="1527" 
d="M1214 1630v-207h-604v207h604zM410.5 54q-150.5 81 -234.5 228.5t-84 340.5q0 203 93.5 366.5t261 257.5t380.5 94q195 0 345.5 -80.5t234.5 -228t84 -340.5q0 -203 -93 -366.5t-261 -258t-381 -94.5q-195 0 -345.5 81zM958 331q84 50 132.5 140t48.5 207q0 160 -89 258
t-237 98q-104 0 -188 -50t-132.5 -140t-48.5 -207q0 -160 89.5 -258t236.5 -98q104 0 188 50z" />
    <glyph glyph-name="omacron" unicode="&#x14d;" horiz-adv-x="1144" 
d="M969 1251v-207h-604v207h604zM133 707.5q70 119.5 194 187.5t279 68q145 0 253 -58.5t165 -164t57 -242.5q0 -152 -69.5 -272t-193.5 -186.5t-279 -66.5q-145 0 -253 58.5t-165.5 164t-57.5 240.5q0 152 70 271.5zM433 305q44 -53 122 -53q88 0 144.5 64.5t56.5 168.5
q0 90 -44 143.5t-122 53.5q-88 0 -144.5 -64.5t-56.5 -168.5q0 -91 44 -144z" />
    <glyph glyph-name="Ohungarumlaut" unicode="&#x150;" horiz-adv-x="1527" 
d="M604 1507l346 365l148 -152l-404 -309zM1036 1507l346 365l146 -152l-402 -309zM410.5 54q-150.5 81 -234.5 228.5t-84 340.5q0 203 93.5 366.5t261 257.5t380.5 94q195 0 345.5 -80.5t234.5 -228t84 -340.5q0 -203 -93 -366.5t-261 -258t-381 -94.5q-195 0 -345.5 81z
M958 331q84 50 132.5 140t48.5 207q0 160 -89 258t-237 98q-104 0 -188 -50t-132.5 -140t-48.5 -207q0 -160 89.5 -258t236.5 -98q104 0 188 50z" />
    <glyph glyph-name="ohungarumlaut" unicode="&#x151;" horiz-adv-x="1144" 
d="M358 1128l347 365l147 -152l-403 -309zM791 1128l346 365l145 -152l-401 -309zM133 707.5q70 119.5 194 187.5t279 68q145 0 253 -58.5t165 -164t57 -242.5q0 -152 -69.5 -272t-193.5 -186.5t-279 -66.5q-145 0 -253 58.5t-165.5 164t-57.5 240.5q0 152 70 271.5z
M433 305q44 -53 122 -53q88 0 144.5 64.5t56.5 168.5q0 90 -44 143.5t-122 53.5q-88 0 -144.5 -64.5t-56.5 -168.5q0 -91 44 -144z" />
    <glyph glyph-name="OE" unicode="&#x152;" horiz-adv-x="2172" 
d="M1595 1014l-28 -205h487l-39 -289h-487l-31 -221h549l-41 -299h-870l16 111q-68 -63 -175.5 -100.5t-236.5 -37.5q-197 0 -343 81t-225 227.5t-79 341.5q0 203 93.5 366.5t261 257.5t380.5 94q143 0 263 -47t196 -131l21 150h882l-43 -299h-551zM958 331q84 50 132.5 140
t48.5 207q0 160 -89 258t-237 98q-104 0 -188 -50t-132.5 -140t-48.5 -207q0 -160 89.5 -258t236.5 -98q104 0 188 50z" />
    <glyph glyph-name="oe" unicode="&#x153;" horiz-adv-x="1941" 
d="M1775.5 137q-69.5 -76 -177 -120t-230.5 -44q-141 0 -247.5 59.5t-165 166t-58.5 245.5q0 150 67.5 268.5t185.5 184.5t259 66q137 0 244.5 -58.5t167 -165t59.5 -243.5q0 -61 -16 -115h-660q2 -68 50.5 -110t123.5 -42q51 0 98.5 20.5t71.5 55.5h312q-15 -92 -84.5 -168
zM1561 586q-8 53 -51.5 86t-102.5 33q-66 0 -112 -33t-58 -86h324zM133 707.5q70 119.5 194 187.5t279 68q145 0 253 -58.5t165 -164t57 -242.5q0 -152 -69.5 -272t-193.5 -186.5t-279 -66.5q-145 0 -253 58.5t-165.5 164t-57.5 240.5q0 152 70 271.5zM433 305
q44 -53 122 -53q88 0 144.5 64.5t56.5 168.5q0 90 -44 143.5t-122 53.5q-88 0 -144.5 -64.5t-56.5 -168.5q0 -91 44 -144z" />
    <glyph glyph-name="Racute" unicode="&#x154;" horiz-adv-x="1294" 
d="M602 1479l346 364l148 -151l-404 -310zM256 1313h573q135 0 240 -53.5t162 -149.5t57 -221q0 -129 -80 -235.5t-211 -153.5l162 -500h-373l-129 442h-192l-62 -442h-331zM719 725q92 0 145.5 46t53.5 118q0 66 -38 101.5t-110 35.5h-223l-41 -301h213z" />
    <glyph glyph-name="racute" unicode="&#x155;" horiz-adv-x="765" 
d="M223 1096l346 364l148 -151l-404 -310zM799 940l-37 -283q-29 6 -92 7q-109 0 -173.5 -60.5t-80.5 -175.5l-60 -428h-317l129 930h291l4 -107q33 57 97.5 91t144.5 34q53 0 94 -8z" />
    <glyph glyph-name="uni0156" unicode="&#x156;" horiz-adv-x="1294" 
d="M700 -111.5q41 -48.5 41 -124.5q0 -113 -67.5 -190.5t-206.5 -85.5v61q76 14 115 50t43 90q-23 -12 -54 -13q-53 0 -86.5 36t-33.5 89q0 59 39.5 97.5t103.5 38.5q65 0 106 -48.5zM256 1313h573q135 0 240 -53.5t162 -149.5t57 -221q0 -129 -80 -235.5t-211 -153.5
l162 -500h-373l-129 442h-192l-62 -442h-331zM719 725q92 0 145.5 46t53.5 118q0 66 -38 101.5t-110 35.5h-223l-41 -301h213z" />
    <glyph glyph-name="uni0157" unicode="&#x157;" horiz-adv-x="765" 
d="M303 -111.5q41 -48.5 41 -124.5q0 -113 -67.5 -190.5t-206.5 -85.5v61q76 14 114.5 50t42.5 90q-23 -12 -53 -13q-53 0 -87 36t-34 89q0 59 40 97.5t104 38.5q65 0 106 -48.5zM799 940l-37 -283q-29 6 -92 7q-109 0 -173.5 -60.5t-80.5 -175.5l-60 -428h-317l129 930h291
l4 -107q33 57 97.5 91t144.5 34q53 0 94 -8z" />
    <glyph glyph-name="Rcaron" unicode="&#x158;" horiz-adv-x="1294" 
d="M473 1798l219 -235l219 235l148 -100l-232 -316h-268l-231 316zM256 1313h573q135 0 240 -53.5t162 -149.5t57 -221q0 -129 -80 -235.5t-211 -153.5l162 -500h-373l-129 442h-192l-62 -442h-331zM719 725q92 0 145.5 46t53.5 118q0 66 -38 101.5t-110 35.5h-223l-41 -301
h213z" />
    <glyph glyph-name="rcaron" unicode="&#x159;" horiz-adv-x="765" 
d="M94 1415l219 -235l219 235l148 -100l-231 -316h-269l-231 316zM799 940l-37 -283q-29 6 -92 7q-109 0 -173.5 -60.5t-80.5 -175.5l-60 -428h-317l129 930h291l4 -107q33 57 97.5 91t144.5 34q53 0 94 -8z" />
    <glyph glyph-name="Sacute" unicode="&#x15a;" horiz-adv-x="1224" 
d="M641 1507l346 365l148 -152l-404 -309zM232.5 1132.5q66.5 100.5 183 154.5t264.5 54q143 0 256 -52t177.5 -146t68.5 -213h-338q-6 63 -54.5 98t-123.5 35q-72 0 -112 -29.5t-40 -79.5q0 -49 42 -72.5t134 -45.5l137 -35q158 -39 240 -141.5t82 -243.5
q0 -135 -74 -235.5t-202 -154t-289 -53.5q-156 0 -275 53.5t-185.5 151.5t-68.5 225h338q8 -70 63.5 -110.5t151.5 -40.5q86 0 134.5 32.5t48.5 88.5q0 53 -37 77.5t-95 36.5l-161 39q-166 41 -249 139.5t-83 237.5q0 129 66.5 229.5z" />
    <glyph glyph-name="sacute" unicode="&#x15b;" horiz-adv-x="962" 
d="M489 1128l347 365l147 -152l-403 -309zM155.5 59q-108.5 86 -118.5 232h309q4 -37 34 -59.5t75 -22.5q43 0 67.5 15.5t24.5 41.5q0 23 -17.5 34t-44.5 17l-149 39q-115 31 -174.5 102.5t-59.5 170.5q0 92 54.5 168.5t149.5 121t212 44.5q168 0 273.5 -86t111.5 -226h-309
q-2 33 -24.5 52.5t-59.5 19.5t-59.5 -14.5t-22.5 -38.5q0 -23 16.5 -33t55.5 -21l135 -34q117 -31 179.5 -103.5t62.5 -173.5q0 -98 -58.5 -174t-157 -117t-219.5 -41q-178 0 -286.5 86z" />
    <glyph glyph-name="Scircumflex" unicode="&#x15c;" horiz-adv-x="1224" 
d="M598 1812h266l232 -315l-146 -100l-219 235l-219 -235l-145 100zM232.5 1132.5q66.5 100.5 183 154.5t264.5 54q143 0 256 -52t177.5 -146t68.5 -213h-338q-6 63 -54.5 98t-123.5 35q-72 0 -112 -29.5t-40 -79.5q0 -49 42 -72.5t134 -45.5l137 -35q158 -39 240 -141.5
t82 -243.5q0 -135 -74 -235.5t-202 -154t-289 -53.5q-156 0 -275 53.5t-185.5 151.5t-68.5 225h338q8 -70 63.5 -110.5t151.5 -40.5q86 0 134.5 32.5t48.5 88.5q0 53 -37 77.5t-95 36.5l-161 39q-166 41 -249 139.5t-83 237.5q0 129 66.5 229.5z" />
    <glyph glyph-name="scircumflex" unicode="&#x15d;" horiz-adv-x="962" 
d="M446 1434h267l231 -316l-145 -100l-219 235l-220 -235l-145 100zM155.5 59q-108.5 86 -118.5 232h309q4 -37 34 -59.5t75 -22.5q43 0 67.5 15.5t24.5 41.5q0 23 -17.5 34t-44.5 17l-149 39q-115 31 -174.5 102.5t-59.5 170.5q0 92 54.5 168.5t149.5 121t212 44.5
q168 0 273.5 -86t111.5 -226h-309q-2 33 -24.5 52.5t-59.5 19.5t-59.5 -14.5t-22.5 -38.5q0 -23 16.5 -33t55.5 -21l135 -34q117 -31 179.5 -103.5t62.5 -173.5q0 -98 -58.5 -174t-157 -117t-219.5 -41q-178 0 -286.5 86z" />
    <glyph glyph-name="Scedilla" unicode="&#x15e;" horiz-adv-x="1224" 
d="M582 -92q74 0 138 -49t64 -154q0 -113 -83 -174t-199 -61q-98 0 -174 43v153q23 -23 59.5 -35t75.5 -12q51 0 86 23.5t35 70.5q0 45 -31 68.5t-80 23.5q-12 0 -41 -4l-53 56l141 239h127l-10 -76l-78 -114zM232.5 1132.5q-66.5 -100.5 -66.5 -229.5q0 -139 83 -237.5
t249 -139.5l161 -39q57 -12 94.5 -36.5t37.5 -77.5q0 -55 -48.5 -88t-134.5 -33q-96 0 -151.5 41t-63.5 110h-338q2 -127 68.5 -225t185.5 -151.5t275 -53.5q162 0 289.5 53.5t201.5 154t74 235.5q0 141 -82 243.5t-240 141.5l-137 35q-92 23 -134 46t-42 72t40 79t112 30
q76 0 124 -35t54 -98h338q-4 119 -68.5 213t-177.5 146t-256 52q-147 0 -264 -54t-183.5 -154.5z" />
    <glyph glyph-name="scedilla" unicode="&#x15f;" horiz-adv-x="962" 
d="M399 -76q74 0 138.5 -49t64.5 -154q0 -113 -83 -174t-200 -61q-98 0 -174 43v154q23 -23 60 -35.5t76 -12.5q51 0 85.5 24t34.5 71q0 45 -30.5 68.5t-79.5 23.5q-12 0 -41 -4l-53 55l141 240h127l-10 -76l-78 -115zM155.5 59q108.5 -86 286.5 -86q121 0 219.5 41t157 117
t58.5 174q0 100 -62.5 173t-179.5 104l-135 34q-39 10 -55.5 20.5t-16.5 33.5q0 25 22.5 39t59.5 14t59.5 -19.5t24.5 -52.5h309q-6 139 -111.5 225.5t-273.5 86.5q-117 0 -212 -44.5t-149.5 -121t-54.5 -168.5q0 -98 59.5 -170t174.5 -103l149 -39q27 -6 44.5 -17t17.5 -34
q0 -27 -24.5 -42t-67.5 -15q-45 0 -75 22.5t-34 59.5h-309q10 -146 118.5 -232z" />
    <glyph glyph-name="Scaron" unicode="&#x160;" horiz-adv-x="1224" 
d="M512 1827l219 -236l219 236l148 -101l-232 -315h-268l-231 315zM232.5 1132.5q66.5 100.5 183 154.5t264.5 54q143 0 256 -52t177.5 -146t68.5 -213h-338q-6 63 -54.5 98t-123.5 35q-72 0 -112 -29.5t-40 -79.5q0 -49 42 -72.5t134 -45.5l137 -35q158 -39 240 -141.5
t82 -243.5q0 -135 -74 -235.5t-202 -154t-289 -53.5q-156 0 -275 53.5t-185.5 151.5t-68.5 225h338q8 -70 63.5 -110.5t151.5 -40.5q86 0 134.5 32.5t48.5 88.5q0 53 -37 77.5t-95 36.5l-161 39q-166 41 -249 139.5t-83 237.5q0 129 66.5 229.5z" />
    <glyph glyph-name="scaron" unicode="&#x161;" horiz-adv-x="962" 
d="M360 1448l220 -236l219 236l147 -100l-231 -316h-269l-231 316zM155.5 59q-108.5 86 -118.5 232h309q4 -37 34 -59.5t75 -22.5q43 0 67.5 15.5t24.5 41.5q0 23 -17.5 34t-44.5 17l-149 39q-115 31 -174.5 102.5t-59.5 170.5q0 92 54.5 168.5t149.5 121t212 44.5
q168 0 273.5 -86t111.5 -226h-309q-2 33 -24.5 52.5t-59.5 19.5t-59.5 -14.5t-22.5 -38.5q0 -23 16.5 -33t55.5 -21l135 -34q117 -31 179.5 -103.5t62.5 -173.5q0 -98 -58.5 -174t-157 -117t-219.5 -41q-178 0 -286.5 86z" />
    <glyph glyph-name="uni0162" unicode="&#x162;" horiz-adv-x="1179" 
d="M618 -113q74 0 138.5 -49t64.5 -153q0 -113 -83 -174.5t-199 -61.5q-98 0 -174 43v154q23 -23 59.5 -35t75.5 -12q51 0 86 23.5t35 70.5q0 45 -31 68.5t-80 23.5q-12 0 -41 -4l-53 55l141 240h127l-10 -76l-78 -115zM1223 1014h-387l-142 -1014h-332l142 1014h-391
l41 299h1110z" />
    <glyph glyph-name="uni0163" unicode="&#x163;" horiz-adv-x="700" 
d="M369 -111q74 0 138 -49t64 -153q0 -113 -82.5 -174.5t-199.5 -61.5q-98 0 -174 43v154q23 -23 59.5 -35t75.5 -12q51 0 86 23.5t35 70.5q0 45 -31 68.5t-80 23.5q-12 0 -41 -4l-53 55l141 240h127l-10 -76l-78 -115zM709 668h-172l-95 -668h-317l94 668h-170l37 262h170
l33 239h317l-33 -239h172z" />
    <glyph glyph-name="Tcaron" unicode="&#x164;" horiz-adv-x="1179" 
d="M489 1798l220 -235l219 235l147 -100l-231 -316h-269l-231 316zM1223 1014h-387l-142 -1014h-332l142 1014h-391l41 299h1110z" />
    <glyph glyph-name="tcaron" unicode="&#x165;" horiz-adv-x="802" 
d="M915 1415l-100 -407h-162l56 407h206zM575 930h170l-36 -268h-172l-93 -662h-317l92 662h-170l37 268h172l33 239h317z" />
    <glyph glyph-name="Tbar" unicode="&#x166;" horiz-adv-x="1179" 
d="M1116 805l-41 -279h-948l41 279h948zM1223 1014h-387l-142 -1014h-332l142 1014h-391l41 299h1110z" />
    <glyph glyph-name="tbar" unicode="&#x167;" horiz-adv-x="700" 
d="M664 344l-628 217l34 242l628 -217zM709 668h-172l-95 -668h-317l94 668h-170l37 262h170l33 239h317l-33 -239h172z" />
    <glyph glyph-name="Utilde" unicode="&#x168;" horiz-adv-x="1433" 
d="M492 1462q0 113 53 178.5t139 65.5q45 0 83 -16.5t89 -47.5q25 -14 49.5 -26t42.5 -12q37 0 51.5 23.5t12.5 72.5h151q8 -53 8 -76q0 -102 -53 -165.5t-139 -63.5q-45 0 -86 16t-92 47q-25 14 -48.5 25.5t-39.5 11.5q-41 0 -54.5 -34t-9.5 -79h-151q-6 43 -6 80z
M248 1313h332l-101 -760q-4 -33 -4 -53q0 -104 62.5 -167t177.5 -63q102 0 175 60.5t87 161.5l115 821h331l-118 -854q-31 -231 -195 -358.5t-410 -127.5q-254 0 -404.5 140.5t-150.5 392.5q0 43 9 104z" />
    <glyph glyph-name="utilde" unicode="&#x169;" horiz-adv-x="1097" 
d="M274 1079q0 113 53.5 178.5t139.5 65.5q45 0 83 -16.5t89 -46.5q25 -14 49.5 -26.5t42.5 -12.5q37 0 51.5 23.5t12.5 72.5h151q8 -53 8 -76q0 -102 -53 -165.5t-139 -63.5q-45 0 -86 16t-92 47q-25 14 -48.5 25.5t-39.5 11.5q-41 0 -54.5 -34t-9.5 -79h-151q-7 43 -7 80z
M1069 930l-129 -930h-264l-4 100q-57 -63 -134 -95t-165 -32q-147 0 -225 79t-78 216q0 37 6 76l82 586h317l-76 -539q-2 -12 -2 -35q0 -109 121 -108q66 0 107 39t51 106l76 537h317z" />
    <glyph glyph-name="Umacron" unicode="&#x16a;" horiz-adv-x="1433" 
d="M1135 1602v-207h-605v207h605zM248 1313h332l-101 -760q-4 -33 -4 -53q0 -104 62.5 -167t177.5 -63q102 0 175 60.5t87 161.5l115 821h331l-118 -854q-31 -231 -195 -358.5t-410 -127.5q-254 0 -404.5 140.5t-150.5 392.5q0 43 9 104z" />
    <glyph glyph-name="umacron" unicode="&#x16b;" horiz-adv-x="1097" 
d="M918 1219v-207h-605v207h605zM1069 930l-129 -930h-264l-4 100q-57 -63 -134 -95t-165 -32q-147 0 -225 79t-78 216q0 37 6 76l82 586h317l-76 -539q-2 -12 -2 -35q0 -109 121 -108q66 0 107 39t51 106l76 537h317z" />
    <glyph glyph-name="Uring" unicode="&#x16e;" horiz-adv-x="1433" 
d="M671.5 1399q-67.5 39 -102 102.5t-34.5 132.5q0 72 34.5 135.5t102 102.5t159.5 39q90 0 158 -40t103.5 -103.5t35.5 -133.5t-35.5 -133t-103 -102t-158.5 -39q-92 0 -159.5 39zM906.5 1559.5q29.5 31.5 29.5 78.5q0 43 -31 74t-74 31q-45 0 -74.5 -31t-29.5 -74
q0 -47 29.5 -78.5t74.5 -31.5q46 0 75.5 31.5zM248 1313h332l-101 -760q-4 -33 -4 -53q0 -104 62.5 -167t177.5 -63q102 0 175 60.5t87 161.5l115 821h331l-118 -854q-31 -231 -195 -358.5t-410 -127.5q-254 0 -404.5 140.5t-150.5 392.5q0 43 9 104z" />
    <glyph glyph-name="uring" unicode="&#x16f;" horiz-adv-x="1097" 
d="M454.5 1016q-67.5 39 -102.5 102.5t-35 132.5q0 72 35 135.5t102.5 102.5t159.5 39q90 0 158 -40t103.5 -103.5t35.5 -133.5t-35.5 -133t-103 -102t-158.5 -39q-92 0 -159.5 39zM689 1176.5q30 31.5 30 78.5q0 43 -31 74t-74 31q-45 0 -74.5 -31t-29.5 -74
q0 -47 29.5 -78.5t74.5 -31.5t75 31.5zM1069 930l-129 -930h-264l-4 100q-57 -63 -134 -95t-165 -32q-147 0 -225 79t-78 216q0 37 6 76l82 586h317l-76 -539q-2 -12 -2 -35q0 -109 121 -108q66 0 107 39t51 106l76 537h317z" />
    <glyph glyph-name="Uhungarumlaut" unicode="&#x170;" horiz-adv-x="1433" 
d="M524 1481l346 364l148 -151l-404 -310zM956 1481l347 364l145 -151l-401 -310zM248 1313h332l-101 -760q-4 -33 -4 -53q0 -104 62.5 -167t177.5 -63q102 0 175 60.5t87 161.5l115 821h331l-118 -854q-31 -231 -195 -358.5t-410 -127.5q-254 0 -404.5 140.5t-150.5 392.5
q0 43 9 104z" />
    <glyph glyph-name="uhungarumlaut" unicode="&#x171;" horiz-adv-x="1097" 
d="M307 1098l346 364l148 -151l-404 -310zM739 1098l346 364l146 -151l-402 -310zM1069 930l-129 -930h-264l-4 100q-57 -63 -134 -95t-165 -32q-147 0 -225 79t-78 216q0 37 6 76l82 586h317l-76 -539q-2 -12 -2 -35q0 -109 121 -108q66 0 107 39t51 106l76 537h317z" />
    <glyph glyph-name="Uogonek" unicode="&#x172;" horiz-adv-x="1433" 
d="M788 -6q-66 -41 -97.5 -82t-31.5 -76q0 -29 21.5 -46t56.5 -17q33 0 70 14v-156q-78 -23 -131 -22q-96 0 -151.5 49t-55.5 121q0 55 38 112.5t109 102.5h172zM248 1313l-94 -703q-8 -61 -9 -104q0 -252 150.5 -392.5t404.5 -140.5q246 0 410 127t195 359l118 854h-331
l-115 -821q-14 -100 -87 -161t-175 -61q-115 0 -177.5 62.5t-62.5 167.5q0 20 4 53l101 760h-332z" />
    <glyph glyph-name="uogonek" unicode="&#x173;" horiz-adv-x="1097" 
d="M938 0q-66 -41 -97.5 -82t-31.5 -76q0 -29 21.5 -46t56.5 -17q33 0 69 14v-155q-78 -23 -131 -23q-96 0 -151.5 49t-55.5 121q0 55 38 112.5t110 102.5h172zM1069 930l-129 -930h-264l-4 100q-57 -63 -134 -95t-165 -32q-147 0 -225 79t-78 216q0 37 6 76l82 586h317
l-76 -539q-2 -12 -2 -35q0 -109 121 -108q66 0 107 39t51 106l76 537h317z" />
    <glyph glyph-name="Wcircumflex" unicode="&#x174;" horiz-adv-x="1986" 
d="M973 1784h268l232 -316l-148 -100l-219 236l-219 -236l-146 100zM487 1313l113 -785l320 750h364l107 -750l333 785h365l-606 -1313h-324l-117 799l-342 -799h-323l-238 1313h348z" />
    <glyph glyph-name="wcircumflex" unicode="&#x175;" horiz-adv-x="1611" 
d="M745 1401h269l231 -316l-147 -100l-219 236l-220 -236l-145 100zM432 930l55 -508l209 489h336l55 -512l213 531h347l-461 -930h-307l-64 516l-213 -516h-323l-183 930h336z" />
    <glyph glyph-name="Ycircumflex" unicode="&#x176;" horiz-adv-x="1325" 
d="M655 1784h269l231 -316l-147 -100l-220 236l-219 -236l-145 100zM500 1313l198 -484l336 484h393l-591 -811l-72 -502h-334l72 504l-367 809h365z" />
    <glyph glyph-name="ycircumflex" unicode="&#x177;" horiz-adv-x="1136" 
d="M506 1401h268l232 -316l-148 -100l-219 236l-219 -236l-146 100zM1182 930l-582 -1071q-45 -84 -98 -150.5t-147.5 -119t-229.5 -52.5q-82 0 -195 25l41 258q78 -14 138 -15q92 0 134 37t76 107l25 49l-258 932h332l123 -565l293 565h348z" />
    <glyph glyph-name="Ydieresis" unicode="&#x178;" horiz-adv-x="1325" 
d="M469 1424q-43 42 -43 106q0 66 43 106.5t106 40.5t105.5 -41t42.5 -106q0 -63 -42 -105.5t-106 -42.5q-63 0 -106 42zM897 1424q-43 42 -43 106q0 66 43 106.5t107 40.5q63 0 105 -41t42 -106q0 -63 -42 -105.5t-105 -42.5q-64 0 -107 42zM500 1313l198 -484l336 484h393
l-591 -811l-72 -502h-334l72 504l-367 809h365z" />
    <glyph glyph-name="Zacute" unicode="&#x179;" horiz-adv-x="1140" 
d="M606 1479l346 364l148 -151l-404 -310zM1153 1059l-651 -760h536l-41 -299h-991l37 268l631 746h-514l43 299h987z" />
    <glyph glyph-name="zacute" unicode="&#x17a;" horiz-adv-x="940" 
d="M444 1096l347 364l147 -151l-403 -310zM47 281l416 370h-365l39 279h795l-39 -283l-430 -364h379l-39 -283h-795z" />
    <glyph glyph-name="Zdotaccent" unicode="&#x17b;" horiz-adv-x="1140" 
d="M590 1424q-43 42 -43 106q0 66 43 106.5t106 40.5t105.5 -41t42.5 -106q0 -63 -42 -105.5t-106 -42.5q-63 0 -106 42zM1153 1059l-651 -760h536l-41 -299h-991l37 268l631 746h-514l43 299h987z" />
    <glyph glyph-name="zdotaccent" unicode="&#x17c;" horiz-adv-x="940" 
d="M428 1041q-43 42 -43 106q0 66 43 106.5t107 40.5q63 0 105 -41t42 -106q0 -63 -42 -105.5t-105 -42.5q-64 0 -107 42zM47 281l416 370h-365l39 279h795l-39 -283l-430 -364h379l-39 -283h-795z" />
    <glyph glyph-name="Zcaron" unicode="&#x17d;" horiz-adv-x="1140" 
d="M477 1798l219 -235l219 235l148 -100l-232 -316h-268l-231 316zM1153 1059l-651 -760h536l-41 -299h-991l37 268l631 746h-514l43 299h987z" />
    <glyph glyph-name="zcaron" unicode="&#x17e;" horiz-adv-x="940" 
d="M315 1415l220 -235l219 235l147 -100l-231 -316h-269l-231 316zM47 281l416 370h-365l39 279h795l-39 -283l-430 -364h379l-39 -283h-795z" />
    <glyph glyph-name="florin" unicode="&#x192;" horiz-adv-x="1382" 
d="M905 858h344l-32 -227h-381l-101 -322q-49 -158 -175 -233.5t-304 -75.5h-203l37 276h156q158 0 196 123l72 232h-235l32 227h275l12 39q68 217 195 316.5t358 99.5h162l-39 -275h-141q-173 0 -228 -180z" />
    <glyph glyph-name="Aringacute" unicode="&#x1fa;" horiz-adv-x="1318" 
d="M734 1671l404 299l119 -175l-451 -234zM669.5 1239q67.5 -39 159.5 -39q90 0 158 39t103.5 102.5t35.5 133.5t-35.5 133t-103 103t-158.5 40q-92 0 -159.5 -39t-102.5 -102.5t-35 -134.5q0 -70 35 -133.5t102.5 -102.5zM904 1400q-30 -32 -75 -32t-74.5 32t-29.5 79
q0 43 29.5 73.5t74.5 30.5q43 0 74 -30.5t31 -73.5q0 -47 -30 -79zM623 1313h315l301 -1313h-340l-55 256h-410l-127 -256h-358zM788 532l-61 324l-158 -324h219z" />
    <glyph glyph-name="aringacute" unicode="&#x1fb;" horiz-adv-x="1218" 
d="M702 1190l347 364l147 -151l-403 -309zM528.5 856q67.5 -39 159.5 -39q90 0 157.5 39t103.5 102.5t36 133.5t-36 133t-103.5 103t-157.5 40q-92 0 -159.5 -39t-102.5 -102.5t-35 -134.5q0 -70 35 -133.5t102.5 -102.5zM763 1017q-30 -32 -75 -32t-74.5 32t-29.5 79
q0 43 29.5 73.5t74.5 30.5q43 0 74 -30.5t31 -73.5q0 -47 -30 -79zM1192 930l-131 -930h-318l13 88q-51 -53 -130 -84t-167 -31q-117 0 -207 56.5t-140.5 159t-50.5 235.5q0 154 66 276.5t179.5 192.5t250.5 70q98 0 182 -37t135 -103l54 107h264zM737.5 324.5
q63.5 64.5 63.5 160.5q0 88 -52.5 140.5t-138.5 52.5q-94 0 -157.5 -63.5t-63.5 -159.5q0 -86 53.5 -140.5t137.5 -54.5q94 0 157.5 64.5z" />
    <glyph glyph-name="AEacute" unicode="&#x1fc;" horiz-adv-x="1832" 
d="M1108 1522l346 364l148 -151l-404 -310zM1231 1001l-27 -184l510 -2l-43 -299l-510 2l-28 -205l575 -2l-43 -311l-575 2v-2h-314l37 266h-338l-143 -266h-383l729 1280l4 33h1167l-43 -312h-575zM918 1004h-46l-243 -453h225z" />
    <glyph glyph-name="aeacute" unicode="&#x1fd;" horiz-adv-x="1677" 
d="M809 1159l346 365l148 -152l-404 -309zM1615 465q-5 -37 -10.5 -57.5t-7.5 -26.5h-645q0 -66 46 -107t122 -41q55 0 101.5 19.5t66.5 52.5h309q-35 -150 -168 -241t-315 -91q-125 0 -222 42t-144 114q-47 -72 -142.5 -114t-214.5 -42q-162 0 -257 81t-95 216q0 90 47 161
t134 112t204 41h225l2 18q6 59 -31.5 91t-107.5 32q-57 0 -100 -27.5t-54 -74.5h-268q20 154 146 247t301 93q106 0 187 -31t128 -86q57 55 143 85t181 30q125 0 226 -52.5t159.5 -147.5t58.5 -220q0 -39 -5 -76zM1267 670.5q-42 31.5 -110 31.5q-72 0 -119 -33.5t-55 -84.5
h324q2 55 -40 86.5zM625 385h-129q-66 0 -97.5 -25.5t-31.5 -68.5q0 -41 28.5 -64.5t73.5 -23.5q133 0 152 149z" />
    <glyph glyph-name="Oslashacute" unicode="&#x1fe;" horiz-adv-x="1527" 
d="M702 1571l347 364l147 -151l-403 -309zM1172.5 1262.5q150.5 -80.5 234.5 -228t84 -340.5q0 -203 -93 -366.5t-261 -258t-381 -94.5q-195 0 -345.5 81t-234.5 228.5t-84 340.5q0 203 93.5 366.5t261 257.5t380.5 94q195 0 345.5 -80.5zM625 986q-84 -50 -132.5 -140
t-48.5 -207q0 -92 33 -170l426 555q-39 12 -90 12q-104 0 -188 -50zM958 333q84 50 132.5 140t48.5 207q0 111 -43 190l-430 -573q57 -14 104 -14q104 0 188 50z" />
    <glyph glyph-name="oslashacute" unicode="&#x1ff;" horiz-adv-x="1144" 
d="M575 1128l347 365l147 -152l-403 -309zM859.5 904.5q107.5 -58.5 164.5 -164t57 -242.5q0 -152 -69.5 -272t-193.5 -186.5t-279 -66.5q-145 0 -253 58.5t-165.5 164t-57.5 240.5q0 152 70 271.5t194 187.5t279 68q146 0 253.5 -58.5zM445.5 617.5
q-56.5 -64.5 -56.5 -168.5q0 -39 8 -70l232 299q-25 4 -39 4q-88 0 -144.5 -64.5zM699.5 316.5q56.5 64.5 56.5 168.5q0 41 -8 68l-226 -299q10 -2 33 -2q88 0 144.5 64.5z" />
    <glyph glyph-name="uni0218" unicode="&#x218;" horiz-adv-x="1224" 
d="M643 -154.5q41 -48.5 41 -124.5q0 -113 -67.5 -190.5t-206.5 -85.5v61q76 14 114.5 50t42.5 90q-23 -12 -53 -13q-53 0 -87 36t-34 89q0 59 40 97.5t104 38.5q65 0 106 -48.5zM232.5 1132.5q66.5 100.5 183 154.5t264.5 54q143 0 256 -52t177.5 -146t68.5 -213h-338
q-6 63 -54.5 98t-123.5 35q-72 0 -112 -29.5t-40 -79.5q0 -49 42 -72.5t134 -45.5l137 -35q158 -39 240 -141.5t82 -243.5q0 -135 -74 -235.5t-202 -154t-289 -53.5q-156 0 -275 53.5t-185.5 151.5t-68.5 225h338q8 -70 63.5 -110.5t151.5 -40.5q86 0 134.5 32.5t48.5 88.5
q0 53 -37 77.5t-95 36.5l-161 39q-166 41 -249 139.5t-83 237.5q0 129 66.5 229.5z" />
    <glyph glyph-name="uni0219" unicode="&#x219;" horiz-adv-x="937" 
d="M537 -138q41 -48 41 -124q0 -113 -68 -190.5t-207 -86.5v62q76 14 115 50t43 89q-23 -12 -53 -12q-53 0 -87 35.5t-34 89.5q0 59 40 97t103 38q66 0 107 -48zM155.5 59q-108.5 86 -118.5 232h309q4 -37 34 -59.5t75 -22.5q43 0 67.5 15.5t24.5 41.5q0 23 -17.5 34
t-44.5 17l-149 39q-115 31 -174.5 102.5t-59.5 170.5q0 92 54.5 168.5t149.5 121t212 44.5q168 0 273.5 -86t111.5 -226h-309q-2 33 -24.5 52.5t-59.5 19.5t-59.5 -14.5t-22.5 -38.5q0 -23 16.5 -33t55.5 -21l135 -34q117 -31 179.5 -103.5t62.5 -173.5q0 -98 -58.5 -174
t-157 -117t-219.5 -41q-178 0 -286.5 86z" />
    <glyph glyph-name="uni021A" unicode="&#x21a;" horiz-adv-x="1179" 
d="M616 -175q41 -48 41 -124q0 -113 -67.5 -190.5t-206.5 -85.5v61q76 14 115 50t43 89q-23 -12 -54 -12q-53 0 -86.5 36t-33.5 89q0 59 39.5 97t103.5 38q65 0 106 -48zM1223 1014h-387l-142 -1014h-332l142 1014h-391l41 299h1110z" />
    <glyph glyph-name="uni021B" unicode="&#x21b;" horiz-adv-x="718" 
d="M377 -101.5q41 -48.5 41 -123.5q0 -113 -67.5 -191t-207.5 -86v62q76 14 115 50t43 89q-23 -12 -53 -12q-53 0 -87 35.5t-34 89.5q0 59 40 97t103 38q66 0 107 -48.5zM709 668h-172l-95 -668h-317l94 668h-170l37 262h170l33 239h317l-33 -239h172z" />
    <glyph glyph-name="uni0237" unicode="&#x237;" horiz-adv-x="788" 
d="M201 930h317v-1385h-315z" />
    <glyph glyph-name="circumflex" unicode="&#x2c6;" horiz-adv-x="991" 
d="M504 1806h268l232 -315l-148 -100l-219 235l-219 -235l-146 100z" />
    <glyph glyph-name="caron" unicode="&#x2c7;" horiz-adv-x="991" 
d="M451 1821l219 -236l219 236l147 -101l-231 -315h-268l-232 315z" />
    <glyph glyph-name="breve" unicode="&#x2d8;" horiz-adv-x="1099" 
d="M994.5 1498q-105.5 -91 -263.5 -91q-166 0 -269.5 95t-111.5 251h215q2 -68 47 -105.5t119 -37.5q72 0 115 38t45 105h217q-8 -164 -113.5 -255z" />
    <glyph glyph-name="dotaccent" unicode="&#x2d9;" horiz-adv-x="471" 
d="M279 1447q-43 42 -43 105q0 66 43 107t106 41t105 -41t42 -107q0 -63 -41.5 -105t-105.5 -42q-63 0 -106 42z" />
    <glyph glyph-name="ring" unicode="&#x2da;" horiz-adv-x="800" 
d="M405.5 1401q-67.5 39 -102.5 102.5t-35 132.5q0 72 35 135.5t102.5 102.5t159.5 39q90 0 158 -40t103.5 -103.5t35.5 -133.5t-35.5 -133t-103.5 -102t-158 -39q-92 0 -159.5 39zM640 1561.5q30 31.5 30 78.5q0 43 -31 74t-74 31q-45 0 -74.5 -31t-29.5 -74
q0 -47 29.5 -78.5t74.5 -31.5t75 31.5z" />
    <glyph glyph-name="ogonek" unicode="&#x2db;" horiz-adv-x="626" 
d="M395 0q-66 -41 -97.5 -82t-31.5 -76q0 -29 21.5 -46t56.5 -17q33 0 70 14v-155q-78 -23 -131 -23q-96 0 -151.5 49t-55.5 121q0 55 38 112.5t109 102.5h172z" />
    <glyph glyph-name="tilde" unicode="&#x2dc;" horiz-adv-x="1044" 
d="M340 1485q0 113 53 178.5t139 65.5q45 0 83 -16.5t90 -47.5q25 -14 49 -26.5t43 -12.5q37 0 51 23.5t12 72.5h152q8 -53 8 -75q0 -102 -53.5 -166t-139.5 -64q-45 0 -86 16.5t-92 47.5q-25 14 -48 25.5t-40 11.5q-41 0 -54 -34t-9 -79h-152q-6 43 -6 80z" />
    <glyph glyph-name="hungarumlaut" unicode="&#x2dd;" horiz-adv-x="1169" 
d="M414 1503l346 365l147 -152l-403 -309zM846 1503l346 365l145 -152l-401 -309z" />
    <glyph glyph-name="gravecomb" unicode="&#x300;" 
d="M-492 1714l148 152l346 -365l-92 -96z" />
    <glyph glyph-name="acutecomb" unicode="&#x301;" 
d="M-297 1501l346 365l148 -152l-404 -309z" />
    <glyph glyph-name="uni0302" unicode="&#x302;" 
d="M-485 1806h266l231 -315l-145 -100l-219 235l-219 -235l-146 100z" />
    <glyph glyph-name="tildecomb" unicode="&#x303;" 
d="M-705 1485q0 113 53.5 178.5t139.5 65.5q45 0 83 -16.5t89 -47.5q25 -14 49.5 -26.5t42.5 -12.5q37 0 51.5 23.5t12.5 72.5h151q8 -53 8 -75q0 -102 -53 -166t-139 -64q-45 0 -86 16.5t-92 47.5q-25 14 -48.5 25.5t-39.5 11.5q-41 0 -54.5 -34t-9.5 -79h-151q-7 43 -7 80
z" />
    <glyph glyph-name="uni0304" unicode="&#x304;" 
d="M-2 1624v-207h-604v207h604z" />
    <glyph glyph-name="uni0306" unicode="&#x306;" 
d="M-105.5 1498q-105.5 -91 -263.5 -91q-166 0 -269 95t-112 251h215q2 -68 47.5 -105.5t118.5 -37.5q72 0 115 38t45 105h217q-8 -164 -113.5 -255z" />
    <glyph glyph-name="uni0307" unicode="&#x307;" 
d="M-193 1447q-43 42 -43 105q0 66 43 107t107 41q63 0 105 -41t42 -107q0 -63 -42 -105t-105 -42q-64 0 -107 42z" />
    <glyph glyph-name="uni0308" unicode="&#x308;" 
d="M-633 1447q-43 42 -43 105q0 66 43 107t107 41q63 0 105 -41t42 -107q0 -63 -42 -105t-105 -42q-64 0 -107 42zM-205 1447q-43 42 -43 105q0 66 43 107t107 41q63 0 105 -41t42 -107q0 -63 -42 -105t-105 -42q-64 0 -107 42z" />
    <glyph glyph-name="uni030A" unicode="&#x30a;" 
d="M-391.5 1421q-67.5 39 -102 102.5t-34.5 133.5q0 72 34.5 135t102 102t160.5 39q90 0 157.5 -40t103.5 -103.5t36 -132.5q0 -70 -36 -133.5t-103.5 -102.5t-157.5 -39q-93 0 -160.5 39zM-156.5 1582q29.5 32 29.5 79q0 43 -30.5 73.5t-73.5 30.5q-45 0 -75 -30.5
t-30 -73.5q0 -47 30 -79t75 -32t74.5 32z" />
    <glyph glyph-name="uni030B" unicode="&#x30b;" 
d="M-758 1501l346 365l148 -152l-404 -309zM-326 1501l346 365l146 -152l-402 -309z" />
    <glyph glyph-name="uni030C" unicode="&#x30c;" 
d="M-539 1821l220 -236l219 236l147 -101l-231 -315h-269l-231 315z" />
    <glyph glyph-name="uni0312" unicode="&#x312;" 
d="M43 1627q33 -36 33 -87q0 -59 -40 -97t-104 -38q-68 0 -107.5 48t-39.5 124q0 113 68.5 190.5t205.5 83.5v-61q-78 -12 -116.5 -50t-40.5 -91q16 14 55 14q53 0 86 -36z" />
    <glyph glyph-name="uni0326" unicode="&#x326;" 
d="M-209 -62.5q41 -48.5 41 -123.5q0 -113 -67.5 -191t-206.5 -86v62q76 14 114.5 50t42.5 89q-23 -12 -53 -12q-53 0 -87 35.5t-34 88.5q0 59 40 97.5t104 38.5q65 0 106 -48.5z" />
    <glyph glyph-name="uni0327" unicode="&#x327;" 
d="M-397 -115q74 0 138 -49t64 -153q0 -113 -82.5 -174.5t-199.5 -61.5q-98 0 -174 43v154q23 -23 59.5 -35t75.5 -12q51 0 86 23.5t35 70.5q0 45 -31 68.5t-80 23.5q-12 0 -41 -4l-53 55l141 240h127l-10 -76l-78 -115z" />
    <glyph glyph-name="uni0338" unicode="&#x338;" 
d="M-1022 113l438 686l185 -117l-424 -690z" />
    <glyph glyph-name="uni03A9" unicode="&#x3a9;" horiz-adv-x="1679" 
d="M1482.5 434q-71.5 -125 -204.5 -201h244v-233h-580v315q117 37 189.5 131.5t72.5 223.5q0 150 -96 236.5t-258 86.5q-166 0 -265.5 -92t-99.5 -239q0 -125 71 -219.5t181 -127.5v-315h-583v233h252q-133 76 -203 202t-70 282q0 180 90 321.5t252 220t369 78.5
t368.5 -78.5t251.5 -219t90 -320.5q0 -160 -71.5 -285z" />
    <glyph glyph-name="pi" unicode="&#x3c0;" horiz-adv-x="1515" 
d="M145 1137h1151v-250h-159v-506q0 -80 28.5 -107.5t102.5 -27.5h28v-246q-78 -16 -149 -16q-186 0 -256 90t-70 280v533h-217v-887h-311v887h-148v250z" />
    <glyph glyph-name="uni0E3F" unicode="&#xe3f;" horiz-adv-x="1243" 
d="M1115 558.5q52 -62.5 52 -159.5q0 -184 -142 -291.5t-388 -107.5h-37l-31 -213h-161l30 213h-366l184 1313h365l28 196h162l-29 -196h43q195 0 303.5 -84t108.5 -225q0 -131 -71.5 -223.5t-192.5 -129.5q90 -30 142 -92.5zM851 817q44 45 44 101q0 45 -29.5 80.5
t-95.5 35.5h-225l-37 -262h223q76 0 120 45zM797 318.5q47 39.5 47 101.5q0 49 -36 82t-91 33h-242l-37 -256h242q70 0 117 39.5z" />
    <glyph glyph-name="Wgrave" unicode="&#x1e80;" horiz-adv-x="1986" 
d="M705 1692l147 151l346 -364l-92 -97zM487 1313l113 -785l320 750h364l107 -750l333 785h365l-606 -1313h-324l-117 799l-342 -799h-323l-238 1313h348z" />
    <glyph glyph-name="wgrave" unicode="&#x1e81;" horiz-adv-x="1611" 
d="M477 1309l148 151l346 -364l-92 -97zM432 930l55 -508l209 489h336l55 -512l213 531h347l-461 -930h-307l-64 516l-213 -516h-323l-183 930h336z" />
    <glyph glyph-name="Wacute" unicode="&#x1e82;" horiz-adv-x="1986" 
d="M1016 1481l346 364l147 -151l-403 -310zM487 1313l113 -785l320 750h364l107 -750l333 785h365l-606 -1313h-324l-117 799l-342 -799h-323l-238 1313h348z" />
    <glyph glyph-name="wacute" unicode="&#x1e83;" horiz-adv-x="1611" 
d="M788 1098l347 364l147 -151l-403 -310zM432 930l55 -508l209 489h336l55 -512l213 531h347l-461 -930h-307l-64 516l-213 -516h-323l-183 930h336z" />
    <glyph glyph-name="Wdieresis" unicode="&#x1e84;" horiz-adv-x="1986" 
d="M786 1424q-43 42 -43 106q0 66 43 106.5t107 40.5q63 0 105 -41t42 -106q0 -63 -42 -105.5t-105 -42.5q-64 0 -107 42zM1214 1424q-43 42 -43 106q0 66 43 106.5t107 40.5q63 0 105 -41t42 -106q0 -63 -42 -105.5t-105 -42.5q-64 0 -107 42zM487 1313l113 -785l320 750
h364l107 -750l333 785h365l-606 -1313h-324l-117 799l-342 -799h-323l-238 1313h348z" />
    <glyph glyph-name="wdieresis" unicode="&#x1e85;" horiz-adv-x="1611" 
d="M559 1041q-43 42 -43 106q0 66 43 106.5t107 40.5q63 0 105 -41t42 -106q0 -63 -42 -105.5t-105 -42.5q-64 0 -107 42zM987 1041q-43 42 -43 106q0 66 43 106.5t107 40.5q63 0 105 -41t42 -106q0 -63 -42 -105.5t-105 -42.5q-64 0 -107 42zM432 930l55 -508l209 489h336
l55 -512l213 531h347l-461 -930h-307l-64 516l-213 -516h-323l-183 930h336z" />
    <glyph glyph-name="Ygrave" unicode="&#x1ef2;" horiz-adv-x="1325" 
d="M387 1692l148 151l346 -364l-93 -97zM500 1313l198 -484l336 484h393l-591 -811l-72 -502h-334l72 504l-367 809h365z" />
    <glyph glyph-name="ygrave" unicode="&#x1ef3;" horiz-adv-x="1136" 
d="M238 1309l147 151l346 -364l-92 -97zM1182 930l-582 -1071q-45 -84 -98 -150.5t-147.5 -119t-229.5 -52.5q-82 0 -195 25l41 258q78 -14 138 -15q92 0 134 37t76 107l25 49l-258 932h332l123 -565l293 565h348z" />
    <glyph glyph-name="endash" unicode="&#x2013;" horiz-adv-x="1927" 
d="M1804 637l-41 -279h-1630l41 279h1630z" />
    <glyph glyph-name="emdash" unicode="&#x2014;" horiz-adv-x="2398" 
d="M2275 637l-41 -279h-2101l41 279h2101z" />
    <glyph glyph-name="quoteleft" unicode="&#x2018;" horiz-adv-x="550" 
d="M218 1140.5q52 73.5 142.5 109.5t198.5 30v-72q-88 2 -150.5 -35.5t-76.5 -103.5q18 6 37 6q63 0 108 -43t45 -108q0 -72 -49 -119t-123 -47q-82 0 -133 57t-51 154q0 98 52 171.5z" />
    <glyph glyph-name="quoteright" unicode="&#x2019;" horiz-adv-x="550" 
d="M495.5 1265.5q51.5 -57.5 51.5 -153.5q0 -98 -52.5 -172t-142.5 -109.5t-198 -29.5v71q88 -2 150.5 36t76.5 104q-18 -6 -37 -6q-63 0 -108.5 43t-45.5 108q0 72 49.5 119t122.5 47q82 0 133.5 -57.5z" />
    <glyph glyph-name="quotesinglbase" unicode="&#x201a;" horiz-adv-x="581" 
d="M395 274l-332 -565h-157l174 565h315z" />
    <glyph glyph-name="quotedblleft" unicode="&#x201c;" horiz-adv-x="995" 
d="M218 1140.5q52 73.5 142.5 109.5t198.5 30v-72q-88 2 -150.5 -35.5t-76.5 -103.5q18 6 37 6q63 0 108 -43t45 -108q0 -72 -49 -119t-123 -47q-82 0 -133 57t-51 154q0 98 52 171.5zM662.5 1140.5q52.5 73.5 142.5 109.5t199 30v-72q-88 2 -150.5 -35.5t-77.5 -103.5
q18 6 37 6q63 0 108.5 -43t45.5 -108q0 -72 -49.5 -119t-122.5 -47q-82 0 -133.5 57t-51.5 154q0 98 52.5 171.5z" />
    <glyph glyph-name="quotedblright" unicode="&#x201d;" horiz-adv-x="995" 
d="M495.5 1265.5q51.5 -57.5 51.5 -153.5q0 -98 -52.5 -172t-142.5 -109.5t-198 -29.5v71q88 -2 150.5 36t76.5 104q-18 -6 -37 -6q-63 0 -108.5 43t-45.5 108q0 72 49.5 119t122.5 47q82 0 133.5 -57.5zM940 1265.5q51 -57.5 51 -153.5q0 -98 -52 -172t-142 -109.5
t-199 -29.5v71q88 -2 150.5 36t76.5 104q-18 -6 -37 -6q-63 0 -108 43t-45 108q0 72 49 119t123 47q82 0 133 -57.5z" />
    <glyph glyph-name="quotedblbase" unicode="&#x201e;" horiz-adv-x="991" 
d="M418 274l-232 -565h-260l197 565h295zM862 274l-272 -565h-260l237 565h295z" />
    <glyph glyph-name="dagger" unicode="&#x2020;" horiz-adv-x="878" 
d="M805 535h-266l-41 -293h-179l41 293h-268l25 165h268l86 613h178l-86 -613h266z" />
    <glyph glyph-name="daggerdbl" unicode="&#x2021;" horiz-adv-x="794" 
d="M549 897l-29 -197h205l-25 -174h-202l-35 -243h-178l34 243h-208l24 174h207l29 197h-207l22 170h207l35 246h178l-35 -246h205l-22 -170h-205z" />
    <glyph glyph-name="bullet" unicode="&#x2022;" horiz-adv-x="1103" 
d="M361.5 212q-93.5 52 -147.5 143t-54 202q0 113 54 205t147.5 146.5t205.5 54.5q115 0 206 -54.5t143.5 -146.5t52.5 -205q0 -111 -52.5 -202t-143.5 -143t-206 -52q-112 0 -205.5 52z" />
    <glyph glyph-name="ellipsis" unicode="&#x2026;" horiz-adv-x="1656" 
d="M106.5 19.5q-47.5 46.5 -47.5 115.5q0 82 58.5 139.5t142.5 57.5q74 0 123 -48t49 -120q0 -80 -57.5 -135.5t-145.5 -55.5q-75 0 -122.5 46.5zM643 19.5q-47 46.5 -47 115.5q0 82 58.5 139.5t142.5 57.5q74 0 123 -48t49 -120q0 -80 -57.5 -135.5t-145.5 -55.5
q-76 0 -123 46.5zM1182 19.5q-47 46.5 -47 115.5q0 82 58 139.5t142 57.5q74 0 123 -48t49 -120q0 -80 -57 -135.5t-145 -55.5q-76 0 -123 46.5z" />
    <glyph glyph-name="perthousand" unicode="&#x2030;" horiz-adv-x="2287" 
d="M260 886q-88 83 -88 214q0 90 44 160.5t119 110.5t167 40q135 0 223 -83t88 -214q0 -90 -44 -160.5t-119 -110.5t-167 -40q-135 0 -223 83zM1327 1376h219l-1237 -1376h-219zM571.5 1025q32.5 32 32.5 83q0 49 -30.5 81t-75.5 32q-51 0 -84 -32t-33 -83t29.5 -82
t76.5 -31q52 0 84.5 32zM909 56q-88 83 -88 214q0 90 44 161t119 111t167 40q135 0 223 -83t88 -214q0 -90 -44 -161t-118.5 -111t-166.5 -40q-136 0 -224 83zM1626 56q-88 83 -88 214q0 90 44 161t119 111t167 40q135 0 223 -83t88 -214q0 -90 -44 -161t-118.5 -111
t-167.5 -40q-135 0 -223 83zM1220.5 195.5q32.5 31.5 32.5 83.5q0 49 -30.5 80.5t-75.5 31.5q-51 0 -84 -31.5t-33 -83.5q0 -51 30 -81.5t77 -30.5q51 0 83.5 31.5zM1937.5 195.5q32.5 31.5 32.5 83.5q0 49 -30.5 80.5t-75.5 31.5q-51 0 -84 -31.5t-33 -83.5
q0 -51 29.5 -81.5t76.5 -30.5q52 0 84.5 31.5z" />
    <glyph glyph-name="minute" unicode="&#x2032;" horiz-adv-x="440" 
d="M208 1295q44 46 114 46q68 0 111.5 -46t43.5 -117q0 -20 -6 -45l-109 -502h-86l-106 497q-6 37 -6 50q0 71 44 117z" />
    <glyph glyph-name="guilsinglleft" unicode="&#x2039;" horiz-adv-x="739" 
d="M473 465l168 -395h-350l-168 395l278 393h351z" />
    <glyph glyph-name="guilsinglright" unicode="&#x203a;" horiz-adv-x="739" 
d="M616 465l-278 -395h-350l278 395l-168 393h351z" />
    <glyph glyph-name="uni2042" unicode="&#x2042;" horiz-adv-x="1884" 
d="M997 1073q16 -78 17 -143v-137h-144v137q0 66 17 143q-49 -45 -117 -86l-117 -67l-71 124l116 68q55 31 133 57q-76 20 -133 56l-116 69l71 123l117 -67q68 -37 117 -86q-16 78 -17 145v135h144v-135q0 -68 -17 -145q49 49 117 86l117 67l72 -123l-117 -69
q-57 -35 -133 -56q78 -27 133 -57l117 -68l-72 -124l-117 67q-68 41 -117 86zM694 406q-57 -35 -133 -56q78 -27 133 -57l117 -68l-72 -125l-116 68q-68 41 -117 86q16 -78 16 -143v-138h-143v138q0 66 16 143q-49 -45 -116 -86l-117 -68l-72 125l117 68q55 31 133 57
q-76 20 -133 56l-117 69l72 123l117 -68q68 -37 116 -86q-16 78 -16 146v135h143v-135q0 -68 -16 -146q49 49 117 86l116 68l72 -123zM1677 293l117 -68l-72 -125l-116 68q-68 41 -117 86q16 -78 16 -143v-138h-143v138q0 66 16 143q-49 -45 -116 -86l-117 -68l-72 125
l117 68q55 31 133 57q-76 20 -133 56l-117 69l72 123l117 -68q68 -37 116 -86q-16 78 -16 146v135h143v-135q0 -68 -16 -146q49 49 117 86l116 68l72 -123l-117 -69q-57 -35 -133 -56q78 -26 133 -57z" />
    <glyph glyph-name="fraction" unicode="&#x2044;" horiz-adv-x="1208" 
d="M20 80l1104 1263l119 -102l-1104 -1261z" />
    <glyph glyph-name="uni2070" unicode="&#x2070;" horiz-adv-x="882" 
d="M204 554q-89 99 -89 261q0 168 60.5 303t165.5 213t239 78q143 0 232 -100.5t89 -264.5q0 -166 -60.5 -300t-167 -211.5t-237.5 -77.5q-143 0 -232 99zM562 718q42 48 66.5 131t24.5 185q0 158 -104 158q-53 0 -95 -47t-67 -130t-25 -184q0 -162 107 -161q51 0 93 48z
" />
    <glyph glyph-name="uni2074" unicode="&#x2074;" horiz-adv-x="847" 
d="M860 848l-26 -201h-121l-25 -176h-237l26 176h-409l24 180l436 564h289l-76 -543h119zM504 848l31 217l-168 -217h137z" />
    <glyph glyph-name="uni2075" unicode="&#x2075;" horiz-adv-x="884" 
d="M772 1018q82 -84 82 -219q0 -152 -105.5 -246t-275.5 -94q-164 0 -259 88t-95 233h239q0 -47 32 -77.5t83 -30.5q57 0 95 33.5t38 89.5q0 49 -32.5 78.5t-84.5 29.5q-33 0 -63.5 -12t-50.5 -33l-232 21l191 512h532l-30 -209h-347l-43 -103q55 23 119 23q125 0 207 -84z
" />
    <glyph glyph-name="uni2076" unicode="&#x2076;" horiz-adv-x="901" 
d="M788 1013q86 -85 86 -220q0 -96 -55 -173t-150.5 -120t-207.5 -43q-162 0 -254 83t-92 222q0 94 41 163.5t123 161.5l34 37l232 267h262l-248 -293h16q127 0 213 -85zM587 702.5q38 30.5 38 83.5q0 49 -35 81t-88 32q-55 0 -96 -32.5t-41 -86.5q0 -49 35.5 -78.5
t91.5 -29.5q57 0 95 30.5z" />
    <glyph glyph-name="uni2077" unicode="&#x2077;" horiz-adv-x="704" 
d="M813 1391l-27 -189l-442 -731h-258l432 711h-395l31 209h659z" />
    <glyph glyph-name="uni2078" unicode="&#x2078;" horiz-adv-x="827" 
d="M786.5 896q24.5 -44 24.5 -101q0 -96 -52 -173t-143.5 -120t-205.5 -43q-139 0 -226.5 65.5t-87.5 180.5q0 84 42 154.5t110 103.5q-31 27 -48.5 67.5t-17.5 85.5q0 78 49.5 145.5t134.5 107.5t185 40q131 0 211 -63.5t80 -163.5q0 -68 -36 -126.5t-89 -92.5
q45 -23 69.5 -67zM563 1074.5q33 25.5 33 62.5q0 27 -21.5 45t-56.5 18q-39 0 -68.5 -25.5t-29.5 -60.5q0 -31 23.5 -48t52.5 -17q34 0 67 25.5zM527.5 701.5q35.5 29.5 35.5 74.5q0 33 -24.5 54.5t-67.5 21.5q-53 0 -90 -29.5t-37 -74.5q0 -33 26.5 -54.5t67.5 -21.5
q54 0 89.5 29.5z" />
    <glyph glyph-name="uni2079" unicode="&#x2079;" horiz-adv-x="901" 
d="M820.5 1322q97.5 -85 97.5 -224q0 -76 -28 -138.5t-59.5 -101.5t-113.5 -131l-230 -256h-266l260 289h-26q-80 0 -148.5 37t-109.5 103.5t-41 152.5q0 100 54 181t148.5 127t208.5 46q156 0 253.5 -85zM437 991.5q34 -28.5 85 -28.5q61 0 102.5 34.5t41.5 89.5
q0 45 -33 73t-86 28q-61 0 -102.5 -34t-41.5 -89q0 -45 34 -73.5z" />
    <glyph glyph-name="uni2080" unicode="&#x2080;" horiz-adv-x="884" 
d="M138 83q-89 99 -89 261q0 168 60.5 303t166 213t238.5 78q143 0 232.5 -100.5t89.5 -264.5q0 -166 -60.5 -300t-167 -211.5t-237.5 -77.5q-144 0 -233 99zM497 247q42 48 66.5 131t24.5 185q0 158 -105 158q-53 0 -95 -47t-66.5 -130t-24.5 -184q0 -162 106 -161
q52 0 94 48z" />
    <glyph glyph-name="uni2081" unicode="&#x2081;" horiz-adv-x="688" 
d="M100 743q141 0 211 45.5t97 131.5h217l-129 -920h-244l78 559h-256z" />
    <glyph glyph-name="uni2082" unicode="&#x2082;" horiz-adv-x="817" 
d="M444 215h261l-31 -215h-629l25 170l379 336q33 31 54 59.5t21 71.5q0 37 -22.5 59.5t-63.5 22.5q-47 0 -75.5 -28.5t-32.5 -76.5h-238q14 145 114.5 234.5t248.5 89.5q143 0 231 -73.5t88 -194.5q0 -162 -164 -308z" />
    <glyph glyph-name="uni2083" unicode="&#x2083;" horiz-adv-x="833" 
d="M754 731l-191 -166q86 -25 136.5 -89t50.5 -161q0 -90 -47.5 -165.5t-132.5 -119.5t-195 -44q-158 0 -251 89t-85 234h240q0 -49 30.5 -78.5t81.5 -29.5t84 28.5t33 75.5q0 45 -29.5 73t-89.5 28h-149l20 157l170 148h-285l29 209h606z" />
    <glyph glyph-name="uni2084" unicode="&#x2084;" horiz-adv-x="849" 
d="M795 377l-27 -201h-121l-24 -176h-238l27 176h-410l25 180l436 564h289l-76 -543h119zM438 377l31 217l-168 -217h137z" />
    <glyph glyph-name="uni2085" unicode="&#x2085;" horiz-adv-x="882" 
d="M704.5 547q81.5 -84 81.5 -219q0 -152 -105.5 -246t-274.5 -94q-164 0 -259.5 88t-95.5 233h240q0 -47 31.5 -77.5t83.5 -30.5q57 0 95 33.5t38 89.5q0 49 -33 78.5t-84 29.5q-33 0 -63.5 -12t-51.5 -33l-231 21l190 512h533l-31 -209h-346l-43 -103q55 23 119 23
q125 0 206.5 -84z" />
    <glyph glyph-name="uni2086" unicode="&#x2086;" horiz-adv-x="901" 
d="M723 542q86 -85 86 -220q0 -96 -55.5 -173t-150.5 -120t-208 -43q-162 0 -254 83t-92 222q0 94 41 163.5t123 161.5l35 37l231 267h262l-247 -293h16q127 0 213 -85zM521 231.5q38 30.5 38 83.5q0 49 -35 81t-88 32q-55 0 -96 -33t-41 -86q0 -49 36 -78.5t91 -29.5
q57 0 95 30.5z" />
    <glyph glyph-name="uni2087" unicode="&#x2087;" horiz-adv-x="706" 
d="M748 920l-27 -189l-442 -731h-259l433 711h-396l31 209h660z" />
    <glyph glyph-name="uni2088" unicode="&#x2088;" horiz-adv-x="827" 
d="M720.5 425q24.5 -44 24.5 -101q0 -96 -52 -173t-143 -120t-206 -43q-139 0 -226 65.5t-87 179.5q0 84 42 155t109 104q-31 27 -48 67.5t-17 85.5q0 78 49 145.5t134 107.5t185 40q131 0 211 -63.5t80 -163.5q0 -68 -35.5 -126.5t-89.5 -92.5q45 -23 69.5 -67z
M497.5 603.5q32.5 25.5 32.5 62.5q0 27 -21.5 45t-55.5 18q-39 0 -69 -25.5t-30 -60.5q0 -31 23.5 -48t52.5 -17q35 0 67.5 25.5zM462 230.5q36 29.5 36 74.5q0 33 -24.5 54.5t-67.5 21.5q-53 0 -90 -29.5t-37 -75.5q0 -33 26.5 -54t67.5 -21q53 0 89 29.5z" />
    <glyph glyph-name="uni2089" unicode="&#x2089;" horiz-adv-x="903" 
d="M754.5 851q97.5 -85 97.5 -224q0 -76 -27.5 -138.5t-59.5 -101.5t-114 -131l-229 -256h-266l260 289h-27q-80 0 -148.5 36.5t-109.5 103.5t-41 153q0 100 54.5 181t148.5 127t209 46q155 0 252.5 -85zM372 520.5q34 -28.5 85 -28.5q61 0 102 34.5t41 89.5q0 45 -32.5 73
t-86.5 28q-61 0 -102 -34t-41 -89q0 -45 34 -73.5z" />
    <glyph glyph-name="uni20AA" unicode="&#x20aa;" horiz-adv-x="1564" 
d="M270 1405h570q172 0 248.5 -83t76.5 -239q0 -51 -10 -122l-74 -521h-252l74 531q4 37 4 49q0 84 -48 116.5t-142 32.5h-230l-163 -1169h-250zM544 83q-77 83 -77 239q0 51 10 122l74 521h252l-74 -531q-4 -37 -4 -49q0 -84 48 -116.5t142 -32.5h230l164 1169h250
l-197 -1405h-569q-172 0 -249 83z" />
    <glyph glyph-name="Euro" unicode="&#x20ac;" horiz-adv-x="1370" 
d="M639 920h395l-37 -215h-434q-2 -14 -2 -46q0 -33 2 -47h416l-37 -215h-303q109 -143 365 -143q109 0 190 25v-279q-98 -27 -217 -27q-252 0 -427 112t-243 312h-153v215h112v41q0 35 2 52h-114v215h155q70 199 240 311t407 112q78 0 150 -10t88 -18v-279q-74 25 -184 25
q-258 0 -371 -141z" />
    <glyph glyph-name="uni20B9" unicode="&#x20b9;" horiz-adv-x="1288" 
d="M1255 1085h-264q25 -45 31 -102h219l-33 -227h-213q-88 -252 -352 -305l231 -451h-382l-259 502l23 164h188q174 0 224 90h-404l33 227h403q-16 102 -196 102h-189l33 228h940z" />
    <glyph glyph-name="uni2116" unicode="&#x2116;" horiz-adv-x="2578" 
d="M1594.5 1110.5q64.5 106.5 179 167.5t260.5 61q193 0 312.5 -108.5t119.5 -290.5q0 -131 -64.5 -237.5t-179.5 -168t-260 -61.5q-193 0 -312.5 108.5t-119.5 290.5q0 132 64.5 238.5zM289 1313h276l482 -848l118 848h275l-185 -1313h-274l-481 850l-119 -850h-277z
M1854.5 769q48.5 -46 127.5 -46q88 0 147.5 55.5t59.5 141.5q0 78 -48 124t-128 46q-88 0 -147.5 -55.5t-59.5 -141.5q0 -78 48.5 -124zM1604 358h649l-33 -221h-649z" />
    <glyph glyph-name="uni2117" unicode="&#x2117;" horiz-adv-x="1378" 
d="M1000.5 1156q123.5 -71 194.5 -193.5t71 -274.5q0 -150 -71 -272.5t-194.5 -193t-277.5 -70.5t-279 70.5t-196.5 192.5t-71.5 273q0 152 71.5 274.5t196.5 193.5t279 71t277.5 -71zM929 339q91 52 142 144t51 205q0 115 -51 207t-142 144.5t-206 52.5q-117 0 -208 -52.5
t-143.5 -144.5t-52.5 -207q0 -113 52.5 -205t144.5 -144t207 -52t206 52zM926 881q49 -45 49 -119q0 -76 -49 -121t-129 -45h-117v-170h-133v500h250q80 0 129 -45zM820.5 716.5q17.5 16.5 17.5 45.5t-18.5 43t-49.5 14h-90v-119h90q33 0 50.5 16.5z" />
    <glyph glyph-name="trademark" unicode="&#x2122;" horiz-adv-x="1720" 
d="M184 1405h627l-23 -166h-204l-88 -633h-205l88 633h-217zM895 1405h231l105 -559l260 559h244l-111 -799h-205l15 109q25 174 61 309l-197 -395h-184l-86 395q0 -141 -24 -309l-15 -109h-205z" />
    <glyph glyph-name="estimated" unicode="&#x212e;" horiz-adv-x="1531" 
d="M391 586v-275q63 -106 177 -160.5t253 -54.5q121 0 228.5 52.5t160.5 136.5h166q-82 -147 -224 -229.5t-339 -82.5q-201 0 -347.5 85t-223 239t-76.5 358q0 213 81 369t227.5 236.5t334.5 80.5q268 0 430 -159.5t180 -438.5q2 -25 2 -67q0 -37 -2 -60.5t-2 -29.5h-1026z
M584.5 1158q-101.5 -48 -172.5 -138v-307h766v338q-68 74 -162 114.5t-205 40.5q-125 0 -226.5 -48z" />
    <glyph glyph-name="oneeighth" unicode="&#x215b;" horiz-adv-x="1701" 
d="M1622 396q23 -40 23 -93q0 -90 -50 -162q-49 -72 -134 -112q-85 -41 -191 -41q-133 0 -213 61t-80 168q0 78 38 143q38 66 101 97q-29 25 -45 62q-16 38 -16 79q0 74 47 136t126 100q79 37 173 36q123 0 196 -59q74 -59 74 -149q0 -63 -33 -118q-33 -54 -79 -87
q40 -21 63 -61zM1408 562q30 24 30 54q0 25 -20 39q-19 14 -48 15q-35 0 -60 -23q-26 -23 -26 -53q0 -25 21 -40q20 -15 45 -15q28 -1 58 23zM1375 219q32 27 32 66q0 29 -22 47t-60 18q-45 0 -78 -26q-33 -27 -33 -66q0 -29 23 -47t59 -18q47 -1 79 26zM233 80l1104 1263
l119 -102l-1104 -1261zM133 1147q135 0 201 43t90 123h207l-121 -854h-234l74 512h-241z" />
    <glyph glyph-name="threeeighths" unicode="&#x215c;" horiz-adv-x="1777" 
d="M1698 396q23 -40 22 -93q0 -90 -49 -162t-134 -112q-85 -41 -191 -41q-133 0 -213 61t-80 168q0 78 38 143q38 66 101 97q-29 25 -45 62q-16 38 -17 79q0 74 48 136q47 62 126 100q79 37 173 36q123 0 196 -59q74 -59 74 -149q0 -63 -33 -118q-33 -54 -80 -87
q41 -21 64 -61zM1484 562q30 24 29 54q0 25 -19 39t-48 15q-35 0 -61 -23t-25 -53q0 -25 20 -40t45 -15q29 -1 59 23zM1451 219q32 27 32 66q0 29 -22 47t-60 18q-45 0 -78 -26q-33 -27 -33 -66q0 -29 23 -47t59 -18q47 -1 79 26zM309 80l1104 1263l119 -102l-1104 -1261z
M737 1133l-170 -148q80 -23 125 -84t45 -147t-44 -157t-125 -112t-183 -41q-147 0 -234 83t-79 221h229q0 -43 28 -70t72 -27q47 0 75 26t28 66q0 88 -105 88h-143l20 152l150 129h-258l29 201h565z" />
    <glyph glyph-name="fiveeighths" unicode="&#x215d;" horiz-adv-x="1816" 
d="M1737 396q23 -40 22 -93q0 -90 -49 -162t-134 -112q-85 -41 -192 -41q-133 0 -213 61t-79 168q0 78 37 143q38 66 102 97q-29 25 -45 62q-16 38 -17 79q0 74 48 136q47 62 125 100q79 37 174 36q123 0 196 -59q74 -59 74 -149q0 -63 -33 -118q-33 -54 -80 -87
q41 -21 64 -61zM1523 562q30 24 29 54q0 25 -19 39t-48 15q-35 0 -61 -23t-25 -53q0 -25 20 -40t45 -15q29 -1 59 23zM1490 219q32 27 32 66q0 29 -22 47t-60 18q-45 0 -78 -26q-33 -27 -33 -66q0 -29 23 -47t59 -18q47 -1 79 26zM348 80l1104 1263l119 -102l-1104 -1261z
M693 968q77 -79 77 -204q0 -139 -98 -228t-256 -90q-154 0 -244 82t-90 220h229q0 -41 29 -68t74 -27q51 0 85 30t33 77q0 43 -29 69q-30 27 -75 27q-63 0 -102 -39l-222 21l179 475h497l-28 -201h-322l-37 -86q51 20 109 21q114 0 191 -79z" />
    <glyph glyph-name="uni2160" unicode="&#x2160;" horiz-adv-x="1009" 
d="M750 1036l-107 -760h256l-39 -276h-840l39 276h260l107 760h-260l39 277h839l-38 -277h-256z" />
    <glyph glyph-name="uni2161" unicode="&#x2161;" horiz-adv-x="1624" 
d="M59 276h277l106 760h-276l39 277h1456l-39 -277h-274l-107 -760h275l-39 -276h-1457zM918 276l106 760h-258l-107 -760h259z" />
    <glyph glyph-name="uni2162" unicode="&#x2162;" horiz-adv-x="2185" 
d="M59 276h277l106 760h-276l39 277h2017l-39 -277h-274l-107 -760h275l-39 -276h-2018zM907 276l107 760h-248l-107 -760h248zM1479 276l106 760h-248l-106 -760h248z" />
    <glyph glyph-name="uni2163" unicode="&#x2163;" horiz-adv-x="2205" 
d="M18 0l39 276h271l106 760h-270l39 277h2040l-39 -277h-213l-355 -760h461l-39 -276h-2040zM1059 276l-146 760h-155l-107 -760h408zM1253 1036l113 -661l295 661h-408z" />
    <glyph glyph-name="uni2164" unicode="&#x2164;" horiz-adv-x="1658" 
d="M1444 1036l-352 -760h456l-39 -276h-1489l39 276h455l-145 760h-203l39 277h1491l-39 -277h-213zM692 1036l113 -661l295 661h-408z" />
    <glyph glyph-name="uni2165" unicode="&#x2165;" horiz-adv-x="2195" 
d="M18 0l39 276h455l-145 760h-203l39 277h2027l-39 -277h-272l-107 -760h273l-39 -276h-2028zM690 1036l113 -661l295 661h-408zM1489 276l106 760h-151l-352 -760h397z" />
    <glyph glyph-name="uni2166" unicode="&#x2166;" horiz-adv-x="2758" 
d="M18 0l39 276h455l-145 760h-203l39 277h2590l-38 -277h-273l-106 -760h272l-39 -276h-2591zM690 1036l113 -661l295 661h-408zM1489 276l106 760h-151l-352 -760h397zM1919 1036l-107 -760h240l107 760h-240z" />
    <glyph glyph-name="uni2167" unicode="&#x2167;" horiz-adv-x="3315" 
d="M57 276h455l-145 760h-203l39 277h3148l-39 -277h-271l-106 -760h272l-39 -276h-3150zM1098 1036h-408l113 -661zM1491 276l106 760h-155l-352 -760h401zM2050 276l107 760h-236l-106 -760h235zM2611 276l107 760h-238l-106 -760h237z" />
    <glyph glyph-name="uni2168" unicode="&#x2168;" horiz-adv-x="2152" 
d="M18 0l39 276h271l106 760h-270l39 277h1986l-39 -277h-211l-350 -387l240 -373h215l-39 -276h-1987zM758 1036l-107 -760h164l348 375l-245 385h-160zM1546 1036h-256l103 -170zM1456 276l-102 156l-148 -156h250z" />
    <glyph glyph-name="uni2169" unicode="&#x2169;" horiz-adv-x="1609" 
d="M1397 1036l-350 -387l239 -373h215l-39 -276h-1442l39 276h213l349 375l-246 385h-209l39 277h1442l-39 -277h-211zM1006 1036h-256l104 -164zM913 276l-102 156l-145 -156h247z" />
    <glyph glyph-name="uni216C" unicode="&#x216c;" horiz-adv-x="1351" 
d="M20 0l39 276h228l106 760h-227l39 277h796l-38 -277h-246l-107 -760h328l47 332h305l-86 -608h-1184z" />
    <glyph glyph-name="uni216D" unicode="&#x216d;" horiz-adv-x="1546" 
d="M640 1003.5q-91 -55.5 -142.5 -153.5t-51.5 -223q0 -170 92.5 -270.5t245.5 -100.5q131 0 230.5 70.5t130.5 183.5h315l-71 -510h-295l16 119q-66 -68 -172.5 -107t-230.5 -39q-176 0 -310.5 79t-208 223.5t-73.5 332.5q0 211 91 378t255 261t370 94q137 0 249 -42
t182 -119l16 133h295l-72 -508h-315q-18 115 -110.5 184.5t-223.5 69.5q-121 0 -212 -55.5z" />
    <glyph glyph-name="uni216E" unicode="&#x216e;" horiz-adv-x="1536" 
d="M1191 1237q138 -76 214 -213t76 -317q0 -209 -95.5 -370t-269.5 -249t-401 -88h-695l39 276h240l107 760h-240l39 277h667q181 0 319 -76zM950.5 329.5q96.5 53.5 148.5 152t52 225.5q0 156 -86 242.5t-231 86.5h-105l-106 -760h106q125 0 221.5 53.5z" />
    <glyph glyph-name="uni216F" unicode="&#x216f;" horiz-adv-x="2134" 
d="M59 276h228l106 760h-227l39 277h639l221 -817l432 817h672l-39 -277h-225l-107 -760h225l-38 -276h-699l39 276h152l77 549l-436 -807h-233l-209 799l-76 -541h137l-39 -276h-678z" />
    <glyph glyph-name="arrowleft" unicode="&#x2190;" horiz-adv-x="2033" 
d="M1860 422h-1258l412 -506h-330l-506 621l508 624h328l-412 -508l1258 -2v-229z" />
    <glyph glyph-name="arrowup" unicode="&#x2191;" horiz-adv-x="1511" 
d="M1436 723l-508 416v-1299h-232v1297l-503 -414v313l618 504l625 -510v-307z" />
    <glyph glyph-name="arrowright" unicode="&#x2192;" horiz-adv-x="2033" 
d="M1876 537l-506 -621h-330l414 506h-1259v229l1259 2l-414 508h328z" />
    <glyph glyph-name="arrowdown" unicode="&#x2193;" horiz-adv-x="1511" 
d="M1368 553v-305l-625 -512l-618 506v311l504 -414v1295h231v-1297z" />
    <glyph glyph-name="arrowboth" unicode="&#x2194;" horiz-adv-x="2422" 
d="M686 1161h328l-412 -508h1241l-411 508h325l508 -624l-506 -621h-327l411 506h-1241l412 -506h-330l-506 621z" />
    <glyph glyph-name="arrowupdn" unicode="&#x2195;" horiz-adv-x="1734" 
d="M254 328l508 -412v1241l-508 -412v330l620 506l627 -508v-328l-508 412v-1241l508 412v-326l-627 -508l-620 506v328z" />
    <glyph glyph-name="carriagereturn" unicode="&#x21b5;" horiz-adv-x="1521" 
d="M1419 1257v-864h-860v-309l-493 422l493 424v-307h633l-2 634h229z" />
    <glyph glyph-name="uni21BA" unicode="&#x21ba;" horiz-adv-x="1945" 
d="M559 58q-160 85 -255 241t-95 360q0 201 93 356.5t256 240.5t366 85q109 0 207 -22.5t159 -61.5l-76 -176q-57 31 -132.5 49.5t-157.5 18.5q-141 0 -256 -61.5t-181.5 -173t-66.5 -255.5q0 -143 63.5 -254.5t175 -173t250.5 -61.5q143 0 255 59.5t175.5 168t63.5 247.5
h-277l363 420l362 -420h-247q0 -201 -90.5 -353.5t-248 -235.5t-354.5 -83q-192 0 -352 85z" />
    <glyph glyph-name="uni21BB" unicode="&#x21bb;" horiz-adv-x="1939" 
d="M723 56q-156 83 -244 235.5t-88 353.5h-248l363 420l362 -420h-276q0 -141 61.5 -248.5t172 -167t251.5 -59.5q143 0 256 61.5t177.5 173t64.5 254.5t-66.5 255t-181.5 173.5t-256 61.5q-82 0 -157.5 -18.5t-133.5 -49.5l-75 176q61 39 159.5 61.5t206.5 22.5
q203 0 365.5 -85t256 -240.5t93.5 -356.5q0 -205 -95.5 -361.5t-258 -240.5t-357.5 -84q-196 0 -352 83z" />
    <glyph glyph-name="partialdiff" unicode="&#x2202;" horiz-adv-x="1232" 
d="M1006.5 1022q72.5 -133 114.5 -256t42 -240q0 -164 -70.5 -289.5t-196.5 -194.5t-288 -69q-154 0 -275.5 61.5t-189 174.5t-67.5 258q0 143 65.5 256t180 175.5t256.5 62.5q78 0 155 -25q-143 266 -266 469h319q148 -250 220.5 -383zM774.5 319.5q63.5 61.5 63.5 153.5
t-64.5 154.5t-157.5 62.5q-92 0 -152.5 -61.5t-60.5 -155.5q0 -92 60.5 -153.5t152.5 -61.5q95 0 158.5 61.5z" />
    <glyph glyph-name="emptyset" unicode="&#x2205;" horiz-adv-x="1531" 
d="M1172.5 1260.5q150.5 -80.5 234.5 -228t84 -340.5q0 -203 -93 -366.5t-261 -258t-381 -94.5q-195 0 -345.5 81t-234.5 228.5t-84 340.5q0 203 93.5 366.5t261 257.5t380.5 94q195 0 345.5 -80.5zM625 984q-84 -50 -132.5 -140t-48.5 -207q0 -51 11 -102l563 432
q-84 68 -205 67q-104 0 -188 -50zM958 331q84 50 132.5 140t48.5 207q0 49 -11 100l-561 -432q86 -66 203 -65q104 0 188 50z" />
    <glyph glyph-name="Delta" unicode="&#x2206;" horiz-adv-x="1388" 
d="M1212 266v-266h-1130v266l420 1047h291zM373 266h549l-275 666z" />
    <glyph glyph-name="product" unicode="&#x220f;" horiz-adv-x="1374" 
d="M1114 393q-2 -12 -2 -35q0 -53 24.5 -74.5t73.5 -21.5q37 0 58 4l-37 -266q-102 -23 -178 -23q-133 0 -203 64.5t-70 191.5q0 37 6 76l88 621h-221l-131 -930h-317l131 930h-166l41 297h1192l-41 -297h-172z" />
    <glyph glyph-name="summation" unicode="&#x2211;" horiz-adv-x="1150" 
d="M1128 977h-532l289 -311l-387 -332h540l-47 -334h-954l47 332l416 334l-324 319l45 328h955z" />
    <glyph glyph-name="minus" unicode="&#x2212;" horiz-adv-x="1048" 
d="M934 762l-37 -262h-737l37 262h737z" />
    <glyph glyph-name="radical" unicode="&#x221a;" horiz-adv-x="1492" 
d="M1788 1751v-266h-518l-588 -1485h-287l-329 928h278l199 -584l536 1407h709z" />
    <glyph glyph-name="infinity" unicode="&#x221e;" horiz-adv-x="1738" 
d="M140.5 751.5q56.5 96.5 152.5 153t209 56.5q123 0 214 -44.5t165 -160.5q74 115 164 160t215 45q113 0 208 -56.5t151 -153t56 -210.5q0 -115 -56 -211.5t-151.5 -151.5t-207.5 -55q-125 0 -215.5 45t-163.5 160q-74 -117 -165 -161t-214 -44q-113 0 -209 56.5
t-152.5 151.5t-56.5 210q0 114 56.5 210.5zM410 445.5q39 -39.5 88 -39.5q55 0 111.5 28.5t78.5 106.5q-23 78 -77 107.5t-113 29.5q-51 0 -89 -39t-38 -98q0 -56 39 -95.5zM1149 435.5q55 -29.5 115 -29.5q49 0 89 38.5t40 96.5q0 57 -40 97t-89 40q-59 0 -114.5 -30
t-78.5 -107q23 -76 78 -105.5z" />
    <glyph glyph-name="integral" unicode="&#x222b;" horiz-adv-x="946" 
d="M31 276h127q72 0 105.5 37t41.5 101l74 516q29 205 145.5 294t315.5 89h168l-39 -277h-127q-72 0 -106 -36.5t-42 -100.5l-73 -516q-29 -207 -147 -295t-314 -88h-168z" />
    <glyph glyph-name="approxequal" unicode="&#x2248;" horiz-adv-x="937" 
d="M868 846q2 -16 2 -45q0 -131 -69.5 -204t-171.5 -73q-61 0 -107.5 23.5t-101.5 66.5q-39 31 -63.5 45.5t-51.5 14.5q-29 0 -47 -20.5t-18 -63.5q0 -18 2 -31h-160q-2 16 -2 45q0 125 68.5 199t170.5 74q59 0 103.5 -24t101.5 -67q37 -33 64.5 -48t56.5 -15q66 0 66 86
q0 23 -2 37h159zM868 436q2 -16 2 -45q0 -131 -69.5 -203.5t-171.5 -72.5q-61 0 -107.5 23.5t-101.5 66.5q-39 31 -63.5 45t-51.5 14q-29 0 -47 -20.5t-18 -63.5q0 -18 2 -30h-160q-2 16 -2 45q0 125 68.5 198.5t170.5 73.5q59 0 103.5 -23.5t101.5 -66.5q37 -33 64.5 -48.5
t56.5 -15.5q66 0 66 86q0 23 -2 37h159z" />
    <glyph glyph-name="notequal" unicode="&#x2260;" horiz-adv-x="1210" 
d="M829 735l-114 -209h387l-37 -262h-492l-90 -164h-295l91 164h-189l37 262h295l115 209h-381l37 264h487l90 164h293l-90 -164h194l-37 -264h-301z" />
    <glyph glyph-name="lessequal" unicode="&#x2264;" horiz-adv-x="1128" 
d="M1042 887l-489 -123l457 -123l-41 -291l-801 287l37 254l878 287zM115 254h839l-34 -254h-840z" />
    <glyph glyph-name="greaterequal" unicode="&#x2265;" horiz-adv-x="1128" 
d="M1044 891l-36 -254l-879 -287l41 291l489 123l-456 123l41 291zM115 254h839l-34 -254h-840z" />
    <glyph glyph-name="uni2388" unicode="&#x2388;" horiz-adv-x="1857" 
d="M881 -37q-131 14 -244 80t-188 168l-197 -113l-66 107l199 114q-53 119 -53 252q0 129 51 248l-195 113l64 110l194 -112q76 104 190 169.5t245 80.5v225h125v-225q131 -12 244.5 -79t189.5 -173l194 112l66 -106l-199 -115q53 -117 53 -248q0 -133 -53 -249l197 -115
l-64 -111l-196 115q-76 -104 -188.5 -170t-243.5 -78v-229h-125v229zM881 1036q-92 -12 -172 -59t-138 -119l310 -178v356zM1315 856q-55 74 -136 121t-173 59v-358zM817 569l-307 179q-35 -86 -35 -177q0 -94 35 -180zM1411 571q0 90 -35 177l-307 -179l307 -176
q35 86 35 178zM881 461l-308 -176q55 -74 135 -120t173 -59v355zM1177.5 165q79.5 46 135.5 118l-307 176v-353q92 13 171.5 59z" />
    <glyph glyph-name="uni2602" unicode="&#x2602;" horiz-adv-x="1820" 
d="M1343.5 1310q151.5 -81 233.5 -220.5t82 -317.5h-76q0 78 -50 126t-132 48q-80 0 -129 -48t-49 -126h-76q0 70 -41 116t-111 56v-811q0 -111 -68.5 -179.5t-181.5 -68.5q-115 0 -181 67.5t-66 180.5h65q0 -82 50.5 -132t131.5 -50q80 0 128.5 50t48.5 132v811
q-72 -10 -113 -56t-41 -116h-76q0 78 -49 126t-129 48q-82 0 -132 -48t-50 -126h-76q0 178 82 317.5t233.5 220.5t352.5 87l10 131h51l8 -131q199 -6 350.5 -87z" />
    <glyph glyph-name="uni2605" unicode="&#x2605;" horiz-adv-x="1703" 
d="M756 791l141 423l127 -423h457l-363 -254l142 -424l-363 268l-362 -268l141 424l-363 254h443z" />
    <glyph glyph-name="uni2609" unicode="&#x2609;" horiz-adv-x="1884" 
d="M147 152q66 0 107 23.5t57 92.5l138 787q2 8 2 22q0 53 -33 68.5t-94 13.5l28 152l467 2l-26 -152q-2 0 -34 1t-64.5 -26.5t-41.5 -80.5l-131 -711q-16 -86 -32.5 -131t-53.5 -78l25 -33q51 41 110.5 51.5t155.5 10.5h592q55 0 86 5t53.5 27.5t30.5 71.5l29 176h176
l-62 -444h-1511zM1454 1116.5q16 16.5 45 16.5q27 0 43.5 -16.5t16.5 -45.5q0 -25 -16.5 -42t-43.5 -17t-44 17.5t-17 41.5q0 29 16 45.5zM655 442h199l6 33q-80 41 -121 111.5t-41 161.5q0 104 52.5 189t147.5 134t218 49q168 0 271.5 -88t103.5 -231q0 -117 -67.5 -206
t-178.5 -120l-8 -33h184l-20 -147h-348l34 215q106 16 172 88t66 168q0 94 -58.5 148.5t-156.5 54.5q-111 0 -180.5 -69t-69.5 -173q0 -80 41 -138.5t109 -78.5l-37 -215h-344zM1464.5 1037.5q12.5 -13.5 34.5 -13.5q20 0 32.5 13.5t12.5 33.5q0 23 -12 36t-33 13
q-23 0 -35 -12t-12 -35q0 -22 12.5 -35.5zM1477 1102h26q23 0 23 -19q0 -14 -13 -18l13 -23h-15l-10 21h-12v-21h-12v60zM1501 1071q12 0 12 10t-10 11h-14v-21h12z" />
    <glyph glyph-name="uni261C" unicode="&#x261c;" horiz-adv-x="1865" 
d="M1303.5 172.5q-78.5 -22.5 -164.5 -22.5q-84 0 -156 24q-45 -18 -102 -18t-89 24.5t-32 65.5q0 16 2 24q-45 0 -76 24.5t-31 70.5q0 25 9 41q-39 10 -62.5 38.5t-23.5 65.5q0 16 6 34.5t12 26.5l-305 17q-106 6 -107 104q0 57 36 88t102 31l487 2q6 39 12 59
q20 76 73.5 100.5t123.5 24.5q115 0 185.5 -33.5t152.5 -99.5q70 -57 100 -73q16 12 44 20t54 8q94 0 136.5 -89t42.5 -220q0 -150 -50.5 -237t-134.5 -87q-33 0 -68.5 12.5t-56.5 32.5q-41 -36 -119.5 -58.5zM1145 205q158 0 253 84t95 223q0 66 -17.5 132.5t-45.5 98.5
q-41 20 -78 49t-43 33q-70 57 -129.5 86t-157.5 29q-72 0 -104.5 -21.5t-45.5 -76.5q-27 -129 -51 -224q-6 -18 12.5 -28t40.5 -10q47 0 74 41q31 47 31 102q0 20 -6 40.5t-6 31.5q0 10 6 16t16 6q18 0 27 -18q12 -25 16 -66q25 10 43 29q12 12 23 12q10 0 16 -6t6 -16
q0 -16 -10 -29q-23 -31 -84 -57q-8 -39 -31 -68q0 -16 8.5 -32.5t16.5 -24.5q27 -31 79 -47.5t109 -12.5q31 2 54.5 7.5t33.5 5.5q12 0 20.5 -7.5t8.5 -17.5q0 -16 -20 -25q-41 -18 -105 -18q-33 0 -70.5 4t-58.5 12q2 -4 2 -12q0 -12 -6 -24q31 -6 50.5 -29t19.5 -55
q0 -66 -74 -111q43 -6 82 -6zM1636 315.5q37 71.5 37 194.5q0 117 -32.5 187.5t-90.5 70.5q-33 0 -57 -18q57 -102 57 -238q0 -76 -22.5 -137.5t-61.5 -104.5q33 -27 74 -26q59 0 96 71.5zM766 639q23 45 31 117h-478q-78 0 -77 -62q0 -51 53 -51l389 -18q39 14 82 14z
M777.5 481.5q60.5 22.5 66.5 24.5q4 2 15 5t26 9q-35 4 -68 20.5t-49 45.5q-57 -6 -96 -23q-33 -14 -33 -47q0 -29 13.5 -43t33.5 -14q31 0 91.5 22.5zM878.5 353.5q75.5 27.5 100.5 41.5q14 8 22.5 21.5t8.5 27.5t-9.5 25.5t-25.5 11.5q-25 0 -101.5 -23.5t-117.5 -39.5
q-20 -8 -28.5 -16.5t-8.5 -24.5q0 -27 16.5 -39t36.5 -12q31 0 106.5 27.5zM1015.5 238.5q63.5 31.5 63.5 78.5q0 18 -10 27.5t-25 9.5q-27 0 -192 -65q-31 -12 -31 -39q0 -43 66 -43q65 0 128.5 31.5z" />
    <glyph glyph-name="uni261E" unicode="&#x261e;" horiz-adv-x="1816" 
d="M197.5 273q-50.5 87 -50.5 237q0 131 42 220t137 89q27 0 54.5 -8t43.5 -20q31 16 100 73q82 66 153 99.5t185 33.5q70 0 123 -24.5t74 -100.5q6 -20 12 -59l488 -2q66 0 101.5 -30.5t35.5 -88.5q0 -98 -107 -104l-305 -17q6 -8 12.5 -26.5t6.5 -34.5q0 -37 -24 -65.5
t-62 -38.5q8 -16 8 -41q0 -45 -31 -70t-76 -25q2 -8 2 -24q0 -41 -31.5 -65.5t-89.5 -24.5q-57 0 -102 18q-70 -25 -156 -24q-86 0 -164.5 22.5t-119.5 58.5q-20 -20 -56 -32.5t-69 -12.5q-84 0 -134.5 87zM743 322q0 33 19.5 55t50.5 29q-10 20 -4 36q-20 -8 -58 -12
t-71 -4q-63 0 -105 18q-20 8 -20 25q0 10 8 17.5t21 7.5q10 0 33.5 -5.5t54.5 -7.5q57 -4 109.5 12.5t78.5 47.5q8 8 16.5 24.5t8.5 32.5q-23 29 -31 68q-61 27 -84 57q-10 12 -10 29q0 10 6 16t16 6t23 -12q18 -18 43 -29q4 41 16 66q10 18 27 18q10 0 16 -6t6 -16t-6 -31
t-6 -41q0 -55 31 -102q27 -41 74 -41q23 0 41 10t12 28q-25 94 -51 224q-12 55 -45 76.5t-105 21.5q-98 0 -157.5 -28.5t-129.5 -86.5q-6 -4 -42.5 -32.5t-77.5 -49.5q-29 -33 -46.5 -99t-17.5 -132q0 -139 95.5 -223t252.5 -84q39 0 82 6q-74 45 -74 111zM414 270
q-39 43 -61.5 104.5t-22.5 137.5q0 135 57 238q-25 18 -57 18q-57 0 -90 -70.5t-33 -187.5q0 -123 37 -194.5t96 -71.5q41 -1 74 26zM1585 643q53 0 53 51q0 61 -77 62h-478q10 -70 31 -117q43 0 82 -14zM1227.5 473q13.5 14 13.5 43q0 33 -33 47q-39 16 -96 23
q-16 -29 -49 -45.5t-68 -20.5q14 -6 25.5 -9t15.5 -5q6 -2 66.5 -24.5t91.5 -22.5q20 0 33.5 14zM1144.5 338q16.5 12 16.5 39q0 16 -8 24.5t-29 16.5q-41 16 -117.5 39.5t-101.5 23.5q-16 0 -25.5 -11t-9.5 -26q0 -14 8.5 -27.5t22.5 -21.5q25 -14 100.5 -41.5t106.5 -27.5
q20 0 36.5 12zM1059 250q0 27 -31 39q-166 66 -192 65q-14 0 -24.5 -9t-10.5 -28q0 -47 63.5 -78.5t128.5 -31.5q66 0 66 43z" />
    <glyph glyph-name="uni2639" unicode="&#x2639;" horiz-adv-x="1388" 
d="M1222 354q-81 -133 -220.5 -205.5t-309.5 -72.5t-308 72.5t-218 204.5t-80 302q0 172 81 304.5t219 206t308 73.5t308.5 -73.5t219.5 -206t81 -302.5t-81 -303zM1134.5 911.5q-65.5 110.5 -180 172t-256.5 61.5q-143 0 -258.5 -61.5t-182.5 -173t-67 -255.5
q0 -143 67 -252.5t182.5 -171t256.5 -61.5t256 61.5t181.5 172t66.5 253.5q0 144 -65.5 254.5zM455.5 750.5q-31.5 31.5 -31.5 74.5t31.5 74t74.5 31q41 0 73 -31t32 -74t-32 -74.5t-73 -31.5q-43 0 -74.5 31.5zM763 750.5q-32 31.5 -32 74.5t32 74t75 31q41 0 72.5 -31
t31.5 -74t-31.5 -74.5t-72.5 -31.5q-43 0 -75 31.5zM486.5 521q91.5 50 207.5 50q117 0 208 -50t134 -134l-61 -43q-47 63 -119 99t-162 36t-161.5 -35.5t-118.5 -99.5l-62 43q43 84 134.5 134z" />
    <glyph glyph-name="smileface" unicode="&#x263a;" horiz-adv-x="1388" 
d="M1222 354q-81 -133 -220.5 -205.5t-309.5 -72.5t-308 72.5t-218 204.5t-80 302q0 172 81 304.5t219 206t308 73.5t308.5 -73.5t219.5 -206t81 -302.5t-81 -303zM1134.5 911.5q-65.5 110.5 -180 172t-256.5 61.5q-143 0 -258.5 -61.5t-182.5 -173t-67 -255.5
q0 -143 67 -252.5t182.5 -171t256.5 -61.5t256 61.5t181.5 172t66.5 253.5q0 144 -65.5 254.5zM455.5 750.5q-31.5 31.5 -31.5 74.5t31.5 74t74.5 31q41 0 73 -31t32 -74t-32 -74.5t-73 -31.5q-43 0 -74.5 31.5zM763 750.5q-32 31.5 -32 74.5t32 74t75 31q41 0 72.5 -31
t31.5 -74t-31.5 -74.5t-72.5 -31.5q-43 0 -75 31.5zM430 571q23 -63 95.5 -102t168.5 -39t169 39t95 102h89q-27 -104 -123.5 -168.5t-229.5 -64.5t-229 64.5t-123 168.5h88z" />
    <glyph glyph-name="invsmileface" unicode="&#x263b;" horiz-adv-x="1400" 
d="M417 148.5q-138 72.5 -218 204.5t-80 302q0 172 81 304.5t219 206t308 73.5t308.5 -73.5t219 -206t80.5 -302.5t-80.5 -303t-220 -205.5t-309.5 -72.5t-308 72.5zM636 750.5q32 31.5 32 74.5t-32 74t-73 31q-43 0 -74.5 -31t-31.5 -74t31.5 -74.5t74.5 -31.5
q41 0 73 31.5zM943 750.5q32 31.5 32 74.5t-32 74t-73 31q-43 0 -74.5 -31t-31.5 -74t31.5 -74.5t74.5 -31.5q41 0 73 31.5zM956.5 402.5q96.5 64.5 122.5 168.5h-88q-23 -63 -95.5 -102t-168.5 -39t-169 39t-95 102h-88q27 -104 123 -168.5t229 -64.5t229.5 64.5z" />
    <glyph glyph-name="uni2709" unicode="&#x2709;" horiz-adv-x="1546" 
d="M1331 1032v-784h-1067v784h1067zM1180 930h-762l297 -244q35 29 84 29q47 0 82 -29zM367 854v-504h862v502l-303 -248q2 -6 2 -18q0 -55 -38 -93t-91 -38q-55 0 -93 37.5t-38 93.5q0 14 2 20z" />
    <glyph glyph-name="uni2713" unicode="&#x2713;" horiz-adv-x="1533" 
d="M246 629l276 -260l842 944l192 -174l-1005 -1125l-467 441z" />
    <glyph glyph-name="uni2715" unicode="&#x2715;" horiz-adv-x="1718" 
d="M186 111l602 616l-600 614l109 107l598 -612l598 612l109 -107l-603 -614l605 -616l-107 -107l-602 614l-602 -614z" />
    <glyph glyph-name="uni2736" unicode="&#x2736;" horiz-adv-x="1374" 
d="M580 874l135 439l119 -439l454 119l-319 -336l319 -321l-454 102l-119 -438l-135 438l-439 -102l320 321l-320 336z" />
    <glyph glyph-name="uni2737" unicode="&#x2737;" horiz-adv-x="1583" 
d="M721 887l96 426l98 -426l365 233l-229 -366l424 -97l-424 -98l229 -364l-365 231l-98 -426l-96 426l-365 -231l228 364l-422 98l422 97l-228 366z" />
    <glyph glyph-name="uni2764" unicode="&#x2764;" horiz-adv-x="1204" 
d="M255 760.5q69 68.5 169 68.5q68 0 118 -35.5t74 -97.5q25 59 75 96t120 37q100 0 169 -68.5t69 -178.5q0 -121 -56.5 -210t-146.5 -150.5t-230 -131.5q-139 72 -227 133.5t-145.5 149.5t-57.5 209q0 110 69 178.5z" />
    <glyph glyph-name="uni27A1" unicode="&#x27a1;" horiz-adv-x="1748" 
d="M1090 225h-848v508h848v246l538 -498l-538 -495v239z" />
    <glyph glyph-name="uni2B05" unicode="&#x2b05;" horiz-adv-x="1748" 
d="M125 481l539 498v-246h847v-508h-847v-239z" />
    <glyph glyph-name="uni2B06" unicode="&#x2b06;" horiz-adv-x="1300" 
d="M961 848v-848h-508v848h-246l498 538l495 -538h-239z" />
    <glyph glyph-name="uni2B07" unicode="&#x2b07;" horiz-adv-x="1300" 
d="M653 -66l-497 539h245v848h508v-848h240z" />
    <glyph glyph-name="uni3020" unicode="&#x3020;" horiz-adv-x="1916" 
d="M1624 1047h-1327v155h1327v-155zM883 799h-586v155h1327v-155h-586v-453h-155v453zM492 584q6 25 26 45l-37 53l49 37l41 -57q20 4 35 4q23 0 41 -7l41 60l49 -37l-39 -57q16 -23 21 -41h67v-62h-67q-10 -37 -41 -60.5t-72 -23.5q-43 0 -73.5 23.5t-40.5 60.5h-60v62h60z
M1380.5 461.5q-30.5 -23.5 -71.5 -23.5q-43 0 -74 23.5t-41 60.5h-59v62h59q6 25 27 45l-37 53l49 37l41 -57q20 4 35 4q23 0 41 -7l41 60l49 -37l-41 -57q16 -20 22 -41h68v-62h-68q-10 -37 -40.5 -60.5zM1736.5 632.5q57.5 -61.5 57.5 -153.5q0 -84 -54 -144.5t-134 -70.5
q-76 -147 -254 -236t-391 -89t-391.5 89t-254.5 236q-80 10 -134 70.5t-54 144.5q0 92 57.5 153.5t157.5 61.5v-63q-57 0 -95 -42t-38 -110q0 -66 42 -113t128 -47q59 -135 220 -217t362 -82t361.5 82t219.5 217q86 0 128 47.5t42 112.5q0 68 -38 110t-95 42v63
q100 0 157.5 -61.5zM564.5 595q-15.5 -15 -15.5 -42t15.5 -43t41.5 -16q25 0 40.5 16t15.5 43t-15.5 42t-40.5 15q-26 0 -41.5 -15zM1348.5 510q15.5 16 15.5 43t-15.5 42t-39.5 15q-27 0 -42.5 -15t-15.5 -42t15.5 -43t42.5 -16q24 0 39.5 16zM1174.5 163
q-103.5 -38 -213.5 -38q-111 0 -214.5 38t-185.5 109l53 62q150 -127 347 -127t346 127l53 -62q-82 -71 -185.5 -109z" />
    <glyph glyph-name="uni5350" unicode="&#x5350;" horiz-adv-x="2002" 
d="M985 1405h297l-80 -565h524l-38 -275l-80 -565h-281l80 565h-242l-80 -565h-297l80 565h-522l39 275l78 565h278l-77 -565h241zM1245 1137l37 268h522l-37 -268h-522zM825 268l-37 -268h-522l37 268h522z" />
    <glyph glyph-name="C.aalt" horiz-adv-x="1187" 
d="M189.5 993q99.5 166 276.5 257t406 91q80 0 166 -11t148 -32l-43 -311q-111 47 -246 47t-237.5 -50t-159 -141t-56.5 -210q0 -158 98.5 -255t258.5 -97q59 0 136 13t140 40l-43 -311q-143 -49 -307 -50q-190 0 -334.5 80t-223.5 225.5t-79 335.5q0 213 99.5 379z" />
    <glyph glyph-name="Cacute.aalt" horiz-adv-x="1187" 
d="M825 1507l346 365l148 -152l-404 -309zM189.5 993q99.5 166 276.5 257t406 91q80 0 166 -11t148 -32l-43 -311q-111 47 -246 47t-237.5 -50t-159 -141t-56.5 -210q0 -158 98.5 -255t258.5 -97q59 0 136 13t140 40l-43 -311q-143 -49 -307 -50q-190 0 -334.5 80
t-223.5 225.5t-79 335.5q0 213 99.5 379z" />
    <glyph glyph-name="Ccaron.aalt" horiz-adv-x="1187" 
d="M694 1827l219 -236l220 236l147 -101l-231 -315h-269l-231 315zM189.5 993q99.5 166 276.5 257t406 91q80 0 166 -11t148 -32l-43 -311q-111 47 -246 47t-237.5 -50t-159 -141t-56.5 -210q0 -158 98.5 -255t258.5 -97q59 0 136 13t140 40l-43 -311q-143 -49 -307 -50
q-190 0 -334.5 80t-223.5 225.5t-79 335.5q0 213 99.5 379z" />
    <glyph glyph-name="Ccedilla.aalt" horiz-adv-x="1187" 
d="M731 -80q74 0 138.5 -49t64.5 -154q0 -113 -83 -174t-200 -61q-98 0 -174 43v153q23 -23 59.5 -35t75.5 -12q51 0 86 23.5t35 71.5q0 45 -30.5 68.5t-79.5 23.5q-12 0 -41 -4l-54 55l142 240h127l-11 -76l-77 -115zM189.5 993q-99.5 -166 -99.5 -379q0 -190 79 -335.5
t223.5 -225.5t334.5 -80q164 0 307 50l43 311q-63 -27 -140 -40t-136 -13q-160 0 -258.5 97t-98.5 255q0 119 56.5 210t159 141t237.5 50t246 -47l43 311q-61 20 -147.5 31.5t-166.5 11.5q-229 0 -406 -91t-276.5 -257z" />
    <glyph glyph-name="Ccircumflex.aalt" horiz-adv-x="1187" 
d="M782 1812h267l231 -315l-145 -100l-220 235l-219 -235l-145 100zM189.5 993q99.5 166 276.5 257t406 91q80 0 166 -11t148 -32l-43 -311q-111 47 -246 47t-237.5 -50t-159 -141t-56.5 -210q0 -158 98.5 -255t258.5 -97q59 0 136 13t140 40l-43 -311q-143 -49 -307 -50
q-190 0 -334.5 80t-223.5 225.5t-79 335.5q0 213 99.5 379z" />
    <glyph glyph-name="Cdotaccent.aalt" horiz-adv-x="1187" 
d="M809 1453q-43 42 -43 106q0 66 43 106.5t106 40.5t105.5 -41t42.5 -106q0 -63 -42 -105.5t-106 -42.5q-63 0 -106 42zM189.5 993q99.5 166 276.5 257t406 91q80 0 166 -11t148 -32l-43 -311q-111 47 -246 47t-237.5 -50t-159 -141t-56.5 -210q0 -158 98.5 -255t258.5 -97
q59 0 136 13t140 40l-43 -311q-143 -49 -307 -50q-190 0 -334.5 80t-223.5 225.5t-79 335.5q0 213 99.5 379z" />
    <glyph glyph-name="G.salt" horiz-adv-x="1613" 
d="M1563 461h-131q-66 -223 -251.5 -355.5t-443.5 -132.5q-193 0 -340 79t-228 221.5t-81 328.5q0 209 97.5 378t268.5 265t384 96q168 0 302 -60t218 -170t106 -253h-352q-35 82 -112.5 129t-182.5 47q-106 0 -193 -50t-137.5 -142t-50.5 -211q0 -158 89 -254t235 -96
q109 0 192.5 49t114.5 131h-311l39 274h804z" />
    <glyph glyph-name="Gbreve.aalt" horiz-adv-x="1613" 
d="M988.5 1518.5q-105.5 -91.5 -263.5 -91.5q-166 0 -269.5 95.5t-111.5 251.5h215q2 -68 47 -106t119 -38q72 0 115 38t45 106h217q-8 -164 -113.5 -255.5zM1563 461h-131q-66 -223 -251.5 -355.5t-443.5 -132.5q-193 0 -340 79t-228 221.5t-81 328.5q0 209 97.5 378
t268.5 265t384 96q168 0 302 -60t218 -170t106 -253h-352q-35 82 -112.5 129t-182.5 47q-106 0 -193 -50t-137.5 -142t-50.5 -211q0 -158 89 -254t235 -96q109 0 192.5 49t114.5 131h-311l39 274h804z" />
    <glyph glyph-name="Gcircumflex.aalt" horiz-adv-x="1613" 
d="M590 1827h266l231 -316l-145 -100l-219 236l-219 -236l-146 100zM1563 461h-131q-66 -223 -251.5 -355.5t-443.5 -132.5q-193 0 -340 79t-228 221.5t-81 328.5q0 209 97.5 378t268.5 265t384 96q168 0 302 -60t218 -170t106 -253h-352q-35 82 -112.5 129t-182.5 47
q-106 0 -193 -50t-137.5 -142t-50.5 -211q0 -158 89 -254t235 -96q109 0 192.5 49t114.5 131h-311l39 274h804z" />
    <glyph glyph-name="uni0122.aalt" horiz-adv-x="1613" 
d="M903 -130q41 -48 41 -124q0 -113 -67.5 -190.5t-206.5 -85.5v61q76 14 114.5 50t42.5 89q-23 -12 -53 -12q-53 0 -87 36t-34 89q0 59 40 97t104 38q65 0 106 -48zM1563 461h-131q-66 -223 -251.5 -355.5t-443.5 -132.5q-193 0 -340 79t-228 221.5t-81 328.5
q0 209 97.5 378t268.5 265t384 96q168 0 302 -60t218 -170t106 -253h-352q-35 82 -112.5 129t-182.5 47q-106 0 -193 -50t-137.5 -142t-50.5 -211q0 -158 89 -254t235 -96q109 0 192.5 49t114.5 131h-311l39 274h804z" />
    <glyph glyph-name="Gdotaccent.aalt" horiz-adv-x="1613" 
d="M616 1467q-43 42 -43 106q0 66 43 106.5t107 40.5q63 0 105 -41t42 -106q0 -63 -42 -105.5t-105 -42.5q-64 0 -107 42zM1563 461h-131q-66 -223 -251.5 -355.5t-443.5 -132.5q-193 0 -340 79t-228 221.5t-81 328.5q0 209 97.5 378t268.5 265t384 96q168 0 302 -60
t218 -170t106 -253h-352q-35 82 -112.5 129t-182.5 47q-106 0 -193 -50t-137.5 -142t-50.5 -211q0 -158 89 -254t235 -96q109 0 192.5 49t114.5 131h-311l39 274h804z" />
    <glyph glyph-name="Q.aalt" horiz-adv-x="1751" 
d="M1180 -444l-473 419q-182 10 -321.5 93.5t-216.5 226.5t-77 328q0 203 93.5 366.5t261 257.5t380.5 94q195 0 345.5 -80.5t234.5 -228t84 -340.5q0 -227 -115.5 -403t-314.5 -258l625 -475h-506zM533.5 379q89.5 -98 236.5 -98q104 0 188 50t132.5 140t48.5 207
q0 160 -89 258t-237 98q-104 0 -188 -50t-132.5 -140t-48.5 -207q0 -160 89.5 -258z" />
    <glyph glyph-name="R.aalt" horiz-adv-x="1316" 
d="M1117 475q30 -51 34 -135l16 -340h-342l-20 305q-6 86 -40 117t-120 31h-178l-64 -453h-331l184 1313h623q195 0 304 -91.5t109 -258.5q0 -145 -74.5 -254t-195.5 -164q65 -19 95 -70zM879.5 766q56.5 51 56.5 133q0 55 -39 91t-129 36h-221l-43 -311h219q100 0 156.5 51
z" />
    <glyph glyph-name="Racute.aalt" horiz-adv-x="1316" 
d="M655 1522l346 364l148 -151l-404 -310zM1117 475q30 -51 34 -135l16 -340h-342l-20 305q-6 86 -40 117t-120 31h-178l-64 -453h-331l184 1313h623q195 0 304 -91.5t109 -258.5q0 -145 -74.5 -254t-195.5 -164q65 -19 95 -70zM879.5 766q56.5 51 56.5 133q0 55 -39 91
t-129 36h-221l-43 -311h219q100 0 156.5 51z" />
    <glyph glyph-name="Rcaron.aalt" horiz-adv-x="1316" 
d="M524 1841l219 -235l220 235l147 -100l-231 -316h-269l-231 316zM1117 475q30 -51 34 -135l16 -340h-342l-20 305q-6 86 -40 117t-120 31h-178l-64 -453h-331l184 1313h623q195 0 304 -91.5t109 -258.5q0 -145 -74.5 -254t-195.5 -164q65 -19 95 -70zM879.5 766
q56.5 51 56.5 133q0 55 -39 91t-129 36h-221l-43 -311h219q100 0 156.5 51z" />
    <glyph glyph-name="uni0156.aalt" horiz-adv-x="1316" 
d="M717 -60.5q41 -48.5 41 -123.5q0 -113 -67.5 -191t-207.5 -86v62q76 14 115 50t43 89q-23 -12 -53 -12q-53 0 -87 35.5t-34 89.5q0 59 40 97t103 38q66 0 107 -48.5zM1117 475q30 -51 34 -135l16 -340h-342l-20 305q-6 86 -40 117t-120 31h-178l-64 -453h-331l184 1313
h623q195 0 304 -91.5t109 -258.5q0 -145 -74.5 -254t-195.5 -164q65 -19 95 -70zM879.5 766q56.5 51 56.5 133q0 55 -39 91t-129 36h-221l-43 -311h219q100 0 156.5 51z" />
    <glyph glyph-name="S.aalt" horiz-adv-x="1177" 
d="M241.5 1q-116.5 28 -184.5 77l43 311q90 -59 194.5 -92t213.5 -33q96 0 149.5 30t53.5 79q0 45 -33 65.5t-117 48.5l-53 19q-193 70 -271.5 163t-78.5 226t68.5 234.5t192.5 156.5t288 55q104 0 215.5 -19t179.5 -54l-43 -312q-164 92 -348 93q-90 0 -141.5 -28
t-51.5 -75q0 -39 27.5 -56.5t73 -31.5t61.5 -20q207 -70 301 -162t94 -258q0 -131 -71.5 -232.5t-202.5 -157t-303 -55.5q-140 0 -256.5 28z" />
    <glyph glyph-name="Sacute.aalt" horiz-adv-x="1177" 
d="M606 1509l346 365l148 -152l-404 -309zM241.5 1q-116.5 28 -184.5 77l43 311q90 -59 194.5 -92t213.5 -33q96 0 149.5 30t53.5 79q0 45 -33 65.5t-117 48.5l-53 19q-193 70 -271.5 163t-78.5 226t68.5 234.5t192.5 156.5t288 55q104 0 215.5 -19t179.5 -54l-43 -312
q-164 92 -348 93q-90 0 -141.5 -28t-51.5 -75q0 -39 27.5 -56.5t73 -31.5t61.5 -20q207 -70 301 -162t94 -258q0 -131 -71.5 -232.5t-202.5 -157t-303 -55.5q-140 0 -256.5 28z" />
    <glyph glyph-name="Scaron.aalt" horiz-adv-x="1177" 
d="M475 1829l219 -236l219 236l148 -100l-232 -316h-268l-231 316zM241.5 1q-116.5 28 -184.5 77l43 311q90 -59 194.5 -92t213.5 -33q96 0 149.5 30t53.5 79q0 45 -33 65.5t-117 48.5l-53 19q-193 70 -271.5 163t-78.5 226t68.5 234.5t192.5 156.5t288 55q104 0 215.5 -19
t179.5 -54l-43 -312q-164 92 -348 93q-90 0 -141.5 -28t-51.5 -75q0 -39 27.5 -56.5t73 -31.5t61.5 -20q207 -70 301 -162t94 -258q0 -131 -71.5 -232.5t-202.5 -157t-303 -55.5q-140 0 -256.5 28z" />
    <glyph glyph-name="Scedilla.salt" horiz-adv-x="1177" 
d="M543 -96q74 0 138 -49.5t64 -153.5q0 -113 -82.5 -174.5t-199.5 -61.5q-98 0 -174 43v154q23 -23 59.5 -35t75.5 -12q51 0 86 23.5t35 70.5q0 45 -31 68.5t-80 23.5q-12 0 -41 -4l-53 56l141 239h127l-10 -76l-78 -114zM241.5 1q116.5 -28 256.5 -28q172 0 303 55.5
t202.5 157t71.5 232.5q0 166 -94 258t-301 162q-16 6 -61.5 20t-73 31.5t-27.5 56.5q0 47 51.5 75t141.5 28q184 0 348 -93l43 312q-68 35 -179.5 54t-215.5 19q-164 0 -288 -55t-192.5 -156.5t-68.5 -234.5t78.5 -226.5t271.5 -162.5l53 -19q84 -29 117 -49t33 -65
q0 -49 -53.5 -79t-149.5 -30q-109 0 -213.5 33t-194.5 92l-43 -311q68 -49 184.5 -77z" />
    <glyph glyph-name="Scircumflex.aalt" horiz-adv-x="1177" 
d="M563 1815h266l232 -316l-146 -100l-219 235l-219 -235l-145 100zM241.5 1q-116.5 28 -184.5 77l43 311q90 -59 194.5 -92t213.5 -33q96 0 149.5 30t53.5 79q0 45 -33 65.5t-117 48.5l-53 19q-193 70 -271.5 163t-78.5 226t68.5 234.5t192.5 156.5t288 55q104 0 215.5 -19
t179.5 -54l-43 -312q-164 92 -348 93q-90 0 -141.5 -28t-51.5 -75q0 -39 27.5 -56.5t73 -31.5t61.5 -20q207 -70 301 -162t94 -258q0 -131 -71.5 -232.5t-202.5 -157t-303 -55.5q-140 0 -256.5 28z" />
    <glyph glyph-name="uni0218.aalt" horiz-adv-x="1177" 
d="M604 -159q41 -48 41 -124q0 -113 -67.5 -190.5t-206.5 -85.5v61q76 14 114.5 50t42.5 90q-23 -12 -53 -13q-53 0 -87 36t-34 89q0 59 40 97t104 38q65 0 106 -48zM241.5 1q-116.5 28 -184.5 77l43 311q90 -59 194.5 -92t213.5 -33q96 0 149.5 30t53.5 79q0 45 -33 65.5
t-117 48.5l-53 19q-193 70 -271.5 163t-78.5 226t68.5 234.5t192.5 156.5t288 55q104 0 215.5 -19t179.5 -54l-43 -312q-164 92 -348 93q-90 0 -141.5 -28t-51.5 -75q0 -39 27.5 -56.5t73 -31.5t61.5 -20q207 -70 301 -162t94 -258q0 -131 -71.5 -232.5t-202.5 -157
t-303 -55.5q-140 0 -256.5 28z" />
    <glyph glyph-name="Z.aalt" horiz-adv-x="1110" 
d="M1155 1264l-618 -965h464l-40 -299h-961l8 63l604 951h-458l43 299h966z" />
    <glyph glyph-name="Zacute.aalt" horiz-adv-x="1110" 
d="M580 1479l346 364l147 -151l-403 -310zM1155 1264l-618 -965h464l-40 -299h-961l8 63l604 951h-458l43 299h966z" />
    <glyph glyph-name="Zcaron.aalt" horiz-adv-x="1110" 
d="M449 1798l219 -235l219 235l147 -100l-231 -316h-268l-232 316zM1155 1264l-618 -965h464l-40 -299h-961l8 63l604 951h-458l43 299h966z" />
    <glyph glyph-name="Zdotaccent.aalt" horiz-adv-x="1110" 
d="M563 1424q-43 42 -43 106q0 66 43 106.5t107 40.5q63 0 105 -41t42 -106q0 -63 -42 -105.5t-105 -42.5q-64 0 -107 42zM1155 1264l-618 -965h464l-40 -299h-961l8 63l604 951h-458l43 299h966z" />
    <glyph glyph-name="G.ss02" horiz-adv-x="1531" 
d="M1479 735l-105 -735h-278l-4 100q-59 -59 -157.5 -93t-219.5 -34q-182 0 -324.5 79t-222.5 221.5t-80 328.5q0 209 97.5 378t268.5 265t384 96q168 0 302 -60t218 -170t106 -253h-352q-35 82 -112.5 129t-182.5 47q-106 0 -193 -50t-137.5 -142t-50.5 -211
q0 -158 89 -254t235 -96q109 0 192.5 49t114.5 131h-311l47 274h676z" />
    <glyph glyph-name="K.aalt" horiz-adv-x="1327" 
d="M1172.5 681q-56.5 -83 -146.5 -132l174 -549h-383l-139 485h-207l-68 -485h-331l184 1313h332l-78 -555h207q98 0 143 46t62 152l51 357h332l-62 -439q-14 -110 -70.5 -193z" />
    <glyph glyph-name="M.aalt" horiz-adv-x="1789" 
d="M1292 0l-12 608l-285 -575h-323l-123 575l-187 -608h-376l452 1313h316l139 -797l362 797h332l86 -1313h-381z" />
    <glyph glyph-name="Y.aalt" horiz-adv-x="1314" 
d="M1341 1313l-51 -365q-57 -414 -465 -473l-65 -475h-334l68 485q-162 39 -248 147.5t-86 270.5q0 31 8 101l43 309h332l-45 -324q-4 -37 -4 -49q0 -92 54 -133t161 -41q225 0 256 223l45 324h331z" />
    <glyph glyph-name="Yacute.aalt" horiz-adv-x="1314" 
d="M686 1479l346 364l148 -151l-404 -310zM1341 1313l-51 -365q-57 -414 -465 -473l-65 -475h-334l68 485q-162 39 -248 147.5t-86 270.5q0 31 8 101l43 309h332l-45 -324q-4 -37 -4 -49q0 -92 54 -133t161 -41q225 0 256 223l45 324h331z" />
    <glyph glyph-name="Ycircumflex.aalt" horiz-adv-x="1314" 
d="M643 1784h266l232 -316l-146 -100l-219 236l-219 -236l-145 100zM1341 1313l-51 -365q-57 -414 -465 -473l-65 -475h-334l68 485q-162 39 -248 147.5t-86 270.5q0 31 8 101l43 309h332l-45 -324q-4 -37 -4 -49q0 -92 54 -133t161 -41q225 0 256 223l45 324h331z" />
    <glyph glyph-name="Ydieresis.aalt" horiz-adv-x="1314" 
d="M457 1424q-43 42 -43 106q0 66 43 106.5t106 40.5t105.5 -41t42.5 -106q0 -63 -42 -105.5t-106 -42.5q-63 0 -106 42zM885 1424q-43 42 -43 106q0 66 43 106.5t106 40.5t105.5 -41t42.5 -106q0 -63 -42 -105.5t-106 -42.5q-63 0 -106 42zM1341 1313l-51 -365
q-57 -414 -465 -473l-65 -475h-334l68 485q-162 39 -248 147.5t-86 270.5q0 31 8 101l43 309h332l-45 -324q-4 -37 -4 -49q0 -92 54 -133t161 -41q225 0 256 223l45 324h331z" />
    <glyph glyph-name="Ygrave.aalt" horiz-adv-x="1314" 
d="M375 1692l147 151l346 -364l-92 -97zM1341 1313l-51 -365q-57 -414 -465 -473l-65 -475h-334l68 485q-162 39 -248 147.5t-86 270.5q0 31 8 101l43 309h332l-45 -324q-4 -37 -4 -49q0 -92 54 -133t161 -41q225 0 256 223l45 324h331z" />
    <glyph glyph-name="i.locl" horiz-adv-x="524" 
d="M231 1105q-43 42 -43 105q0 66 43 107t107 41q63 0 105 -41t42 -107q0 -63 -42 -105t-105 -42q-64 0 -107 42zM485 930l-129 -930h-317l129 930h317z" />
    <glyph glyph-name="c.aalt" horiz-adv-x="901" 
d="M191.5 95q-130.5 122 -130.5 333q0 160 75 281.5t210 187.5t309 66q66 0 131.5 -9.5t110.5 -23.5l-39 -285q-37 16 -88 25.5t-102 9.5q-127 0 -203 -59.5t-76 -167.5q0 -90 60.5 -143.5t162.5 -53.5q45 0 105.5 10t107.5 27l-39 -279q-117 -41 -241 -41
q-223 0 -353.5 122z" />
    <glyph glyph-name="cacute.aalt" horiz-adv-x="901" 
d="M504 1128l346 365l147 -152l-403 -309zM191.5 95q-130.5 122 -130.5 333q0 160 75 281.5t210 187.5t309 66q66 0 131.5 -9.5t110.5 -23.5l-39 -285q-37 16 -88 25.5t-102 9.5q-127 0 -203 -59.5t-76 -167.5q0 -90 60.5 -143.5t162.5 -53.5q45 0 105.5 10t107.5 27
l-39 -279q-117 -41 -241 -41q-223 0 -353.5 122z" />
    <glyph glyph-name="ccaron.aalt" horiz-adv-x="901" 
d="M373 1448l219 -236l219 236l147 -100l-231 -316h-268l-232 316zM191.5 95q-130.5 122 -130.5 333q0 160 75 281.5t210 187.5t309 66q66 0 131.5 -9.5t110.5 -23.5l-39 -285q-37 16 -88 25.5t-102 9.5q-127 0 -203 -59.5t-76 -167.5q0 -90 60.5 -143.5t162.5 -53.5
q45 0 105.5 10t107.5 27l-39 -279q-117 -41 -241 -41q-223 0 -353.5 122z" />
    <glyph glyph-name="ccedilla.aalt" horiz-adv-x="901" 
d="M477 -76q74 0 138.5 -49t64.5 -154q0 -113 -83 -174t-200 -61q-98 0 -174 43v154q23 -23 59.5 -35.5t75.5 -12.5q51 0 86 24t35 71q0 45 -30.5 68.5t-79.5 23.5q-12 0 -41 -4l-54 55l142 240h127l-11 -76l-77 -115zM191.5 95q130.5 -122 353.5 -122q125 0 241 41l39 279
q-47 -16 -107.5 -26.5t-105.5 -10.5q-102 0 -162.5 53t-60.5 144q0 109 76 168t203 59q51 0 102 -9t88 -26l39 285q-45 14 -110.5 23.5t-131.5 9.5q-174 0 -309 -66t-210 -187.5t-75 -281.5q0 -211 130.5 -333z" />
    <glyph glyph-name="ccircumflex.aalt" horiz-adv-x="901" 
d="M461 1434h266l231 -316l-145 -100l-219 235l-219 -235l-146 100zM191.5 95q-130.5 122 -130.5 333q0 160 75 281.5t210 187.5t309 66q66 0 131.5 -9.5t110.5 -23.5l-39 -285q-37 16 -88 25.5t-102 9.5q-127 0 -203 -59.5t-76 -167.5q0 -90 60.5 -143.5t162.5 -53.5
q45 0 105.5 10t107.5 27l-39 -279q-117 -41 -241 -41q-223 0 -353.5 122z" />
    <glyph glyph-name="cdotaccent.aalt" horiz-adv-x="901" 
d="M487 1074q-43 42 -43 106q0 66 43 106.5t107 40.5q63 0 105 -41t42 -106q0 -63 -42 -105.5t-105 -42.5q-64 0 -107 42zM191.5 95q-130.5 122 -130.5 333q0 160 75 281.5t210 187.5t309 66q66 0 131.5 -9.5t110.5 -23.5l-39 -285q-37 16 -88 25.5t-102 9.5
q-127 0 -203 -59.5t-76 -167.5q0 -90 60.5 -143.5t162.5 -53.5q45 0 105.5 10t107.5 27l-39 -279q-117 -41 -241 -41q-223 0 -353.5 122z" />
    <glyph glyph-name="e.aalt" horiz-adv-x="1052" 
d="M1000.5 480q-7.5 -42 -14.5 -66.5t-9 -30.5h-604q6 -59 69.5 -93t173.5 -34q74 0 144.5 15.5t157.5 45.5l-41 -282q-63 -27 -159.5 -44.5t-182.5 -17.5q-221 0 -350.5 120t-129.5 335q0 152 66.5 273.5t187.5 191.5t279 70q125 0 220 -49.5t147.5 -138.5t52.5 -206
q0 -47 -7.5 -89zM688 594q-2 53 -36 82t-93 29q-63 0 -104 -30t-47 -81h280z" />
    <glyph glyph-name="eacute.aalt" horiz-adv-x="1052" 
d="M565 1128l346 365l148 -152l-404 -309zM1000.5 480q-7.5 -42 -14.5 -66.5t-9 -30.5h-604q6 -59 69.5 -93t173.5 -34q74 0 144.5 15.5t157.5 45.5l-41 -282q-63 -27 -159.5 -44.5t-182.5 -17.5q-221 0 -350.5 120t-129.5 335q0 152 66.5 273.5t187.5 191.5t279 70
q125 0 220 -49.5t147.5 -138.5t52.5 -206q0 -47 -7.5 -89zM688 594q-2 53 -36 82t-93 29q-63 0 -104 -30t-47 -81h280z" />
    <glyph glyph-name="ebreve.aalt" horiz-adv-x="1052" 
d="M920.5 1125.5q-105.5 -91.5 -263.5 -91.5q-166 0 -269 95.5t-112 250.5h216q2 -68 47 -105.5t118 -37.5q72 0 115 38t45 105h217q-8 -163 -113.5 -254.5zM1000.5 480q-7.5 -42 -14.5 -66.5t-9 -30.5h-604q6 -59 69.5 -93t173.5 -34q74 0 144.5 15.5t157.5 45.5l-41 -282
q-63 -27 -159.5 -44.5t-182.5 -17.5q-221 0 -350.5 120t-129.5 335q0 152 66.5 273.5t187.5 191.5t279 70q125 0 220 -49.5t147.5 -138.5t52.5 -206q0 -47 -7.5 -89zM688 594q-2 53 -36 82t-93 29q-63 0 -104 -30t-47 -81h280z" />
    <glyph glyph-name="ecaron.aalt" horiz-adv-x="1052" 
d="M434 1448l219 -236l219 236l148 -100l-232 -316h-268l-231 316zM1000.5 480q-7.5 -42 -14.5 -66.5t-9 -30.5h-604q6 -59 69.5 -93t173.5 -34q74 0 144.5 15.5t157.5 45.5l-41 -282q-63 -27 -159.5 -44.5t-182.5 -17.5q-221 0 -350.5 120t-129.5 335q0 152 66.5 273.5
t187.5 191.5t279 70q125 0 220 -49.5t147.5 -138.5t52.5 -206q0 -47 -7.5 -89zM688 594q-2 53 -36 82t-93 29q-63 0 -104 -30t-47 -81h280z" />
    <glyph glyph-name="ecircumflex.aalt" horiz-adv-x="1052" 
d="M522 1434h266l232 -316l-146 -100l-219 235l-219 -235l-145 100zM1000.5 480q-7.5 -42 -14.5 -66.5t-9 -30.5h-604q6 -59 69.5 -93t173.5 -34q74 0 144.5 15.5t157.5 45.5l-41 -282q-63 -27 -159.5 -44.5t-182.5 -17.5q-221 0 -350.5 120t-129.5 335q0 152 66.5 273.5
t187.5 191.5t279 70q125 0 220 -49.5t147.5 -138.5t52.5 -206q0 -47 -7.5 -89zM688 594q-2 53 -36 82t-93 29q-63 0 -104 -30t-47 -81h280z" />
    <glyph glyph-name="edieresis.aalt" horiz-adv-x="1052" 
d="M336 1074q-43 42 -43 106q0 66 43 106.5t106 40.5t105.5 -41t42.5 -106q0 -63 -42 -105.5t-106 -42.5q-63 0 -106 42zM764 1074q-43 42 -43 106q0 66 43 106.5t106 40.5t105.5 -41t42.5 -106q0 -63 -42 -105.5t-106 -42.5q-63 0 -106 42zM1000.5 480
q-7.5 -42 -14.5 -66.5t-9 -30.5h-604q6 -59 69.5 -93t173.5 -34q74 0 144.5 15.5t157.5 45.5l-41 -282q-63 -27 -159.5 -44.5t-182.5 -17.5q-221 0 -350.5 120t-129.5 335q0 152 66.5 273.5t187.5 191.5t279 70q125 0 220 -49.5t147.5 -138.5t52.5 -206q0 -47 -7.5 -89z
M688 594q-2 53 -36 82t-93 29q-63 0 -104 -30t-47 -81h280z" />
    <glyph glyph-name="edotaccent.aalt" horiz-adv-x="1052" 
d="M549 1074q-43 42 -43 106q0 66 43 106.5t106 40.5t105.5 -41t42.5 -106q0 -63 -42 -105.5t-106 -42.5q-63 0 -106 42zM1000.5 480q-7.5 -42 -14.5 -66.5t-9 -30.5h-604q6 -59 69.5 -93t173.5 -34q74 0 144.5 15.5t157.5 45.5l-41 -282q-63 -27 -159.5 -44.5t-182.5 -17.5
q-221 0 -350.5 120t-129.5 335q0 152 66.5 273.5t187.5 191.5t279 70q125 0 220 -49.5t147.5 -138.5t52.5 -206q0 -47 -7.5 -89zM688 594q-2 53 -36 82t-93 29q-63 0 -104 -30t-47 -81h280z" />
    <glyph glyph-name="egrave.aalt" horiz-adv-x="1052" 
d="M254 1341l147 152l347 -365l-93 -96zM1000.5 480q-7.5 -42 -14.5 -66.5t-9 -30.5h-604q6 -59 69.5 -93t173.5 -34q74 0 144.5 15.5t157.5 45.5l-41 -282q-63 -27 -159.5 -44.5t-182.5 -17.5q-221 0 -350.5 120t-129.5 335q0 152 66.5 273.5t187.5 191.5t279 70
q125 0 220 -49.5t147.5 -138.5t52.5 -206q0 -47 -7.5 -89zM688 594q-2 53 -36 82t-93 29q-63 0 -104 -30t-47 -81h280z" />
    <glyph glyph-name="emacron.aalt" horiz-adv-x="1052" 
d="M958 1251v-207h-604v207h604zM1000.5 480q-7.5 -42 -14.5 -66.5t-9 -30.5h-604q6 -59 69.5 -93t173.5 -34q74 0 144.5 15.5t157.5 45.5l-41 -282q-63 -27 -159.5 -44.5t-182.5 -17.5q-221 0 -350.5 120t-129.5 335q0 152 66.5 273.5t187.5 191.5t279 70q125 0 220 -49.5
t147.5 -138.5t52.5 -206q0 -47 -7.5 -89zM688 594q-2 53 -36 82t-93 29q-63 0 -104 -30t-47 -81h280z" />
    <glyph glyph-name="eogonek.aalt" horiz-adv-x="1052" 
d="M879 41q-66 -41 -97.5 -82t-31.5 -76q0 -29 21.5 -46t55.5 -17q33 0 70 14v-156q-78 -23 -131 -22q-96 0 -151.5 49t-55.5 121q0 55 38 112.5t110 102.5h172zM1000.5 480q-7.5 -42 -14.5 -66.5t-9 -30.5h-604q6 -59 69.5 -93t173.5 -34q74 0 144.5 15.5t157.5 45.5
l-41 -282q-63 -27 -159.5 -44.5t-182.5 -17.5q-221 0 -350.5 120t-129.5 335q0 152 66.5 273.5t187.5 191.5t279 70q125 0 220 -49.5t147.5 -138.5t52.5 -206q0 -47 -7.5 -89zM688 594q-2 53 -36 82t-93 29q-63 0 -104 -30t-47 -81h280z" />
    <glyph glyph-name="g.salt" horiz-adv-x="1210" 
d="M63 -387l39 278q76 -37 162 -57t168 -20q133 0 208 54t91 148l19 107q-51 -55 -130 -86t-169 -31q-117 0 -207 55.5t-140.5 154.5t-50.5 230q0 150 66.5 267.5t179.5 183.5t250 66q102 0 182 -37t133 -103l41 107h279l-135 -914q-16 -109 -59.5 -209t-176.5 -185
t-381 -85q-228 0 -369 76zM729.5 350.5q63.5 57.5 63.5 147.5q0 82 -53.5 131t-139.5 49q-92 0 -155.5 -56.5t-63.5 -148.5q0 -80 52 -130t138 -50q95 0 158.5 57.5z" />
    <glyph glyph-name="gbreve.salt" horiz-adv-x="1210" 
d="M918.5 1125.5q-105.5 -91.5 -263.5 -91.5q-166 0 -269 95.5t-112 250.5h215q2 -68 47.5 -105.5t118.5 -37.5q72 0 115 38t45 105h217q-8 -163 -113.5 -254.5zM63 -387l39 278q76 -37 162 -57t168 -20q133 0 208 54t91 148l19 107q-51 -55 -130 -86t-169 -31
q-117 0 -207 55.5t-140.5 154.5t-50.5 230q0 150 66.5 267.5t179.5 183.5t250 66q102 0 182 -37t133 -103l41 107h279l-135 -914q-16 -109 -59.5 -209t-176.5 -185t-381 -85q-228 0 -369 76zM729.5 350.5q63.5 57.5 63.5 147.5q0 82 -53.5 131t-139.5 49q-92 0 -155.5 -56.5
t-63.5 -148.5q0 -80 52 -130t138 -50q95 0 158.5 57.5z" />
    <glyph glyph-name="gcircumflex.salt" horiz-adv-x="1210" 
d="M520 1434h266l232 -316l-146 -100l-219 235l-219 -235l-145 100zM63 -387l39 278q76 -37 162 -57t168 -20q133 0 208 54t91 148l19 107q-51 -55 -130 -86t-169 -31q-117 0 -207 55.5t-140.5 154.5t-50.5 230q0 150 66.5 267.5t179.5 183.5t250 66q102 0 182 -37t133 -103
l41 107h279l-135 -914q-16 -109 -59.5 -209t-176.5 -185t-381 -85q-228 0 -369 76zM729.5 350.5q63.5 57.5 63.5 147.5q0 82 -53.5 131t-139.5 49q-92 0 -155.5 -56.5t-63.5 -148.5q0 -80 52 -130t138 -50q95 0 158.5 57.5z" />
    <glyph glyph-name="uni0123.salt" horiz-adv-x="1210" 
d="M762 1254.5q33 -35.5 33 -87.5q0 -59 -40 -97t-104 -38q-68 0 -107.5 48t-39.5 124q0 113 68.5 191t205.5 84v-62q-78 -12 -116.5 -50t-40.5 -91q16 14 55 14q53 0 86 -35.5zM63 -387l39 278q76 -37 162 -57t168 -20q133 0 208 54t91 148l19 107q-51 -55 -130 -86
t-169 -31q-117 0 -207 55.5t-140.5 154.5t-50.5 230q0 150 66.5 267.5t179.5 183.5t250 66q102 0 182 -37t133 -103l41 107h279l-135 -914q-16 -109 -59.5 -209t-176.5 -185t-381 -85q-228 0 -369 76zM729.5 350.5q63.5 57.5 63.5 147.5q0 82 -53.5 131t-139.5 49
q-92 0 -155.5 -56.5t-63.5 -148.5q0 -80 52 -130t138 -50q95 0 158.5 57.5z" />
    <glyph glyph-name="gdotaccent.salt" horiz-adv-x="1210" 
d="M547 1074q-43 42 -43 106q0 66 43 106.5t106 40.5t105.5 -41t42.5 -106q0 -63 -42 -105.5t-106 -42.5q-63 0 -106 42zM63 -387l39 278q76 -37 162 -57t168 -20q133 0 208 54t91 148l19 107q-51 -55 -130 -86t-169 -31q-117 0 -207 55.5t-140.5 154.5t-50.5 230
q0 150 66.5 267.5t179.5 183.5t250 66q102 0 182 -37t133 -103l41 107h279l-135 -914q-16 -109 -59.5 -209t-176.5 -185t-381 -85q-228 0 -369 76zM729.5 350.5q63.5 57.5 63.5 147.5q0 82 -53.5 131t-139.5 49q-92 0 -155.5 -56.5t-63.5 -148.5q0 -80 52 -130t138 -50
q95 0 158.5 57.5z" />
    <glyph glyph-name="s.aalt" horiz-adv-x="919" 
d="M203.5 871.5q115.5 91.5 308.5 91.5q88 0 182 -17.5t154 -46.5l-39 -278q-61 33 -148.5 53t-162.5 20q-45 0 -64.5 -8t-19.5 -29q0 -18 16 -26t62 -17l65 -12q276 -53 277 -289q0 -156 -117 -248t-328 -92q-98 0 -199.5 19.5t-148.5 46.5l41 287q70 -41 161 -64.5
t171 -23.5q47 0 69.5 9t22.5 32q0 18 -13.5 25t-37.5 11l-80 17q-115 25 -201 83t-86 208q0 157 115.5 248.5z" />
    <glyph glyph-name="sacute.aalt" horiz-adv-x="919" 
d="M457 1128l346 365l147 -152l-403 -309zM203.5 871.5q115.5 91.5 308.5 91.5q88 0 182 -17.5t154 -46.5l-39 -278q-61 33 -148.5 53t-162.5 20q-45 0 -64.5 -8t-19.5 -29q0 -18 16 -26t62 -17l65 -12q276 -53 277 -289q0 -156 -117 -248t-328 -92q-98 0 -199.5 19.5
t-148.5 46.5l41 287q70 -41 161 -64.5t171 -23.5q47 0 69.5 9t22.5 32q0 18 -13.5 25t-37.5 11l-80 17q-115 25 -201 83t-86 208q0 157 115.5 248.5z" />
    <glyph glyph-name="scaron.aalt" horiz-adv-x="919" 
d="M326 1448l219 -236l219 236l147 -100l-231 -316h-268l-232 316zM203.5 871.5q115.5 91.5 308.5 91.5q88 0 182 -17.5t154 -46.5l-39 -278q-61 33 -148.5 53t-162.5 20q-45 0 -64.5 -8t-19.5 -29q0 -18 16 -26t62 -17l65 -12q276 -53 277 -289q0 -156 -117 -248t-328 -92
q-98 0 -199.5 19.5t-148.5 46.5l41 287q70 -41 161 -64.5t171 -23.5q47 0 69.5 9t22.5 32q0 18 -13.5 25t-37.5 11l-80 17q-115 25 -201 83t-86 208q0 157 115.5 248.5z" />
    <glyph glyph-name="scedilla.salt" horiz-adv-x="919" 
d="M399 -76q74 0 138.5 -49t64.5 -154q0 -113 -83 -174t-200 -61q-98 0 -174 43v154q23 -23 60 -35.5t76 -12.5q51 0 85.5 24t34.5 71q0 45 -30.5 68.5t-79.5 23.5q-12 0 -41 -4l-53 55l141 240h127l-10 -76l-78 -115zM203.5 871.5q-115.5 -91.5 -115.5 -248.5
q0 -150 86 -208.5t201 -82.5l80 -17q25 -4 38 -11t13 -25q0 -23 -22.5 -32t-69.5 -9q-80 0 -171 23.5t-161 64.5l-41 -287q47 -27 148.5 -46.5t199.5 -19.5q211 0 328 92.5t117 247.5q0 236 -277 289l-65 12q-45 8 -61.5 16.5t-16.5 26.5q0 20 19.5 28.5t64.5 8.5
q76 0 163 -20.5t148 -52.5l39 278q-59 29 -153.5 46.5t-182.5 17.5q-193 0 -308.5 -91.5z" />
    <glyph glyph-name="scircumflex.aalt" horiz-adv-x="919" 
d="M414 1434h266l231 -316l-145 -100l-219 235l-219 -235l-146 100zM203.5 871.5q115.5 91.5 308.5 91.5q88 0 182 -17.5t154 -46.5l-39 -278q-61 33 -148.5 53t-162.5 20q-45 0 -64.5 -8t-19.5 -29q0 -18 16 -26t62 -17l65 -12q276 -53 277 -289q0 -156 -117 -248t-328 -92
q-98 0 -199.5 19.5t-148.5 46.5l41 287q70 -41 161 -64.5t171 -23.5q47 0 69.5 9t22.5 32q0 18 -13.5 25t-37.5 11l-80 17q-115 25 -201 83t-86 208q0 157 115.5 248.5z" />
    <glyph glyph-name="uni0219.aalt" horiz-adv-x="915" 
d="M489.5 -138q40.5 -48 40.5 -124q0 -113 -67.5 -190.5t-206.5 -86.5v62q76 14 115 50t43 89q-23 -12 -54 -12q-53 0 -86.5 35.5t-33.5 89.5q0 59 39.5 97t103.5 38q66 0 106.5 -48zM203.5 871.5q115.5 91.5 308.5 91.5q88 0 182 -17.5t154 -46.5l-39 -278
q-61 33 -148.5 53t-162.5 20q-45 0 -64.5 -8t-19.5 -29q0 -18 16 -26t62 -17l65 -12q276 -53 277 -289q0 -156 -117 -248t-328 -92q-98 0 -199.5 19.5t-148.5 46.5l41 287q70 -41 161 -64.5t171 -23.5q47 0 69.5 9t22.5 32q0 18 -13.5 25t-37.5 11l-80 17q-115 25 -201 83
t-86 208q0 157 115.5 248.5z" />
    <glyph glyph-name="t.aalt" horiz-adv-x="720" 
d="M57 733l482 469h28l-39 -272h226l-37 -262h-225l-37 -265q-4 -25 -4 -43q0 -104 116 -104q53 0 95 10l-39 -266q-84 -18 -172 -18q-322 0 -322 288q0 61 12 140l37 258h-129z" />
    <glyph glyph-name="tbar.aalt" horiz-adv-x="712" 
d="M57 733l482 469h28l-39 -272h226l-37 -262h-225l-37 -265q-4 -25 -4 -43q0 -104 116 -104q53 0 95 10l-39 -266q-84 -18 -172 -18q-322 0 -322 288q0 61 12 140l37 258h-129zM678 358l-628 217l34 242l628 -217z" />
    <glyph glyph-name="tcaron.aalt" horiz-adv-x="774" 
d="M788 1030h-161l57 408h207zM57 733l482 469h28l-39 -272h226l-37 -262h-225l-37 -265q-4 -25 -4 -43q0 -104 116 -104q53 0 95 10l-39 -266q-84 -18 -172 -18q-322 0 -322 288q0 61 12 140l37 258h-129z" />
    <glyph glyph-name="uni0163.salt" horiz-adv-x="720" 
d="M434 -74q74 0 138.5 -49t64.5 -153q0 -113 -83 -174.5t-200 -61.5q-98 0 -174 43v154q23 -23 59.5 -35t75.5 -12q51 0 86 23.5t35 70.5q0 45 -30.5 68.5t-79.5 23.5q-12 0 -41 -4l-54 55l142 240h127l-11 -76l-77 -115zM57 733l-8 -65h129l-37 -258q-12 -78 -12 -140
q0 -289 322 -288q88 0 172 18l39 266q-41 -10 -95 -10q-117 0 -116 104q0 18 4 43l37 265h225l37 262h-226l39 272h-28z" />
    <glyph glyph-name="uni021B.aalt" horiz-adv-x="720" 
d="M496 -136q41 -48 41 -124q0 -113 -68 -190.5t-207 -86.5v62q76 14 115 50t43 89q-23 -12 -53 -12q-53 0 -87 36t-34 89q0 59 40 97t103 38q66 0 107 -48zM57 733l482 469h28l-39 -272h226l-37 -262h-225l-37 -265q-4 -25 -4 -43q0 -104 116 -104q53 0 95 10l-39 -266
q-84 -18 -172 -18q-322 0 -322 288q0 61 12 140l37 258h-129z" />
    <glyph glyph-name="y.salt" horiz-adv-x="1157" 
d="M1202 930l-778 -1374h-352l293 522l-279 852h350l133 -492l271 492h362z" />
    <glyph glyph-name="yacute.aalt" horiz-adv-x="1157" 
d="M549 1096l346 364l147 -151l-403 -310zM1202 930l-778 -1374h-352l293 522l-279 852h350l133 -492l271 492h362z" />
    <glyph glyph-name="ycircumflex.aalt" horiz-adv-x="1157" 
d="M506 1401h266l232 -316l-146 -100l-219 236l-219 -236l-146 100zM1202 930l-778 -1374h-352l293 522l-279 852h350l133 -492l271 492h362z" />
    <glyph glyph-name="ydieresis.aalt" horiz-adv-x="1157" 
d="M319 1041q-43 42 -43 106q0 66 43 106.5t107 40.5q63 0 105 -41t42 -106q0 -63 -42 -105.5t-105 -42.5q-64 0 -107 42zM748 1041q-43 42 -43 106q0 66 43 106.5t106 40.5t105 -41t42 -106q0 -63 -41.5 -105.5t-105.5 -42.5q-63 0 -106 42zM1202 930l-778 -1374h-352
l293 522l-279 852h350l133 -492l271 492h362z" />
    <glyph glyph-name="ygrave.aalt" horiz-adv-x="1157" 
d="M238 1309l147 151l346 -364l-92 -97zM1202 930l-778 -1374h-352l293 522l-279 852h350l133 -492l271 492h362z" />
    <glyph glyph-name="z.aalt" horiz-adv-x="907" 
d="M901 893l-399 -610h315l-39 -283h-780l4 35l397 616h-297l39 279h764z" />
    <glyph glyph-name="zacute.aalt" horiz-adv-x="907" 
d="M422 1096l346 364l147 -151l-403 -310zM901 893l-399 -610h315l-39 -283h-780l4 35l397 616h-297l39 279h764z" />
    <glyph glyph-name="zcaron.aalt" horiz-adv-x="907" 
d="M291 1415l219 -235l219 235l148 -100l-232 -316h-268l-232 316zM901 893l-399 -610h315l-39 -283h-780l4 35l397 616h-297l39 279h764z" />
    <glyph glyph-name="zdotaccent.aalt" horiz-adv-x="907" 
d="M405.5 1041q-43.5 42 -43.5 106q0 66 43.5 106.5t106.5 40.5t105 -41t42 -106q0 -63 -42 -105.5t-105 -42.5t-106.5 42zM901 893l-399 -610h315l-39 -283h-780l4 35l397 616h-297l39 279h764z" />
    <glyph glyph-name="a.aalt" horiz-adv-x="1040" 
d="M856.5 872.5q106.5 -90.5 106.5 -260.5q0 -37 -7 -80l-73 -532h-265l-10 96q-45 -59 -120.5 -91t-168.5 -32q-131 0 -207.5 73t-76.5 194q0 135 101.5 219t281.5 100l239 23l2 20q6 57 -27.5 90t-94.5 33q-66 0 -109 -33t-47 -86h-272q16 160 143 258.5t319 98.5
q179 0 285.5 -90.5zM572 243q46 40 55 105l4 35l-135 -12q-131 -10 -131 -92q0 -37 24.5 -56.5t69.5 -19.5q67 0 113 40z" />
    <glyph glyph-name="aacute.aalt" horiz-adv-x="1040" 
d="M500 1128l346 365l147 -152l-403 -309zM856.5 872.5q106.5 -90.5 106.5 -260.5q0 -37 -7 -80l-73 -532h-265l-10 96q-45 -59 -120.5 -91t-168.5 -32q-131 0 -207.5 73t-76.5 194q0 135 101.5 219t281.5 100l239 23l2 20q6 57 -27.5 90t-94.5 33q-66 0 -109 -33t-47 -86
h-272q16 160 143 258.5t319 98.5q179 0 285.5 -90.5zM572 243q46 40 55 105l4 35l-135 -12q-131 -10 -131 -92q0 -37 24.5 -56.5t69.5 -19.5q67 0 113 40z" />
    <glyph glyph-name="abreve.aalt" horiz-adv-x="1040" 
d="M855.5 1125.5q-105.5 -91.5 -263.5 -91.5q-166 0 -269.5 95.5t-111.5 250.5h215q2 -68 47 -105.5t119 -37.5q72 0 115 38t45 105h217q-8 -163 -113.5 -254.5zM856.5 872.5q106.5 -90.5 106.5 -260.5q0 -37 -7 -80l-73 -532h-265l-10 96q-45 -59 -120.5 -91t-168.5 -32
q-131 0 -207.5 73t-76.5 194q0 135 101.5 219t281.5 100l239 23l2 20q6 57 -27.5 90t-94.5 33q-66 0 -109 -33t-47 -86h-272q16 160 143 258.5t319 98.5q179 0 285.5 -90.5zM572 243q46 40 55 105l4 35l-135 -12q-131 -10 -131 -92q0 -37 24.5 -56.5t69.5 -19.5q67 0 113 40
z" />
    <glyph glyph-name="acircumflex.aalt" horiz-adv-x="1040" 
d="M457 1434h266l231 -316l-145 -100l-219 235l-219 -235l-146 100zM856.5 872.5q106.5 -90.5 106.5 -260.5q0 -37 -7 -80l-73 -532h-265l-10 96q-45 -59 -120.5 -91t-168.5 -32q-131 0 -207.5 73t-76.5 194q0 135 101.5 219t281.5 100l239 23l2 20q6 57 -27.5 90t-94.5 33
q-66 0 -109 -33t-47 -86h-272q16 160 143 258.5t319 98.5q179 0 285.5 -90.5zM572 243q46 40 55 105l4 35l-135 -12q-131 -10 -131 -92q0 -37 24.5 -56.5t69.5 -19.5q67 0 113 40z" />
    <glyph glyph-name="adieresis.aalt" horiz-adv-x="1040" 
d="M270 1074q-43 42 -43 106q0 66 43 106.5t107 40.5q63 0 105 -41t42 -106q0 -63 -42 -105.5t-105 -42.5q-64 0 -107 42zM698 1074q-43 42 -43 106q0 66 43 106.5t107 40.5q63 0 105 -41t42 -106q0 -63 -42 -105.5t-105 -42.5q-64 0 -107 42zM856.5 872.5
q106.5 -90.5 106.5 -260.5q0 -37 -7 -80l-73 -532h-265l-10 96q-45 -59 -120.5 -91t-168.5 -32q-131 0 -207.5 73t-76.5 194q0 135 101.5 219t281.5 100l239 23l2 20q6 57 -27.5 90t-94.5 33q-66 0 -109 -33t-47 -86h-272q16 160 143 258.5t319 98.5q179 0 285.5 -90.5z
M572 243q46 40 55 105l4 35l-135 -12q-131 -10 -131 -92q0 -37 24.5 -56.5t69.5 -19.5q67 0 113 40z" />
    <glyph glyph-name="agrave.aalt" horiz-adv-x="1040" 
d="M188 1341l148 152l346 -365l-92 -96zM856.5 872.5q106.5 -90.5 106.5 -260.5q0 -37 -7 -80l-73 -532h-265l-10 96q-45 -59 -120.5 -91t-168.5 -32q-131 0 -207.5 73t-76.5 194q0 135 101.5 219t281.5 100l239 23l2 20q6 57 -27.5 90t-94.5 33q-66 0 -109 -33t-47 -86
h-272q16 160 143 258.5t319 98.5q179 0 285.5 -90.5zM572 243q46 40 55 105l4 35l-135 -12q-131 -10 -131 -92q0 -37 24.5 -56.5t69.5 -19.5q67 0 113 40z" />
    <glyph glyph-name="amacron.aalt" horiz-adv-x="1040" 
d="M893 1251v-207h-604v207h604zM856.5 872.5q106.5 -90.5 106.5 -260.5q0 -37 -7 -80l-73 -532h-265l-10 96q-45 -59 -120.5 -91t-168.5 -32q-131 0 -207.5 73t-76.5 194q0 135 101.5 219t281.5 100l239 23l2 20q6 57 -27.5 90t-94.5 33q-66 0 -109 -33t-47 -86h-272
q16 160 143 258.5t319 98.5q179 0 285.5 -90.5zM572 243q46 40 55 105l4 35l-135 -12q-131 -10 -131 -92q0 -37 24.5 -56.5t69.5 -19.5q67 0 113 40z" />
    <glyph glyph-name="aogonek.aalt" horiz-adv-x="1040" 
d="M883 0q-66 -41 -97.5 -82t-31.5 -76q0 -29 21.5 -46t55.5 -17q33 0 70 14v-155q-78 -23 -131 -23q-96 0 -151.5 49t-55.5 121q0 55 38 112.5t110 102.5h172zM856.5 872.5q106.5 -90.5 106.5 -260.5q0 -37 -7 -80l-73 -532h-265l-10 96q-45 -59 -120.5 -91t-168.5 -32
q-131 0 -207.5 73t-76.5 194q0 135 101.5 219t281.5 100l239 23l2 20q6 57 -27.5 90t-94.5 33q-66 0 -109 -33t-47 -86h-272q16 160 143 258.5t319 98.5q179 0 285.5 -90.5zM572 243q46 40 55 105l4 35l-135 -12q-131 -10 -131 -92q0 -37 24.5 -56.5t69.5 -19.5q67 0 113 40
z" />
    <glyph glyph-name="aring.aalt" horiz-adv-x="1040" 
d="M430 1048.5q-68 38.5 -102.5 102t-34.5 133.5q0 72 34.5 135.5t102.5 102.5t160 39q90 0 157.5 -40t103.5 -103.5t36 -133.5t-36 -133.5t-103.5 -102t-157.5 -38.5q-92 0 -160 38.5zM664.5 1209.5q29.5 31.5 29.5 78.5q0 43 -30.5 74t-73.5 31q-45 0 -75 -31t-30 -74
q0 -47 30 -78.5t75 -31.5t74.5 31.5zM856.5 872.5q106.5 -90.5 106.5 -260.5q0 -37 -7 -80l-73 -532h-265l-10 96q-45 -59 -120.5 -91t-168.5 -32q-131 0 -207.5 73t-76.5 194q0 135 101.5 219t281.5 100l239 23l2 20q6 57 -27.5 90t-94.5 33q-66 0 -109 -33t-47 -86h-272
q16 160 143 258.5t319 98.5q179 0 285.5 -90.5zM572 243q46 40 55 105l4 35l-135 -12q-131 -10 -131 -92q0 -37 24.5 -56.5t69.5 -19.5q67 0 113 40z" />
    <glyph glyph-name="aringacute.aalt" horiz-adv-x="1048" 
d="M529 1270l450 225l87 -193l-485 -153zM526.5 852q67.5 -39 159.5 -39q90 0 157.5 39t103.5 102.5t36 132.5q0 70 -36 133.5t-103.5 103.5t-157.5 40q-92 0 -159.5 -39t-102.5 -102.5t-35 -135.5q0 -70 35 -133t102.5 -102zM761 1012.5q-30 -31.5 -75 -31.5t-74.5 31.5
t-29.5 79.5q0 43 29.5 73.5t74.5 30.5q43 0 74 -30.5t31 -73.5q0 -48 -30 -79.5zM856.5 872.5q106.5 -90.5 106.5 -260.5q0 -37 -7 -80l-73 -532h-265l-10 96q-45 -59 -120.5 -91t-168.5 -32q-131 0 -207.5 73t-76.5 194q0 135 101.5 219t281.5 100l239 23l2 20
q6 57 -27.5 90t-94.5 33q-66 0 -109 -33t-47 -86h-272q16 160 143 258.5t319 98.5q179 0 285.5 -90.5zM572 243q46 40 55 105l4 35l-135 -12q-131 -10 -131 -92q0 -37 24.5 -56.5t69.5 -19.5q67 0 113 40z" />
    <glyph glyph-name="atilde.aalt" horiz-adv-x="1040" 
d="M250 1112q0 113 53 178.5t139 65.5q45 0 83 -16.5t89 -47.5q25 -14 49.5 -26.5t43.5 -12.5q37 0 51 23.5t12 73.5h152q8 -53 8 -76q0 -102 -53.5 -166t-139.5 -64q-45 0 -86 16.5t-92 47.5q-25 14 -48.5 25.5t-39.5 11.5q-41 0 -54.5 -34t-8.5 -79h-152q-6 43 -6 80z
M856.5 872.5q106.5 -90.5 106.5 -260.5q0 -37 -7 -80l-73 -532h-265l-10 96q-45 -59 -120.5 -91t-168.5 -32q-131 0 -207.5 73t-76.5 194q0 135 101.5 219t281.5 100l239 23l2 20q6 57 -27.5 90t-94.5 33q-66 0 -109 -33t-47 -86h-272q16 160 143 258.5t319 98.5
q179 0 285.5 -90.5zM572 243q46 40 55 105l4 35l-135 -12q-131 -10 -131 -92q0 -37 24.5 -56.5t69.5 -19.5q67 0 113 40z" />
    <glyph glyph-name="g.ss02" horiz-adv-x="989" 
d="M1047 784h-150q31 -61 31 -139q0 -131 -70 -212t-170 -146l-160 -105h19q152 0 245 -79.5t93 -211.5q0 -109 -65.5 -192.5t-182.5 -129.5t-264 -46q-201 0 -320 86t-129 246h299q10 -39 52 -61.5t110 -22.5q82 0 128 29.5t46 78.5q0 47 -42 71.5t-116 24.5
q-119 0 -231 -49l-78 154l256 174q-143 23 -222 102.5t-79 208.5q0 113 61.5 203t171 142.5t252.5 52.5q88 0 166 -23l381 76zM580 524q41 37 41 92q0 47 -33 77t-86 30q-63 0 -104.5 -38t-41.5 -95q0 -45 32 -74t85 -29q66 0 107 37z" />
    <glyph glyph-name="gbreve.ss02" horiz-adv-x="989" 
d="M803.5 1125.5q-105.5 -91.5 -262.5 -91.5q-166 0 -269.5 95.5t-111.5 250.5h215q2 -68 47 -105.5t119 -37.5q72 0 114.5 38t44.5 105h218q-9 -163 -114.5 -254.5zM1047 784h-150q31 -61 31 -139q0 -131 -70 -212t-170 -146l-160 -105h19q152 0 245 -79.5t93 -211.5
q0 -109 -65.5 -192.5t-182.5 -129.5t-264 -46q-201 0 -320 86t-129 246h299q10 -39 52 -61.5t110 -22.5q82 0 128 29.5t46 78.5q0 47 -42 71.5t-116 24.5q-119 0 -231 -49l-78 154l256 174q-143 23 -222 102.5t-79 208.5q0 113 61.5 203t171 142.5t252.5 52.5q88 0 166 -23
l381 76zM580 524q41 37 41 92q0 47 -33 77t-86 30q-63 0 -104.5 -38t-41.5 -95q0 -45 32 -74t85 -29q66 0 107 37z" />
    <glyph glyph-name="gcircumflex.ss02" horiz-adv-x="989" 
d="M406 1434h266l231 -316l-145 -100l-219 235l-220 -235l-145 100zM1047 784h-150q31 -61 31 -139q0 -131 -70 -212t-170 -146l-160 -105h19q152 0 245 -79.5t93 -211.5q0 -109 -65.5 -192.5t-182.5 -129.5t-264 -46q-201 0 -320 86t-129 246h299q10 -39 52 -61.5
t110 -22.5q82 0 128 29.5t46 78.5q0 47 -42 71.5t-116 24.5q-119 0 -231 -49l-78 154l256 174q-143 23 -222 102.5t-79 208.5q0 113 61.5 203t171 142.5t252.5 52.5q88 0 166 -23l381 76zM580 524q41 37 41 92q0 47 -33 77t-86 30q-63 0 -104.5 -38t-41.5 -95q0 -45 32 -74
t85 -29q66 0 107 37z" />
    <glyph glyph-name="uni0123.ss02" horiz-adv-x="989" 
d="M647 1254.5q33 -35.5 33 -87.5q0 -59 -40 -97t-103 -38q-68 0 -108 48t-40 124q0 113 68.5 191t206.5 84v-62q-78 -12 -117 -50t-41 -91q16 14 55 14q53 0 86 -35.5zM1047 784h-150q31 -61 31 -139q0 -131 -70 -212t-170 -146l-160 -105h19q152 0 245 -79.5t93 -211.5
q0 -109 -65.5 -192.5t-182.5 -129.5t-264 -46q-201 0 -320 86t-129 246h299q10 -39 52 -61.5t110 -22.5q82 0 128 29.5t46 78.5q0 47 -42 71.5t-116 24.5q-119 0 -231 -49l-78 154l256 174q-143 23 -222 102.5t-79 208.5q0 113 61.5 203t171 142.5t252.5 52.5q88 0 166 -23
l381 76zM580 524q41 37 41 92q0 47 -33 77t-86 30q-63 0 -104.5 -38t-41.5 -95q0 -45 32 -74t85 -29q66 0 107 37z" />
    <glyph glyph-name="gdotaccent.ss02" horiz-adv-x="989" 
d="M432 1074q-43 42 -43 106q0 66 43 106.5t107 40.5q63 0 105 -41t42 -106q0 -63 -42 -105.5t-105 -42.5q-64 0 -107 42zM1047 784h-150q31 -61 31 -139q0 -131 -70 -212t-170 -146l-160 -105h19q152 0 245 -79.5t93 -211.5q0 -109 -65.5 -192.5t-182.5 -129.5t-264 -46
q-201 0 -320 86t-129 246h299q10 -39 52 -61.5t110 -22.5q82 0 128 29.5t46 78.5q0 47 -42 71.5t-116 24.5q-119 0 -231 -49l-78 154l256 174q-143 23 -222 102.5t-79 208.5q0 113 61.5 203t171 142.5t252.5 52.5q88 0 166 -23l381 76zM580 524q41 37 41 92q0 47 -33 77
t-86 30q-63 0 -104.5 -38t-41.5 -95q0 -45 32 -74t85 -29q66 0 107 37z" />
    <glyph glyph-name="j.ss02" horiz-adv-x="550" 
d="M244 1103q-51 50 -51 124q0 59 32.5 110.5t87 82t115.5 30.5q80 0 132 -49t52 -123q0 -59 -32.5 -111.5t-88 -83t-116.5 -30.5q-80 0 -131 50zM-98 -195q143 0 164 150l135 975h315l-139 -1012q-27 -195 -144.5 -288t-308.5 -93q-76 0 -139 14l37 261q37 -7 80 -7z" />
    <glyph glyph-name="o.aalt" horiz-adv-x="1144" 
d="M133 707.5q70 119.5 194 187.5t279 68q145 0 253 -58.5t165 -164t57 -242.5q0 -152 -69.5 -272t-193.5 -186.5t-279 -66.5q-145 0 -253 58.5t-165.5 164t-57.5 240.5q0 152 70 271.5z" />
    <glyph glyph-name="germandbls.aalt" horiz-adv-x="1198" 
d="M195 872q33 229 187.5 349t383.5 120q184 0 290.5 -76.5t106.5 -207.5q0 -90 -44 -171t-122 -132l-79 -54q-12 -8 -41 -26.5t-36 -29.5t-7 -28q0 -14 9 -23t26.5 -21.5t29.5 -20.5l51 -37q66 -49 112 -104.5t46 -137.5q0 -84 -49 -151.5t-135 -106.5t-193 -39
q-131 0 -204.5 58.5t-73.5 159.5q0 27 2 40l225 37q-4 -20 -4 -26q0 -27 17.5 -42.5t47.5 -15.5q33 0 54.5 14.5t21.5 39.5q0 23 -19.5 40t-78.5 54l-51 33q-59 39 -101.5 87t-42.5 124q0 68 36 128t104 101l102 63q88 55 88 131q0 43 -34 69t-95 26q-96 0 -154.5 -60.5
t-74.5 -169.5l-121 -864h-303z" />
    <glyph glyph-name="y.ss03" horiz-adv-x="1122" 
d="M1167 930l-514 -910l-14 -100q-27 -188 -148.5 -285.5t-308.5 -97.5q-70 0 -133 14l37 261q37 -10 84 -11q63 0 97 26t44.5 54.5t16.5 71.5l10 67l-252 910h324l28 -142l43 -204q37 -164 51 -254q66 166 201 430l88 170h346z" />
    <glyph glyph-name="c_h.dlig" horiz-adv-x="2263" 
d="M2117.5 882q75.5 -81 75.5 -220q0 -41 -6 -84l-82 -578h-317l72 502q4 33 4 43q0 82 -41 106.5t-78 24.5q-160 0 -182 -168l-72 -508h-315l139 989l10 66q2 8 2 22q0 37 -21.5 55.5t-54.5 18.5q-88 0 -104 -107l-8 -55l-62 -438h-323q-14 59 -59.5 95t-104.5 36
q-88 0 -144.5 -64.5t-56.5 -168.5q0 -90 44 -143.5t122 -53.5q61 0 111.5 36t66.5 93h320q-14 -115 -87 -208t-188.5 -146.5t-251.5 -53.5q-139 0 -243.5 58.5t-162 164t-57.5 242.5q0 152 70 271.5t191.5 186.5t273.5 67q168 0 291 -84l16 110l13 90q20 160 135.5 259.5
t279.5 99.5q150 0 234 -78t84 -217q0 -33 -6 -74l-13 -80l-20 -141q49 55 124.5 85t161.5 30q144 0 219.5 -81z" />
    <glyph glyph-name="c_k.dlig" horiz-adv-x="2242" 
d="M1917 584l229 -586h-360l-129 348l-131 -119l-33 -229h-317l139 991l10 66q2 8 2 22q0 37 -21.5 55.5t-54.5 18.5q-88 0 -104 -107l-8 -55l-62 -438h-323q-14 59 -59.5 95t-104.5 36q-88 0 -144.5 -64.5t-56.5 -168.5q0 -90 44 -143.5t122 -53.5q61 0 111.5 36t66.5 93
h320q-14 -115 -87 -208t-188.5 -146.5t-251.5 -53.5q-139 0 -243.5 58.5t-162 164t-57.5 242.5q0 152 70 271.5t191.5 186.5t273.5 67q168 0 291 -84l16 110l13 90q20 160 135.5 259.5t279.5 99.5q150 0 234 -78t84 -217q0 -33 -6 -74l-13 -80l-53 -373l326 312h393z" />
    <glyph glyph-name="c_t.dlig" horiz-adv-x="1812" 
d="M1821 668h-170l-95 -668h-317l94 668h-129l37 262h127l16 121q2 10 2 28q0 47 -26.5 71t-73.5 24q-55 0 -93 -35t-46 -99l-70 -489h-323q-14 59 -59.5 95t-104.5 36q-88 0 -144.5 -64.5t-56.5 -168.5q0 -90 44 -143.5t122 -53.5q61 0 111.5 36t66.5 93h320
q-14 -115 -87 -208t-188.5 -146.5t-251.5 -53.5q-139 0 -243.5 58.5t-162 164t-57.5 242.5q0 152 70 271.5t191.5 186.5t273.5 67q168 0 293 -84l22 161q27 195 149 296.5t310 101.5q162 0 251 -82t89 -223q0 -18 -4 -64l-20 -139h170z" />
    <glyph glyph-name="c_t_i.dlig" horiz-adv-x="2330" 
d="M2341 1401q51 -49 51 -121q0 -59 -32.5 -111.5t-88 -84t-117.5 -31.5q-80 0 -131 49t-51 123q0 59 33 111.5t88 83t119 30.5q78 0 129 -49zM1688 930h608l-131 -930h-318l95 668h-291l-95 -668h-317l94 668h-131l37 262h129l16 121q2 10 2 28q0 47 -26.5 71t-73.5 24
q-55 0 -93 -35t-46 -99l-70 -489h-323q-14 59 -59.5 95t-104.5 36q-88 0 -144.5 -64.5t-56.5 -168.5q0 -90 44 -143.5t122 -53.5q61 0 111.5 36t66.5 93h320q-14 -115 -87 -208t-188.5 -146.5t-251.5 -53.5q-139 0 -243.5 58.5t-162 164t-57.5 242.5q0 152 70 271.5
t191.5 186.5t273.5 67q168 0 293 -84l22 161q27 195 149 296.5t310 101.5q160 0 250 -82t90 -221q0 -43 -4 -66z" />
    <glyph glyph-name="c_t_t.dlig" horiz-adv-x="2457" 
d="M2466 668h-172l-94 -668h-318l94 668h-329l-95 -668h-317l94 668h-129l37 262h127l16 121q2 10 2 28q0 47 -26.5 71t-73.5 24q-55 0 -93 -35t-46 -99l-68 -473l2 -16h-323q-14 59 -59.5 95t-104.5 36q-88 0 -144.5 -64.5t-56.5 -168.5q0 -90 44 -143.5t122 -53.5
q61 0 111.5 36t66.5 93h320q-14 -115 -87 -208t-188.5 -146.5t-251.5 -53.5q-139 0 -243.5 58.5t-162 164t-57.5 242.5q0 152 70 271.5t191.5 186.5t273.5 67q170 0 289 -82l22 159q27 195 149 296.5t310 101.5q162 0 251 -82t89 -223q0 -18 -4 -64l-21 -139h330l33 239h317
l-32 -239h172z" />
    <glyph glyph-name="w_w_w.dlig" horiz-adv-x="4036" 
d="M2857 930l55 -508l209 489h336l55 -512l213 531h346l-460 -930h-308l-63 516l-213 -516h-324l-182 930h336zM1645 930l55 -508l209 489h336l55 -512l213 531h346l-461 -930h-307l-63 516l-213 -516h-324l-182 930h336zM432 930l55 -508l209 489h336l55 -512l213 531h347
l-461 -930h-307l-64 516l-213 -516h-323l-183 930h336z" />
    <glyph glyph-name="c_h.dlig.salt" horiz-adv-x="2029" 
d="M1885 883q75 -80 75 -221q0 -41 -6 -84l-82 -578h-318l72 502q4 33 4 43q0 82 -41 106.5t-78 24.5q-160 0 -182 -168l-72 -508h-315l139 989l11 66q2 8 2 22q0 37 -21.5 55.5t-54.5 18.5q-88 0 -105 -107l-8 -55l-10 -80l-37 -264q-37 16 -88 25.5t-102 9.5
q-127 0 -203 -59.5t-76 -167.5q0 -90 60.5 -143.5t162.5 -53.5q45 0 105.5 10t107.5 27l-39 -279q-117 -41 -241 -41q-223 0 -353.5 122t-130.5 333q0 160 75 281.5t210 187.5t309 66h13l4 26l12 90q20 160 136 259.5t280 99.5q150 0 233.5 -78t83.5 -217q0 -33 -6 -74
l-12 -80l-19 -141q49 55 124 85t161 30q145 0 220 -80z" />
    <glyph glyph-name="c_k.dlig.salt" horiz-adv-x="2009" 
d="M1683 584l230 -586h-361l-129 348l-133 -119l-30 -229h-318l139 991l9 66q6 49 -14.5 72.5t-57.5 23.5q-88 0 -105 -107l-8 -55l-8 -59l-39 -285q-37 16 -88 25.5t-102 9.5q-127 0 -203 -59.5t-76 -167.5q0 -90 60.5 -143.5t162.5 -53.5q45 0 105.5 10t107.5 27l-39 -279
q-117 -41 -241 -41q-223 0 -353.5 122t-130.5 333q0 160 75 281.5t210 187.5t309 66h13l4 26l12 90q20 162 136 260.5t280 98.5q152 0 232.5 -79t80.5 -222q0 -18 -4 -68l-10 -80l-53 -373l325 312h393z" />
    <glyph glyph-name="c_t.dlig.salt" horiz-adv-x="1646" 
d="M1382 403q-4 -25 -4 -45q0 -102 115 -102q27 0 52.5 3t41.5 7l-37 -266q-88 -18 -172 -18q-188 0 -257.5 80.5t-69.5 207.5q0 61 12 140l37 258h-123l8 65l145 152l23 166q2 10 2 28q0 47 -26.5 71t-75.5 24q-57 0 -94 -37t-46 -97l-43 -309l-12 -86q-37 16 -88 25.5
t-102 9.5q-127 0 -203 -59.5t-76 -167.5q0 -90 60.5 -143.5t162.5 -53.5q45 0 105.5 10t107.5 27l-39 -279q-117 -41 -241 -41q-223 0 -353.5 122t-130.5 333q0 160 75 281.5t210 187.5t309 66h15l10 77q27 195 148.5 296.5t310.5 101.5q162 0 251 -82t89 -223q0 -18 -4 -64
l-19 -139h225l-36 -262h-226z" />
    <glyph glyph-name="c_t_i.dlig.salt" horiz-adv-x="2174" 
d="M2007 0h-317l94 668h-367l-37 -265q-4 -25 -4 -43q0 -104 117 -104q27 0 52.5 3t41.5 7l-39 -266q-84 -18 -172 -18q-186 0 -255.5 81.5t-69.5 208.5q0 59 12 138l35 258h-123l10 65l145 152l23 166q2 10 2 26q0 47 -27.5 72t-74.5 25q-55 0 -93 -35t-47 -99l-32 -231
l-23 -164q-37 16 -88 25.5t-102 9.5q-127 0 -203 -59.5t-76 -167.5q0 -90 60.5 -143.5t162.5 -53.5q45 0 105.5 10t107.5 27l-39 -279q-117 -41 -241 -41q-223 0 -353.5 122t-130.5 333q0 160 75 281.5t210 187.5t309 66h15l10 77q27 195 148.5 296.5t310.5 101.5
q162 0 251 -82t89 -223q0 -18 -4 -64l-21 -139h684zM2183 1389.5q51 -48.5 51 -121.5q0 -59 -32.5 -111.5t-88 -84.5t-116.5 -32q-80 0 -131 49.5t-51 122.5q0 59 32.5 111.5t87 83.5t117.5 31q80 0 131 -48.5z" />
    <glyph glyph-name="f_t.liga.salt" horiz-adv-x="1335" 
d="M1069 403q-4 -25 -4 -43q0 -104 117 -104q53 0 94 10l-39 -266q-84 -18 -172 -18q-322 0 -322 288q0 61 13 140l37 258h-258l-156 -1112h-318l156 1112h-168l37 262h166l16 110q29 197 148 288t309 91q72 0 135 -14l-35 -260q-18 6 -67 6q-100 0 -134 -45t-44 -113
l-9 -63h303l279 272h29l-39 -272h225l-37 -262h-225z" />
    </font>
</defs>
</svg>
