<?xml version="1.0" standalone="no"?>
<!DOCTYPE svg PUBLIC "-//W3C//DTD SVG 1.1//EN" "http://www.w3.org/Graphics/SVG/1.1/DTD/svg11.dtd" >
<svg xmlns="http://www.w3.org/2000/svg" xmlns:xlink="http://www.w3.org/1999/xlink" version="1.1">
<metadata>
Created by FontForge 20170731 at Mon Mar 26 22:41:49 2018
 By Aleksey,,,
Copyright (c) 2017 by Deni Anggara. All rights reserved.
</metadata>
<defs>
<font id="Gelion-LightItalic" horiz-adv-x="1030" >
  <font-face 
    font-family="Gelion Light Italic"
    font-weight="300"
    font-style="italic"
    font-stretch="normal"
    units-per-em="2048"
    panose-1="0 0 4 0 0 0 0 0 0 0"
    ascent="1638"
    descent="-410"
    x-height="893"
    cap-height="1313"
    bbox="-803 -469 3791 1798"
    underline-thickness="0"
    underline-position="0"
    unicode-range="U+000D-FB02"
  />
<missing-glyph horiz-adv-x="1087" 
d="M954 1124v-1124h-786v1124h786z" />
    <glyph glyph-name="uniFB01" unicode="fi" horiz-adv-x="997" 
d="M852 1090q6 106 -56.5 171.5t-168.5 65.5t-171 -57.5t-79 -163.5l-29 -213h586l-123 -893h-117l111 797h-471l-164 -1186h-117l166 1186h-123l15 96h120l31 213q23 166 119 245t248 79q158 0 249 -93.5t83 -246.5h-109z" />
    <glyph glyph-name="uniFB02" unicode="fl" 
d="M1008 1405l-197 -1405h-117l111 797h-414l-164 -1186h-118l167 1186h-165v96h178l41 289q31 231 268 231q51 0 98 -10l-14 -96q-12 6 -72 6q-86 0 -122.5 -42t-49.5 -126l-35 -252h416l72 512h117z" />
    <glyph glyph-name="f_f.liga" unicode="ff" horiz-adv-x="1112" 
d="M989 1271q-37 -42 -49 -126l-35 -252h221l-14 -96h-219l-164 -1186h-119l168 1186h-401l-164 -1186h-119l168 1186h-166l15 96h163l41 289q31 231 269 231q51 0 98 -10l-14 -96q-12 6 -72 6q-86 0 -123 -42t-49 -126l-35 -252h402l40 289q31 231 269 231q51 0 98 -10
l-14 -96q-12 6 -72 6q-86 0 -123 -42z" />
    <glyph glyph-name="f_f_i.liga" unicode="ffi" horiz-adv-x="1548" 
d="M1403 1090q8 123 -51.5 180t-155.5 57q-231 0 -268 -244l-27 -190h584l-123 -893h-119l113 797h-467l-166 -1186h-115l164 1186h-438l-164 -1186h-117l166 1186h-123l15 96h120l33 227q20 154 116.5 232t244.5 78q96 0 167.5 -39t104.5 -109q45 72 123 110t178 38
q152 0 238 -92.5t77 -247.5h-110zM817 1147q0 84 -52 132t-142 48q-106 0 -168 -58.5t-78 -168.5l-29 -207h438l29 217q2 12 2 37z" />
    <glyph glyph-name="f_f_l.liga" unicode="ffl" horiz-adv-x="1615" 
d="M1591 1405l-196 -1405h-117l111 797h-451l-164 -1186h-115l164 1186h-446l-164 -1186h-117l164 1186h-164l15 96h163l35 252q18 139 93 202.5t200 63.5q43 0 80 -6l-14 -98q-23 6 -64 6q-72 0 -109.5 -29t-52 -68.5t-22.5 -99.5l-31 -223h447l34 252q37 266 293 266
q45 0 82 -6l-14 -98q-23 6 -66 6q-72 0 -109.5 -29t-51 -68.5t-21.5 -99.5l-31 -223h451l72 512h116z" />
    <glyph glyph-name="f_i_i.liga" unicode="fii" horiz-adv-x="1476" 
d="M1253 0h-118l112 797h-325l-111 -797h-117l111 797h-471l-164 -1186h-117l166 1186h-123l15 96h120l31 213q23 166 119 245t248 79q158 0 249 -93.5t83 -246.5h-109q6 106 -56.5 171.5t-168.5 65.5t-171 -57.5t-79 -163.5l-29 -213h1030zM1443.5 1325.5
q22.5 -22.5 22.5 -57.5q0 -47 -32.5 -80t-77.5 -33q-37 0 -60.5 23.5t-23.5 58.5q0 45 32.5 78t77.5 33q39 0 61.5 -22.5z" />
    <glyph glyph-name="f_t.liga" unicode="ft" horiz-adv-x="1132" 
d="M1124 797h-196l-111 -797h-119l111 797h-432l-164 -1186h-117l164 1186h-164l15 96h163l35 252q18 139 93 202.5t200 63.5q43 0 80 -6l-14 -98q-23 6 -64 6q-72 0 -109.5 -29t-52 -68.5t-22.5 -99.5l-31 -223h434l58 420h118l-57 -420h197z" />
    <glyph glyph-name="f_y.liga" unicode="fy" horiz-adv-x="1484" 
d="M1518 893l-560 -1081q-59 -111 -129.5 -163t-185.5 -52q-72 0 -121 16l13 98q57 -14 102 -14q80 0 126 33.5t81 105.5l61 119l-223 842h-305l-164 -1186h-119l168 1186h-166l15 96h163l41 289q31 231 269 231q51 0 98 -10l-14 -96q-12 6 -72 6q-86 0 -123 -42t-49 -126
l-35 -252h385l203 -801l409 801h132z" />
    <glyph glyph-name="i_j.liga" unicode="ij" horiz-adv-x="884" 
d="M261.5 1178.5q-23.5 23.5 -23.5 58.5q0 45 32.5 78t77.5 33q39 0 61.5 -22.5t22.5 -57.5q0 -47 -32.5 -80t-77.5 -33q-37 0 -60.5 23.5zM851.5 1325.5q22.5 -22.5 22.5 -57.5q0 -47 -32.5 -80t-77.5 -33q-37 0 -60.5 23.5t-23.5 58.5q0 45 32.5 78t78.5 33
q38 0 60.5 -22.5zM608 -389h-119l166 1186h-325l-111 -797h-119l127 893h559z" />
    <glyph glyph-name="i_t_i.liga" unicode="iti" horiz-adv-x="1470" 
d="M261.5 1178.5q-23.5 23.5 -23.5 58.5q0 45 32.5 78t77.5 33q39 0 61.5 -22.5t22.5 -57.5q0 -47 -32.5 -80t-77.5 -33q-37 0 -60.5 23.5zM1437.5 1325.5q22.5 -22.5 22.5 -55.5q0 -47 -31.5 -80t-78.5 -33q-37 0 -60.5 22.5t-23.5 57.5q0 47 32.5 79t77.5 32
q39 0 61.5 -22.5zM858 893h512l-125 -893h-117l111 797h-395l-111 -797h-117l111 797h-397l-111 -797h-119l127 893h514l33 240h117z" />
    <glyph glyph-name="i_t_y.liga" unicode="ity" horiz-adv-x="1867" 
d="M261.5 1178.5q-23.5 23.5 -23.5 58.5q0 45 32.5 78t77.5 33q39 0 61.5 -22.5t22.5 -57.5q0 -47 -32.5 -80t-77.5 -33q-37 0 -60.5 23.5zM1901 893l-560 -1081q-59 -111 -129.5 -163t-185.5 -52q-72 0 -121 16l13 98q57 -14 102 -14q80 0 126 33.5t81 105.5l61 119
l-223 842h-254l-111 -797h-118l110 797h-362l-111 -797h-119l127 893h480l32 240h119l-33 -240h332l203 -801l409 801h132z" />
    <glyph glyph-name="t_i.liga" unicode="ti" horiz-adv-x="1028" 
d="M994.5 1325.5q23.5 -22.5 23.5 -55.5q0 -47 -33 -80t-80 -33q-37 0 -59.5 22.5t-22.5 57.5q0 47 33 79t78 32q37 0 60.5 -22.5zM416 893h512l-125 -893h-117l111 797h-396l-110 -797h-117l111 797h-179l13 96h180l33 240h117z" />
    <glyph glyph-name="t_t.liga" unicode="tt" horiz-adv-x="1130" 
d="M1122 797h-178l-110 -797h-117l110 797h-426l-110 -797h-117l111 797h-179l13 96h180l33 240h117l-33 -240h426l32 240h117l-33 -240h177z" />
    <glyph glyph-name="t_u.liga" unicode="tu" horiz-adv-x="1619" 
d="M1534 893l-123 -893h-96v137q-53 -80 -135 -121t-181 -41q-135 0 -208.5 74t-73.5 201q0 43 4 65l67 482h-387l-110 -797h-119l113 797h-179l13 96h178l35 240h117l-33 -240h504l-76 -549q-6 -39 -6 -72q0 -102 54 -147t155 -45q117 0 197.5 83t101.5 218l71 512h117z
" />
    <glyph glyph-name="t_y.liga" unicode="ty" horiz-adv-x="1443" 
d="M1477 893l-559 -1081q-59 -111 -130 -163t-186 -52q-72 0 -121 16l13 98q57 -14 102 -14q80 0 126 33.5t81 105.5l61 119l-223 842h-240l-110 -797h-117l111 797h-179l13 96h180l33 240h117l-33 -240h317l203 -801l410 801h131z" />
    <glyph glyph-name=".notdef" horiz-adv-x="1087" 
d="M954 1124v-1124h-786v1124h786z" />
    <glyph glyph-name="glyph1" horiz-adv-x="0" 
 />
    <glyph glyph-name="uni000D" unicode="&#xd;" horiz-adv-x="514" 
 />
    <glyph glyph-name="space" unicode=" " horiz-adv-x="487" 
 />
    <glyph glyph-name="exclam" unicode="!" horiz-adv-x="557" 
d="M328 1313h143l-156 -889h-84zM140.5 8q-31.5 31 -31.5 76q0 53 36.5 89t90.5 36q49 0 80.5 -31t31.5 -78q0 -53 -37 -88t-92 -35q-47 0 -78.5 31z" />
    <glyph glyph-name="quotedbl" unicode="&#x22;" horiz-adv-x="595" 
d="M174 1090l-2 55q0 51 23.5 75.5t62.5 24.5q41 0 64.5 -21.5t23.5 -58.5q0 -23 -14 -69l-90 -301h-52zM455 1090q-2 4 -2 55t23.5 75.5t62.5 24.5t63.5 -21.5t24.5 -58.5q0 -23 -15 -69l-90 -301h-53z" />
    <glyph glyph-name="numbersign" unicode="#" horiz-adv-x="1167" 
d="M930 805l-60 -297h220l-19 -117h-223l-78 -391h-119l78 391h-330l-77 -391h-117l76 391h-201l16 117h207l59 297h-225l17 117h231l76 391h119l-78 -391h334l77 391h117l-78 -391h195l-19 -117h-198zM811 805h-332l-57 -297h332z" />
    <glyph glyph-name="dollar" unicode="$" horiz-adv-x="1216" 
d="M956.5 549q67.5 -86 67.5 -203q0 -106 -55.5 -188t-153.5 -127t-223 -45l-25 -174h-92l25 180q-143 23 -237.5 112t-110.5 222h124q16 -106 103.5 -171t216.5 -65q137 0 222 69.5t85 178.5q0 88 -54 145.5t-147 79.5l-163 39q-143 33 -212 118t-69 198q0 102 52 183
t143.5 126t208.5 47l22 160h90l-20 -166q145 -23 235 -117t96 -236h-112q-10 115 -94 185.5t-211 70.5t-207 -67.5t-80 -175.5q0 -82 52 -137.5t140 -77.5l185 -45q131 -33 198.5 -119z" />
    <glyph glyph-name="percent" unicode="%" horiz-adv-x="1576" 
d="M1350 1321h131l-1176 -1321h-133zM322.5 749.5q-66.5 34.5 -105.5 99t-39 146.5q0 86 44 155t116 107.5t154 38.5q78 0 144 -34.5t105 -99t39 -146.5q0 -86 -43 -154.5t-114.5 -107.5t-155.5 -39q-78 0 -144.5 34.5zM608.5 875.5q57.5 54.5 57.5 138.5q0 80 -49.5 128
t-127.5 48q-82 0 -139 -54.5t-57 -136.5q0 -80 48 -129t126 -49q84 0 141.5 54.5zM994.5 14.5q-66.5 34.5 -105.5 99t-39 146.5q0 86 43 154.5t114.5 107.5t153.5 39q121 0 206 -77.5t85 -202.5q0 -86 -43 -155t-114.5 -107.5t-155.5 -38.5q-78 0 -144.5 34.5zM1280 140.5
q57 54.5 57 138.5q0 80 -49 128t-127 48q-82 0 -139 -54.5t-57 -136.5q0 -80 48 -129t126 -49q84 0 141 54.5z" />
    <glyph glyph-name="ampersand" unicode="&#x26;" horiz-adv-x="1378" 
d="M1155 614q-14 -111 -48 -206t-81 -162l203 -248h-158l-125 156q-86 -90 -198.5 -134.5t-233.5 -44.5q-176 0 -280.5 84t-104.5 228q0 125 70.5 205.5t189.5 158.5l98 66l-34 43q-51 61 -83 124.5t-32 147.5q0 133 92 219t238 86q131 0 212 -68.5t81 -183.5
q0 -104 -59.5 -179t-143.5 -130l-107 -71l303 -371q43 76 65.5 169t35.5 214h254l-15 -103h-139zM516 1178.5q-57 -54.5 -57 -140.5q0 -63 25.5 -110t76.5 -113l27 -33l88 62q51 35 79.5 59.5t55.5 67.5t27 98q0 74 -48.5 119t-127.5 45q-89 0 -146 -54.5zM879 236l-328 403
l-111 -74q-80 -53 -131 -111.5t-51 -150.5q0 -102 75 -160.5t199 -58.5q208 0 347 152z" />
    <glyph glyph-name="quotesingle" unicode="'" horiz-adv-x="333" 
d="M182 1090l-2 55q0 51 24.5 75.5t63.5 24.5t62.5 -21.5t23.5 -58.5q0 -29 -12 -69l-90 -301h-53z" />
    <glyph glyph-name="parenleft" unicode="(" horiz-adv-x="454" 
d="M274 -84q-74 123 -113.5 284.5t-39.5 321.5q0 80 8 140q20 188 115.5 384.5t226.5 325.5h113q-129 -139 -221.5 -337.5t-114.5 -391.5q-10 -82 -10 -149q0 -156 37.5 -309.5t103.5 -268.5h-105z" />
    <glyph glyph-name="parenright" unicode=")" horiz-adv-x="450" 
d="M233 1372q74 -121 115 -280.5t41 -319.5q0 -68 -10 -145q-20 -190 -114.5 -386t-227.5 -325h-113q129 137 221.5 337t116.5 392q8 63 8 143q0 160 -36.5 314.5t-104.5 269.5h104z" />
    <glyph glyph-name="asterisk" unicode="*" horiz-adv-x="743" 
d="M561 969l98 -58l-38 -67l-99 59q-76 45 -127 90q14 -59 15 -155v-115h-78v115q0 66 16 155q-43 -41 -127 -90l-98 -59l-39 67l98 58q78 45 144 65q-57 16 -144 64l-98 57l39 68l98 -60q84 -49 127 -90q-16 90 -16 156v114h78v-114q0 -96 -15 -156q51 45 127 90l99 60
l38 -68l-98 -57q-82 -45 -141 -64q75 -26 141 -65z" />
    <glyph glyph-name="plus" unicode="+" horiz-adv-x="1216" 
d="M1040 575h-360l-51 -366h-105l51 366h-358l10 97h361l51 364h106l-51 -364h359z" />
    <glyph glyph-name="comma" unicode="," horiz-adv-x="440" 
d="M256 177q37 -42 37 -111q0 -80 -43 -144.5t-113.5 -99.5t-148.5 -33l6 55q80 4 129 46t53 106q-16 -6 -35 -6q-49 0 -76.5 29.5t-27.5 78.5q0 51 32.5 86t88.5 35q61 0 98 -42z" />
    <glyph glyph-name="hyphen" unicode="-" horiz-adv-x="970" 
d="M848 537l-17 -113h-698l14 113h701z" />
    <glyph glyph-name="period" unicode="." horiz-adv-x="376" 
d="M53.5 7q-30.5 30 -30.5 75q0 51 35.5 86t88.5 35q45 0 76 -30t31 -75q0 -51 -36 -86t-87 -35q-47 0 -77.5 30z" />
    <glyph glyph-name="slash" unicode="/" horiz-adv-x="757" 
d="M698 1315h121l-700 -1315h-119z" />
    <glyph glyph-name="zero" unicode="0" horiz-adv-x="1110" 
d="M214 139q-105 164 -105 424q0 203 61 380t182 285.5t291 108.5q201 0 310.5 -155.5t109.5 -413.5q0 -201 -62.5 -383t-185.5 -296t-293 -114q-203 0 -308 164zM756 189.5q92 105.5 136 269.5t44 334q0 195 -78 315.5t-219 120.5q-131 0 -222 -98.5t-137.5 -253
t-46.5 -322.5q0 -227 78 -349t219 -122q134 0 226 105.5z" />
    <glyph glyph-name="one" unicode="1" horiz-adv-x="624" 
d="M160 1130q123 0 202.5 43.5t122.5 139.5h109l-184 -1313h-121l147 1038h-289z" />
    <glyph glyph-name="two" unicode="2" horiz-adv-x="972" 
d="M260 117h578l-17 -117h-762l13 92l512 508l39 37q78 78 120.5 126t70.5 107.5t28 126.5q0 109 -70 172.5t-188 63.5q-137 0 -223.5 -86t-86.5 -227h-114q0 123 57 219t156.5 148t222.5 52q164 0 265.5 -91t101.5 -242q0 -92 -40 -171t-91.5 -137.5t-155.5 -162.5z" />
    <glyph glyph-name="three" unicode="3" horiz-adv-x="1081" 
d="M1026 1182l-442 -394q174 -6 279.5 -110.5t105.5 -274.5q0 -123 -59.5 -221t-165 -152.5t-234.5 -54.5q-123 0 -217 52.5t-147.5 147.5t-53.5 218h117q0 -139 84 -224t225 -85t235.5 85t94.5 237q0 184 -118 240t-218 56h-90l14 91l461 411h-608l14 109h741z" />
    <glyph glyph-name="four" unicode="4" horiz-adv-x="1052" 
d="M969 391l-15 -106h-155l-41 -285h-115l41 285h-631l15 98l708 930h166l-129 -922h156zM809 1180l-600 -789h489z" />
    <glyph glyph-name="five" unicode="5" horiz-adv-x="1085" 
d="M506 1204l-180 -465q51 39 120.5 62.5t141.5 23.5q113 0 202 -49t139 -139t50 -207q0 -129 -63.5 -232.5t-174 -163t-245.5 -59.5q-184 0 -295 115t-107 303h113q-2 -139 78 -224t215 -85q100 0 182 42t128 119t46 177q0 133 -79 214t-206 81q-92 0 -176 -39t-125 -98
l-112 20l270 713h616l-14 -109h-524z" />
    <glyph glyph-name="six" unicode="6" horiz-adv-x="1097" 
d="M799 782q90 -49 142 -139t52 -207q0 -131 -65.5 -236.5t-179 -165t-250.5 -59.5q-125 0 -218.5 53.5t-141.5 141.5t-48 192q0 96 36 183.5t67.5 130.5t103.5 133l397 504h135l-401 -512q78 31 168 30q113 0 203 -49zM693 129q83 45 131 125t48 180q0 133 -82.5 214
t-220.5 81q-100 0 -182 -45t-129 -125t-47 -180q0 -127 81 -211t216 -84q102 0 185 45z" />
    <glyph glyph-name="seven" unicode="7" horiz-adv-x="872" 
d="M948 1313l-14 -99l-719 -1214h-129l711 1204h-643l16 109h778z" />
    <glyph glyph-name="eight" unicode="8" horiz-adv-x="1097" 
d="M929.5 576.5q57.5 -82.5 57.5 -193.5q0 -119 -62.5 -212t-171 -144.5t-243.5 -51.5q-125 0 -222.5 44t-150.5 124t-53 185q0 137 83 239.5t220 137.5q-78 35 -124 106.5t-46 163.5q0 102 55.5 185t153.5 130t221 47q170 0 275.5 -89t105.5 -234q0 -113 -67.5 -198
t-184.5 -126q96 -31 153.5 -113.5zM420 1156q-84 -71 -84 -183q0 -100 72.5 -159.5t195.5 -59.5q137 0 221 68.5t84 174.5q0 104 -74.5 167t-197.5 63q-133 0 -217 -71zM769 166q99 82 99 217q0 113 -84 182.5t-221 69.5q-158 0 -258 -81t-100 -210q0 -119 86 -189.5
t227 -70.5q152 0 251 82z" />
    <glyph glyph-name="nine" unicode="9" horiz-adv-x="1105" 
d="M868.5 1286q96.5 -51 149.5 -141t53 -199q0 -92 -33.5 -175t-67.5 -130t-96 -125l-405 -516h-135l397 508q-68 -27 -158 -27q-117 0 -210 49.5t-145 138.5t-52 205q0 131 64.5 237t175 166t243.5 60q123 0 219.5 -51zM772 630q82 44 129 122.5t47 179.5q0 129 -81 212
t-218 83q-100 0 -183 -44t-131 -124t-48 -180q0 -131 83 -212t220 -81q100 0 182 44z" />
    <glyph glyph-name="colon" unicode=":" horiz-adv-x="585" 
d="M263 715q-34 33 -34 76q0 45 33 78.5t78 33.5t79 -33.5t34 -78.5t-33 -77t-80 -32q-43 0 -77 33zM165 22.5q-34 32.5 -34 77.5q0 43 34 77t79 34t78.5 -34t33.5 -77q0 -45 -33.5 -77.5t-78.5 -32.5t-79 32.5z" />
    <glyph glyph-name="semicolon" unicode=";" horiz-adv-x="505" 
d="M400.5 869.5q33.5 -33.5 33.5 -78.5t-32.5 -77t-79.5 -32q-43 0 -77 33t-34 76q0 45 32.5 78.5t78.5 33.5q45 0 78.5 -33.5zM298 150.5q32 -33.5 32 -91.5q0 -66 -40 -125t-107.5 -93t-143.5 -34v52q72 6 119 39.5t55 85.5h-12q-39 0 -65.5 26.5t-26.5 67.5
q0 47 32.5 76.5t77.5 29.5q47 0 79 -33.5z" />
    <glyph glyph-name="less" unicode="&#x3c;" horiz-adv-x="765" 
d="M721 745l-549 -296l463 -299l-19 -119l-559 362l17 119l663 362z" />
    <glyph glyph-name="equal" unicode="=" horiz-adv-x="1075" 
d="M913 848l-14 -107h-637l14 107h637zM860 461l-16 -109h-637l14 109h639z" />
    <glyph glyph-name="greater" unicode="&#x3e;" horiz-adv-x="770" 
d="M711 512l-17 -119l-663 -362l16 127l549 299l-463 297l17 120z" />
    <glyph glyph-name="question" unicode="?" horiz-adv-x="925" 
d="M344 356l4 45q12 94 70.5 159t167.5 145q76 59 120 98t73.5 93t29.5 122q0 104 -67.5 161.5t-176.5 57.5q-129 0 -214 -78t-89 -198h-104q6 109 59 193.5t144.5 132.5t205.5 48q154 0 253.5 -85t99.5 -224q0 -84 -36 -151.5t-87.5 -115.5t-134.5 -112
q-96 -74 -144.5 -125t-58.5 -116l-6 -50h-109zM276.5 3q-30.5 28 -30.5 73q0 55 36.5 91t90.5 36q47 0 76.5 -29t29.5 -74q0 -53 -36.5 -89t-90.5 -36q-45 0 -75.5 28z" />
    <glyph glyph-name="at" unicode="@" horiz-adv-x="1974" 
d="M1446.5 1229.5q193.5 -105.5 301 -292.5t107.5 -421q0 -219 -94 -348t-256 -129q-115 0 -184.5 66.5t-73.5 173.5q-37 -80 -113.5 -126.5t-172.5 -46.5q-162 0 -262.5 105.5t-100.5 275.5q0 172 102.5 278.5t268.5 106.5q96 0 174 -46t112 -124l7 152h84v-555
q0 -78 46 -126t115 -48q113 0 179.5 101.5t66.5 277.5q0 213 -95 380t-265 260t-389 93q-223 0 -397.5 -96.5t-271.5 -267.5t-97 -388q0 -221 98 -392t271 -266t390 -95q121 0 229.5 30.5t194.5 85.5l49 -90q-213 -125 -473 -125q-244 0 -440.5 107.5t-309 301.5t-112.5 443
q0 250 111.5 442.5t310.5 300t449 107.5q247 0 440.5 -105.5zM1166.5 272q74.5 84 74.5 220q0 135 -74.5 214.5t-193.5 79.5q-127 0 -201 -84t-74 -213q0 -135 76 -218t197 -83t195.5 84z" />
    <glyph glyph-name="A" unicode="A" horiz-adv-x="1181" 
d="M641 1313h147l308 -1313h-123l-80 352h-621l-182 -352h-127zM870 455l-168 741l-378 -741h546z" />
    <glyph glyph-name="B" unicode="B" horiz-adv-x="1165" 
d="M1016 552q47 -73 47 -175q0 -178 -125 -277.5t-336 -99.5h-502l185 1313h510q170 0 257 -79t87 -214q0 -123 -69 -219t-187 -142q86 -34 133 -107zM385 1204l-70 -495h379q143 0 234.5 78.5t91.5 203.5q0 98 -60.5 155.5t-179.5 57.5h-395zM868 182.5q84 71.5 84 196.5
q0 109 -71.5 167t-186.5 58h-395l-68 -493h402q151 0 235 71.5z" />
    <glyph glyph-name="C" unicode="C" horiz-adv-x="1439" 
d="M394 51q-132 76 -204.5 214t-72.5 321q0 213 93 384t256 269t368 98q143 0 264 -54t199.5 -152.5t103.5 -227.5h-129q-37 145 -159 232.5t-286 87.5q-168 0 -301 -82t-207.5 -226.5t-74.5 -324.5q0 -147 57 -261t161.5 -176.5t242.5 -62.5q168 0 307 83t196 218h135
q-41 -123 -136 -217t-227 -146.5t-282 -52.5q-172 0 -304 76z" />
    <glyph glyph-name="D" unicode="D" horiz-adv-x="1306" 
d="M981 1242q131 -71 202.5 -199t71.5 -291q0 -217 -98 -388t-274 -267.5t-402 -96.5h-381l185 1313h391q174 0 305 -71zM815.5 199q145.5 82 227 226t81.5 323q0 205 -127 326.5t-342 121.5h-266l-151 -1079h247q185 0 330.5 82z" />
    <glyph glyph-name="E" unicode="E" horiz-adv-x="1058" 
d="M387 1194l-68 -483h605l-15 -107h-604l-69 -487h667l-16 -117h-787l185 1313h786l-18 -119h-666z" />
    <glyph glyph-name="F" unicode="F" horiz-adv-x="997" 
d="M391 1196l-72 -506h543l-14 -106h-543l-82 -584h-123l82 584l15 106l88 623h772l-19 -117h-647z" />
    <glyph glyph-name="G" unicode="G" horiz-adv-x="1460" 
d="M743 686h660l-10 -94q-16 -182 -104.5 -322.5t-234 -217.5t-329.5 -77q-182 0 -319.5 76t-213 218.5t-75.5 332.5q0 209 88 377t246.5 263t363.5 95q223 0 384 -114.5t206 -304.5h-129q-43 137 -169 221t-290 84q-166 0 -296 -79t-202.5 -219.5t-72.5 -316.5
q0 -160 59.5 -276.5t168 -179t251.5 -62.5t261 61.5t190.5 172t85.5 256.5h-535z" />
    <glyph glyph-name="H" unicode="H" horiz-adv-x="1286" 
d="M285 1313h123l-84 -594h720l84 594h123l-184 -1313h-123l88 612h-723l-86 -612h-123z" />
    <glyph glyph-name="I" unicode="I" horiz-adv-x="442" 
d="M100 0l185 1313h123l-185 -1313h-123z" />
    <glyph glyph-name="J" unicode="J" horiz-adv-x="999" 
d="M823 326q-25 -178 -138.5 -264.5t-272.5 -86.5q-164 0 -259.5 95.5t-95.5 255.5q0 35 2 53h117q-2 -16 -2 -49q0 -117 63.5 -180.5t174.5 -63.5q123 0 198.5 65.5t94.5 194.5l118 852h-483l16 115h607z" />
    <glyph glyph-name="K" unicode="K" horiz-adv-x="1136" 
d="M674 748l354 -748h-143l-303 651l-312 -319l-47 -332h-123l185 1313h123l-113 -797l776 797h152z" />
    <glyph glyph-name="L" unicode="L" horiz-adv-x="880" 
d="M786 113l-14 -113h-672l185 1313h123l-168 -1200h546z" />
    <glyph glyph-name="M" unicode="M" horiz-adv-x="1533" 
d="M1493 1311l-184 -1311h-123l76 543q12 82 20 131q41 293 59 385l-571 -1022h-119l-291 1014q-12 -133 -65 -508l-74 -543h-121l185 1313h118l320 -1139l641 1139z" />
    <glyph glyph-name="N" unicode="N" horiz-adv-x="1300" 
d="M1262 1313l-185 -1313h-121l-577 1100l-156 -1100h-123l185 1313h121l577 -1108l156 1108h123z" />
    <glyph glyph-name="O" unicode="O" horiz-adv-x="1517" 
d="M411.5 49q-139.5 74 -218 212t-78.5 325q0 207 96 379t265 272t376 100q174 0 313.5 -72.5t218 -211t78.5 -326.5q0 -207 -96 -379t-264 -272.5t-375 -100.5q-176 0 -315.5 74zM1032.5 174q141.5 82 223 227.5t81.5 323.5q0 152 -61.5 264.5t-170 172t-249.5 59.5
q-164 0 -305 -81t-225 -224.5t-84 -325.5q0 -152 61.5 -264.5t170 -173t249.5 -60.5q168 0 309.5 82z" />
    <glyph glyph-name="P" unicode="P" horiz-adv-x="1148" 
d="M1030.5 1208.5q110.5 -104.5 110.5 -274.5q0 -133 -64.5 -235.5t-181.5 -158t-268 -55.5h-336l-68 -485h-123l185 1313h446q189 0 299.5 -104.5zM917.5 686q98.5 90 98.5 244q0 123 -75 195.5t-208 72.5h-342l-84 -602h332q180 0 278.5 90z" />
    <glyph glyph-name="Q" unicode="Q" horiz-adv-x="1517" 
d="M741 -135q-8 -45 -8 -68q0 -39 25.5 -62.5t89.5 -23.5q61 0 94 4l-14 -98q-45 -8 -109 -8q-203 0 -203 172q0 37 7 67l24 132q-156 16 -276.5 94t-188 209t-67.5 303q0 207 96 379t265 272t376 100q174 0 313.5 -72.5t218 -211t78.5 -326.5q0 -201 -91 -370t-252 -271
t-359 -111zM303.5 325.5q61.5 -112.5 170 -173t249.5 -60.5q168 0 309.5 82t223 227.5t81.5 323.5q0 152 -61.5 264.5t-170 172t-249.5 59.5q-164 0 -305 -81t-225 -224.5t-84 -325.5q0 -152 61.5 -264.5z" />
    <glyph glyph-name="R" unicode="R" horiz-adv-x="1185" 
d="M285 1313h497q174 0 278.5 -98.5t104.5 -260.5q0 -143 -91 -249.5t-240 -137.5l192 -567h-135l-184 549h-408l-76 -549h-123zM700 664q158 0 247 79.5t89 210.5q0 111 -71.5 178.5t-186.5 67.5h-389l-74 -536h385z" />
    <glyph glyph-name="S" unicode="S" horiz-adv-x="1085" 
d="M234.5 1157q56.5 86 157 133t224.5 47q186 0 306 -104.5t131 -274.5h-121q-10 121 -99.5 196t-222.5 75q-135 0 -219 -71t-84 -187q0 -86 54.5 -144.5t148.5 -81.5l195 -49q139 -35 210.5 -126t71.5 -214q0 -113 -59.5 -198.5t-164 -134t-235.5 -48.5q-190 0 -316 98.5
t-146 262.5h131q16 -113 108 -181.5t230 -68.5q143 0 233 73.5t90 188.5q0 92 -57.5 153.5t-153.5 84.5l-174 41q-150 35 -222.5 124t-72.5 210q0 110 56.5 196z" />
    <glyph glyph-name="T" unicode="T" horiz-adv-x="1001" 
d="M1079 1198h-407l-168 -1198h-123l168 1198h-414l15 115h946z" />
    <glyph glyph-name="U" unicode="U" horiz-adv-x="1280" 
d="M268 1313h121l-113 -826q-4 -33 -4 -75q0 -150 92.5 -235t245.5 -85q164 0 268.5 96.5t127.5 255.5l122 869h127l-122 -875q-31 -219 -172.5 -341t-350.5 -122q-137 0 -241.5 54.5t-161.5 154t-57 230.5q0 45 6 88z" />
    <glyph glyph-name="V" unicode="V" horiz-adv-x="1191" 
d="M268 1313l279 -1163l606 1163h135l-690 -1313h-127l-324 1313h121z" />
    <glyph glyph-name="W" unicode="W" horiz-adv-x="1812" 
d="M279 1313l170 -1135l509 1100h127l199 -1100l483 1135h134l-580 -1313h-115l-202 1124l-521 -1124h-116l-209 1313h121z" />
    <glyph glyph-name="X" unicode="X" horiz-adv-x="1138" 
d="M526 662l-376 651h133l323 -568l467 568h154l-553 -666l377 -647h-142l-319 559l-463 -559h-154z" />
    <glyph glyph-name="Y" unicode="Y" horiz-adv-x="1062" 
d="M276 1313l277 -654l461 654h145l-555 -772l-78 -541h-123l78 545l-334 768h129z" />
    <glyph glyph-name="Z" unicode="Z" horiz-adv-x="1095" 
d="M1114 1219l-903 -1104h750l-15 -115h-919l12 96l907 1102h-739l16 115h905z" />
    <glyph glyph-name="bracketleft" unicode="[" horiz-adv-x="462" 
d="M375 -102h-359l213 1523h359l-15 -104h-251l-185 -1317h252z" />
    <glyph glyph-name="backslash" unicode="\" horiz-adv-x="1001" 
d="M823 0l-700 1313h119l698 -1313h-117z" />
    <glyph glyph-name="bracketright" unicode="]" horiz-adv-x="460" 
d="M201 0l184 1317h-252l14 104h357l-213 -1523h-357l15 102h252z" />
    <glyph glyph-name="asciicircum" unicode="^" horiz-adv-x="831" 
d="M618 887l-96 307l-186 -307h-111l258 426h111l135 -426h-111z" />
    <glyph glyph-name="underscore" unicode="_" horiz-adv-x="720" 
d="M657 -37l-14 -102h-729l14 102h729z" />
    <glyph glyph-name="grave" unicode="`" horiz-adv-x="430" 
d="M147 1632l80 76l236 -264l-41 -39z" />
    <glyph glyph-name="a" unicode="a" horiz-adv-x="1142" 
d="M1057 893l-123 -893h-111l19 139q-55 -76 -147.5 -120t-202.5 -44q-113 0 -205 55.5t-144.5 157t-52.5 232.5q0 143 61.5 257t169 177.5t238.5 63.5q127 0 221 -58.5t142 -161.5l36 195h99zM706.5 128q79.5 48 127 136t47.5 201q0 156 -87 252t-227 96q-96 0 -178 -49
t-129 -137t-47 -201q0 -156 87 -251t230 -95q97 0 176.5 48z" />
    <glyph glyph-name="b" unicode="b" horiz-adv-x="1146" 
d="M859 862.5q91 -55.5 143.5 -157t52.5 -232.5q0 -145 -62.5 -259t-169 -176.5t-235.5 -62.5q-117 0 -213 61.5t-137 162.5l-41 -199h-101l197 1405h117l-88 -635q55 70 144 109t187 39q115 0 206 -55.5zM762 129q80 49 127 137t47 203q0 154 -87 249t-222 95
q-98 0 -177 -48t-124 -135t-45 -200q0 -156 85 -253t218 -97q98 0 178 49z" />
    <glyph glyph-name="c" unicode="c" horiz-adv-x="1073" 
d="M292 31.5q-95 56.5 -147.5 157t-52.5 229.5q0 143 63.5 256.5t174 178.5t243.5 65q160 0 276 -89.5t142 -234.5h-117q-27 102 -109.5 161.5t-193.5 59.5q-100 0 -183 -51t-131 -140t-48 -202q0 -152 85 -248t228 -96q106 0 195.5 53t122.5 139h118q-37 -133 -162.5 -214
t-283.5 -81q-125 0 -220 56.5z" />
    <glyph glyph-name="d" unicode="d" horiz-adv-x="1136" 
d="M1122 1405l-196 -1405h-92l6 143q-49 -76 -143.5 -122t-200.5 -46q-121 0 -213.5 55.5t-142.5 157t-50 232.5q0 145 61.5 258t168 176.5t237.5 63.5q115 0 209 -55.5t141 -155.5l99 698h116zM700.5 128q77.5 48 122.5 135t45 200q0 156 -85 253t-220 97q-98 0 -178 -49
t-126 -137t-46 -201q0 -158 84 -252t227 -94q99 0 176.5 48z" />
    <glyph glyph-name="e" unicode="e" horiz-adv-x="1048" 
d="M781.5 53q-119.5 -78 -275.5 -78q-188 0 -302 119t-114 316q0 143 59.5 258.5t167 182.5t244.5 67q119 0 211 -50.5t142.5 -139.5t50.5 -202q0 -68 -15 -118h-743l-2 -35q0 -133 85 -216t222 -83q106 0 189 50t122 134h117q-39 -127 -158.5 -205zM846 500q10 143 -68 230
t-217 87q-137 0 -232.5 -84t-109.5 -233h627z" />
    <glyph glyph-name="f" unicode="f" horiz-adv-x="598" 
d="M473 1271q-37 -42 -49 -126l-35 -252h221l-14 -96h-219l-164 -1186h-119l168 1186h-166l15 96h163l41 289q31 231 269 231q51 0 98 -10l-14 -96q-12 6 -72 6q-86 0 -123 -42z" />
    <glyph glyph-name="g" unicode="g" horiz-adv-x="1132" 
d="M1047 893l-132 -928q-25 -188 -146.5 -284.5t-309.5 -96.5q-166 0 -276.5 92.5t-129.5 243.5h117q10 -104 92 -167.5t203 -63.5q147 0 233 76.5t105 209.5l26 195q-51 -66 -140 -100.5t-191 -34.5q-115 0 -207 54t-144.5 148.5t-52.5 213.5q0 139 58.5 244.5t164 164
t242.5 58.5q119 0 214 -57.5t140 -153.5l37 186h97zM782.5 234.5q94.5 95.5 94.5 259.5q0 88 -39 161.5t-110 115.5t-161 42q-158 0 -254 -98.5t-96 -259.5q0 -137 88 -226.5t221 -89.5q162 0 256.5 95.5z" />
    <glyph glyph-name="h" unicode="h" horiz-adv-x="1052" 
d="M293 1405h117l-91 -647q51 74 139.5 117t180.5 43q131 0 209 -74t78 -215q0 -35 -6 -78l-76 -551h-119l74 526q6 43 6 76q0 211 -199 211q-123 0 -212 -74.5t-105 -193.5l-76 -543h-117z" />
    <glyph glyph-name="i" unicode="i" horiz-adv-x="442" 
d="M261.5 1178.5q-23.5 23.5 -23.5 58.5q0 45 32.5 78t77.5 33q39 0 61.5 -22.5t22.5 -57.5q0 -47 -32.5 -80t-77.5 -33q-37 0 -60.5 23.5zM227 893h117l-125 -893h-119z" />
    <glyph glyph-name="j" unicode="j" horiz-adv-x="442" 
d="M261.5 1178.5q-23.5 23.5 -23.5 58.5q0 45 32.5 78t77.5 33q39 0 61.5 -22.5t22.5 -57.5q0 -47 -32.5 -80t-77.5 -33q-37 0 -60.5 23.5zM227 893h117l-178 -1282h-119z" />
    <glyph glyph-name="k" unicode="k" horiz-adv-x="940" 
d="M578 563l231 -563h-131l-193 479l-235 -213l-37 -266h-117l197 1405h117l-140 -993l533 481h141z" />
    <glyph glyph-name="l" unicode="l" horiz-adv-x="434" 
d="M293 1405h117l-197 -1405h-117z" />
    <glyph glyph-name="m" unicode="m" horiz-adv-x="1576" 
d="M1379.5 852q72.5 -66 72.5 -195q0 -43 -4 -67l-82 -592h-115l80 571q4 41 4 58q0 96 -49 142t-139 46q-113 0 -188.5 -74.5t-90.5 -177.5l-80 -565h-114l80 571q4 33 4 49q0 94 -51.5 146.5t-141.5 52.5q-109 0 -184.5 -74.5t-89.5 -177.5l-78 -567h-119l125 895h100
l-4 -125q45 70 121 110t166 40q104 0 174 -51.5t86 -141.5q47 88 133 140.5t187 52.5q125 0 197.5 -66z" />
    <glyph glyph-name="n" unicode="n" horiz-adv-x="1050" 
d="M846 844q78 -74 78 -215q0 -35 -6 -78l-76 -551h-117l72 526q6 43 6 80q0 207 -199 207q-125 0 -212 -75.5t-103 -192.5l-76 -543h-117l125 891h96v-135q51 72 139.5 116t180.5 44q131 0 209 -74z" />
    <glyph glyph-name="o" unicode="o" horiz-adv-x="1124" 
d="M158.5 674.5q66.5 113.5 181.5 178.5t254 65q131 0 230.5 -56.5t154.5 -157t55 -229.5q0 -143 -66.5 -257t-182 -178.5t-255.5 -64.5q-129 0 -229 56.5t-154.5 157t-54.5 229.5q0 143 66.5 256.5zM299 175q90 -97 240 -97q104 0 191 51t137.5 140t50.5 202
q0 152 -90.5 248t-237.5 96q-106 0 -193.5 -51t-137.5 -140t-50 -202q0 -150 90 -247z" />
    <glyph glyph-name="p" unicode="p" horiz-adv-x="1157" 
d="M871.5 862.5q93.5 -55.5 144.5 -157t51 -232.5q0 -145 -62.5 -258t-170 -176.5t-240.5 -63.5q-121 0 -215 55.5t-141 157.5l-78 -577h-119l178 1282h92l-6 -145q51 78 146.5 124t205.5 46q121 0 214.5 -55.5zM768 129q82 49 129 137t47 201q0 156 -87 251t-230 95
q-100 0 -180 -48t-125.5 -135t-45.5 -200q0 -156 87.5 -253t226.5 -97q96 0 178 49z" />
    <glyph glyph-name="q" unicode="q" horiz-adv-x="1136" 
d="M1051 893l-181 -1282h-116l71 512q-55 -70 -144 -109t-189 -39q-113 0 -204 55.5t-143.5 157t-52.5 232.5q0 145 61.5 259t169 176.5t236.5 62.5q117 0 213 -62.5t135 -163.5l43 201h101zM697 128q79 48 124 135t45 200q0 156 -85 253t-218 97q-98 0 -179 -49t-128 -137
t-47 -203q0 -154 87 -249t224 -95q98 0 177 48z" />
    <glyph glyph-name="r" unicode="r" horiz-adv-x="638" 
d="M670 893l-15 -102q-37 10 -92 10q-117 0 -186.5 -71t-89.5 -210l-74 -520h-117l125 893h98v-125q35 61 105 98t151 37q58 0 95 -10z" />
    <glyph glyph-name="s" unicode="s" horiz-adv-x="876" 
d="M167 46q-93 71 -106 194h113q10 -78 74.5 -124t159.5 -46q100 0 163.5 47t63.5 123q0 115 -131 145l-164 41q-96 25 -146.5 84t-50.5 143q0 123 95.5 194t236.5 71t230.5 -74t93.5 -195h-113q-6 78 -65.5 126t-151.5 48q-90 0 -147.5 -42t-57.5 -119q0 -70 40 -98.5
t91 -39.5l146 -32q109 -25 162 -87.5t53 -152.5q0 -123 -97.5 -200t-250.5 -77q-148 0 -241 71z" />
    <glyph glyph-name="t" unicode="t" horiz-adv-x="589" 
d="M582 797h-181l-110 -797h-119l113 797h-179l13 96h178l35 240h117l-33 -240h178z" />
    <glyph glyph-name="u" unicode="u" 
d="M944 893l-125 -893h-96v137q-53 -80 -135 -121t-180 -41q-135 0 -209 74t-74 201q0 43 4 65l80 578h119l-76 -549q-6 -37 -6 -70q0 -104 54 -149t155 -45q117 0 198.5 83t100.5 218l71 512h119z" />
    <glyph glyph-name="v" unicode="v" horiz-adv-x="915" 
d="M213 893l193 -772l413 772h129l-497 -893h-119l-240 893h121z" />
    <glyph glyph-name="w" unicode="w" horiz-adv-x="1390" 
d="M223 893l129 -741l336 727h123l133 -727l346 741h121l-426 -893h-117l-135 739l-340 -739h-119l-172 893h121z" />
    <glyph glyph-name="x" unicode="x" horiz-adv-x="854" 
d="M115 0h-146l385 449l-258 444h133q39 -68 140 -248q12 -25 28.5 -54.5t34.5 -62.5l307 365h148l-389 -449l264 -444h-135q-6 12 -105 180l-104 180z" />
    <glyph glyph-name="y" unicode="y" horiz-adv-x="919" 
d="M952 893l-559 -1081q-59 -111 -129.5 -163t-185.5 -52q-72 0 -121 16l12 98q57 -14 103 -14q80 0 126 33.5t81 105.5l61 119l-248 938h117l203 -801l409 801h131z" />
    <glyph glyph-name="z" unicode="z" horiz-adv-x="886" 
d="M59 96l613 695h-514l14 102h668l-15 -100l-614 -691h518l-14 -102h-668z" />
    <glyph glyph-name="braceleft" unicode="{" horiz-adv-x="507" 
d="M166 698q59 0 94 35t47 119l49 342q18 127 87 181.5t192 54.5l-14 -93q-84 0 -116 -36.5t-42 -112.5l-49 -359q-23 -125 -105 -176q55 -43 56 -131q0 -29 -3 -43l-51 -358q-4 -37 -4 -49q0 -51 27.5 -76t95.5 -25l-12 -92q-219 -4 -219 178q0 16 4 58l47 342q4 37 4 49
q0 59 -26.5 81.5t-73.5 22.5z" />
    <glyph glyph-name="bar" unicode="|" horiz-adv-x="667" 
d="M524 1448l-227 -1614h-100l227 1614h100z" />
    <glyph glyph-name="braceright" unicode="}" horiz-adv-x="507" 
d="M309 577.5q-35 -32.5 -49 -120.5l-49 -342q-18 -125 -87 -181.5t-192 -54.5l13 92q84 0 115.5 36t43.5 114l52 358q18 123 102 174q-57 47 -57 131q0 12 4 45l51 359q4 33 4 45q0 53 -27.5 78.5t-93.5 25.5l13 93q109 0 163 -42t54 -141q0 -16 -4 -53l-50 -342
q-4 -33 -4 -45q0 -61 27 -85t76 -24l-15 -88q-55 0 -90 -32.5z" />
    <glyph glyph-name="asciitilde" unicode="~" horiz-adv-x="784" 
d="M748 653q2 -109 -52.5 -170t-136.5 -61q-47 0 -87 17.5t-89 49.5q-45 29 -73.5 42.5t-59.5 13.5q-86 0 -86 -111h-101q-2 106 52.5 167t136.5 61q47 0 86 -17.5t92 -52.5q45 -29 72.5 -42t58.5 -13q86 0 86 116h101z" />
    <glyph glyph-name="uni00A0" unicode="&#xa0;" horiz-adv-x="487" 
 />
    <glyph glyph-name="exclamdown" unicode="&#xa1;" horiz-adv-x="557" 
d="M300 1130.5q-32 30.5 -32 77.5q0 51 37 87t90 36q49 0 80 -29.5t31 -76.5q0 -53 -36 -89t-89 -36q-49 0 -81 30.5zM307 885h84l-94 -889h-145z" />
    <glyph glyph-name="cent" unicode="&#xa2;" horiz-adv-x="1187" 
d="M808 358.5q89 53.5 122 139.5h119q-37 -131 -162 -212t-281 -83l-2 -58l-82 -34l6 98q-160 25 -253 143.5t-93 292.5q0 139 60.5 251t164 177.5t232.5 71.5l12 88l90 -2l-12 -90q137 -18 233.5 -104.5t118.5 -215.5h-116q-23 90 -89.5 146.5t-160.5 70.5l-2 -22h-92l4 24
q-92 -8 -167 -61t-117 -139t-42 -191q0 -133 67.5 -225t184.5 -113l61 23l-2 -29h2q107 0 196 53.5z" />
    <glyph glyph-name="sterling" unicode="&#xa3;" horiz-adv-x="1220" 
d="M462 248q-38 -94 -128 -135h704v-113h-880v113q111 23 171 116t60 215q0 68 -27 156h-194v98h154q-31 70 -47.5 125.5t-16.5 120.5q0 111 50 200t143.5 140t216.5 51q168 0 276.5 -92t114.5 -246h-121q-4 111 -78 172.5t-194 61.5q-133 0 -209 -80t-76 -213
q0 -61 14.5 -107.5t48.5 -132.5h465v-98h-430q20 -76 21 -154q0 -104 -38 -198z" />
    <glyph glyph-name="currency" unicode="&#xa4;" horiz-adv-x="1288" 
d="M995 391l156 -131l-82 -78l-133 152q-115 -94 -264 -94q-74 0 -140.5 24.5t-121.5 69.5l-134 -152l-81 78l155 133q-92 113 -92 258q0 150 92 264l-155 132l81 79l134 -151q115 94 262 94t264 -96l133 153l82 -79l-158 -132q94 -117 94 -264q0 -145 -92 -260zM821.5 390
q69.5 42 111.5 111.5t42 149.5q0 82 -41 152.5t-110.5 111.5t-151.5 41q-80 0 -150.5 -41t-112.5 -111.5t-42 -152.5q0 -80 42 -149.5t112.5 -111.5t150.5 -42t149.5 42z" />
    <glyph glyph-name="yen" unicode="&#xa5;" horiz-adv-x="1236" 
d="M750 635h286l-14 -105h-336l-22 -176h333l-14 -102h-334l-35 -252h-116l34 252h-335l14 102h336l24 176h-335l14 105h291l-303 678h122l281 -649l463 649h141z" />
    <glyph glyph-name="brokenbar" unicode="&#xa6;" horiz-adv-x="677" 
d="M539 1454l-93 -641h-110l90 641h113zM408 530l-95 -659h-110l92 659h113z" />
    <glyph glyph-name="section" unicode="&#xa7;" horiz-adv-x="1101" 
d="M302 -298q-97 83 -99 224h116q4 -98 69 -152.5t171 -54.5t164.5 53.5t58.5 141.5q0 96 -57 137t-127 51l-123 21q-125 18 -208 92t-83 201q0 102 57.5 177t153.5 95q-106 33 -155.5 101.5t-49.5 160.5q0 131 99.5 215t255.5 84q154 0 251 -83t99 -222h-121
q-2 98 -65.5 153.5t-169.5 55.5t-166 -54.5t-60 -142.5q0 -158 187 -188l121 -18q131 -20 211.5 -97.5t80.5 -197.5q0 -106 -60 -178t-151 -95q102 -33 153.5 -101.5t51.5 -162.5q0 -86 -46 -154.5t-127 -106.5t-183 -38q-152 0 -249 83zM735.5 289.5q65.5 58.5 65.5 146.5
q0 92 -69.5 146.5t-184.5 54.5q-119 0 -185.5 -58.5t-66.5 -146.5q0 -90 70.5 -145.5t185.5 -55.5q119 0 184.5 58.5z" />
    <glyph glyph-name="dieresis" unicode="&#xa8;" horiz-adv-x="616" 
d="M236.5 1429.5q-25.5 24.5 -25.5 59.5q0 39 25.5 63.5t62.5 24.5t62.5 -24.5t25.5 -63.5q0 -35 -25.5 -59.5t-62.5 -24.5t-62.5 24.5zM547.5 1429.5q-25.5 24.5 -25.5 59.5q0 39 25.5 63.5t64.5 24.5q37 0 61.5 -24.5t24.5 -63.5q0 -35 -25.5 -59.5t-60.5 -24.5
q-39 0 -64.5 24.5z" />
    <glyph glyph-name="copyright" unicode="&#xa9;" horiz-adv-x="1265" 
d="M420.5 239.5q-111.5 65.5 -178 178t-66.5 244.5q0 133 66.5 245.5t178 178t243.5 65.5q131 0 243.5 -66.5t178 -179t65.5 -243.5t-65.5 -243t-178 -178.5t-243.5 -66.5q-132 0 -243.5 65.5zM870.5 307q94.5 55 149.5 149.5t55 205.5t-55 206t-149.5 150t-204.5 55
q-111 0 -205 -56t-150.5 -150.5t-56.5 -204.5q0 -109 56.5 -203t150.5 -150.5t205 -56.5q110 0 204.5 55zM492.5 851q70.5 73 185.5 73q80 0 144.5 -48.5t82.5 -123.5h-86q-16 43 -54 69.5t-93 26.5q-78 0 -123 -50t-45 -136q0 -84 45 -133.5t123 -49.5q55 0 92 25.5
t55 68.5h86q-20 -76 -85.5 -123t-147.5 -47q-111 0 -180.5 72t-69.5 187q0 116 70.5 189z" />
    <glyph glyph-name="guillemotleft" unicode="&#xab;" horiz-adv-x="872" 
d="M287 446l155 -358h-125l-157 358l256 357h127zM594 446l154 -358h-125l-154 358l254 357h125z" />
    <glyph glyph-name="logicalnot" unicode="&#xac;" horiz-adv-x="1077" 
d="M819 279l39 262h-735l16 121h860l-57 -383h-123z" />
    <glyph glyph-name="registered" unicode="&#xae;" horiz-adv-x="1116" 
d="M861.5 1271.5q111.5 -63.5 176 -172t64.5 -237.5q0 -131 -64.5 -241.5t-175 -174t-244.5 -63.5q-135 0 -246.5 63.5t-176 173t-64.5 242.5q0 129 65.5 237.5t177 172t244.5 63.5q132 0 243.5 -63.5zM821 506q94 53 148.5 145t54.5 207q0 113 -54.5 206t-148.5 147.5
t-205 54.5q-115 0 -207 -54.5t-144 -147.5t-52 -206q0 -115 52 -207t144.5 -145t206.5 -53q111 0 205 53zM721 815l74 -156h-88l-68 144h-98v-144h-80v400h186q70 0 110 -35t40 -92q0 -84 -76 -117zM541 872h102q31 0 47.5 14.5t16.5 41.5q0 23 -17.5 38t-46.5 15h-102v-109
z" />
    <glyph glyph-name="macron" unicode="&#xaf;" horiz-adv-x="770" 
d="M758 1528v-101h-455v101h455z" />
    <glyph glyph-name="degree" unicode="&#xb0;" horiz-adv-x="485" 
d="M183.5 966.5q-62.5 61.5 -62.5 151.5q0 92 62.5 154.5t150.5 62.5q92 0 155.5 -62.5t63.5 -154.5q0 -90 -63.5 -151.5t-155.5 -61.5q-88 0 -150.5 61.5zM429 1030q38 37 38 90q0 55 -37 92t-94 37q-53 0 -90 -37.5t-37 -91.5q0 -53 37 -90t90 -37q55 0 93 37z" />
    <glyph glyph-name="plusminus" unicode="&#xb1;" horiz-adv-x="925" 
d="M883 666l-17 -111h-334l-30 -223h-111l31 223h-334l16 111h334l31 221h111l-31 -221h334zM27 109h778l-14 -109h-779z" />
    <glyph glyph-name="uni00B2" unicode="&#xb2;" horiz-adv-x="745" 
d="M287 567h387l-12 -96h-543l8 76l362 358q14 14 66.5 63.5t77 95.5t24.5 95q0 72 -46 114t-124 42q-86 0 -144 -55.5t-60 -149.5h-99q2 133 92.5 215t221.5 82q117 0 188.5 -65.5t71.5 -172.5q0 -84 -42 -146t-124 -144l-29 -29z" />
    <glyph glyph-name="uni00B3" unicode="&#xb3;" horiz-adv-x="831" 
d="M805 1288l-299 -260q119 -8 191.5 -79.5t72.5 -188.5q0 -86 -43 -155.5t-119 -108.5t-168 -39q-133 0 -215 82t-82 213h99q0 -92 56 -147.5t148 -55.5t156 56.5t64 154.5q0 119 -78 157.5t-146 38.5h-71l10 72l309 272h-411l10 91h530z" />
    <glyph glyph-name="acute" unicode="&#xb4;" horiz-adv-x="385" 
d="M221 1444l236 264l80 -76l-275 -227z" />
    <glyph glyph-name="mu" unicode="&#xb5;" horiz-adv-x="1163" 
d="M1014 92l-13 -92q-47 -12 -86 -12q-74 0 -120.5 39t-49.5 108q-41 -70 -124.5 -112.5t-174.5 -42.5q-90 0 -155.5 40.5t-87.5 108.5l-82 -573h-117l189 1337h118l-71 -498q-6 -43 -7 -80q0 -231 226 -231q127 0 211 78t102 209l74 522h117l-91 -641q-2 -12 -4 -28.5
t-2 -39.5q0 -96 88 -96q44 0 60 4z" />
    <glyph glyph-name="paragraph" unicode="&#xb6;" horiz-adv-x="989" 
d="M1135 1225h-148l-196 -1409h-86l196 1409h-151l-199 -1405h-109l127 897h-120q-141 0 -220 72.5t-79 195.5q0 156 97 243t263 87h637z" />
    <glyph glyph-name="periodcentered" unicode="&#xb7;" horiz-adv-x="610" 
d="M211 441q-47 46 -47 108q0 63 46 109.5t109 46.5t110.5 -46.5t47.5 -109.5q0 -61 -47 -107.5t-111 -46.5q-61 0 -108 46z" />
    <glyph glyph-name="cedilla" unicode="&#xb8;" horiz-adv-x="475" 
d="M145 -94q61 0 107.5 -37t46.5 -105q0 -78 -55.5 -118.5t-130.5 -40.5q-82 0 -136 41v88q18 -20 50 -32.5t67 -12.5q43 0 73 20.5t30 57.5q0 31 -30 50t-75 19q-12 0 -41 -4l-37 41l90 186h58v-59l-58 -98q12 4 41 4z" />
    <glyph glyph-name="uni00B9" unicode="&#xb9;" horiz-adv-x="526" 
d="M178 1257q94 0 150.5 32t83.5 102h94l-129 -920h-103l101 709h-207z" />
    <glyph glyph-name="guillemotright" unicode="&#xbb;" horiz-adv-x="872" 
d="M410 446l-256 -358h-127l256 358l-158 357h127zM713 446l-254 -358h-125l256 358l-156 357h125z" />
    <glyph glyph-name="onequarter" unicode="&#xbc;" horiz-adv-x="1435" 
d="M1364 270l-14 -88h-101l-26 -182h-99l25 182h-406l13 82l450 590h137l-83 -584h104zM1225 729l-348 -459h284zM125 74l1092 1222l65 -57l-1092 -1219zM158 1186q88 0 141 31t80 96h92l-119 -854h-104l92 649h-195z" />
    <glyph glyph-name="onehalf" unicode="&#xbd;" horiz-adv-x="1470" 
d="M1006 96h354l-14 -96h-508l10 78l336 330l33 32q61 59 90 101q29 41 28 96q0 61 -42 100t-111 39q-80 0 -131 -51t-52 -133h-102q6 125 89 201t206 75q111 0 178 -60q68 -60 68 -161q0 -78 -38 -136t-83 -102t-57 -59zM125 74l1092 1222l65 -57l-1092 -1219zM158 1186
q88 0 141 31t80 96h92l-119 -854h-104l92 649h-195z" />
    <glyph glyph-name="threequarters" unicode="&#xbe;" horiz-adv-x="1640" 
d="M1569 270l-15 -88h-100l-27 -182h-98l25 182h-406l13 82l450 590h137l-84 -584h105zM1430 729l-349 -459h285zM330 74l1091 1222l66 -57l-1092 -1219zM719 1212l-268 -235q109 -10 172 -77t63 -173q0 -123 -87 -203t-218 -80q-125 0 -202 75t-79 202h101q0 -82 51 -133
t135 -51t139 51t56 139q0 106 -69 141t-130 35h-72l11 74l276 244h-375l15 92h495z" />
    <glyph glyph-name="questiondown" unicode="&#xbf;" horiz-adv-x="925" 
d="M704.5 1307.5q30.5 -27.5 30.5 -72.5q0 -55 -36.5 -91t-90.5 -36q-47 0 -76.5 28.5t-29.5 73.5q0 53 36.5 89t90.5 36q45 0 75.5 -27.5zM641 956l-4 -36q-12 -96 -71.5 -166t-168.5 -158q-76 -63 -120 -105t-73.5 -97.5t-29.5 -121.5q0 -96 63.5 -146t170.5 -50
q137 0 223 75.5t90 200.5h104q-2 -111 -56 -195.5t-148.5 -133t-210.5 -48.5q-156 0 -251.5 81t-95.5 212q0 84 36 151.5t87.5 120t135.5 119.5q94 76 145 133.5t61 127.5l4 36h109z" />
    <glyph glyph-name="Agrave" unicode="&#xc0;" horiz-adv-x="1181" 
d="M436 1632l80 76l236 -264l-41 -39zM641 1313h147l308 -1313h-123l-80 352h-621l-182 -352h-127zM870 455l-168 741l-378 -741h546z" />
    <glyph glyph-name="Aacute" unicode="&#xc1;" horiz-adv-x="1181" 
d="M670 1444l235 264l80 -76l-274 -227zM641 1313h147l308 -1313h-123l-80 352h-621l-182 -352h-127zM870 455l-168 741l-378 -741h546z" />
    <glyph glyph-name="Acircumflex" unicode="&#xc2;" horiz-adv-x="1181" 
d="M649 1663h121l170 -217l-57 -43l-172 172l-174 -172l-58 43zM641 1313h147l308 -1313h-123l-80 352h-621l-182 -352h-127zM870 455l-168 741l-378 -741h546z" />
    <glyph glyph-name="Atilde" unicode="&#xc3;" horiz-adv-x="1181" 
d="M487 1475q0 59 33 90.5t82 31.5q47 0 113 -41q29 -18 49 -26t43 -8q57 0 53 80h68q4 -29 4 -39q0 -61 -35 -95t-92 -34q-33 0 -59.5 11t-59.5 32q-20 12 -40.5 21t-39.5 9q-27 0 -40 -21.5t-9 -58.5h-65q-5 17 -5 48zM641 1313h147l308 -1313h-123l-80 352h-621
l-182 -352h-127zM870 455l-168 741l-378 -741h546z" />
    <glyph glyph-name="Adieresis" unicode="&#xc4;" horiz-adv-x="1181" 
d="M492.5 1427.5q-25.5 24.5 -25.5 59.5q0 39 25.5 63.5t62.5 24.5t62.5 -24.5t25.5 -63.5q0 -35 -25.5 -59.5t-62.5 -24.5t-62.5 24.5zM803.5 1427.5q-25.5 24.5 -25.5 59.5q0 39 25.5 63.5t64.5 24.5q37 0 61.5 -24.5t24.5 -63.5q0 -35 -25.5 -59.5t-60.5 -24.5
q-39 0 -64.5 24.5zM641 1313h147l308 -1313h-123l-80 352h-621l-182 -352h-127zM870 455l-168 741l-378 -741h546z" />
    <glyph glyph-name="Aring" unicode="&#xc5;" horiz-adv-x="1181" 
d="M606 1291q53 -52 139 -52q84 0 138.5 52t54.5 132t-54.5 134.5t-138.5 54.5t-138 -54.5t-54 -134.5t53 -132zM813 1356.5q-29 -27.5 -68 -27.5t-67.5 27.5t-28.5 73.5q0 41 29 68.5t67 27.5q39 0 68 -28t29 -68q0 -46 -29 -73.5zM641 1313h147l308 -1313h-123l-80 352
h-621l-182 -352h-127zM870 455l-168 741l-378 -741h546z" />
    <glyph glyph-name="AE" unicode="&#xc6;" horiz-adv-x="1630" 
d="M956 1196l-67 -483h606l-16 -111h-607l-67 -487h665l-14 -115h-784l55 387h-436l-199 -387h-129l682 1313l995 -2l-16 -117zM840 1196h-133l-363 -707h397z" />
    <glyph glyph-name="Ccedilla" unicode="&#xc7;" horiz-adv-x="1439" 
d="M692 -98q61 0 107.5 -37t46.5 -105q0 -78 -55.5 -118.5t-131.5 -40.5q-82 0 -135 41v88q18 -20 50 -32.5t67 -12.5q43 0 72.5 20.5t29.5 56.5q0 31 -29.5 50.5t-74.5 19.5q-12 0 -41 -4l-37 41l90 186h58v-59l-58 -98q12 4 41 4zM394 51q132 -76 304 -76q150 0 282 52.5
t227.5 146.5t135.5 217h-135q-57 -135 -196.5 -218t-306.5 -83q-137 0 -242 62.5t-162 176t-57 261.5q0 180 74.5 324.5t207.5 226.5t301 82q164 0 286 -87t159 -233h129q-25 129 -103.5 227.5t-199.5 152.5t-264 54q-205 0 -368 -98t-256 -269t-93 -384q0 -182 72.5 -320.5
t204.5 -214.5z" />
    <glyph glyph-name="Egrave" unicode="&#xc8;" horiz-adv-x="1058" 
d="M393 1632l80 76l236 -264l-41 -39zM387 1194l-68 -483h605l-15 -107h-604l-69 -487h667l-16 -117h-787l185 1313h786l-18 -119h-666z" />
    <glyph glyph-name="Eacute" unicode="&#xc9;" horiz-adv-x="1058" 
d="M627 1444l235 264l80 -76l-274 -227zM387 1194l-68 -483h605l-15 -107h-604l-69 -487h667l-16 -117h-787l185 1313h786l-18 -119h-666z" />
    <glyph glyph-name="Ecircumflex" unicode="&#xca;" horiz-adv-x="1058" 
d="M606 1663h121l170 -217l-57 -43l-172 172l-174 -172l-58 43zM387 1194l-68 -483h605l-15 -107h-604l-69 -487h667l-16 -117h-787l185 1313h786l-18 -119h-666z" />
    <glyph glyph-name="Edieresis" unicode="&#xcb;" horiz-adv-x="1058" 
d="M449.5 1427.5q-25.5 24.5 -25.5 59.5q0 39 25.5 63.5t62.5 24.5t62.5 -24.5t25.5 -63.5q0 -35 -25.5 -59.5t-62.5 -24.5t-62.5 24.5zM760.5 1427.5q-25.5 24.5 -25.5 59.5q0 39 25.5 63.5t64.5 24.5q37 0 61.5 -24.5t24.5 -63.5q0 -35 -25.5 -59.5t-60.5 -24.5
q-39 0 -64.5 24.5zM387 1194l-68 -483h605l-15 -107h-604l-69 -487h667l-16 -117h-787l185 1313h786l-18 -119h-666z" />
    <glyph glyph-name="Igrave" unicode="&#xcc;" horiz-adv-x="442" 
d="M72 1632l80 76l235 -264l-41 -39zM100 0l185 1313h123l-185 -1313h-123z" />
    <glyph glyph-name="Iacute" unicode="&#xcd;" horiz-adv-x="442" 
d="M305 1444l236 264l80 -76l-275 -227zM100 0l185 1313h123l-185 -1313h-123z" />
    <glyph glyph-name="Icircumflex" unicode="&#xce;" horiz-adv-x="442" 
d="M285 1663h121l169 -217l-57 -43l-172 172l-174 -172l-57 43zM100 0l185 1313h123l-185 -1313h-123z" />
    <glyph glyph-name="Idieresis" unicode="&#xcf;" horiz-adv-x="442" 
d="M128 1427.5q-26 24.5 -26 59.5q0 39 26 63.5t62 24.5q37 0 63 -24.5t26 -63.5q0 -35 -26 -59.5t-63 -24.5q-36 0 -62 24.5zM439.5 1427.5q-25.5 24.5 -25.5 59.5q0 39 25.5 63.5t64.5 24.5q37 0 61.5 -24.5t24.5 -63.5q0 -35 -25.5 -59.5t-60.5 -24.5q-39 0 -64.5 24.5z
M100 0l185 1313h123l-185 -1313h-123z" />
    <glyph glyph-name="Eth" unicode="&#xd0;" horiz-adv-x="1464" 
d="M1067 1242q131 -71 202.5 -199t71.5 -291q0 -217 -98 -388t-274 -267.5t-402 -96.5h-381l86 606h-149v94h162l86 613h391q174 0 305 -71zM901.5 199q145.5 82 227 226t81.5 323q0 205 -127 326.5t-342 121.5h-266l-69 -496h192v-94h-205l-69 -489h247q185 0 330.5 82z
" />
    <glyph glyph-name="Ntilde" unicode="&#xd1;" horiz-adv-x="1300" 
d="M553 1479q0 59 32.5 91t82.5 32q47 0 112 -41q29 -18 49.5 -26.5t42.5 -8.5q57 0 54 80h67q4 -29 4 -39q0 -61 -34.5 -95t-92.5 -34q-33 0 -59.5 11t-58.5 32q-20 12 -41 21t-39 9q-27 0 -40.5 -21.5t-8.5 -57.5h-66q-4 16 -4 47zM1262 1313l-185 -1313h-121l-577 1100
l-156 -1100h-123l185 1313h121l577 -1108l156 1108h123z" />
    <glyph glyph-name="Ograve" unicode="&#xd2;" horiz-adv-x="1517" 
d="M608 1655l80 76l236 -265l-41 -39zM411.5 49q-139.5 74 -218 212t-78.5 325q0 207 96 379t265 272t376 100q174 0 313.5 -72.5t218 -211t78.5 -326.5q0 -207 -96 -379t-264 -272.5t-375 -100.5q-176 0 -315.5 74zM1032.5 174q141.5 82 223 227.5t81.5 323.5
q0 152 -61.5 264.5t-170 172t-249.5 59.5q-164 0 -305 -81t-225 -224.5t-84 -325.5q0 -152 61.5 -264.5t170 -173t249.5 -60.5q168 0 309.5 82z" />
    <glyph glyph-name="Oacute" unicode="&#xd3;" horiz-adv-x="1517" 
d="M842 1466l235 265l80 -76l-274 -228zM411.5 49q-139.5 74 -218 212t-78.5 325q0 207 96 379t265 272t376 100q174 0 313.5 -72.5t218 -211t78.5 -326.5q0 -207 -96 -379t-264 -272.5t-375 -100.5q-176 0 -315.5 74zM1032.5 174q141.5 82 223 227.5t81.5 323.5
q0 152 -61.5 264.5t-170 172t-249.5 59.5q-164 0 -305 -81t-225 -224.5t-84 -325.5q0 -152 61.5 -264.5t170 -173t249.5 -60.5q168 0 309.5 82z" />
    <glyph glyph-name="Ocircumflex" unicode="&#xd4;" horiz-adv-x="1517" 
d="M821 1686h121l170 -218l-57 -43l-172 172l-174 -172l-58 43zM411.5 49q-139.5 74 -218 212t-78.5 325q0 207 96 379t265 272t376 100q174 0 313.5 -72.5t218 -211t78.5 -326.5q0 -207 -96 -379t-264 -272.5t-375 -100.5q-176 0 -315.5 74zM1032.5 174q141.5 82 223 227.5
t81.5 323.5q0 152 -61.5 264.5t-170 172t-249.5 59.5q-164 0 -305 -81t-225 -224.5t-84 -325.5q0 -152 61.5 -264.5t170 -173t249.5 -60.5q168 0 309.5 82z" />
    <glyph glyph-name="Otilde" unicode="&#xd5;" horiz-adv-x="1517" 
d="M659 1497q0 59 33 91t82 32q47 0 113 -41q29 -18 49 -26.5t43 -8.5q57 0 53 80h68q4 -29 4 -39q0 -61 -35 -95t-92 -34q-33 0 -59.5 11.5t-59.5 31.5q-20 12 -40.5 21.5t-39.5 9.5q-27 0 -40 -21.5t-9 -58.5h-65q-5 16 -5 47zM411.5 49q-139.5 74 -218 212t-78.5 325
q0 207 96 379t265 272t376 100q174 0 313.5 -72.5t218 -211t78.5 -326.5q0 -207 -96 -379t-264 -272.5t-375 -100.5q-176 0 -315.5 74zM1032.5 174q141.5 82 223 227.5t81.5 323.5q0 152 -61.5 264.5t-170 172t-249.5 59.5q-164 0 -305 -81t-225 -224.5t-84 -325.5
q0 -152 61.5 -264.5t170 -173t249.5 -60.5q168 0 309.5 82z" />
    <glyph glyph-name="Odieresis" unicode="&#xd6;" horiz-adv-x="1517" 
d="M664.5 1450q-25.5 25 -25.5 59q0 39 25.5 63.5t62.5 24.5t62.5 -24.5t25.5 -63.5q0 -35 -25.5 -59.5t-62.5 -24.5t-62.5 25zM975.5 1450q-25.5 25 -25.5 59q0 39 25.5 63.5t64.5 24.5q37 0 61.5 -24.5t24.5 -63.5q0 -35 -25.5 -59.5t-60.5 -24.5q-39 0 -64.5 25z
M411.5 49q-139.5 74 -218 212t-78.5 325q0 207 96 379t265 272t376 100q174 0 313.5 -72.5t218 -211t78.5 -326.5q0 -207 -96 -379t-264 -272.5t-375 -100.5q-176 0 -315.5 74zM1032.5 174q141.5 82 223 227.5t81.5 323.5q0 152 -61.5 264.5t-170 172t-249.5 59.5
q-164 0 -305 -81t-225 -224.5t-84 -325.5q0 -152 61.5 -264.5t170 -173t249.5 -60.5q168 0 309.5 82z" />
    <glyph glyph-name="multiply" unicode="&#xd7;" horiz-adv-x="1114" 
d="M510 627l-254 252l66 71l256 -256l256 258l73 -73l-258 -256l258 -258l-69 -68l-256 258l-260 -260l-72 72z" />
    <glyph glyph-name="Oslash" unicode="&#xd8;" horiz-adv-x="1517" 
d="M1165.5 1264.5q139.5 -72.5 218 -211t78.5 -326.5q0 -207 -96 -379t-264 -272.5t-375 -100.5q-176 0 -315.5 74t-218 212t-78.5 325q0 207 96 379t265 272t376 100q174 0 313.5 -72.5zM280.5 375q38.5 -96 108.5 -162l717 948q-109 59 -250 60q-164 0 -305 -81
t-225 -224.5t-84 -325.5q0 -119 38.5 -215zM1032.5 174q141.5 82 223 227.5t81.5 323.5q0 121 -38.5 217t-110.5 160l-717 -948q109 -61 252 -62q168 0 309.5 82z" />
    <glyph glyph-name="Ugrave" unicode="&#xd9;" horiz-adv-x="1280" 
d="M489 1632l80 76l236 -264l-41 -39zM268 1313h121l-113 -826q-4 -33 -4 -75q0 -150 92.5 -235t245.5 -85q164 0 268.5 96.5t127.5 255.5l122 869h127l-122 -875q-31 -219 -172.5 -341t-350.5 -122q-137 0 -241.5 54.5t-161.5 154t-57 230.5q0 45 6 88z" />
    <glyph glyph-name="Uacute" unicode="&#xda;" horiz-adv-x="1280" 
d="M723 1444l235 264l80 -76l-274 -227zM268 1313h121l-113 -826q-4 -33 -4 -75q0 -150 92.5 -235t245.5 -85q164 0 268.5 96.5t127.5 255.5l122 869h127l-122 -875q-31 -219 -172.5 -341t-350.5 -122q-137 0 -241.5 54.5t-161.5 154t-57 230.5q0 45 6 88z" />
    <glyph glyph-name="Ucircumflex" unicode="&#xdb;" horiz-adv-x="1280" 
d="M702 1663h121l170 -217l-57 -43l-172 172l-174 -172l-58 43zM268 1313h121l-113 -826q-4 -33 -4 -75q0 -150 92.5 -235t245.5 -85q164 0 268.5 96.5t127.5 255.5l122 869h127l-122 -875q-31 -219 -172.5 -341t-350.5 -122q-137 0 -241.5 54.5t-161.5 154t-57 230.5
q0 45 6 88z" />
    <glyph glyph-name="Udieresis" unicode="&#xdc;" horiz-adv-x="1280" 
d="M545.5 1427.5q-25.5 24.5 -25.5 59.5q0 39 25.5 63.5t62.5 24.5t62.5 -24.5t25.5 -63.5q0 -35 -25.5 -59.5t-62.5 -24.5t-62.5 24.5zM857 1427.5q-26 24.5 -26 59.5q0 39 26 63.5t65 24.5q37 0 61.5 -24.5t24.5 -63.5q0 -35 -26 -59.5t-60 -24.5q-39 0 -65 24.5z
M268 1313h121l-113 -826q-4 -33 -4 -75q0 -150 92.5 -235t245.5 -85q164 0 268.5 96.5t127.5 255.5l122 869h127l-122 -875q-31 -219 -172.5 -341t-350.5 -122q-137 0 -241.5 54.5t-161.5 154t-57 230.5q0 45 6 88z" />
    <glyph glyph-name="Yacute" unicode="&#xdd;" horiz-adv-x="1062" 
d="M610 1442l236 264l80 -76l-275 -227zM276 1313l277 -654l461 654h145l-555 -772l-78 -541h-123l78 545l-334 768h129z" />
    <glyph glyph-name="Thorn" unicode="&#xde;" horiz-adv-x="1148" 
d="M997.5 959.5q110.5 -103.5 110.5 -275.5q0 -133 -64.5 -234.5t-181.5 -157.5t-270 -56h-336l-33 -236h-123l185 1313h123l-35 -250h325q189 0 299.5 -103.5zM882.5 437q98.5 91 98.5 245q0 123 -75 194.5t-208 71.5h-342l-84 -602h332q180 0 278.5 91z" />
    <glyph glyph-name="germandbls" unicode="&#xdf;" horiz-adv-x="1114" 
d="M954.5 648q61.5 -93 61.5 -220q0 -129 -65.5 -229.5t-183.5 -155.5t-271 -55q-88 0 -129 10l14 104q43 -12 123 -12q178 0 284.5 95.5t106.5 254.5q0 137 -82 209t-217 72h-37l14 106h29q129 0 208 73t79 190q0 104 -68.5 168.5t-181.5 64.5q-115 0 -186.5 -64.5
t-87.5 -173.5l-154 -1087h-117l154 1087q23 164 131 254.5t270 90.5q164 0 263.5 -89.5t99.5 -234.5q0 -117 -61.5 -204t-170.5 -122q113 -39 174.5 -132z" />
    <glyph glyph-name="agrave" unicode="&#xe0;" horiz-adv-x="1142" 
d="M317 1235l80 76l236 -264l-41 -39zM1057 893l-123 -893h-111l19 139q-55 -76 -147.5 -120t-202.5 -44q-113 0 -205 55.5t-144.5 157t-52.5 232.5q0 143 61.5 257t169 177.5t238.5 63.5q127 0 221 -58.5t142 -161.5l36 195h99zM706.5 128q79.5 48 127 136t47.5 201
q0 156 -87 252t-227 96q-96 0 -178 -49t-129 -137t-47 -201q0 -156 87 -251t230 -95q97 0 176.5 48z" />
    <glyph glyph-name="aacute" unicode="&#xe1;" horiz-adv-x="1142" 
d="M551 1047l235 264l80 -76l-274 -227zM1057 893l-123 -893h-111l19 139q-55 -76 -147.5 -120t-202.5 -44q-113 0 -205 55.5t-144.5 157t-52.5 232.5q0 143 61.5 257t169 177.5t238.5 63.5q127 0 221 -58.5t142 -161.5l36 195h99zM706.5 128q79.5 48 127 136t47.5 201
q0 156 -87 252t-227 96q-96 0 -178 -49t-129 -137t-47 -201q0 -156 87 -251t230 -95q97 0 176.5 48z" />
    <glyph glyph-name="acircumflex" unicode="&#xe2;" horiz-adv-x="1142" 
d="M530 1266h121l170 -217l-57 -43l-172 172l-174 -172l-58 43zM1057 893l-123 -893h-111l19 139q-55 -76 -147.5 -120t-202.5 -44q-113 0 -205 55.5t-144.5 157t-52.5 232.5q0 143 61.5 257t169 177.5t238.5 63.5q127 0 221 -58.5t142 -161.5l36 195h99zM706.5 128
q79.5 48 127 136t47.5 201q0 156 -87 252t-227 96q-96 0 -178 -49t-129 -137t-47 -201q0 -156 87 -251t230 -95q97 0 176.5 48z" />
    <glyph glyph-name="atilde" unicode="&#xe3;" horiz-adv-x="1142" 
d="M369 1077q0 59 32.5 91t81.5 32q47 0 113 -41q29 -18 49.5 -26.5t42.5 -8.5q57 0 53 80h68q4 -29 4 -39q0 -61 -35 -95t-92 -34q-33 0 -59.5 11.5t-59.5 31.5q-20 12 -40.5 21.5t-39.5 9.5q-27 0 -40 -21.5t-9 -58.5h-65q-4 16 -4 47zM1057 893l-123 -893h-111l19 139
q-55 -76 -147.5 -120t-202.5 -44q-113 0 -205 55.5t-144.5 157t-52.5 232.5q0 143 61.5 257t169 177.5t238.5 63.5q127 0 221 -58.5t142 -161.5l36 195h99zM706.5 128q79.5 48 127 136t47.5 201q0 156 -87 252t-227 96q-96 0 -178 -49t-129 -137t-47 -201q0 -156 87 -251
t230 -95q97 0 176.5 48z" />
    <glyph glyph-name="adieresis" unicode="&#xe4;" horiz-adv-x="1142" 
d="M373.5 1048.5q-25.5 24.5 -25.5 59.5q0 39 24.5 63.5t61.5 24.5q39 0 64.5 -24.5t25.5 -63.5q0 -35 -25.5 -59.5t-64.5 -24.5q-35 0 -60.5 24.5zM685 1048.5q-26 24.5 -26 59.5q0 39 26 63.5t65 24.5q37 0 61.5 -24.5t24.5 -63.5q0 -35 -26 -59.5t-60 -24.5
q-39 0 -65 24.5zM1057 893l-123 -893h-111l19 139q-55 -76 -147.5 -120t-202.5 -44q-113 0 -205 55.5t-144.5 157t-52.5 232.5q0 143 61.5 257t169 177.5t238.5 63.5q127 0 221 -58.5t142 -161.5l36 195h99zM706.5 128q79.5 48 127 136t47.5 201q0 156 -87 252t-227 96
q-96 0 -178 -49t-129 -137t-47 -201q0 -156 87 -251t230 -95q97 0 176.5 48z" />
    <glyph glyph-name="aring" unicode="&#xe5;" horiz-adv-x="1142" 
d="M452.5 1021q-53.5 52 -53.5 132t54.5 134t138.5 54t138 -54t54 -134t-54 -132t-138 -52q-86 0 -139.5 52zM659.5 1086.5q28.5 27.5 28.5 72.5q0 41 -28.5 68.5t-67.5 27.5t-67.5 -27.5t-28.5 -68.5q0 -45 28.5 -72.5t67.5 -27.5t67.5 27.5zM1057 893l-123 -893h-111
l19 139q-55 -76 -147.5 -120t-202.5 -44q-113 0 -205 55.5t-144.5 157t-52.5 232.5q0 143 61.5 257t169 177.5t238.5 63.5q127 0 221 -58.5t142 -161.5l36 195h99zM706.5 128q79.5 48 127 136t47.5 201q0 156 -87 252t-227 96q-96 0 -178 -49t-129 -137t-47 -201
q0 -156 87 -251t230 -95q97 0 176.5 48z" />
    <glyph glyph-name="ae" unicode="&#xe6;" horiz-adv-x="1667" 
d="M829 408q-2 -14 -2 -46q0 -125 78 -204.5t217 -79.5q106 0 193.5 48t124.5 132h119q-47 -127 -166 -202.5t-275 -75.5q-147 0 -248.5 69.5t-126.5 181.5q-43 -121 -150.5 -188.5t-246.5 -67.5q-129 0 -208 67t-79 181q0 127 99.5 201t261.5 74h295l12 80q4 29 4 43
q0 96 -61.5 147t-159.5 51q-102 0 -175 -52t-91 -138h-111q18 129 127 209t258 80q119 0 202 -52.5t109 -142.5q59 92 157.5 142t219.5 50q172 0 277.5 -102t105.5 -272q0 -45 -7 -84t-9 -49h-744zM966.5 728q-102.5 -87 -124.5 -230h626q4 37 5 53q0 123 -72 193.5
t-195 70.5q-137 0 -239.5 -87zM705 408h-277q-121 0 -184.5 -48.5t-63.5 -128.5q0 -74 51.5 -117.5t137.5 -43.5q131 0 221 81.5t110 225.5z" />
    <glyph glyph-name="ccedilla" unicode="&#xe7;" horiz-adv-x="1073" 
d="M514 -92q61 0 107.5 -37t46.5 -104q0 -78 -55.5 -119t-131.5 -41q-82 0 -135 41v88q18 -20 50 -32.5t67 -12.5q43 0 72.5 20.5t29.5 57.5q0 31 -29.5 50t-74.5 19q-12 0 -41 -4l-37 41l90 186h57v-59l-57 -98q12 4 41 4zM292 31.5q95 -56.5 220 -56.5q158 0 284 81
t162 214h-118q-33 -86 -122 -139t-196 -53q-143 0 -228 96t-85 248q0 113 48 202t131 140t183 51q111 0 194 -59.5t109 -161.5h117q-27 145 -142.5 234.5t-275.5 89.5q-133 0 -243.5 -65t-174 -178.5t-63.5 -256.5q0 -129 52.5 -229.5t147.5 -157z" />
    <glyph glyph-name="egrave" unicode="&#xe8;" horiz-adv-x="1048" 
d="M254 1235l80 76l235 -264l-41 -39zM781.5 53q-119.5 -78 -275.5 -78q-188 0 -302 119t-114 316q0 143 59.5 258.5t167 182.5t244.5 67q119 0 211 -50.5t142.5 -139.5t50.5 -202q0 -68 -15 -118h-743l-2 -35q0 -133 85 -216t222 -83q106 0 189 50t122 134h117
q-39 -127 -158.5 -205zM846 500q10 143 -68 230t-217 87q-137 0 -232.5 -84t-109.5 -233h627z" />
    <glyph glyph-name="eacute" unicode="&#xe9;" horiz-adv-x="1048" 
d="M487 1047l236 264l80 -76l-275 -227zM781.5 53q-119.5 -78 -275.5 -78q-188 0 -302 119t-114 316q0 143 59.5 258.5t167 182.5t244.5 67q119 0 211 -50.5t142.5 -139.5t50.5 -202q0 -68 -15 -118h-743l-2 -35q0 -133 85 -216t222 -83q106 0 189 50t122 134h117
q-39 -127 -158.5 -205zM846 500q10 143 -68 230t-217 87q-137 0 -232.5 -84t-109.5 -233h627z" />
    <glyph glyph-name="ecircumflex" unicode="&#xea;" horiz-adv-x="1048" 
d="M467 1266h121l170 -217l-58 -43l-172 172l-174 -172l-57 43zM781.5 53q-119.5 -78 -275.5 -78q-188 0 -302 119t-114 316q0 143 59.5 258.5t167 182.5t244.5 67q119 0 211 -50.5t142.5 -139.5t50.5 -202q0 -68 -15 -118h-743l-2 -35q0 -133 85 -216t222 -83q106 0 189 50
t122 134h117q-39 -127 -158.5 -205zM846 500q10 143 -68 230t-217 87q-137 0 -232.5 -84t-109.5 -233h627z" />
    <glyph glyph-name="edieresis" unicode="&#xeb;" horiz-adv-x="1048" 
d="M310.5 1048.5q-25.5 24.5 -25.5 59.5q0 39 24.5 63.5t61.5 24.5q39 0 64.5 -24.5t25.5 -63.5q0 -35 -25.5 -59.5t-64.5 -24.5q-35 0 -60.5 24.5zM621.5 1048.5q-25.5 24.5 -25.5 59.5q0 39 25.5 63.5t64.5 24.5q37 0 61.5 -24.5t24.5 -63.5q0 -35 -25.5 -59.5
t-60.5 -24.5q-39 0 -64.5 24.5zM781.5 53q-119.5 -78 -275.5 -78q-188 0 -302 119t-114 316q0 143 59.5 258.5t167 182.5t244.5 67q119 0 211 -50.5t142.5 -139.5t50.5 -202q0 -68 -15 -118h-743l-2 -35q0 -133 85 -216t222 -83q106 0 189 50t122 134h117
q-39 -127 -158.5 -205zM846 500q10 143 -68 230t-217 87q-137 0 -232.5 -84t-109.5 -233h627z" />
    <glyph glyph-name="igrave" unicode="&#xec;" horiz-adv-x="436" 
d="M6 1219l80 75l236 -264l-41 -39zM340 893l-127 -893h-117l125 893h119z" />
    <glyph glyph-name="iacute" unicode="&#xed;" horiz-adv-x="436" 
d="M240 1030l235 264l80 -75l-274 -228zM340 893l-127 -893h-117l125 893h119z" />
    <glyph glyph-name="icircumflex" unicode="&#xee;" horiz-adv-x="436" 
d="M219 1249h121l170 -217l-57 -43l-172 172l-175 -172l-57 43zM340 893l-127 -893h-117l125 893h119z" />
    <glyph glyph-name="idieresis" unicode="&#xef;" horiz-adv-x="436" 
d="M62.5 1013.5q-25.5 24.5 -25.5 59.5q0 39 25.5 63.5t62.5 24.5t62.5 -24.5t25.5 -63.5q0 -35 -25.5 -59.5t-62.5 -24.5t-62.5 24.5zM373.5 1013.5q-25.5 24.5 -25.5 59.5q0 39 25.5 63.5t64.5 24.5q37 0 61.5 -24.5t24.5 -63.5q0 -35 -25.5 -59.5t-60.5 -24.5
q-39 0 -64.5 24.5zM340 893l-127 -893h-117l125 893h119z" />
    <glyph glyph-name="eth" unicode="&#xf0;" horiz-adv-x="1089" 
d="M150.5 668.5q60.5 111.5 165 174t233.5 62.5q43 0 84 -7t65 -21l-139 180l-268 -119l-27 76l244 106l-148 193h140l118 -148l248 111l25 -76l-223 -98l184 -234q66 -86 105.5 -192.5t39.5 -214.5q0 -139 -59 -250t-166.5 -173.5t-247.5 -62.5q-129 0 -227 54.5
t-152.5 154t-54.5 232.5q0 141 60.5 252.5zM300 172q87 -94 230 -94q156 0 251.5 107.5t95.5 279.5q0 156 -83 249t-225 93q-102 0 -183 -48t-127 -135t-46 -200q0 -158 87 -252z" />
    <glyph glyph-name="ntilde" unicode="&#xf1;" horiz-adv-x="1050" 
d="M367 1077q0 59 32.5 91t81.5 32q47 0 113 -41q29 -18 49.5 -26.5t42.5 -8.5q57 0 53 80h68q4 -29 4 -39q0 -61 -35 -95t-92 -34q-33 0 -59.5 11.5t-59.5 31.5q-20 12 -40.5 21.5t-39.5 9.5q-27 0 -40 -21.5t-9 -58.5h-65q-4 16 -4 47zM846 844q78 -74 78 -215
q0 -35 -6 -78l-76 -551h-117l72 526q6 43 6 80q0 207 -199 207q-125 0 -212 -75.5t-103 -192.5l-76 -543h-117l125 891h96v-135q51 72 139.5 116t180.5 44q131 0 209 -74z" />
    <glyph glyph-name="ograve" unicode="&#xf2;" horiz-adv-x="1124" 
d="M381 1235l80 76l235 -264l-41 -39zM158.5 674.5q66.5 113.5 181.5 178.5t254 65q131 0 230.5 -56.5t154.5 -157t55 -229.5q0 -143 -66.5 -257t-182 -178.5t-255.5 -64.5q-129 0 -229 56.5t-154.5 157t-54.5 229.5q0 143 66.5 256.5zM299 175q90 -97 240 -97q104 0 191 51
t137.5 140t50.5 202q0 152 -90.5 248t-237.5 96q-106 0 -193.5 -51t-137.5 -140t-50 -202q0 -150 90 -247z" />
    <glyph glyph-name="oacute" unicode="&#xf3;" horiz-adv-x="1124" 
d="M614 1047l236 264l80 -76l-275 -227zM158.5 674.5q66.5 113.5 181.5 178.5t254 65q131 0 230.5 -56.5t154.5 -157t55 -229.5q0 -143 -66.5 -257t-182 -178.5t-255.5 -64.5q-129 0 -229 56.5t-154.5 157t-54.5 229.5q0 143 66.5 256.5zM299 175q90 -97 240 -97
q104 0 191 51t137.5 140t50.5 202q0 152 -90.5 248t-237.5 96q-106 0 -193.5 -51t-137.5 -140t-50 -202q0 -150 90 -247z" />
    <glyph glyph-name="ocircumflex" unicode="&#xf4;" horiz-adv-x="1124" 
d="M594 1266h121l170 -217l-58 -43l-172 172l-174 -172l-57 43zM158.5 674.5q66.5 113.5 181.5 178.5t254 65q131 0 230.5 -56.5t154.5 -157t55 -229.5q0 -143 -66.5 -257t-182 -178.5t-255.5 -64.5q-129 0 -229 56.5t-154.5 157t-54.5 229.5q0 143 66.5 256.5zM299 175
q90 -97 240 -97q104 0 191 51t137.5 140t50.5 202q0 152 -90.5 248t-237.5 96q-106 0 -193.5 -51t-137.5 -140t-50 -202q0 -150 90 -247z" />
    <glyph glyph-name="otilde" unicode="&#xf5;" horiz-adv-x="1124" 
d="M432 1077q0 59 33 91t82 32q47 0 112 -41q29 -18 49.5 -26.5t43.5 -8.5q57 0 53 80h67q4 -29 5 -39q0 -61 -35 -95t-92 -34q-33 0 -59.5 11.5t-59.5 31.5q-20 12 -41 21.5t-39 9.5q-27 0 -40 -21.5t-9 -58.5h-66q-4 16 -4 47zM158.5 674.5q66.5 113.5 181.5 178.5t254 65
q131 0 230.5 -56.5t154.5 -157t55 -229.5q0 -143 -66.5 -257t-182 -178.5t-255.5 -64.5q-129 0 -229 56.5t-154.5 157t-54.5 229.5q0 143 66.5 256.5zM299 175q90 -97 240 -97q104 0 191 51t137.5 140t50.5 202q0 152 -90.5 248t-237.5 96q-106 0 -193.5 -51t-137.5 -140
t-50 -202q0 -150 90 -247z" />
    <glyph glyph-name="odieresis" unicode="&#xf6;" horiz-adv-x="1124" 
d="M437.5 1030.5q-25.5 24.5 -25.5 59.5q0 39 25.5 63.5t62.5 24.5t62.5 -25t25.5 -63q0 -35 -25.5 -59.5t-62.5 -24.5t-62.5 24.5zM748.5 1030.5q-25.5 24.5 -25.5 59.5q0 39 25.5 63.5t64.5 24.5q37 0 61.5 -25t24.5 -63q0 -35 -25.5 -59.5t-60.5 -24.5q-39 0 -64.5 24.5z
M158.5 674.5q66.5 113.5 181.5 178.5t254 65q131 0 230.5 -56.5t154.5 -157t55 -229.5q0 -143 -66.5 -257t-182 -178.5t-255.5 -64.5q-129 0 -229 56.5t-154.5 157t-54.5 229.5q0 143 66.5 256.5zM299 175q90 -97 240 -97q104 0 191 51t137.5 140t50.5 202q0 152 -90.5 248
t-237.5 96q-106 0 -193.5 -51t-137.5 -140t-50 -202q0 -150 90 -247z" />
    <glyph glyph-name="divide" unicode="&#xf7;" horiz-adv-x="995" 
d="M485.5 876.5q-32.5 36.5 -26.5 84.5q4 39 36.5 66.5t71.5 27.5q51 0 83 -39t28 -86q-8 -39 -40 -64.5t-71 -25.5q-49 0 -81.5 36.5zM877 659l-15 -108h-700l14 108h701zM390 196.5q-32 36.5 -28 84.5q6 39 38 65.5t73 26.5q43 0 75 -34t32 -77t-33 -72.5t-76 -29.5
q-49 0 -81 36.5z" />
    <glyph glyph-name="oslash" unicode="&#xf8;" horiz-adv-x="1124" 
d="M824.5 861.5q99.5 -56.5 154.5 -157t55 -229.5q0 -143 -66.5 -257t-182 -178.5t-255.5 -64.5q-129 0 -229 56.5t-154.5 157t-54.5 229.5q0 143 66.5 256.5t181.5 178.5t254 65q131 0 230.5 -56.5zM233.5 280.5q24.5 -65.5 71.5 -112.5l449 608q-74 39 -164 39
q-106 0 -193.5 -51t-137.5 -140t-50 -202q0 -76 24.5 -141.5zM730 129q87 51 137.5 140t50.5 202q0 76 -25 141.5t-72 112.5l-448 -606q72 -41 166 -41q104 0 191 51z" />
    <glyph glyph-name="ugrave" unicode="&#xf9;" 
d="M303 1212l80 76l235 -264l-40 -39zM944 893l-125 -893h-96v137q-53 -80 -135 -121t-180 -41q-135 0 -209 74t-74 201q0 43 4 65l80 578h119l-76 -549q-6 -37 -6 -70q0 -104 54 -149t155 -45q117 0 198.5 83t100.5 218l71 512h119z" />
    <glyph glyph-name="uacute" unicode="&#xfa;" 
d="M537 1024l235 264l80 -76l-274 -227zM944 893l-125 -893h-96v137q-53 -80 -135 -121t-180 -41q-135 0 -209 74t-74 201q0 43 4 65l80 578h119l-76 -549q-6 -37 -6 -70q0 -104 54 -149t155 -45q117 0 198.5 83t100.5 218l71 512h119z" />
    <glyph glyph-name="ucircumflex" unicode="&#xfb;" 
d="M516 1243h121l170 -217l-57 -43l-172 172l-175 -172l-57 43zM944 893l-125 -893h-96v137q-53 -80 -135 -121t-180 -41q-135 0 -209 74t-74 201q0 43 4 65l80 578h119l-76 -549q-6 -37 -6 -70q0 -104 54 -149t155 -45q117 0 198.5 83t100.5 218l71 512h119z" />
    <glyph glyph-name="udieresis" unicode="&#xfc;" 
d="M359.5 1007.5q-25.5 24.5 -25.5 59.5q0 39 25.5 63.5t62.5 24.5t62.5 -24.5t25.5 -63.5q0 -35 -25.5 -59.5t-62.5 -24.5t-62.5 24.5zM670.5 1007.5q-25.5 24.5 -25.5 59.5q0 39 25.5 63.5t64.5 24.5q37 0 61.5 -24.5t24.5 -63.5q0 -35 -25.5 -59.5t-60.5 -24.5
q-39 0 -64.5 24.5zM944 893l-125 -893h-96v137q-53 -80 -135 -121t-180 -41q-135 0 -209 74t-74 201q0 43 4 65l80 578h119l-76 -549q-6 -37 -6 -70q0 -104 54 -149t155 -45q117 0 198.5 83t100.5 218l71 512h119z" />
    <glyph glyph-name="yacute" unicode="&#xfd;" horiz-adv-x="919" 
d="M481 1024l236 264l80 -76l-275 -227zM952 893l-559 -1081q-59 -111 -129.5 -163t-185.5 -52q-72 0 -121 16l12 98q57 -14 103 -14q80 0 126 33.5t81 105.5l61 119l-248 938h117l203 -801l409 801h131z" />
    <glyph glyph-name="thorn" unicode="&#xfe;" horiz-adv-x="1159" 
d="M873.5 862.5q93.5 -55.5 144.5 -157t51 -232.5q0 -145 -62.5 -258t-170 -176.5t-240.5 -63.5q-121 0 -215 55.5t-141 157.5l-78 -577h-119l250 1794h117l-88 -637q53 70 143 110t194 40q121 0 214.5 -55.5zM770 129q82 49 129 137t47 201q0 156 -87 251t-230 95
q-100 0 -180 -48t-125 -135t-45 -200q0 -156 87 -253t226 -97q96 0 178 49z" />
    <glyph glyph-name="ydieresis" unicode="&#xff;" horiz-adv-x="919" 
d="M304.5 1007.5q-25.5 24.5 -25.5 59.5q0 39 25.5 63.5t62.5 24.5t62.5 -24.5t25.5 -63.5q0 -35 -26 -59.5t-62 -24.5q-37 0 -62.5 24.5zM615.5 1007.5q-25.5 24.5 -25.5 59.5q0 39 25.5 63.5t64.5 24.5q37 0 61.5 -24.5t24.5 -63.5q0 -35 -25.5 -59.5t-60.5 -24.5
q-39 0 -64.5 24.5zM952 893l-559 -1081q-59 -111 -129.5 -163t-185.5 -52q-72 0 -121 16l12 98q57 -14 103 -14q80 0 126 33.5t81 105.5l61 119l-248 938h117l203 -801l409 801h131z" />
    <glyph glyph-name="Amacron" unicode="&#x100;" horiz-adv-x="1181" 
d="M938 1528v-101h-455v101h455zM641 1313h147l308 -1313h-123l-80 352h-621l-182 -352h-127zM870 455l-168 741l-378 -741h546z" />
    <glyph glyph-name="amacron" unicode="&#x101;" horiz-adv-x="1142" 
d="M819 1130v-100h-454v100h454zM1057 893l-123 -893h-111l19 139q-55 -76 -147.5 -120t-202.5 -44q-113 0 -205 55.5t-144.5 157t-52.5 232.5q0 143 61.5 257t169 177.5t238.5 63.5q127 0 221 -58.5t142 -161.5l36 195h99zM706.5 128q79.5 48 127 136t47.5 201
q0 156 -87 252t-227 96q-96 0 -178 -49t-129 -137t-47 -201q0 -156 87 -251t230 -95q97 0 176.5 48z" />
    <glyph glyph-name="Abreve" unicode="&#x102;" horiz-adv-x="1181" 
d="M875.5 1463.5q-66.5 -58.5 -164.5 -58.5q-100 0 -168 59.5t-78 155.5h96q8 -57 49 -89t101 -32q61 0 100 34t45 87h98q-12 -98 -78.5 -156.5zM641 1313h147l308 -1313h-123l-80 352h-621l-182 -352h-127zM870 455l-168 741l-378 -741h546z" />
    <glyph glyph-name="abreve" unicode="&#x103;" horiz-adv-x="1142" 
d="M756.5 1066q-66.5 -58 -164.5 -58q-100 0 -168 59t-78 156h96q8 -57 49 -89t101 -32q61 0 100 33.5t45 87.5h99q-13 -99 -79.5 -157zM1057 893l-123 -893h-111l19 139q-55 -76 -147.5 -120t-202.5 -44q-113 0 -205 55.5t-144.5 157t-52.5 232.5q0 143 61.5 257t169 177.5
t238.5 63.5q127 0 221 -58.5t142 -161.5l36 195h99zM706.5 128q79.5 48 127 136t47.5 201q0 156 -87 252t-227 96q-96 0 -178 -49t-129 -137t-47 -201q0 -156 87 -251t230 -95q97 0 176.5 48z" />
    <glyph glyph-name="Aogonek" unicode="&#x104;" horiz-adv-x="1181" 
d="M1090 0q-57 -23 -86 -59.5t-29 -73.5q0 -31 18.5 -49.5t48.5 -18.5q16 0 48 11v-80q-43 -16 -89 -17q-61 0 -96 34t-35 83q0 47 34 92t102 78h84zM641 1313h147l308 -1313h-123l-80 352h-621l-182 -352h-127zM870 455l-168 741l-378 -741h546z" />
    <glyph glyph-name="aogonek" unicode="&#x105;" horiz-adv-x="1142" 
d="M928 0q-57 -23 -86 -59.5t-29 -73.5q0 -31 18.5 -49.5t49.5 -18.5q16 0 47 11v-80q-43 -16 -88 -17q-61 0 -96 34t-35 83q0 47 33.5 92t101.5 78h84zM1057 893l-123 -893h-111l19 139q-55 -76 -147.5 -120t-202.5 -44q-113 0 -205 55.5t-144.5 157t-52.5 232.5
q0 143 61.5 257t169 177.5t238.5 63.5q127 0 221 -58.5t142 -161.5l36 195h99zM706.5 128q79.5 48 127 136t47.5 201q0 156 -87 252t-227 96q-96 0 -178 -49t-129 -137t-47 -201q0 -156 87 -251t230 -95q97 0 176.5 48z" />
    <glyph glyph-name="Cacute" unicode="&#x106;" horiz-adv-x="1439" 
d="M827 1466l236 265l80 -76l-275 -228zM394 51q-132 76 -204.5 214t-72.5 321q0 213 93 384t256 269t368 98q143 0 264 -54t199.5 -152.5t103.5 -227.5h-129q-37 145 -159 232.5t-286 87.5q-168 0 -301 -82t-207.5 -226.5t-74.5 -324.5q0 -147 57 -261t161.5 -176.5
t242.5 -62.5q168 0 307 83t196 218h135q-41 -123 -136 -217t-227 -146.5t-282 -52.5q-172 0 -304 76z" />
    <glyph glyph-name="cacute" unicode="&#x107;" horiz-adv-x="1073" 
d="M592 1047l235 264l80 -76l-274 -227zM292 31.5q-95 56.5 -147.5 157t-52.5 229.5q0 143 63.5 256.5t174 178.5t243.5 65q160 0 276 -89.5t142 -234.5h-117q-27 102 -109.5 161.5t-193.5 59.5q-100 0 -183 -51t-131 -140t-48 -202q0 -152 85 -248t228 -96q106 0 195.5 53
t122.5 139h118q-37 -133 -162.5 -214t-283.5 -81q-125 0 -220 56.5z" />
    <glyph glyph-name="Ccircumflex" unicode="&#x108;" horiz-adv-x="1439" 
d="M807 1686h121l170 -218l-58 -43l-172 172l-174 -172l-57 43zM394 51q-132 76 -204.5 214t-72.5 321q0 213 93 384t256 269t368 98q143 0 264 -54t199.5 -152.5t103.5 -227.5h-129q-37 145 -159 232.5t-286 87.5q-168 0 -301 -82t-207.5 -226.5t-74.5 -324.5
q0 -147 57 -261t161.5 -176.5t242.5 -62.5q168 0 307 83t196 218h135q-41 -123 -136 -217t-227 -146.5t-282 -52.5q-172 0 -304 76z" />
    <glyph glyph-name="ccircumflex" unicode="&#x109;" horiz-adv-x="1073" 
d="M571 1266h121l170 -217l-57 -43l-172 172l-174 -172l-58 43zM292 31.5q-95 56.5 -147.5 157t-52.5 229.5q0 143 63.5 256.5t174 178.5t243.5 65q160 0 276 -89.5t142 -234.5h-117q-27 102 -109.5 161.5t-193.5 59.5q-100 0 -183 -51t-131 -140t-48 -202q0 -152 85 -248
t228 -96q106 0 195.5 53t122.5 139h118q-37 -133 -162.5 -214t-283.5 -81q-125 0 -220 56.5z" />
    <glyph glyph-name="Cdotaccent" unicode="&#x10a;" horiz-adv-x="1439" 
d="M805.5 1470.5q-25.5 24.5 -25.5 59.5q0 39 24.5 63.5t61.5 24.5q39 0 64.5 -24.5t25.5 -63.5q0 -35 -25.5 -59.5t-64.5 -24.5q-35 0 -60.5 24.5zM394 51q-132 76 -204.5 214t-72.5 321q0 213 93 384t256 269t368 98q143 0 264 -54t199.5 -152.5t103.5 -227.5h-129
q-37 145 -159 232.5t-286 87.5q-168 0 -301 -82t-207.5 -226.5t-74.5 -324.5q0 -147 57 -261t161.5 -176.5t242.5 -62.5q168 0 307 83t196 218h135q-41 -123 -136 -217t-227 -146.5t-282 -52.5q-172 0 -304 76z" />
    <glyph glyph-name="cdotaccent" unicode="&#x10b;" horiz-adv-x="1073" 
d="M570.5 1050.5q-25.5 24.5 -25.5 59.5q0 39 24.5 63.5t61.5 24.5q39 0 64.5 -24.5t25.5 -63.5q0 -35 -25.5 -59.5t-64.5 -24.5q-35 0 -60.5 24.5zM292 31.5q-95 56.5 -147.5 157t-52.5 229.5q0 143 63.5 256.5t174 178.5t243.5 65q160 0 276 -89.5t142 -234.5h-117
q-27 102 -109.5 161.5t-193.5 59.5q-100 0 -183 -51t-131 -140t-48 -202q0 -152 85 -248t228 -96q106 0 195.5 53t122.5 139h118q-37 -133 -162.5 -214t-283.5 -81q-125 0 -220 56.5z" />
    <glyph glyph-name="Ccaron" unicode="&#x10c;" horiz-adv-x="1439" 
d="M694 1698l174 -172l172 172l58 -43l-168 -217h-123l-168 217zM394 51q-132 76 -204.5 214t-72.5 321q0 213 93 384t256 269t368 98q143 0 264 -54t199.5 -152.5t103.5 -227.5h-129q-37 145 -159 232.5t-286 87.5q-168 0 -301 -82t-207.5 -226.5t-74.5 -324.5
q0 -147 57 -261t161.5 -176.5t242.5 -62.5q168 0 307 83t196 218h135q-41 -123 -136 -217t-227 -146.5t-282 -52.5q-172 0 -304 76z" />
    <glyph glyph-name="ccaron" unicode="&#x10d;" horiz-adv-x="1073" 
d="M459 1278l174 -172l172 172l57 -43l-168 -217h-123l-168 217zM292 31.5q-95 56.5 -147.5 157t-52.5 229.5q0 143 63.5 256.5t174 178.5t243.5 65q160 0 276 -89.5t142 -234.5h-117q-27 102 -109.5 161.5t-193.5 59.5q-100 0 -183 -51t-131 -140t-48 -202q0 -152 85 -248
t228 -96q106 0 195.5 53t122.5 139h118q-37 -133 -162.5 -214t-283.5 -81q-125 0 -220 56.5z" />
    <glyph glyph-name="Dcaron" unicode="&#x10e;" horiz-adv-x="1306" 
d="M485 1673l174 -172l172 172l58 -43l-168 -217h-123l-168 217zM981 1242q131 -71 202.5 -199t71.5 -291q0 -217 -98 -388t-274 -267.5t-402 -96.5h-381l185 1313h391q174 0 305 -71zM815.5 199q145.5 82 227 226t81.5 323q0 205 -127 326.5t-342 121.5h-266l-151 -1079
h247q185 0 330.5 82z" />
    <glyph glyph-name="dcaron" unicode="&#x10f;" horiz-adv-x="1089" 
d="M852 1405h117v-1405h-107l-8 178q-45 -94 -135 -146t-207 -52q-129 0 -224 60t-145.5 165.5t-50.5 240.5t50.5 242t145.5 167t224 60q109 0 201 -48t139 -138v676zM1171 1405l-24 -395h-80v395h104zM754 184.5q84 100.5 84 261.5q0 162 -84 263.5t-230 101.5
q-145 0 -228 -101.5t-83 -263.5t83 -262t228 -100q146 0 230 100.5z" />
    <glyph glyph-name="Dcroat" unicode="&#x110;" horiz-adv-x="1470" 
d="M1073 1242q131 -71 203 -199t72 -291q0 -217 -98.5 -388t-274.5 -267.5t-402 -96.5h-380l86 606h-150v94h162l86 613h391q174 0 305 -71zM907.5 199q145.5 82 227.5 226t82 323q0 205 -127 326.5t-342 121.5h-267l-69 -496h192v-94h-205l-69 -489h248q184 0 329.5 82z
" />
    <glyph glyph-name="dcroat" unicode="&#x111;" horiz-adv-x="1042" 
d="M1182 1208l-14 -80h-585l12 80h587zM1122 1405l-196 -1405h-92l6 143q-49 -76 -143.5 -122t-200.5 -46q-121 0 -213.5 55.5t-142.5 157t-50 232.5q0 145 61.5 258t168 176.5t237.5 63.5q115 0 209 -55.5t141 -155.5l99 698h116zM700.5 128q77.5 48 122.5 135t45 200
q0 156 -85 253t-220 97q-98 0 -178 -49t-126 -137t-46 -201q0 -158 84 -252t227 -94q99 0 176.5 48z" />
    <glyph glyph-name="Emacron" unicode="&#x112;" horiz-adv-x="1058" 
d="M895 1528v-101h-455v101h455zM387 1194l-68 -483h605l-15 -107h-604l-69 -487h667l-16 -117h-787l185 1313h786l-18 -119h-666z" />
    <glyph glyph-name="emacron" unicode="&#x113;" horiz-adv-x="1048" 
d="M756 1130v-100h-455v100h455zM781.5 53q-119.5 -78 -275.5 -78q-188 0 -302 119t-114 316q0 143 59.5 258.5t167 182.5t244.5 67q119 0 211 -50.5t142.5 -139.5t50.5 -202q0 -68 -15 -118h-743l-2 -35q0 -133 85 -216t222 -83q106 0 189 50t122 134h117
q-39 -127 -158.5 -205zM846 500q10 143 -68 230t-217 87q-137 0 -232.5 -84t-109.5 -233h627z" />
    <glyph glyph-name="Ebreve" unicode="&#x114;" horiz-adv-x="1058" 
d="M832.5 1463.5q-66.5 -58.5 -164.5 -58.5q-100 0 -168 59.5t-78 155.5h96q8 -57 49 -89t101 -32q61 0 100 34t45 87h98q-12 -98 -78.5 -156.5zM387 1194l-68 -483h605l-15 -107h-604l-69 -487h667l-16 -117h-787l185 1313h786l-18 -119h-666z" />
    <glyph glyph-name="ebreve" unicode="&#x115;" horiz-adv-x="1048" 
d="M693.5 1066q-66.5 -58 -165.5 -58q-100 0 -167.5 59t-77.5 156h96q8 -57 49 -89t100 -32q61 0 100.5 33.5t45.5 87.5h98q-12 -99 -78.5 -157zM781.5 53q-119.5 -78 -275.5 -78q-188 0 -302 119t-114 316q0 143 59.5 258.5t167 182.5t244.5 67q119 0 211 -50.5
t142.5 -139.5t50.5 -202q0 -68 -15 -118h-743l-2 -35q0 -133 85 -216t222 -83q106 0 189 50t122 134h117q-39 -127 -158.5 -205zM846 500q10 143 -68 230t-217 87q-137 0 -232.5 -84t-109.5 -233h627z" />
    <glyph glyph-name="Edotaccent" unicode="&#x116;" horiz-adv-x="1058" 
d="M605.5 1448q-25.5 25 -25.5 59q0 39 24.5 63.5t61.5 24.5q39 0 64.5 -24.5t25.5 -63.5q0 -35 -25.5 -59.5t-64.5 -24.5q-35 0 -60.5 25zM387 1194l-68 -483h605l-15 -107h-604l-69 -487h667l-16 -117h-787l185 1313h786l-18 -119h-666z" />
    <glyph glyph-name="edotaccent" unicode="&#x117;" horiz-adv-x="1048" 
d="M466 1050.5q-26 24.5 -26 59.5q0 39 24.5 63.5t61.5 24.5q39 0 64.5 -24.5t25.5 -63.5q0 -35 -25.5 -59.5t-64.5 -24.5q-34 0 -60 24.5zM781.5 53q-119.5 -78 -275.5 -78q-188 0 -302 119t-114 316q0 143 59.5 258.5t167 182.5t244.5 67q119 0 211 -50.5t142.5 -139.5
t50.5 -202q0 -68 -15 -118h-743l-2 -35q0 -133 85 -216t222 -83q106 0 189 50t122 134h117q-39 -127 -158.5 -205zM846 500q10 143 -68 230t-217 87q-137 0 -232.5 -84t-109.5 -233h627z" />
    <glyph glyph-name="Eogonek" unicode="&#x118;" horiz-adv-x="1058" 
d="M881 0q-57 -23 -86 -59.5t-29 -73.5q0 -31 18.5 -49.5t49.5 -18.5q16 0 47 11v-80q-43 -16 -88 -17q-61 0 -96 34t-35 83q0 47 33.5 92t101.5 78h84zM387 1194l-68 -483h605l-15 -107h-604l-69 -487h667l-16 -117h-787l185 1313h786l-18 -119h-666z" />
    <glyph glyph-name="eogonek" unicode="&#x119;" horiz-adv-x="1048" 
d="M471 8q-57 -23 -86 -59.5t-29 -73.5q0 -31 18.5 -49.5t49.5 -18.5q16 0 47 11v-80q-43 -16 -88 -17q-61 0 -96 34t-35 83q0 47 33.5 92t101.5 78h84zM781.5 53q-119.5 -78 -275.5 -78q-188 0 -302 119t-114 316q0 143 59.5 258.5t167 182.5t244.5 67q119 0 211 -50.5
t142.5 -139.5t50.5 -202q0 -68 -15 -118h-743l-2 -35q0 -133 85 -216t222 -83q106 0 189 50t122 134h117q-39 -127 -158.5 -205zM846 500q10 143 -68 230t-217 87q-137 0 -232.5 -84t-109.5 -233h627z" />
    <glyph glyph-name="Ecaron" unicode="&#x11a;" horiz-adv-x="1058" 
d="M494 1675l174 -172l172 172l57 -43l-168 -217h-123l-168 217zM387 1194l-68 -483h605l-15 -107h-604l-69 -487h667l-16 -117h-787l185 1313h786l-18 -119h-666z" />
    <glyph glyph-name="ecaron" unicode="&#x11b;" horiz-adv-x="1048" 
d="M354 1278l174 -172l172 172l58 -43l-168 -217h-123l-168 217zM781.5 53q-119.5 -78 -275.5 -78q-188 0 -302 119t-114 316q0 143 59.5 258.5t167 182.5t244.5 67q119 0 211 -50.5t142.5 -139.5t50.5 -202q0 -68 -15 -118h-743l-2 -35q0 -133 85 -216t222 -83
q106 0 189 50t122 134h117q-39 -127 -158.5 -205zM846 500q10 143 -68 230t-217 87q-137 0 -232.5 -84t-109.5 -233h627z" />
    <glyph glyph-name="Gcircumflex" unicode="&#x11c;" horiz-adv-x="1460" 
d="M807 1683h121l170 -217l-58 -43l-172 172l-174 -172l-57 43zM743 686h660l-10 -94q-16 -182 -104.5 -322.5t-234 -217.5t-329.5 -77q-182 0 -319.5 76t-213 218.5t-75.5 332.5q0 209 88 377t246.5 263t363.5 95q223 0 384 -114.5t206 -304.5h-129q-43 137 -169 221
t-290 84q-166 0 -296 -79t-202.5 -219.5t-72.5 -316.5q0 -160 59.5 -276.5t168 -179t251.5 -62.5t261 61.5t190.5 172t85.5 256.5h-535z" />
    <glyph glyph-name="gcircumflex" unicode="&#x11d;" horiz-adv-x="1136" 
d="M666 1275h120l170 -213l-57 -42l-172 169l-174 -169l-57 42zM1047 893l-132 -928q-25 -188 -146.5 -284.5t-309.5 -96.5q-166 0 -276.5 92.5t-129.5 243.5h117q10 -104 92 -167.5t203 -63.5q147 0 233 76.5t105 209.5l26 195q-51 -66 -140 -100.5t-191 -34.5
q-115 0 -207 54t-144.5 148.5t-52.5 213.5q0 139 58.5 244.5t164 164t242.5 58.5q119 0 214 -57.5t140 -153.5l37 186h97zM782.5 234.5q94.5 95.5 94.5 259.5q0 88 -39 161.5t-110 115.5t-161 42q-158 0 -254 -98.5t-96 -259.5q0 -137 88 -226.5t221 -89.5q162 0 256.5 95.5
z" />
    <glyph glyph-name="Gbreve" unicode="&#x11e;" horiz-adv-x="1460" 
d="M1033.5 1483.5q-66.5 -58.5 -165.5 -58.5q-100 0 -167.5 59.5t-77.5 155.5h96q8 -57 49 -88.5t100 -31.5q61 0 100.5 33.5t45.5 86.5h98q-12 -98 -78.5 -156.5zM743 686h660l-10 -94q-16 -182 -104.5 -322.5t-234 -217.5t-329.5 -77q-182 0 -319.5 76t-213 218.5
t-75.5 332.5q0 209 88 377t246.5 263t363.5 95q223 0 384 -114.5t206 -304.5h-129q-43 137 -169 221t-290 84q-166 0 -296 -79t-202.5 -219.5t-72.5 -316.5q0 -160 59.5 -276.5t168 -179t251.5 -62.5t261 61.5t190.5 172t85.5 256.5h-535z" />
    <glyph glyph-name="gbreve" unicode="&#x11f;" horiz-adv-x="1132" 
d="M773.5 1066q-66.5 -58 -165.5 -58q-100 0 -167.5 59t-78.5 156h97q8 -57 49 -89t100 -32q61 0 100.5 33.5t45.5 87.5h98q-12 -99 -78.5 -157zM1047 893l-132 -928q-25 -188 -146.5 -284.5t-309.5 -96.5q-166 0 -276.5 92.5t-129.5 243.5h117q10 -104 92 -167.5t203 -63.5
q147 0 233 76.5t105 209.5l26 195q-51 -66 -140 -100.5t-191 -34.5q-115 0 -207 54t-144.5 148.5t-52.5 213.5q0 139 58.5 244.5t164 164t242.5 58.5q119 0 214 -57.5t140 -153.5l37 186h97zM782.5 234.5q94.5 95.5 94.5 259.5q0 88 -39 161.5t-110 115.5t-161 42
q-158 0 -254 -98.5t-96 -259.5q0 -137 88 -226.5t221 -89.5q162 0 256.5 95.5z" />
    <glyph glyph-name="Gdotaccent" unicode="&#x120;" horiz-adv-x="1460" 
d="M805.5 1468.5q-25.5 24.5 -25.5 59.5q0 39 24.5 63.5t61.5 24.5q39 0 64.5 -24.5t25.5 -63.5q0 -35 -25.5 -59.5t-64.5 -24.5q-35 0 -60.5 24.5zM743 686h660l-10 -94q-16 -182 -104.5 -322.5t-234 -217.5t-329.5 -77q-182 0 -319.5 76t-213 218.5t-75.5 332.5
q0 209 88 377t246.5 263t363.5 95q223 0 384 -114.5t206 -304.5h-129q-43 137 -169 221t-290 84q-166 0 -296 -79t-202.5 -219.5t-72.5 -316.5q0 -160 59.5 -276.5t168 -179t251.5 -62.5t261 61.5t190.5 172t85.5 256.5h-535z" />
    <glyph glyph-name="gdotaccent" unicode="&#x121;" horiz-adv-x="1132" 
d="M545.5 1050.5q-25.5 24.5 -25.5 59.5q0 39 24.5 63.5t61.5 24.5q39 0 64.5 -24.5t25.5 -63.5q0 -35 -25.5 -59.5t-64.5 -24.5q-35 0 -60.5 24.5zM1047 893l-132 -928q-25 -188 -146.5 -284.5t-309.5 -96.5q-166 0 -276.5 92.5t-129.5 243.5h117q10 -104 92 -167.5
t203 -63.5q147 0 233 76.5t105 209.5l26 195q-51 -66 -140 -100.5t-191 -34.5q-115 0 -207 54t-144.5 148.5t-52.5 213.5q0 139 58.5 244.5t164 164t242.5 58.5q119 0 214 -57.5t140 -153.5l37 186h97zM782.5 234.5q94.5 95.5 94.5 259.5q0 88 -39 161.5t-110 115.5t-161 42
q-158 0 -254 -98.5t-96 -259.5q0 -137 88 -226.5t221 -89.5q162 0 256.5 95.5z" />
    <glyph glyph-name="uni0122" unicode="&#x122;" horiz-adv-x="1460" 
d="M806 -126q30 -32 30 -85q0 -90 -57.5 -137t-127.5 -41v41q51 2 77 28.5t28 65.5q-14 -8 -33 -8q-33 0 -54.5 21.5t-21.5 56.5q0 39 25.5 64.5t64.5 25.5t69 -32zM743 686h660l-10 -94q-16 -182 -104.5 -322.5t-234 -217.5t-329.5 -77q-182 0 -319.5 76t-213 218.5
t-75.5 332.5q0 209 88 377t246.5 263t363.5 95q223 0 384 -114.5t206 -304.5h-129q-43 137 -169 221t-290 84q-166 0 -296 -79t-202.5 -219.5t-72.5 -316.5q0 -160 59.5 -276.5t168 -179t251.5 -62.5t261 61.5t190.5 172t85.5 256.5h-535z" />
    <glyph glyph-name="uni0123" unicode="&#x123;" horiz-adv-x="1132" 
d="M567 1047l236 264l80 -76l-275 -227zM1047 893l-132 -928q-25 -188 -146.5 -284.5t-309.5 -96.5q-166 0 -276.5 92.5t-129.5 243.5h117q10 -104 92 -167.5t203 -63.5q147 0 233 76.5t105 209.5l26 195q-51 -66 -140 -100.5t-191 -34.5q-115 0 -207 54t-144.5 148.5
t-52.5 213.5q0 139 58.5 244.5t164 164t242.5 58.5q119 0 214 -57.5t140 -153.5l37 186h97zM782.5 234.5q94.5 95.5 94.5 259.5q0 88 -39 161.5t-110 115.5t-161 42q-158 0 -254 -98.5t-96 -259.5q0 -137 88 -226.5t221 -89.5q162 0 256.5 95.5z" />
    <glyph glyph-name="Hbar" unicode="&#x126;" horiz-adv-x="1603" 
d="M1532 1051l-13 -99h-1285l12 99h1286zM442 1313h123l-84 -594h721l84 594h123l-184 -1313h-123l88 612h-723l-86 -612h-123z" />
    <glyph glyph-name="hbar" unicode="&#x127;" horiz-adv-x="1062" 
d="M654 1100l-481 219l14 97l480 -219zM303 1405h117l-90 -647q51 74 139 116q88 43 180 44q131 0 209 -74t78 -215q0 -35 -6 -78l-76 -551h-119l74 526q6 43 6 76q0 211 -199 211q-123 0 -212 -75t-105 -193l-76 -543h-117z" />
    <glyph glyph-name="Itilde" unicode="&#x128;" horiz-adv-x="442" 
d="M123 1475q0 59 32.5 90.5t82.5 31.5q47 0 112 -41q29 -18 49.5 -26t42.5 -8q57 0 54 80h67q4 -29 4 -39q0 -61 -34.5 -95t-92.5 -34q-33 0 -59.5 11t-58.5 32q-20 12 -41 21t-39 9q-27 0 -40.5 -21.5t-8.5 -58.5h-66q-4 17 -4 48zM100 0l185 1313h123l-185 -1313h-123z
" />
    <glyph glyph-name="itilde" unicode="&#x129;" horiz-adv-x="436" 
d="M57 1061q0 59 33 91t82 32q47 0 113 -41q29 -18 49 -26.5t43 -8.5q57 0 53 80h68q4 -29 4 -39q0 -61 -35 -95t-92 -34q-33 0 -59.5 11t-59.5 32q-20 12 -40.5 21.5t-39.5 9.5q-27 0 -40 -21.5t-9 -58.5h-66q-4 16 -4 47zM340 893l-127 -893h-117l125 893h119z" />
    <glyph glyph-name="Imacron" unicode="&#x12a;" horiz-adv-x="442" 
d="M573 1528v-101h-454v101h454zM100 0l185 1313h123l-185 -1313h-123z" />
    <glyph glyph-name="imacron" unicode="&#x12b;" horiz-adv-x="436" 
d="M508 1114v-100h-455v100h455zM340 893l-127 -893h-117l125 893h119z" />
    <glyph glyph-name="Iogonek" unicode="&#x12e;" horiz-adv-x="442" 
d="M227 29q-57 -23 -85.5 -60t-28.5 -73q0 -31 18.5 -49.5t48.5 -18.5q16 0 47 10v-80q-43 -16 -88 -16q-61 0 -96 34t-35 83q0 47 34 92t101 78h84zM100 0h123l185 1313h-123z" />
    <glyph glyph-name="iogonek" unicode="&#x12f;" horiz-adv-x="436" 
d="M211 2q-57 -23 -86 -59.5t-29 -73.5q0 -31 18.5 -49.5t49.5 -18.5q16 0 47 11v-80q-43 -16 -88 -17q-61 0 -96 34t-35 83q0 47 33.5 92t101.5 78h84zM218.5 1034.5q-25.5 24.5 -25.5 59.5q0 39 24.5 63.5t61.5 24.5q39 0 64.5 -24.5t25.5 -63.5q0 -35 -26 -59.5
t-64 -24.5q-35 0 -60.5 24.5zM340 893l-127 -893h-117l125 893h119z" />
    <glyph glyph-name="Idotaccent" unicode="&#x130;" horiz-adv-x="442" 
d="M283.5 1448q-25.5 25 -25.5 59q0 39 24.5 63.5t61.5 24.5q39 0 64.5 -24.5t25.5 -63.5q0 -35 -25.5 -59.5t-64.5 -24.5q-35 0 -60.5 25zM100 0l185 1313h123l-185 -1313h-123z" />
    <glyph glyph-name="dotlessi" unicode="&#x131;" horiz-adv-x="436" 
d="M340 893l-127 -893h-117l125 893h119z" />
    <glyph glyph-name="Jcircumflex" unicode="&#x134;" horiz-adv-x="999" 
d="M590 1667h121l170 -217l-58 -43l-172 172l-174 -172l-57 43zM823 326q-25 -178 -138.5 -264.5t-272.5 -86.5q-164 0 -259.5 95.5t-95.5 255.5q0 35 2 53h117q-2 -16 -2 -49q0 -117 63.5 -180.5t174.5 -63.5q123 0 198.5 65.5t94.5 194.5l118 852h-483l16 115h607z" />
    <glyph glyph-name="jcircumflex" unicode="&#x135;" horiz-adv-x="618" 
d="M244 1249h121l170 -217l-58 -43l-172 172l-174 -172l-57 43zM248 893h117v-1280h-117v1280z" />
    <glyph glyph-name="uni0136" unicode="&#x136;" horiz-adv-x="1136" 
d="M632 -99.5q30 -31.5 30 -84.5q0 -90 -57.5 -137.5t-127.5 -40.5v40q51 2 77 29t28 66q-14 -8 -33 -9q-33 0 -54.5 21.5t-21.5 56.5q0 39 25.5 64.5t64.5 25.5t69 -31.5zM674 748l354 -748h-143l-303 651l-312 -319l-47 -332h-123l185 1313h123l-113 -797l776 797h152z
" />
    <glyph glyph-name="uni0137" unicode="&#x137;" horiz-adv-x="940" 
d="M505 -97.5q30 -31.5 30 -84.5q0 -90 -57.5 -137.5t-127.5 -40.5v41q51 2 77 28.5t28 65.5q-14 -8 -33 -8q-33 0 -54.5 21.5t-21.5 55.5q0 39 25.5 64.5t64.5 25.5t69 -31.5zM578 563l231 -563h-131l-193 479l-235 -213l-37 -266h-117l197 1405h117l-140 -993l533 481h141
z" />
    <glyph glyph-name="Lacute" unicode="&#x139;" horiz-adv-x="880" 
d="M303 1442l236 264l79 -76l-274 -227zM786 113l-14 -113h-672l185 1313h123l-168 -1200h546z" />
    <glyph glyph-name="lacute" unicode="&#x13a;" horiz-adv-x="434" 
d="M311 1534l236 264l80 -76l-275 -227zM293 1405h117l-197 -1405h-117z" />
    <glyph glyph-name="uni013B" unicode="&#x13b;" horiz-adv-x="880" 
d="M517 -99.5q30 -31.5 30 -84.5q0 -90 -57.5 -137.5t-127.5 -40.5v40q51 2 77 29t28 66q-14 -8 -33 -9q-33 0 -54.5 21.5t-21.5 56.5q0 39 26 64.5t65 25.5q38 0 68 -31.5zM786 113l-14 -113h-672l185 1313h123l-168 -1200h546z" />
    <glyph glyph-name="uni013C" unicode="&#x13c;" horiz-adv-x="434" 
d="M236.5 -99.5q29.5 -31.5 29.5 -84.5q0 -90 -57 -137.5t-127 -40.5v40q51 2 76.5 29t27.5 66q-14 -8 -32 -9q-33 0 -54.5 21.5t-21.5 56.5q0 39 25.5 64.5t64.5 25.5t68.5 -31.5zM293 1405h117l-197 -1405h-117z" />
    <glyph glyph-name="Lcaron" unicode="&#x13d;" horiz-adv-x="880" 
d="M712 1091.5q-48 -38.5 -110 -38.5q-12 0 -37 4l6 41q8 -2 21 -2q41 0 64.5 22.5t29.5 57.5q-23 -4 -33 -2q-29 4 -47 24.5t-18 50.5q0 43 29.5 67.5t72.5 20.5q35 -6 59.5 -34.5t24.5 -73.5q0 -12 -2 -21q-12 -78 -60 -116.5zM786 113l-14 -113h-672l185 1313h123
l-168 -1200h546z" />
    <glyph glyph-name="lcaron" unicode="&#x13e;" horiz-adv-x="434" 
d="M293 1405h117l-197 -1405h-117z" />
    <glyph glyph-name="Ldot" unicode="&#x13f;" horiz-adv-x="921" 
d="M576.5 709q-23.5 23 -23.5 54q0 32 23 55t55 23t55.5 -23.5t23.5 -54.5t-23.5 -54t-55.5 -23q-31 0 -54.5 23zM786 113l-14 -113h-672l185 1313h123l-168 -1200h546z" />
    <glyph glyph-name="ldot" unicode="&#x140;" horiz-adv-x="675" 
d="M510.5 582.5q-25.5 24.5 -25.5 57.5q0 34 24.5 59t59.5 25q34 0 59 -25t25 -59q0 -33 -25 -57.5t-59 -24.5q-33 0 -58.5 24.5zM293 1405h117l-197 -1405h-117z" />
    <glyph glyph-name="Lslash" unicode="&#x141;" horiz-adv-x="997" 
d="M903 113l-14 -113h-672l82 582l-125 -56l16 115l125 55l86 617h123l-78 -559l314 139l-17 -115l-313 -139l-74 -526h547z" />
    <glyph glyph-name="lslash" unicode="&#x142;" horiz-adv-x="684" 
d="M573 797l-133 -60l-102 -737h-117l96 682l-135 -61l15 98l133 59l88 627h117l-80 -571l133 59z" />
    <glyph glyph-name="Nacute" unicode="&#x143;" horiz-adv-x="1300" 
d="M735 1448l236 264l80 -76l-275 -227zM1262 1313l-185 -1313h-121l-577 1100l-156 -1100h-123l185 1313h121l577 -1108l156 1108h123z" />
    <glyph glyph-name="nacute" unicode="&#x144;" horiz-adv-x="1050" 
d="M549 1047l235 264l80 -76l-274 -227zM846 844q78 -74 78 -215q0 -35 -6 -78l-76 -551h-117l72 526q6 43 6 80q0 207 -199 207q-125 0 -212 -75.5t-103 -192.5l-76 -543h-117l125 891h96v-135q51 72 139.5 116t180.5 44q131 0 209 -74z" />
    <glyph glyph-name="uni0145" unicode="&#x145;" horiz-adv-x="1300" 
d="M670.5 -99.5q29.5 -31.5 29.5 -84.5q0 -90 -57 -137.5t-127 -40.5v40q51 2 76.5 29t28.5 66q-14 -8 -33 -9q-33 0 -54.5 21.5t-21.5 56.5q0 39 25.5 64.5t64.5 25.5t68.5 -31.5zM1262 1313l-185 -1313h-121l-577 1100l-156 -1100h-123l185 1313h121l577 -1108l156 1108
h123z" />
    <glyph glyph-name="uni0146" unicode="&#x146;" horiz-adv-x="1050" 
d="M550 -99.5q30 -31.5 30 -84.5q0 -90 -57.5 -137.5t-127.5 -40.5v40q51 2 77 29t28 66q-14 -8 -33 -9q-33 0 -54.5 21.5t-21.5 56.5q0 39 25.5 64.5t64.5 25.5t69 -31.5zM846 844q78 -74 78 -215q0 -35 -6 -78l-76 -551h-117l72 526q6 43 6 80q0 207 -199 207
q-125 0 -212 -75.5t-103 -192.5l-76 -543h-117l125 891h96v-135q51 72 139.5 116t180.5 44q131 0 209 -74z" />
    <glyph glyph-name="Ncaron" unicode="&#x147;" horiz-adv-x="1300" 
d="M602 1679l174 -172l172 172l58 -43l-168 -217h-123l-168 217zM1262 1313l-185 -1313h-121l-577 1100l-156 -1100h-123l185 1313h121l577 -1108l156 1108h123z" />
    <glyph glyph-name="ncaron" unicode="&#x148;" horiz-adv-x="1050" 
d="M416 1278l174 -172l172 172l57 -43l-168 -217h-123l-168 217zM846 844q78 -74 78 -215q0 -35 -6 -78l-76 -551h-117l72 526q6 43 6 80q0 207 -199 207q-125 0 -212 -75.5t-103 -192.5l-76 -543h-117l125 891h96v-135q51 72 139.5 116t180.5 44q131 0 209 -74z" />
    <glyph glyph-name="Eng" unicode="&#x14a;" horiz-adv-x="1490" 
d="M285 1313h121l722 -1100v1100h123v-1401q0 -106 -66.5 -168.5t-170.5 -62.5q-23 0 -72 8v96h84q53 0 83 39t30 108v68h-11l-722 1098v-1098h-121v1313z" />
    <glyph glyph-name="eng" unicode="&#x14b;" horiz-adv-x="1052" 
d="M221 893h101l-3 -137q51 74 139.5 118t182.5 44q131 0 208 -74t77 -213q0 -37 -6 -80l-89 -633q-14 -100 -81.5 -159.5t-159.5 -59.5q-31 0 -72 10l12 90q29 -4 41 -4q127 0 146 137l82 594q6 43 6 78q0 109 -53.5 159t-145.5 50q-123 0 -212 -74.5t-105 -193.5l-76 -543
h-117z" />
    <glyph glyph-name="Omacron" unicode="&#x14c;" horiz-adv-x="1517" 
d="M1110 1550v-100h-455v100h455zM411.5 49q-139.5 74 -218 212t-78.5 325q0 207 96 379t265 272t376 100q174 0 313.5 -72.5t218 -211t78.5 -326.5q0 -207 -96 -379t-264 -272.5t-375 -100.5q-176 0 -315.5 74zM1032.5 174q141.5 82 223 227.5t81.5 323.5
q0 152 -61.5 264.5t-170 172t-249.5 59.5q-164 0 -305 -81t-225 -224.5t-84 -325.5q0 -152 61.5 -264.5t170 -173t249.5 -60.5q168 0 309.5 82z" />
    <glyph glyph-name="omacron" unicode="&#x14d;" horiz-adv-x="1124" 
d="M883 1130v-100h-455v100h455zM158.5 674.5q66.5 113.5 181.5 178.5t254 65q131 0 230.5 -56.5t154.5 -157t55 -229.5q0 -143 -66.5 -257t-182 -178.5t-255.5 -64.5q-129 0 -229 56.5t-154.5 157t-54.5 229.5q0 143 66.5 256.5zM299 175q90 -97 240 -97q104 0 191 51
t137.5 140t50.5 202q0 152 -90.5 248t-237.5 96q-106 0 -193.5 -51t-137.5 -140t-50 -202q0 -150 90 -247z" />
    <glyph glyph-name="Ohungarumlaut" unicode="&#x150;" horiz-adv-x="1517" 
d="M711 1466l235 265l80 -76l-274 -228zM975 1466l235 265l78 -76l-272 -228zM411.5 49q-139.5 74 -218 212t-78.5 325q0 207 96 379t265 272t376 100q174 0 313.5 -72.5t218 -211t78.5 -326.5q0 -207 -96 -379t-264 -272.5t-375 -100.5q-176 0 -315.5 74zM1032.5 174
q141.5 82 223 227.5t81.5 323.5q0 152 -61.5 264.5t-170 172t-249.5 59.5q-164 0 -305 -81t-225 -224.5t-84 -325.5q0 -152 61.5 -264.5t170 -173t249.5 -60.5q168 0 309.5 82z" />
    <glyph glyph-name="ohungarumlaut" unicode="&#x151;" horiz-adv-x="1124" 
d="M483 1047l236 264l80 -76l-275 -227zM748 1047l235 264l78 -76l-273 -227zM158.5 674.5q66.5 113.5 181.5 178.5t254 65q131 0 230.5 -56.5t154.5 -157t55 -229.5q0 -143 -66.5 -257t-182 -178.5t-255.5 -64.5q-129 0 -229 56.5t-154.5 157t-54.5 229.5q0 143 66.5 256.5
zM299 175q90 -97 240 -97q104 0 191 51t137.5 140t50.5 202q0 152 -90.5 248t-237.5 96q-106 0 -193.5 -51t-137.5 -140t-50 -202q0 -150 90 -247z" />
    <glyph glyph-name="OE" unicode="&#x152;" horiz-adv-x="2220" 
d="M1548 1194l-67 -483h604l-14 -107h-605l-69 -487h667l-16 -117h-786l38 258q-98 -131 -247.5 -207t-327.5 -76q-176 0 -314.5 74t-217 212t-78.5 325q0 207 96 379t265 272t376 100q190 0 336.5 -87t214.5 -244l43 307h786l-18 -119h-666zM1032.5 174q141.5 82 223 227.5
t81.5 323.5q0 152 -61.5 264.5t-170 172t-249.5 59.5q-164 0 -305 -81t-225 -224.5t-84 -325.5q0 -152 61.5 -264.5t170 -173t249.5 -60.5q168 0 309.5 82z" />
    <glyph glyph-name="oe" unicode="&#x153;" horiz-adv-x="1896" 
d="M1625 53q-120 -78 -275 -78q-188 0 -302 119t-114 316q0 143 59.5 258.5t167 182.5t244.5 67q119 0 211 -50.5t142 -139.5t50 -202q0 -68 -14 -118h-743l-2 -35q0 -133 85 -216t222 -83q106 0 189 50t122 134h117q-39 -127 -159 -205zM1690 500q10 143 -68 230t-217 87
q-137 0 -232.5 -84t-109.5 -233h627zM158.5 674.5q66.5 113.5 181.5 178.5t254 65q131 0 230.5 -56.5t154.5 -157t55 -229.5q0 -143 -66.5 -257t-182 -178.5t-255.5 -64.5q-129 0 -229 56.5t-154.5 157t-54.5 229.5q0 143 66.5 256.5zM299 175q90 -97 240 -97q104 0 191 51
t137.5 140t50.5 202q0 152 -90.5 248t-237.5 96q-106 0 -193.5 -51t-137.5 -140t-50 -202q0 -150 90 -247z" />
    <glyph glyph-name="Racute" unicode="&#x154;" horiz-adv-x="1185" 
d="M625 1446l235 264l80 -76l-274 -227zM285 1313h497q174 0 278.5 -98.5t104.5 -260.5q0 -143 -91 -249.5t-240 -137.5l192 -567h-135l-184 549h-408l-76 -549h-123zM700 664q158 0 247 79.5t89 210.5q0 111 -71.5 178.5t-186.5 67.5h-389l-74 -536h385z" />
    <glyph glyph-name="racute" unicode="&#x155;" horiz-adv-x="638" 
d="M236 1022l235 264l80 -76l-275 -227zM670 893l-15 -102q-37 10 -92 10q-117 0 -186.5 -71t-89.5 -210l-74 -520h-117l125 893h98v-125q35 61 105 98t151 37q58 0 95 -10z" />
    <glyph glyph-name="uni0156" unicode="&#x156;" horiz-adv-x="1185" 
d="M634 -95q30 -32 30 -85q0 -90 -57.5 -137.5t-127.5 -40.5v41q51 2 77 28.5t28 65.5q-14 -8 -33 -8q-33 0 -54.5 21.5t-21.5 55.5q0 39 25.5 65t64.5 26t69 -32zM285 1313h497q174 0 278.5 -98.5t104.5 -260.5q0 -143 -91 -249.5t-240 -137.5l192 -567h-135l-184 549h-408
l-76 -549h-123zM700 664q158 0 247 79.5t89 210.5q0 111 -71.5 178.5t-186.5 67.5h-389l-74 -536h385z" />
    <glyph glyph-name="uni0157" unicode="&#x157;" horiz-adv-x="638" 
d="M236.5 -99.5q29.5 -31.5 29.5 -84.5q0 -90 -57 -137.5t-127 -40.5v40q51 2 76.5 29t27.5 66q-14 -8 -32 -9q-33 0 -54.5 21.5t-21.5 56.5q0 39 25.5 64.5t64.5 25.5t68.5 -31.5zM670 893l-15 -102q-37 10 -92 10q-117 0 -186.5 -71t-89.5 -210l-74 -520h-117l125 893h98
v-125q35 61 105 98t151 37q58 0 95 -10z" />
    <glyph glyph-name="Rcaron" unicode="&#x158;" horiz-adv-x="1185" 
d="M492 1677l174 -172l172 172l57 -43l-168 -217h-123l-168 217zM285 1313h497q174 0 278.5 -98.5t104.5 -260.5q0 -143 -91 -249.5t-240 -137.5l192 -567h-135l-184 549h-408l-76 -549h-123zM700 664q158 0 247 79.5t89 210.5q0 111 -71.5 178.5t-186.5 67.5h-389l-74 -536
h385z" />
    <glyph glyph-name="rcaron" unicode="&#x159;" horiz-adv-x="638" 
d="M102 1253l174 -172l173 172l57 -43l-168 -217h-123l-168 217zM670 893l-15 -102q-37 10 -92 10q-117 0 -186.5 -71t-89.5 -210l-74 -520h-117l125 893h98v-125q35 61 105 98t151 37q58 0 95 -10z" />
    <glyph glyph-name="Sacute" unicode="&#x15a;" horiz-adv-x="1085" 
d="M625 1466l235 265l80 -76l-274 -228zM234.5 1157q56.5 86 157 133t224.5 47q186 0 306 -104.5t131 -274.5h-121q-10 121 -99.5 196t-222.5 75q-135 0 -219 -71t-84 -187q0 -86 54.5 -144.5t148.5 -81.5l195 -49q139 -35 210.5 -126t71.5 -214q0 -113 -59.5 -198.5
t-164 -134t-235.5 -48.5q-190 0 -316 98.5t-146 262.5h131q16 -113 108 -181.5t230 -68.5q143 0 233 73.5t90 188.5q0 92 -57.5 153.5t-153.5 84.5l-174 41q-150 35 -222.5 124t-72.5 210q0 110 56.5 196z" />
    <glyph glyph-name="sacute" unicode="&#x15b;" horiz-adv-x="876" 
d="M469 1047l236 264l79 -76l-274 -227zM167 46q-93 71 -106 194h113q10 -78 74.5 -124t159.5 -46q100 0 163.5 47t63.5 123q0 115 -131 145l-164 41q-96 25 -146.5 84t-50.5 143q0 123 95.5 194t236.5 71t230.5 -74t93.5 -195h-113q-6 78 -65.5 126t-151.5 48
q-90 0 -147.5 -42t-57.5 -119q0 -70 40 -98.5t91 -39.5l146 -32q109 -25 162 -87.5t53 -152.5q0 -123 -97.5 -200t-250.5 -77q-148 0 -241 71z" />
    <glyph glyph-name="Scircumflex" unicode="&#x15c;" horiz-adv-x="1085" 
d="M604 1686h121l170 -218l-57 -43l-172 172l-174 -172l-58 43zM234.5 1157q56.5 86 157 133t224.5 47q186 0 306 -104.5t131 -274.5h-121q-10 121 -99.5 196t-222.5 75q-135 0 -219 -71t-84 -187q0 -86 54.5 -144.5t148.5 -81.5l195 -49q139 -35 210.5 -126t71.5 -214
q0 -113 -59.5 -198.5t-164 -134t-235.5 -48.5q-190 0 -316 98.5t-146 262.5h131q16 -113 108 -181.5t230 -68.5q143 0 233 73.5t90 188.5q0 92 -57.5 153.5t-153.5 84.5l-174 41q-150 35 -222.5 124t-72.5 210q0 110 56.5 196z" />
    <glyph glyph-name="scircumflex" unicode="&#x15d;" horiz-adv-x="876" 
d="M449 1266h120l170 -217l-57 -43l-172 172l-174 -172l-57 43zM167 46q-93 71 -106 194h113q10 -78 74.5 -124t159.5 -46q100 0 163.5 47t63.5 123q0 115 -131 145l-164 41q-96 25 -146.5 84t-50.5 143q0 123 95.5 194t236.5 71t230.5 -74t93.5 -195h-113q-6 78 -65.5 126
t-151.5 48q-90 0 -147.5 -42t-57.5 -119q0 -70 40 -98.5t91 -39.5l146 -32q109 -25 162 -87.5t53 -152.5q0 -123 -97.5 -200t-250.5 -77q-148 0 -241 71z" />
    <glyph glyph-name="Scedilla" unicode="&#x15e;" horiz-adv-x="1085" 
d="M514 -119q59 0 102 -35.5t43 -101.5q0 -76 -54 -116t-130 -40q-74 0 -125 37v82q16 -20 47 -31.5t64 -11.5q43 0 72.5 20.5t29.5 61.5q0 33 -24.5 53.5t-63.5 20.5q-20 0 -55 -10l-37 40l92 187h60l-3 -60l-59 -100q12 4 41 4zM234.5 1157q-56.5 -86 -56.5 -196
q0 -121 73 -210t222 -124l174 -41q96 -23 153.5 -84.5t57.5 -153.5q0 -115 -90 -188.5t-233 -73.5q-137 0 -229.5 68.5t-108.5 181.5h-131q20 -164 146 -262.5t316 -98.5q131 0 235.5 48.5t164 134.5t59.5 198q0 123 -71.5 214.5t-210.5 125.5l-195 49q-94 23 -148.5 81.5
t-54.5 144.5q0 117 84 187.5t219 70.5q133 0 222.5 -75t99.5 -196h121q-10 170 -130 274.5t-307 104.5q-125 0 -225 -47t-156.5 -133z" />
    <glyph glyph-name="scedilla" unicode="&#x15f;" horiz-adv-x="876" 
d="M403 -96q59 0 102.5 -36t43.5 -101q0 -76 -54.5 -116t-129.5 -40q-74 0 -125 37v82q16 -20 46.5 -31.5t63.5 -11.5q43 0 73 20.5t30 61.5q0 33 -25 53t-63 20q-20 0 -56 -10l-37 41l93 186h59l-2 -59l-60 -100q12 4 41 4zM167 46q93 -71 241 -71q154 0 251 77t97 200
q0 90 -53.5 152.5t-161.5 87.5l-146 32q-51 10 -91 39t-40 99q0 78 57.5 119.5t147.5 41.5q92 0 151.5 -48t65.5 -126h113q-4 121 -93.5 195t-230.5 74t-236.5 -71t-95.5 -194q0 -84 50.5 -143t146.5 -84l164 -41q131 -31 131 -145q0 -76 -63.5 -123t-163.5 -47
q-94 0 -159 46t-75 124h-113q13 -123 106 -194z" />
    <glyph glyph-name="Scaron" unicode="&#x160;" horiz-adv-x="1085" 
d="M492 1698l174 -172l172 172l57 -43l-168 -217h-123l-168 217zM234.5 1157q56.5 86 157 133t224.5 47q186 0 306 -104.5t131 -274.5h-121q-10 121 -99.5 196t-222.5 75q-135 0 -219 -71t-84 -187q0 -86 54.5 -144.5t148.5 -81.5l195 -49q139 -35 210.5 -126t71.5 -214
q0 -113 -59.5 -198.5t-164 -134t-235.5 -48.5q-190 0 -316 98.5t-146 262.5h131q16 -113 108 -181.5t230 -68.5q143 0 233 73.5t90 188.5q0 92 -57.5 153.5t-153.5 84.5l-174 41q-150 35 -222.5 124t-72.5 210q0 110 56.5 196z" />
    <glyph glyph-name="scaron" unicode="&#x161;" horiz-adv-x="876" 
d="M336 1278l174 -172l172 172l57 -43l-168 -217h-122l-168 217zM167 46q-93 71 -106 194h113q10 -78 74.5 -124t159.5 -46q100 0 163.5 47t63.5 123q0 115 -131 145l-164 41q-96 25 -146.5 84t-50.5 143q0 123 95.5 194t236.5 71t230.5 -74t93.5 -195h-113q-6 78 -65.5 126
t-151.5 48q-90 0 -147.5 -42t-57.5 -119q0 -70 40 -98.5t91 -39.5l146 -32q109 -25 162 -87.5t53 -152.5q0 -123 -97.5 -200t-250.5 -77q-148 0 -241 71z" />
    <glyph glyph-name="uni0162" unicode="&#x162;" horiz-adv-x="1001" 
d="M424 -96q59 0 102 -36t43 -101q0 -76 -54 -116t-130 -40q-74 0 -125 37v82q16 -20 47 -31.5t64 -11.5q43 0 72.5 20.5t29.5 61.5q0 33 -24.5 53t-63.5 20q-20 0 -55 -10l-37 41l92 186h59l-2 -59l-59 -100q12 4 41 4zM1079 1198l17 115h-946l-15 -115h414l-168 -1198h123
l168 1198h407z" />
    <glyph glyph-name="uni0163" unicode="&#x163;" horiz-adv-x="589" 
d="M266 -96q59 0 102.5 -36t43.5 -101q0 -76 -54.5 -116t-130.5 -40q-74 0 -125 37v82q16 -20 47 -31.5t64 -11.5q43 0 72.5 20.5t29.5 61.5q0 33 -24.5 53t-63.5 20q-20 0 -55 -10l-37 41l92 186h60l-2 -59l-60 -100q12 4 41 4zM582 797h-181l-110 -797h-119l113 797h-179
l13 96h178l35 240h117l-33 -240h178z" />
    <glyph glyph-name="Tcaron" unicode="&#x164;" horiz-adv-x="1001" 
d="M395 1675l174 -172l172 172l58 -43l-168 -217h-123l-168 217zM1079 1198h-407l-168 -1198h-123l168 1198h-414l15 115h946z" />
    <glyph glyph-name="tcaron" unicode="&#x165;" horiz-adv-x="602" 
d="M578 997h-68l49 349h105zM416 893h180l-14 -100h-181l-110 -793h-117l111 793h-179l15 100h178l33 240h117z" />
    <glyph glyph-name="Tbar" unicode="&#x166;" horiz-adv-x="1001" 
d="M913 809l-16 -113h-698l14 113h700zM1079 1198h-407l-168 -1198h-123l168 1198h-414l15 115h946z" />
    <glyph glyph-name="tbar" unicode="&#x167;" horiz-adv-x="589" 
d="M536 463l-442 206l13 91l442 -206zM582 797h-181l-110 -797h-119l113 797h-179l13 96h178l35 240h117l-33 -240h178z" />
    <glyph glyph-name="Utilde" unicode="&#x168;" horiz-adv-x="1280" 
d="M541 1475q0 59 32.5 90.5t81.5 31.5q47 0 113 -41q29 -18 49.5 -26t42.5 -8q57 0 53 80h68q4 -29 4 -39q0 -61 -35 -95t-92 -34q-33 0 -59.5 11t-59.5 32q-20 12 -40.5 21t-39.5 9q-27 0 -40 -21.5t-9 -58.5h-65q-4 17 -4 48zM268 1313h121l-113 -826q-4 -33 -4 -75
q0 -150 92.5 -235t245.5 -85q164 0 268.5 96.5t127.5 255.5l122 869h127l-122 -875q-31 -219 -172.5 -341t-350.5 -122q-137 0 -241.5 54.5t-161.5 154t-57 230.5q0 45 6 88z" />
    <glyph glyph-name="utilde" unicode="&#x169;" 
d="M354 1055q0 59 33 91t82 32q47 0 113 -41q29 -18 49 -26.5t43 -8.5q57 0 53 80h68q4 -29 4 -39q0 -61 -35 -95t-92 -34q-33 0 -59.5 11t-59.5 32q-20 12 -40.5 21t-39.5 9q-27 0 -40 -21.5t-9 -57.5h-66q-4 16 -4 47zM944 893l-125 -893h-96v137q-53 -80 -135 -121
t-180 -41q-135 0 -209 74t-74 201q0 43 4 65l80 578h119l-76 -549q-6 -37 -6 -70q0 -104 54 -149t155 -45q117 0 198.5 83t100.5 218l71 512h119z" />
    <glyph glyph-name="Umacron" unicode="&#x16a;" horiz-adv-x="1280" 
d="M991 1528v-101h-454v101h454zM268 1313h121l-113 -826q-4 -33 -4 -75q0 -150 92.5 -235t245.5 -85q164 0 268.5 96.5t127.5 255.5l122 869h127l-122 -875q-31 -219 -172.5 -341t-350.5 -122q-137 0 -241.5 54.5t-161.5 154t-57 230.5q0 45 6 88z" />
    <glyph glyph-name="umacron" unicode="&#x16b;" 
d="M805 1108v-100h-455v100h455zM944 893l-125 -893h-96v137q-53 -80 -135 -121t-180 -41q-135 0 -209 74t-74 201q0 43 4 65l80 578h119l-76 -549q-6 -37 -6 -70q0 -104 54 -149t155 -45q117 0 198.5 83t100.5 218l71 512h119z" />
    <glyph glyph-name="Uring" unicode="&#x16e;" horiz-adv-x="1280" 
d="M624.5 1418q-53.5 52 -53.5 132t54.5 134.5t138.5 54.5t138 -54.5t54 -134.5t-54 -132t-138 -52q-86 0 -139.5 52zM831.5 1483.5q28.5 27.5 28.5 72.5q0 41 -28.5 69t-67.5 28t-67.5 -28t-28.5 -69q0 -45 28.5 -72.5t67.5 -27.5t67.5 27.5zM268 1313h121l-113 -826
q-4 -33 -4 -75q0 -150 92.5 -235t245.5 -85q164 0 268.5 96.5t127.5 255.5l122 869h127l-122 -875q-31 -219 -172.5 -341t-350.5 -122q-137 0 -241.5 54.5t-161.5 154t-57 230.5q0 45 6 88z" />
    <glyph glyph-name="uring" unicode="&#x16f;" 
d="M438.5 998.5q-53.5 52.5 -53.5 131.5q0 80 54.5 134.5t138.5 54.5t138 -54.5t54 -134.5t-54 -132t-138 -52q-86 0 -139.5 52.5zM645 1064q29 28 29 73q0 41 -29 68.5t-67 27.5q-39 0 -68 -27.5t-29 -68.5q0 -45 29 -73t68 -28q38 0 67 28zM944 893l-125 -893h-96v137
q-53 -80 -135 -121t-180 -41q-135 0 -209 74t-74 201q0 43 4 65l80 578h119l-76 -549q-6 -37 -6 -70q0 -104 54 -149t155 -45q117 0 198.5 83t100.5 218l71 512h119z" />
    <glyph glyph-name="Uhungarumlaut" unicode="&#x170;" horiz-adv-x="1280" 
d="M592 1444l235 264l80 -76l-274 -227zM856 1444l236 264l77 -76l-272 -227zM268 1313h121l-113 -826q-4 -33 -4 -75q0 -150 92.5 -235t245.5 -85q164 0 268.5 96.5t127.5 255.5l122 869h127l-122 -875q-31 -219 -172.5 -341t-350.5 -122q-137 0 -241.5 54.5t-161.5 154
t-57 230.5q0 45 6 88z" />
    <glyph glyph-name="uhungarumlaut" unicode="&#x171;" 
d="M406 1024l235 264l80 -76l-275 -227zM670 1024l235 264l78 -76l-272 -227zM944 893l-125 -893h-96v137q-53 -80 -135 -121t-180 -41q-135 0 -209 74t-74 201q0 43 4 65l80 578h119l-76 -549q-6 -37 -6 -70q0 -104 54 -149t155 -45q117 0 198.5 83t100.5 218l71 512h119z
" />
    <glyph glyph-name="Uogonek" unicode="&#x172;" horiz-adv-x="1280" 
d="M653 -18q-57 -23 -85.5 -60t-28.5 -74q0 -31 18 -49t49 -18q16 0 47 10v-80q-43 -16 -88 -16q-61 0 -96 33.5t-35 83.5q0 47 34 92t101 78h84zM268 1313h121l-113 -826q-4 -33 -4 -75q0 -150 92.5 -235t245.5 -85q164 0 268.5 96.5t127.5 255.5l122 869h127l-122 -875
q-31 -219 -172.5 -341t-350.5 -122q-137 0 -241.5 54.5t-161.5 154t-57 230.5q0 45 6 88z" />
    <glyph glyph-name="uogonek" unicode="&#x173;" 
d="M815 0q-57 -23 -86 -59.5t-29 -73.5q0 -31 18.5 -49.5t49.5 -18.5q16 0 47 11v-80q-43 -16 -88 -17q-61 0 -96 34t-35 83q0 47 34 92t101 78h84zM944 893l-125 -893h-96v137q-53 -80 -135 -121t-180 -41q-135 0 -209 74t-74 201q0 43 4 65l80 578h119l-76 -549
q-6 -37 -6 -70q0 -104 54 -149t155 -45q117 0 198.5 83t100.5 218l71 512h119z" />
    <glyph glyph-name="Wcircumflex" unicode="&#x174;" horiz-adv-x="1812" 
d="M975 1663h121l170 -217l-58 -43l-172 172l-174 -172l-57 43zM279 1313l170 -1135l509 1100h127l199 -1100l483 1135h134l-580 -1313h-115l-202 1124l-521 -1124h-116l-209 1313h121z" />
    <glyph glyph-name="wcircumflex" unicode="&#x175;" horiz-adv-x="1390" 
d="M694 1243h121l170 -217l-57 -43l-172 172l-174 -172l-58 43zM223 893l129 -741l336 727h123l133 -727l346 741h121l-426 -893h-117l-135 739l-340 -739h-119l-172 893h121z" />
    <glyph glyph-name="Ycircumflex" unicode="&#x176;" horiz-adv-x="1062" 
d="M590 1661h121l170 -217l-58 -43l-172 172l-174 -172l-57 43zM276 1313l277 -654l461 654h145l-555 -772l-78 -541h-123l78 545l-334 768h129z" />
    <glyph glyph-name="ycircumflex" unicode="&#x177;" horiz-adv-x="919" 
d="M461 1243h121l170 -217l-58 -43l-172 172l-174 -172l-57 43zM952 893l-559 -1081q-59 -111 -129.5 -163t-185.5 -52q-72 0 -121 16l12 98q57 -14 103 -14q80 0 126 33.5t81 105.5l61 119l-248 938h117l203 -801l409 801h131z" />
    <glyph glyph-name="Ydieresis" unicode="&#x178;" horiz-adv-x="1062" 
d="M433.5 1425.5q-25.5 24.5 -25.5 59.5q0 39 25.5 63.5t62.5 24.5t62.5 -24.5t25.5 -63.5q0 -35 -26 -59.5t-62 -24.5q-37 0 -62.5 24.5zM744.5 1425.5q-25.5 24.5 -25.5 59.5q0 39 25.5 63.5t64.5 24.5q37 0 61.5 -24.5t24.5 -63.5q0 -35 -25.5 -59.5t-60.5 -24.5
q-39 0 -64.5 24.5zM276 1313l277 -654l461 654h145l-555 -772l-78 -541h-123l78 545l-334 768h129z" />
    <glyph glyph-name="Zacute" unicode="&#x179;" horiz-adv-x="1095" 
d="M631 1444l235 264l80 -76l-274 -227zM1114 1219l-903 -1104h750l-15 -115h-919l12 96l907 1102h-739l16 115h905z" />
    <glyph glyph-name="zacute" unicode="&#x17a;" horiz-adv-x="886" 
d="M465 1024l235 264l80 -76l-274 -227zM59 96l613 695h-514l14 102h668l-15 -100l-614 -691h518l-14 -102h-668z" />
    <glyph glyph-name="Zdotaccent" unicode="&#x17b;" horiz-adv-x="1095" 
d="M609.5 1448q-25.5 25 -25.5 59q0 39 24.5 63.5t61.5 24.5q39 0 64.5 -24.5t25.5 -63.5q0 -35 -25.5 -59.5t-64.5 -24.5q-35 0 -60.5 25zM1114 1219l-903 -1104h750l-15 -115h-919l12 96l907 1102h-739l16 115h905z" />
    <glyph glyph-name="zdotaccent" unicode="&#x17c;" horiz-adv-x="886" 
d="M443.5 1028.5q-25.5 24.5 -25.5 58.5q0 39 24.5 64t61.5 25q39 0 64.5 -25t25.5 -64q0 -35 -25.5 -59t-64.5 -24q-35 0 -60.5 24.5zM59 96l613 695h-514l14 102h668l-15 -100l-614 -691h518l-14 -102h-668z" />
    <glyph glyph-name="Zcaron" unicode="&#x17d;" horiz-adv-x="1095" 
d="M498 1675l174 -172l172 172l57 -43l-168 -217h-123l-168 217zM1114 1219l-903 -1104h750l-15 -115h-919l12 96l907 1102h-739l16 115h905z" />
    <glyph glyph-name="zcaron" unicode="&#x17e;" horiz-adv-x="886" 
d="M332 1255l174 -172l172 172l57 -43l-168 -217h-123l-168 217zM59 96l613 695h-514l14 102h668l-15 -100l-614 -691h518l-14 -102h-668z" />
    <glyph glyph-name="florin" unicode="&#x192;" horiz-adv-x="999" 
d="M769 1157q-56 -45 -83 -137l-39 -135h299l-14 -105h-316l-143 -491q-45 -156 -133 -222.5t-246 -66.5h-80l15 106h94q84 0 142.5 47.5t92.5 165.5l138 461h-209l14 105h225l54 178q76 250 352 250h74l-15 -111h-69q-97 0 -153 -45z" />
    <glyph glyph-name="Aringacute" unicode="&#x1fa;" horiz-adv-x="1181" 
d="M696 1563l277 219l66 -88l-310 -176zM610.5 1307.5q53.5 -52.5 139.5 -52.5q84 0 138 52.5t54 132.5t-54 134t-138 54t-138.5 -54t-54.5 -134t53.5 -132.5zM817 1373.5q-29 -27.5 -67 -27.5q-39 0 -68 27.5t-29 72.5q0 41 29 68.5t68 27.5t67.5 -27.5t28.5 -68.5
q0 -45 -29 -72.5zM641 1313h147l308 -1313h-123l-80 352h-621l-182 -352h-127zM870 455l-168 741l-378 -741h546z" />
    <glyph glyph-name="aringacute" unicode="&#x1fb;" horiz-adv-x="1153" 
d="M750 1104l235 264l80 -76l-274 -227zM567.5 902q53.5 -52 139.5 -52q84 0 138 52t54 132t-54 134.5t-138 54.5t-138.5 -54.5t-54.5 -134.5t53.5 -132zM774 967.5q-29 -27.5 -67 -27.5q-39 0 -68 27.5t-29 72.5q0 41 29 69t68 28t67.5 -28t28.5 -69q0 -45 -29 -72.5z
M1057 893l-123 -893h-111l19 139q-55 -76 -147.5 -120t-202.5 -44q-113 0 -205 55.5t-144.5 157t-52.5 232.5q0 143 61.5 257t169 177.5t238.5 63.5q127 0 221 -58.5t142 -161.5l36 195h99zM706.5 128q79.5 48 127 136t47.5 201q0 156 -87 252t-227 96q-96 0 -178 -49
t-129 -137t-47 -201q0 -156 87 -251t230 -95q97 0 176.5 48z" />
    <glyph glyph-name="AEacute" unicode="&#x1fc;" horiz-adv-x="1630" 
d="M1092 1448l235 264l80 -76l-274 -227zM956 1196l-67 -483h606l-16 -111h-607l-67 -487h665l-14 -115h-784l55 387h-436l-199 -387h-129l682 1313l995 -2l-16 -117zM840 1196h-133l-363 -707h397z" />
    <glyph glyph-name="aeacute" unicode="&#x1fd;" horiz-adv-x="1667" 
d="M838 1030l235 264l80 -75l-274 -228zM829 408q-2 -14 -2 -46q0 -125 78 -204.5t217 -79.5q106 0 193.5 48t124.5 132h119q-47 -127 -166 -202.5t-275 -75.5q-147 0 -248.5 69.5t-126.5 181.5q-43 -121 -150.5 -188.5t-246.5 -67.5q-129 0 -208 67t-79 181q0 127 99.5 201
t261.5 74h295l12 80q4 29 4 43q0 96 -61.5 147t-159.5 51q-102 0 -175 -52t-91 -138h-111q18 129 127 209t258 80q119 0 202 -52.5t109 -142.5q59 92 157.5 142t219.5 50q172 0 277.5 -102t105.5 -272q0 -45 -7 -84t-9 -49h-744zM966.5 728q-102.5 -87 -124.5 -230h626
q4 37 5 53q0 123 -72 193.5t-195 70.5q-137 0 -239.5 -87zM705 408h-277q-121 0 -184.5 -48.5t-63.5 -128.5q0 -74 51.5 -117.5t137.5 -43.5q131 0 221 81.5t110 225.5z" />
    <glyph glyph-name="Oslashacute" unicode="&#x1fe;" horiz-adv-x="1517" 
d="M799 1450l235 264l80 -76l-274 -227zM1165.5 1264.5q139.5 -72.5 218 -211t78.5 -326.5q0 -207 -96 -379t-264 -272.5t-375 -100.5q-176 0 -315.5 74t-218 212t-78.5 325q0 207 96 379t265 272t376 100q174 0 313.5 -72.5zM280.5 375q38.5 -96 108.5 -162l717 948
q-109 59 -250 60q-164 0 -305 -81t-225 -224.5t-84 -325.5q0 -119 38.5 -215zM1032.5 174q141.5 82 223 227.5t81.5 323.5q0 121 -38.5 217t-110.5 160l-717 -948q109 -61 252 -62q168 0 309.5 82z" />
    <glyph glyph-name="oslashacute" unicode="&#x1ff;" horiz-adv-x="1124" 
d="M614 1047l236 264l80 -76l-275 -227zM824.5 861.5q99.5 -56.5 154.5 -157t55 -229.5q0 -143 -66.5 -257t-182 -178.5t-255.5 -64.5q-129 0 -229 56.5t-154.5 157t-54.5 229.5q0 143 66.5 256.5t181.5 178.5t254 65q131 0 230.5 -56.5zM233.5 280.5
q24.5 -65.5 71.5 -112.5l449 608q-74 39 -164 39q-106 0 -193.5 -51t-137.5 -140t-50 -202q0 -76 24.5 -141.5zM730 129q87 51 137.5 140t50.5 202q0 76 -25 141.5t-72 112.5l-448 -606q72 -41 166 -41q104 0 191 51z" />
    <glyph glyph-name="uni0218" unicode="&#x218;" horiz-adv-x="1085" 
d="M558 -146.5q30 -31.5 30 -84.5q0 -90 -57.5 -137.5t-127.5 -41.5v41q51 2 77 29t28 66q-14 -8 -33 -9q-33 0 -54.5 21.5t-21.5 56.5q0 39 26 64.5t64 25.5q39 0 69 -31.5zM234.5 1157q56.5 86 157 133t224.5 47q186 0 306 -104.5t131 -274.5h-121q-10 121 -99.5 196
t-222.5 75q-135 0 -219 -71t-84 -187q0 -86 54.5 -144.5t148.5 -81.5l195 -49q139 -35 210.5 -126t71.5 -214q0 -113 -59.5 -198.5t-164 -134t-235.5 -48.5q-190 0 -316 98.5t-146 262.5h131q16 -113 108 -181.5t230 -68.5q143 0 233 73.5t90 188.5q0 92 -57.5 153.5
t-153.5 84.5l-174 41q-150 35 -222.5 124t-72.5 210q0 110 56.5 196z" />
    <glyph glyph-name="uni0219" unicode="&#x219;" horiz-adv-x="903" 
d="M439.5 -126q29.5 -32 29.5 -85q0 -90 -57.5 -137t-126.5 -41v41q51 2 76.5 28.5t27.5 65.5q-14 -8 -33 -8q-33 0 -54 21.5t-21 56.5q0 39 25.5 64.5t64.5 25.5t68.5 -32zM167 46q-93 71 -106 194h113q10 -78 74.5 -124t159.5 -46q100 0 163.5 47t63.5 123q0 115 -131 145
l-164 41q-96 25 -146.5 84t-50.5 143q0 123 95.5 194t236.5 71t230.5 -74t93.5 -195h-113q-6 78 -65.5 126t-151.5 48q-90 0 -147.5 -42t-57.5 -119q0 -70 40 -98.5t91 -39.5l146 -32q109 -25 162 -87.5t53 -152.5q0 -123 -97.5 -200t-250.5 -77q-148 0 -241 71z" />
    <glyph glyph-name="uni021A" unicode="&#x21a;" horiz-adv-x="1001" 
d="M488.5 -124q29.5 -32 29.5 -85q0 -90 -57.5 -137t-126.5 -41v41q51 2 76.5 28.5t27.5 65.5q-14 -8 -32 -8q-33 0 -54.5 21.5t-21.5 56.5q0 39 25.5 64.5t64.5 25.5t68.5 -32zM1079 1198h-407l-168 -1198h-123l168 1198h-414l15 115h946z" />
    <glyph glyph-name="uni021B" unicode="&#x21b;" horiz-adv-x="591" 
d="M304 -115.5q30 -31.5 30 -85.5q0 -90 -57.5 -137t-126.5 -41v41q51 2 76.5 28.5t27.5 65.5q-14 -8 -33 -8q-33 0 -54.5 21.5t-21.5 56.5q0 39 26 64.5t65 25.5q38 0 68 -31.5zM582 797h-181l-110 -797h-119l113 797h-179l13 96h178l35 240h117l-33 -240h178z" />
    <glyph glyph-name="uni0237" unicode="&#x237;" horiz-adv-x="618" 
d="M248 893h117v-1280h-117v1280z" />
    <glyph glyph-name="circumflex" unicode="&#x2c6;" horiz-adv-x="671" 
d="M414 1663h121l170 -217l-58 -43l-172 172l-174 -172l-57 43z" />
    <glyph glyph-name="caron" unicode="&#x2c7;" horiz-adv-x="671" 
d="M328 1675l174 -172l172 172l57 -43l-168 -217h-123l-168 217z" />
    <glyph glyph-name="breve" unicode="&#x2d8;" horiz-adv-x="718" 
d="M691.5 1463.5q-66.5 -58.5 -165.5 -58.5q-100 0 -167.5 59.5t-77.5 155.5h96q8 -57 49 -89t100 -32q61 0 100.5 34t45.5 87h98q-12 -98 -78.5 -156.5z" />
    <glyph glyph-name="dotaccent" unicode="&#x2d9;" horiz-adv-x="305" 
d="M236.5 1429.5q-25.5 24.5 -25.5 59.5q0 39 25.5 63.5t62.5 24.5t62.5 -24.5t25.5 -63.5q0 -35 -25.5 -59.5t-62.5 -24.5t-62.5 24.5z" />
    <glyph glyph-name="ring" unicode="&#x2da;" horiz-adv-x="634" 
d="M329.5 1398q-53.5 52 -53.5 132t54.5 134t138.5 54t138.5 -54t54.5 -134t-54.5 -132t-138.5 -52q-86 0 -139.5 52zM536.5 1463.5q28.5 27.5 28.5 72.5q0 41 -28.5 68.5t-67.5 27.5t-67.5 -27.5t-28.5 -68.5q0 -45 28.5 -72.5t67.5 -27.5t67.5 27.5z" />
    <glyph glyph-name="ogonek" unicode="&#x2db;" horiz-adv-x="407" 
d="M221 0q-57 -23 -86 -59.5t-29 -73.5q0 -31 18.5 -49.5t49.5 -18.5q16 0 47 11v-80q-43 -16 -88 -17q-61 0 -96 34t-35 83q0 47 34 92t101 78h84z" />
    <glyph glyph-name="tilde" unicode="&#x2dc;" horiz-adv-x="780" 
d="M295 1475q0 59 32.5 90.5t82.5 31.5q47 0 112 -41q29 -18 49.5 -26t42.5 -8q57 0 54 80h67q4 -29 4 -39q0 -61 -34.5 -95t-92.5 -34q-33 0 -59.5 11t-58.5 32q-20 12 -41 21t-39 9q-27 0 -40.5 -21.5t-8.5 -58.5h-66q-4 17 -4 48z" />
    <glyph glyph-name="hungarumlaut" unicode="&#x2dd;" horiz-adv-x="688" 
d="M221 1444l236 264l80 -76l-275 -227zM485 1444l236 264l78 -76l-273 -227z" />
    <glyph glyph-name="gravecomb" unicode="&#x300;" horiz-adv-x="0" 
d="M-283 1632l80 76l236 -264l-41 -39z" />
    <glyph glyph-name="acutecomb" unicode="&#x301;" horiz-adv-x="0" 
d="M-164 1444l236 264l80 -76l-275 -227z" />
    <glyph glyph-name="uni0302" unicode="&#x302;" horiz-adv-x="0" 
d="M-258 1663h121l170 -217l-58 -43l-172 172l-174 -172l-57 43z" />
    <glyph glyph-name="tildecomb" unicode="&#x303;" horiz-adv-x="0" 
d="M-485 1475q0 59 32.5 90.5t81.5 31.5q47 0 113 -41q29 -18 49.5 -26t42.5 -8q57 0 53 80h68q4 -29 4 -39q0 -61 -35 -95t-92 -34q-33 0 -59.5 11t-59.5 32q-20 12 -40.5 21t-39.5 9q-27 0 -40 -21.5t-9 -58.5h-65q-4 17 -4 48z" />
    <glyph glyph-name="uni0304" unicode="&#x304;" horiz-adv-x="0" 
d="M-12 1528v-101h-455v101h455z" />
    <glyph glyph-name="uni0306" unicode="&#x306;" horiz-adv-x="0" 
d="M-27.5 1463.5q-66.5 -58.5 -165.5 -58.5q-100 0 -167.5 59.5t-77.5 155.5h96q8 -57 49 -89t100 -32q61 0 100.5 34t45.5 87h98q-12 -98 -78.5 -156.5z" />
    <glyph glyph-name="uni0307" unicode="&#x307;" horiz-adv-x="0" 
d="M-124 1448q-26 25 -26 59q0 39 25 63.5t62 24.5q39 0 64.5 -24.5t25.5 -63.5q0 -35 -26 -59.5t-64 -24.5q-35 0 -61 25z" />
    <glyph glyph-name="uni0308" unicode="&#x308;" horiz-adv-x="0" 
d="M-377.5 1448q-25.5 25 -25.5 59q0 39 24.5 63.5t61.5 24.5q39 0 64.5 -24.5t25.5 -63.5q0 -35 -26 -59.5t-64 -24.5q-35 0 -60.5 25zM-66.5 1448q-25.5 25 -25.5 59q0 39 25.5 63.5t64.5 24.5q37 0 61.5 -24.5t24.5 -63.5q0 -35 -25.5 -59.5t-60.5 -24.5q-39 0 -64.5 25z
" />
    <glyph glyph-name="uni030A" unicode="&#x30a;" horiz-adv-x="0" 
d="M-303 1418q-53 52 -53 132t54 134.5t138 54.5t138.5 -54.5t54.5 -134.5t-54.5 -132t-138.5 -52q-86 0 -139 52zM-96.5 1483.5q28.5 27.5 28.5 72.5q0 41 -28.5 69t-67.5 28t-67.5 -28t-28.5 -69q0 -45 28.5 -72.5t67.5 -27.5t67.5 27.5z" />
    <glyph glyph-name="uni030B" unicode="&#x30b;" horiz-adv-x="0" 
d="M-430 1444l235 264l80 -76l-274 -227zM-166 1444l236 264l77 -76l-272 -227z" />
    <glyph glyph-name="uni030C" unicode="&#x30c;" horiz-adv-x="0" 
d="M-344 1675l174 -172l172 172l57 -43l-168 -217h-122l-168 217z" />
    <glyph glyph-name="uni0312" unicode="&#x312;" horiz-adv-x="0" 
d="M49.5 1537.5q22.5 -21.5 22.5 -56.5q0 -39 -26 -63.5t-64 -24.5q-43 0 -72 30.5t-29 85.5q0 88 56.5 135.5t128.5 41.5v-39q-49 -4 -76 -31t-27 -66q10 8 35 9q29 0 51.5 -21.5z" />
    <glyph glyph-name="uni0326" unicode="&#x326;" horiz-adv-x="0" 
d="M-185.5 -60.5q29.5 -31.5 29.5 -84.5q0 -90 -57 -137.5t-127 -41.5v41q51 2 76.5 29t27.5 66q-14 -8 -32 -9q-33 0 -54.5 21.5t-21.5 56.5q0 39 25.5 64.5t64.5 25.5t68.5 -31.5z" />
    <glyph glyph-name="uni0327" unicode="&#x327;" horiz-adv-x="0" 
d="M-342 -96q59 0 102 -36t43 -101q0 -76 -54 -116t-130 -40q-74 0 -125 37v82q16 -20 47 -31.5t64 -11.5q43 0 72.5 20.5t29.5 61.5q0 33 -24.5 53t-63.5 20q-20 0 -55 -10l-37 41l92 186h59l-2 -59l-59 -100q12 4 41 4z" />
    <glyph glyph-name="uni0338" unicode="&#x338;" horiz-adv-x="0" 
d="M-803 102l465 779l109 -9l-465 -776z" />
    <glyph glyph-name="uni03A9" unicode="&#x3a9;" horiz-adv-x="1603" 
d="M1352.5 334.5q-95.5 -150.5 -265.5 -228.5h345v-106h-527v133q184 51 297 193.5t113 328.5q0 147 -67.5 260t-185.5 174.5t-263 61.5t-262 -62.5t-184.5 -176t-67.5 -261.5q0 -186 106.5 -328.5t282.5 -189.5v-133h-522v106h354q-172 78 -264 228.5t-92 337.5
q0 178 83.5 316t231 214t332.5 76q184 0 332.5 -76t233.5 -212t85 -312q0 -193 -95.5 -343.5z" />
    <glyph glyph-name="pi" unicode="&#x3c0;" horiz-adv-x="1206" 
d="M109 956h931v-106h-168v-627q0 -78 26 -103.5t95 -25.5h47v-94q-53 -8 -92 -8q-123 0 -157.5 63.5t-34.5 155.5v639h-359v-850h-116v850h-172v106z" />
    <glyph glyph-name="uni0E3F" unicode="&#xe3f;" horiz-adv-x="1165" 
d="M1016 552q47 -73 47 -175q0 -178 -125 -277.5t-336 -99.5h-86l-29 -199h-96l27 199h-318l185 1313h319l25 178h96l-25 -178h95q170 0 257 -79t87 -214q0 -123 -69 -219t-187 -142q86 -34 133 -107zM385 1204l-70 -495h379q143 0 234.5 78.5t91.5 203.5q0 98 -60.5 155.5
t-179.5 57.5h-395zM868 182.5q84 71.5 84 196.5q0 109 -71.5 167t-186.5 58h-395l-68 -493h402q151 0 235 71.5z" />
    <glyph glyph-name="Wgrave" unicode="&#x1e80;" horiz-adv-x="1812" 
d="M762 1632l80 76l235 -264l-41 -39zM279 1313l170 -1135l509 1100h127l199 -1100l483 1135h134l-580 -1313h-115l-202 1124l-521 -1124h-116l-209 1313h121z" />
    <glyph glyph-name="wgrave" unicode="&#x1e81;" horiz-adv-x="1390" 
d="M481 1212l80 76l236 -264l-41 -39zM223 893l129 -741l336 727h123l133 -727l346 741h121l-426 -893h-117l-135 739l-340 -739h-119l-172 893h121z" />
    <glyph glyph-name="Wacute" unicode="&#x1e82;" horiz-adv-x="1812" 
d="M995 1444l236 264l80 -76l-275 -227zM279 1313l170 -1135l509 1100h127l199 -1100l483 1135h134l-580 -1313h-115l-202 1124l-521 -1124h-116l-209 1313h121z" />
    <glyph glyph-name="wacute" unicode="&#x1e83;" horiz-adv-x="1390" 
d="M715 1024l235 264l80 -76l-274 -227zM223 893l129 -741l336 727h123l133 -727l346 741h121l-426 -893h-117l-135 739l-340 -739h-119l-172 893h121z" />
    <glyph glyph-name="Wdieresis" unicode="&#x1e84;" horiz-adv-x="1812" 
d="M818.5 1427.5q-25.5 24.5 -25.5 59.5q0 39 25.5 63.5t62.5 24.5t62.5 -24.5t25.5 -63.5q0 -35 -25.5 -59.5t-62.5 -24.5t-62.5 24.5zM1129.5 1427.5q-25.5 24.5 -25.5 59.5q0 39 25.5 63.5t64.5 24.5q37 0 61.5 -24.5t24.5 -63.5q0 -35 -25.5 -59.5t-60.5 -24.5
q-39 0 -64.5 24.5zM279 1313l170 -1135l509 1100h127l199 -1100l483 1135h134l-580 -1313h-115l-202 1124l-521 -1124h-116l-209 1313h121z" />
    <glyph glyph-name="wdieresis" unicode="&#x1e85;" horiz-adv-x="1390" 
d="M537.5 1007.5q-25.5 24.5 -25.5 59.5q0 39 25.5 63.5t62.5 24.5t62.5 -24.5t25.5 -63.5q0 -35 -25.5 -59.5t-62.5 -24.5t-62.5 24.5zM848.5 1007.5q-25.5 24.5 -25.5 59.5q0 39 25.5 63.5t64.5 24.5q37 0 61.5 -24.5t24.5 -63.5q0 -35 -25.5 -59.5t-60.5 -24.5
q-39 0 -64.5 24.5zM223 893l129 -741l336 727h123l133 -727l346 741h121l-426 -893h-117l-135 739l-340 -739h-119l-172 893h121z" />
    <glyph glyph-name="Ygrave" unicode="&#x1ef2;" horiz-adv-x="1062" 
d="M377 1630l80 76l235 -264l-41 -39zM276 1313l277 -654l461 654h145l-555 -772l-78 -541h-123l78 545l-334 768h129z" />
    <glyph glyph-name="ygrave" unicode="&#x1ef3;" horiz-adv-x="919" 
d="M248 1212l80 76l235 -264l-41 -39zM952 893l-559 -1081q-59 -111 -129.5 -163t-185.5 -52q-72 0 -121 16l12 98q57 -14 103 -14q80 0 126 33.5t81 105.5l61 119l-248 938h117l203 -801l409 801h131z" />
    <glyph glyph-name="endash" unicode="&#x2013;" horiz-adv-x="1732" 
d="M1610 537l-15 -113h-1462l14 113h1463z" />
    <glyph glyph-name="emdash" unicode="&#x2014;" horiz-adv-x="2117" 
d="M1995 537l-17 -113h-1845l14 113h1848z" />
    <glyph glyph-name="quoteleft" unicode="&#x2018;" horiz-adv-x="436" 
d="M326.5 1113q-50.5 -40 -56.5 -99q12 4 33 4q45 0 75 -31t30 -74q0 -53 -35 -87.5t-88 -34.5q-59 0 -95 40.5t-36 108.5q0 121 86 196.5t215 80.5v-54q-78 -10 -128.5 -50z" />
    <glyph glyph-name="quoteright" unicode="&#x2019;" horiz-adv-x="438" 
d="M405.5 1180q36.5 -41 36.5 -107q0 -121 -87 -197.5t-216 -80.5v53q78 8 128 50t57 101q-12 -4 -33 -4q-45 0 -75 30t-30 75q0 51 35 86t88 35q60 0 96.5 -41z" />
    <glyph glyph-name="quotesinglbase" unicode="&#x201a;" horiz-adv-x="370" 
d="M186 188l-172 -376h-80l95 376h157z" />
    <glyph glyph-name="quotedblleft" unicode="&#x201c;" horiz-adv-x="749" 
d="M240 1136.5q86 75.5 215 80.5v-54q-78 -10 -128.5 -50t-56.5 -99q12 4 33 4q45 0 75 -31t30 -74q0 -53 -35 -87.5t-88 -34.5q-59 0 -95 40.5t-36 108.5q0 121 86 196.5zM655.5 1113q-51.5 -40 -57.5 -99q12 4 35 4q43 0 72.5 -31t29.5 -74q0 -53 -34.5 -87.5t-86.5 -34.5
q-61 0 -97 40.5t-36 108.5q0 121 86 196.5t217 80.5v-54q-77 -10 -128.5 -50z" />
    <glyph glyph-name="quotedblright" unicode="&#x201d;" horiz-adv-x="765" 
d="M405.5 1180q36.5 -41 36.5 -107q0 -121 -87 -197.5t-216 -80.5v53q78 8 128 50t57 101q-12 -4 -33 -4q-45 0 -75 30t-30 75q0 51 35 86t88 35q60 0 96.5 -41zM733 1180q37 -41 37 -107q0 -121 -87 -197.5t-216 -80.5v53q78 10 128 51t56 100q-12 -4 -33 -4
q-43 0 -73.5 30t-30.5 75q0 51 35 86t88 35q59 0 96 -41z" />
    <glyph glyph-name="quotedblbase" unicode="&#x201e;" horiz-adv-x="651" 
d="M225 188l-162 -376h-126l133 376h155zM510 188l-186 -376h-125l153 376h158z" />
    <glyph glyph-name="dagger" unicode="&#x2020;" horiz-adv-x="745" 
d="M664 580h-222l-43 -301h-96l41 301h-223l10 82h225l90 651h99l-92 -651h223z" />
    <glyph glyph-name="daggerdbl" unicode="&#x2021;" horiz-adv-x="741" 
d="M487 930l-36 -264h219l-13 -80h-217l-43 -303h-98l43 303h-217l12 80h215l37 264h-217l10 80h217l43 303h99l-43 -303h217l-10 -80h-218z" />
    <glyph glyph-name="bullet" unicode="&#x2022;" horiz-adv-x="987" 
d="M337 282q-79 46 -125 123.5t-46 167.5q0 94 45 173t125 125.5t176 46.5t175 -46.5t125 -125t46 -173.5q0 -90 -46 -167.5t-125 -123.5t-175 -46t-175 46z" />
    <glyph glyph-name="ellipsis" unicode="&#x2026;" horiz-adv-x="1286" 
d="M114.5 7q-30.5 30 -30.5 75q0 51 36 86t89 35q45 0 75.5 -30t30.5 -75q0 -51 -34.5 -86t-87.5 -35q-48 0 -78.5 30zM506 6q-31 29 -31 76q0 51 36 86t89 35q47 0 78 -30t31 -75q0 -51 -36 -86t-87 -35q-49 0 -80 29zM899 7q-31 30 -31 75q0 51 36 86t89 35q45 0 76 -30
t31 -75q0 -51 -35 -86t-88 -35q-47 0 -78 30z" />
    <glyph glyph-name="perthousand" unicode="&#x2030;" horiz-adv-x="2273" 
d="M1360 1321h133l-1178 -1321h-131zM322.5 749.5q-66.5 34.5 -105.5 99t-39 146.5q0 86 44 155t116 107.5t154 38.5q78 0 144 -34.5t105 -99t39 -146.5q0 -86 -43 -154.5t-114.5 -107.5t-155.5 -39q-78 0 -144.5 34.5zM608.5 875.5q57.5 54.5 57.5 138.5q0 80 -49.5 128
t-127.5 48q-82 0 -139 -54.5t-57 -136.5q0 -80 48 -129t126 -49q84 0 141.5 54.5zM992.5 14.5q-66.5 34.5 -105.5 99t-39 146.5q0 86 43 154.5t114.5 107.5t155.5 39q78 0 144.5 -34.5t105.5 -99.5t39 -146q0 -86 -43 -155t-114.5 -107.5t-155.5 -38.5q-78 0 -144.5 34.5z
M1690.5 14.5q-66.5 34.5 -105.5 99t-39 146.5q0 86 43 154.5t115 107.5t154 39q121 0 205.5 -77.5t84.5 -202.5q0 -86 -43 -155t-114.5 -107.5t-155.5 -38.5q-78 0 -144.5 34.5zM1278 140.5q57 54.5 57 138.5q0 80 -49 128t-127 48q-82 0 -139 -54.5t-57 -136.5
q0 -80 48 -129t126 -49q84 0 141 54.5zM1976.5 140.5q57.5 54.5 57.5 138.5q0 80 -49.5 128t-126.5 48q-82 0 -139.5 -54.5t-57.5 -136.5q0 -80 48 -129t126 -49q84 0 141.5 54.5z" />
    <glyph glyph-name="minute" unicode="&#x2032;" horiz-adv-x="337" 
d="M203.5 1210.5q25.5 26.5 64.5 26.5q37 0 61.5 -26.5t24.5 -65.5q0 -14 -4 -27l-59 -323h-49l-60 321l-4 29q0 39 25.5 65.5z" />
    <glyph glyph-name="guilsinglleft" unicode="&#x2039;" horiz-adv-x="555" 
d="M287 446l155 -358h-125l-157 358l256 357h127z" />
    <glyph glyph-name="guilsinglright" unicode="&#x203a;" horiz-adv-x="555" 
d="M395 446l-256 -358h-127l256 358l-157 357h127z" />
    <glyph glyph-name="uni2042" unicode="&#x2042;" horiz-adv-x="1605" 
d="M817 1008q16 -70 17 -156v-115h-78v115q0 84 16 156q-51 -45 -127 -90l-98 -60l-39 68l98 57q86 47 142 64q-70 23 -142 65l-98 57l39 68l98 -59q76 -45 127 -91q-16 72 -16 156v115h78v-115q0 -86 -17 -156q47 41 129 91l98 59l39 -68l-98 -57q-72 -41 -141 -65
q51 -16 141 -64l98 -57l-39 -68l-98 60q-82 49 -129 90zM567 373q-72 -41 -141 -66q66 -23 141 -63l99 -58l-39 -67l-99 59q-82 49 -127 88q14 -72 15 -153v-115h-78v115q0 84 16 153q-55 -45 -127 -88l-98 -59l-39 67l98 58q74 41 142 63q-70 23 -142 66l-98 55l39 68
l98 -58q86 -55 127 -90q-16 72 -16 156v114h78v-114q0 -80 -15 -156q33 31 127 90l99 58l39 -68zM1403 244l96 -58l-37 -67l-98 59q-78 47 -129 88q14 -57 14 -153v-115h-75v115q0 84 16 153q-55 -45 -127 -88l-98 -59l-39 67l98 58q74 41 141 63q-70 23 -141 66l-98 55
l39 68l98 -58q86 -55 127 -90q-16 72 -16 156v114h75v-114q0 -96 -14 -156q35 31 129 90l98 58l37 -68l-96 -55q-72 -41 -141 -66q65 -22 141 -63z" />
    <glyph glyph-name="fraction" unicode="&#x2044;" horiz-adv-x="1161" 
d="M33 74l1091 1222l66 -57l-1092 -1219z" />
    <glyph glyph-name="uni2070" unicode="&#x2070;" horiz-adv-x="835" 
d="M229 566.5q-82 111.5 -82 297.5q0 160 48.5 284t133.5 191.5t191 67.5q139 0 221 -110.5t82 -301.5q0 -160 -48 -282.5t-132 -190t-192 -67.5q-140 0 -222 111.5zM591.5 604.5q59.5 57.5 93.5 158.5t34 230q0 147 -55.5 234.5t-151.5 87.5q-74 0 -133.5 -57.5t-93 -159
t-33.5 -230.5q0 -147 55 -234t152 -87q73 0 132.5 57.5z" />
    <glyph glyph-name="uni2074" unicode="&#x2074;" horiz-adv-x="798" 
d="M766 756l-12 -86h-109l-29 -199h-98l27 199h-436l12 78l489 643h138l-93 -635h111zM631 1272l-393 -516h319z" />
    <glyph glyph-name="uni2075" unicode="&#x2075;" horiz-adv-x="833" 
d="M444 1300l-116 -296q35 25 82 39t92 14q121 0 197.5 -78t76.5 -203q0 -90 -44 -163.5t-123 -114.5t-175 -41q-131 0 -211 82t-78 213h97q-2 -94 53 -148.5t141 -54.5q102 0 169 60.5t67 160.5q0 88 -52.5 143.5t-136.5 55.5q-59 0 -115.5 -25.5t-84.5 -66.5l-95 14
l189 500h442l-12 -91h-363z" />
    <glyph glyph-name="uni2076" unicode="&#x2076;" horiz-adv-x="841" 
d="M707.5 982q80.5 -79 80.5 -202q0 -92 -47 -165.5t-129 -115.5t-180 -42q-133 0 -212 79.5t-79 194.5q0 68 27 128.5t48.5 91t76.5 98.5l268 342h113l-271 -347q47 16 105 17q119 0 199.5 -79zM615.5 613.5q70.5 64.5 70.5 162.5q0 88 -56.5 143.5t-146.5 55.5
q-102 0 -171.5 -65.5t-69.5 -166.5q0 -84 55 -139t145 -55q103 0 173.5 64.5z" />
    <glyph glyph-name="uni2077" unicode="&#x2077;" horiz-adv-x="653" 
d="M739 1391l-12 -84l-496 -836h-110l491 829h-442l10 91h559z" />
    <glyph glyph-name="uni2078" unicode="&#x2078;" horiz-adv-x="835" 
d="M739 876.5q39 -57.5 39 -131.5q0 -127 -98 -207.5t-244 -80.5q-135 0 -218 68.5t-83 176.5q0 92 55.5 163t147.5 98q-51 27 -81 77t-30 111q0 70 40 129t111 93t159 34q121 0 194.5 -62.5t73.5 -162.5q0 -76 -45 -136.5t-125 -89.5q65 -22 104 -79.5zM384 1267
q-56 -46 -56 -118q0 -66 48 -105.5t130 -39.5q86 0 141 46t55 115q0 68 -48 108t-126 40q-88 0 -144 -46zM608.5 602q65.5 53 65.5 139q0 74 -55.5 120t-145.5 46q-102 0 -168.5 -53t-66.5 -137q0 -76 57 -122t147 -46q101 0 166.5 53z" />
    <glyph glyph-name="uni2079" unicode="&#x2079;" horiz-adv-x="854" 
d="M757 1325q85 -80 85 -199q0 -66 -23.5 -124t-49.5 -93t-71 -90l-280 -348h-111l275 346q-43 -16 -103 -16q-123 0 -204.5 76.5t-81.5 201.5q0 92 46 166t125.5 117t174.5 43q133 0 218 -80zM667.5 952.5q69.5 65.5 69.5 163.5q0 86 -54 140.5t-146 54.5
q-102 0 -172 -64.5t-70 -165.5q0 -88 55.5 -141t145.5 -53q102 0 171.5 65.5z" />
    <glyph glyph-name="uni2080" unicode="&#x2080;" horiz-adv-x="835" 
d="M162 95.5q-82 111.5 -82 297.5q0 160 48 284t133 191.5t192 67.5q139 0 221 -110.5t82 -301.5q0 -160 -48.5 -282.5t-132 -190t-192.5 -67.5q-139 0 -221 111.5zM525.5 133q58.5 57 92 158.5t33.5 230.5q0 147 -55 234.5t-152 87.5q-74 0 -133 -57.5t-93 -159t-34 -230.5
q0 -147 55.5 -234t153.5 -87q74 0 132.5 57z" />
    <glyph glyph-name="uni2081" unicode="&#x2081;" horiz-adv-x="524" 
d="M111 786q92 0 149 32t84 102h94l-129 -920h-102l100 709h-207z" />
    <glyph glyph-name="uni2082" unicode="&#x2082;" horiz-adv-x="747" 
d="M221 96h387l-12 -96h-543l8 76l363 358q12 12 64.5 62.5t77 96.5t24.5 95q0 72 -45 114t-123 42q-86 0 -144.5 -55.5t-60.5 -149.5h-98q2 133 92 215t221 82q117 0 188.5 -65.5t71.5 -172.5q0 -84 -42 -146.5t-124 -143.5l-28 -29z" />
    <glyph glyph-name="uni2083" unicode="&#x2083;" horiz-adv-x="831" 
d="M739 817l-299 -260q119 -8 190.5 -79.5t71.5 -188.5q0 -86 -43 -156t-117.5 -108.5t-166.5 -38.5q-133 0 -215 82t-82 213h96q0 -92 56.5 -147.5t150.5 -55.5q92 0 155.5 56t63.5 155q0 119 -78 157.5t-145 38.5h-72l10 72l310 272h-414l12 91h529z" />
    <glyph glyph-name="uni2084" unicode="&#x2084;" horiz-adv-x="798" 
d="M698 285l-12 -86h-108l-29 -199h-98l26 199h-436l12 77l490 644h137l-90 -635h108zM565 803l-395 -518h319z" />
    <glyph glyph-name="uni2085" unicode="&#x2085;" horiz-adv-x="833" 
d="M379 829l-117 -297q76 53 174 54q121 0 198 -78t77 -203q0 -90 -44 -163.5t-123 -114.5t-175 -41q-131 0 -211 82t-78 213h96q-2 -94 53.5 -148.5t141.5 -54.5q102 0 168.5 60.5t66.5 160.5q0 88 -52 143.5t-136 55.5q-59 0 -115.5 -26t-85.5 -66l-94 14l188 500h443
l-13 -91h-362z" />
    <glyph glyph-name="uni2086" unicode="&#x2086;" horiz-adv-x="841" 
d="M642 511q81 -79 81 -202q0 -92 -47 -165.5t-129 -115.5t-180 -42q-133 0 -212 79.5t-79 194.5q0 68 26.5 128.5t48 91t76.5 98.5l269 342h112l-270 -347q47 16 104 17q119 0 200 -79zM550 142.5q71 64.5 71 162.5q0 88 -56.5 143.5t-146.5 55.5q-102 0 -172 -65.5
t-70 -166.5q0 -84 55.5 -139t145.5 -55q102 0 173 64.5z" />
    <glyph glyph-name="uni2087" unicode="&#x2087;" horiz-adv-x="653" 
d="M674 920l-12 -84l-496 -836h-111l492 829h-443l11 91h559z" />
    <glyph glyph-name="uni2088" unicode="&#x2088;" horiz-adv-x="835" 
d="M674 405.5q39 -57.5 39 -131.5q0 -127 -98.5 -207.5t-243.5 -80.5q-135 0 -218 68.5t-83 176.5q0 92 55 163t147 98q-51 27 -80.5 75.5t-29.5 112.5q0 70 40 129t110.5 93t158.5 34q121 0 194.5 -62.5t73.5 -162.5q0 -76 -45 -136.5t-125 -89.5q66 -22 105 -79.5z
M318.5 796q-56.5 -46 -56.5 -118q0 -66 48 -106t130 -40q86 0 141.5 46.5t55.5 115.5q0 68 -48 108t-126 40q-88 0 -144.5 -46zM542.5 131q65.5 53 65.5 139q0 74 -55 120t-145 46q-102 0 -169 -53t-67 -137q0 -76 57.5 -122t147.5 -46q100 0 165.5 53z" />
    <glyph glyph-name="uni2089" unicode="&#x2089;" horiz-adv-x="854" 
d="M691 854q85 -80 85 -199q0 -66 -23.5 -124t-49 -93t-70.5 -90l-281 -348h-110l274 346q-43 -16 -102 -16q-123 0 -205 76.5t-82 201.5q0 92 46 166t126 117t174 43q133 0 218 -80zM602 481.5q70 65.5 70 163.5q0 86 -54.5 140.5t-146.5 54.5q-102 0 -172 -64.5
t-70 -165.5q0 -88 55.5 -141t145.5 -53q102 0 172 65.5z" />
    <glyph glyph-name="uni20AA" unicode="&#x20aa;" horiz-adv-x="1406" 
d="M297 1405h360q178 0 266.5 -82t88.5 -229q0 -37 -6 -80l-82 -574h-113l82 576q4 45 4 59q0 227 -266 228h-234l-182 -1303h-115zM557 82q-88 82 -88 229q0 37 6 80l82 574h113l-82 -576q-4 -45 -4 -59q0 -227 266 -228h233l183 1303h114l-196 -1405h-361q-178 0 -266 82z
" />
    <glyph glyph-name="Euro" unicode="&#x20ac;" horiz-adv-x="1423" 
d="M613.5 1133.5q-142.5 -89.5 -199.5 -252.5h563l-23 -107h-569q-8 -74 -8 -119q0 -61 8 -108h530l-20 -107h-485q57 -170 202.5 -261t356.5 -91q123 0 209 29v-107q-98 -31 -226 -30q-252 0 -429 122.5t-238 337.5h-115v107h92q-6 53 -6 108q0 68 8 119h-94v107h119
q63 211 238 331.5t423 120.5q121 0 228 -30v-107q-90 27 -213 27q-209 0 -351.5 -89.5z" />
    <glyph glyph-name="uni20B9" unicode="&#x20b9;" horiz-adv-x="1183" 
d="M1178 1206h-351q96 -82 91 -221h229l-17 -106h-225q-39 -154 -164 -241t-301 -87l-63 12l336 -563h-160l-342 575l12 82h226q127 0 214 58.5t115 163.5h-524l14 106h525q0 106 -72 163.5t-195 57.5h-225l14 107h877z" />
    <glyph glyph-name="uni2116" unicode="&#x2116;" horiz-adv-x="2416" 
d="M1450 1104.5q61 103.5 165.5 162t231.5 58.5q117 0 211 -51t148.5 -144.5t54.5 -216.5q0 -129 -60.5 -233.5t-165 -162.5t-233.5 -58q-119 0 -213 51t-147 145.5t-53 214.5q0 131 61 234.5zM336 1313h113l573 -1104l156 1104h112l-184 -1313h-113l-573 1106l-156 -1106
h-112zM1586 647q85 -86 216 -86q96 0 175 45t125 126t46 181q0 137 -85 222.5t-214 85.5q-98 0 -177 -45.5t-125 -126t-46 -181.5q0 -135 85 -221zM1470 272h560l-13 -92h-559z" />
    <glyph glyph-name="uni2117" unicode="&#x2117;" horiz-adv-x="1267" 
d="M909.5 1084.5q112.5 -66.5 178 -179t65.5 -243.5t-65.5 -243t-178 -178.5t-245.5 -66.5q-131 0 -243 65.5t-178.5 178t-66.5 244.5q0 133 66.5 245.5t178 178t243.5 65.5q133 0 245.5 -66.5zM871.5 307q93.5 55 148.5 149.5t55 205.5q0 113 -55 207t-148.5 149t-205.5 55
q-111 0 -206 -55t-150.5 -150.5t-55.5 -205.5q0 -111 56.5 -205.5t150.5 -149.5t205 -55q112 0 205.5 55zM849 866q50 -45 50 -123q0 -70 -48 -115.5t-130 -45.5h-135v-170h-78v499h213q78 0 128 -45zM790.5 679q26.5 26 26.5 69t-26.5 66.5t-75.5 23.5h-129v-185h129
q49 0 75.5 26z" />
    <glyph glyph-name="trademark" unicode="&#x2122;" horiz-adv-x="1312" 
d="M186 1405h478l-13 -82h-196l-78 -547h-98l75 547h-180zM741 1405h97l133 -516l272 516h103l-91 -629h-96l21 152q29 201 45 276l-217 -416h-99l-104 420q-10 -117 -33 -280l-20 -152h-99z" />
    <glyph glyph-name="estimated" unicode="&#x212e;" horiz-adv-x="1533" 
d="M365 612v-333q68 -102 187.5 -163t278.5 -61q147 0 263 56.5t184 154.5h96q-72 -137 -212 -214t-328 -77q-197 0 -346.5 82t-232.5 234.5t-83 357.5t80 360.5t227.5 241.5t339.5 86q182 0 317.5 -77.5t209 -228t73.5 -359.5q0 -20 -2 -37t-2 -23h-1050zM554 1194
q-116 -59 -187 -168v-342h858v377q-72 94 -179.5 143t-232.5 49q-143 0 -259 -59z" />
    <glyph glyph-name="oneeighth" unicode="&#x215b;" horiz-adv-x="1542" 
d="M1419 377q35 -53 35 -121q0 -117 -91 -193t-228 -75q-123 0 -202 62t-79 165q0 82 51 150t135 92q-45 25 -71 69q-27 45 -27 101q0 102 83 172t206 69q113 0 181 -58q69 -58 69 -151q0 -72 -43 -128t-113 -80q59 -21 94 -74zM1092 733q-51 -43 -52 -108q0 -57 44 -93
q44 -35 116 -34q78 0 129 42t51 105q0 57 -45 94t-114 37q-78 0 -129 -43zM1292 128q59 48 60 128q0 66 -49 105q-49 40 -132 40q-92 0 -152 -47t-61 -125q0 -68 52 -108q51 -41 133 -41q90 0 149 48zM125 74l1092 1222l65 -57l-1092 -1219zM158 1186q88 0 141 31t80 96h92
l-119 -854h-104l92 649h-195z" />
    <glyph glyph-name="threeeighths" unicode="&#x215c;" horiz-adv-x="1746" 
d="M1624 377q35 -53 35 -121q0 -117 -91 -193t-229 -75q-123 0 -201 62q-79 62 -79 165q0 82 51 150t135 92q-45 25 -71 69q-27 45 -27 101q0 102 83 172t206 69q113 0 181 -58q69 -58 69 -151q0 -72 -44 -128q-43 -56 -112 -80q59 -21 94 -74zM1296 733q-51 -43 -51 -108
q0 -57 44 -93q44 -35 116 -34q78 0 129 42t51 105q0 57 -45 94t-115 37q-78 0 -129 -43zM1497 128q59 48 59 128q0 66 -49 105q-49 40 -131 40q-92 0 -152 -47t-61 -125q0 -68 51 -108q51 -41 134 -41q90 0 149 48zM330 74l1091 1222l66 -57l-1092 -1219zM719 1212
l-268 -235q109 -10 172 -77t63 -173q0 -123 -87 -203t-218 -80q-125 0 -202 75t-79 202h101q0 -82 51 -133t135 -51t139 51t56 139q0 106 -69 141t-130 35h-72l11 74l276 244h-375l15 92h495z" />
    <glyph glyph-name="fiveeighths" unicode="&#x215d;" horiz-adv-x="1794" 
d="M1671 377q35 -53 35 -121q0 -117 -91 -193t-229 -75q-123 0 -201 62q-79 62 -79 165q0 82 51 150t135 92q-45 25 -71 69q-27 45 -27 101q0 102 83 172t206 69q113 0 181 -58q69 -58 69 -151q0 -72 -43 -128t-113 -80q59 -21 94 -74zM1343 733q-51 -43 -51 -108
q0 -57 44 -93q44 -35 116 -34q78 0 129 42t51 105q0 57 -45 94t-114 37q-79 0 -130 -43zM1544 128q59 48 60 128q0 66 -50 105q-49 40 -131 40q-92 0 -152 -47t-61 -125q0 -68 52 -108q51 -41 133 -41q90 0 149 48zM377 74l1091 1222l66 -57l-1092 -1219zM385 1221
l-102 -263q33 23 75 35q43 12 82 13q111 0 184 -73t72 -188q0 -131 -90 -215t-229 -84q-125 0 -200 76t-73 199h101q-2 -82 46 -133t128 -51q92 0 152 56t61 144q0 80 -47 129t-125 49q-53 0 -105 -23q-51 -24 -75 -58l-97 14l174 465h416l-10 -92h-338z" />
    <glyph glyph-name="uni2160" unicode="&#x2160;" horiz-adv-x="1013" 
d="M676 1202l-156 -1093h336l-14 -109h-793l14 109h336l154 1093h-336l16 111h793l-14 -111h-336z" />
    <glyph glyph-name="uni2161" unicode="&#x2161;" horiz-adv-x="1505" 
d="M61 109h293l154 1093h-293l16 111h1287l-15 -111h-293l-153 -1093h293l-17 -109h-1286zM936 109l154 1093h-461l-154 -1093h461z" />
    <glyph glyph-name="uni2162" unicode="&#x2162;" horiz-adv-x="2066" 
d="M61 109h293l154 1093h-293l16 111h1848l-15 -111h-292l-154 -1093h293l-17 -109h-1847zM926 109l153 1093h-450l-154 -1093h451zM1497 109l154 1093h-451l-153 -1093h450z" />
    <glyph glyph-name="uni2163" unicode="&#x2163;" horiz-adv-x="1923" 
d="M45 0l14 109h263l155 1093h-264l16 111h1710l-14 -111h-252l-540 -1093h639l-15 -109h-1712zM985 109l-217 1093h-170l-154 -1093h541zM899 1202l180 -977l469 977h-649z" />
    <glyph glyph-name="uni2164" unicode="&#x2164;" horiz-adv-x="1595" 
d="M1360 1202l-543 -1093h608l-14 -109h-1348l15 109h592l-217 1093h-238l16 111h1379l-17 -111h-233zM571 1202l187 -977l465 977h-652z" />
    <glyph glyph-name="uni2165" unicode="&#x2165;" horiz-adv-x="1929" 
d="M45 0l14 109h625l-219 1093h-252l16 111h1717l-15 -111h-262l-153 -1093h262l-15 -109h-1718zM586 1202l186 -977l467 977h-653zM1395 109l153 1093h-174l-543 -1093h564z" />
    <glyph glyph-name="uni2166" unicode="&#x2166;" horiz-adv-x="2535" 
d="M45 0l14 109h623l-217 1093h-252l16 111h2321l-15 -111h-294l-156 -1093h295l-15 -109h-2320zM586 1202l182 -977l465 977h-647zM1389 109l155 1093h-174l-541 -1093h560zM1665 1202l-154 -1093h453l154 1093h-453z" />
    <glyph glyph-name="uni2167" unicode="&#x2167;" horiz-adv-x="3018" 
d="M59 109h615l-209 1093h-252l16 111h2806l-16 -111h-283l-153 -1093h278l-14 -109h-2802zM1202 1202h-616l170 -977zM1372 109l156 1093h-185l-530 -1093h559zM1919 109l154 1093h-424l-154 -1093h424zM2462 109l153 1093h-422l-153 -1093h422z" />
    <glyph glyph-name="uni2168" unicode="&#x2168;" horiz-adv-x="1857" 
d="M45 0l14 109h263l155 1093h-264l16 111h1645l-16 -111h-218l-440 -567l256 -526h250l-14 -109h-1647zM598 1202l-154 -1093h203l414 534l-275 559h-188zM1499 1202h-594l232 -475zM1335 109l-213 444l-344 -444h557z" />
    <glyph glyph-name="uni2169" unicode="&#x2169;" horiz-adv-x="1505" 
d="M1284 1202l-436 -573l254 -520h248l-15 -109h-1288l14 109h230l416 534l-281 559h-211l16 111h1282l-14 -111h-215zM1147 1202h-596l233 -479zM979 109l-213 444l-342 -444h555z" />
    <glyph glyph-name="uni216C" unicode="&#x216c;" horiz-adv-x="1302" 
d="M47 0l14 109h291l154 1093h-291l16 111h721l-16 -111h-309l-156 -1093h545l63 446h119l-80 -555h-1071z" />
    <glyph glyph-name="uni216D" unicode="&#x216d;" horiz-adv-x="1421" 
d="M553 1133.5q-131 -78.5 -208 -223t-77 -330.5q0 -145 55.5 -257t156 -173.5t231.5 -61.5q174 0 307 95.5t190 262.5h101l-64 -446h-117l23 174q-76 -94 -196.5 -146.5t-252.5 -52.5q-168 0 -297 74t-199.5 209t-70.5 311q0 219 96.5 392.5t260 268.5t360.5 95
q137 0 256 -58.5t178 -154.5l25 188h119l-64 -448h-100q-14 162 -131 261t-291 99q-160 0 -291 -78.5z" />
    <glyph glyph-name="uni216E" unicode="&#x216e;" horiz-adv-x="1499" 
d="M1143 1239q131 -74 203.5 -209t72.5 -311q0 -213 -93 -376t-265 -253t-397 -90h-617l14 109h297l154 1093h-297l16 111h607q174 0 305 -74zM994.5 185.5q142.5 76.5 220 215t77.5 320.5q0 143 -58 252.5t-163.5 169t-243.5 59.5h-192l-156 -1093h185q188 0 330.5 76.5z
" />
    <glyph glyph-name="uni216F" unicode="&#x216f;" horiz-adv-x="2185" 
d="M63 109h281l154 1093h-281l16 111h455l346 -1188l692 1188h472l-17 -111h-299l-153 -1093h299l-15 -109h-645l14 109h232l149 1060l-680 -1167h-125l-346 1174l-149 -1067h258l-14 -109h-658z" />
    <glyph glyph-name="arrowleft" unicode="&#x2190;" horiz-adv-x="1796" 
d="M1630 471h-1263l372 -446h-141l-420 499l422 500h139l-374 -451h1265v-102z" />
    <glyph glyph-name="arrowup" unicode="&#x2191;" horiz-adv-x="1236" 
d="M1182 791l-453 368v-1182h-104v1184l-455 -370v139l506 413l506 -415v-137z" />
    <glyph glyph-name="arrowright" unicode="&#x2192;" horiz-adv-x="1796" 
d="M1638 524l-421 -499h-140l375 446h-1268v102h1270l-377 451h140z" />
    <glyph glyph-name="arrowdown" unicode="&#x2193;" horiz-adv-x="1236" 
d="M1126 516v-135l-505 -418l-506 416v137l452 -369v1182h105v-1182z" />
    <glyph glyph-name="arrowboth" unicode="&#x2194;" horiz-adv-x="2320" 
d="M600 1024h139l-374 -451h1615l-374 451h137l420 -500l-420 -499h-137l374 446h-1615l374 -446h-141l-420 499z" />
    <glyph glyph-name="arrowupdn" unicode="&#x2195;" horiz-adv-x="1497" 
d="M260 90l449 -375v1616l-449 -375v140l498 420l504 -420v-140l-449 375v-1616l449 375v-137l-504 -422l-498 422v137z" />
    <glyph glyph-name="carriagereturn" unicode="&#x21b5;" horiz-adv-x="1368" 
d="M1241 1210v-827h-805v-229l-330 280l330 279v-228h705v725h100z" />
    <glyph glyph-name="uni21BA" unicode="&#x21ba;" horiz-adv-x="1814" 
d="M519 59q-157 84 -247 239t-90 355q0 193 89 348.5t251 245.5t373 90q193 0 330 -69l-43 -86q-131 63 -295 63q-182 0 -320.5 -76.5t-214.5 -210t-76 -299.5q0 -176 75 -310t209 -207.5t304 -73.5q180 0 318.5 79.5t212 222t65.5 320.5h-239l276 322l272 -322h-210
q8 -213 -79 -375.5t-247 -251t-363 -88.5q-194 0 -351 84z" />
    <glyph glyph-name="uni21BB" unicode="&#x21bb;" horiz-adv-x="1822" 
d="M653.5 63.5q-153.5 88.5 -240.5 250t-87 376.5h-213l272 322l277 -322h-242q0 -178 72.5 -320.5t207 -222t308.5 -79.5q170 0 306 76.5t213 210.5t77 302q0 166 -75 300.5t-211 211t-314 76.5q-84 0 -164 -17.5t-140 -45.5l-34 82q137 70 331 69q207 0 367 -89
t248 -244.5t88 -348.5q0 -195 -91 -348t-249 -240.5t-354 -87.5q-199 0 -352.5 88.5z" />
    <glyph glyph-name="partialdiff" unicode="&#x2202;" horiz-adv-x="1112" 
d="M908 883.5q120 -201.5 120 -412.5q0 -145 -59.5 -257t-169 -173t-254.5 -61q-135 0 -240.5 58t-164 163.5t-58.5 238.5q0 139 61.5 248t166 169.5t231.5 60.5q74 0 145.5 -22t130.5 -67q-66 117 -147.5 219.5t-241.5 274.5h147q213 -238 333 -439.5zM813 186.5
q98 100.5 98 264.5t-98 265t-254 101q-106 0 -190 -49t-131.5 -134t-47.5 -190q0 -102 45.5 -184t128 -128t189.5 -46q162 0 260 100.5z" />
    <glyph glyph-name="emptyset" unicode="&#x2205;" horiz-adv-x="1521" 
d="M1165.5 1264.5q139.5 -72.5 218 -211t78.5 -326.5q0 -207 -96 -379t-264 -272.5t-375 -100.5q-176 0 -315.5 74t-218 212t-78.5 325q0 207 96 379t265 272t376 100q174 0 313.5 -72.5zM551 1140q-141 -81 -225 -224.5t-84 -325.5q0 -150 59 -262l922 739q-66 74 -160 114
t-207 40q-164 0 -305 -81zM1032.5 174q141.5 82 223 227.5t81.5 323.5q0 150 -59 258l-922 -737q66 -74 159 -114t208 -40q168 0 309.5 82z" />
    <glyph glyph-name="Delta" unicode="&#x2206;" horiz-adv-x="1245" 
d="M1073 102v-102h-1012v102l451 1211h115zM170 102h797l-400 1072z" />
    <glyph glyph-name="product" unicode="&#x220f;" horiz-adv-x="1036" 
d="M729 193l-2 -21q0 -51 39 -69.5t113 -14.5l-17 -98q-45 -4 -61 -4q-193 0 -193 166q0 12 4 49l97 692h-342l-125 -893h-121l127 893h-162l16 111h936l-14 -111h-199z" />
    <glyph glyph-name="summation" unicode="&#x2211;" horiz-adv-x="837" 
d="M868 1198h-569l328 -543l-467 -536h557l-19 -119h-712l12 98l489 561l-331 555l14 99h713z" />
    <glyph glyph-name="minus" unicode="&#x2212;" horiz-adv-x="837" 
d="M766 651l-14 -108h-639l16 108h637z" />
    <glyph glyph-name="radical" unicode="&#x221a;" horiz-adv-x="1185" 
d="M1460 1632v-108h-360l-592 -1524h-125l-287 748h125l223 -596l576 1480h440z" />
    <glyph glyph-name="infinity" unicode="&#x221e;" horiz-adv-x="1591" 
d="M164 682q43 74 117.5 116t167.5 42q96 0 191 -61.5t165 -170.5q70 109 165 170.5t193 61.5q92 0 167 -42t118 -116t43 -164t-43 -163.5t-118 -115.5t-167 -42q-96 0 -192.5 63.5t-165.5 171.5q-70 -109 -165 -172t-191 -63q-92 0 -167 43t-118 116.5t-43 161.5
q0 90 43 164zM297 369.5q59 -58.5 158 -58.5q68 0 140.5 48.5t133.5 158.5q-59 111 -133 160t-141 49q-98 0 -157.5 -58.5t-59.5 -150.5q0 -90 59 -148.5zM1012.5 363.5q72.5 -52.5 144.5 -52.5q98 0 158.5 57.5t60.5 149.5t-60.5 150.5t-158.5 58.5q-70 0 -143.5 -51
t-130.5 -158q57 -102 129.5 -154.5z" />
    <glyph glyph-name="integral" unicode="&#x222b;" horiz-adv-x="671" 
d="M10 102h121q98 0 113 101l127 907q14 111 71.5 157t175.5 46h119l-14 -103h-92q-74 0 -104.5 -30.5t-41.5 -98.5l-123 -893q-14 -98 -75.5 -143t-155.5 -45h-135z" />
    <glyph glyph-name="approxequal" unicode="&#x2248;" horiz-adv-x="829" 
d="M762 735q2 -102 -53.5 -161.5t-137.5 -59.5q-47 0 -84.5 17.5t-91.5 50.5q-39 27 -69.5 42t-63.5 15q-82 0 -86 -104h-100q-2 98 52 157.5t136 59.5q47 0 87 -17.5t93 -50.5q45 -29 73 -42t58 -13q37 0 60.5 24.5t26.5 81.5h100zM762 422q2 -102 -53.5 -161.5
t-137.5 -59.5q-47 0 -84.5 17.5t-91.5 49.5q-39 27 -69.5 42.5t-63.5 15.5q-84 0 -86 -105h-100q-2 100 52 158.5t136 58.5q47 0 87 -17.5t93 -49.5q45 -29 73 -42.5t58 -13.5q84 0 87 107h100z" />
    <glyph glyph-name="notequal" unicode="&#x2260;" horiz-adv-x="946" 
d="M627 758l-150 -275h393l-14 -108h-438l-144 -264h-114l145 264h-235l14 108h281l149 275h-389l14 110h434l146 265h112l-143 -265h238l-15 -110h-284z" />
    <glyph glyph-name="lessequal" unicode="&#x2264;" horiz-adv-x="1122" 
d="M1034 786l-702 -223l641 -223l-19 -129l-798 295l16 115l881 294zM88 106h842l-15 -106h-841z" />
    <glyph glyph-name="greaterequal" unicode="&#x2265;" horiz-adv-x="1122" 
d="M999 621l-16 -115l-881 -295l21 129l702 225l-641 221l17 129zM98 106h842l-14 -106h-842z" />
    <glyph glyph-name="uni2388" unicode="&#x2388;" horiz-adv-x="1859" 
d="M909 -12q-135 8 -253.5 75.5t-196.5 182.5l-195 -113l-37 62l195 114q-61 123 -62 262q0 135 60 258l-191 113l37 64l193 -109q76 115 194.5 182.5t255.5 75.5v223h74v-223q137 -8 256 -76.5t197 -183.5l192 111l39 -62l-194 -115q59 -119 59 -258q0 -141 -59 -260
l192 -114l-39 -64l-192 111q-78 -113 -196 -180.5t-255 -75.5v-228h-74v228zM909 1065q-113 -10 -211 -66.5t-159 -150.5l370 -215v432zM1356 848q-63 94 -160.5 150.5t-212.5 66.5v-432zM872 569l-372 215q-47 -104 -47 -213t49 -217zM1440 571q0 117 -47 213l-371 -215
l369 -213q49 96 49 215zM909 506l-368 -213q61 -92 158.5 -148.5t209.5 -66.5v428zM1193 142.5q97 56.5 161 148.5l-371 215v-428q113 8 210 64.5z" />
    <glyph glyph-name="uni2602" unicode="&#x2602;" horiz-adv-x="1820" 
d="M1345.5 1310q151.5 -81 233.5 -220.5t82 -317.5h-76q0 78 -50 126t-132 48q-80 0 -129 -48t-49 -126h-76q0 70 -41 116t-111 56v-811q0 -111 -68.5 -179.5t-180.5 -68.5q-115 0 -181.5 67.5t-66.5 180.5h65q0 -82 50.5 -132t132.5 -50q80 0 128 50t48 132v811
q-72 -10 -113 -56t-41 -116h-76q0 78 -49 126t-129 48q-82 0 -132 -48t-50 -126h-76q0 178 82 317.5t233.5 220.5t352.5 87l10 131h51l8 -131q199 -6 350.5 -87z" />
    <glyph glyph-name="uni2605" unicode="&#x2605;" horiz-adv-x="1703" 
d="M760 791l141 423l127 -423h457l-363 -254l142 -424l-363 268l-362 -268l141 424l-363 254h443z" />
    <glyph glyph-name="uni2609" unicode="&#x2609;" horiz-adv-x="1884" 
d="M152 152q66 0 106.5 23.5t56.5 92.5l138 787q2 8 2 22q0 53 -33 68.5t-94 13.5l28 152l467 2l-26 -152q-2 0 -34 1t-64.5 -26.5t-41.5 -80.5l-131 -711q-16 -86 -32.5 -131t-53.5 -78l25 -33q51 41 110.5 51.5t155.5 10.5h592q55 0 86 5t53.5 27.5t30.5 71.5l29 176h176
l-62 -444h-1511zM1458.5 1116.5q16.5 16.5 44.5 16.5q27 0 43.5 -16.5t16.5 -45.5q0 -25 -16.5 -42t-43.5 -17t-44 17.5t-17 41.5q0 29 16.5 45.5zM659 442h199l6 33q-80 41 -121 111.5t-41 161.5q0 104 52.5 189t147.5 134t218 49q168 0 271.5 -88t103.5 -231
q0 -117 -67.5 -206t-178.5 -120l-8 -33h184l-20 -147h-348l35 215q106 16 171.5 88t65.5 168q0 94 -58.5 148.5t-156.5 54.5q-111 0 -180.5 -69t-69.5 -173q0 -80 41 -138.5t109 -78.5l-37 -215h-344zM1468.5 1037.5q12.5 -13.5 34.5 -13.5q20 0 32.5 13.5t12.5 33.5
q0 23 -12 36t-33 13q-23 0 -35 -12t-12 -35q0 -22 12.5 -35.5zM1481 1102h26q23 0 23 -19q0 -14 -12 -18l12 -23h-14l-11 21h-12v-21h-12v60zM1505 1071q12 0 13 10q0 10 -11 11h-14v-21h12z" />
    <glyph glyph-name="uni261C" unicode="&#x261c;" horiz-adv-x="1865" 
d="M1307.5 172.5q-78.5 -22.5 -164.5 -22.5q-84 0 -156 24q-45 -18 -102 -18t-89 24.5t-32 65.5q0 16 2 24q-45 0 -76 24.5t-31 70.5q0 25 9 41q-39 10 -62.5 38.5t-23.5 65.5q0 16 6 34.5t12 26.5l-305 17q-106 6 -107 104q0 57 36 88t102 31l487 2q6 39 12 59
q20 76 73.5 100.5t123.5 24.5q115 0 185.5 -33.5t152.5 -99.5q70 -57 100 -73q16 12 44 20t55 8q94 0 136 -89t42 -220q0 -150 -50.5 -237t-134.5 -87q-33 0 -68.5 12.5t-56.5 32.5q-41 -36 -119.5 -58.5zM1149 205q158 0 253 84t95 223q0 66 -17.5 132.5t-45.5 98.5
q-41 20 -78 49t-43 33q-70 57 -129.5 86t-157.5 29q-72 0 -104.5 -21.5t-44.5 -76.5q-27 -129 -52 -224q-6 -18 12.5 -28t41.5 -10q47 0 73 41q31 47 31 102q0 20 -6 40.5t-6 31.5q0 10 6 16t16 6q18 0 27 -18q12 -25 16 -66q25 10 43 29q12 12 23 12q10 0 16 -6t6 -16
q0 -16 -10 -29q-23 -31 -84 -57q-8 -39 -31 -68q0 -16 8.5 -32.5t16.5 -24.5q27 -31 79 -47.5t109 -12.5q31 2 54.5 7.5t33.5 5.5q12 0 20.5 -7.5t8.5 -17.5q0 -16 -20 -25q-41 -18 -105 -18q-33 0 -70.5 4t-58.5 12q2 -4 2 -12q0 -12 -6 -24q31 -6 50.5 -29t19.5 -55
q0 -66 -74 -111q43 -6 82 -6zM1640.5 315.5q36.5 71.5 36.5 194.5q0 117 -32.5 187.5t-90.5 70.5q-33 0 -57 -18q57 -102 57 -238q0 -76 -22.5 -137.5t-61.5 -104.5q33 -27 74 -26q60 0 96.5 71.5zM770 639q23 47 31 117h-477q-78 0 -78 -62q0 -51 53 -51l389 -18
q39 14 82 14zM781.5 481.5q60.5 22.5 66.5 24.5q4 2 15 5t26 9q-35 4 -68 20.5t-49 45.5q-57 -6 -96 -23q-33 -14 -33 -47q0 -29 13.5 -43t33.5 -14q31 0 91.5 22.5zM882.5 353.5q75.5 27.5 100.5 41.5q14 8 22.5 21.5t8.5 27.5t-9.5 25.5t-25.5 11.5q-25 0 -101.5 -23.5
t-117.5 -39.5q-20 -8 -28.5 -16.5t-8.5 -24.5q0 -27 16.5 -39t36.5 -12q31 0 106.5 27.5zM1019.5 238.5q63.5 31.5 63.5 78.5q0 18 -10 27.5t-24 9.5q-27 0 -193 -65q-31 -12 -31 -39q0 -43 66 -43q65 0 128.5 31.5z" />
    <glyph glyph-name="uni261E" unicode="&#x261e;" horiz-adv-x="1816" 
d="M200 273q-50 87 -50 237q0 131 41.5 220t136.5 89q27 0 54.5 -8t43.5 -20q31 16 100 73q82 66 153 99.5t185 33.5q70 0 123 -24.5t74 -100.5q6 -20 12 -59l488 -2q66 0 101.5 -30.5t35.5 -88.5q0 -98 -107 -104l-305 -17q6 -8 12.5 -26.5t6.5 -34.5q0 -37 -24 -65.5
t-62 -38.5q8 -16 8 -41q0 -45 -31 -70t-76 -25q2 -8 2 -24q0 -41 -31.5 -65.5t-89.5 -24.5q-57 0 -102 18q-70 -25 -156 -24q-86 0 -164.5 22.5t-119.5 58.5q-20 -20 -56 -32.5t-69 -12.5q-84 0 -134 87zM745 322q0 33 19.5 55t50.5 29q-10 20 -4 36q-20 -8 -58 -12t-71 -4
q-63 0 -104 18q-20 8 -21 25q0 10 8 17.5t21 7.5q10 0 33.5 -5.5t54.5 -7.5q57 -4 109.5 12.5t78.5 47.5q8 8 16.5 24.5t8.5 32.5q-23 29 -31 68q-61 27 -84 57q-10 12 -10 29q0 10 6 16t16 6t23 -12q18 -18 43 -29q4 41 16 66q10 18 27 18q10 0 16 -6t6 -16t-6 -31t-6 -41
q0 -55 31 -102q27 -41 74 -41q23 0 41 10t12 28q-23 94 -51 224q-12 55 -45 76.5t-105 21.5q-98 0 -157.5 -28.5t-129.5 -86.5q-6 -4 -42.5 -32.5t-77.5 -49.5q-29 -33 -46.5 -99t-17.5 -132q0 -139 95.5 -223t252.5 -84q39 0 82 6q-74 45 -74 111zM416 270
q-39 43 -61.5 104.5t-22.5 137.5q0 135 57 238q-25 18 -57 18q-57 0 -90 -70.5t-33 -187.5q0 -123 37 -194.5t96 -71.5q41 -1 74 26zM1587 643q53 0 53 51q0 61 -77 62h-478q10 -70 31 -117q43 0 82 -14zM1230 473q13 14 13 43q0 33 -33 47q-39 16 -96 23q-16 -29 -49 -45.5
t-68 -20.5q14 -6 25.5 -9t15.5 -5q6 -2 66.5 -24.5t91.5 -22.5q21 0 34 14zM1146.5 338q16.5 12 16.5 39q0 16 -8 24.5t-29 16.5q-41 16 -117.5 39.5t-101.5 23.5q-16 0 -25.5 -11t-9.5 -26q0 -14 8.5 -27.5t22.5 -21.5q25 -14 100.5 -41.5t106.5 -27.5q20 0 36.5 12z
M1061 250q0 27 -31 39q-166 66 -192 65q-14 0 -24.5 -9t-10.5 -28q0 -47 63.5 -78.5t128.5 -31.5q66 0 66 43z" />
    <glyph glyph-name="uni2639" unicode="&#x2639;" horiz-adv-x="1388" 
d="M1215.5 362.5q-76.5 -131.5 -214 -204t-309.5 -72.5t-307 72.5t-212 203t-77 293.5q0 164 77 295t214 205t307 74q172 0 308.5 -73t213 -204t76.5 -295q0 -163 -76.5 -294.5zM1143.5 913.5q-66.5 112.5 -183 177t-262.5 64.5q-147 0 -266 -64.5t-185.5 -178t-66.5 -257.5
q0 -141 66.5 -253.5t184.5 -177t265 -64.5t264 64.5t183.5 177t66.5 255.5q0 144 -66.5 256.5zM463 757.5q-29 28.5 -29 67.5t29 67t67 28q39 0 67 -28t28 -67t-29 -67.5t-66 -28.5q-38 0 -67 28.5zM770 757.5q-29 28.5 -29 67.5t29 67t68 28t66.5 -28t27.5 -67t-29 -67.5
t-65 -28.5q-39 0 -68 28.5zM496 516q88 45 198 45q111 0 199 -45t133 -125l-49 -35q-51 63 -124 98t-159 35t-158.5 -34.5t-123.5 -98.5l-50 35q46 80 134 125z" />
    <glyph glyph-name="smileface" unicode="&#x263a;" horiz-adv-x="1388" 
d="M1215.5 362.5q-76.5 -131.5 -214 -204t-309.5 -72.5t-307 72.5t-212 203t-77 293.5q0 164 77 295t214 205t307 74q172 0 308.5 -73t213 -204t76.5 -295q0 -163 -76.5 -294.5zM1143.5 913.5q-66.5 112.5 -183 177t-262.5 64.5q-147 0 -266 -64.5t-185.5 -178t-66.5 -257.5
q0 -141 66.5 -253.5t184.5 -177t265 -64.5t264 64.5t183.5 177t66.5 255.5q0 144 -66.5 256.5zM463 757.5q-29 28.5 -29 67.5t29 67t67 28q39 0 67 -28t28 -67t-29 -67.5t-66 -28.5q-38 0 -67 28.5zM770 757.5q-29 28.5 -29 67.5t29 67t68 28t66.5 -28t27.5 -67t-29 -67.5
t-65 -28.5q-39 0 -68 28.5zM422 561q27 -63 101.5 -102t170.5 -39t171 39t102 102h67q-27 -96 -120 -154.5t-220 -58.5t-220 58.5t-120 154.5h68z" />
    <glyph glyph-name="invsmileface" unicode="&#x263b;" horiz-adv-x="1402" 
d="M421 148.5q-138 72.5 -218 204.5t-80 302q0 172 81 304.5t219 206t308 73.5t308.5 -73.5t219 -206t80.5 -302.5t-80.5 -303t-220 -205.5t-309.5 -72.5t-308 72.5zM640 750.5q32 31.5 32 74.5t-32 74t-73 31q-43 0 -74.5 -31t-31.5 -74t31.5 -74.5t74.5 -31.5
q41 0 73 31.5zM947 750.5q32 31.5 32 74.5t-32 74t-73 31q-43 0 -74.5 -31t-31.5 -74t31.5 -74.5t74.5 -31.5q41 0 73 31.5zM960.5 402.5q96.5 64.5 122.5 168.5h-88q-23 -63 -95.5 -102t-168.5 -39t-169 39t-95 102h-88q27 -104 123 -168.5t229 -64.5t229.5 64.5z" />
    <glyph glyph-name="uni2709" unicode="&#x2709;" horiz-adv-x="1546" 
d="M1331 1014v-785h-1067v785h1067zM1227 948h-860l342 -293q39 35 90 35q49 0 86 -33zM330 899v-604h936v606l-346 -295q8 -18 8 -45q0 -55 -38 -93t-91 -38q-55 0 -93 38t-38 93q0 25 8 43z" />
    <glyph glyph-name="uni2713" unicode="&#x2713;" horiz-adv-x="1452" 
d="M162 477l315 -299l899 1000l88 -76l-970 -1088l-406 379z" />
    <glyph glyph-name="uni2715" unicode="&#x2715;" horiz-adv-x="1720" 
d="M215 111l602 616l-600 614l84 80l598 -612l598 612l82 -80l-602 -614l604 -616l-80 -80l-602 614l-602 -614z" />
    <glyph glyph-name="uni2736" unicode="&#x2736;" horiz-adv-x="1497" 
d="M645 874l135 439l119 -439l455 119l-320 -336l320 -321l-455 102l-119 -438l-135 438l-438 -102l319 321l-319 336z" />
    <glyph glyph-name="uni2737" unicode="&#x2737;" horiz-adv-x="1583" 
d="M725 887l96 426l99 -426l364 233l-229 -366l424 -97l-424 -98l229 -364l-364 231l-99 -426l-96 426l-365 -231l228 364l-422 98l422 97l-228 366z" />
    <glyph glyph-name="uni2764" unicode="&#x2764;" horiz-adv-x="1206" 
d="M259 760.5q69 68.5 169 68.5q68 0 118 -35.5t75 -97.5q25 59 74.5 96t119.5 37q100 0 169 -68.5t69 -178.5q0 -117 -57.5 -204t-144.5 -148.5t-230 -139.5q-141 78 -226.5 136.5t-145 146.5t-59.5 209q0 110 69 178.5z" />
    <glyph glyph-name="uni27A1" unicode="&#x27a1;" horiz-adv-x="1431" 
d="M920 354h-701v328h701v221l415 -385l-415 -383v219z" />
    <glyph glyph-name="uni2B05" unicode="&#x2b05;" horiz-adv-x="1429" 
d="M115 518l415 385v-221h701v-328h-701v-219z" />
    <glyph glyph-name="uni2B06" unicode="&#x2b06;" horiz-adv-x="1026" 
d="M729 809v-700h-326v700h-223l385 416l383 -416h-219z" />
    <glyph glyph-name="uni2B07" unicode="&#x2b07;" horiz-adv-x="1026" 
d="M524 102l-385 418h221v699h328v-699h219z" />
    <glyph glyph-name="uni3020" unicode="&#x3020;" horiz-adv-x="1918" 
d="M1628 1047h-1327v155h1327v-155zM887 799h-586v155h1327v-155h-586v-453h-155v453zM496 584q6 25 26 45l-37 53l50 37l40 -57q20 4 35 4q23 0 41 -7l41 60l49 -37l-39 -57q16 -23 21 -41h68v-62h-68q-10 -37 -41 -60.5t-72 -23.5q-43 0 -73.5 23.5t-40.5 60.5h-60v62h60z
M1384.5 461.5q-30.5 -23.5 -71.5 -23.5q-43 0 -74 23.5t-41 60.5h-59v62h59q6 25 27 45l-37 53l49 37l41 -57q20 4 35 4q23 0 41 -7l41 60l49 -37l-41 -57q16 -20 22 -41h68v-62h-68q-10 -37 -40.5 -60.5zM1740.5 632.5q57.5 -61.5 57.5 -153.5q0 -84 -54 -144.5t-134 -70.5
q-76 -147 -254 -236t-391 -89t-391.5 89t-254.5 236q-80 10 -134 70.5t-54 144.5q0 92 57.5 153.5t157.5 61.5v-63q-57 0 -95 -42t-38 -110q0 -66 42 -113t128 -47q59 -135 220 -217t362 -82t361.5 82t219.5 217q86 0 128 47.5t42 112.5q0 68 -38 110t-95 42v63
q100 0 157.5 -61.5zM568.5 595q-15.5 -15 -15.5 -42t15.5 -43t41.5 -16q25 0 40.5 16t15.5 43t-15.5 42t-40.5 15q-26 0 -41.5 -15zM1352.5 510q15.5 16 15.5 43t-15.5 42t-39.5 15q-27 0 -42.5 -15t-15.5 -42t15.5 -43t42.5 -16q24 0 39.5 16zM1178.5 163
q-103.5 -38 -213.5 -38q-111 0 -214.5 38t-185.5 109l53 62q150 -127 347 -127t346 127l53 -62q-82 -71 -185.5 -109z" />
    <glyph glyph-name="uni5350" unicode="&#x5350;" horiz-adv-x="2002" 
d="M1180 1288l-74 -530h610l-16 -111l-90 -647h-119l92 647h-493l-91 -647h-731l17 117h610l74 530h-611l17 111l90 647h115l-91 -647h496l90 647h731l-14 -117h-612z" />
    <glyph glyph-name="C.aalt" horiz-adv-x="1253" 
d="M215 989q94 164 267 256t401 92q94 0 186 -18.5t150 -48.5l-17 -121q-68 37 -152.5 55.5t-170.5 18.5q-186 0 -329.5 -75t-222.5 -211t-79 -314q0 -158 63.5 -279t180 -187.5t268.5 -66.5q172 0 344 74l-19 -121q-72 -31 -166 -49.5t-180 -18.5q-182 0 -322.5 82
t-218 228.5t-77.5 332.5q0 207 94 371z" />
    <glyph glyph-name="Cacute.aalt" horiz-adv-x="1253" 
d="M862 1466l236 265l80 -76l-275 -228zM215 989q94 164 267 256t401 92q94 0 186 -18.5t150 -48.5l-17 -121q-68 37 -152.5 55.5t-170.5 18.5q-186 0 -329.5 -75t-222.5 -211t-79 -314q0 -158 63.5 -279t180 -187.5t268.5 -66.5q172 0 344 74l-19 -121q-72 -31 -166 -49.5
t-180 -18.5q-182 0 -322.5 82t-218 228.5t-77.5 332.5q0 207 94 371z" />
    <glyph glyph-name="Ccaron.aalt" horiz-adv-x="1253" 
d="M729 1698l174 -172l172 172l58 -43l-168 -217h-123l-168 217zM215 989q94 164 267 256t401 92q94 0 186 -18.5t150 -48.5l-17 -121q-68 37 -152.5 55.5t-170.5 18.5q-186 0 -329.5 -75t-222.5 -211t-79 -314q0 -158 63.5 -279t180 -187.5t268.5 -66.5q172 0 344 74
l-19 -121q-72 -31 -166 -49.5t-180 -18.5q-182 0 -322.5 82t-218 228.5t-77.5 332.5q0 207 94 371z" />
    <glyph glyph-name="Ccedilla.aalt" horiz-adv-x="1253" 
d="M725 -102q59 0 102 -36t43 -102q0 -76 -54 -115.5t-130 -39.5q-74 0 -125 37v82q16 -20 47 -31.5t64 -11.5q43 0 72.5 20t29.5 61q0 33 -24.5 53.5t-63.5 20.5q-20 0 -55 -10l-37 41l92 186h59l-2 -59l-59 -100q12 4 41 4zM215 989q-94 -164 -94 -371q0 -186 77.5 -332.5
t218 -228.5t322.5 -82q86 0 180.5 18.5t165.5 49.5l19 121q-172 -74 -344 -74q-152 0 -268.5 66.5t-180 187.5t-63.5 279q0 178 79 314t222 211t330 75q86 0 171 -18.5t152 -55.5l17 121q-57 31 -149.5 49t-186.5 18q-227 0 -400.5 -92t-267.5 -256z" />
    <glyph glyph-name="Ccircumflex.aalt" horiz-adv-x="1253" 
d="M842 1686h121l170 -218l-58 -43l-172 172l-174 -172l-57 43zM215 989q94 164 267 256t401 92q94 0 186 -18.5t150 -48.5l-17 -121q-68 37 -152.5 55.5t-170.5 18.5q-186 0 -329.5 -75t-222.5 -211t-79 -314q0 -158 63.5 -279t180 -187.5t268.5 -66.5q172 0 344 74
l-19 -121q-72 -31 -166 -49.5t-180 -18.5q-182 0 -322.5 82t-218 228.5t-77.5 332.5q0 207 94 371z" />
    <glyph glyph-name="Cdotaccent.aalt" horiz-adv-x="1253" 
d="M840.5 1470.5q-25.5 24.5 -25.5 59.5q0 39 24.5 63.5t61.5 24.5q39 0 64.5 -24.5t25.5 -63.5q0 -35 -25.5 -59.5t-64.5 -24.5q-35 0 -60.5 24.5zM215 989q94 164 267 256t401 92q94 0 186 -18.5t150 -48.5l-17 -121q-68 37 -152.5 55.5t-170.5 18.5q-186 0 -329.5 -75
t-222.5 -211t-79 -314q0 -158 63.5 -279t180 -187.5t268.5 -66.5q172 0 344 74l-19 -121q-72 -31 -166 -49.5t-180 -18.5q-182 0 -322.5 82t-218 228.5t-77.5 332.5q0 207 94 371z" />
    <glyph glyph-name="G.salt" horiz-adv-x="1595" 
d="M1552 580h-161q-18 -180 -106.5 -317.5t-233 -212.5t-326.5 -75t-319.5 76t-213 218.5t-75.5 332.5q0 209 88 377t246.5 263t363.5 95q147 0 270 -52t207 -147.5t113 -219.5h-129q-43 137 -169 221t-290 84q-166 0 -296 -79t-202.5 -219.5t-72.5 -316.5
q0 -160 59.5 -276.5t168 -179t251.5 -62.5t261 61.5t190.5 172t85.5 256.5h-459l14 106h752z" />
    <glyph glyph-name="Gbreve.aalt" horiz-adv-x="1595" 
d="M834.5 1469.5q-66.5 -58.5 -164.5 -58.5q-100 0 -168 59.5t-78 155.5h96q8 -57 49 -89t101 -32q61 0 100 34t45 87h98q-12 -98 -78.5 -156.5zM1552 580h-161q-18 -180 -106.5 -317.5t-233 -212.5t-326.5 -75t-319.5 76t-213 218.5t-75.5 332.5q0 209 88 377t246.5 263
t363.5 95q147 0 270 -52t207 -147.5t113 -219.5h-129q-43 137 -169 221t-290 84q-166 0 -296 -79t-202.5 -219.5t-72.5 -316.5q0 -160 59.5 -276.5t168 -179t251.5 -62.5t261 61.5t190.5 172t85.5 256.5h-459l14 106h752z" />
    <glyph glyph-name="Gcircumflex.aalt" horiz-adv-x="1595" 
d="M608 1669h121l170 -217l-57 -43l-172 172l-174 -172l-58 43zM1552 580h-161q-18 -180 -106.5 -317.5t-233 -212.5t-326.5 -75t-319.5 76t-213 218.5t-75.5 332.5q0 209 88 377t246.5 263t363.5 95q147 0 270 -52t207 -147.5t113 -219.5h-129q-43 137 -169 221t-290 84
q-166 0 -296 -79t-202.5 -219.5t-72.5 -316.5q0 -160 59.5 -276.5t168 -179t251.5 -62.5t261 61.5t190.5 172t85.5 256.5h-459l14 106h752z" />
    <glyph glyph-name="uni0122.aalt" horiz-adv-x="1595" 
d="M838.5 -126q29.5 -32 29.5 -85q0 -90 -57 -137t-127 -41v41q51 2 76.5 28.5t27.5 65.5q-14 -8 -32 -8q-33 0 -54.5 21.5t-21.5 56.5q0 39 25.5 64.5t64.5 25.5t68.5 -32zM1552 580h-161q-18 -180 -106.5 -317.5t-233 -212.5t-326.5 -75t-319.5 76t-213 218.5t-75.5 332.5
q0 209 88 377t246.5 263t363.5 95q147 0 270 -52t207 -147.5t113 -219.5h-129q-43 137 -169 221t-290 84q-166 0 -296 -79t-202.5 -219.5t-72.5 -316.5q0 -160 59.5 -276.5t168 -179t251.5 -62.5t261 61.5t190.5 172t85.5 256.5h-459l14 106h752z" />
    <glyph glyph-name="Gdotaccent.aalt" horiz-adv-x="1595" 
d="M607.5 1454.5q-25.5 24.5 -25.5 58.5q0 39 24.5 64t61.5 25q39 0 64.5 -25t25.5 -64q0 -35 -25.5 -59t-64.5 -24q-35 0 -60.5 24.5zM1552 580h-161q-18 -180 -106.5 -317.5t-233 -212.5t-326.5 -75t-319.5 76t-213 218.5t-75.5 332.5q0 209 88 377t246.5 263t363.5 95
q147 0 270 -52t207 -147.5t113 -219.5h-129q-43 137 -169 221t-290 84q-166 0 -296 -79t-202.5 -219.5t-72.5 -316.5q0 -160 59.5 -276.5t168 -179t251.5 -62.5t261 61.5t190.5 172t85.5 256.5h-459l14 106h752z" />
    <glyph glyph-name="Q.aalt" horiz-adv-x="1585" 
d="M1388.5 391.5q-73.5 -155.5 -205.5 -260t-300 -139.5l508 -381h-201l-455 364h-8q-176 0 -315.5 74t-218 212t-78.5 325q0 207 96 379t265 272t376 100q174 0 313.5 -72.5t218 -211t78.5 -326.5q0 -180 -73.5 -335.5zM303.5 325.5q61.5 -112.5 170 -173t249.5 -60.5
q168 0 309.5 82t223 227.5t81.5 323.5q0 152 -61.5 264.5t-170 172t-249.5 59.5q-164 0 -305 -81t-225 -224.5t-84 -325.5q0 -152 61.5 -264.5z" />
    <glyph glyph-name="R.aalt" horiz-adv-x="1234" 
d="M1099 748.5q-81 -107.5 -214 -150.5q131 -33 137 -197l12 -401h-127l-12 383q-2 96 -47 132t-146 36h-403l-76 -551h-123l185 1313h520q174 0 274.5 -85t100.5 -231q0 -141 -81 -248.5zM953.5 743q97.5 88 97.5 236q0 104 -72 162.5t-199 58.5h-391l-76 -545h381
q162 0 259.5 88z" />
    <glyph glyph-name="Racute.aalt" horiz-adv-x="1234" 
d="M612 1450l236 264l80 -76l-275 -227zM1099 748.5q-81 -107.5 -214 -150.5q131 -33 137 -197l12 -401h-127l-12 383q-2 96 -47 132t-146 36h-403l-76 -551h-123l185 1313h520q174 0 274.5 -85t100.5 -231q0 -141 -81 -248.5zM953.5 743q97.5 88 97.5 236q0 104 -72 162.5
t-199 58.5h-391l-76 -545h381q162 0 259.5 88z" />
    <glyph glyph-name="Rcaron.aalt" horiz-adv-x="1234" 
d="M479 1681l174 -172l172 172l58 -43l-168 -217h-123l-168 217zM1099 748.5q-81 -107.5 -214 -150.5q131 -33 137 -197l12 -401h-127l-12 383q-2 96 -47 132t-146 36h-403l-76 -551h-123l185 1313h520q174 0 274.5 -85t100.5 -231q0 -141 -81 -248.5zM953.5 743
q97.5 88 97.5 236q0 104 -72 162.5t-199 58.5h-391l-76 -545h381q162 0 259.5 88z" />
    <glyph glyph-name="uni0156.aalt" horiz-adv-x="1234" 
d="M646 -91q30 -32 30 -85q0 -90 -57.5 -137t-126.5 -41v41q51 2 76.5 28.5t27.5 65.5q-14 -8 -33 -8q-33 0 -54.5 21.5t-21.5 55.5q0 39 26 65t65 26q38 0 68 -32zM1099 748.5q-81 -107.5 -214 -150.5q131 -33 137 -197l12 -401h-127l-12 383q-2 96 -47 132t-146 36h-403
l-76 -551h-123l185 1313h520q174 0 274.5 -85t100.5 -231q0 -141 -81 -248.5zM953.5 743q97.5 88 97.5 236q0 104 -72 162.5t-199 58.5h-391l-76 -545h381q162 0 259.5 88z" />
    <glyph glyph-name="S.aalt" horiz-adv-x="1073" 
d="M230.5 -4.5q-95.5 20.5 -158.5 59.5l18 115q72 -43 162 -64.5t184 -21.5q178 0 279.5 74.5t101.5 206.5q0 84 -39 133t-94 73.5t-158 57.5q-111 35 -181.5 71.5t-114.5 100t-44 164.5q0 172 129 272t342 100q98 0 194.5 -21.5t164.5 -58.5l-19 -116q-63 39 -158.5 63.5
t-185.5 24.5q-154 0 -246 -68.5t-92 -187.5q0 -68 32 -110t85 -67.5t156 -58.5q121 -41 191.5 -75.5t120.5 -105.5t50 -185q0 -121 -64.5 -210t-182 -137.5t-271.5 -48.5q-106 0 -201.5 20.5z" />
    <glyph glyph-name="Sacute.aalt" horiz-adv-x="1073" 
d="M567 1466l236 265l80 -76l-275 -228zM230.5 -4.5q-95.5 20.5 -158.5 59.5l18 115q72 -43 162 -64.5t184 -21.5q178 0 279.5 74.5t101.5 206.5q0 84 -39 133t-94 73.5t-158 57.5q-111 35 -181.5 71.5t-114.5 100t-44 164.5q0 172 129 272t342 100q98 0 194.5 -21.5
t164.5 -58.5l-19 -116q-63 39 -158.5 63.5t-185.5 24.5q-154 0 -246 -68.5t-92 -187.5q0 -68 32 -110t85 -67.5t156 -58.5q121 -41 191.5 -75.5t120.5 -105.5t50 -185q0 -121 -64.5 -210t-182 -137.5t-271.5 -48.5q-106 0 -201.5 20.5z" />
    <glyph glyph-name="Scaron.aalt" horiz-adv-x="1073" 
d="M434 1698l174 -172l172 172l58 -43l-168 -217h-123l-168 217zM230.5 -4.5q-95.5 20.5 -158.5 59.5l18 115q72 -43 162 -64.5t184 -21.5q178 0 279.5 74.5t101.5 206.5q0 84 -39 133t-94 73.5t-158 57.5q-111 35 -181.5 71.5t-114.5 100t-44 164.5q0 172 129 272t342 100
q98 0 194.5 -21.5t164.5 -58.5l-19 -116q-63 39 -158.5 63.5t-185.5 24.5q-154 0 -246 -68.5t-92 -187.5q0 -68 32 -110t85 -67.5t156 -58.5q121 -41 191.5 -75.5t120.5 -105.5t50 -185q0 -121 -64.5 -210t-182 -137.5t-271.5 -48.5q-106 0 -201.5 20.5z" />
    <glyph glyph-name="Scedilla.salt" horiz-adv-x="1073" 
d="M459 -96q59 0 102 -36t43 -101q0 -76 -54 -116t-130 -40q-74 0 -125 37v82q16 -20 47 -31.5t64 -11.5q43 0 72.5 20.5t29.5 61.5q0 33 -24.5 53t-63.5 20q-20 0 -55 -10l-37 41l92 186h59l-2 -59l-59 -100q12 4 41 4zM230.5 -4.5q-95.5 20.5 -158.5 59.5l18 115
q72 -43 162 -64.5t184 -21.5q178 0 279.5 74.5t101.5 206.5q0 84 -39 133t-94 73.5t-158 57.5q-111 35 -181.5 71.5t-114.5 100t-44 164.5q0 172 129 272t342 100q98 0 194.5 -21.5t164.5 -58.5l-19 -116q-63 39 -158.5 63.5t-185.5 24.5q-154 0 -246 -68.5t-92 -187.5
q0 -68 32 -110t85 -67.5t156 -58.5q121 -41 191.5 -75.5t120.5 -105.5t50 -185q0 -121 -64.5 -210t-182 -137.5t-271.5 -48.5q-106 0 -201.5 20.5z" />
    <glyph glyph-name="Scircumflex.aalt" horiz-adv-x="1073" 
d="M547 1686h121l170 -218l-58 -43l-172 172l-174 -172l-57 43zM230.5 -4.5q-95.5 20.5 -158.5 59.5l18 115q72 -43 162 -64.5t184 -21.5q178 0 279.5 74.5t101.5 206.5q0 84 -39 133t-94 73.5t-158 57.5q-111 35 -181.5 71.5t-114.5 100t-44 164.5q0 172 129 272t342 100
q98 0 194.5 -21.5t164.5 -58.5l-19 -116q-63 39 -158.5 63.5t-185.5 24.5q-154 0 -246 -68.5t-92 -187.5q0 -68 32 -110t85 -67.5t156 -58.5q121 -41 191.5 -75.5t120.5 -105.5t50 -185q0 -121 -64.5 -210t-182 -137.5t-271.5 -48.5q-106 0 -201.5 20.5z" />
    <glyph glyph-name="uni0218.aalt" horiz-adv-x="1073" 
d="M502.5 -124q29.5 -32 29.5 -85q0 -90 -57 -137t-127 -41v41q51 2 77 28.5t28 65.5q-14 -8 -33 -8q-33 0 -54.5 21.5t-21.5 56.5q0 39 25.5 64.5t64.5 25.5t68.5 -32zM230.5 -4.5q-95.5 20.5 -158.5 59.5l18 115q72 -43 162 -64.5t184 -21.5q178 0 279.5 74.5t101.5 206.5
q0 84 -39 133t-94 73.5t-158 57.5q-111 35 -181.5 71.5t-114.5 100t-44 164.5q0 172 129 272t342 100q98 0 194.5 -21.5t164.5 -58.5l-19 -116q-63 39 -158.5 63.5t-185.5 24.5q-154 0 -246 -68.5t-92 -187.5q0 -68 32 -110t85 -67.5t156 -58.5q121 -41 191.5 -75.5
t120.5 -105.5t50 -185q0 -121 -64.5 -210t-182 -137.5t-271.5 -48.5q-106 0 -201.5 20.5z" />
    <glyph glyph-name="Z.aalt" horiz-adv-x="1099" 
d="M1098 1278l-834 -1163h656l-15 -115h-848l4 35l836 1163h-659l16 115h850z" />
    <glyph glyph-name="Zacute.aalt" horiz-adv-x="1099" 
d="M629 1444l235 264l80 -76l-274 -227zM1098 1278l-834 -1163h656l-15 -115h-848l4 35l836 1163h-659l16 115h850z" />
    <glyph glyph-name="Zcaron.aalt" horiz-adv-x="1099" 
d="M496 1675l174 -172l172 172l57 -43l-168 -217h-123l-168 217zM1098 1278l-834 -1163h656l-15 -115h-848l4 35l836 1163h-659l16 115h850z" />
    <glyph glyph-name="Zdotaccent.aalt" horiz-adv-x="1099" 
d="M607.5 1448q-25.5 25 -25.5 59q0 39 24.5 63.5t61.5 24.5q39 0 64.5 -24.5t25.5 -63.5q0 -35 -25.5 -59.5t-64.5 -24.5q-35 0 -60.5 25zM1098 1278l-834 -1163h656l-15 -115h-848l4 35l836 1163h-659l16 115h850z" />
    <glyph glyph-name="G.ss02" horiz-adv-x="1505" 
d="M1407 686l-96 -686h-92l10 225q-78 -119 -208 -184.5t-298 -65.5q-182 0 -319.5 76t-212 218.5t-74.5 332.5q0 209 88 377t246.5 263t363.5 95q223 0 384 -114.5t206 -304.5h-129q-43 137 -169 221t-290 84q-166 0 -296 -79t-202.5 -219.5t-72.5 -316.5
q0 -160 59.5 -276.5t168 -179t251.5 -62.5t260 61.5t190.5 172t86.5 256.5h-535l16 106h664z" />
    <glyph glyph-name="K.aalt" horiz-adv-x="1171" 
d="M983 671.5q-59 -73.5 -152 -110.5l173 -561h-146l-162 530q-14 -2 -47 -2h-352l-74 -528h-123l185 1313h123l-95 -672h344q137 0 200 64.5t81 189.5l59 418h125l-65 -461q-15 -107 -74 -180.5z" />
    <glyph glyph-name="M.aalt" horiz-adv-x="1714" 
d="M1421 0l-61 1100l-494 -1049h-127l-204 1047l-371 -1098h-129l461 1313h116l209 -1110l520 1110h121l92 -1313h-133z" />
    <glyph glyph-name="Y.aalt" horiz-adv-x="1280" 
d="M1253 1313l-53 -383q-29 -215 -164 -331t-329 -130l-66 -469h-123l66 471q-174 18 -272.5 124.5t-98.5 274.5q0 39 6 82l51 361h125l-53 -377q-4 -25 -4 -68q0 -141 85 -211.5t234 -70.5q158 0 277 83t143 267l53 377h123z" />
    <glyph glyph-name="Yacute.aalt" horiz-adv-x="1280" 
d="M723 1442l235 264l80 -76l-274 -227zM1253 1313l-53 -383q-29 -215 -164 -331t-329 -130l-66 -469h-123l66 471q-174 18 -272.5 124.5t-98.5 274.5q0 39 6 82l51 361h125l-53 -377q-4 -25 -4 -68q0 -141 85 -211.5t234 -70.5q158 0 277 83t143 267l53 377h123z" />
    <glyph glyph-name="Ycircumflex.aalt" horiz-adv-x="1280" 
d="M702 1661h121l170 -217l-57 -43l-172 172l-174 -172l-58 43zM1253 1313l-53 -383q-29 -215 -164 -331t-329 -130l-66 -469h-123l66 471q-174 18 -272.5 124.5t-98.5 274.5q0 39 6 82l51 361h125l-53 -377q-4 -25 -4 -68q0 -141 85 -211.5t234 -70.5q158 0 277 83t143 267
l53 377h123z" />
    <glyph glyph-name="Ydieresis.aalt" horiz-adv-x="1280" 
d="M545.5 1443.5q-25.5 24.5 -25.5 59.5q0 39 24.5 63.5t61.5 24.5q39 0 64.5 -24.5t25.5 -63.5q0 -35 -25.5 -59.5t-64.5 -24.5q-35 0 -60.5 24.5zM857 1443.5q-26 24.5 -26 59.5q0 39 26 63.5t65 24.5q37 0 61.5 -24.5t24.5 -63.5q0 -35 -26 -59.5t-60 -24.5
q-39 0 -65 24.5zM1253 1313l-53 -383q-29 -215 -164 -331t-329 -130l-66 -469h-123l66 471q-174 18 -272.5 124.5t-98.5 274.5q0 39 6 82l51 361h125l-53 -377q-4 -25 -4 -68q0 -141 85 -211.5t234 -70.5q158 0 277 83t143 267l53 377h123z" />
    <glyph glyph-name="Ygrave.aalt" horiz-adv-x="1280" 
d="M489 1630l80 76l236 -264l-41 -39zM1253 1313l-53 -383q-29 -215 -164 -331t-329 -130l-66 -469h-123l66 471q-174 18 -272.5 124.5t-98.5 274.5q0 39 6 82l51 361h125l-53 -377q-4 -25 -4 -68q0 -141 85 -211.5t234 -70.5q158 0 277 83t143 267l53 377h123z" />
    <glyph glyph-name="i.locl" horiz-adv-x="436" 
d="M218.5 1034.5q-25.5 24.5 -25.5 59.5q0 39 24.5 63.5t61.5 24.5q39 0 64.5 -24.5t25.5 -63.5q0 -35 -26 -59.5t-64 -24.5q-35 0 -60.5 24.5zM340 893l-127 -893h-117l125 893h119z" />
    <glyph glyph-name="c.aalt" horiz-adv-x="909" 
d="M204.5 93q-114.5 118 -114.5 315q0 143 64.5 259.5t181.5 183.5t270 67q74 0 148.5 -15.5t130.5 -42.5l-17 -110q-49 31 -119.5 47t-142.5 16q-119 0 -209 -50t-139 -140.5t-49 -204.5q0 -154 87 -246t236 -92q66 0 141 17.5t124 45.5l-17 -108q-51 -27 -125.5 -43.5
t-144.5 -16.5q-191 0 -305.5 118z" />
    <glyph glyph-name="cacute.aalt" horiz-adv-x="909" 
d="M543 1047l235 264l80 -76l-274 -227zM204.5 93q-114.5 118 -114.5 315q0 143 64.5 259.5t181.5 183.5t270 67q74 0 148.5 -15.5t130.5 -42.5l-17 -110q-49 31 -119.5 47t-142.5 16q-119 0 -209 -50t-139 -140.5t-49 -204.5q0 -154 87 -246t236 -92q66 0 141 17.5
t124 45.5l-17 -108q-51 -27 -125.5 -43.5t-144.5 -16.5q-191 0 -305.5 118z" />
    <glyph glyph-name="ccaron.aalt" horiz-adv-x="909" 
d="M410 1278l174 -172l172 172l57 -43l-168 -217h-123l-168 217zM204.5 93q-114.5 118 -114.5 315q0 143 64.5 259.5t181.5 183.5t270 67q74 0 148.5 -15.5t130.5 -42.5l-17 -110q-49 31 -119.5 47t-142.5 16q-119 0 -209 -50t-139 -140.5t-49 -204.5q0 -154 87 -246
t236 -92q66 0 141 17.5t124 45.5l-17 -108q-51 -27 -125.5 -43.5t-144.5 -16.5q-191 0 -305.5 118z" />
    <glyph glyph-name="ccedilla.aalt" horiz-adv-x="909" 
d="M506 -96q59 0 102 -36t43 -101q0 -76 -54 -116t-130 -40q-74 0 -125 37v82q16 -20 47 -31.5t64 -11.5q43 0 72.5 20.5t29.5 61.5q0 33 -24.5 53t-63.5 20q-20 0 -55 -10l-37 41l92 186h59l-2 -59l-59 -100q12 4 41 4zM204.5 93q114.5 -118 305.5 -118q70 0 144.5 16.5
t125.5 43.5l17 108q-49 -29 -124 -46t-141 -17q-150 0 -236.5 92t-86.5 246q0 115 49 205t139 140t209 50q72 0 142.5 -16.5t119.5 -46.5l17 110q-55 27 -130 42.5t-149 15.5q-154 0 -270.5 -67t-181 -183.5t-64.5 -259.5q0 -197 114.5 -315z" />
    <glyph glyph-name="ccircumflex.aalt" horiz-adv-x="909" 
d="M522 1266h121l170 -217l-57 -43l-172 172l-174 -172l-58 43zM204.5 93q-114.5 118 -114.5 315q0 143 64.5 259.5t181.5 183.5t270 67q74 0 148.5 -15.5t130.5 -42.5l-17 -110q-49 31 -119.5 47t-142.5 16q-119 0 -209 -50t-139 -140.5t-49 -204.5q0 -154 87 -246t236 -92
q66 0 141 17.5t124 45.5l-17 -108q-51 -27 -125.5 -43.5t-144.5 -16.5q-191 0 -305.5 118z" />
    <glyph glyph-name="cdotaccent.aalt" horiz-adv-x="909" 
d="M521.5 1050.5q-25.5 24.5 -25.5 59.5q0 39 24.5 63.5t61.5 24.5q39 0 64.5 -24.5t25.5 -63.5q0 -35 -25.5 -59.5t-64.5 -24.5q-35 0 -60.5 24.5zM204.5 93q-114.5 118 -114.5 315q0 143 64.5 259.5t181.5 183.5t270 67q74 0 148.5 -15.5t130.5 -42.5l-17 -110
q-49 31 -119.5 47t-142.5 16q-119 0 -209 -50t-139 -140.5t-49 -204.5q0 -154 87 -246t236 -92q66 0 141 17.5t124 45.5l-17 -108q-51 -27 -125.5 -43.5t-144.5 -16.5q-191 0 -305.5 118z" />
    <glyph glyph-name="e.aalt" 
d="M209 414q-6 -154 85 -246t257 -92q74 0 154.5 18.5t152.5 50.5l-16 -108q-66 -33 -150 -47.5t-157 -14.5q-209 0 -327 118t-118 323q0 143 58.5 257.5t165 179.5t243.5 65q119 0 208 -49.5t137 -135.5t48 -192q0 -45 -7 -81t-11 -46h-723zM387 776q-76 -41 -121 -111.5
t-47 -156.5h612q10 139 -66.5 224t-209.5 85q-92 0 -168 -41z" />
    <glyph glyph-name="eacute.aalt" 
d="M557 1047l236 264l79 -76l-274 -227zM209 414q-6 -154 85 -246t257 -92q74 0 154.5 18.5t152.5 50.5l-16 -108q-66 -33 -150 -47.5t-157 -14.5q-209 0 -327 118t-118 323q0 143 58.5 257.5t165 179.5t243.5 65q119 0 208 -49.5t137 -135.5t48 -192q0 -45 -7 -81t-11 -46
h-723zM387 776q-76 -41 -121 -111.5t-47 -156.5h612q10 139 -66.5 224t-209.5 85q-92 0 -168 -41z" />
    <glyph glyph-name="ebreve.aalt" 
d="M762.5 1066q-66.5 -58 -164.5 -58q-100 0 -168 59t-78 156h97q8 -57 49 -89t100 -32q61 0 100 33.5t45 87.5h99q-13 -99 -79.5 -157zM209 414q-6 -154 85 -246t257 -92q74 0 154.5 18.5t152.5 50.5l-16 -108q-66 -33 -150 -47.5t-157 -14.5q-209 0 -327 118t-118 323
q0 143 58.5 257.5t165 179.5t243.5 65q119 0 208 -49.5t137 -135.5t48 -192q0 -45 -7 -81t-11 -46h-723zM387 776q-76 -41 -121 -111.5t-47 -156.5h612q10 139 -66.5 224t-209.5 85q-92 0 -168 -41z" />
    <glyph glyph-name="ecaron.aalt" 
d="M424 1278l174 -172l172 172l57 -43l-168 -217h-122l-168 217zM209 414q-6 -154 85 -246t257 -92q74 0 154.5 18.5t152.5 50.5l-16 -108q-66 -33 -150 -47.5t-157 -14.5q-209 0 -327 118t-118 323q0 143 58.5 257.5t165 179.5t243.5 65q119 0 208 -49.5t137 -135.5
t48 -192q0 -45 -7 -81t-11 -46h-723zM387 776q-76 -41 -121 -111.5t-47 -156.5h612q10 139 -66.5 224t-209.5 85q-92 0 -168 -41z" />
    <glyph glyph-name="ecircumflex.aalt" 
d="M537 1266h120l170 -217l-57 -43l-172 172l-174 -172l-57 43zM209 414q-6 -154 85 -246t257 -92q74 0 154.5 18.5t152.5 50.5l-16 -108q-66 -33 -150 -47.5t-157 -14.5q-209 0 -327 118t-118 323q0 143 58.5 257.5t165 179.5t243.5 65q119 0 208 -49.5t137 -135.5t48 -192
q0 -45 -7 -81t-11 -46h-723zM387 776q-76 -41 -121 -111.5t-47 -156.5h612q10 139 -66.5 224t-209.5 85q-92 0 -168 -41z" />
    <glyph glyph-name="edieresis.aalt" 
d="M380 1048.5q-26 24.5 -26 59.5q0 39 24.5 63.5t61.5 24.5q39 0 64.5 -24.5t25.5 -63.5q0 -35 -25.5 -59.5t-64.5 -24.5q-34 0 -60 24.5zM691.5 1048.5q-25.5 24.5 -25.5 59.5q0 39 25.5 63.5t64.5 24.5q37 0 61.5 -24.5t24.5 -63.5q0 -35 -25.5 -59.5t-60.5 -24.5
q-39 0 -64.5 24.5zM209 414q-6 -154 85 -246t257 -92q74 0 154.5 18.5t152.5 50.5l-16 -108q-66 -33 -150 -47.5t-157 -14.5q-209 0 -327 118t-118 323q0 143 58.5 257.5t165 179.5t243.5 65q119 0 208 -49.5t137 -135.5t48 -192q0 -45 -7 -81t-11 -46h-723zM387 776
q-76 -41 -121 -111.5t-47 -156.5h612q10 139 -66.5 224t-209.5 85q-92 0 -168 -41z" />
    <glyph glyph-name="edotaccent.aalt" 
d="M535.5 1050.5q-25.5 24.5 -25.5 59.5q0 39 24.5 63.5t61.5 24.5q39 0 64.5 -24.5t25.5 -63.5q0 -35 -25.5 -59.5t-64.5 -24.5q-35 0 -60.5 24.5zM209 414q-6 -154 85 -246t257 -92q74 0 154.5 18.5t152.5 50.5l-16 -108q-66 -33 -150 -47.5t-157 -14.5q-209 0 -327 118
t-118 323q0 143 58.5 257.5t165 179.5t243.5 65q119 0 208 -49.5t137 -135.5t48 -192q0 -45 -7 -81t-11 -46h-723zM387 776q-76 -41 -121 -111.5t-47 -156.5h612q10 139 -66.5 224t-209.5 85q-92 0 -168 -41z" />
    <glyph glyph-name="egrave.aalt" 
d="M324 1235l79 76l236 -264l-41 -39zM209 414q-6 -154 85 -246t257 -92q74 0 154.5 18.5t152.5 50.5l-16 -108q-66 -33 -150 -47.5t-157 -14.5q-209 0 -327 118t-118 323q0 143 58.5 257.5t165 179.5t243.5 65q119 0 208 -49.5t137 -135.5t48 -192q0 -45 -7 -81t-11 -46
h-723zM387 776q-76 -41 -121 -111.5t-47 -156.5h612q10 139 -66.5 224t-209.5 85q-92 0 -168 -41z" />
    <glyph glyph-name="emacron.aalt" 
d="M825 1130v-100h-454v100h454zM209 414q-6 -154 85 -246t257 -92q74 0 154.5 18.5t152.5 50.5l-16 -108q-66 -33 -150 -47.5t-157 -14.5q-209 0 -327 118t-118 323q0 143 58.5 257.5t165 179.5t243.5 65q119 0 208 -49.5t137 -135.5t48 -192q0 -45 -7 -81t-11 -46h-723z
M387 776q-76 -41 -121 -111.5t-47 -156.5h612q10 139 -66.5 224t-209.5 85q-92 0 -168 -41z" />
    <glyph glyph-name="eogonek.aalt" 
d="M821 39q-57 -23 -85.5 -59.5t-28.5 -73.5q0 -31 18 -49.5t49 -18.5q16 0 47 10v-79q-43 -16 -88 -17q-61 0 -96 34t-35 83q0 47 34 92t101 78h84zM209 414q-6 -154 85 -246t257 -92q74 0 154.5 18.5t152.5 50.5l-16 -108q-66 -33 -150 -47.5t-157 -14.5q-209 0 -327 118
t-118 323q0 143 58.5 257.5t165 179.5t243.5 65q119 0 208 -49.5t137 -135.5t48 -192q0 -45 -7 -81t-11 -46h-723zM387 776q-76 -41 -121 -111.5t-47 -156.5h612q10 139 -66.5 224t-209.5 85q-92 0 -168 -41z" />
    <glyph glyph-name="g.salt" horiz-adv-x="1118" 
d="M211 -392.5q-88 23.5 -152 62.5l17 105q72 -43 153.5 -64.5t159.5 -21.5q360 0 402 303l24 178q-51 -63 -140 -99t-188 -36q-119 0 -211 53t-144 149.5t-52 221.5q0 133 59.5 237.5t163 163t232.5 58.5t224 -57.5t138 -158.5l37 191h96l-125 -901q-27 -207 -161 -307.5
t-355 -100.5q-90 0 -178 23.5zM766 234.5q94 95.5 94 250.5q0 147 -87 237.5t-228 90.5q-98 0 -177 -45t-123 -125t-44 -180q0 -145 87 -234.5t232 -89.5q152 0 246 95.5z" />
    <glyph glyph-name="gbreve.salt" horiz-adv-x="1118" 
d="M742.5 1066q-66.5 -58 -164.5 -58q-100 0 -168 59t-78 156h96q8 -57 49 -89t101 -32q61 0 100 33.5t45 87.5h98q-12 -99 -78.5 -157zM211 -392.5q-88 23.5 -152 62.5l17 105q72 -43 153.5 -64.5t159.5 -21.5q360 0 402 303l24 178q-51 -63 -140 -99t-188 -36
q-119 0 -211 53t-144 149.5t-52 221.5q0 133 59.5 237.5t163 163t232.5 58.5t224 -57.5t138 -158.5l37 191h96l-125 -901q-27 -207 -161 -307.5t-355 -100.5q-90 0 -178 23.5zM766 234.5q94 95.5 94 250.5q0 147 -87 237.5t-228 90.5q-98 0 -177 -45t-123 -125t-44 -180
q0 -145 87 -234.5t232 -89.5q152 0 246 95.5z" />
    <glyph glyph-name="gcircumflex.salt" horiz-adv-x="1118" 
d="M516 1266h121l170 -217l-57 -43l-172 172l-175 -172l-57 43zM211 -392.5q-88 23.5 -152 62.5l17 105q72 -43 153.5 -64.5t159.5 -21.5q360 0 402 303l24 178q-51 -63 -140 -99t-188 -36q-119 0 -211 53t-144 149.5t-52 221.5q0 133 59.5 237.5t163 163t232.5 58.5
t224 -57.5t138 -158.5l37 191h96l-125 -901q-27 -207 -161 -307.5t-355 -100.5q-90 0 -178 23.5zM766 234.5q94 95.5 94 250.5q0 147 -87 237.5t-228 90.5q-98 0 -177 -45t-123 -125t-44 -180q0 -145 87 -234.5t232 -89.5q152 0 246 95.5z" />
    <glyph glyph-name="uni0123.salt" horiz-adv-x="1118" 
d="M645.5 1137.5q22.5 -21.5 22.5 -56.5q0 -39 -26 -63.5t-64 -24.5q-43 0 -72 31t-29 86q0 88 56.5 135t128.5 41v-39q-49 -4 -76 -30.5t-27 -65.5q10 8 35 8q29 0 51.5 -21.5zM211 -392.5q-88 23.5 -152 62.5l17 105q72 -43 153.5 -64.5t159.5 -21.5q360 0 402 303l24 178
q-51 -63 -140 -99t-188 -36q-119 0 -211 53t-144 149.5t-52 221.5q0 133 59.5 237.5t163 163t232.5 58.5t224 -57.5t138 -158.5l37 191h96l-125 -901q-27 -207 -161 -307.5t-355 -100.5q-90 0 -178 23.5zM766 234.5q94 95.5 94 250.5q0 147 -87 237.5t-228 90.5
q-98 0 -177 -45t-123 -125t-44 -180q0 -145 87 -234.5t232 -89.5q152 0 246 95.5z" />
    <glyph glyph-name="gdotaccent.salt" horiz-adv-x="1118" 
d="M515 1050.5q-26 24.5 -26 59.5q0 39 25 63.5t61 24.5q39 0 65 -24.5t26 -63.5q0 -35 -26 -59.5t-65 -24.5q-34 0 -60 24.5zM211 -392.5q-88 23.5 -152 62.5l17 105q72 -43 153.5 -64.5t159.5 -21.5q360 0 402 303l24 178q-51 -63 -140 -99t-188 -36q-119 0 -211 53
t-144 149.5t-52 221.5q0 133 59.5 237.5t163 163t232.5 58.5t224 -57.5t138 -158.5l37 191h96l-125 -901q-27 -207 -161 -307.5t-355 -100.5q-90 0 -178 23.5zM766 234.5q94 95.5 94 250.5q0 147 -87 237.5t-228 90.5q-98 0 -177 -45t-123 -125t-44 -180q0 -145 87 -234.5
t232 -89.5q152 0 246 95.5z" />
    <glyph glyph-name="s.aalt" horiz-adv-x="868" 
d="M231.5 843q100.5 75 270.5 75q72 0 145.5 -15.5t120.5 -38.5l-14 -106q-111 59 -250 59q-119 0 -185.5 -43t-66.5 -119q0 -61 42 -90.5t107 -46.5l125 -31q211 -51 211 -235q0 -133 -103.5 -205t-279.5 -72q-78 0 -155.5 18.5t-130.5 47.5l14 106q129 -74 285 -73
q119 0 183 44t64 122q0 74 -44 103.5t-105 43.5l-121 29q-213 49 -213 229q0 123 100.5 198z" />
    <glyph glyph-name="sacute.aalt" horiz-adv-x="868" 
d="M471 1053l236 264l79 -76l-274 -227zM231.5 843q100.5 75 270.5 75q72 0 145.5 -15.5t120.5 -38.5l-14 -106q-111 59 -250 59q-119 0 -185.5 -43t-66.5 -119q0 -61 42 -90.5t107 -46.5l125 -31q211 -51 211 -235q0 -133 -103.5 -205t-279.5 -72q-78 0 -155.5 18.5
t-130.5 47.5l14 106q129 -74 285 -73q119 0 183 44t64 122q0 74 -44 103.5t-105 43.5l-121 29q-213 49 -213 229q0 123 100.5 198z" />
    <glyph glyph-name="scaron.aalt" horiz-adv-x="868" 
d="M338 1284l174 -172l172 172l57 -43l-168 -217h-122l-168 217zM231.5 843q100.5 75 270.5 75q72 0 145.5 -15.5t120.5 -38.5l-14 -106q-111 59 -250 59q-119 0 -185.5 -43t-66.5 -119q0 -61 42 -90.5t107 -46.5l125 -31q211 -51 211 -235q0 -133 -103.5 -205t-279.5 -72
q-78 0 -155.5 18.5t-130.5 47.5l14 106q129 -74 285 -73q119 0 183 44t64 122q0 74 -44 103.5t-105 43.5l-121 29q-213 49 -213 229q0 123 100.5 198z" />
    <glyph glyph-name="scedilla.salt" horiz-adv-x="868" 
d="M401 -96q59 0 102.5 -36t43.5 -101q0 -76 -54.5 -116t-130.5 -40q-74 0 -124 37v82q16 -20 46.5 -31.5t63.5 -11.5q43 0 73 20.5t30 61.5q0 33 -25 53t-64 20q-20 0 -55 -10l-37 41l92 186h60l-2 -59l-60 -100q12 4 41 4zM231.5 843q100.5 75 270.5 75q72 0 145.5 -15.5
t120.5 -38.5l-14 -106q-111 59 -250 59q-119 0 -185.5 -43t-66.5 -119q0 -61 42 -90.5t107 -46.5l125 -31q211 -51 211 -235q0 -133 -103.5 -205t-279.5 -72q-78 0 -155.5 18.5t-130.5 47.5l14 106q129 -74 285 -73q119 0 183 44t64 122q0 74 -44 103.5t-105 43.5l-121 29
q-213 49 -213 229q0 123 100.5 198z" />
    <glyph glyph-name="scircumflex.aalt" horiz-adv-x="868" 
d="M451 1272h120l170 -217l-57 -43l-172 172l-174 -172l-57 43zM231.5 843q100.5 75 270.5 75q72 0 145.5 -15.5t120.5 -38.5l-14 -106q-111 59 -250 59q-119 0 -185.5 -43t-66.5 -119q0 -61 42 -90.5t107 -46.5l125 -31q211 -51 211 -235q0 -133 -103.5 -205t-279.5 -72
q-78 0 -155.5 18.5t-130.5 47.5l14 106q129 -74 285 -73q119 0 183 44t64 122q0 74 -44 103.5t-105 43.5l-121 29q-213 49 -213 229q0 123 100.5 198z" />
    <glyph glyph-name="uni0219.aalt" horiz-adv-x="868" 
d="M447.5 -124q29.5 -32 29.5 -85q0 -90 -57.5 -137t-126.5 -41v41q51 2 76.5 28.5t27.5 65.5q-14 -8 -32 -8q-33 0 -54.5 21.5t-21.5 56.5q0 39 25.5 64.5t64.5 25.5t68.5 -32zM231.5 843q100.5 75 270.5 75q72 0 145.5 -15.5t120.5 -38.5l-14 -106q-111 59 -250 59
q-119 0 -185.5 -43t-66.5 -119q0 -61 42 -90.5t107 -46.5l125 -31q211 -51 211 -235q0 -133 -103.5 -205t-279.5 -72q-78 0 -155.5 18.5t-130.5 47.5l14 106q129 -74 285 -73q119 0 183 44t64 122q0 74 -44 103.5t-105 43.5l-121 29q-213 49 -213 229q0 123 100.5 198z" />
    <glyph glyph-name="t.aalt" horiz-adv-x="602" 
d="M111 823l278 287h17l-31 -217h221l-12 -96h-222l-75 -537q-4 -37 -4 -51q0 -63 33.5 -89t107.5 -26q25 0 42 3t19 3l-12 -100q-57 -8 -92 -8q-217 0 -217 188q0 12 6 74l76 543h-140z" />
    <glyph glyph-name="tbar.aalt" horiz-adv-x="595" 
d="M111 823l278 287h17l-31 -217h221l-12 -96h-222l-75 -537q-4 -37 -4 -51q0 -63 33.5 -89t107.5 -26q25 0 42 3t19 3l-12 -100q-57 -8 -92 -8q-217 0 -217 188q0 12 6 74l76 543h-140zM547 500l-443 206l13 91l442 -206z" />
    <glyph glyph-name="tcaron.aalt" horiz-adv-x="598" 
d="M557 999h-68l52 349h104zM111 823l278 287h17l-31 -217h221l-12 -96h-222l-75 -537q-4 -37 -4 -51q0 -63 33.5 -89t107.5 -26q25 0 42 3t19 3l-12 -100q-57 -8 -92 -8q-217 0 -217 188q0 12 6 74l76 543h-140z" />
    <glyph glyph-name="uni0163.salt" horiz-adv-x="602" 
d="M356 -80q59 0 102.5 -36t43.5 -101q0 -76 -54.5 -116t-130.5 -40q-74 0 -124 37v82q16 -20 46.5 -31.5t63.5 -11.5q43 0 73 20.5t30 61.5q0 33 -25 53.5t-64 20.5q-20 0 -55 -11l-37 41l92 187h60l-2 -60l-60 -100q12 4 41 4zM111 823l-5 -26h140l-76 -543q-6 -61 -6 -74
q0 -188 217 -188q35 0 92 8l12 100q-2 0 -19 -3t-42 -3q-74 0 -107.5 25.5t-33.5 89.5q0 14 4 51l75 537h222l12 96h-221l31 217h-17z" />
    <glyph glyph-name="uni021B.aalt" horiz-adv-x="602" 
d="M400.5 -107.5q29.5 -31.5 29.5 -85.5q0 -90 -57.5 -137t-126.5 -41v41q51 2 76.5 29t27.5 65q-14 -8 -33 -8q-33 0 -54 21.5t-21 56.5q0 39 25.5 64.5t64.5 25.5t68.5 -31.5zM111 823l278 287h17l-31 -217h221l-12 -96h-222l-75 -537q-4 -37 -4 -51q0 -63 33.5 -89
t107.5 -26q25 0 42 3t19 3l-12 -100q-57 -8 -92 -8q-217 0 -217 188q0 12 6 74l76 543h-140z" />
    <glyph glyph-name="y.salt" horiz-adv-x="940" 
d="M973 893l-740 -1282h-131l275 481l-285 801h121l238 -674l391 674h131z" />
    <glyph glyph-name="yacute.aalt" horiz-adv-x="940" 
d="M481 1024l236 264l80 -76l-275 -227zM973 893l-740 -1282h-131l275 481l-285 801h121l238 -674l391 674h131z" />
    <glyph glyph-name="ycircumflex.aalt" horiz-adv-x="940" 
d="M461 1243h121l170 -217l-58 -43l-172 172l-174 -172l-57 43zM973 893l-740 -1282h-131l275 481l-285 801h121l238 -674l391 674h131z" />
    <glyph glyph-name="ydieresis.aalt" horiz-adv-x="940" 
d="M304.5 1026q-25.5 25 -25.5 59q0 39 24.5 64t61.5 25q39 0 64.5 -25t25.5 -64q0 -35 -26 -59.5t-64 -24.5q-35 0 -60.5 25zM615.5 1026q-25.5 25 -25.5 59q0 39 25.5 64t64.5 25q37 0 61.5 -25t24.5 -64q0 -35 -25.5 -59.5t-60.5 -24.5q-39 0 -64.5 25zM973 893
l-740 -1282h-131l275 481l-285 801h121l238 -674l391 674h131z" />
    <glyph glyph-name="ygrave.aalt" horiz-adv-x="940" 
d="M248 1212l80 76l235 -264l-41 -39zM973 893l-740 -1282h-131l275 481l-285 801h121l238 -674l391 674h131z" />
    <glyph glyph-name="z.aalt" horiz-adv-x="790" 
d="M758 860l-555 -758h459l-15 -102h-629l5 29l555 762h-437l15 102h608z" />
    <glyph glyph-name="zacute.aalt" horiz-adv-x="790" 
d="M424 1024l235 264l80 -76l-274 -227zM758 860l-555 -758h459l-15 -102h-629l5 29l555 762h-437l15 102h608z" />
    <glyph glyph-name="zcaron.aalt" horiz-adv-x="790" 
d="M291 1255l174 -172l172 172l57 -43l-168 -217h-123l-167 217zM758 860l-555 -758h459l-15 -102h-629l5 29l555 762h-437l15 102h608z" />
    <glyph glyph-name="zdotaccent.aalt" horiz-adv-x="790" 
d="M402.5 1028.5q-25.5 24.5 -25.5 58.5q0 39 24.5 64t61.5 25q39 0 64.5 -25t25.5 -64q0 -35 -25.5 -59t-64.5 -24q-35 0 -60.5 24.5zM758 860l-555 -758h459l-15 -102h-629l5 29l555 762h-437l15 102h608z" />
    <glyph glyph-name="a.aalt" horiz-adv-x="946" 
d="M773 842q83 -76 83 -207q0 -41 -4 -64l-80 -571h-94l2 150q-55 -82 -145.5 -128.5t-196.5 -46.5q-127 0 -203 68t-76 184q0 123 89.5 201t257.5 92l329 29l4 29q4 37 4 51q0 100 -58 145t-157 45q-109 0 -184.5 -51t-85.5 -145h-113q20 137 129 216t265 79q151 0 234 -76
zM721 459l-299 -23q-115 -10 -178.5 -60t-63.5 -136q0 -80 52.5 -125t144.5 -45q133 0 225 94t113 250z" />
    <glyph glyph-name="aacute.aalt" horiz-adv-x="946" 
d="M514 1047l236 264l79 -76l-274 -227zM773 842q83 -76 83 -207q0 -41 -4 -64l-80 -571h-94l2 150q-55 -82 -145.5 -128.5t-196.5 -46.5q-127 0 -203 68t-76 184q0 123 89.5 201t257.5 92l329 29l4 29q4 37 4 51q0 100 -58 145t-157 45q-109 0 -184.5 -51t-85.5 -145h-113
q20 137 129 216t265 79q151 0 234 -76zM721 459l-299 -23q-115 -10 -178.5 -60t-63.5 -136q0 -80 52.5 -125t144.5 -45q133 0 225 94t113 250z" />
    <glyph glyph-name="abreve.aalt" horiz-adv-x="946" 
d="M719.5 1066q-66.5 -58 -164.5 -58q-100 0 -168 59t-78 156h97q8 -57 49 -89t100 -32q61 0 100 33.5t45 87.5h99q-13 -99 -79.5 -157zM773 842q83 -76 83 -207q0 -41 -4 -64l-80 -571h-94l2 150q-55 -82 -145.5 -128.5t-196.5 -46.5q-127 0 -203 68t-76 184
q0 123 89.5 201t257.5 92l329 29l4 29q4 37 4 51q0 100 -58 145t-157 45q-109 0 -184.5 -51t-85.5 -145h-113q20 137 129 216t265 79q151 0 234 -76zM721 459l-299 -23q-115 -10 -178.5 -60t-63.5 -136q0 -80 52.5 -125t144.5 -45q133 0 225 94t113 250z" />
    <glyph glyph-name="acircumflex.aalt" horiz-adv-x="946" 
d="M494 1266h120l170 -217l-57 -43l-172 172l-174 -172l-57 43zM773 842q83 -76 83 -207q0 -41 -4 -64l-80 -571h-94l2 150q-55 -82 -145.5 -128.5t-196.5 -46.5q-127 0 -203 68t-76 184q0 123 89.5 201t257.5 92l329 29l4 29q4 37 4 51q0 100 -58 145t-157 45
q-109 0 -184.5 -51t-85.5 -145h-113q20 137 129 216t265 79q151 0 234 -76zM721 459l-299 -23q-115 -10 -178.5 -60t-63.5 -136q0 -80 52.5 -125t144.5 -45q133 0 225 94t113 250z" />
    <glyph glyph-name="adieresis.aalt" horiz-adv-x="946" 
d="M336.5 1048.5q-25.5 24.5 -25.5 59.5q0 39 24.5 63.5t61.5 24.5q39 0 64.5 -24.5t25.5 -63.5q0 -35 -25.5 -59.5t-64.5 -24.5q-35 0 -60.5 24.5zM648.5 1048.5q-25.5 24.5 -25.5 59.5q0 39 25.5 63.5t64.5 24.5q37 0 61.5 -24.5t24.5 -63.5q0 -35 -25.5 -59.5
t-60.5 -24.5q-39 0 -64.5 24.5zM773 842q83 -76 83 -207q0 -41 -4 -64l-80 -571h-94l2 150q-55 -82 -145.5 -128.5t-196.5 -46.5q-127 0 -203 68t-76 184q0 123 89.5 201t257.5 92l329 29l4 29q4 37 4 51q0 100 -58 145t-157 45q-109 0 -184.5 -51t-85.5 -145h-113
q20 137 129 216t265 79q151 0 234 -76zM721 459l-299 -23q-115 -10 -178.5 -60t-63.5 -136q0 -80 52.5 -125t144.5 -45q133 0 225 94t113 250z" />
    <glyph glyph-name="agrave.aalt" horiz-adv-x="946" 
d="M281 1235l79 76l236 -264l-41 -39zM773 842q83 -76 83 -207q0 -41 -4 -64l-80 -571h-94l2 150q-55 -82 -145.5 -128.5t-196.5 -46.5q-127 0 -203 68t-76 184q0 123 89.5 201t257.5 92l329 29l4 29q4 37 4 51q0 100 -58 145t-157 45q-109 0 -184.5 -51t-85.5 -145h-113
q20 137 129 216t265 79q151 0 234 -76zM721 459l-299 -23q-115 -10 -178.5 -60t-63.5 -136q0 -80 52.5 -125t144.5 -45q133 0 225 94t113 250z" />
    <glyph glyph-name="amacron.aalt" horiz-adv-x="946" 
d="M782 1130v-100h-454v100h454zM773 842q83 -76 83 -207q0 -41 -4 -64l-80 -571h-94l2 150q-55 -82 -145.5 -128.5t-196.5 -46.5q-127 0 -203 68t-76 184q0 123 89.5 201t257.5 92l329 29l4 29q4 37 4 51q0 100 -58 145t-157 45q-109 0 -184.5 -51t-85.5 -145h-113
q20 137 129 216t265 79q151 0 234 -76zM721 459l-299 -23q-115 -10 -178.5 -60t-63.5 -136q0 -80 52.5 -125t144.5 -45q133 0 225 94t113 250z" />
    <glyph glyph-name="aogonek.aalt" horiz-adv-x="946" 
d="M772 0q-57 -23 -86 -59.5t-29 -73.5q0 -31 18.5 -49.5t49.5 -18.5q16 0 47 11v-80q-43 -16 -88 -17q-61 0 -96 34t-35 83q0 47 34 92t101 78h84zM773 842q83 -76 83 -207q0 -41 -4 -64l-80 -571h-94l2 150q-55 -82 -145.5 -128.5t-196.5 -46.5q-127 0 -203 68t-76 184
q0 123 89.5 201t257.5 92l329 29l4 29q4 37 4 51q0 100 -58 145t-157 45q-109 0 -184.5 -51t-85.5 -145h-113q20 137 129 216t265 79q151 0 234 -76zM721 459l-299 -23q-115 -10 -178.5 -60t-63.5 -136q0 -80 52.5 -125t144.5 -45q133 0 225 94t113 250z" />
    <glyph glyph-name="aring.aalt" horiz-adv-x="946" 
d="M415.5 1021q-53.5 52 -53.5 132t54.5 134t138.5 54t138.5 -54t54.5 -134t-54.5 -132t-138.5 -52q-86 0 -139.5 52zM622.5 1086.5q28.5 27.5 28.5 72.5q0 41 -28.5 68.5t-67.5 27.5t-67.5 -27.5t-28.5 -68.5q0 -45 28.5 -72.5t67.5 -27.5t67.5 27.5zM773 842
q83 -76 83 -207q0 -41 -4 -64l-80 -571h-94l2 150q-55 -82 -145.5 -128.5t-196.5 -46.5q-127 0 -203 68t-76 184q0 123 89.5 201t257.5 92l329 29l4 29q4 37 4 51q0 100 -58 145t-157 45q-109 0 -184.5 -51t-85.5 -145h-113q20 137 129 216t265 79q151 0 234 -76zM721 459
l-299 -23q-115 -10 -178.5 -60t-63.5 -136q0 -80 52.5 -125t144.5 -45q133 0 225 94t113 250z" />
    <glyph glyph-name="aringacute.aalt" horiz-adv-x="954" 
d="M516 1132l312 168l49 -99l-336 -119zM495.5 900q53.5 -52 139.5 -52q84 0 138 52t54 132t-54 134.5t-138 54.5t-138.5 -54.5t-54.5 -134.5t53.5 -132zM702.5 965.5q-28.5 -27.5 -67.5 -27.5t-67.5 27.5t-28.5 72.5q0 41 28.5 69t67.5 28t67.5 -28t28.5 -69
q0 -45 -28.5 -72.5zM773 842q83 -76 83 -207q0 -41 -4 -64l-80 -571h-94l2 150q-55 -82 -145.5 -128.5t-196.5 -46.5q-127 0 -203 68t-76 184q0 123 89.5 201t257.5 92l329 29l4 29q4 37 4 51q0 100 -58 145t-157 45q-109 0 -184.5 -51t-85.5 -145h-113q20 137 129 216
t265 79q151 0 234 -76zM721 459l-299 -23q-115 -10 -178.5 -60t-63.5 -136q0 -80 52.5 -125t144.5 -45q133 0 225 94t113 250z" />
    <glyph glyph-name="atilde.aalt" horiz-adv-x="946" 
d="M332 1077q0 59 32.5 91t81.5 32q47 0 113 -41q29 -18 49.5 -26.5t42.5 -8.5q57 0 54 80h67q4 -29 4 -39q0 -61 -34.5 -95t-92.5 -34q-33 0 -59.5 11.5t-59.5 31.5q-20 12 -40.5 21.5t-38.5 9.5q-27 0 -40.5 -21.5t-9.5 -58.5h-65q-4 16 -4 47zM773 842q83 -76 83 -207
q0 -41 -4 -64l-80 -571h-94l2 150q-55 -82 -145.5 -128.5t-196.5 -46.5q-127 0 -203 68t-76 184q0 123 89.5 201t257.5 92l329 29l4 29q4 37 4 51q0 100 -58 145t-157 45q-109 0 -184.5 -51t-85.5 -145h-113q20 137 129 216t265 79q151 0 234 -76zM721 459l-299 -23
q-115 -10 -178.5 -60t-63.5 -136q0 -80 52.5 -125t144.5 -45q133 0 225 94t113 250z" />
    <glyph glyph-name="g.ss02" horiz-adv-x="909" 
d="M918 815h-201q78 -84 78 -211q0 -88 -36 -151.5t-84 -105.5t-126 -93l-201 -135q45 16 107 16q135 0 218 -71.5t83 -186.5q0 -131 -112 -211t-282 -80q-168 0 -276.5 79t-118.5 212h107q12 -90 91 -141t197 -51q123 0 198 51t75 139q0 78 -59.5 122t-163.5 44
q-70 0 -140.5 -14.5t-109.5 -34.5l-39 76l283 192q-152 -2 -241 88t-89 225q0 98 49 177t136 123.5t194 44.5q92 0 168 -35l311 45zM604 417.5q74 69.5 74 178.5q0 98 -61.5 158.5t-165.5 60.5q-109 0 -182.5 -66.5t-73.5 -175.5q0 -100 61 -162.5t166 -62.5q108 0 182 69.5
z" />
    <glyph glyph-name="gbreve.ss02" horiz-adv-x="909" 
d="M648.5 1066q-66.5 -58 -165.5 -58q-100 0 -167.5 59t-77.5 156h96q8 -57 49 -89t100 -32q61 0 100.5 33.5t45.5 87.5h98q-12 -99 -78.5 -157zM918 815h-201q78 -84 78 -211q0 -88 -36 -151.5t-84 -105.5t-126 -93l-201 -135q45 16 107 16q135 0 218 -71.5t83 -186.5
q0 -131 -112 -211t-282 -80q-168 0 -276.5 79t-118.5 212h107q12 -90 91 -141t197 -51q123 0 198 51t75 139q0 78 -59.5 122t-163.5 44q-70 0 -140.5 -14.5t-109.5 -34.5l-39 76l283 192q-152 -2 -241 88t-89 225q0 98 49 177t136 123.5t194 44.5q92 0 168 -35l311 45z
M604 417.5q74 69.5 74 178.5q0 98 -61.5 158.5t-165.5 60.5q-109 0 -182.5 -66.5t-73.5 -175.5q0 -100 61 -162.5t166 -62.5q108 0 182 69.5z" />
    <glyph glyph-name="gcircumflex.ss02" horiz-adv-x="909" 
d="M422 1266h121l170 -217l-58 -43l-172 172l-174 -172l-57 43zM918 815h-201q78 -84 78 -211q0 -88 -36 -151.5t-84 -105.5t-126 -93l-201 -135q45 16 107 16q135 0 218 -71.5t83 -186.5q0 -131 -112 -211t-282 -80q-168 0 -276.5 79t-118.5 212h107q12 -90 91 -141
t197 -51q123 0 198 51t75 139q0 78 -59.5 122t-163.5 44q-70 0 -140.5 -14.5t-109.5 -34.5l-39 76l283 192q-152 -2 -241 88t-89 225q0 98 49 177t136 123.5t194 44.5q92 0 168 -35l311 45zM604 417.5q74 69.5 74 178.5q0 98 -61.5 158.5t-165.5 60.5q-109 0 -182.5 -66.5
t-73.5 -175.5q0 -100 61 -162.5t166 -62.5q108 0 182 69.5z" />
    <glyph glyph-name="uni0123.ss02" horiz-adv-x="909" 
d="M550.5 1137.5q22.5 -21.5 22.5 -56.5q0 -39 -25.5 -63.5t-64.5 -24.5q-43 0 -71.5 31t-28.5 86q0 88 56.5 135t127.5 41v-39q-49 -4 -75.5 -30.5t-26.5 -65.5q10 8 35 8q28 0 50.5 -21.5zM918 815h-201q78 -84 78 -211q0 -88 -36 -151.5t-84 -105.5t-126 -93l-201 -135
q45 16 107 16q135 0 218 -71.5t83 -186.5q0 -131 -112 -211t-282 -80q-168 0 -276.5 79t-118.5 212h107q12 -90 91 -141t197 -51q123 0 198 51t75 139q0 78 -59.5 122t-163.5 44q-70 0 -140.5 -14.5t-109.5 -34.5l-39 76l283 192q-152 -2 -241 88t-89 225q0 98 49 177
t136 123.5t194 44.5q92 0 168 -35l311 45zM604 417.5q74 69.5 74 178.5q0 98 -61.5 158.5t-165.5 60.5q-109 0 -182.5 -66.5t-73.5 -175.5q0 -100 61 -162.5t166 -62.5q108 0 182 69.5z" />
    <glyph glyph-name="gdotaccent.ss02" horiz-adv-x="909" 
d="M420.5 1050.5q-25.5 24.5 -25.5 59.5q0 39 24.5 63.5t61.5 24.5q39 0 64.5 -24.5t25.5 -63.5q0 -35 -25.5 -59.5t-64.5 -24.5q-35 0 -60.5 24.5zM918 815h-201q78 -84 78 -211q0 -88 -36 -151.5t-84 -105.5t-126 -93l-201 -135q45 16 107 16q135 0 218 -71.5t83 -186.5
q0 -131 -112 -211t-282 -80q-168 0 -276.5 79t-118.5 212h107q12 -90 91 -141t197 -51q123 0 198 51t75 139q0 78 -59.5 122t-163.5 44q-70 0 -140.5 -14.5t-109.5 -34.5l-39 76l283 192q-152 -2 -241 88t-89 225q0 98 49 177t136 123.5t194 44.5q92 0 168 -35l311 45z
M604 417.5q74 69.5 74 178.5q0 98 -61.5 158.5t-165.5 60.5q-109 0 -182.5 -66.5t-73.5 -175.5q0 -100 61 -162.5t166 -62.5q108 0 182 69.5z" />
    <glyph glyph-name="j.ss02" horiz-adv-x="464" 
d="M281.5 1179.5q-23.5 22.5 -23.5 57.5q0 45 33 78t78 33q39 0 61.5 -22.5t22.5 -57.5q0 -45 -32 -78t-79 -33q-37 0 -60.5 22.5zM-74 -303q88 0 129 49t56 145l137 1002h117l-144 -1028q-35 -268 -291 -268q-45 0 -82 6l13 98q28 -4 65 -4z" />
    <glyph glyph-name="o.aalt" horiz-adv-x="1124" 
d="M158.5 675.5q66.5 112.5 180.5 177.5t253 65q129 0 229.5 -56.5t156.5 -159t56 -231.5q0 -141 -66.5 -254t-181 -177.5t-254.5 -64.5q-129 0 -229 56.5t-155.5 159t-55.5 231.5q0 141 66.5 253.5z" />
    <glyph glyph-name="germandbls.aalt" horiz-adv-x="1019" 
d="M231 944q27 180 144 286.5t287 106.5q139 0 226 -68.5t87 -181.5q0 -168 -205 -292l-131 -78q-41 -23 -70.5 -50.5t-29.5 -66.5q0 -27 19.5 -44t62.5 -40l129 -67q152 -84 151 -209q0 -74 -41 -134.5t-113.5 -95.5t-160.5 -35q-98 0 -161 47.5t-63 133.5q0 23 3 34
l100 17q-2 -8 -2 -27q0 -53 36 -83.5t97 -30.5q78 0 131 44t53 111q0 53 -31.5 84t-84.5 57l-132 68q-47 25 -79.5 60.5t-32.5 95.5q0 74 44 121t101 81l150 84q45 25 88 72t43 123q0 74 -55.5 121t-143.5 47q-115 0 -194.5 -77t-96.5 -193l-135 -965h-121z" />
    <glyph glyph-name="y.ss03" horiz-adv-x="917" 
d="M948 893l-495 -891l-21 -137q-41 -268 -293 -268q-43 0 -80 6l13 98q29 -4 65 -4q100 0 136 53t46 141l17 111l-244 891h119l96 -371q78 -305 96 -403q37 76 211 401l205 373h129z" />
    <glyph glyph-name="c_h.dlig" horiz-adv-x="2105" 
d="M1901.5 845q76.5 -73 76.5 -214q0 -37 -6 -80l-78 -551h-116l71 526q6 43 6 78q0 109 -53 159t-143 50q-123 0 -211 -74.5t-105 -193.5l-77 -543h-119l137 967l19 137q2 12 2 35q0 100 -97 100q-59 0 -96 -36t-47 -99l-18 -137l-54 -375h-119q-27 102 -109.5 161.5
t-193.5 59.5q-100 0 -183 -51t-131 -140t-48 -202q0 -152 85 -248t228 -96q106 0 195.5 53t122.5 139h118q-37 -133 -162.5 -214t-283.5 -81q-125 0 -220 56.5t-147.5 157t-52.5 229.5q0 143 63.5 256.5t174 178.5t243.5 65q109 0 199 -42t148 -118l30 211l19 139
q16 113 88.5 176.5t179.5 63.5q90 0 140 -49.5t50 -135.5q0 -14 -4 -47l-22 -147l-29 -211q51 74 139 117t183 43q131 0 207.5 -73z" />
    <glyph glyph-name="c_k.dlig" horiz-adv-x="1988" 
d="M1628 561l230 -561h-129l-195 477l-231 -211l-39 -266h-117l135 969l18 137q2 12 3 35q0 100 -97 100q-59 0 -96 -36t-47 -99l-19 -137l-53 -375h-117q-27 102 -109.5 161.5t-193.5 59.5q-100 0 -183 -51t-131 -140t-48 -202q0 -152 85 -248t228 -96q106 0 195.5 53
t122.5 139h118q-37 -133 -162.5 -214t-283.5 -81q-125 0 -220 56.5t-147.5 157t-52.5 229.5q0 143 63.5 256.5t174 178.5t243.5 65q106 0 196.5 -42t148.5 -116l30 209l19 139q16 113 88.5 176.5t179.5 63.5q90 0 140 -49.5t50 -135.5q0 -14 -4 -47l-22 -147l-76 -555
l530 479h142z" />
    <glyph glyph-name="c_t.dlig" horiz-adv-x="1624" 
d="M1438 797l-11 -72l-12 -94l-90 -631h-117l88 631l23 166h-154l13 96h155l25 178q4 29 4 43q0 59 -31 92t-92 33q-158 0 -178 -170l-70 -475h-117q-27 102 -109.5 161.5t-193.5 59.5q-100 0 -183 -51t-131 -140t-48 -202q0 -152 85 -248t228 -96q106 0 195.5 53t122.5 139
h118q-37 -133 -162.5 -214t-283.5 -81q-125 0 -220 56.5t-147.5 157t-52.5 229.5q0 143 63.5 256.5t174 178.5t243.5 65q106 0 196.5 -42t148.5 -116l43 305q18 127 99 198.5t200 71.5q106 0 162.5 -54t56.5 -155q0 -18 -4 -59l-9 -57h2l-16 -117h176l-12 -96h-178z" />
    <glyph glyph-name="c_t_i.dlig" horiz-adv-x="2066" 
d="M2032.5 1325.5q23.5 -22.5 23.5 -55.5q0 -47 -32.5 -80t-79.5 -33q-37 0 -59.5 22.5t-22.5 57.5q0 47 32.5 79t77.5 32q37 0 60.5 -22.5zM1452 893h512l-125 -893h-117l113 797h-395l-113 -797h-117l113 797h-156l13 96h155l25 178q4 29 4 43q0 125 -125 125
q-78 0 -123 -45t-55 -125l-68 -475h-119q-27 102 -109.5 161.5t-193.5 59.5q-100 0 -183 -51t-131 -140t-48 -202q0 -152 85 -248t228 -96q106 0 195.5 53t122.5 139h118q-37 -133 -162.5 -214t-283.5 -81q-125 0 -220 56.5t-147.5 157t-52.5 229.5q0 143 63.5 256.5
t174 178.5t243.5 65q109 0 199 -42t148 -118l43 307q18 127 99 198.5t200 71.5q106 0 162.5 -54t56.5 -155q0 -18 -4 -59z" />
    <glyph glyph-name="c_t_t.dlig" horiz-adv-x="2107" 
d="M2101 797h-180l-111 -797h-118l112 797h-368l-111 -797h-119l113 797h-154l13 96h155l25 178q4 29 4 43q0 125 -125 125q-156 0 -178 -170l-68 -475h-117q-27 102 -109.5 161.5t-193.5 59.5q-100 0 -183 -51t-131 -140t-48 -202q0 -152 85 -248t228 -96q106 0 195.5 53
t122.5 139h118q-37 -133 -162.5 -214t-283.5 -81q-125 0 -220 56.5t-147.5 157t-52.5 229.5q0 143 63.5 256.5t174 178.5t243.5 65q106 0 196.5 -42t148.5 -116l43 305q18 127 99 198.5t200 71.5q106 0 162.5 -54t56.5 -159q0 -14 -4 -55l-25 -174h367l34 240h117l-33 -240
h179z" />
    <glyph glyph-name="w_w_w.dlig" horiz-adv-x="3770" 
d="M2603 893l129 -741l336 727h123l133 -727l346 741h121l-426 -893h-117l-135 739l-340 -739h-119l-172 893h121zM1413 893l129 -741l336 727h123l133 -727l346 741h121l-426 -893h-117l-135 739l-340 -739h-119l-172 893h121zM223 893l129 -741l336 727h123l133 -727
l346 741h121l-426 -893h-117l-135 739l-340 -739h-119l-172 893h121z" />
    <glyph glyph-name="c_h.dlig.salt" horiz-adv-x="1957" 
d="M1753 844q78 -74 78 -215q0 -35 -6 -78l-76 -551h-119l74 526q6 43 6 76q0 211 -199 211q-123 0 -212 -74.5t-105 -193.5l-76 -543h-117l136 967l20 137q2 10 2 31q0 53 -26.5 78.5t-71.5 25.5q-59 0 -95 -36t-46 -99l-21 -137l-14 -109l-4 -24l-2 -19l-11 -67
q-49 31 -119.5 47t-142.5 16q-119 0 -209 -50t-139 -140.5t-49 -204.5q0 -154 87 -246t236 -92q66 0 141 17.5t124 45.5l-17 -108q-51 -27 -125.5 -43.5t-144.5 -16.5q-190 0 -305 118t-115 315q0 143 64.5 259.5t181.5 183.5t270 67q100 0 187 -25l10 76l20 139
q14 113 87 176.5t180 63.5q88 0 138 -49.5t50 -135.5q0 -14 -4 -47l-19 -147l-30 -211q51 74 139 117t180 43q131 0 209 -74z" />
    <glyph glyph-name="c_k.dlig.salt" horiz-adv-x="1845" 
d="M1483 561l231 -561h-131l-192 477l-236 -211l-37 -266h-117l136 969l18 137q2 12 2 35q0 100 -94 100q-59 0 -96 -36t-47 -99l-21 -137l-14 -109l-2 -8l-4 -37l-11 -65q-49 31 -119.5 47t-142.5 16q-119 0 -209 -50t-139 -140.5t-49 -204.5q0 -154 87 -246t236 -92
q66 0 141 17.5t124 45.5l-17 -108q-51 -27 -125.5 -43.5t-144.5 -16.5q-190 0 -305 118t-115 315q0 143 64.5 259.5t181.5 183.5t270 67q100 0 187 -25l10 76l20 139q14 113 87 176.5t180 63.5q90 0 140 -49.5t50 -137.5q0 -12 -4 -45l-21 -147l-77 -555l530 479h141z" />
    <glyph glyph-name="c_t.dlig.salt" horiz-adv-x="1531" 
d="M1217 260q-4 -37 -5 -51q0 -63 33 -89t107 -26q25 0 43 3t20 3l-12 -100q-66 -8 -92 -8q-217 0 -217 188q0 12 6 74l76 543h-140l4 26l164 170l10 78q4 29 5 41q0 59 -32 93t-95 34q-78 0 -123 -45t-56 -125l-34 -254l-11 -65q-49 31 -119.5 47t-142.5 16
q-119 0 -209 -50t-139 -140.5t-49 -204.5q0 -154 87 -246t236 -92q66 0 141 17.5t124 45.5l-17 -108q-51 -27 -125.5 -43.5t-144.5 -16.5q-190 0 -305 118t-115 315q0 143 64.5 259.5t181.5 183.5t270 67q96 0 187 -25l24 172q18 129 98 199.5t197 70.5q109 0 166 -54
t57 -159q0 -14 -4 -55l-24 -174h219l-13 -96h-221l-22 -166z" />
    </font>
</defs>
</svg>
