<?xml version="1.0" standalone="no"?>
<!DOCTYPE svg PUBLIC "-//W3C//DTD SVG 1.1//EN" "http://www.w3.org/Graphics/SVG/1.1/DTD/svg11.dtd" >
<svg xmlns="http://www.w3.org/2000/svg" xmlns:xlink="http://www.w3.org/1999/xlink" version="1.1">
<metadata>
Created by FontForge 20170731 at Mon Mar 26 22:41:50 2018
 By Aleksey,,,
Copyright (c) 2017 by Deni Anggara. All rights reserved.
</metadata>
<defs>
<font id="Gelion-SemiBold" horiz-adv-x="0" >
  <font-face 
    font-family="Gelion Semi Bold"
    font-weight="600"
    font-stretch="normal"
    units-per-em="2048"
    panose-1="0 0 7 0 0 0 0 0 0 0"
    ascent="1638"
    descent="-410"
    x-height="918"
    cap-height="1313"
    bbox="-1153 -518 3920 1937"
    underline-thickness="0"
    underline-position="0"
    unicode-range="U+000D-FB02"
  />
<missing-glyph horiz-adv-x="950" 
d="M475 586l-379 549h758zM455 563l-383 -547v1094zM496 563l383 547v-1094zM475 541l379 -549h-758z" />
    <glyph glyph-name="uniFB01" unicode="fi" horiz-adv-x="1179" 
d="M1104 0h-252v709h-442v-709h-254l-2 709h-125v209h125v71q0 203 126 325t353 122q205 0 328.5 -106.5t140.5 -285.5h-254q-12 80 -68.5 123t-142.5 43q-104 0 -165.5 -59t-61.5 -162v-71h694v-918z" />
    <glyph glyph-name="uniFB02" unicode="fl" horiz-adv-x="1236" 
d="M992 1315q126 -121 126 -326v-989h-254l-2 989q0 102 -61.5 161.5t-163.5 59.5q-104 0 -165.5 -60t-61.5 -161v-71h338v-209h-338v-709h-254l-2 709h-125v209h125v71q0 205 128 326t355 121q229 0 355 -121z" />
    <glyph glyph-name="f_f.liga" unicode="ff" horiz-adv-x="1349" 
d="M1118.5 1154q-26.5 -48 -26.5 -122v-114h221v-209h-221v-709h-254v709h-387v-709h-254v709h-168v209h168v155q0 344 356 344q61 0 119 -12v-209q-18 6 -66 6q-102 0 -128.5 -48t-26.5 -122v-114h387v155q0 344 358 344q57 0 117 -12v-209q-18 6 -66 6q-102 0 -128.5 -48z
" />
    <glyph glyph-name="f_f_i.liga" unicode="ffi" horiz-adv-x="1802" 
d="M1061 918h665v-918h-256v709h-409v-709h-254v709h-399v-709h-252l-2 709h-125v209h125v98q0 123 56 218t157.5 148.5t234.5 53.5q109 0 194 -37t138 -105q119 141 340 142q193 0 314.5 -103.5t137.5 -288.5h-249q-12 78 -67.5 122t-137.5 44q-96 0 -153.5 -55t-57.5 -151
v-86zM807 1014q0 96 -53.5 146t-145.5 50q-94 0 -147 -51t-53 -139v-102h399v96z" />
    <glyph glyph-name="f_f_l.liga" unicode="ffl" horiz-adv-x="1888" 
d="M1641 1316q128 -120 128 -333v-983h-253v983q0 109 -59.5 168t-168.5 59q-104 0 -165.5 -60t-61.5 -161v-71h338v-209h-338v-709h-254v709h-399v-709h-252l-2 709h-125v209h125v98q0 123 55 218t155.5 148.5t227.5 53.5q109 0 197 -40t139 -110q61 74 156.5 112t211.5 38
q217 0 345 -120zM807 1014q0 96 -53.5 146t-145.5 50q-94 0 -147 -51t-53 -139v-102h399v96z" />
    <glyph glyph-name="f_f_t.liga" unicode="fft" horiz-adv-x="1978" 
d="M1948 709h-179v-709h-253v709h-152v209h152v65q0 109 -59.5 168t-168.5 59q-104 0 -165.5 -60t-61.5 -161v-71h217v-209h-217v-709h-254v709h-399v-709h-252l-2 709h-125v209h125v98q0 123 55 218t155.5 148.5t227.5 53.5q109 0 197 -40t139 -110q61 74 156.5 112
t211.5 38q217 0 345 -120t128 -333v-65h179v-209zM807 1014q0 96 -53.5 146t-145.5 50q-94 0 -147 -51t-53 -139v-102h399v96z" />
    <glyph glyph-name="f_t.liga" unicode="ft" horiz-adv-x="1314" 
d="M1284 709h-166v-709h-254l-2 709h-157v209h157v71q0 102 -61.5 161.5t-163.5 59.5q-104 0 -165.5 -60t-61.5 -161v-71h211v-209h-211v-709h-254l-2 709h-125v209h125v71q0 205 128 326t355 121q229 0 355 -121t126 -326v-71h166v-209z" />
    <glyph glyph-name="f_y.liga" unicode="fy" horiz-adv-x="1622" 
d="M1597 918l-423 -1074q-51 -129 -136 -209q-84 -80 -250 -79q-80 0 -174 22l2 207q86 -14 129 -14q96 0 137 35q40 36 68 108l19 51l-394 953h277l235 -642l242 642h268zM477 1154q-27 -48 -26 -122v-114h221v-209h-221v-709h-254v709h-168v209h168v155q0 344 356 344
q61 0 119 -12v-209q-18 6 -66 6q-102 0 -129 -48z" />
    <glyph glyph-name="i_j.liga" unicode="ij" horiz-adv-x="989" 
d="M124 1125.5q-50 48.5 -50 117.5q0 70 50 118t124 48q76 0 124 -47t48 -119q0 -70 -49 -118t-123 -48t-124 48.5zM617.5 1125.5q-50.5 48.5 -50.5 117.5q0 70 50.5 118t123.5 48q76 0 124 -47t48 -119q0 -70 -49 -118t-123 -48q-73 0 -123.5 48.5zM868 -428h-254v1137
h-239v-709h-254v918h747v-1346z" />
    <glyph glyph-name="i_t_i.liga" unicode="iti" horiz-adv-x="1652" 
d="M1283 1133.5q-50 48.5 -50 117.5q0 70 50 118t124 48q72 0 122 -48t50 -118t-50 -118t-122 -48q-74 0 -124 48.5zM124 1125.5q-50 48.5 -50 117.5q0 70 50 118t124 48q76 0 124 -47t48 -119q0 -70 -49 -118t-123 -48t-124 48.5zM954 918h580v-918h-256v709h-324v-709
h-254v709h-325v-709h-254v918h579v239h254v-239z" />
    <glyph glyph-name="i_t_y.liga" unicode="ity" horiz-adv-x="2078" 
d="M124 1125.5q-50 48.5 -50 117.5q0 70 50 118t124 48q76 0 124 -47t48 -119q0 -70 -49 -118t-123 -48t-124 48.5zM2056 918l-424 -1074q-53 -129 -136 -208.5t-249 -79.5q-78 0 -176 22l4 207q86 -14 127 -14q96 0 137 35.5t68 107.5l20 51l-307 744h-205v-709h-253v709
h-287v-709h-254v918h541v239h253v-239h394l235 -639l242 639h270z" />
    <glyph glyph-name="t_i.liga" unicode="ti" horiz-adv-x="1159" 
d="M788.5 1133.5q-49.5 48.5 -49.5 117.5q0 72 49.5 119t122.5 47q74 0 124 -48t50 -118t-50 -118t-124 -48q-73 0 -122.5 48.5zM461 918h577v-918h-254v709h-323v-709h-254v709h-174v209h174v239h254v-239z" />
    <glyph glyph-name="t_t.liga" unicode="tt" horiz-adv-x="1312" 
d="M1280 709h-172v-709h-254v709h-393v-709h-254v709h-174v209h174v239h254v-239h393v239h254v-239h172v-209z" />
    <glyph glyph-name="t_u.liga" unicode="tu" horiz-adv-x="1753" 
d="M1645 918v-918h-211l-19 109q-96 -135 -285 -136q-164 0 -253 98.5t-89 264.5v373h-329v-709h-254v709h-172v209h172v239h254v-239h583v-541q0 -98 45.5 -140t126.5 -42q80 0 127.5 53t47.5 141v529h256z" />
    <glyph glyph-name="t_y.liga" unicode="ty" horiz-adv-x="1624" 
d="M1599 918l-423 -1074q-51 -129 -135.5 -208.5t-249.5 -79.5q-80 0 -175 22l2 207q86 -14 130 -14q96 0 136 35.5t68 107.5l19 51l-307 744h-203v-709h-254v709h-174v209h174v239h254v-239h393l236 -642l241 642h268z" />
    <glyph glyph-name=".notdef" horiz-adv-x="950" 
d="M475 586l-379 549h758zM455 563l-383 -547v1094zM496 563l383 547v-1094zM475 541l379 -549h-758z" />
    <glyph glyph-name="glyph1" 
 />
    <glyph glyph-name="uni000D" unicode="&#xd;" horiz-adv-x="421" 
 />
    <glyph glyph-name="space" unicode=" " horiz-adv-x="487" 
 />
    <glyph glyph-name="exclam" unicode="!" horiz-adv-x="628" 
d="M229 483l-55 830h281l-54 -830h-172zM181.5 19.5q-54.5 50.5 -54.5 130.5q0 82 55.5 132t134.5 50q76 0 130.5 -50.5t54.5 -131.5q0 -80 -53.5 -130.5t-131.5 -50.5q-81 0 -135.5 50.5z" />
    <glyph glyph-name="quotedbl" unicode="&#x22;" horiz-adv-x="768" 
d="M102 1269q39 40 99 40q57 0 95 -40t38 -102q0 -27 -4 -39l-94 -446h-74l-92 442q-6 31 -7 43q0 62 39 102zM472 1269q38 40 97 40t97.5 -40t38.5 -102q0 -20 -7 -39l-94 -446h-74l-92 442q-4 20 -4 43q0 62 38 102z" />
    <glyph glyph-name="numbersign" unicode="#" horiz-adv-x="1351" 
d="M1040 741l-32 -170h209l-48 -245h-213l-65 -326h-254l65 326h-208l-66 -326h-250l66 326h-172l47 245h176l33 170h-193l47 246h197l65 326h252l-65 -326h209l65 326h252l-65 -326h188l-49 -246h-191zM788 741h-208l-35 -170h209z" />
    <glyph glyph-name="dollar" unicode="$" horiz-adv-x="1206" 
d="M958.5 155.5q-108.5 -96.5 -284.5 -112.5v-193h-142v193q-174 18 -280.5 119.5t-114.5 257.5h250q4 -80 61.5 -127t159.5 -47q96 0 148.5 40t52.5 107q0 68 -44 99.5t-140 60.5l-142 43q-135 41 -231 119t-96 233q0 152 101 253.5t275 117.5v194h142v-196
q162 -23 259 -122t99 -251h-248q-2 80 -55 126t-145 46q-86 0 -133.5 -40t-47.5 -107q0 -63 50.5 -98t140.5 -60l176 -51q154 -45 225.5 -136.5t71.5 -213.5q0 -158 -108.5 -254.5z" />
    <glyph glyph-name="percent" unicode="%" horiz-adv-x="1579" 
d="M126 1222.5q40 69.5 110.5 111.5t160.5 42q92 0 164 -42t111 -111.5t39 -149.5t-38 -148.5t-107.5 -109.5t-162.5 -41q-94 0 -165.5 41t-111.5 109.5t-40 148.5t40 149.5zM193 0l1032 1360h186l-1032 -1360h-186zM301 977q39 -39 98 -39q61 0 98.5 40t37.5 95t-37 96
t-99 41q-61 0 -100 -40t-39 -97q2 -57 41 -96zM907 417.5q39 69.5 109.5 111.5t163.5 42q92 0 163.5 -42t110.5 -111.5t39 -149.5t-38 -147.5t-108.5 -108.5t-162.5 -41t-164 40t-112 108.5t-40 148.5t39 149.5zM1081 174q39 -39 101 -39q61 0 98 39t37 94t-37 96.5
t-100 41.5q-61 0 -99.5 -40t-38.5 -96q0 -57 39 -96z" />
    <glyph glyph-name="ampersand" unicode="&#x26;" horiz-adv-x="1492" 
d="M1061 -2l-88 96q-74 -57 -175.5 -85.5t-215.5 -28.5q-195 0 -315 94t-120 254q0 88 37 155.5t77 104.5t93 76l56 41l-48 51q-47 49 -83.5 113.5t-36.5 154.5t48 161.5t134 112.5t199 41q168 0 272 -84t104 -223q0 -92 -48 -163.5t-130 -135.5l-63 -47l203 -221
q33 84 32 199l-2 53h373v-199h-154q-14 -152 -73 -244l254 -276h-330zM530.5 1107q-32.5 -34 -32.5 -83q0 -41 19.5 -71.5t38.5 -49t26 -24.5l30 -33l43 35q35 29 61.5 62.5t26.5 82.5t-31.5 82t-90.5 33q-58 0 -90.5 -34zM815 264l-262 285l-43 -35q-41 -31 -62.5 -67.5
t-21.5 -88.5q0 -72 52 -113.5t145 -41.5q118 0 192 61z" />
    <glyph glyph-name="quotesingle" unicode="'" horiz-adv-x="405" 
d="M105.5 1269q37.5 40 97.5 40q59 0 97 -40t38 -102q0 -20 -6 -39l-92 -446h-76l-90 442q-6 31 -6 43q0 62 37.5 102z" />
    <glyph glyph-name="parenleft" unicode="(" horiz-adv-x="598" 
d="M401 -365q-150 158 -236.5 390.5t-86.5 492.5q0 250 84 486.5t239 398.5h197q-119 -156 -190.5 -389.5t-71.5 -495.5q0 -242 67.5 -478.5t194.5 -404.5h-197z" />
    <glyph glyph-name="parenright" unicode=")" horiz-adv-x="593" 
d="M194.5 38.5q67.5 235.5 67.5 479.5q0 258 -70.5 493.5t-191.5 391.5h197q156 -162 239.5 -398.5t83.5 -486.5q0 -260 -87 -492.5t-236 -390.5h-197q127 168 194.5 403.5z" />
    <glyph glyph-name="asterisk" unicode="*" horiz-adv-x="772" 
d="M612 969l113 -64l-61 -108l-113 65q-68 39 -119 88q16 -82 17 -147v-131h-123v131q0 82 16 147q-49 -45 -121 -88l-110 -65l-62 108l111 64q70 39 137 59q-84 25 -137 59l-111 66l62 104l110 -65q70 -37 121 -86q-16 66 -16 147v129h123v-129q0 -70 -17 -147
q55 51 119 86l113 65l61 -104l-113 -66q-51 -33 -135 -59q67 -22 135 -59z" />
    <glyph glyph-name="plus" unicode="+" horiz-adv-x="1222" 
d="M1044 524h-325v-340h-213v340h-328v195h328v342h213v-342h325v-195z" />
    <glyph glyph-name="comma" unicode="," horiz-adv-x="491" 
d="M357.5 243.5q52.5 -53.5 52.5 -141.5q0 -143 -96.5 -240.5t-241.5 -107.5v76q92 12 141 61.5t49 114.5q-20 -10 -51 -10q-66 0 -107 39t-41 104q0 68 46.5 113t117.5 45q78 0 130.5 -53.5z" />
    <glyph glyph-name="hyphen" unicode="-" horiz-adv-x="1157" 
d="M1014 606v-227h-871v227h871z" />
    <glyph glyph-name="period" unicode="." horiz-adv-x="450" 
d="M107.5 20.5q-46.5 45.5 -46.5 110.5q0 66 46.5 113t117.5 47q70 0 116 -47t46 -113q0 -63 -45 -109.5t-117 -46.5q-71 0 -117.5 45.5z" />
    <glyph glyph-name="slash" unicode="/" horiz-adv-x="886" 
d="M573 1313h252l-512 -1313h-252z" />
    <glyph glyph-name="zero" unicode="0" horiz-adv-x="1181" 
d="M314.5 59q-115.5 82 -177 236t-61.5 360q0 209 61.5 362.5t177 236.5t275.5 83t275.5 -83t178 -236.5t62.5 -362.5q0 -207 -62.5 -360.5t-179 -235.5t-274.5 -82q-160 0 -275.5 82zM776.5 324.5q63.5 117.5 63.5 330.5q0 215 -63.5 332t-186.5 117t-186.5 -116
t-63.5 -333q0 -215 64.5 -331.5t185.5 -116.5q123 0 186.5 117.5z" />
    <glyph glyph-name="one" unicode="1" horiz-adv-x="804" 
d="M68 1087q170 0 255 56.5t109 169.5h232v-1313h-261v893h-335v194z" />
    <glyph glyph-name="two" unicode="2" horiz-adv-x="1060" 
d="M514 233h459v-233h-844v184l467 500q57 59 90 114.5t33 125.5q0 82 -51.5 131t-135.5 49q-90 0 -143 -53.5t-53 -135.5l2 -24h-254q-8 131 49 232.5t166 157.5t248 56q127 0 225 -49t152.5 -138t54.5 -206q0 -125 -50 -214t-134 -185z" />
    <glyph glyph-name="three" unicode="3" horiz-adv-x="1118" 
d="M942 684.5q96 -106.5 96 -268.5q0 -127 -61.5 -226.5t-172 -154.5t-251.5 -55q-139 0 -247.5 55t-168 155.5t-57.5 233.5h256q0 -94 62.5 -154.5t158.5 -60.5q98 0 159.5 57.5t61.5 155.5q0 90 -56 144.5t-153 60.5q-29 2 -139 2h-76v174l293 287h-493v223h817v-215
l-287 -287q162 -20 258 -126.5z" />
    <glyph glyph-name="four" unicode="4" horiz-adv-x="1134" 
d="M1077 481v-215h-166v-266h-252v266h-602v195l537 852h317v-832h166zM659 481v520l-325 -520h325z" />
    <glyph glyph-name="five" unicode="5" horiz-adv-x="1157" 
d="M850 815q102 -57 159.5 -157.5t57.5 -225.5q0 -133 -65.5 -235.5t-179 -158.5t-253.5 -56q-139 0 -248.5 55t-171 156.5t-61.5 232.5h256q0 -94 63.5 -154.5t161.5 -60.5q100 0 168 61.5t68 161.5q0 98 -65.5 160.5t-170.5 62.5q-63 0 -120.5 -25.5t-88.5 -68.5l-247 29
l170 721h702v-223h-506l-67 -263q84 45 204 45q132 0 234 -57z" />
    <glyph glyph-name="six" unicode="6" horiz-adv-x="1167" 
d="M860.5 824.5q106.5 -54.5 168 -154t61.5 -230.5q0 -133 -66 -237.5t-181.5 -163.5t-264.5 -59q-150 0 -261.5 59t-172 162.5t-60.5 230.5q0 125 49 228.5t135 226.5l297 426h281l-311 -441q47 6 88 7q131 0 237.5 -54.5zM756.5 271.5q70.5 62.5 70.5 164.5t-68.5 161.5
t-168.5 59.5q-102 0 -173 -60t-71 -163q0 -102 68.5 -163.5t169.5 -61.5q102 0 172.5 62.5z" />
    <glyph glyph-name="seven" unicode="7" horiz-adv-x="952" 
d="M915 1313v-203l-509 -1110h-277l500 1090h-592v223h878z" />
    <glyph glyph-name="eight" unicode="8" horiz-adv-x="1122" 
d="M991 575.5q53 -83.5 53 -192.5q0 -123 -62 -214t-173 -139t-248 -48q-139 0 -248.5 49t-173 139t-63.5 213q0 111 53 193.5t143 123.5q-70 43 -111.5 118t-41.5 161q0 102 56 184t157.5 128t230.5 46t228.5 -46t156 -128t56.5 -186q0 -90 -44.5 -164t-113.5 -113
q92 -41 145 -124.5zM427 1069q-52 -43 -52 -113q0 -72 54 -115.5t134 -43.5q78 0 131.5 44t53.5 113q0 70 -51.5 114t-135.5 44q-82 0 -134 -43zM719.5 260q62.5 51 62.5 135t-61.5 133.5t-157.5 49.5q-100 0 -162.5 -49.5t-62.5 -133.5t62.5 -135t158.5 -51q98 0 160.5 51z
" />
    <glyph glyph-name="nine" unicode="9" horiz-adv-x="1175" 
d="M858 1277q113 -60 173.5 -163.5t60.5 -230.5q0 -88 -28 -169t-62.5 -138.5t-96.5 -145.5l-295 -430h-282l311 440q-39 -8 -86 -8q-131 0 -237.5 55.5t-168 155.5t-61.5 227q0 135 65.5 242t181.5 166t261 59q151 0 264 -60zM414.5 715.5q68.5 -60.5 171.5 -60.5
q102 0 171.5 60.5t69.5 163.5q0 102 -69.5 162.5t-169.5 60.5q-102 0 -172 -61.5t-70 -161.5q0 -103 68.5 -163.5z" />
    <glyph glyph-name="colon" unicode=":" horiz-adv-x="626" 
d="M203 662.5q-47 46.5 -47 109.5t47 109.5t110 46.5q66 0 113 -46t47 -110q0 -63 -47 -109.5t-113 -46.5q-63 0 -110 46.5zM202 35q-46 45 -46 110q0 63 46 110.5t111 47.5q63 0 111.5 -48t48.5 -110q0 -63 -47 -109t-113 -46q-65 0 -111 45z" />
    <glyph glyph-name="semicolon" unicode=";" horiz-adv-x="593" 
d="M190.5 661.5q-47.5 45.5 -47.5 110.5q0 63 47.5 109.5t112.5 46.5q66 0 113 -46t47 -110q0 -66 -47 -111t-113 -45q-65 0 -112.5 45.5zM425 243.5q50 -53.5 50 -141.5q0 -143 -95 -240.5t-241 -107.5v76q92 12 141.5 61.5t49.5 114.5q-20 -10 -51 -10q-66 0 -107 39
t-41 104q0 70 46 114t120 44q78 0 128 -53.5z" />
    <glyph glyph-name="less" unicode="&#x3c;" horiz-adv-x="800" 
d="M66 598l659 330v-281l-383 -184l383 -184v-279l-659 330v268z" />
    <glyph glyph-name="equal" unicode="=" horiz-adv-x="1120" 
d="M913 938v-213h-706v213h706zM913 494v-215h-706v215h706z" />
    <glyph glyph-name="greater" unicode="&#x3e;" horiz-adv-x="813" 
d="M76 279l383 184l-383 184v281l659 -330v-268l-659 -330v279z" />
    <glyph glyph-name="question" unicode="?" horiz-adv-x="1007" 
d="M728 1294q95 -43 148.5 -119.5t53.5 -179.5q0 -106 -52.5 -179t-150.5 -159q-74 -66 -108.5 -108.5t-38.5 -93.5v-25h-236v25q0 98 49 167.5t144 151.5q74 63 108.5 107.5t34.5 99.5q0 66 -48 106.5t-126 40.5q-88 0 -141.5 -53t-49.5 -133h-237q-4 109 48 199t152.5 143
t233.5 53q121 0 216 -43zM589 262q50 -45 50 -121t-49 -120t-125 -44q-74 0 -124 44.5t-50 119.5q0 76 50 121t124 45t124 -45z" />
    <glyph glyph-name="at" unicode="@" horiz-adv-x="1961" 
d="M1423.5 1231.5q196.5 -105.5 310 -292.5t113.5 -423q0 -145 -49 -257t-140 -174t-210 -62q-129 0 -200.5 66.5t-86.5 158.5q-39 -55 -104.5 -87t-145.5 -32q-154 0 -250 101.5t-96 265.5t100.5 267t260.5 103q80 0 145.5 -30.5t102.5 -85.5l10 96h155v-522q0 -61 34 -96
t85 -35q92 0 141.5 83.5t49.5 229.5q0 190 -84 338.5t-234.5 230.5t-345.5 82t-348.5 -85t-238.5 -237.5t-85 -347.5q0 -199 86 -351t237.5 -237t346.5 -85q209 0 375 102l86 -164q-207 -119 -461 -119q-246 0 -443.5 107.5t-311 301.5t-113.5 445q0 250 114.5 443.5
t312 300t443.5 106.5q242 0 438.5 -105.5zM1096.5 340q56.5 59 56.5 158q0 96 -56.5 155.5t-144.5 59.5q-94 0 -150.5 -60.5t-56.5 -154.5q0 -96 57.5 -156.5t149.5 -60.5q88 0 144.5 59z" />
    <glyph glyph-name="A" unicode="A" horiz-adv-x="1275" 
d="M506 1313h264l487 -1313h-280l-103 287h-477l-104 -287h-275zM797 508l-68 192q-31 84 -55.5 160t-32.5 103q-8 -27 -38 -113t-56 -152l-72 -190h322z" />
    <glyph glyph-name="B" unicode="B" horiz-adv-x="1216" 
d="M1085.5 539.5q61.5 -78.5 61.5 -195.5q0 -164 -123 -254t-334 -90h-545v1313h545q207 0 325 -98.5t118 -260.5q0 -115 -56.5 -190.5t-156.5 -110.5q104 -35 165.5 -113.5zM406 1087v-335h272q92 0 141 49t49 117q0 66 -49 117.5t-141 51.5h-272zM834.5 269
q52.5 44 52.5 118q0 76 -54.5 123t-136.5 47h-290v-332h290q86 0 138.5 44z" />
    <glyph glyph-name="C" unicode="C" horiz-adv-x="1470" 
d="M399.5 58q-155.5 85 -242.5 240t-87 359q0 203 85 357.5t240.5 239.5t358.5 85q166 0 305 -57t229 -165.5t113 -254.5h-297q-27 102 -123 167t-231 65q-184 0 -292 -120t-108 -319q0 -201 109.5 -317.5t290.5 -116.5q131 0 228 63.5t126 168.5h297q-20 -141 -108.5 -250
t-228.5 -169.5t-310 -60.5q-199 0 -354.5 85z" />
    <glyph glyph-name="D" unicode="D" horiz-adv-x="1384" 
d="M994.5 1229q150.5 -84 235.5 -234.5t85 -341.5q0 -190 -84 -338.5t-234.5 -231.5t-343.5 -83h-508v1313h508q191 0 341.5 -84zM924.5 354.5q109.5 112.5 109.5 298.5q0 188 -110.5 303t-294.5 115h-217v-829h217q186 0 295.5 112.5z" />
    <glyph glyph-name="E" unicode="E" horiz-adv-x="1101" 
d="M410 1071v-293h524v-231h-524v-305h587v-242h-852v1313h852v-242h-587z" />
    <glyph glyph-name="F" unicode="F" horiz-adv-x="1058" 
d="M412 1071v-313h493l-2 -232h-491v-526h-267v1313h854v-242h-587z" />
    <glyph glyph-name="G" unicode="G" horiz-adv-x="1472" 
d="M1405 719v-131q0 -182 -85 -321.5t-235.5 -216.5t-343.5 -77q-201 0 -353 84t-235 236.5t-83 353.5q0 205 86 361.5t241.5 243.5t356.5 87q162 0 295 -57t219 -160.5t110 -238.5h-282q-35 100 -129.5 155.5t-218.5 55.5q-186 0 -294 -121t-108 -322t107.5 -315.5
t294.5 -114.5q147 0 247.5 70.5t122.5 200.5h-387v227h674z" />
    <glyph glyph-name="H" unicode="H" horiz-adv-x="1357" 
d="M145 1313h267v-535h549v535h268v-1313h-268v547h-549v-547h-267v1313z" />
    <glyph glyph-name="I" unicode="I" horiz-adv-x="540" 
d="M145 0v1313h267v-1313h-267z" />
    <glyph glyph-name="J" unicode="J" horiz-adv-x="1056" 
d="M922 383q0 -188 -122 -299t-323 -111q-197 2 -314.5 114t-117.5 296v72h256v-62q0 -86 48 -133t128 -47q86 0 132 48t46 132v678h-395v242h662v-930z" />
    <glyph glyph-name="K" unicode="K" horiz-adv-x="1275" 
d="M801 748l452 -748h-321l-314 520l-206 -258v-266h-267v1317h267v-639l510 639h331z" />
    <glyph glyph-name="L" unicode="L" horiz-adv-x="999" 
d="M952 240v-240h-807v1313h269v-1073h538z" />
    <glyph glyph-name="M" unicode="M" horiz-adv-x="1593" 
d="M1450 1313v-1313h-260v236q0 246 20 487l-307 -686h-237l-291 682q25 -270 24 -483v-236h-254v1313h236l412 -979l419 979h238z" />
    <glyph glyph-name="N" unicode="N" horiz-adv-x="1374" 
d="M1231 1313v-1313h-248l-573 852v-852h-265v1313h248l576 -858v858h262z" />
    <glyph glyph-name="O" unicode="O" horiz-adv-x="1538" 
d="M1378 301q-90 -156 -249.5 -242t-360.5 -86t-359.5 86t-248.5 241t-90 355q0 199 90 354.5t248.5 242.5t359.5 87t360.5 -86t249.5 -241.5t90 -354.5q0 -200 -90 -356zM1132.5 883.5q-53.5 99.5 -148.5 154t-214 54.5q-121 0 -216 -55.5t-149.5 -154t-54.5 -227.5
t53.5 -227t148.5 -152.5t216 -54.5t215 55.5t148.5 154.5t54.5 226t-53.5 226.5z" />
    <glyph glyph-name="P" unicode="P" horiz-adv-x="1193" 
d="M1022 1196q121 -117 121 -317q0 -129 -54.5 -227.5t-158 -154t-244.5 -55.5h-274v-442h-267v1313h545q211 0 332 -117zM807 733.5q57 61.5 57 151.5q0 78 -56 136t-167 58h-229v-407h225q113 0 170 61.5z" />
    <glyph glyph-name="Q" unicode="Q" horiz-adv-x="1538" 
d="M1395.5 333.5q-72.5 -143.5 -203.5 -235.5t-301 -116v-68q0 -70 28.5 -106.5t116.5 -36.5q45 0 78 6v-209q-82 -16 -143 -17q-332 0 -332 320v113q-168 25 -297 115.5t-200.5 234t-71.5 321.5q0 199 90 354.5t248.5 242.5t359.5 87t360.5 -86t249.5 -241.5t90 -354.5
q0 -180 -72.5 -323.5zM403.5 428q53.5 -98 148.5 -152.5t216 -54.5t215 55.5t148.5 154.5t54.5 226t-53.5 226.5t-148.5 154t-214 54.5q-121 0 -216 -55.5t-149.5 -154t-54.5 -227.5t53.5 -227z" />
    <glyph glyph-name="R" unicode="R" horiz-adv-x="1253" 
d="M145 1313h523q250 0 376.5 -107.5t126.5 -310.5q0 -135 -60 -231.5t-173 -143.5l244 -520h-299l-211 475h-260v-475h-267v1313zM668 707q113 0 168 52t55 134q0 84 -55.5 136t-167.5 52h-256v-374h256z" />
    <glyph glyph-name="S" unicode="S" horiz-adv-x="1167" 
d="M161.5 1147q59.5 92 169 142t253.5 50q141 0 248.5 -49t169 -138t61.5 -208h-275q-2 78 -62 124t-157 46q-88 0 -140 -41t-52 -108q0 -68 45 -99.5t127 -50.5l211 -51q160 -35 249 -132t89 -243q0 -127 -62.5 -221t-177.5 -144.5t-266 -50.5q-227 0 -368.5 110
t-153.5 300h274q4 -86 71.5 -135t178.5 -49q104 0 163.5 43t59.5 118q0 63 -40 96t-109 52l-217 53q-172 39 -260.5 134.5t-88.5 236.5q0 123 59.5 215z" />
    <glyph glyph-name="T" unicode="T" horiz-adv-x="1124" 
d="M1092 1071h-396v-1071h-266v1071h-397v242h1059v-242z" />
    <glyph glyph-name="U" unicode="U" horiz-adv-x="1384" 
d="M135 1313h266v-821q0 -141 81 -209t210 -68q137 0 215 70.5t78 206.5v821h266v-832q0 -162 -71.5 -276.5t-197.5 -173t-290 -58.5q-254 0 -405.5 134.5t-151.5 373.5v832z" />
    <glyph glyph-name="V" unicode="V" horiz-adv-x="1341" 
d="M309 1313l178 -455q18 -49 90 -255t97 -277q25 72 97.5 277.5t90.5 254.5l176 455h285l-512 -1313h-272l-521 1313h291z" />
    <glyph glyph-name="W" unicode="W" horiz-adv-x="1931" 
d="M309 1313l142 -467q51 -170 79.5 -285t34.5 -143q39 121 125 420q119 393 133 440h289l166 -551l92 -309q0 8 31 134t84 294l141 467h285l-414 -1313h-258l-80 256q-57 182 -114.5 375.5t-77.5 269.5q-20 -72 -85 -293t-106 -352l-80 -256h-258l-413 1313h284z" />
    <glyph glyph-name="X" unicode="X" horiz-adv-x="1337" 
d="M375 1313l139 -199q33 -47 88 -140t74 -124l293 463h336l-465 -658l465 -657h-342l-119 172q-51 78 -102.5 164t-65.5 112l-311 -446h-332l471 655l-473 658h344z" />
    <glyph glyph-name="Y" unicode="Y" horiz-adv-x="1245" 
d="M328 1313l143 -250q63 -113 104 -187.5t52 -97.5q10 23 54 105t101 180l144 250h299l-467 -793v-520h-269v520l-471 793h310z" />
    <glyph glyph-name="Z" unicode="Z" horiz-adv-x="1124" 
d="M1049 1108l-627 -866h622v-242h-968v215l626 856h-614v242h961v-205z" />
    <glyph glyph-name="bracketleft" unicode="[" horiz-adv-x="579" 
d="M569 -188h-436v1716h436v-195h-221v-1327h221v-194z" />
    <glyph glyph-name="backslash" unicode="\" horiz-adv-x="782" 
d="M530 0l-530 1313h254l528 -1313h-252z" />
    <glyph glyph-name="bracketright" unicode="]" horiz-adv-x="577" 
d="M231 6v1327h-221v195h434v-1716h-434v194h221z" />
    <glyph glyph-name="asciicircum" unicode="^" horiz-adv-x="962" 
d="M596 887l-115 217l-112 -217h-217l221 426h217l221 -426h-215z" />
    <glyph glyph-name="underscore" unicode="_" horiz-adv-x="790" 
d="M795 -31v-182h-799v182h799z" />
    <glyph glyph-name="grave" unicode="`" horiz-adv-x="679" 
d="M109 1690l127 127l311 -334l-76 -78z" />
    <glyph glyph-name="a" unicode="a" horiz-adv-x="1185" 
d="M1069 918v-918h-244v117q-47 -66 -133 -105t-188 -39q-127 0 -225.5 59.5t-153.5 168t-55 252.5q0 147 57 259.5t161.5 174t237.5 61.5q102 0 182 -34.5t130 -100.5l20 105h211zM745.5 275.5q67.5 70.5 67.5 187.5t-66.5 187.5t-175.5 70.5q-111 0 -176 -71.5t-65 -186.5
t66.5 -186.5t172.5 -71.5q109 0 176.5 70.5z" />
    <glyph glyph-name="b" unicode="b" horiz-adv-x="1189" 
d="M902.5 887.5q103.5 -60.5 160.5 -172t57 -254.5t-57 -255t-159.5 -172.5t-233.5 -60.5q-104 0 -190.5 40t-133.5 110l-16 -123h-211v1405h254v-571q47 55 123.5 84.5t171.5 29.5q131 0 234.5 -60.5zM793.5 276.5q66.5 71.5 66.5 186.5t-66.5 186.5t-175.5 71.5
t-175 -70.5t-66 -187.5t67.5 -187.5t176.5 -70.5q106 0 172.5 71.5z" />
    <glyph glyph-name="c" unicode="c" horiz-adv-x="1095" 
d="M131.5 716.5q61.5 110.5 173 171t256.5 60.5q195 0 322 -102.5t143 -274.5h-260q-18 74 -73.5 113t-135.5 39q-102 0 -164.5 -71.5t-62.5 -192.5q0 -119 61.5 -190.5t165.5 -71.5q82 0 138.5 42t70.5 109h260q-18 -168 -146 -271.5t-319 -103.5q-145 0 -256.5 60.5
t-173 171t-61.5 256.5q0 145 61.5 255.5z" />
    <glyph glyph-name="d" unicode="d" horiz-adv-x="1179" 
d="M1069 1405v-1405h-211l-16 123q-47 -68 -133 -109t-189 -41q-131 0 -233.5 60.5t-159.5 172t-57 255.5q0 143 57 254.5t159.5 172t233.5 60.5q96 0 173 -29.5t124 -84.5v571h252zM745.5 275.5q67.5 70.5 67.5 187.5t-66.5 187.5t-175.5 70.5q-111 0 -176 -71.5
t-65 -186.5t66.5 -186.5t172.5 -71.5q109 0 176.5 70.5z" />
    <glyph glyph-name="e" unicode="e" horiz-adv-x="1062" 
d="M850 60q-125 -87 -297 -87q-143 0 -253 61.5t-170 173t-60 255.5q0 145 60 255.5t169 170t248 59.5q135 0 238.5 -56t161 -156.5t57.5 -227.5q0 -51 -11 -119h-671q4 -94 67.5 -151.5t163.5 -57.5q74 0 128 30t77 81h248q-31 -144 -156 -231zM743 559q-2 84 -59 132
t-145 48q-92 0 -151.5 -49t-63.5 -131h419z" />
    <glyph glyph-name="f" unicode="f" horiz-adv-x="708" 
d="M477.5 1154q-26.5 -48 -26.5 -122v-114h221v-209h-221v-709h-254v709h-168v209h168v155q0 344 356 344q61 0 119 -12v-209q-18 6 -66 6q-102 0 -128.5 -48z" />
    <glyph glyph-name="g" unicode="g" horiz-adv-x="1169" 
d="M1061 918v-918q0 -137 -60.5 -240.5t-173 -160t-266.5 -56.5q-201 0 -333 105.5t-150 283.5h252q14 -82 77.5 -123.5t155.5 -41.5q115 0 178.5 60t63.5 163v153q-43 -59 -121 -94t-176 -35q-127 0 -226.5 58.5t-155.5 163t-56 239.5q0 137 57 245.5t157.5 168t227.5 59.5
q100 0 179 -38t120 -101l14 109h236zM730.5 305.5q66.5 69.5 66.5 175.5q0 109 -66.5 177.5t-171.5 68.5q-102 0 -165.5 -69.5t-63.5 -176.5q0 -109 65.5 -177t165.5 -68q103 0 169.5 69.5z" />
    <glyph glyph-name="h" unicode="h" horiz-adv-x="1101" 
d="M119 1405h256v-586q41 61 115.5 95t160.5 34q162 0 251 -101.5t89 -277.5v-569h-254v510q0 121 -53 165t-115 44q-72 0 -134 -43t-62 -156v-520h-254v1405z" />
    <glyph glyph-name="i" unicode="i" horiz-adv-x="493" 
d="M124 1125.5q-50 48.5 -50 117.5q0 70 50 118t124 48q76 0 124 -47t48 -119q0 -70 -49 -118t-123 -48t-124 48.5zM121 918h254v-918h-254v918z" />
    <glyph glyph-name="j" unicode="j" horiz-adv-x="493" 
d="M124 1125.5q-50 48.5 -50 117.5q0 70 50 118t124 48q76 0 124 -47t48 -119q0 -70 -49 -118t-123 -48t-124 48.5zM121 918h254v-1346h-254v1346z" />
    <glyph glyph-name="k" unicode="k" horiz-adv-x="1052" 
d="M698 578l312 -578h-289l-203 389l-143 -147v-242h-256v1405h256v-850l338 363h313z" />
    <glyph glyph-name="l" unicode="l" horiz-adv-x="493" 
d="M119 1405h256v-1405h-256v1405z" />
    <glyph glyph-name="m" unicode="m" horiz-adv-x="1662" 
d="M1459 855q93 -93 93 -251v-604h-254v543q0 90 -43 138t-114 48q-84 0 -131 -55.5t-47 -143.5v-530h-250v543q0 86 -45 135t-121 49q-78 0 -125 -56.5t-47 -140.5v-530h-256v918h233l13 -93q41 57 112.5 90t149.5 33q100 0 178 -45t115 -123q41 80 118.5 124t180.5 44
q147 0 240 -93z" />
    <glyph glyph-name="n" unicode="n" horiz-adv-x="1093" 
d="M893 845.5q92 -102.5 92 -276.5v-569h-256v510q0 209 -168 209q-92 0 -140 -54.5t-48 -144.5v-520h-254v918h213l16 -107q43 63 121 100t170 37q162 0 254 -102.5z" />
    <glyph glyph-name="o" unicode="o" horiz-adv-x="1153" 
d="M133.5 712.5q63.5 110.5 179 173t262.5 62.5t263 -62.5t179.5 -173t63.5 -251.5t-63.5 -252t-179 -173.5t-263.5 -62.5q-147 0 -261.5 62.5t-179 173t-64.5 252.5q0 141 63.5 251.5zM398.5 273.5q68.5 -74.5 176.5 -74.5q109 0 177.5 74.5t68.5 187.5q0 115 -67.5 187.5
t-178.5 72.5q-109 0 -177 -73t-68 -187q0 -113 68.5 -187.5z" />
    <glyph glyph-name="p" unicode="p" horiz-adv-x="1189" 
d="M903.5 887.5q102.5 -60.5 159.5 -172t57 -254.5t-57 -254t-160.5 -172.5t-234.5 -61.5q-94 0 -170 30t-125 85v-516h-254v1346h211l16 -119q47 70 133 109.5t191 39.5q131 0 233.5 -60.5zM793.5 274.5q66.5 71.5 66.5 186.5t-66.5 186.5t-172.5 71.5q-109 0 -176.5 -70.5
t-67.5 -189.5q0 -117 66.5 -186.5t174.5 -69.5q109 0 175.5 71.5z" />
    <glyph glyph-name="q" unicode="q" horiz-adv-x="1179" 
d="M1069 918v-1346h-252v520q-51 -57 -131 -88t-172 -31q-131 2 -231.5 63.5t-156.5 172t-56 254.5q0 143 57 253.5t159.5 171t233.5 60.5q104 0 190.5 -39t131.5 -108l16 117h211zM745.5 272.5q67.5 69.5 67.5 186.5t-67.5 188.5t-176.5 71.5q-106 0 -172.5 -72t-66.5 -186
q0 -117 65.5 -187.5t175.5 -70.5q107 0 174.5 69.5z" />
    <glyph glyph-name="r" unicode="r" horiz-adv-x="708" 
d="M678 918v-220q-16 2 -49 2q-123 0 -188.5 -66.5t-65.5 -187.5v-446h-256v918h231l21 -132q20 70 80.5 106t142.5 36q53 0 84 -10z" />
    <glyph glyph-name="s" unicode="s" horiz-adv-x="931" 
d="M188.5 55q-108.5 82 -118.5 219h252q2 -53 43 -82.5t104 -29.5q59 0 94 23.5t35 66.5t-26.5 61.5t-71.5 28.5l-152 35q-131 31 -193.5 100.5t-62.5 169.5q0 135 103.5 218t271.5 83q164 0 267.5 -82t107.5 -215h-250q-2 49 -37 78t-94 29q-51 0 -82 -22.5t-31 -63.5
q0 -39 24.5 -55.5t76.5 -28.5l176 -41q121 -29 178 -99.5t57 -168.5q0 -139 -106.5 -222.5t-282.5 -83.5q-174 0 -282.5 82z" />
    <glyph glyph-name="t" unicode="t" horiz-adv-x="665" 
d="M633 709h-174v-709h-254v709h-172v209h172v239h254v-239h174v-209z" />
    <glyph glyph-name="u" unicode="u" horiz-adv-x="1075" 
d="M965 918v-918h-211l-17 109q-49 -68 -121.5 -102t-164.5 -34q-164 0 -253 98.5t-89 264.5v582h256v-541q0 -98 44 -140t126 -42t129 53t47 141v529h254z" />
    <glyph glyph-name="v" unicode="v" horiz-adv-x="1042" 
d="M297 918l98 -277q33 -94 72 -213t49 -156q12 39 56 161t77 208l107 277h264l-383 -918h-252l-362 918h274z" />
    <glyph glyph-name="w" unicode="w" horiz-adv-x="1542" 
d="M307 918l70 -234q70 -240 92 -346q51 174 99 333.5t71 229.5h268q23 -72 73 -251t87 -328q33 133 96 348l76 248h270l-323 -918h-248q-63 207 -109.5 374t-56.5 212q-61 -236 -172 -586h-260l-307 918h274z" />
    <glyph glyph-name="x" unicode="x" horiz-adv-x="989" 
d="M315 0h-280l301 449l-311 469h292l187 -295l176 295h285l-310 -465l301 -453h-292q-113 178 -148 236q-31 51 -29 47z" />
    <glyph glyph-name="y" unicode="y" horiz-adv-x="1069" 
d="M1044 918l-423 -1074q-51 -129 -135.5 -208.5t-249.5 -79.5q-80 0 -175 22l2 207q86 -14 130 -14q96 0 136 35.5t68 107.5l19 51l-393 953h276l236 -642l241 642h268z" />
    <glyph glyph-name="z" unicode="z" horiz-adv-x="921" 
d="M84 223l434 471h-434v224h754v-226l-447 -465h447v-227h-754v223z" />
    <glyph glyph-name="braceleft" unicode="{" horiz-adv-x="663" 
d="M458.5 771.5q-30.5 -66.5 -102.5 -107.5q74 -41 103.5 -110t29.5 -171v-258q0 -106 41 -151.5t117 -47.5v-176q-190 -2 -280.5 93.5t-90.5 267.5v229q0 127 -40.5 181t-131.5 57v170q90 2 131 56t41 181v229q0 188 97.5 275.5t273.5 83.5v-176q-88 -2 -123 -52.5
t-35 -144.5v-258q0 -104 -30.5 -170.5z" />
    <glyph glyph-name="bar" unicode="|" horiz-adv-x="712" 
d="M455 1413v-1575h-197v1575h197z" />
    <glyph glyph-name="braceright" unicode="}" horiz-adv-x="669" 
d="M428 804q41 -54 131 -56v-170q-90 -2 -131 -56.5t-41 -181.5v-229q0 -172 -90 -267.5t-279 -93.5v176q78 4 117 50.5t39 148.5v258q0 102 31 171t104 110q-74 41 -104.5 107.5t-30.5 170.5v258q0 98 -37 146.5t-119 50.5v176q174 4 271.5 -83t97.5 -276v-229
q0 -127 41 -181z" />
    <glyph glyph-name="asciitilde" unicode="~" horiz-adv-x="870" 
d="M813 686q10 -139 -55.5 -216t-167.5 -77q-57 0 -102.5 22.5t-96.5 61.5q-41 31 -67.5 44.5t-53.5 13.5q-31 0 -51 -21.5t-20 -64.5q0 -16 2 -27h-142q-2 12 -2 37q0 117 63.5 184.5t160.5 67.5q55 0 97 -21.5t99 -62.5q41 -31 68.5 -46.5t56.5 -15.5q72 0 72 94l-2 27
h141z" />
    <glyph glyph-name="uni00A0" unicode="&#xa0;" horiz-adv-x="487" 
 />
    <glyph glyph-name="exclamdown" unicode="&#xa1;" horiz-adv-x="628" 
d="M448.5 1291q53.5 -50 53.5 -130q0 -82 -53.5 -131t-131.5 -49q-82 0 -136 49t-54 131q0 80 54.5 130t135.5 50q78 0 131.5 -50zM455 -2h-281l45 829h193z" />
    <glyph glyph-name="cent" unicode="&#xa2;" horiz-adv-x="1257" 
d="M777.5 462q56.5 42 70.5 109h260q-16 -154 -126 -254t-275 -116v-201h-156v203q-182 29 -290.5 157.5t-108.5 323.5t108.5 324t290.5 157v195h156v-193q170 -16 278.5 -115.5t122.5 -256.5h-260q-18 74 -73.5 112.5t-135.5 38.5q-102 0 -164.5 -71.5t-62.5 -192.5
q0 -119 61.5 -190.5t165.5 -71.5q82 0 138.5 42z" />
    <glyph glyph-name="sterling" unicode="&#xa3;" horiz-adv-x="1327" 
d="M1198 432v-432h-1053v221q92 6 146.5 73.5t54.5 168.5q0 29 -8 78h-188v188h118q-31 92 -30 168q0 129 60 229.5t170 155.5t253 55q137 0 241.5 -52t164 -146.5t59.5 -216.5h-248q-2 88 -62.5 140t-160.5 52q-102 0 -165 -60.5t-63 -162.5q0 -72 41 -162h371v-188h-309
q2 -16 2 -49q0 -84 -36 -156t-103 -115l524 -2v213h221z" />
    <glyph glyph-name="currency" unicode="&#xa4;" horiz-adv-x="1368" 
d="M1106 410l151 -131l-163 -166l-136 149q-127 -82 -274 -82t-274 82l-136 -149l-163 166l153 135q-78 121 -78 264q0 147 78 270l-153 133l163 166l136 -149q127 82 274 82t274 -82l136 149l163 -166l-153 -131q82 -127 82 -272q0 -147 -80 -268zM817.5 448.5
q61.5 36.5 97 98t35.5 131.5q0 72 -35.5 134t-97 98t-133.5 36t-133.5 -36t-98 -98t-36.5 -134q0 -70 36.5 -131.5t99 -98t132.5 -36.5q72 0 133.5 36.5z" />
    <glyph glyph-name="yen" unicode="&#xa5;" horiz-adv-x="1501" 
d="M985 741h207v-188h-315v-127h315v-186h-315v-240h-254v240h-318v186h318v127h-318v188h213l-377 572h301l310 -535l305 535h303z" />
    <glyph glyph-name="brokenbar" unicode="&#xa6;" horiz-adv-x="733" 
d="M475 1415v-596h-217v596h217zM475 492v-617h-217v617h217z" />
    <glyph glyph-name="section" unicode="&#xa7;" horiz-adv-x="1060" 
d="M245.5 -286q-110.5 93 -110.5 249h240q0 -76 48 -117t120 -41t112.5 37t40.5 99q0 47 -26.5 74.5t-55 37.5t-84.5 23l-120 28q-102 23 -187.5 90.5t-85.5 200.5q0 94 49.5 163t139.5 99q-104 37 -155.5 107t-51.5 166q0 147 112.5 235t290.5 88q182 0 293 -92t111 -248
h-240q0 76 -47 116t-123 40q-70 0 -110.5 -36t-40.5 -95q0 -70 45 -96.5t120 -42.5l121 -27q102 -20 187.5 -90t85.5 -201q0 -96 -50.5 -163.5t-138.5 -98.5q102 -37 154.5 -107.5t52.5 -166.5q0 -145 -112.5 -234.5t-290.5 -89.5q-183 0 -293.5 93zM655 349q43 34 43 89
q0 59 -46 90t-124 31q-80 0 -123 -32.5t-43 -88.5q0 -59 48.5 -91t124.5 -32q77 0 120 34z" />
    <glyph glyph-name="dieresis" unicode="&#xa8;" horiz-adv-x="817" 
d="M114 1442q-38 37 -38 90q0 57 38 93t93 36t91 -36t36 -93q0 -53 -37 -90t-90 -37q-55 0 -93 37zM505 1442q-38 37 -38 90q0 57 38 93t93 36t92 -36t37 -93q0 -53 -37 -90t-92 -37t-93 37z" />
    <glyph glyph-name="copyright" unicode="&#xa9;" horiz-adv-x="1333" 
d="M399.5 226.5q-120.5 68.5 -190.5 188.5t-70 265t70 265t190.5 188.5t268.5 68.5q147 0 267 -69.5t189.5 -188.5t69.5 -264t-69.5 -264t-189.5 -188.5t-267 -69.5q-148 0 -268.5 68.5zM875.5 329.5q91.5 53.5 143.5 145.5t52 205t-52 206t-143.5 146t-205.5 53
q-115 0 -208 -53t-146.5 -146t-53.5 -206q0 -111 53.5 -204t146.5 -146.5t208 -53.5q114 0 205.5 53.5zM496.5 864.5q68.5 69.5 181.5 69.5q86 0 148.5 -49t78.5 -125h-121q-10 31 -39.5 51t-68.5 20q-57 0 -93 -41.5t-36 -109.5q0 -66 34.5 -105.5t94.5 -39.5q39 0 68.5 17
t39.5 52h121q-14 -78 -78.5 -126t-150.5 -48q-111 0 -179.5 69.5t-68.5 180.5q0 115 68.5 184.5z" />
    <glyph glyph-name="guillemotleft" unicode="&#xab;" horiz-adv-x="1114" 
d="M414 459l219 -383h-281l-217 383l217 383h281zM848 459l217 -383h-281l-215 383l215 383h281z" />
    <glyph glyph-name="logicalnot" unicode="&#xac;" horiz-adv-x="1187" 
d="M813 236v227h-711v268h981v-495h-270z" />
    <glyph glyph-name="registered" unicode="&#xae;" horiz-adv-x="1110" 
d="M806 1275.5q112 -61.5 176.5 -170t64.5 -245.5q0 -141 -64.5 -251.5t-175.5 -172t-248 -61.5q-139 0 -251.5 61.5t-177 172t-64.5 251.5q0 137 65.5 245.5t178 170t249.5 61.5q135 0 247 -61.5zM750 526q86 47 135 133t49 197q0 109 -49 195t-135 134t-193 48
q-106 0 -193.5 -48t-136.5 -134t-49 -195q0 -111 49 -196t135.5 -133t194.5 -48q107 0 193 47zM668 801l69 -144h-106l-58 129h-81v-129h-101v400h199q72 0 111.5 -37t39.5 -98q1 -84 -73 -121zM492 879h86q55 0 55 41q0 43 -55 43h-86v-84z" />
    <glyph glyph-name="macron" unicode="&#xaf;" horiz-adv-x="856" 
d="M717 1593v-172h-557v172h557z" />
    <glyph glyph-name="degree" unicode="&#xb0;" horiz-adv-x="604" 
d="M122 906.5q-73 72.5 -73 178.5q0 109 73 180.5t179 71.5q109 0 181.5 -72.5t72.5 -179.5q0 -106 -72.5 -178.5t-181.5 -72.5q-106 0 -179 72.5zM383 1006.5q33 31.5 33 78.5q0 49 -32 81t-83 32q-49 0 -81 -34t-32 -79q0 -47 32 -78.5t81 -31.5t82 31.5z" />
    <glyph glyph-name="plusminus" unicode="&#xb1;" horiz-adv-x="925" 
d="M852 711v-201h-287v-178h-203v178h-288v201h288v176h203v-176h287zM74 201h778v-201h-778v201z" />
    <glyph glyph-name="uni00B2" unicode="&#xb2;" horiz-adv-x="806" 
d="M698.5 996.5q-26.5 -60.5 -86 -132t-194.5 -215.5h307v-178h-606v141q25 25 52.5 53.5t57.5 59.5q127 133 183.5 194.5t83 108.5t26.5 90q0 53 -32.5 81t-83.5 28q-61 0 -95.5 -40t-29.5 -97h-197q-6 94 36 166.5t119.5 112.5t174.5 40q139 0 225 -77t86 -199
q0 -76 -26.5 -136.5z" />
    <glyph glyph-name="uni00B3" unicode="&#xb3;" horiz-adv-x="843" 
d="M695.5 945q68.5 -73 68.5 -183q0 -88 -45 -157.5t-124 -109.5t-177 -40q-96 0 -175 38.5t-122 110.5t-41 168h196q0 -59 41 -97t103 -38q61 0 101 36t40 89q0 61 -46 100t-116 39h-57h-72v131l187 185h-328v172h586v-160l-193 -191q105 -20 173.5 -93z" />
    <glyph glyph-name="acute" unicode="&#xb4;" horiz-adv-x="638" 
d="M209 1485l311 334l127 -129l-362 -283z" />
    <glyph glyph-name="mu" unicode="&#xb5;" horiz-adv-x="1300" 
d="M1217 176v-176q-68 -18 -130 -18q-86 0 -147 33.5t-88 97.5q-33 -61 -103.5 -99.5t-150.5 -38.5t-140.5 33t-86.5 88v-540h-252v1362h254v-488q0 -119 56 -177t153 -58q98 0 154.5 59t56.5 168v496h256v-601q0 -74 26.5 -109.5t83.5 -35.5q42 0 58 4z" />
    <glyph glyph-name="paragraph" unicode="&#xb6;" horiz-adv-x="1085" 
d="M1120 1204h-145v-1466h-86v1466h-170v-1462h-217v913h-142q-145 0 -230 91.5t-85 238.5q0 143 85 235.5t230 92.5h760v-109z" />
    <glyph glyph-name="periodcentered" unicode="&#xb7;" horiz-adv-x="712" 
d="M210.5 410.5q-63.5 62.5 -63.5 144.5q0 84 62.5 146.5t148.5 62.5q82 0 144.5 -62.5t62.5 -146.5q0 -82 -61.5 -144.5t-145.5 -62.5t-147.5 62.5z" />
    <glyph glyph-name="cedilla" unicode="&#xb8;" horiz-adv-x="579" 
d="M380 -133.5q48 -18.5 82 -63.5t34 -112q0 -100 -72 -154.5t-172 -54.5q-92 0 -170 45v133q20 -25 54 -38t71 -13q47 0 81 23.5t34 66.5q0 41 -33 68.5t-78 27.5q-14 0 -21 -2l-47 60l111 217h104v-72l-67 -117q41 4 89 -14.5z" />
    <glyph glyph-name="uni00B9" unicode="&#xb9;" horiz-adv-x="610" 
d="M68 1243q100 0 159.5 39t75.5 107h166v-918h-203v629h-198v143z" />
    <glyph glyph-name="guillemotright" unicode="&#xbb;" horiz-adv-x="1114" 
d="M549 459l-219 -383h-279l217 383l-217 383h279zM981 459l-217 -383h-279l215 383l-215 383h279z" />
    <glyph glyph-name="onequarter" unicode="&#xbc;" horiz-adv-x="1552" 
d="M1522 334v-162h-111v-172h-192v172h-385v145l335 537h242v-520h111zM1219 334v307l-193 -307h193zM227 0l916 1391l114 -72l-917 -1389zM41 1169q98 0 158 38q59 38 75 106h162v-854h-200v567h-195v143z" />
    <glyph glyph-name="onehalf" unicode="&#xbd;" horiz-adv-x="1591" 
d="M1520 487q-25 -55 -77 -117t-175 -194h274v-176h-571v139l127 129q150 152 197 212q48 60 48 116q0 45 -27 69q-28 24 -75 23q-57 0 -85 -33t-23 -82h-195q-6 88 35 157t114 106q74 37 164 36q129 0 211 -72q82 -73 82 -188q1 -70 -24 -125zM227 0l916 1391l114 -72
l-917 -1389zM41 1169q98 0 158 38q59 38 75 106h162v-854h-200v567h-195v143z" />
    <glyph glyph-name="threequarters" unicode="&#xbe;" horiz-adv-x="1693" 
d="M1663 334v-162h-111v-172h-192v172h-385v145l336 537h241v-520h111zM1360 334v307l-193 -307h193zM369 0l915 1391l115 -72l-918 -1389zM622 899q62 -68 62 -170q0 -125 -92 -205t-234 -80q-143 0 -231 82t-86 215h197q0 -53 34 -87q35 -34 90 -33q53 0 88 31
q34 32 33 81q0 51 -44 86t-101 33h-6l-45 -2h-70v131l164 160h-293v172h549v-160l-172 -168q95 -18 157 -86z" />
    <glyph glyph-name="questiondown" unicode="&#xbf;" horiz-adv-x="1007" 
d="M419 1053q-50 45 -50 121t49 119.5t125 43.5q74 0 124 -44t50 -119q0 -76 -50.5 -121t-123.5 -45q-74 0 -124 45zM881.5 174q-52.5 -90 -152.5 -143.5t-233 -53.5q-121 0 -216.5 43t-148.5 120t-53 179q0 106 53 180t152 160q74 68 107.5 109t37.5 92v25h236v-25
q0 -98 -49.5 -167.5t-143.5 -151.5q-74 -63 -108.5 -107.5t-34.5 -99.5q0 -66 48 -107t126 -41q88 0 141 53.5t49 133.5h238q4 -109 -48.5 -199z" />
    <glyph glyph-name="Agrave" unicode="&#xc0;" horiz-adv-x="1275" 
d="M276 1673l127 127l312 -334l-76 -77zM506 1313h264l487 -1313h-280l-103 287h-477l-104 -287h-275zM797 508l-68 192q-31 84 -55.5 160t-32.5 103q-8 -27 -38 -113t-56 -152l-72 -190h322z" />
    <glyph glyph-name="Aacute" unicode="&#xc1;" horiz-adv-x="1275" 
d="M563 1468l311 334l127 -129l-362 -282zM506 1313h264l487 -1313h-280l-103 287h-477l-104 -287h-275zM797 508l-68 192q-31 84 -55.5 160t-32.5 103q-8 -27 -38 -113t-56 -152l-72 -190h322z" />
    <glyph glyph-name="Acircumflex" unicode="&#xc2;" horiz-adv-x="1275" 
d="M528 1745h222l213 -285l-119 -82l-205 215l-205 -215l-119 82zM506 1313h264l487 -1313h-280l-103 287h-477l-104 -287h-275zM797 508l-68 192q-31 84 -55.5 160t-32.5 103q-8 -27 -38 -113t-56 -152l-72 -190h322z" />
    <glyph glyph-name="Atilde" unicode="&#xc3;" horiz-adv-x="1275" 
d="M336 1466q0 94 46 149.5t122 55.5q41 0 72.5 -13t80.5 -42q31 -18 52.5 -28.5t40.5 -10.5q37 0 50 22.5t11 69.5h125q6 -33 6 -65q0 -88 -47 -142.5t-125 -54.5q-41 0 -78 15.5t-82 41.5q-23 14 -46 24.5t-40 10.5q-37 0 -49 -30.5t-8 -73.5h-125q-6 40 -6 71zM506 1313
h264l487 -1313h-280l-103 287h-477l-104 -287h-275zM797 508l-68 192q-31 84 -55.5 160t-32.5 103q-8 -27 -38 -113t-56 -152l-72 -190h322z" />
    <glyph glyph-name="Adieresis" unicode="&#xc4;" horiz-adv-x="1275" 
d="M351 1425.5q-38 36.5 -38 90.5q0 57 38 93t93 36t91 -36t36 -93q0 -53 -36.5 -90t-90.5 -37q-55 0 -93 36.5zM742.5 1425.5q-37.5 36.5 -37.5 90.5q0 57 37.5 93t93.5 36q55 0 92 -36t37 -93q0 -53 -37 -90t-92 -37q-56 0 -93.5 36.5zM506 1313h264l487 -1313h-280
l-103 287h-477l-104 -287h-275zM797 508l-68 192q-31 84 -55.5 160t-32.5 103q-8 -27 -38 -113t-56 -152l-72 -190h322z" />
    <glyph glyph-name="Aring" unicode="&#xc5;" horiz-adv-x="1275" 
d="M446.5 1253.5q71.5 -73.5 192.5 -73.5q80 0 140.5 34.5t92 91t31.5 121.5q0 63 -32.5 121t-93 92.5t-138.5 34.5q-121 0 -192.5 -72.5t-71.5 -175.5q0 -100 71.5 -173.5zM711.5 1355.5q-29.5 -30.5 -72.5 -30.5t-72.5 30.5t-29.5 76.5q0 43 30.5 72.5t71.5 29.5
q43 0 72.5 -30.5t29.5 -71.5q0 -46 -29.5 -76.5zM506 1313h264l487 -1313h-280l-103 287h-477l-104 -287h-275zM797 508l-68 192q-31 84 -55.5 160t-32.5 103q-8 -27 -38 -113t-56 -152l-72 -190h322z" />
    <glyph glyph-name="AE" unicode="&#xc6;" horiz-adv-x="1769" 
d="M1061 1063v-279l541 -2v-239l-541 2v-293l604 -2v-250l-604 2v-2h-252v303h-369l-118 -303h-304l543 1313h1104v-252zM809 1063h-72l-207 -531h279v531z" />
    <glyph glyph-name="Ccedilla" unicode="&#xc7;" horiz-adv-x="1470" 
d="M822 -120.5q48 -18.5 82 -63.5t34 -113q0 -100 -71.5 -154.5t-172.5 -54.5q-92 0 -170 45v133q20 -25 54 -38t71 -13q47 0 81 23.5t34 66.5q0 41 -33 68.5t-78 27.5q-14 0 -20 -2l-47 60l110 217h105v-72l-68 -116q41 4 89 -14.5zM399.5 58q155.5 -85 354.5 -85
q170 0 310 60.5t228 169t109 250.5h-297q-29 -104 -126 -168t-228 -64q-180 0 -290 117t-110 317q0 199 107.5 319t292.5 120q135 0 231 -64.5t123 -167.5h297q-23 145 -113 254t-229 166t-305 57q-203 0 -358.5 -85t-240.5 -239.5t-85 -357.5q0 -205 87 -359.5
t242.5 -239.5z" />
    <glyph glyph-name="Egrave" unicode="&#xc8;" horiz-adv-x="1101" 
d="M207 1673l127 127l311 -334l-76 -77zM410 1071v-293h524v-231h-524v-305h587v-242h-852v1313h852v-242h-587z" />
    <glyph glyph-name="Eacute" unicode="&#xc9;" horiz-adv-x="1101" 
d="M494 1468l311 334l127 -129l-363 -282zM410 1071v-293h524v-231h-524v-305h587v-242h-852v1313h852v-242h-587z" />
    <glyph glyph-name="Ecircumflex" unicode="&#xca;" horiz-adv-x="1101" 
d="M459 1745h221l213 -285l-119 -82l-205 215l-204 -215l-119 82zM410 1071v-293h524v-231h-524v-305h587v-242h-852v1313h852v-242h-587z" />
    <glyph glyph-name="Edieresis" unicode="&#xcb;" horiz-adv-x="1101" 
d="M281.5 1425.5q-37.5 36.5 -37.5 90.5q0 57 37.5 93t93.5 36q55 0 91 -36t36 -93q0 -53 -37 -90t-90 -37q-56 0 -93.5 36.5zM673 1425.5q-38 36.5 -38 90.5q0 57 38 93t93 36t92 -36t37 -93q0 -53 -37 -90t-92 -37t-93 36.5zM410 1071v-293h524v-231h-524v-305h587v-242
h-852v1313h852v-242h-587z" />
    <glyph glyph-name="Igrave" unicode="&#xcc;" horiz-adv-x="540" 
d="M-84 1673l127 127l311 -334l-75 -77zM145 0v1313h267v-1313h-267z" />
    <glyph glyph-name="Iacute" unicode="&#xcd;" horiz-adv-x="540" 
d="M203 1468l311 334l127 -129l-362 -282zM145 0v1313h267v-1313h-267z" />
    <glyph glyph-name="Icircumflex" unicode="&#xce;" horiz-adv-x="540" 
d="M168 1745h221l213 -285l-119 -82l-204 215l-205 -215l-119 82zM145 0v1313h267v-1313h-267z" />
    <glyph glyph-name="Idieresis" unicode="&#xcf;" horiz-adv-x="540" 
d="M-9 1425.5q-38 36.5 -38 90.5q0 57 38 93t93 36t91 -36t36 -93q0 -53 -37 -90t-90 -37q-55 0 -93 36.5zM382 1425.5q-38 36.5 -38 90.5q0 57 38 93t93 36t92 -36t37 -93q0 -53 -37 -90t-92 -37t-93 36.5zM145 0v1313h267v-1313h-267z" />
    <glyph glyph-name="Eth" unicode="&#xd0;" horiz-adv-x="1466" 
d="M1006.5 1229q150.5 -84 235.5 -234.5t85 -341.5q0 -190 -84 -338.5t-234.5 -231.5t-342.5 -83h-508v563h-121v185h121v565h508q190 0 340.5 -84zM937 354.5q110 112.5 110 298.5q0 188 -111 303t-295 115h-217v-323h190v-185h-190v-321h217q186 0 296 112.5z" />
    <glyph glyph-name="Ntilde" unicode="&#xd1;" horiz-adv-x="1374" 
d="M393 1497q0 94 46 149.5t122 55.5q41 0 73 -13.5t81 -41.5q31 -18 52 -28.5t40 -10.5q37 0 50 22.5t11 69.5h125q6 -33 6 -66q0 -88 -47 -142t-125 -54q-41 0 -77.5 15t-81.5 42q-23 14 -46.5 24.5t-39.5 10.5q-37 0 -49.5 -31t-8.5 -74h-125q-6 41 -6 72zM1231 1313
v-1313h-248l-573 852v-852h-265v1313h248l576 -858v858h262z" />
    <glyph glyph-name="Ograve" unicode="&#xd2;" horiz-adv-x="1538" 
d="M406 1700l126 127l312 -334l-76 -78zM1378 301q-90 -156 -249.5 -242t-360.5 -86t-359.5 86t-248.5 241t-90 355q0 199 90 354.5t248.5 242.5t359.5 87t360.5 -86t249.5 -241.5t90 -354.5q0 -200 -90 -356zM1132.5 883.5q-53.5 99.5 -148.5 154t-214 54.5
q-121 0 -216 -55.5t-149.5 -154t-54.5 -227.5t53.5 -227t148.5 -152.5t216 -54.5t215 55.5t148.5 154.5t54.5 226t-53.5 226.5z" />
    <glyph glyph-name="Oacute" unicode="&#xd3;" horiz-adv-x="1538" 
d="M692 1495l312 334l126 -129l-362 -283zM1378 301q-90 -156 -249.5 -242t-360.5 -86t-359.5 86t-248.5 241t-90 355q0 199 90 354.5t248.5 242.5t359.5 87t360.5 -86t249.5 -241.5t90 -354.5q0 -200 -90 -356zM1132.5 883.5q-53.5 99.5 -148.5 154t-214 54.5
q-121 0 -216 -55.5t-149.5 -154t-54.5 -227.5t53.5 -227t148.5 -152.5t216 -54.5t215 55.5t148.5 154.5t54.5 226t-53.5 226.5z" />
    <glyph glyph-name="Ocircumflex" unicode="&#xd4;" horiz-adv-x="1538" 
d="M657 1772h222l213 -285l-119 -82l-205 215l-205 -215l-119 82zM1378 301q-90 -156 -249.5 -242t-360.5 -86t-359.5 86t-248.5 241t-90 355q0 199 90 354.5t248.5 242.5t359.5 87t360.5 -86t249.5 -241.5t90 -354.5q0 -200 -90 -356zM1132.5 883.5q-53.5 99.5 -148.5 154
t-214 54.5q-121 0 -216 -55.5t-149.5 -154t-54.5 -227.5t53.5 -227t148.5 -152.5t216 -54.5t215 55.5t148.5 154.5t54.5 226t-53.5 226.5z" />
    <glyph glyph-name="Otilde" unicode="&#xd5;" horiz-adv-x="1538" 
d="M465 1493q0 94 46 149.5t122 55.5q41 0 72.5 -13.5t80.5 -42.5q31 -18 52.5 -28t40.5 -10q37 0 50 22.5t11 69.5h125q6 -33 6 -66q0 -88 -47 -142t-125 -54q-41 0 -78 15t-82 42q-23 14 -46 24.5t-40 10.5q-37 0 -49 -31t-8 -74h-125q-6 41 -6 72zM1378 301
q-90 -156 -249.5 -242t-360.5 -86t-359.5 86t-248.5 241t-90 355q0 199 90 354.5t248.5 242.5t359.5 87t360.5 -86t249.5 -241.5t90 -354.5q0 -200 -90 -356zM1132.5 883.5q-53.5 99.5 -148.5 154t-214 54.5q-121 0 -216 -55.5t-149.5 -154t-54.5 -227.5t53.5 -227
t148.5 -152.5t216 -54.5t215 55.5t148.5 154.5t54.5 226t-53.5 226.5z" />
    <glyph glyph-name="Odieresis" unicode="&#xd6;" horiz-adv-x="1538" 
d="M480 1452q-38 37 -38 90q0 57 38 93t93 36t91 -36t36 -93q0 -53 -36.5 -90t-90.5 -37q-55 0 -93 37zM871.5 1452q-37.5 37 -37.5 90q0 57 37.5 93t93.5 36q55 0 92 -36t37 -93q0 -53 -37 -90t-92 -37q-56 0 -93.5 37zM1378 301q-90 -156 -249.5 -242t-360.5 -86
t-359.5 86t-248.5 241t-90 355q0 199 90 354.5t248.5 242.5t359.5 87t360.5 -86t249.5 -241.5t90 -354.5q0 -200 -90 -356zM1132.5 883.5q-53.5 99.5 -148.5 154t-214 54.5q-121 0 -216 -55.5t-149.5 -154t-54.5 -227.5t53.5 -227t148.5 -152.5t216 -54.5t215 55.5
t148.5 154.5t54.5 226t-53.5 226.5z" />
    <glyph glyph-name="multiply" unicode="&#xd7;" horiz-adv-x="1103" 
d="M414 623l-238 237l137 137l236 -237l237 237l140 -137l-238 -237l238 -238l-138 -137l-237 237l-238 -237l-137 137z" />
    <glyph glyph-name="Oslash" unicode="&#xd8;" horiz-adv-x="1538" 
d="M1128.5 1255q159.5 -86 249.5 -241.5t90 -354.5q0 -201 -90 -356.5t-249.5 -241.5t-360.5 -86t-359.5 86t-248.5 241t-90 355q0 199 90 354.5t248.5 242.5t359.5 87t360.5 -86zM554 1038.5q-95 -55.5 -149.5 -154t-54.5 -227.5q0 -88 25.5 -163.5t75.5 -131.5l444 715
q-61 16 -125 17q-121 0 -216 -55.5zM983 278.5q94 55.5 148.5 154.5t54.5 226q0 90 -29 169t-80 137l-442 -723q61 -18 133 -19q121 0 215 55.5z" />
    <glyph glyph-name="Ugrave" unicode="&#xd9;" horiz-adv-x="1384" 
d="M330 1673l127 127l311 -334l-76 -77zM135 1313h266v-821q0 -141 81 -209t210 -68q137 0 215 70.5t78 206.5v821h266v-832q0 -162 -71.5 -276.5t-197.5 -173t-290 -58.5q-254 0 -405.5 134.5t-151.5 373.5v832z" />
    <glyph glyph-name="Uacute" unicode="&#xda;" horiz-adv-x="1384" 
d="M616 1468l312 334l127 -129l-363 -282zM135 1313h266v-821q0 -141 81 -209t210 -68q137 0 215 70.5t78 206.5v821h266v-832q0 -162 -71.5 -276.5t-197.5 -173t-290 -58.5q-254 0 -405.5 134.5t-151.5 373.5v832z" />
    <glyph glyph-name="Ucircumflex" unicode="&#xdb;" horiz-adv-x="1384" 
d="M582 1745h221l213 -285l-119 -82l-205 215l-205 -215l-118 82zM135 1313h266v-821q0 -141 81 -209t210 -68q137 0 215 70.5t78 206.5v821h266v-832q0 -162 -71.5 -276.5t-197.5 -173t-290 -58.5q-254 0 -405.5 134.5t-151.5 373.5v832z" />
    <glyph glyph-name="Udieresis" unicode="&#xdc;" horiz-adv-x="1384" 
d="M404.5 1425.5q-37.5 36.5 -37.5 90.5q0 57 37.5 93t93.5 36q55 0 91 -36t36 -93q0 -53 -37 -90t-90 -37q-56 0 -93.5 36.5zM796 1425.5q-38 36.5 -38 90.5q0 57 38 93t93 36t92 -36t37 -93q0 -53 -37 -90t-92 -37t-93 36.5zM135 1313h266v-821q0 -141 81 -209t210 -68
q137 0 215 70.5t78 206.5v821h266v-832q0 -162 -71.5 -276.5t-197.5 -173t-290 -58.5q-254 0 -405.5 134.5t-151.5 373.5v832z" />
    <glyph glyph-name="Yacute" unicode="&#xdd;" horiz-adv-x="1245" 
d="M553 1468l311 334l127 -129l-362 -282zM328 1313l143 -250q63 -113 104 -187.5t52 -97.5q10 23 54 105t101 180l144 250h299l-467 -793v-520h-269v520l-471 793h310z" />
    <glyph glyph-name="Thorn" unicode="&#xde;" horiz-adv-x="1193" 
d="M1022 979q121 -121 121 -328q0 -133 -54.5 -234.5t-158 -158.5t-244.5 -57h-274v-201h-267v1313h267v-213h278q211 0 332 -121zM808 494.5q56 64.5 56 160.5q0 86 -55 146.5t-168 60.5h-229v-432h225q115 0 171 64.5z" />
    <glyph glyph-name="germandbls" unicode="&#xdf;" horiz-adv-x="1140" 
d="M991 660.5q78 -107.5 78 -254.5q0 -125 -56.5 -220.5t-158.5 -147.5t-238 -52q-96 0 -147 14v221q39 -12 96 -12q113 0 179.5 61.5t66.5 167.5q0 111 -71.5 173.5t-192.5 62.5h-27v215h25q78 0 125 45t47 119q0 76 -46 120t-124 44q-80 0 -126 -52.5t-46 -140.5v-1026
h-256v1010q0 197 119.5 312.5t318.5 115.5q186 0 302 -98.5t116 -258.5q0 -106 -53.5 -185t-145.5 -101q137 -25 215 -132.5z" />
    <glyph glyph-name="agrave" unicode="&#xe0;" horiz-adv-x="1185" 
d="M160 1309l127 127l311 -334l-76 -78zM1069 918v-918h-244v117q-47 -66 -133 -105t-188 -39q-127 0 -225.5 59.5t-153.5 168t-55 252.5q0 147 57 259.5t161.5 174t237.5 61.5q102 0 182 -34.5t130 -100.5l20 105h211zM745.5 275.5q67.5 70.5 67.5 187.5t-66.5 187.5
t-175.5 70.5q-111 0 -176 -71.5t-65 -186.5t66.5 -186.5t172.5 -71.5q109 0 176.5 70.5z" />
    <glyph glyph-name="aacute" unicode="&#xe1;" horiz-adv-x="1185" 
d="M446 1102l312 334l127 -127l-363 -285zM1069 918v-918h-244v117q-47 -66 -133 -105t-188 -39q-127 0 -225.5 59.5t-153.5 168t-55 252.5q0 147 57 259.5t161.5 174t237.5 61.5q102 0 182 -34.5t130 -100.5l20 105h211zM745.5 275.5q67.5 70.5 67.5 187.5t-66.5 187.5
t-175.5 70.5q-111 0 -176 -71.5t-65 -186.5t66.5 -186.5t172.5 -71.5q109 0 176.5 70.5z" />
    <glyph glyph-name="acircumflex" unicode="&#xe2;" horiz-adv-x="1185" 
d="M412 1380h221l211 -284l-117 -82l-205 215l-205 -215l-118 82zM1069 918v-918h-244v117q-47 -66 -133 -105t-188 -39q-127 0 -225.5 59.5t-153.5 168t-55 252.5q0 147 57 259.5t161.5 174t237.5 61.5q102 0 182 -34.5t130 -100.5l20 105h211zM745.5 275.5
q67.5 70.5 67.5 187.5t-66.5 187.5t-175.5 70.5q-111 0 -176 -71.5t-65 -186.5t66.5 -186.5t172.5 -71.5q109 0 176.5 70.5z" />
    <glyph glyph-name="atilde" unicode="&#xe3;" horiz-adv-x="1185" 
d="M219 1102q0 94 46 149.5t122 55.5q41 0 73 -13.5t81 -42.5q31 -18 52 -28.5t40 -10.5q37 0 50 22.5t11 70.5h125q6 -33 6 -66q0 -88 -47 -142.5t-125 -54.5q-41 0 -77.5 15.5t-81.5 42.5q-23 14 -46.5 24.5t-39.5 10.5q-37 0 -49.5 -31t-8.5 -74h-125q-6 41 -6 72z
M1069 918v-918h-244v117q-47 -66 -133 -105t-188 -39q-127 0 -225.5 59.5t-153.5 168t-55 252.5q0 147 57 259.5t161.5 174t237.5 61.5q102 0 182 -34.5t130 -100.5l20 105h211zM745.5 275.5q67.5 70.5 67.5 187.5t-66.5 187.5t-175.5 70.5q-111 0 -176 -71.5t-65 -186.5
t66.5 -186.5t172.5 -71.5q109 0 176.5 70.5z" />
    <glyph glyph-name="adieresis" unicode="&#xe4;" horiz-adv-x="1185" 
d="M234.5 1067q-37.5 37 -37.5 90q0 57 37.5 93t93.5 36q55 0 91 -36t36 -93q0 -53 -37 -90t-90 -37q-56 0 -93.5 37zM626 1067q-38 37 -38 90q0 57 38 93t93 36t92 -36t37 -93q0 -53 -37 -90t-92 -37t-93 37zM1069 918v-918h-244v117q-47 -66 -133 -105t-188 -39
q-127 0 -225.5 59.5t-153.5 168t-55 252.5q0 147 57 259.5t161.5 174t237.5 61.5q102 0 182 -34.5t130 -100.5l20 105h211zM745.5 275.5q67.5 70.5 67.5 187.5t-66.5 187.5t-175.5 70.5q-111 0 -176 -71.5t-65 -186.5t66.5 -186.5t172.5 -71.5q109 0 176.5 70.5z" />
    <glyph glyph-name="aring" unicode="&#xe5;" horiz-adv-x="1185" 
d="M329.5 1069q-71.5 74 -71.5 174q0 102 71.5 175t192.5 73q78 0 138.5 -35t93 -92t32.5 -121q0 -66 -31.5 -122t-92 -91t-140.5 -35q-121 0 -192.5 74zM595 1171.5q30 30.5 30 75.5q0 41 -30 72t-73 31q-41 0 -71.5 -30t-30.5 -73q0 -45 29.5 -75.5t72.5 -30.5t73 30.5z
M1069 918v-918h-244v117q-47 -66 -133 -105t-188 -39q-127 0 -225.5 59.5t-153.5 168t-55 252.5q0 147 57 259.5t161.5 174t237.5 61.5q102 0 182 -34.5t130 -100.5l20 105h211zM745.5 275.5q67.5 70.5 67.5 187.5t-66.5 187.5t-175.5 70.5q-111 0 -176 -71.5t-65 -186.5
t66.5 -186.5t172.5 -71.5q109 0 176.5 70.5z" />
    <glyph glyph-name="ae" unicode="&#xe6;" horiz-adv-x="1679" 
d="M1614 287q-35 -141 -159 -226.5t-298 -85.5q-127 0 -225 46.5t-150 128.5q-49 -82 -141 -129.5t-215 -47.5q-162 0 -258 80t-96 213t97 212t273 79h220v37q0 78 -46.5 119t-128.5 41q-78 0 -126 -35t-52 -94h-215q6 145 120 234t292 89q104 0 183 -34.5t128 -100.5
q59 66 145.5 99.5t188.5 33.5q133 0 237.5 -56t162 -155.5t57.5 -224.5q0 -41 -5.5 -76t-7.5 -45h-667q2 -88 64.5 -146.5t168.5 -58.5q74 0 130.5 28t76.5 75h246zM991.5 687q-57.5 -50 -61.5 -130h420q-2 82 -60.5 131t-148.5 49q-92 0 -149.5 -50zM664 391h-160
q-94 0 -134 -32.5t-40 -86.5q0 -53 38 -81.5t103 -28.5q90 0 141.5 52t51.5 140v37z" />
    <glyph glyph-name="ccedilla" unicode="&#xe7;" horiz-adv-x="1095" 
d="M660.5 -116.5q48.5 -18.5 82 -63.5t33.5 -113q0 -100 -71.5 -154.5t-172.5 -54.5q-92 0 -170 45v133q20 -25 54.5 -38t70.5 -13q47 0 81 23.5t34 66.5q0 41 -32.5 69t-77.5 28q-14 0 -21 -2l-47 59l111 217h104v-72l-68 -116q41 4 89.5 -14.5zM131.5 716.5
q-61.5 -110.5 -61.5 -255.5t61.5 -256t173 -171.5t256.5 -60.5q190 0 318.5 103.5t146.5 271.5h-260q-14 -68 -70.5 -109.5t-138.5 -41.5q-104 0 -165.5 71.5t-61.5 190.5q0 121 62.5 192.5t164.5 71.5q80 0 135.5 -39t73.5 -113h260q-16 172 -143 274.5t-322 102.5
q-145 0 -256.5 -60.5t-173 -171z" />
    <glyph glyph-name="egrave" unicode="&#xe8;" horiz-adv-x="1062" 
d="M184 1309l127 127l312 -334l-76 -78zM850 60q-125 -87 -297 -87q-143 0 -253 61.5t-170 173t-60 255.5q0 145 60 255.5t169 170t248 59.5q135 0 238.5 -56t161 -156.5t57.5 -227.5q0 -51 -11 -119h-671q4 -94 67.5 -151.5t163.5 -57.5q74 0 128 30t77 81h248
q-31 -144 -156 -231zM743 559q-2 84 -59 132t-145 48q-92 0 -151.5 -49t-63.5 -131h419z" />
    <glyph glyph-name="eacute" unicode="&#xe9;" horiz-adv-x="1062" 
d="M471 1104l311 334l127 -129l-362 -283zM850 60q-125 -87 -297 -87q-143 0 -253 61.5t-170 173t-60 255.5q0 145 60 255.5t169 170t248 59.5q135 0 238.5 -56t161 -156.5t57.5 -227.5q0 -51 -11 -119h-671q4 -94 67.5 -151.5t163.5 -57.5q74 0 128 30t77 81h248
q-31 -144 -156 -231zM743 559q-2 84 -59 132t-145 48q-92 0 -151.5 -49t-63.5 -131h419z" />
    <glyph glyph-name="ecircumflex" unicode="&#xea;" horiz-adv-x="1062" 
d="M436 1380h221l213 -284l-118 -82l-205 215l-205 -215l-119 82zM850 60q-125 -87 -297 -87q-143 0 -253 61.5t-170 173t-60 255.5q0 145 60 255.5t169 170t248 59.5q135 0 238.5 -56t161 -156.5t57.5 -227.5q0 -51 -11 -119h-671q4 -94 67.5 -151.5t163.5 -57.5
q74 0 128 30t77 81h248q-31 -144 -156 -231zM743 559q-2 84 -59 132t-145 48q-92 0 -151.5 -49t-63.5 -131h419z" />
    <glyph glyph-name="edieresis" unicode="&#xeb;" horiz-adv-x="1062" 
d="M259 1067q-38 37 -38 90q0 57 38 93t93 36t91 -36t36 -93q0 -53 -36.5 -90t-90.5 -37q-55 0 -93 37zM650 1067q-38 37 -38 90q0 57 38 93t93 36t92 -36t37 -93q0 -53 -36.5 -90t-92.5 -37q-55 0 -93 37zM850 60q-125 -87 -297 -87q-143 0 -253 61.5t-170 173t-60 255.5
q0 145 60 255.5t169 170t248 59.5q135 0 238.5 -56t161 -156.5t57.5 -227.5q0 -51 -11 -119h-671q4 -94 67.5 -151.5t163.5 -57.5q74 0 128 30t77 81h248q-31 -144 -156 -231zM743 559q-2 84 -59 132t-145 48q-92 0 -151.5 -49t-63.5 -131h419z" />
    <glyph glyph-name="igrave" unicode="&#xec;" horiz-adv-x="493" 
d="M-115 1325l127 127l312 -334l-76 -78zM375 918v-918h-256v918h256z" />
    <glyph glyph-name="iacute" unicode="&#xed;" horiz-adv-x="493" 
d="M172 1120l311 334l127 -129l-362 -283zM375 918v-918h-256v918h256z" />
    <glyph glyph-name="icircumflex" unicode="&#xee;" horiz-adv-x="493" 
d="M137 1397h221l213 -285l-118 -82l-205 215l-205 -215l-119 82zM375 918v-918h-256v918h256z" />
    <glyph glyph-name="idieresis" unicode="&#xef;" horiz-adv-x="493" 
d="M-40 1077q-38 37 -38 90q0 57 38 93t93 36t91 -35.5t36 -93.5q0 -53 -37 -90t-90 -37q-55 0 -93 37zM351 1077q-38 37 -38 90q0 57 38 93t93 36t92 -35.5t37 -93.5q0 -53 -36.5 -90t-92.5 -37q-55 0 -93 37zM375 918v-918h-256v918h256z" />
    <glyph glyph-name="eth" unicode="&#xf0;" horiz-adv-x="1105" 
d="M982 705.5q54 -103.5 54 -248.5q0 -143 -61.5 -253t-173 -170.5t-256.5 -60.5q-143 0 -251 59.5t-166 163t-58 232.5q0 137 60 240.5t165.5 157t234.5 48.5q8 0 13 3l-109 122l-217 -100l-70 150l175 79l-160 185h317l70 -78l192 88l66 -149l-143 -68l172 -193
q92 -104 146 -207.5zM716.5 269.5q63.5 72.5 63.5 187.5q0 113 -62.5 184.5t-164.5 71.5t-164.5 -72t-62.5 -184q0 -115 62.5 -187.5t164.5 -72.5q100 0 163.5 72.5z" />
    <glyph glyph-name="ntilde" unicode="&#xf1;" horiz-adv-x="1093" 
d="M244 1102q0 94 46 149.5t122 55.5q41 0 72.5 -13.5t80.5 -42.5q31 -18 52.5 -28.5t39.5 -10.5q37 0 50.5 22.5t11.5 70.5h125q6 -33 6 -66q0 -88 -47 -142.5t-125 -54.5q-41 0 -78 15.5t-82 42.5q-23 14 -46 24.5t-40 10.5q-37 0 -49 -31t-8 -74h-125q-6 41 -6 72z
M893 845.5q92 -102.5 92 -276.5v-569h-256v510q0 209 -168 209q-92 0 -140 -54.5t-48 -144.5v-520h-254v918h213l16 -107q43 63 121 100t170 37q162 0 254 -102.5z" />
    <glyph glyph-name="ograve" unicode="&#xf2;" horiz-adv-x="1153" 
d="M213 1309l127 127l311 -334l-76 -78zM133.5 712.5q63.5 110.5 179 173t262.5 62.5t263 -62.5t179.5 -173t63.5 -251.5t-63.5 -252t-179 -173.5t-263.5 -62.5q-147 0 -261.5 62.5t-179 173t-64.5 252.5q0 141 63.5 251.5zM398.5 273.5q68.5 -74.5 176.5 -74.5
q109 0 177.5 74.5t68.5 187.5q0 115 -67.5 187.5t-178.5 72.5q-109 0 -177 -73t-68 -187q0 -113 68.5 -187.5z" />
    <glyph glyph-name="oacute" unicode="&#xf3;" horiz-adv-x="1153" 
d="M500 1104l311 334l127 -129l-363 -283zM133.5 712.5q63.5 110.5 179 173t262.5 62.5t263 -62.5t179.5 -173t63.5 -251.5t-63.5 -252t-179 -173.5t-263.5 -62.5q-147 0 -261.5 62.5t-179 173t-64.5 252.5q0 141 63.5 251.5zM398.5 273.5q68.5 -74.5 176.5 -74.5
q109 0 177.5 74.5t68.5 187.5q0 115 -67.5 187.5t-178.5 72.5q-109 0 -177 -73t-68 -187q0 -113 68.5 -187.5z" />
    <glyph glyph-name="ocircumflex" unicode="&#xf4;" horiz-adv-x="1153" 
d="M465 1380h221l213 -284l-119 -82l-205 215l-204 -215l-119 82zM133.5 712.5q63.5 110.5 179 173t262.5 62.5t263 -62.5t179.5 -173t63.5 -251.5t-63.5 -252t-179 -173.5t-263.5 -62.5q-147 0 -261.5 62.5t-179 173t-64.5 252.5q0 141 63.5 251.5zM398.5 273.5
q68.5 -74.5 176.5 -74.5q109 0 177.5 74.5t68.5 187.5q0 115 -67.5 187.5t-178.5 72.5q-109 0 -177 -73t-68 -187q0 -113 68.5 -187.5z" />
    <glyph glyph-name="otilde" unicode="&#xf5;" horiz-adv-x="1153" 
d="M272 1102q0 94 46.5 149.5t121.5 55.5q41 0 73 -13.5t81 -42.5q31 -18 52.5 -28.5t39.5 -10.5q37 0 50.5 22.5t11.5 70.5h124q6 -33 7 -66q0 -88 -47.5 -142.5t-124.5 -54.5q-41 0 -78 15.5t-82 42.5q-23 14 -46.5 24.5t-39.5 10.5q-37 0 -49.5 -31t-8.5 -74h-124
q-7 41 -7 72zM133.5 712.5q63.5 110.5 179 173t262.5 62.5t263 -62.5t179.5 -173t63.5 -251.5t-63.5 -252t-179 -173.5t-263.5 -62.5q-147 0 -261.5 62.5t-179 173t-64.5 252.5q0 141 63.5 251.5zM398.5 273.5q68.5 -74.5 176.5 -74.5q109 0 177.5 74.5t68.5 187.5
q0 115 -67.5 187.5t-178.5 72.5q-109 0 -177 -73t-68 -187q0 -113 68.5 -187.5z" />
    <glyph glyph-name="odieresis" unicode="&#xf6;" horiz-adv-x="1153" 
d="M288 1061q-38 37 -38 90q0 57 38 93t93 36t91 -36t36 -93q0 -53 -37 -90t-90 -37q-55 0 -93 37zM679 1061q-38 37 -38 90q0 57 38 93t93 36t92 -36t37 -93q0 -53 -37 -90t-92 -37t-93 37zM133.5 712.5q63.5 110.5 179 173t262.5 62.5t263 -62.5t179.5 -173t63.5 -251.5
t-63.5 -252t-179 -173.5t-263.5 -62.5q-147 0 -261.5 62.5t-179 173t-64.5 252.5q0 141 63.5 251.5zM398.5 273.5q68.5 -74.5 176.5 -74.5q109 0 177.5 74.5t68.5 187.5q0 115 -67.5 187.5t-178.5 72.5q-109 0 -177 -73t-68 -187q0 -113 68.5 -187.5z" />
    <glyph glyph-name="divide" unicode="&#xf7;" horiz-adv-x="1013" 
d="M405.5 867q-43.5 42 -43.5 100q0 57 43.5 100t102.5 43t102 -43t43 -100t-44 -99.5t-101 -42.5q-59 0 -102.5 42zM866 705v-199h-719v199h719zM405.5 142q-43.5 42 -43.5 100q0 59 43.5 102t102.5 43q57 0 101 -44t44 -101t-43 -99.5t-102 -42.5t-102.5 42z" />
    <glyph glyph-name="oslash" unicode="&#xf8;" horiz-adv-x="1153" 
d="M182 -19l653 1039l143 -86l-655 -1040zM133.5 712.5q63.5 110.5 179 173t262.5 62.5t263 -62.5t179.5 -173t63.5 -251.5t-63.5 -252t-179 -173.5t-263.5 -62.5q-147 0 -261.5 62.5t-179 173t-64.5 252.5q0 141 63.5 251.5zM398.5 273.5q68.5 -74.5 176.5 -74.5
q109 0 177.5 74.5t68.5 187.5q0 115 -67.5 187.5t-178.5 72.5q-109 0 -177 -73t-68 -187q0 -113 68.5 -187.5z" />
    <glyph glyph-name="ugrave" unicode="&#xf9;" horiz-adv-x="1075" 
d="M176 1280l127 127l311 -334l-75 -78zM965 918v-918h-211l-17 109q-49 -68 -121.5 -102t-164.5 -34q-164 0 -253 98.5t-89 264.5v582h256v-541q0 -98 44 -140t126 -42t129 53t47 141v529h254z" />
    <glyph glyph-name="uacute" unicode="&#xfa;" horiz-adv-x="1075" 
d="M463 1075l311 334l127 -129l-362 -283zM965 918v-918h-211l-17 109q-49 -68 -121.5 -102t-164.5 -34q-164 0 -253 98.5t-89 264.5v582h256v-541q0 -98 44 -140t126 -42t129 53t47 141v529h254z" />
    <glyph glyph-name="ucircumflex" unicode="&#xfb;" horiz-adv-x="1075" 
d="M428 1352h221l213 -285l-119 -82l-204 215l-205 -215l-119 82zM965 918v-918h-211l-17 109q-49 -68 -121.5 -102t-164.5 -34q-164 0 -253 98.5t-89 264.5v582h256v-541q0 -98 44 -140t126 -42t129 53t47 141v529h254z" />
    <glyph glyph-name="udieresis" unicode="&#xfc;" horiz-adv-x="1075" 
d="M251 1032q-38 37 -38 90q0 57 38 93t93 36t91 -35.5t36 -93.5q0 -53 -37 -90t-90 -37q-55 0 -93 37zM642 1032q-38 37 -38 90q0 57 38 93t93 36t92 -35.5t37 -93.5q0 -53 -36.5 -90t-92.5 -37q-55 0 -93 37zM965 918v-918h-211l-17 109q-49 -68 -121.5 -102t-164.5 -34
q-164 0 -253 98.5t-89 264.5v582h256v-541q0 -98 44 -140t126 -42t129 53t47 141v529h254z" />
    <glyph glyph-name="yacute" unicode="&#xfd;" horiz-adv-x="1069" 
d="M463 1075l311 334l127 -129l-362 -283zM1044 918l-423 -1074q-51 -129 -135.5 -208.5t-249.5 -79.5q-80 0 -175 22l2 207q86 -14 130 -14q96 0 136 35.5t68 107.5l19 51l-393 953h276l236 -642l241 642h268z" />
    <glyph glyph-name="thorn" unicode="&#xfe;" horiz-adv-x="1214" 
d="M923.5 885.5q108.5 -60.5 169 -170t60.5 -252.5t-60.5 -253t-170 -171.5t-254.5 -61.5q-90 0 -165 25t-124 70v-506h-250v1825h246v-543q57 47 135 72.5t164 25.5q141 0 249.5 -60.5zM825.5 272.5q71.5 71.5 71.5 186.5t-71.5 185.5t-186.5 70.5q-113 0 -183.5 -71
t-70.5 -185q0 -115 70.5 -186.5t183.5 -71.5q115 0 186.5 71.5z" />
    <glyph glyph-name="ydieresis" unicode="&#xff;" horiz-adv-x="1069" 
d="M251 1032q-38 37 -38 90q0 57 38 93t93 36t91 -35.5t36 -93.5q0 -53 -37 -90t-90 -37q-55 0 -93 37zM642 1032q-38 37 -38 90q0 57 38 93t93 36t92 -35.5t37 -93.5q0 -53 -36.5 -90t-92.5 -37q-55 0 -93 37zM1044 918l-423 -1074q-51 -129 -135.5 -208.5t-249.5 -79.5
q-80 0 -175 22l2 207q86 -14 130 -14q96 0 136 35.5t68 107.5l19 51l-393 953h276l236 -642l241 642h268z" />
    <glyph glyph-name="Amacron" unicode="&#x100;" horiz-adv-x="1275" 
d="M918 1577v-172h-558v172h558zM506 1313h264l487 -1313h-280l-103 287h-477l-104 -287h-275zM797 508l-68 192q-31 84 -55.5 160t-32.5 103q-8 -27 -38 -113t-56 -152l-72 -190h322z" />
    <glyph glyph-name="amacron" unicode="&#x101;" horiz-adv-x="1185" 
d="M801 1212v-172h-557v172h557zM1069 918v-918h-244v117q-47 -66 -133 -105t-188 -39q-127 0 -225.5 59.5t-153.5 168t-55 252.5q0 147 57 259.5t161.5 174t237.5 61.5q102 0 182 -34.5t130 -100.5l20 105h211zM745.5 275.5q67.5 70.5 67.5 187.5t-66.5 187.5t-175.5 70.5
q-111 0 -176 -71.5t-65 -186.5t66.5 -186.5t172.5 -71.5q109 0 176.5 70.5z" />
    <glyph glyph-name="Abreve" unicode="&#x102;" horiz-adv-x="1275" 
d="M873.5 1471.5q-93.5 -80.5 -232.5 -80.5q-145 0 -237.5 84t-100.5 221h176q6 -63 50 -100t112 -37t110 36.5t46 100.5h178q-8 -144 -101.5 -224.5zM506 1313h264l487 -1313h-280l-103 287h-477l-104 -287h-275zM797 508l-68 192q-31 84 -55.5 160t-32.5 103
q-8 -27 -38 -113t-56 -152l-72 -190h322z" />
    <glyph glyph-name="abreve" unicode="&#x103;" horiz-adv-x="1185" 
d="M757 1107q-93 -81 -233 -81q-145 0 -237 84t-101 221h176q6 -63 50.5 -100t111.5 -37q68 0 110 37t46 100h178q-8 -143 -101 -224zM1069 918v-918h-244v117q-47 -66 -133 -105t-188 -39q-127 0 -225.5 59.5t-153.5 168t-55 252.5q0 147 57 259.5t161.5 174t237.5 61.5
q102 0 182 -34.5t130 -100.5l20 105h211zM745.5 275.5q67.5 70.5 67.5 187.5t-66.5 187.5t-175.5 70.5q-111 0 -176 -71.5t-65 -186.5t66.5 -186.5t172.5 -71.5q109 0 176.5 70.5z" />
    <glyph glyph-name="Aogonek" unicode="&#x104;" horiz-adv-x="1275" 
d="M1260 0q-57 -33 -86 -73t-29 -74q0 -29 20.5 -47.5t57.5 -18.5q27 0 63 12v-133q-61 -20 -119 -20q-86 0 -136 45t-50 112q0 53 34 105.5t99 91.5h146zM506 1313h264l487 -1313h-280l-103 287h-477l-104 -287h-275zM797 508l-68 192q-31 84 -55.5 160t-32.5 103
q-8 -27 -38 -113t-56 -152l-72 -190h322z" />
    <glyph glyph-name="aogonek" unicode="&#x105;" horiz-adv-x="1185" 
d="M1071 0q-57 -33 -86 -73t-29 -74q0 -29 20.5 -47.5t57.5 -18.5q27 0 64 12v-133q-61 -20 -119 -20q-86 0 -136 45t-50 112q0 53 33.5 105.5t99.5 91.5h145zM1069 918v-918h-244v117q-47 -66 -133 -105t-188 -39q-127 0 -225.5 59.5t-153.5 168t-55 252.5q0 147 57 259.5
t161.5 174t237.5 61.5q102 0 182 -34.5t130 -100.5l20 105h211zM745.5 275.5q67.5 70.5 67.5 187.5t-66.5 187.5t-175.5 70.5q-111 0 -176 -71.5t-65 -186.5t66.5 -186.5t172.5 -71.5q109 0 176.5 70.5z" />
    <glyph glyph-name="Cacute" unicode="&#x106;" horiz-adv-x="1470" 
d="M678 1493l311 334l127 -127l-362 -285zM399.5 58q-155.5 85 -242.5 240t-87 359q0 203 85 357.5t240.5 239.5t358.5 85q166 0 305 -57t229 -165.5t113 -254.5h-297q-27 102 -123 167t-231 65q-184 0 -292 -120t-108 -319q0 -201 109.5 -317.5t290.5 -116.5
q131 0 228 63.5t126 168.5h297q-20 -141 -108.5 -250t-228.5 -169.5t-310 -60.5q-199 0 -354.5 85z" />
    <glyph glyph-name="cacute" unicode="&#x107;" horiz-adv-x="1095" 
d="M485 1102l312 334l127 -127l-363 -285zM131.5 716.5q61.5 110.5 173 171t256.5 60.5q195 0 322 -102.5t143 -274.5h-260q-18 74 -73.5 113t-135.5 39q-102 0 -164.5 -71.5t-62.5 -192.5q0 -119 61.5 -190.5t165.5 -71.5q82 0 138.5 42t70.5 109h260q-18 -168 -146 -271.5
t-319 -103.5q-145 0 -256.5 60.5t-173 171t-61.5 256.5q0 145 61.5 255.5z" />
    <glyph glyph-name="Ccircumflex" unicode="&#x108;" horiz-adv-x="1470" 
d="M643 1772h221l211 -285l-117 -82l-204 215l-205 -215l-119 82zM399.5 58q-155.5 85 -242.5 240t-87 359q0 203 85 357.5t240.5 239.5t358.5 85q166 0 305 -57t229 -165.5t113 -254.5h-297q-27 102 -123 167t-231 65q-184 0 -292 -120t-108 -319q0 -201 109.5 -317.5
t290.5 -116.5q131 0 228 63.5t126 168.5h297q-20 -141 -108.5 -250t-228.5 -169.5t-310 -60.5q-199 0 -354.5 85z" />
    <glyph glyph-name="ccircumflex" unicode="&#x109;" horiz-adv-x="1095" 
d="M451 1380h221l211 -284l-117 -82l-205 215l-205 -215l-118 82zM131.5 716.5q61.5 110.5 173 171t256.5 60.5q195 0 322 -102.5t143 -274.5h-260q-18 74 -73.5 113t-135.5 39q-102 0 -164.5 -71.5t-62.5 -192.5q0 -119 61.5 -190.5t165.5 -71.5q82 0 138.5 42t70.5 109
h260q-18 -168 -146 -271.5t-319 -103.5q-145 0 -256.5 60.5t-173 171t-61.5 256.5q0 145 61.5 255.5z" />
    <glyph glyph-name="Cdotaccent" unicode="&#x10a;" horiz-adv-x="1470" 
d="M660.5 1458q-37.5 37 -37.5 90q0 57 37.5 93t93.5 36q55 0 91 -35.5t36 -93.5q0 -53 -37 -90t-90 -37q-56 0 -93.5 37zM399.5 58q-155.5 85 -242.5 240t-87 359q0 203 85 357.5t240.5 239.5t358.5 85q166 0 305 -57t229 -165.5t113 -254.5h-297q-27 102 -123 167t-231 65
q-184 0 -292 -120t-108 -319q0 -201 109.5 -317.5t290.5 -116.5q131 0 228 63.5t126 168.5h297q-20 -141 -108.5 -250t-228.5 -169.5t-310 -60.5q-199 0 -354.5 85z" />
    <glyph glyph-name="cdotaccent" unicode="&#x10b;" horiz-adv-x="1095" 
d="M468 1067q-38 37 -38 90q0 57 38 93t93 36t91 -36t36 -93q0 -53 -37 -90t-90 -37q-55 0 -93 37zM131.5 716.5q61.5 110.5 173 171t256.5 60.5q195 0 322 -102.5t143 -274.5h-260q-18 74 -73.5 113t-135.5 39q-102 0 -164.5 -71.5t-62.5 -192.5q0 -119 61.5 -190.5
t165.5 -71.5q82 0 138.5 42t70.5 109h260q-18 -168 -146 -271.5t-319 -103.5q-145 0 -256.5 60.5t-173 171t-61.5 256.5q0 145 61.5 255.5z" />
    <glyph glyph-name="Ccaron" unicode="&#x10c;" horiz-adv-x="1470" 
d="M549 1786l205 -215l204 215l119 -84l-213 -285h-221l-213 285zM399.5 58q-155.5 85 -242.5 240t-87 359q0 203 85 357.5t240.5 239.5t358.5 85q166 0 305 -57t229 -165.5t113 -254.5h-297q-27 102 -123 167t-231 65q-184 0 -292 -120t-108 -319q0 -201 109.5 -317.5
t290.5 -116.5q131 0 228 63.5t126 168.5h297q-20 -141 -108.5 -250t-228.5 -169.5t-310 -60.5q-199 0 -354.5 85z" />
    <glyph glyph-name="ccaron" unicode="&#x10d;" horiz-adv-x="1095" 
d="M356 1395l205 -215l205 215l119 -84l-213 -285h-221l-213 285zM131.5 716.5q61.5 110.5 173 171t256.5 60.5q195 0 322 -102.5t143 -274.5h-260q-18 74 -73.5 113t-135.5 39q-102 0 -164.5 -71.5t-62.5 -192.5q0 -119 61.5 -190.5t165.5 -71.5q82 0 138.5 42t70.5 109
h260q-18 -168 -146 -271.5t-319 -103.5q-145 0 -256.5 60.5t-173 171t-61.5 256.5q0 145 61.5 255.5z" />
    <glyph glyph-name="Dcaron" unicode="&#x10e;" horiz-adv-x="1384" 
d="M336 1759l205 -215l204 215l119 -84l-213 -284h-221l-213 284zM994.5 1229q150.5 -84 235.5 -234.5t85 -341.5q0 -190 -84 -338.5t-234.5 -231.5t-343.5 -83h-508v1313h508q191 0 341.5 -84zM924.5 354.5q109.5 112.5 109.5 298.5q0 188 -110.5 303t-294.5 115h-217v-829
h217q186 0 295.5 112.5z" />
    <glyph glyph-name="dcaron" unicode="&#x10f;" horiz-adv-x="1312" 
d="M821 1405h256v-1405h-239l-11 109q-47 -61 -129 -96.5t-174 -35.5q-137 0 -242.5 60.5t-163 170t-57.5 251.5q0 143 57.5 253.5t162 172t243.5 61.5q92 0 173 -29.5t124 -80.5v569zM1360 1405l-39 -440h-158v440h197zM743.5 277.5q69.5 70.5 69.5 187.5
q0 115 -68.5 184.5t-177.5 69.5t-178.5 -68.5t-69.5 -185.5t70 -187.5t178 -70.5q107 0 176.5 70.5z" />
    <glyph glyph-name="Dcroat" unicode="&#x110;" horiz-adv-x="1515" 
d="M1051.5 1229q150.5 -84 235.5 -234.5t85 -341.5q0 -190 -84 -338.5t-234.5 -231.5t-342.5 -83h-508v563h-121v185h121v565h508q190 0 340.5 -84zM982 354.5q110 112.5 110 298.5q0 188 -111 303t-295 115h-217v-323h190v-185h-190v-321h217q186 0 296 112.5z" />
    <glyph glyph-name="dcroat" unicode="&#x111;" horiz-adv-x="1187" 
d="M1247 1248v-169h-751v169h751zM1069 1405v-1405h-211l-16 123q-47 -68 -133 -109t-189 -41q-131 0 -233.5 60.5t-159.5 172t-57 255.5q0 143 57 254.5t159.5 172t233.5 60.5q96 0 173 -29.5t124 -84.5v571h252zM745.5 275.5q67.5 70.5 67.5 187.5t-66.5 187.5
t-175.5 70.5q-111 0 -176 -71.5t-65 -186.5t66.5 -186.5t172.5 -71.5q109 0 176.5 70.5z" />
    <glyph glyph-name="Emacron" unicode="&#x112;" horiz-adv-x="1101" 
d="M848 1577v-172h-557v172h557zM410 1071v-293h524v-231h-524v-305h587v-242h-852v1313h852v-242h-587z" />
    <glyph glyph-name="emacron" unicode="&#x113;" horiz-adv-x="1062" 
d="M825 1212v-172h-557v172h557zM850 60q-125 -87 -297 -87q-143 0 -253 61.5t-170 173t-60 255.5q0 145 60 255.5t169 170t248 59.5q135 0 238.5 -56t161 -156.5t57.5 -227.5q0 -51 -11 -119h-671q4 -94 67.5 -151.5t163.5 -57.5q74 0 128 30t77 81h248q-31 -144 -156 -231
zM743 559q-2 84 -59 132t-145 48q-92 0 -151.5 -49t-63.5 -131h419z" />
    <glyph glyph-name="Ebreve" unicode="&#x114;" horiz-adv-x="1101" 
d="M804 1471.5q-93 -80.5 -233 -80.5q-145 0 -237 84t-101 221h177q6 -63 50 -100t111 -37q68 0 110 36.5t46 100.5h178q-8 -144 -101 -224.5zM410 1071v-293h524v-231h-524v-305h587v-242h-852v1313h852v-242h-587z" />
    <glyph glyph-name="ebreve" unicode="&#x115;" horiz-adv-x="1062" 
d="M781 1107q-93 -81 -232 -81q-145 0 -237.5 84t-100.5 221h176q6 -63 50 -100t112 -37t109.5 37t46.5 100h178q-9 -143 -102 -224zM850 60q-125 -87 -297 -87q-143 0 -253 61.5t-170 173t-60 255.5q0 145 60 255.5t169 170t248 59.5q135 0 238.5 -56t161 -156.5
t57.5 -227.5q0 -51 -11 -119h-671q4 -94 67.5 -151.5t163.5 -57.5q74 0 128 30t77 81h248q-31 -144 -156 -231zM743 559q-2 84 -59 132t-145 48q-92 0 -151.5 -49t-63.5 -131h419z" />
    <glyph glyph-name="Edotaccent" unicode="&#x116;" horiz-adv-x="1101" 
d="M476 1431.5q-38 36.5 -38 90.5q0 57 38 93t93 36t91 -36t36 -93q0 -53 -36.5 -90t-90.5 -37q-55 0 -93 36.5zM410 1071v-293h524v-231h-524v-305h587v-242h-852v1313h852v-242h-587z" />
    <glyph glyph-name="edotaccent" unicode="&#x117;" horiz-adv-x="1062" 
d="M454 1067q-38 37 -38 90q0 57 38 93t93 36t91 -36t36 -93q0 -53 -37 -90t-90 -37q-55 0 -93 37zM850 60q-125 -87 -297 -87q-143 0 -253 61.5t-170 173t-60 255.5q0 145 60 255.5t169 170t248 59.5q135 0 238.5 -56t161 -156.5t57.5 -227.5q0 -51 -11 -119h-671
q4 -94 67.5 -151.5t163.5 -57.5q74 0 128 30t77 81h248q-31 -144 -156 -231zM743 559q-2 84 -59 132t-145 48q-92 0 -151.5 -49t-63.5 -131h419z" />
    <glyph glyph-name="Eogonek" unicode="&#x118;" horiz-adv-x="1101" 
d="M999 0q-57 -33 -85.5 -73t-28.5 -74q0 -29 20.5 -47.5t57.5 -18.5q27 0 63 12v-133q-61 -20 -119 -20q-86 0 -136 45t-50 112q0 53 33.5 105.5t99.5 91.5h145zM410 1071v-293h524v-231h-524v-305h587v-242h-852v1313h852v-242h-587z" />
    <glyph glyph-name="eogonek" unicode="&#x119;" horiz-adv-x="1062" 
d="M676 25q-57 -33 -86 -73t-29 -75q0 -29 20.5 -47t57.5 -18q27 0 63 12v-133q-61 -20 -118 -21q-86 0 -136.5 45t-50.5 113q0 53 34 105.5t99 91.5h146zM850 60q125 87 156 231h-248q-23 -51 -77 -81t-128 -30q-100 0 -163.5 57.5t-67.5 151.5h671q10 68 11 119
q0 127 -57.5 227.5t-161 156.5t-238.5 56q-139 0 -248 -59.5t-169 -170t-60 -255.5q0 -143 60 -255t170 -173.5t253 -61.5q172 0 297 87zM743 559h-419q4 82 63 131t152 49q88 0 145 -48t59 -132z" />
    <glyph glyph-name="Ecaron" unicode="&#x11a;" horiz-adv-x="1101" 
d="M365 1759l204 -215l205 215l119 -84l-213 -284h-221l-213 284zM410 1071v-293h524v-231h-524v-305h587v-242h-852v1313h852v-242h-587z" />
    <glyph glyph-name="ecaron" unicode="&#x11b;" horiz-adv-x="1062" 
d="M342 1395l205 -215l205 215l118 -84l-213 -285h-221l-213 285zM850 60q-125 -87 -297 -87q-143 0 -253 61.5t-170 173t-60 255.5q0 145 60 255.5t169 170t248 59.5q135 0 238.5 -56t161 -156.5t57.5 -227.5q0 -51 -11 -119h-671q4 -94 67.5 -151.5t163.5 -57.5
q74 0 128 30t77 81h248q-31 -144 -156 -231zM743 559q-2 84 -59 132t-145 48q-92 0 -151.5 -49t-63.5 -131h419z" />
    <glyph glyph-name="Gcircumflex" unicode="&#x11c;" horiz-adv-x="1472" 
d="M643 1772h221l211 -285l-117 -82l-204 215l-205 -215l-119 82zM1405 719v-131q0 -182 -85 -321.5t-235.5 -216.5t-343.5 -77q-201 0 -353 84t-235 236.5t-83 353.5q0 205 86 361.5t241.5 243.5t356.5 87q162 0 295 -57t219 -160.5t110 -238.5h-282q-35 100 -129.5 155.5
t-218.5 55.5q-186 0 -294 -121t-108 -322t107.5 -315.5t294.5 -114.5q147 0 247.5 70.5t122.5 200.5h-387v227h674z" />
    <glyph glyph-name="gcircumflex" unicode="&#x11d;" horiz-adv-x="1210" 
d="M539 1368h221l211 -250l-117 -72l-205 189l-205 -189l-118 72zM1061 918v-918q0 -137 -60.5 -240.5t-173 -160t-266.5 -56.5q-201 0 -333 105.5t-150 283.5h252q14 -82 77.5 -123.5t155.5 -41.5q115 0 178.5 60t63.5 163v153q-43 -59 -121 -94t-176 -35
q-127 0 -226.5 58.5t-155.5 163t-56 239.5q0 137 57 245.5t157.5 168t227.5 59.5q100 0 179 -38t120 -101l14 109h236zM730.5 305.5q66.5 69.5 66.5 175.5q0 109 -66.5 177.5t-171.5 68.5q-102 0 -165.5 -69.5t-63.5 -176.5q0 -109 65.5 -177t165.5 -68q103 0 169.5 69.5z
" />
    <glyph glyph-name="Gbreve" unicode="&#x11e;" horiz-adv-x="1472" 
d="M988 1498q-93 -81 -232 -81q-145 0 -237.5 84t-100.5 221h176q6 -63 50 -100t112 -37t109.5 37t45.5 100h179q-9 -143 -102 -224zM1405 719v-131q0 -182 -85 -321.5t-235.5 -216.5t-343.5 -77q-201 0 -353 84t-235 236.5t-83 353.5q0 205 86 361.5t241.5 243.5t356.5 87
q162 0 295 -57t219 -160.5t110 -238.5h-282q-35 100 -129.5 155.5t-218.5 55.5q-186 0 -294 -121t-108 -322t107.5 -315.5t294.5 -114.5q147 0 247.5 70.5t122.5 200.5h-387v227h674z" />
    <glyph glyph-name="gbreve" unicode="&#x11f;" horiz-adv-x="1169" 
d="M746.5 1107q-93.5 -81 -232.5 -81q-145 0 -237.5 84t-100.5 221h176q6 -63 50 -100t112 -37t110 37t46 100h178q-8 -143 -101.5 -224zM1061 918v-918q0 -137 -60.5 -240.5t-173 -160t-266.5 -56.5q-201 0 -333 105.5t-150 283.5h252q14 -82 77.5 -123.5t155.5 -41.5
q115 0 178.5 60t63.5 163v153q-43 -59 -121 -94t-176 -35q-127 0 -226.5 58.5t-155.5 163t-56 239.5q0 137 57 245.5t157.5 168t227.5 59.5q100 0 179 -38t120 -101l14 109h236zM730.5 305.5q66.5 69.5 66.5 175.5q0 109 -66.5 177.5t-171.5 68.5q-102 0 -165.5 -69.5
t-63.5 -176.5q0 -109 65.5 -177t165.5 -68q103 0 169.5 69.5z" />
    <glyph glyph-name="Gdotaccent" unicode="&#x120;" horiz-adv-x="1472" 
d="M660.5 1458q-37.5 37 -37.5 90q0 57 37.5 93t93.5 36q55 0 91 -35.5t36 -93.5q0 -53 -37 -90t-90 -37q-56 0 -93.5 37zM1405 719v-131q0 -182 -85 -321.5t-235.5 -216.5t-343.5 -77q-201 0 -353 84t-235 236.5t-83 353.5q0 205 86 361.5t241.5 243.5t356.5 87
q162 0 295 -57t219 -160.5t110 -238.5h-282q-35 100 -129.5 155.5t-218.5 55.5q-186 0 -294 -121t-108 -322t107.5 -315.5t294.5 -114.5q147 0 247.5 70.5t122.5 200.5h-387v227h674z" />
    <glyph glyph-name="gdotaccent" unicode="&#x121;" horiz-adv-x="1169" 
d="M419 1067q-38 37 -38 90q0 57 38 93t93 36t91 -36t36 -93q0 -53 -37 -90t-90 -37q-55 0 -93 37zM1061 918v-918q0 -137 -60.5 -240.5t-173 -160t-266.5 -56.5q-201 0 -333 105.5t-150 283.5h252q14 -82 77.5 -123.5t155.5 -41.5q115 0 178.5 60t63.5 163v153
q-43 -59 -121 -94t-176 -35q-127 0 -226.5 58.5t-155.5 163t-56 239.5q0 137 57 245.5t157.5 168t227.5 59.5q100 0 179 -38t120 -101l14 109h236zM730.5 305.5q66.5 69.5 66.5 175.5q0 109 -66.5 177.5t-171.5 68.5q-102 0 -165.5 -69.5t-63.5 -176.5q0 -109 65.5 -177
t165.5 -68q103 0 169.5 69.5z" />
    <glyph glyph-name="uni0122" unicode="&#x122;" horiz-adv-x="1472" 
d="M874.5 -127q36.5 -43 36.5 -113q0 -104 -64.5 -172.5t-180.5 -72.5v55q68 8 102.5 42t38.5 83q-25 -10 -47 -10q-47 0 -77 31.5t-30 78.5q0 53 36 87t91 34q58 0 94.5 -43zM1405 719v-131q0 -182 -85 -321.5t-235.5 -216.5t-343.5 -77q-201 0 -353 84t-235 236.5
t-83 353.5q0 205 86 361.5t241.5 243.5t356.5 87q162 0 295 -57t219 -160.5t110 -238.5h-282q-35 100 -129.5 155.5t-218.5 55.5q-186 0 -294 -121t-108 -322t107.5 -315.5t294.5 -114.5q147 0 247.5 70.5t122.5 200.5h-387v227h674z" />
    <glyph glyph-name="uni0123" unicode="&#x123;" horiz-adv-x="1169" 
d="M436 1104l312 334l126 -129l-362 -283zM1061 918v-918q0 -137 -60.5 -240.5t-173 -160t-266.5 -56.5q-201 0 -333 105.5t-150 283.5h252q14 -82 77.5 -123.5t155.5 -41.5q115 0 178.5 60t63.5 163v153q-43 -59 -121 -94t-176 -35q-127 0 -226.5 58.5t-155.5 163
t-56 239.5q0 137 57 245.5t157.5 168t227.5 59.5q100 0 179 -38t120 -101l14 109h236zM730.5 305.5q66.5 69.5 66.5 175.5q0 109 -66.5 177.5t-171.5 68.5q-102 0 -165.5 -69.5t-63.5 -176.5q0 -109 65.5 -177t165.5 -68q103 0 169.5 69.5z" />
    <glyph glyph-name="Hbar" unicode="&#x126;" horiz-adv-x="1357" 
d="M1365 1140v-204h-1341v204h1341zM145 1313h267v-535h549v535h268v-1313h-268v547h-549v-547h-267v1313z" />
    <glyph glyph-name="hbar" unicode="&#x127;" horiz-adv-x="1101" 
d="M632 1040h-618v183h618v-183zM119 1405h256v-586q41 61 115 95q75 34 161 34q162 0 251 -101t89 -278v-569h-254v510q0 121 -53 165t-115 44q-72 0 -134 -43t-62 -156v-520h-254v1405z" />
    <glyph glyph-name="Itilde" unicode="&#x128;" horiz-adv-x="540" 
d="M-25 1466q0 94 46.5 149.5t121.5 55.5q41 0 73 -13t81 -42q31 -18 52.5 -28.5t39.5 -10.5q37 0 50.5 22.5t11.5 69.5h124q6 -33 7 -65q0 -88 -47.5 -142.5t-124.5 -54.5q-41 0 -78 15.5t-82 41.5q-23 14 -46.5 24.5t-39.5 10.5q-37 0 -49.5 -30.5t-8.5 -73.5h-124
q-7 40 -7 71zM145 0v1313h267v-1313h-267z" />
    <glyph glyph-name="itilde" unicode="&#x129;" horiz-adv-x="493" 
d="M-55 1118q0 94 46 149.5t122 55.5q41 0 72.5 -13.5t80.5 -41.5q31 -18 52.5 -28.5t39.5 -10.5q37 0 50.5 22.5t11.5 69.5h125q6 -33 6 -66q0 -88 -47 -142t-125 -54q-41 0 -78 15.5t-82 41.5q-23 14 -46 24.5t-40 10.5q-37 0 -49 -30.5t-8 -73.5h-125q-6 40 -6 71z
M375 918v-918h-256v918h256z" />
    <glyph glyph-name="Imacron" unicode="&#x12a;" horiz-adv-x="540" 
d="M557 1577v-172h-557v172h557zM145 0v1313h267v-1313h-267z" />
    <glyph glyph-name="imacron" unicode="&#x12b;" horiz-adv-x="493" 
d="M526 1229v-172h-557v172h557zM375 918v-918h-256v918h256z" />
    <glyph glyph-name="Iogonek" unicode="&#x12e;" horiz-adv-x="540" 
d="M414 8q-57 -33 -86 -72.5t-29 -74.5q0 -29 20.5 -47.5t57.5 -18.5q27 0 63 12v-133q-61 -20 -118 -20q-86 0 -136.5 45t-50.5 113q0 53 34 105t99 91h146zM145 0v1313h267v-1313h-267z" />
    <glyph glyph-name="iogonek" unicode="&#x12f;" horiz-adv-x="493" 
d="M375 0q-57 -33 -86 -73t-29 -74q0 -29 20.5 -47.5t57.5 -18.5q27 0 63 12v-133q-61 -20 -118 -20q-86 0 -136.5 45t-50.5 112q0 53 34 105.5t99 91.5h146zM155 1083.5q-38 36.5 -38 90.5q0 57 38 93t93 36t91 -36t36 -93q0 -53 -37 -90t-90 -37q-55 0 -93 36.5zM375 918
v-918h-256v918h256z" />
    <glyph glyph-name="Idotaccent" unicode="&#x130;" horiz-adv-x="540" 
d="M185 1431.5q-38 36.5 -38 90.5q0 57 38 93t94 36q55 0 91 -36t36 -93q0 -53 -37 -90t-90 -37q-56 0 -94 36.5zM145 0v1313h267v-1313h-267z" />
    <glyph glyph-name="dotlessi" unicode="&#x131;" horiz-adv-x="493" 
d="M375 918v-918h-256v918h256z" />
    <glyph glyph-name="Jcircumflex" unicode="&#x134;" horiz-adv-x="1056" 
d="M487 1747h222l211 -285l-117 -82l-205 215l-205 -215l-119 82zM922 383q0 -188 -122 -299t-323 -111q-197 2 -314.5 114t-117.5 296v72h256v-62q0 -86 48 -133t128 -47q86 0 132 48t46 132v678h-395v242h662v-930z" />
    <glyph glyph-name="jcircumflex" unicode="&#x135;" horiz-adv-x="544" 
d="M170 1397h221l211 -285l-117 -82l-204 215l-205 -215l-119 82zM152 918h254v-1352h-254v1352z" />
    <glyph glyph-name="uni0136" unicode="&#x136;" horiz-adv-x="1275" 
d="M770 -106.5q37 -43.5 37 -112.5q0 -104 -64.5 -173t-181.5 -73v55q68 8 102.5 42t38.5 83q-25 -10 -47 -10q-47 0 -76.5 32t-29.5 79q0 53 36 87t91 34q57 0 94 -43.5zM801 748l452 -748h-321l-314 520l-206 -258v-266h-267v1317h267v-639l510 639h331z" />
    <glyph glyph-name="uni0137" unicode="&#x137;" horiz-adv-x="1052" 
d="M627 -106.5q37 -43.5 37 -112.5q0 -104 -64.5 -173t-181.5 -73v55q68 8 102.5 42t38.5 83q-25 -10 -47 -10q-47 0 -76.5 32t-29.5 79q0 53 35.5 87t90.5 34q58 0 95 -43.5zM698 578l312 -578h-289l-203 389l-143 -147v-242h-256v1405h256v-850l338 363h313z" />
    <glyph glyph-name="Lacute" unicode="&#x139;" horiz-adv-x="999" 
d="M203 1466l311 334l127 -127l-362 -284zM952 240v-240h-807v1313h269v-1073h538z" />
    <glyph glyph-name="lacute" unicode="&#x13a;" horiz-adv-x="493" 
d="M172 1563l311 333l127 -129l-362 -282zM119 1405h256v-1405h-256v1405z" />
    <glyph glyph-name="uni013B" unicode="&#x13b;" horiz-adv-x="999" 
d="M618.5 -106.5q36.5 -43.5 36.5 -112.5q0 -104 -64.5 -173t-180.5 -73v55q68 8 102.5 42t38.5 83q-25 -10 -47 -10q-47 0 -77 32t-30 79q0 53 36 87t91 34q58 0 94.5 -43.5zM952 240v-240h-807v1313h269v-1073h538z" />
    <glyph glyph-name="uni013C" unicode="&#x13c;" horiz-adv-x="493" 
d="M344 -106.5q37 -43.5 37 -112.5q0 -104 -64.5 -173t-181.5 -73v55q68 8 102.5 42t38.5 83q-25 -10 -47 -10q-47 0 -76.5 32t-29.5 79q0 53 36 87t91 34q57 0 94 -43.5zM119 1405h256v-1405h-256v1405z" />
    <glyph glyph-name="Lcaron" unicode="&#x13d;" horiz-adv-x="1040" 
d="M799 1298q37 -43 37 -112q0 -104 -64.5 -173t-181.5 -73v55q68 8 102.5 42t38.5 83q-25 -10 -47 -10q-47 0 -76.5 32t-29.5 79q0 53 35.5 86.5t91.5 33.5q57 0 94 -43zM952 240v-240h-807v1313h269v-1073h538z" />
    <glyph glyph-name="lcaron" unicode="&#x13e;" horiz-adv-x="493" 
d="M119 1405h256v-1405h-256v1405z" />
    <glyph glyph-name="Ldot" unicode="&#x13f;" horiz-adv-x="1040" 
d="M645.5 637q-40.5 40 -40.5 91q0 53 40 93t94 40q52 0 91.5 -39.5t39.5 -93.5q0 -52 -39 -91.5t-92 -39.5t-93.5 40zM952 240v-240h-807v1313h269v-1073h538z" />
    <glyph glyph-name="ldot" unicode="&#x140;" horiz-adv-x="839" 
d="M577 542.5q-41 40.5 -41 93.5q0 54 40.5 95t96.5 41q53 0 93.5 -40.5t40.5 -95.5q0 -53 -40 -93.5t-94 -40.5q-55 0 -96 40.5zM119 1405h256v-1405h-256v1405z" />
    <glyph glyph-name="Lslash" unicode="&#x141;" horiz-adv-x="999" 
d="M952 240v-240h-807v608l-139 -67v202l139 68v502h269v-375l217 104v-202l-217 -105v-495h538z" />
    <glyph glyph-name="lslash" unicode="&#x142;" horiz-adv-x="538" 
d="M500 803l-103 -49v-754h-256v631l-102 -49v182l102 49v592h256v-471l103 49v-180z" />
    <glyph glyph-name="Nacute" unicode="&#x143;" horiz-adv-x="1374" 
d="M621 1497l311 334l127 -127l-363 -285zM1231 1313v-1313h-248l-573 852v-852h-265v1313h248l576 -858v858h262z" />
    <glyph glyph-name="nacute" unicode="&#x144;" horiz-adv-x="1093" 
d="M471 1102l311 334l127 -127l-362 -285zM893 845.5q92 -102.5 92 -276.5v-569h-256v510q0 209 -168 209q-92 0 -140 -54.5t-48 -144.5v-520h-254v918h213l16 -107q43 63 121 100t170 37q162 0 254 -102.5z" />
    <glyph glyph-name="uni0145" unicode="&#x145;" horiz-adv-x="1374" 
d="M786.5 -106.5q36.5 -43.5 36.5 -112.5q0 -104 -64.5 -173t-180.5 -73v55q68 8 102.5 42t38.5 83q-25 -10 -47 -10q-47 0 -77 32t-30 79q0 53 36 87t91 34q58 0 94.5 -43.5zM1231 1313v-1313h-248l-573 852v-852h-265v1313h248l576 -858v858h262z" />
    <glyph glyph-name="uni0146" unicode="&#x146;" horiz-adv-x="1093" 
d="M647 -106.5q37 -43.5 37 -112.5q0 -104 -64.5 -173t-181.5 -73v55q68 8 102.5 42t39.5 83q-25 -10 -48 -10q-47 0 -76.5 32t-29.5 79q0 53 36 87t91 34q57 0 94 -43.5zM893 845.5q92 -102.5 92 -276.5v-569h-256v510q0 209 -168 209q-92 0 -140 -54.5t-48 -144.5v-520
h-254v918h213l16 -107q43 63 121 100t170 37q162 0 254 -102.5z" />
    <glyph glyph-name="Ncaron" unicode="&#x147;" horiz-adv-x="1374" 
d="M492 1790l204 -215l205 215l119 -84l-213 -285h-221l-213 285zM1231 1313v-1313h-248l-573 852v-852h-265v1313h248l576 -858v858h262z" />
    <glyph glyph-name="ncaron" unicode="&#x148;" horiz-adv-x="1093" 
d="M342 1395l205 -215l205 215l118 -84l-213 -285h-221l-213 285zM893 845.5q92 -102.5 92 -276.5v-569h-256v510q0 209 -168 209q-92 0 -140 -54.5t-48 -144.5v-520h-254v918h213l16 -107q43 63 121 100t170 37q162 0 254 -102.5z" />
    <glyph glyph-name="Eng" unicode="&#x14a;" horiz-adv-x="1419" 
d="M145 1313h263l606 -891v891h262v-1428q0 -160 -100.5 -233.5t-241.5 -73.5q-61 0 -113 12v199h92q123 0 123 137v74h-22l-606 887v-887h-263v1313z" />
    <glyph glyph-name="eng" unicode="&#x14b;" horiz-adv-x="1103" 
d="M119 918h235l21 -103q43 61 118.5 96t161.5 35q160 0 250 -102.5t90 -276.5v-637q0 -156 -86 -224t-202 -68q-61 0 -111 16v196q29 -4 41 -4q102 0 102 111v549q0 123 -51 167t-117 44q-76 0 -137 -43t-61 -156v-518h-254v918z" />
    <glyph glyph-name="Omacron" unicode="&#x14c;" horiz-adv-x="1538" 
d="M1047 1604v-172h-558v172h558zM1378 301q-90 -156 -249.5 -242t-360.5 -86t-359.5 86t-248.5 241t-90 355q0 199 90 354.5t248.5 242.5t359.5 87t360.5 -86t249.5 -241.5t90 -354.5q0 -200 -90 -356zM1132.5 883.5q-53.5 99.5 -148.5 154t-214 54.5q-121 0 -216 -55.5
t-149.5 -154t-54.5 -227.5t53.5 -227t148.5 -152.5t216 -54.5t215 55.5t148.5 154.5t54.5 226t-53.5 226.5z" />
    <glyph glyph-name="omacron" unicode="&#x14d;" horiz-adv-x="1153" 
d="M854 1212v-172h-557v172h557zM133.5 712.5q63.5 110.5 179 173t262.5 62.5t263 -62.5t179.5 -173t63.5 -251.5t-63.5 -252t-179 -173.5t-263.5 -62.5q-147 0 -261.5 62.5t-179 173t-64.5 252.5q0 141 63.5 251.5zM398.5 273.5q68.5 -74.5 176.5 -74.5q109 0 177.5 74.5
t68.5 187.5q0 115 -67.5 187.5t-178.5 72.5q-109 0 -177 -73t-68 -187q0 -113 68.5 -187.5z" />
    <glyph glyph-name="Ohungarumlaut" unicode="&#x150;" horiz-adv-x="1538" 
d="M502 1493l311 334l127 -127l-362 -285zM883 1493l311 334l123 -127l-361 -285zM1378 301q-90 -156 -249.5 -242t-360.5 -86t-359.5 86t-248.5 241t-90 355q0 199 90 354.5t248.5 242.5t359.5 87t360.5 -86t249.5 -241.5t90 -354.5q0 -200 -90 -356zM1132.5 883.5
q-53.5 99.5 -148.5 154t-214 54.5q-121 0 -216 -55.5t-149.5 -154t-54.5 -227.5t53.5 -227t148.5 -152.5t216 -54.5t215 55.5t148.5 154.5t54.5 226t-53.5 226.5z" />
    <glyph glyph-name="ohungarumlaut" unicode="&#x151;" horiz-adv-x="1153" 
d="M309 1102l312 334l127 -127l-363 -285zM690 1102l311 334l123 -127l-360 -285zM133.5 712.5q63.5 110.5 179 173t262.5 62.5t263 -62.5t179.5 -173t63.5 -251.5t-63.5 -252t-179 -173.5t-263.5 -62.5q-147 0 -261.5 62.5t-179 173t-64.5 252.5q0 141 63.5 251.5z
M398.5 273.5q68.5 -74.5 176.5 -74.5q109 0 177.5 74.5t68.5 187.5q0 115 -67.5 187.5t-178.5 72.5q-109 0 -177 -73t-68 -187q0 -113 68.5 -187.5z" />
    <glyph glyph-name="OE" unicode="&#x152;" horiz-adv-x="2269" 
d="M1540 1133v-316h559v-237h-559v-330h625v-250h-889v160q-78 -86 -204 -135.5t-273 -49.5q-221 0 -386 91.5t-254 253t-89 366.5q0 209 91 373t256 257t378 93q156 0 282.5 -48t198.5 -130v153l889 -2v-249h-625zM1048.5 293q104.5 57 163 160.5t58.5 238.5t-58.5 239.5
t-163 162t-237.5 57.5q-135 0 -240.5 -57.5t-164 -162t-58.5 -237.5t58.5 -237.5t164 -162.5t240.5 -58q133 0 237.5 57z" />
    <glyph glyph-name="oe" unicode="&#x153;" horiz-adv-x="1908" 
d="M1685.5 60q-124.5 -87 -296.5 -87q-143 0 -253 61.5t-170.5 173t-60.5 255.5q0 145 60.5 255.5t169 170t247.5 59.5q135 0 238.5 -56t161 -156.5t57.5 -227.5q0 -51 -10 -119h-672q4 -94 67.5 -151.5t164.5 -57.5q74 0 128 30t76 81h248q-31 -144 -155.5 -231zM1579 559
q-2 84 -59.5 132t-145.5 48q-92 0 -151.5 -49t-63.5 -131h420zM133.5 712.5q63.5 110.5 179 173t262.5 62.5t263 -62.5t179.5 -173t63.5 -251.5t-63.5 -252t-179 -173.5t-263.5 -62.5q-147 0 -261.5 62.5t-179 173t-64.5 252.5q0 141 63.5 251.5zM398.5 273.5
q68.5 -74.5 176.5 -74.5q109 0 177.5 74.5t68.5 187.5q0 115 -67.5 187.5t-178.5 72.5q-109 0 -177 -73t-68 -187q0 -113 68.5 -187.5z" />
    <glyph glyph-name="Racute" unicode="&#x154;" horiz-adv-x="1253" 
d="M487 1468l312 334l127 -127l-363 -284zM145 1313h523q250 0 376.5 -107.5t126.5 -310.5q0 -135 -60 -231.5t-173 -143.5l244 -520h-299l-211 475h-260v-475h-267v1313zM668 707q113 0 168 52t55 134q0 84 -55.5 136t-167.5 52h-256v-374h256z" />
    <glyph glyph-name="racute" unicode="&#x155;" horiz-adv-x="708" 
d="M162 1071l311 334l127 -127l-362 -285zM678 918v-220q-16 2 -49 2q-123 0 -188.5 -66.5t-65.5 -187.5v-446h-256v918h231l21 -132q20 70 80.5 106t142.5 36q53 0 84 -10z" />
    <glyph glyph-name="uni0156" unicode="&#x156;" horiz-adv-x="1253" 
d="M743.5 -104q36.5 -43 36.5 -113q0 -104 -64.5 -173t-180.5 -73v55q68 8 102.5 42t38.5 83q-25 -10 -47 -10q-47 0 -77 32t-30 79q0 53 36 87t91 34q58 0 94.5 -43zM145 1313h523q250 0 376.5 -107.5t126.5 -310.5q0 -135 -60 -231.5t-173 -143.5l244 -520h-299l-211 475
h-260v-475h-267v1313zM668 707q113 0 168 52t55 134q0 84 -55.5 136t-167.5 52h-256v-374h256z" />
    <glyph glyph-name="uni0157" unicode="&#x157;" horiz-adv-x="708" 
d="M344 -106.5q37 -43.5 37 -112.5q0 -104 -64.5 -173t-181.5 -73v55q68 8 102.5 42t38.5 83q-25 -10 -47 -10q-47 0 -76.5 32t-29.5 79q0 53 36 87t91 34q57 0 94 -43.5zM678 918v-220q-16 2 -49 2q-123 0 -188.5 -66.5t-65.5 -187.5v-446h-256v918h231l21 -132
q20 70 80.5 106t142.5 36q53 0 84 -10z" />
    <glyph glyph-name="Rcaron" unicode="&#x158;" horiz-adv-x="1253" 
d="M358 1761l205 -215l205 215l119 -84l-213 -284h-221l-213 284zM145 1313h523q250 0 376.5 -107.5t126.5 -310.5q0 -135 -60 -231.5t-173 -143.5l244 -520h-299l-211 475h-260v-475h-267v1313zM668 707q113 0 168 52t55 134q0 84 -55.5 136t-167.5 52h-256v-374h256z" />
    <glyph glyph-name="rcaron" unicode="&#x159;" horiz-adv-x="708" 
d="M33 1364l205 -215l204 215l119 -84l-213 -285h-221l-213 285zM678 918v-220q-16 2 -49 2q-123 0 -188.5 -66.5t-65.5 -187.5v-446h-256v918h231l21 -132q20 70 80.5 106t142.5 36q53 0 84 -10z" />
    <glyph glyph-name="Sacute" unicode="&#x15a;" horiz-adv-x="1167" 
d="M506 1493l311 334l127 -127l-362 -285zM161.5 1147q59.5 92 169 142t253.5 50q141 0 248.5 -49t169 -138t61.5 -208h-275q-2 78 -62 124t-157 46q-88 0 -140 -41t-52 -108q0 -68 45 -99.5t127 -50.5l211 -51q160 -35 249 -132t89 -243q0 -127 -62.5 -221t-177.5 -144.5
t-266 -50.5q-227 0 -368.5 110t-153.5 300h274q4 -86 71.5 -135t178.5 -49q104 0 163.5 43t59.5 118q0 63 -40 96t-109 52l-217 53q-172 39 -260.5 134.5t-88.5 236.5q0 123 59.5 215z" />
    <glyph glyph-name="sacute" unicode="&#x15b;" horiz-adv-x="931" 
d="M391 1102l311 334l127 -127l-362 -285zM188.5 55q-108.5 82 -118.5 219h252q2 -53 43 -82.5t104 -29.5q59 0 94 23.5t35 66.5t-26.5 61.5t-71.5 28.5l-152 35q-131 31 -193.5 100.5t-62.5 169.5q0 135 103.5 218t271.5 83q164 0 267.5 -82t107.5 -215h-250q-2 49 -37 78
t-94 29q-51 0 -82 -22.5t-31 -63.5q0 -39 24.5 -55.5t76.5 -28.5l176 -41q121 -29 178 -99.5t57 -168.5q0 -139 -106.5 -222.5t-282.5 -83.5q-174 0 -282.5 82z" />
    <glyph glyph-name="Scircumflex" unicode="&#x15c;" horiz-adv-x="1167" 
d="M471 1772h221l211 -285l-117 -82l-204 215l-205 -215l-119 82zM161.5 1147q59.5 92 169 142t253.5 50q141 0 248.5 -49t169 -138t61.5 -208h-275q-2 78 -62 124t-157 46q-88 0 -140 -41t-52 -108q0 -68 45 -99.5t127 -50.5l211 -51q160 -35 249 -132t89 -243
q0 -127 -62.5 -221t-177.5 -144.5t-266 -50.5q-227 0 -368.5 110t-153.5 300h274q4 -86 71.5 -135t178.5 -49q104 0 163.5 43t59.5 118q0 63 -40 96t-109 52l-217 53q-172 39 -260.5 134.5t-88.5 236.5q0 123 59.5 215z" />
    <glyph glyph-name="scircumflex" unicode="&#x15d;" horiz-adv-x="931" 
d="M356 1380h222l210 -284l-116 -82l-205 215l-205 -215l-119 82zM188.5 55q-108.5 82 -118.5 219h252q2 -53 43 -82.5t104 -29.5q59 0 94 23.5t35 66.5t-26.5 61.5t-71.5 28.5l-152 35q-131 31 -193.5 100.5t-62.5 169.5q0 135 103.5 218t271.5 83q164 0 267.5 -82
t107.5 -215h-250q-2 49 -37 78t-94 29q-51 0 -82 -22.5t-31 -63.5q0 -39 24.5 -55.5t76.5 -28.5l176 -41q121 -29 178 -99.5t57 -168.5q0 -139 -106.5 -222.5t-282.5 -83.5q-174 0 -282.5 82z" />
    <glyph glyph-name="Scedilla" unicode="&#x15e;" horiz-adv-x="1167" 
d="M618 -92q72 0 128.5 -45t56.5 -137q0 -100 -74 -155.5t-178 -55.5q-90 0 -160 41v131q20 -20 56 -33.5t73 -13.5q49 0 82 22.5t33 69.5q0 41 -28.5 63.5t-74.5 22.5q-23 0 -47 -6l-55 59l145 215h93v-72l-76 -108q8 2 26 2zM161.5 1147q-59.5 -92 -59.5 -215
q0 -141 88.5 -236.5t260.5 -134.5l217 -53q70 -18 109.5 -51t39.5 -97q0 -76 -59.5 -118.5t-163.5 -42.5q-111 0 -178.5 49t-71.5 135h-274q12 -190 153.5 -300t368.5 -110q152 0 266.5 50.5t177 144.5t62.5 221q0 145 -89 242.5t-249 132.5l-211 51q-82 18 -127 50t-45 100
t52 108.5t140 40.5q96 0 156.5 -46t62.5 -124h275q0 119 -61.5 208t-169 138t-248.5 49q-143 0 -253 -50t-169.5 -142z" />
    <glyph glyph-name="scedilla" unicode="&#x15f;" horiz-adv-x="931" 
d="M496 -82q72 0 128 -45t56 -137q0 -100 -74 -155.5t-178 -55.5q-90 0 -160 41v131q20 -20 56 -33.5t73 -13.5q49 0 82 22.5t33 69.5q0 41 -28.5 63.5t-73.5 22.5q-23 0 -48 -6l-55 59l146 215h92v-71l-76 -109q9 2 27 2zM188.5 55q108.5 -82 282.5 -82q176 0 282.5 83
t106.5 223q0 98 -57.5 168.5t-177.5 99.5l-176 41q-51 12 -76 28.5t-25 55.5q0 41 31 63.5t82 22.5q59 0 94 -29t37 -78h250q-4 133 -107.5 215t-267.5 82q-168 0 -271.5 -83t-103.5 -218q0 -100 62.5 -169.5t193.5 -100.5l152 -35q45 -10 71.5 -28.5t26.5 -61.5t-35 -66.5
t-94 -23.5q-63 0 -104 29.5t-43 82.5h-252q10 -137 118.5 -219z" />
    <glyph glyph-name="Scaron" unicode="&#x160;" horiz-adv-x="1167" 
d="M377 1786l205 -215l204 215l119 -84l-213 -285h-221l-213 285zM161.5 1147q59.5 92 169 142t253.5 50q141 0 248.5 -49t169 -138t61.5 -208h-275q-2 78 -62 124t-157 46q-88 0 -140 -41t-52 -108q0 -68 45 -99.5t127 -50.5l211 -51q160 -35 249 -132t89 -243
q0 -127 -62.5 -221t-177.5 -144.5t-266 -50.5q-227 0 -368.5 110t-153.5 300h274q4 -86 71.5 -135t178.5 -49q104 0 163.5 43t59.5 118q0 63 -40 96t-109 52l-217 53q-172 39 -260.5 134.5t-88.5 236.5q0 123 59.5 215z" />
    <glyph glyph-name="scaron" unicode="&#x161;" horiz-adv-x="931" 
d="M262 1395l205 -215l205 215l119 -84l-213 -285h-222l-213 285zM188.5 55q-108.5 82 -118.5 219h252q2 -53 43 -82.5t104 -29.5q59 0 94 23.5t35 66.5t-26.5 61.5t-71.5 28.5l-152 35q-131 31 -193.5 100.5t-62.5 169.5q0 135 103.5 218t271.5 83q164 0 267.5 -82
t107.5 -215h-250q-2 49 -37 78t-94 29q-51 0 -82 -22.5t-31 -63.5q0 -39 24.5 -55.5t76.5 -28.5l176 -41q121 -29 178 -99.5t57 -168.5q0 -139 -106.5 -222.5t-282.5 -83.5q-174 0 -282.5 82z" />
    <glyph glyph-name="uni0162" unicode="&#x162;" horiz-adv-x="1124" 
d="M641 -106q72 0 128 -45.5t56 -137.5q0 -100 -73.5 -155.5t-178.5 -55.5q-90 0 -159 41v131q20 -20 56 -33.5t73 -13.5q49 0 81.5 22.5t32.5 69.5q0 41 -28.5 63.5t-73.5 22.5q-23 0 -47 -6l-55 60l145 215h92v-72l-76 -109q9 3 27 3zM1092 1071h-396v-1071h-266v1071
h-397v242h1059v-242z" />
    <glyph glyph-name="uni0163" unicode="&#x163;" horiz-adv-x="665" 
d="M412 -106q72 0 128 -45.5t56 -137.5q0 -100 -73.5 -155.5t-178.5 -55.5q-90 0 -160 41v131q20 -20 56 -33.5t73 -13.5q49 0 82 22.5t33 69.5q0 41 -28.5 63.5t-73.5 22.5q-23 0 -47 -6l-56 60l146 215h92v-72l-76 -109q9 3 27 3zM633 709h-174v-709h-254v709h-172v209
h172v239h254v-239h174v-209z" />
    <glyph glyph-name="Tcaron" unicode="&#x164;" horiz-adv-x="1124" 
d="M356 1759l205 -215l205 215l119 -84l-213 -284h-221l-213 284zM1092 1071h-396v-1071h-266v1071h-397v242h1059v-242z" />
    <glyph glyph-name="tcaron" unicode="&#x165;" horiz-adv-x="665" 
d="M717 1393l-43 -389h-131v389h174zM459 918h174v-216h-174v-702h-254v702h-172v216h172v239h254v-239z" />
    <glyph glyph-name="Tbar" unicode="&#x166;" horiz-adv-x="1124" 
d="M1014 807v-227h-871v227h871zM1092 1071h-396v-1071h-266v1071h-397v242h1059v-242z" />
    <glyph glyph-name="tbar" unicode="&#x167;" horiz-adv-x="665" 
d="M634 364h-602v190h602v-190zM633 709h-174v-709h-254v709h-172v209h172v239h254v-239h174v-209z" />
    <glyph glyph-name="Utilde" unicode="&#x168;" horiz-adv-x="1384" 
d="M389 1466q0 94 46 149.5t122 55.5q41 0 73 -13t81 -42q31 -18 52 -28.5t40 -10.5q37 0 50 22.5t11 69.5h125q6 -33 6 -65q0 -88 -47 -142.5t-125 -54.5q-41 0 -77.5 15.5t-81.5 41.5q-23 14 -46.5 24.5t-39.5 10.5q-37 0 -49.5 -30.5t-8.5 -73.5h-125q-6 40 -6 71z
M135 1313h266v-821q0 -141 81 -209t210 -68q137 0 215 70.5t78 206.5v821h266v-832q0 -162 -71.5 -276.5t-197.5 -173t-290 -58.5q-254 0 -405.5 134.5t-151.5 373.5v832z" />
    <glyph glyph-name="utilde" unicode="&#x169;" horiz-adv-x="1075" 
d="M236 1073q0 94 46 149.5t121 55.5q41 0 73 -13.5t81 -41.5q31 -18 52.5 -28.5t39.5 -10.5q37 0 50.5 22.5t11.5 69.5h125q6 -33 6 -66q0 -88 -47 -142t-125 -54q-41 0 -78 15t-82 42q-23 14 -46.5 24.5t-39.5 10.5q-37 0 -49.5 -31t-7.5 -74h-125q-6 41 -6 72zM965 918
v-918h-211l-17 109q-49 -68 -121.5 -102t-164.5 -34q-164 0 -253 98.5t-89 264.5v582h256v-541q0 -98 44 -140t126 -42t129 53t47 141v529h254z" />
    <glyph glyph-name="Umacron" unicode="&#x16a;" horiz-adv-x="1384" 
d="M971 1577v-172h-557v172h557zM135 1313h266v-821q0 -141 81 -209t210 -68q137 0 215 70.5t78 206.5v821h266v-832q0 -162 -71.5 -276.5t-197.5 -173t-290 -58.5q-254 0 -405.5 134.5t-151.5 373.5v832z" />
    <glyph glyph-name="umacron" unicode="&#x16b;" horiz-adv-x="1075" 
d="M817 1184v-172h-557v172h557zM965 918v-918h-211l-17 109q-49 -68 -121.5 -102t-164.5 -34q-164 0 -253 98.5t-89 264.5v582h256v-541q0 -98 44 -140t126 -42t129 53t47 141v529h254z" />
    <glyph glyph-name="Uring" unicode="&#x16e;" horiz-adv-x="1384" 
d="M499.5 1433.5q-71.5 73.5 -71.5 174.5q0 102 71.5 174.5t192.5 72.5q78 0 138.5 -34.5t93 -92t32.5 -120.5q0 -66 -31.5 -122t-92 -91t-140.5 -35q-121 0 -192.5 73.5zM765 1536q30 31 30 76q0 41 -30 71.5t-73 30.5q-41 0 -71.5 -29.5t-30.5 -72.5q0 -45 29.5 -76
t72.5 -31t73 31zM135 1313h266v-821q0 -141 81 -209t210 -68q137 0 215 70.5t78 206.5v821h266v-832q0 -162 -71.5 -276.5t-197.5 -173t-290 -58.5q-254 0 -405.5 134.5t-151.5 373.5v832z" />
    <glyph glyph-name="uring" unicode="&#x16f;" horiz-adv-x="1075" 
d="M346 1040.5q-72 73.5 -72 173.5q0 102 72 175t193 73q78 0 138 -34.5t93 -92t33 -121.5q0 -66 -32 -122t-92.5 -90.5t-139.5 -34.5q-121 0 -193 73.5zM611.5 1143q29.5 31 29.5 76q0 41 -29.5 71.5t-72.5 30.5q-41 0 -72 -29.5t-31 -72.5q0 -45 30 -76t73 -31t72.5 31z
M965 918v-918h-211l-17 109q-49 -68 -121.5 -102t-164.5 -34q-164 0 -253 98.5t-89 264.5v582h256v-541q0 -98 44 -140t126 -42t129 53t47 141v529h254z" />
    <glyph glyph-name="Uhungarumlaut" unicode="&#x170;" horiz-adv-x="1384" 
d="M426 1468l311 334l127 -129l-362 -282zM807 1468l311 334l123 -129l-360 -282zM135 1313h266v-821q0 -141 81 -209t210 -68q137 0 215 70.5t78 206.5v821h266v-832q0 -162 -71.5 -276.5t-197.5 -173t-290 -58.5q-254 0 -405.5 134.5t-151.5 373.5v832z" />
    <glyph glyph-name="uhungarumlaut" unicode="&#x171;" horiz-adv-x="1075" 
d="M272 1075l312 334l127 -129l-363 -283zM653 1075l312 334l122 -129l-360 -283zM965 918v-918h-211l-17 109q-49 -68 -121.5 -102t-164.5 -34q-164 0 -253 98.5t-89 264.5v582h256v-541q0 -98 44 -140t126 -42t129 53t47 141v529h254z" />
    <glyph glyph-name="Uogonek" unicode="&#x172;" horiz-adv-x="1384" 
d="M819 -10q-57 -33 -85.5 -73t-28.5 -75q0 -29 20 -47t57 -18q27 0 64 12v-133q-61 -20 -119 -21q-86 0 -136 45.5t-50 112.5q0 53 33.5 105.5t99.5 91.5h145zM135 1313h266v-821q0 -141 81 -209t210 -68q137 0 215 70.5t78 206.5v821h266v-832q0 -162 -71.5 -276.5
t-197.5 -173t-290 -58.5q-254 0 -405.5 134.5t-151.5 373.5v832z" />
    <glyph glyph-name="uogonek" unicode="&#x173;" horiz-adv-x="1075" 
d="M967 0q-57 -33 -86 -73t-29 -74q0 -29 20.5 -47.5t57.5 -18.5q27 0 63 12v-133q-61 -20 -119 -20q-86 0 -136 45t-50 112q0 53 34 105.5t99 91.5h146zM965 918v-918h-211l-17 109q-49 -68 -121.5 -102t-164.5 -34q-164 0 -253 98.5t-89 264.5v582h256v-541q0 -98 44 -140
t126 -42t129 53t47 141v529h254z" />
    <glyph glyph-name="Wcircumflex" unicode="&#x174;" horiz-adv-x="1931" 
d="M854 1745h221l213 -285l-119 -82l-204 215l-205 -215l-119 82zM309 1313l142 -467q51 -170 79.5 -285t34.5 -143q39 121 125 420q119 393 133 440h289l166 -551l92 -309q0 8 31 134t84 294l141 467h285l-414 -1313h-258l-80 256q-57 182 -114.5 375.5t-77.5 269.5
q-20 -72 -85 -293t-106 -352l-80 -256h-258l-413 1313h284z" />
    <glyph glyph-name="wcircumflex" unicode="&#x175;" horiz-adv-x="1542" 
d="M666 1352h221l213 -285l-119 -82l-205 215l-205 -215l-118 82zM307 918l70 -234q70 -240 92 -346q51 174 99 333.5t71 229.5h268q23 -72 73 -251t87 -328q33 133 96 348l76 248h270l-323 -918h-248q-63 207 -109.5 374t-56.5 212q-61 -236 -172 -586h-260l-307 918h274z
" />
    <glyph glyph-name="Ycircumflex" unicode="&#x176;" horiz-adv-x="1245" 
d="M518 1745h221l213 -285l-118 -82l-205 215l-205 -215l-119 82zM328 1313l143 -250q63 -113 104 -187.5t52 -97.5q10 23 54 105t101 180l144 250h299l-467 -793v-520h-269v520l-471 793h310z" />
    <glyph glyph-name="ycircumflex" unicode="&#x177;" horiz-adv-x="1069" 
d="M428 1352h221l213 -285l-119 -82l-204 215l-205 -215l-119 82zM1044 918l-423 -1074q-51 -129 -135.5 -208.5t-249.5 -79.5q-80 0 -175 22l2 207q86 -14 130 -14q96 0 136 35.5t68 107.5l19 51l-393 953h276l236 -642l241 642h268z" />
    <glyph glyph-name="Ydieresis" unicode="&#x178;" horiz-adv-x="1245" 
d="M341 1425.5q-38 36.5 -38 90.5q0 57 38 93t93 36t91 -36t36 -93q0 -53 -37 -90t-90 -37q-55 0 -93 36.5zM732 1425.5q-38 36.5 -38 90.5q0 57 38 93t93 36t92 -36t37 -93q0 -53 -36.5 -90t-92.5 -37q-55 0 -93 36.5zM328 1313l143 -250q63 -113 104 -187.5t52 -97.5
q10 23 54 105t101 180l144 250h299l-467 -793v-520h-269v520l-471 793h310z" />
    <glyph glyph-name="Zacute" unicode="&#x179;" horiz-adv-x="1124" 
d="M492 1466l311 334l127 -127l-363 -284zM1049 1108l-627 -866h622v-242h-968v215l626 856h-614v242h961v-205z" />
    <glyph glyph-name="zacute" unicode="&#x17a;" horiz-adv-x="921" 
d="M385 1073l311 334l127 -127l-362 -285zM84 223l434 471h-434v224h754v-226l-447 -465h447v-227h-754v223z" />
    <glyph glyph-name="Zdotaccent" unicode="&#x17b;" horiz-adv-x="1124" 
d="M474 1431.5q-38 36.5 -38 90.5q0 57 38 93t93 36t91 -36t36 -93q0 -53 -36.5 -90t-90.5 -37q-55 0 -93 36.5zM1049 1108l-627 -866h622v-242h-968v215l626 856h-614v242h961v-205z" />
    <glyph glyph-name="zdotaccent" unicode="&#x17c;" horiz-adv-x="921" 
d="M368 1038q-38 37 -38 90q0 57 38 93t93 36t91 -35.5t36 -93.5q0 -53 -37 -90t-90 -37q-55 0 -93 37zM84 223l434 471h-434v224h754v-226l-447 -465h447v-227h-754v223z" />
    <glyph glyph-name="Zcaron" unicode="&#x17d;" horiz-adv-x="1124" 
d="M362 1759l205 -215l205 215l119 -84l-213 -284h-221l-213 284zM1049 1108l-627 -866h622v-242h-968v215l626 856h-614v242h961v-205z" />
    <glyph glyph-name="zcaron" unicode="&#x17e;" horiz-adv-x="921" 
d="M256 1366l205 -215l205 215l118 -84l-213 -285h-221l-213 285zM84 223l434 471h-434v224h754v-226l-447 -465h447v-227h-754v223z" />
    <glyph glyph-name="florin" unicode="&#x192;" horiz-adv-x="1296" 
d="M850 1050q-45 -40 -59 -128l-9 -56h348v-188h-378l-56 -348q-29 -178 -136 -254t-292 -76h-164v223h134q102 0 151 46t66 157l41 252h-246v188h276l19 107q31 190 137 265t299 75h149v-223h-135q-100 0 -145 -40z" />
    <glyph glyph-name="Aringacute" unicode="&#x1fa;" horiz-adv-x="1275" 
d="M579 1662l365 275l103 -148l-406 -217zM446.5 1290.5q71.5 -73.5 192.5 -73.5q80 0 140.5 34.5t92 91t31.5 121.5q0 63 -32.5 120.5t-93 92.5t-138.5 35q-121 0 -192.5 -72.5t-71.5 -175.5q0 -100 71.5 -173.5zM711.5 1392.5q-29.5 -30.5 -72.5 -30.5t-72.5 30.5
t-29.5 75.5q0 43 30.5 73t71.5 30q43 0 72.5 -31t29.5 -72q0 -45 -29.5 -75.5zM506 1313h264l487 -1313h-280l-103 287h-477l-104 -287h-275zM797 508l-68 192q-31 84 -55.5 160t-32.5 103q-8 -27 -38 -113t-56 -152l-72 -190h322z" />
    <glyph glyph-name="aringacute" unicode="&#x1fb;" horiz-adv-x="1181" 
d="M573 1163l312 334l127 -127l-363 -285zM336 901q72 -74 192 -74q80 0 140.5 35t92.5 91.5t32 121.5q0 63 -33 120.5t-93.5 92.5t-138.5 35q-121 0 -192.5 -72.5t-71.5 -175.5q0 -100 72 -174zM601 1003.5q-30 -30.5 -73 -30.5t-72.5 30.5t-29.5 75.5q0 43 30.5 73
t71.5 30q43 0 73 -31t30 -72q0 -45 -30 -75.5zM1069 918v-918h-244v117q-47 -66 -133 -105t-188 -39q-127 0 -225.5 59.5t-153.5 168t-55 252.5q0 147 57 259.5t161.5 174t237.5 61.5q102 0 182 -34.5t130 -100.5l20 105h211zM745.5 275.5q67.5 70.5 67.5 187.5t-66.5 187.5
t-175.5 70.5q-111 0 -176 -71.5t-65 -186.5t66.5 -186.5t172.5 -71.5q109 0 176.5 70.5z" />
    <glyph glyph-name="AEacute" unicode="&#x1fc;" horiz-adv-x="1769" 
d="M979 1497l311 334l127 -127l-362 -285zM1061 1063v-279l541 -2v-239l-541 2v-293l604 -2v-250l-604 2v-2h-252v303h-369l-118 -303h-304l543 1313h1104v-252zM809 1063h-72l-207 -531h279v531z" />
    <glyph glyph-name="aeacute" unicode="&#x1fd;" horiz-adv-x="1679" 
d="M752 1118l311 334l127 -127l-363 -285zM1614 287q-35 -141 -159 -226.5t-298 -85.5q-127 0 -225 46.5t-150 128.5q-49 -82 -141 -129.5t-215 -47.5q-162 0 -258 80t-96 213t97 212t273 79h220v37q0 78 -46.5 119t-128.5 41q-78 0 -126 -35t-52 -94h-215q6 145 120 234
t292 89q104 0 183 -34.5t128 -100.5q59 66 145.5 99.5t188.5 33.5q133 0 237.5 -56t162 -155.5t57.5 -224.5q0 -41 -5.5 -76t-7.5 -45h-667q2 -88 64.5 -146.5t168.5 -58.5q74 0 130.5 28t76.5 75h246zM991.5 687q-57.5 -50 -61.5 -130h420q-2 82 -60.5 131t-148.5 49
q-92 0 -149.5 -50zM664 391h-160q-94 0 -134 -32.5t-40 -86.5q0 -53 38 -81.5t103 -28.5q90 0 141.5 52t51.5 140v37z" />
    <glyph glyph-name="Oslashacute" unicode="&#x1fe;" horiz-adv-x="1538" 
d="M723 1540l311 334l127 -127l-362 -285zM1128.5 1255q159.5 -86 249.5 -241.5t90 -354.5q0 -201 -90 -356.5t-249.5 -241.5t-360.5 -86t-359.5 86t-248.5 241t-90 355q0 199 90 354.5t248.5 242.5t359.5 87t360.5 -86zM554 1038.5q-95 -55.5 -149.5 -154t-54.5 -227.5
q0 -88 25.5 -163.5t75.5 -131.5l444 715q-61 16 -125 17q-121 0 -216 -55.5zM983 278.5q94 55.5 148.5 154.5t54.5 226q0 90 -29 169t-80 137l-442 -723q61 -18 133 -19q121 0 215 55.5z" />
    <glyph glyph-name="oslashacute" unicode="&#x1ff;" horiz-adv-x="1153" 
d="M500 1102l311 334l127 -127l-363 -285zM182 -19l653 1039l143 -86l-655 -1040zM133.5 712.5q63.5 110.5 179 173t262.5 62.5t263 -62.5t179.5 -173t63.5 -251.5t-63.5 -252t-179 -173.5t-263.5 -62.5q-147 0 -261.5 62.5t-179 173t-64.5 252.5q0 141 63.5 251.5z
M398.5 273.5q68.5 -74.5 176.5 -74.5q109 0 177.5 74.5t68.5 187.5q0 115 -67.5 187.5t-178.5 72.5q-109 0 -177 -73t-68 -187q0 -113 68.5 -187.5z" />
    <glyph glyph-name="uni0218" unicode="&#x218;" horiz-adv-x="1167" 
d="M678 -143q37 -43 37 -113q0 -104 -64.5 -173t-181.5 -73v56q68 8 102.5 41.5t38.5 82.5q-25 -10 -47 -10q-47 0 -76.5 32t-29.5 79q0 53 35.5 87t91.5 34q57 0 94 -43zM161.5 1147q59.5 92 169 142t253.5 50q141 0 248.5 -49t169 -138t61.5 -208h-275q-2 78 -62 124
t-157 46q-88 0 -140 -41t-52 -108q0 -68 45 -99.5t127 -50.5l211 -51q160 -35 249 -132t89 -243q0 -127 -62.5 -221t-177.5 -144.5t-266 -50.5q-227 0 -368.5 110t-153.5 300h274q4 -86 71.5 -135t178.5 -49q104 0 163.5 43t59.5 118q0 63 -40 96t-109 52l-217 53
q-172 39 -260.5 134.5t-88.5 236.5q0 123 59.5 215z" />
    <glyph glyph-name="uni0219" unicode="&#x219;" horiz-adv-x="923" 
d="M588 -133q37 -43 37 -113q0 -104 -64.5 -172.5t-181.5 -73.5v56q68 8 102.5 42t38.5 83q-25 -10 -47 -11q-47 0 -76.5 32t-29.5 79q0 53 35.5 87t91.5 34q57 0 94 -43zM188.5 55q-108.5 82 -118.5 219h252q2 -53 43 -82.5t104 -29.5q59 0 94 23.5t35 66.5t-26.5 61.5
t-71.5 28.5l-152 35q-131 31 -193.5 100.5t-62.5 169.5q0 135 103.5 218t271.5 83q164 0 267.5 -82t107.5 -215h-250q-2 49 -37 78t-94 29q-51 0 -82 -22.5t-31 -63.5q0 -39 24.5 -55.5t76.5 -28.5l176 -41q121 -29 178 -99.5t57 -168.5q0 -139 -106.5 -222.5t-282.5 -83.5
q-174 0 -282.5 82z" />
    <glyph glyph-name="uni021A" unicode="&#x21a;" horiz-adv-x="1124" 
d="M657.5 -158q36.5 -43 36.5 -112q0 -104 -64.5 -173t-180.5 -73v55q68 8 102.5 42t38.5 83q-25 -10 -47 -10q-47 0 -77 31.5t-30 78.5q0 53 36 87t91 34q58 0 94.5 -43zM1092 1071h-396v-1071h-266v1071h-397v242h1059v-242z" />
    <glyph glyph-name="uni021B" unicode="&#x21b;" horiz-adv-x="677" 
d="M432 -106.5q37 -43.5 37 -112.5q0 -104 -64.5 -173t-181.5 -73v55q68 8 102.5 42t39.5 83q-25 -10 -48 -10q-47 0 -76.5 32t-29.5 79q0 53 36 87t91 34q57 0 94 -43.5zM633 709h-174v-709h-254v709h-172v209h172v239h254v-239h174v-209z" />
    <glyph glyph-name="uni0237" unicode="&#x237;" horiz-adv-x="544" 
d="M152 918h254v-1352h-254v1352z" />
    <glyph glyph-name="uni0243" unicode="&#x243;" horiz-adv-x="1228" 
d="M1087.5 551q59.5 -84 59.5 -201q0 -168 -123 -259t-334 -91h-545v324h-125v157h125v832h545q207 0 325 -98.5t118 -256.5q0 -109 -55.5 -184.5t-151.5 -105.5q102 -33 161.5 -117zM406 1087v-319h272q92 0 141 46t49 112q0 70 -48 115.5t-142 45.5h-272zM834.5 273.5
q52.5 48.5 52.5 127.5q0 78 -53.5 124t-137.5 46h-290v-90h184v-157h-184v-99h290q86 0 138.5 48.5z" />
    <glyph glyph-name="circumflex" unicode="&#x2c6;" horiz-adv-x="890" 
d="M334 1761h221l213 -284l-119 -82l-205 215l-204 -215l-119 82z" />
    <glyph glyph-name="caron" unicode="&#x2c7;" horiz-adv-x="890" 
d="M240 1776l204 -215l205 215l119 -84l-213 -285h-221l-213 285z" />
    <glyph glyph-name="breve" unicode="&#x2d8;" horiz-adv-x="978" 
d="M724 1488q-93 -81 -232 -81q-145 0 -237.5 84t-100.5 221h176q6 -63 50 -100t112 -37t109.5 37t45.5 100h178q-8 -143 -101 -224z" />
    <glyph glyph-name="dotaccent" unicode="&#x2d9;" horiz-adv-x="417" 
d="M114 1442q-38 37 -38 90q0 57 38 93t93 36t91 -36t36 -93q0 -53 -37 -90t-90 -37q-55 0 -93 37z" />
    <glyph glyph-name="ring" unicode="&#x2da;" horiz-adv-x="743" 
d="M178 1429.5q-72 73.5 -72 174.5q0 102 72 174.5t193 72.5q78 0 138 -34.5t93 -92t33 -120.5q0 -66 -32 -122.5t-92 -91t-140 -34.5q-121 0 -193 73.5zM443.5 1532q29.5 31 29.5 76q0 41 -29.5 71.5t-72.5 30.5q-41 0 -72 -29.5t-31 -72.5q0 -45 30 -76t73 -31t72.5 31z
" />
    <glyph glyph-name="ogonek" unicode="&#x2db;" horiz-adv-x="542" 
d="M422 0q-57 -33 -86 -73t-29 -74q0 -29 20.5 -47.5t57.5 -18.5q27 0 64 12v-133q-61 -20 -119 -20q-86 0 -136.5 45t-50.5 112q0 53 34 105.5t99 91.5h146z" />
    <glyph glyph-name="tilde" unicode="&#x2dc;" horiz-adv-x="974" 
d="M178 1483q0 94 46 149.5t122 55.5q41 0 73 -13.5t81 -42.5q31 -18 52 -28.5t40 -10.5q37 0 50 22.5t11 70.5h125q6 -33 6 -66q0 -88 -47 -142.5t-125 -54.5q-41 0 -77.5 15.5t-81.5 42.5q-23 14 -46.5 24.5t-39.5 10.5q-37 0 -49.5 -31t-8.5 -74h-125q-6 41 -6 72z" />
    <glyph glyph-name="hungarumlaut" unicode="&#x2dd;" horiz-adv-x="1048" 
d="M209 1485l311 334l127 -129l-362 -283zM590 1485l311 334l123 -129l-360 -283z" />
    <glyph glyph-name="gravecomb" unicode="&#x300;" 
d="M-571 1690l127 127l311 -334l-76 -78z" />
    <glyph glyph-name="acutecomb" unicode="&#x301;" 
d="M-430 1483l311 334l127 -127l-362 -285z" />
    <glyph glyph-name="uni0302" unicode="&#x302;" 
d="M-555 1761h221l211 -284l-117 -82l-204 215l-205 -215l-119 82z" />
    <glyph glyph-name="tildecomb" unicode="&#x303;" 
d="M-797 1483q0 94 46 149.5t122 55.5q41 0 73 -13.5t81 -42.5q31 -18 52.5 -28.5t39.5 -10.5q37 0 50.5 22.5t10.5 70.5h125q6 -33 7 -66q0 -88 -47.5 -142.5t-124.5 -54.5q-41 0 -78 15.5t-82 42.5q-23 14 -46.5 24.5t-39.5 10.5q-37 0 -49.5 -31t-8.5 -74h-125
q-6 41 -6 72z" />
    <glyph glyph-name="uni0304" unicode="&#x304;" 
d="M-139 1593v-172h-557v172h557z" />
    <glyph glyph-name="uni0306" unicode="&#x306;" 
d="M-255 1488q-93 -81 -232 -81q-145 0 -237.5 84t-100.5 221h176q6 -63 50 -100t112 -37t109.5 37t45.5 100h178q-8 -143 -101 -224z" />
    <glyph glyph-name="uni0307" unicode="&#x307;" 
d="M-320.5 1448q-37.5 37 -37.5 90q0 57 37.5 93t93.5 36q55 0 91 -36t36 -93q0 -53 -37 -90t-90 -37q-56 0 -93.5 37z" />
    <glyph glyph-name="uni0308" unicode="&#x308;" 
d="M-703.5 1448q-37.5 37 -37.5 90q0 57 37.5 93t93.5 36q55 0 91 -36t36 -93q0 -53 -37 -90t-90 -37q-56 0 -93.5 37zM-312 1448q-38 37 -38 90q0 57 38 93t93 36t92 -36t37 -93q0 -53 -37 -90t-92 -37t-93 37z" />
    <glyph glyph-name="uni030A" unicode="&#x30a;" 
d="M-565.5 1450q-71.5 74 -71.5 174q0 102 71.5 175t192.5 73q78 0 138.5 -35t93 -92t32.5 -121q0 -66 -31.5 -122t-92 -91t-140.5 -35q-121 0 -192.5 74zM-300 1552.5q30 30.5 30 75.5q0 41 -30 72t-73 31q-41 0 -71.5 -30t-30.5 -73q0 -45 29.5 -75.5t72.5 -30.5t73 30.5z
" />
    <glyph glyph-name="uni030B" unicode="&#x30b;" 
d="M-829 1483l311 334l127 -127l-363 -285zM-449 1483l312 334l123 -127l-361 -285z" />
    <glyph glyph-name="uni030C" unicode="&#x30c;" 
d="M-649 1776l205 -215l204 215l119 -84l-213 -285h-221l-213 285z" />
    <glyph glyph-name="uni0312" unicode="&#x312;" 
d="M-103.5 1599.5q29.5 -30.5 29.5 -77.5q0 -53 -34.5 -87t-92.5 -34q-59 0 -95 43t-36 112q0 104 64.5 173t181.5 71v-55q-68 -8 -103.5 -44t-37.5 -83q16 12 49 12q45 0 74.5 -30.5z" />
    <glyph glyph-name="uni0326" unicode="&#x326;" 
d="M-110.5 -61q36.5 -43 36.5 -113q0 -104 -64.5 -173t-180.5 -73v55q68 8 102.5 42t38.5 83q-25 -10 -47 -10q-47 0 -77 32t-30 79q0 53 36 87t91 34q58 0 94.5 -43z" />
    <glyph glyph-name="uni0327" unicode="&#x327;" 
d="M-270 -109q72 0 128 -45t56 -137q0 -100 -73.5 -155.5t-178.5 -55.5q-90 0 -160 41v131q20 -20 56 -33.5t73 -13.5q49 0 82 22.5t33 69.5q0 41 -28.5 63.5t-73.5 22.5q-23 0 -47 -6l-56 60l146 215h92v-72l-76 -109q9 2 27 2z" />
    <glyph glyph-name="uni0338" unicode="&#x338;" 
d="M-1153 -129l758 1206l166 -100l-760 -1206z" />
    <glyph glyph-name="uni03A9" unicode="&#x3a9;" horiz-adv-x="1579" 
d="M1401 403.5q-80 -133.5 -225 -210.5h276v-193h-561v258q137 41 222 150.5t85 257.5q0 172 -111.5 274t-293.5 102q-121 0 -214.5 -49t-145.5 -136t-52 -200q0 -143 83 -252.5t214 -146.5v-258h-565v193h286q-147 78 -224 211t-77 298q0 178 88 318.5t246 219.5t356 79
q201 0 359 -78t246 -217t88 -317q0 -170 -80 -303.5z" />
    <glyph glyph-name="pi" unicode="&#x3c0;" horiz-adv-x="1267" 
d="M47 1081h1081v-207h-161v-542q0 -80 27.5 -106.5t99.5 -26.5h34v-199q-72 -14 -131 -14q-166 0 -225 82t-59 241v565h-260v-874h-252v874h-154v207z" />
    <glyph glyph-name="uni0E3F" unicode="&#xe3f;" horiz-adv-x="1216" 
d="M1085.5 539.5q61.5 -78.5 61.5 -195.5q0 -164 -123 -254t-334 -90h-37v-209h-141v209h-367v1313h367v190h141v-190h37q207 0 325 -98.5t118 -260.5q0 -115 -56.5 -190.5t-156.5 -110.5q104 -35 165.5 -113.5zM406 1087v-335h272q92 0 141 49t49 117q0 66 -49 117.5
t-141 51.5h-272zM834.5 269q52.5 44 52.5 118q0 76 -54.5 123t-136.5 47h-290v-332h290q86 0 138.5 44z" />
    <glyph glyph-name="Wgrave" unicode="&#x1e80;" horiz-adv-x="1931" 
d="M602 1673l127 127l311 -334l-75 -77zM309 1313l142 -467q51 -170 79.5 -285t34.5 -143q39 121 125 420q119 393 133 440h289l166 -551l92 -309q0 8 31 134t84 294l141 467h285l-414 -1313h-258l-80 256q-57 182 -114.5 375.5t-77.5 269.5q-20 -72 -85 -293t-106 -352
l-80 -256h-258l-413 1313h284z" />
    <glyph glyph-name="wgrave" unicode="&#x1e81;" horiz-adv-x="1542" 
d="M414 1280l127 127l311 -334l-76 -78zM307 918l70 -234q70 -240 92 -346q51 174 99 333.5t71 229.5h268q23 -72 73 -251t87 -328q33 133 96 348l76 248h270l-323 -918h-248q-63 207 -109.5 374t-56.5 212q-61 -236 -172 -586h-260l-307 918h274z" />
    <glyph glyph-name="Wacute" unicode="&#x1e82;" horiz-adv-x="1931" 
d="M889 1468l311 334l127 -129l-362 -282zM309 1313l142 -467q51 -170 79.5 -285t34.5 -143q39 121 125 420q119 393 133 440h289l166 -551l92 -309q0 8 31 134t84 294l141 467h285l-414 -1313h-258l-80 256q-57 182 -114.5 375.5t-77.5 269.5q-20 -72 -85 -293t-106 -352
l-80 -256h-258l-413 1313h284z" />
    <glyph glyph-name="wacute" unicode="&#x1e83;" horiz-adv-x="1542" 
d="M700 1075l312 334l127 -129l-363 -283zM307 918l70 -234q70 -240 92 -346q51 174 99 333.5t71 229.5h268q23 -72 73 -251t87 -328q33 133 96 348l76 248h270l-323 -918h-248q-63 207 -109.5 374t-56.5 212q-61 -236 -172 -586h-260l-307 918h274z" />
    <glyph glyph-name="Wdieresis" unicode="&#x1e84;" horiz-adv-x="1931" 
d="M677 1425.5q-38 36.5 -38 90.5q0 57 38 93t93 36t91 -36t36 -93q0 -53 -37 -90t-90 -37q-55 0 -93 36.5zM1068 1425.5q-38 36.5 -38 90.5q0 57 38 93t93 36t92 -36t37 -93q0 -53 -36.5 -90t-92.5 -37q-55 0 -93 36.5zM309 1313l142 -467q51 -170 79.5 -285t34.5 -143
q39 121 125 420q119 393 133 440h289l166 -551l92 -309q0 8 31 134t84 294l141 467h285l-414 -1313h-258l-80 256q-57 182 -114.5 375.5t-77.5 269.5q-20 -72 -85 -293t-106 -352l-80 -256h-258l-413 1313h284z" />
    <glyph glyph-name="wdieresis" unicode="&#x1e85;" horiz-adv-x="1542" 
d="M488.5 1032q-37.5 37 -37.5 90q0 57 37.5 93t93.5 36q55 0 91 -35.5t36 -93.5q0 -53 -37 -90t-90 -37q-56 0 -93.5 37zM880 1032q-38 37 -38 90q0 57 38 93t93 36t92 -35.5t37 -93.5q0 -53 -37 -90t-92 -37t-93 37zM307 918l70 -234q70 -240 92 -346q51 174 99 333.5
t71 229.5h268q23 -72 73 -251t87 -328q33 133 96 348l76 248h270l-323 -918h-248q-63 207 -109.5 374t-56.5 212q-61 -236 -172 -586h-260l-307 918h274z" />
    <glyph glyph-name="Ygrave" unicode="&#x1ef2;" horiz-adv-x="1245" 
d="M266 1673l127 127l312 -334l-76 -77zM328 1313l143 -250q63 -113 104 -187.5t52 -97.5q10 23 54 105t101 180l144 250h299l-467 -793v-520h-269v520l-471 793h310z" />
    <glyph glyph-name="ygrave" unicode="&#x1ef3;" horiz-adv-x="1069" 
d="M176 1280l127 127l311 -334l-75 -78zM1044 918l-423 -1074q-51 -129 -135.5 -208.5t-249.5 -79.5q-80 0 -175 22l2 207q86 -14 130 -14q96 0 136 35.5t68 107.5l19 51l-393 953h276l236 -642l241 642h268z" />
    <glyph glyph-name="endash" unicode="&#x2013;" horiz-adv-x="1863" 
d="M1720 606v-227h-1577v227h1577z" />
    <glyph glyph-name="emdash" unicode="&#x2014;" horiz-adv-x="2308" 
d="M2165 606v-227h-2022v227h2022z" />
    <glyph glyph-name="quoteleft" unicode="&#x2018;" horiz-adv-x="505" 
d="M377 1019q39 -38 39 -99q0 -66 -44 -109t-114 -43q-76 0 -123 55.5t-47 147.5q0 129 87 217t235 102v-73q-88 -10 -137.5 -58.5t-47.5 -111.5q27 10 56 10q57 0 96 -38z" />
    <glyph glyph-name="quoteright" unicode="&#x2019;" horiz-adv-x="505" 
d="M371 1255.5q47 -55.5 47 -147.5q0 -129 -86 -217t-234 -103v72q88 12 136.5 60.5t46.5 111.5q-27 -10 -54 -10q-59 0 -97 37t-38 100q0 66 43 109t113 43q76 0 123 -55.5z" />
    <glyph glyph-name="quotesinglbase" unicode="&#x201a;" horiz-adv-x="530" 
d="M373 248l-223 -506h-134l93 506h264z" />
    <glyph glyph-name="quotedblleft" unicode="&#x201c;" horiz-adv-x="905" 
d="M377 1020q39 -39 39 -100q0 -66 -44 -109t-116 -43q-74 0 -121 54.5t-47 146.5q0 129 86 218t232 103v-73q-84 -12 -132.5 -57.5t-48.5 -110.5q27 10 56 10q57 0 96 -39zM780 1020q39 -39 39 -100q0 -66 -44 -109t-113 -43q-76 0 -123 55.5t-47 145.5q0 131 88 219
t231 102v-73q-84 -10 -133 -56.5t-49 -113.5q29 12 55 12q57 0 96 -39z" />
    <glyph glyph-name="quotedblright" unicode="&#x201d;" horiz-adv-x="909" 
d="M371 1255.5q47 -55.5 47 -147.5q0 -129 -86 -217t-234 -103v72q88 12 136.5 60.5t46.5 111.5q-27 -10 -54 -10q-59 0 -97 37t-38 100q0 66 43 109t113 43q76 0 123 -55.5zM774 1255.5q47 -55.5 47 -147.5q0 -129 -89 -217t-230 -103v72q88 12 136 60.5t46 111.5
q-27 -10 -55 -10q-55 0 -95 38t-40 99q0 66 44 109t113 43q76 0 123 -55.5z" />
    <glyph glyph-name="quotedblbase" unicode="&#x201e;" horiz-adv-x="956" 
d="M457 248l-207 -506h-219l176 506h250zM852 248l-248 -506h-217l215 506h250z" />
    <glyph glyph-name="dagger" unicode="&#x2020;" horiz-adv-x="835" 
d="M748 549h-252v-295h-154v295h-254v139h254v625h154v-625h252v-139z" />
    <glyph glyph-name="daggerdbl" unicode="&#x2021;" horiz-adv-x="778" 
d="M676 545h-211v-262h-152v262h-211v145h211v217h-211v142h211v264h152v-264h209v-142h-209v-217h211v-145z" />
    <glyph glyph-name="bullet" unicode="&#x2022;" horiz-adv-x="1058" 
d="M335 234.5q-89 50.5 -140.5 137.5t-51.5 191q0 106 51.5 194.5t140.5 139.5t197 51q109 0 196 -51t137 -139t50 -195q0 -104 -50 -191t-137 -137.5t-196 -50.5q-108 0 -197 50.5z" />
    <glyph glyph-name="ellipsis" unicode="&#x2026;" horiz-adv-x="1538" 
d="M161 14q-46 47 -46 111q0 63 46 111.5t111 48.5q63 0 111.5 -48.5t48.5 -111.5t-48 -110.5t-112 -47.5q-65 0 -111 47zM656 14q-46 47 -46 111q0 63 46 111.5t112 48.5q63 0 111.5 -48.5t48.5 -111.5t-48.5 -110.5t-111.5 -47.5q-66 0 -112 47zM1150 14q-48 47 -48 111
q0 63 48 111.5t112 48.5q63 0 112 -48.5t49 -111.5t-49 -110.5t-112 -47.5q-64 0 -112 47z" />
    <glyph glyph-name="perthousand" unicode="&#x2030;" horiz-adv-x="2291" 
d="M126 1222.5q40 69.5 110.5 111.5t160.5 42q92 0 164 -42t111 -111.5t39 -149.5t-38 -148.5t-107.5 -109.5t-162.5 -41q-94 0 -165.5 41t-111.5 109.5t-40 148.5t40 149.5zM188 0l1033 1360h190l-1034 -1360h-189zM301 977q39 -39 98 -39q61 0 98.5 40t37.5 95t-37 96
t-99 41q-61 0 -100 -40t-39 -97q2 -57 41 -96zM900 417.5q40 69.5 111.5 111.5t164.5 42q92 0 162.5 -41t110.5 -110.5t40 -151.5q0 -80 -39 -148.5t-109.5 -108.5t-162.5 -40t-165 41t-113 108.5t-40 147.5t40 149.5zM1617 417.5q40 69.5 111.5 111.5t163.5 42t164 -42
t111 -111.5t39 -149.5t-39 -147.5t-109.5 -108.5t-163.5 -41q-92 0 -164.5 41t-112.5 108.5t-40 147.5t40 149.5zM1075 174q39 -39 101 -39q61 0 98 40t37 93q0 57 -38 97.5t-99 40.5t-100.5 -40t-37.5 -96q0 -57 39 -96zM1795 173q38 -38 99 -38t97.5 39t36.5 94t-37 96.5
t-99 41.5q-61 0 -99 -40t-36 -96q0 -59 38 -97z" />
    <glyph glyph-name="minute" unicode="&#x2032;" horiz-adv-x="405" 
d="M105.5 1269q37.5 40 97.5 40q59 0 97 -40t38 -102q0 -20 -6 -39l-92 -446h-76l-90 442q-6 31 -6 43q0 62 37.5 102z" />
    <glyph glyph-name="guilsinglleft" unicode="&#x2039;" horiz-adv-x="679" 
d="M418 459l213 -383h-279l-217 383l217 383h279z" />
    <glyph glyph-name="guilsinglright" unicode="&#x203a;" horiz-adv-x="681" 
d="M547 459l-217 -383h-281l215 383l-215 383h281z" />
    <glyph glyph-name="uni2042" unicode="&#x2042;" horiz-adv-x="1796" 
d="M942 1053q14 -72 14 -148v-129h-122v129q0 66 16 148q-35 -35 -119 -88l-110 -64l-62 107l111 63q68 37 135 59q-74 23 -135 60l-111 65l62 105l110 -64q76 -45 119 -88q-16 82 -16 150v127h122v-127q0 -78 -14 -150q43 43 119 88l110 64l62 -105l-111 -65
q-61 -37 -135 -60q68 -23 135 -59l111 -63l-62 -107l-110 64q-84 53 -119 88zM653 395q-61 -37 -135 -59q68 -23 135 -60l113 -63l-61 -107l-111 64q-76 47 -121 88q16 -82 16 -147v-129h-122v129q0 82 16 147q-37 -35 -121 -88l-110 -64l-62 107l111 63q70 39 137 60
q-74 23 -137 59l-111 66l62 104l110 -63q80 -47 121 -88q-16 66 -16 149v129h122v-129q0 -68 -16 -149q45 45 121 88l111 63l61 -104zM1591 276l111 -63l-62 -107l-110 64q-84 53 -121 88q16 -82 16 -147v-129h-122v129q0 66 16 147q-45 -41 -121 -88l-111 -64l-61 107
l113 63q61 37 135 60q-74 23 -135 59l-113 66l61 104l111 -63q76 -43 121 -88q-16 82 -16 149v129h122v-129q0 -68 -16 -149q41 41 121 88l110 63l62 -104l-111 -66q-55 -33 -135 -59q74 -25 135 -60z" />
    <glyph glyph-name="fraction" unicode="&#x2044;" horiz-adv-x="1183" 
d="M78 0l915 1391l115 -72l-918 -1389z" />
    <glyph glyph-name="uni2070" unicode="&#x2070;" horiz-adv-x="935" 
d="M181.5 583q-105.5 130 -105.5 349t106.5 348t286.5 129t285.5 -129t105.5 -348t-105.5 -349t-285.5 -130q-182 0 -287.5 130zM606 716q49 81 49 216q0 133 -49 215t-137 82q-90 0 -140 -82t-50 -215t50 -215t140 -82q88 0 137 81z" />
    <glyph glyph-name="uni2074" unicode="&#x2074;" horiz-adv-x="845" 
d="M788 823v-168h-114v-184h-197v184l-420 2v150l332 582h285v-566h114zM477 823v371l-211 -371h211z" />
    <glyph glyph-name="uni2075" unicode="&#x2075;" horiz-adv-x="874" 
d="M633 1049q72 -41 112.5 -112t40.5 -159q0 -94 -46 -167.5t-127 -114.5t-181 -41q-98 0 -177 41t-123 113.5t-44 162.5h197q0 -59 42 -96t103 -37q66 0 109 39t43 102q0 61 -41 101.5t-109 40.5q-41 0 -79 -16.5t-56 -43.5l-195 21l121 506h506v-172h-354l-41 -156
q55 29 137 29q90 0 162 -41z" />
    <glyph glyph-name="uni2076" unicode="&#x2076;" horiz-adv-x="880" 
d="M708.5 1008q94.5 -86 94.5 -224q0 -94 -47 -169.5t-130 -117.5t-190 -42q-106 0 -186 43t-123 116.5t-43 161.5t36 159t101 165l201 289h219l-213 -297q14 2 43 2q143 0 237.5 -86zM556 676q46 39 46 102q0 66 -46 104t-112 38t-110.5 -37t-44.5 -103t45 -104.5
t108 -38.5q68 0 114 39z" />
    <glyph glyph-name="uni2077" unicode="&#x2077;" horiz-adv-x="702" 
d="M666 1389v-156l-351 -762h-215l344 746h-407v172h629z" />
    <glyph glyph-name="uni2078" unicode="&#x2078;" horiz-adv-x="841" 
d="M729 875.5q35 -58.5 35 -132.5q0 -133 -96.5 -210.5t-247.5 -77.5q-150 0 -247 78.5t-97 211.5q0 74 34.5 131.5t96.5 86.5q-45 31 -74 82t-29 108q0 111 89.5 183.5t228.5 72.5q137 0 225 -72.5t88 -183.5q0 -61 -28.5 -112.5t-75.5 -79.5q63 -27 98 -85.5zM337 1206.5
q-34 -28.5 -34 -69.5q0 -45 35 -74t82 -29t81 29t34 72t-32 71.5t-83 28.5q-49 0 -83 -28.5zM521 668.5q40 31.5 40 83.5q0 51 -39 82.5t-100 31.5t-101 -31.5t-40 -82.5t39.5 -83t99.5 -32q61 0 101 31.5z" />
    <glyph glyph-name="uni2079" unicode="&#x2079;" horiz-adv-x="888" 
d="M638 1364q81 -43 124 -115.5t43 -161.5q0 -88 -36 -162.5t-99 -162.5l-203 -291h-219l215 299q-14 -2 -45 -2q-92 0 -168 39t-120 109.5t-44 162.5q0 94 47 169t130 117t188 42q106 0 187 -43zM335 980q46 -40 109 -40q66 0 112 39t46 102q0 66 -46 106t-112 40
q-63 0 -109 -39t-46 -103q0 -65 46 -105z" />
    <glyph glyph-name="uni2080" unicode="&#x2080;" horiz-adv-x="935" 
d="M181.5 112q-105.5 130 -105.5 349t106.5 348t286.5 129t285.5 -129t105.5 -348t-105.5 -349t-285.5 -130q-182 0 -287.5 130zM606 245q49 81 49 216q0 133 -49 215t-137 82q-90 0 -140 -82t-50 -215t50 -215t140 -82q88 0 137 81z" />
    <glyph glyph-name="uni2081" unicode="&#x2081;" horiz-adv-x="610" 
d="M68 772q100 0 159.5 39t75.5 107h166v-918h-203v629h-198v143z" />
    <glyph glyph-name="uni2082" unicode="&#x2082;" horiz-adv-x="804" 
d="M698.5 524.5q-26.5 -61.5 -86 -132t-194.5 -214.5h287v-178h-586v141q25 25 52.5 53.5t57.5 59.5q127 133 183.5 194.5t83 108.5t26.5 90q0 53 -32.5 81t-83.5 28q-61 0 -95.5 -40t-29.5 -98h-197q-6 94 36 167t119.5 113t174.5 40q139 0 225 -77t86 -199
q0 -76 -26.5 -137.5z" />
    <glyph glyph-name="uni2083" unicode="&#x2083;" horiz-adv-x="843" 
d="M695.5 474q68.5 -73 68.5 -183q0 -88 -45 -158t-124 -109.5t-177 -39.5q-96 0 -174 38.5t-122 110.5t-42 168h196q0 -59 41 -97t103 -38q61 0 101 36t40 89q0 61 -46 100t-116 39h-57h-72v131l187 184h-328v173h586v-160l-193 -191q105 -20 173.5 -93z" />
    <glyph glyph-name="uni2084" unicode="&#x2084;" horiz-adv-x="845" 
d="M788 352v-168h-114v-184h-197v184l-420 2v150l332 582h285v-566h114zM477 352v371l-211 -371h211z" />
    <glyph glyph-name="uni2085" unicode="&#x2085;" horiz-adv-x="874" 
d="M633 577.5q72 -40.5 112.5 -112.5t40.5 -158q0 -94 -47 -167.5t-128 -114.5t-179 -41t-177 41t-123 113.5t-44 162.5h197q0 -59 42 -96t103 -37q66 0 109 39t43 102q0 61 -42 101.5t-108 40.5q-41 0 -79 -16.5t-56 -43.5l-195 21l119 506h508v-173h-354l-43 -155
q57 29 139 28q90 0 162 -40.5z" />
    <glyph glyph-name="uni2086" unicode="&#x2086;" horiz-adv-x="880" 
d="M708.5 537q94.5 -86 94.5 -224q0 -94 -47 -169.5t-130 -117.5t-188 -42q-106 0 -187 43t-124 116.5t-43 161.5t36 159t101 165l201 289h219l-213 -297q14 2 45 2q141 0 235.5 -86zM556 205q46 39 46 102q0 66 -46 104t-110 38q-66 0 -111.5 -37t-45.5 -103t45 -104.5
t110 -38.5q66 0 112 39z" />
    <glyph glyph-name="uni2087" unicode="&#x2087;" horiz-adv-x="702" 
d="M666 918v-156l-351 -762h-215l344 745h-407v173h629z" />
    <glyph glyph-name="uni2088" unicode="&#x2088;" horiz-adv-x="841" 
d="M729 404.5q35 -58.5 35 -132.5q0 -133 -96.5 -210.5t-247.5 -77.5q-150 0 -247 78.5t-97 211.5q0 74 34.5 131.5t96.5 86.5q-45 31 -74 82t-29 108q0 111 89.5 183.5t228.5 72.5q137 0 225 -72.5t88 -183.5q0 -61 -28.5 -112.5t-75.5 -80.5q63 -26 98 -84.5zM337 735.5
q-34 -28.5 -34 -69.5q0 -45 35 -74t82 -29t81 29t34 72t-32 71.5t-83 28.5q-49 0 -83 -28.5zM521 197.5q40 31.5 40 83.5q0 51 -39 82.5t-100 31.5t-101 -31.5t-40 -82.5t39.5 -83t99.5 -32q61 0 101 31.5z" />
    <glyph glyph-name="uni2089" unicode="&#x2089;" horiz-adv-x="888" 
d="M638 893q81 -43 124 -115.5t43 -161.5q0 -88 -36 -162.5t-99 -162.5l-203 -291h-219l215 299q-14 -2 -45 -2q-92 0 -168 39t-120 109.5t-44 162.5q0 94 47 169t130 117t188 42q106 0 187 -43zM335 509q46 -40 109 -40q66 0 112 39t46 102q0 66 -46 106t-112 40
q-63 0 -109 -39t-46 -103q0 -65 46 -105z" />
    <glyph glyph-name="uni20AA" unicode="&#x20aa;" horiz-adv-x="1513" 
d="M145 1405h504q205 0 295 -111.5t90 -316.5v-537h-209v545q0 125 -62.5 175t-178.5 50h-232v-1210h-207v1405zM571.5 111.5q-90.5 111.5 -90.5 316.5v537h207v-545q0 -125 62.5 -175t179.5 -50h231v1210h209v-1405h-504q-204 0 -294.5 111.5z" />
    <glyph glyph-name="Euro" unicode="&#x20ac;" horiz-adv-x="1259" 
d="M666.5 1060q-109.5 -52 -166.5 -153h454l-32 -180h-478q-4 -45 -4 -70t4 -65h453l-33 -180h-366q55 -102 165.5 -155.5t266.5 -53.5q117 0 196 24v-225q-104 -27 -219 -27q-254 0 -429 116t-240 321h-142v180h107q-2 20 -2 61q0 49 2 74h-107v180h144q68 203 238.5 317.5
t412.5 114.5q74 0 140.5 -9t94.5 -19v-226q-78 27 -194 27q-156 0 -265.5 -52z" />
    <glyph glyph-name="uni20B9" unicode="&#x20b9;" horiz-adv-x="1253" 
d="M1137 1122h-285q49 -61 61 -139h224v-188h-217q-51 -281 -357 -318l324 -477h-314l-356 524v140h199q203 0 239 131h-442v188h440q-14 70 -76.5 104.5t-160.5 34.5h-199v191h920v-191z" />
    <glyph glyph-name="uni2116" unicode="&#x2116;" horiz-adv-x="2537" 
d="M1652.5 522.5q-104.5 55.5 -165 154.5t-60.5 226q0 125 60.5 223.5t165 153.5t235.5 55t236.5 -54t166 -152.5t60.5 -225.5t-60.5 -226t-166 -154.5t-236.5 -55.5t-235.5 55.5zM184 1313h226l639 -928v928h223v-1313h-223l-639 930v-930h-226v1313zM2063.5 741.5
q68.5 67.5 68.5 163.5q0 92 -68.5 158.5t-173.5 66.5q-106 0 -173.5 -65.5t-67.5 -159.5t68.5 -162.5t172.5 -68.5q105 0 173.5 67.5zM1579 332h621v-180h-621v180z" />
    <glyph glyph-name="uni2117" unicode="&#x2117;" horiz-adv-x="1333" 
d="M935 1132.5q120 -69.5 189.5 -188.5t69.5 -264t-69.5 -264t-189.5 -188.5t-267 -69.5t-268 68.5t-191 188.5t-70 265t70 265t190.5 188.5t268.5 68.5q147 0 267 -69.5zM875.5 329.5q91.5 53.5 143.5 145.5t52 205t-52 206t-143.5 146t-205.5 53q-115 0 -208 -53
t-146.5 -146t-53.5 -206q0 -111 53.5 -204t146.5 -146.5t208 -53.5q114 0 205.5 53.5zM864 878q49 -44 51 -118q0 -76 -48 -122t-130 -46h-123v-170h-116v500h239q78 0 127 -44zM774.5 705.5q20.5 19.5 20.5 52.5t-20.5 50t-57.5 17h-103v-139h103q37 0 57.5 19.5z" />
    <glyph glyph-name="trademark" unicode="&#x2122;" horiz-adv-x="1591" 
d="M51 1405h580v-139h-203v-607h-172v607h-205v139zM713 1405h194l189 -545l188 545h195v-746h-172v123q0 72 16 297l-147 -401h-158l-150 403q16 -221 17 -299v-123h-172v746z" />
    <glyph glyph-name="estimated" unicode="&#x212e;" horiz-adv-x="1515" 
d="M346 594v-295q63 -102 180 -158.5t260 -56.5q129 0 240 53t168 142h143q-80 -143 -220 -224.5t-335 -81.5q-199 0 -346 84t-226 238t-79 356q0 213 81 369t226.5 237.5t335.5 81.5q272 0 433 -163.5t175 -454.5q2 -45 0 -81t-4 -46h-1032zM536.5 1169.5
q-106.5 -51.5 -176.5 -147.5v-317h795v350q-68 82 -166 124t-215 42q-131 0 -237.5 -51.5z" />
    <glyph glyph-name="oneeighth" unicode="&#x215b;" horiz-adv-x="1619" 
d="M1546 377q33 -53 33 -123q0 -123 -91 -196t-233 -72q-141 0 -231 73q-90 74 -90 197q0 70 32 122t87 79q-41 27 -67 73q-26 47 -25 101q0 102 83 172q84 70 213 69q127 0 211 -69q84 -70 84 -174q0 -53 -26 -101q-27 -47 -68 -73q55 -25 88 -78zM1186 673
q-27 -24 -27 -61t30 -61q30 -25 68 -25q39 0 70 25t31 59q0 39 -29 63t-72 23q-44 1 -71 -23zM1345 194q34 28 33 70q0 43 -35 72t-86 29q-55 0 -89 -29t-33 -72q0 -43 33 -70q34 -28 87 -28q56 0 90 28zM227 0l916 1391l114 -72l-917 -1389zM41 1169q98 0 158 38
q59 38 75 106h162v-854h-200v567h-195v143z" />
    <glyph glyph-name="threeeighths" unicode="&#x215c;" horiz-adv-x="1761" 
d="M1688 377q33 -53 32 -123q0 -123 -91 -196t-232 -72q-141 0 -232 73q-90 74 -90 197q0 70 32 122t87 79q-41 27 -67 73q-26 47 -25 101q0 102 84 172t213 69q127 0 211 -69q84 -70 84 -174q0 -53 -27 -101q-27 -47 -68 -73q56 -25 89 -78zM1327 673q-27 -24 -27 -61
t30 -61q30 -25 69 -25t69 25q31 25 31 59q0 39 -29 63t-71 23q-45 1 -72 -23zM1486 194q34 28 34 70q0 43 -35 72t-86 29q-55 0 -89 -29t-34 -72t34 -70q34 -28 87 -28q55 0 89 28zM369 0l915 1391l115 -72l-918 -1389zM622 899q62 -68 62 -170q0 -125 -92 -205t-234 -80
q-143 0 -231 82t-86 215h197q0 -53 34 -87q35 -34 90 -33q53 0 88 31q34 32 33 81q0 51 -44 86t-101 33h-6l-45 -2h-70v131l164 160h-293v172h549v-160l-172 -168q95 -18 157 -86z" />
    <glyph glyph-name="fiveeighths" unicode="&#x215d;" horiz-adv-x="1802" 
d="M1729 377q33 -53 32 -123q0 -123 -91 -196t-232 -72q-141 0 -232 73q-90 74 -90 197q0 70 32 122t87 79q-41 27 -67 73q-26 47 -25 101q0 102 84 172t213 69q127 0 211 -69q84 -70 84 -174q0 -53 -27 -101q-27 -47 -68 -73q56 -25 89 -78zM1368 673q-27 -24 -27 -61
t30 -61q30 -25 69 -25t69 25q31 25 31 59q0 39 -29 63t-71 23q-45 1 -72 -23zM1527 194q34 28 34 70q0 43 -35 72t-86 29q-55 0 -89 -29t-34 -72t34 -70q34 -28 87 -28q55 0 89 28zM410 0l915 1391l115 -72l-918 -1389zM625 952q84 -82 84 -204q0 -133 -97 -218
q-96 -84 -239 -84q-141 0 -233 82q-91 82 -91 213h197q0 -51 36 -85t89 -33q57 0 95 34q38 35 38 91q0 53 -36 89t-95 35q-37 0 -70 -14t-49 -39l-193 23l111 471h479v-172h-327l-35 -127q49 20 123 20q129 0 213 -82z" />
    <glyph glyph-name="uni2160" unicode="&#x2160;" horiz-adv-x="1009" 
d="M637 1087v-864h283v-223h-826v223h283v864h-283v226h826v-226h-283z" />
    <glyph glyph-name="uni2161" unicode="&#x2161;" horiz-adv-x="1587" 
d="M92 223h283v864h-283v226h1405v-226h-280v-864h280v-223h-1405v223zM956 223v864h-321v-864h321z" />
    <glyph glyph-name="uni2162" unicode="&#x2162;" horiz-adv-x="2148" 
d="M92 223h283v864h-283v226h1966v-226h-280v-864h280v-223h-1966v223zM946 223v864h-311v-864h311zM1518 223v864h-312v-864h312z" />
    <glyph glyph-name="uni2163" unicode="&#x2163;" horiz-adv-x="2117" 
d="M90 0v223h268v864h-268v226h1938v-226h-226l-291 -864h517v-223h-1938zM1069 223l-291 864h-160v-864h451zM1053 1087l241 -759l242 759h-483z" />
    <glyph glyph-name="uni2164" unicode="&#x2164;" horiz-adv-x="1638" 
d="M1329 1087l-291 -864h504v-223h-1444v223h498l-291 864h-213v226h1456v-226h-219zM580 1087l243 -759l242 759h-485z" />
    <glyph glyph-name="uni2165" unicode="&#x2165;" horiz-adv-x="2111" 
d="M90 0v223h508l-289 864h-219v226h1931v-226h-268v-864h268v-223h-1931zM584 1087l241 -759l242 759h-483zM1493 223v864h-160l-291 -864h451z" />
    <glyph glyph-name="uni2166" unicode="&#x2166;" horiz-adv-x="2686" 
d="M90 0v223h508l-289 864h-219v226h2507v-226h-279v-864h279v-223h-2507zM584 1087l239 -759l242 759h-481zM1491 223v864h-160l-289 -864h449zM1751 1087v-864h307v864h-307z" />
    <glyph glyph-name="uni2167" unicode="&#x2167;" horiz-adv-x="3221" 
d="M90 223h506l-287 864h-219v226h3041v-226h-274v-864h274v-223h-3041v223zM1057 1087h-473l237 -759zM1487 223v864h-164l-287 -864h451zM2042 223v864h-295v-864h295zM2597 223v864h-295v-864h295z" />
    <glyph glyph-name="uni2168" unicode="&#x2168;" horiz-adv-x="2060" 
d="M90 0v223h268v864h-268v226h1880v-226h-213l-317 -442l305 -422h225v-223h-1880zM618 1087v-864h177l309 426l-316 438h-170zM1454 1087h-362l180 -264zM1442 223l-174 246l-172 -246h346z" />
    <glyph glyph-name="uni2169" unicode="&#x2169;" horiz-adv-x="1576" 
d="M1272 1087l-314 -444l304 -420h225v-223h-1395v223h219l310 426l-318 438h-211v226h1393v-226h-213zM971 1087h-363l183 -262zM956 223l-172 246l-172 -246h344z" />
    <glyph glyph-name="uni216C" unicode="&#x216c;" horiz-adv-x="1335" 
d="M92 0v223h248v864h-248v226h774v-226h-266v-864h395v369h246v-592h-1149z" />
    <glyph glyph-name="uni216D" unicode="&#x216d;" horiz-adv-x="1497" 
d="M412.5 59q-152.5 86 -236.5 241t-84 355q0 199 84 353.5t235.5 240.5t346.5 86q129 0 234.5 -40t166.5 -115v129h240v-490h-248q-14 70 -58 136.5t-123 109.5t-186 43q-125 0 -221 -56.5t-149.5 -160t-53.5 -236.5t53.5 -236.5t149.5 -159.5t221 -56q106 0 185.5 43
t123.5 108.5t58 134.5h248v-489h-240v133q-59 -74 -166.5 -117t-232.5 -43q-195 0 -347.5 86z" />
    <glyph glyph-name="uni216E" unicode="&#x216e;" horiz-adv-x="1515" 
d="M1118.5 1232q147.5 -81 227 -229.5t79.5 -345.5q0 -199 -80.5 -347t-229 -229t-347.5 -81h-676v223h258v864h-258v226h684q195 0 342.5 -81zM1048.5 338q112.5 115 112.5 317q0 205 -113.5 318.5t-297.5 113.5h-140v-864h142q184 0 296.5 115z" />
    <glyph glyph-name="uni216F" unicode="&#x216f;" horiz-adv-x="2150" 
d="M94 223h244v864h-244v226h586l391 -934l383 934h604v-226h-250v-864h250v-223h-682v223h176v711l-383 -922h-198l-381 918v-707h176v-223h-672v223z" />
    <glyph glyph-name="arrowleft" unicode="&#x2190;" horiz-adv-x="1945" 
d="M1778 438h-1260l400 -487h-271l-479 581l481 586h269l-400 -489l1260 -2v-189z" />
    <glyph glyph-name="arrowup" unicode="&#x2191;" horiz-adv-x="1390" 
d="M1280 743l-492 402v-1262h-190v1260l-487 -400v261l581 475l588 -482v-254z" />
    <glyph glyph-name="arrowright" unicode="&#x2192;" horiz-adv-x="1945" 
d="M1778 532l-480 -581h-270l402 487h-1262v189l1262 2l-402 489h268z" />
    <glyph glyph-name="arrowdown" unicode="&#x2193;" horiz-adv-x="1390" 
d="M1280 541v-252l-588 -482l-581 478v256l487 -400v1260h190v-1260z" />
    <glyph glyph-name="arrowboth" unicode="&#x2194;" horiz-adv-x="2390" 
d="M649 1118h269l-402 -489h1360l-399 489h266l479 -586l-479 -581h-266l399 487h-1360l402 -487h-271l-479 581z" />
    <glyph glyph-name="arrowupdn" unicode="&#x2195;" horiz-adv-x="1505" 
d="M168 252l489 -399v1359l-489 -401v270l582 480l587 -482v-268l-489 401v-1359l489 399v-266l-587 -480l-582 480v266z" />
    <glyph glyph-name="carriagereturn" unicode="&#x21b5;" horiz-adv-x="1460" 
d="M1360 1243v-852h-844v-285l-442 377l442 379v-282h655l-2 663h191z" />
    <glyph glyph-name="uni21BA" unicode="&#x21ba;" horiz-adv-x="1896" 
d="M511 58q-159 85 -252 241t-93 358q0 199 91 354.5t254 241.5t368 86q104 0 197 -20.5t159 -58.5l-66 -148q-131 68 -292 68q-154 0 -277 -66.5t-191.5 -185.5t-68.5 -269q0 -154 67.5 -272.5t185.5 -184t267 -65.5q154 0 274.5 66.5t186 185.5t63.5 270h-264l336 390
l334 -390h-236q2 -205 -87 -360.5t-247.5 -240.5t-357.5 -85q-192 0 -351 85z" />
    <glyph glyph-name="uni21BB" unicode="&#x21bb;" horiz-adv-x="1896" 
d="M673.5 58q-155.5 85 -242.5 241t-87 360h-238l334 390l336 -390h-266q0 -154 65.5 -272.5t183.5 -184t269 -65.5q152 0 271.5 66.5t188 185.5t68.5 270q0 150 -68.5 269t-190 185.5t-275.5 66.5q-82 0 -159 -18.5t-136 -49.5l-61 148q63 39 156 59t198 20
q205 0 366.5 -86t253 -241.5t91.5 -354.5q0 -203 -93.5 -358.5t-255 -240.5t-356.5 -85q-197 0 -352.5 85z" />
    <glyph glyph-name="partialdiff" unicode="&#x2202;" horiz-adv-x="1189" 
d="M944 1021q76 -128 124 -257t48 -254q0 -158 -67.5 -279.5t-188.5 -188.5t-276 -67q-150 0 -265.5 61.5t-181 171t-65.5 251.5q0 143 64.5 253.5t176 172t248.5 61.5q106 0 191 -41q-88 162 -303 475h266q153 -231 229 -359zM781.5 278.5q74.5 73.5 74.5 188.5
t-75.5 189.5t-186.5 74.5q-115 0 -188.5 -75.5t-73.5 -192.5q0 -113 72.5 -185.5t187.5 -72.5t189.5 73.5z" />
    <glyph glyph-name="emptyset" unicode="&#x2205;" horiz-adv-x="1542" 
d="M1128.5 1253q159.5 -86 249.5 -241.5t90 -354.5q0 -201 -90 -356.5t-249.5 -241.5t-360.5 -86t-359.5 86t-248.5 241t-90 355q0 199 90 354.5t248.5 242.5t359.5 87t360.5 -86zM554 1036.5q-95 -55.5 -149.5 -154t-54.5 -227.5q0 -113 41 -200l635 555q-106 82 -256 82
q-121 0 -216 -55.5zM983 276.5q94 55.5 148.5 154.5t54.5 226q0 113 -41 201l-635 -555q106 -82 258 -82q121 0 215 55.5z" />
    <glyph glyph-name="Delta" unicode="&#x2206;" horiz-adv-x="1314" 
d="M1204 215v-215h-1093v215l430 1098h235zM344 215h627l-314 793z" />
    <glyph glyph-name="product" unicode="&#x220f;" horiz-adv-x="1267" 
d="M80 1157h1112v-239h-180v-566q0 -78 32.5 -111.5t96.5 -33.5q14 0 51 4v-215q-63 -12 -119 -12q-152 0 -232.5 91t-80.5 263v580h-258v-918h-256v918h-166v239z" />
    <glyph glyph-name="summation" unicode="&#x2211;" horiz-adv-x="1052" 
d="M86 268l408 394l-408 387v264h879v-266h-547l385 -385l-389 -396h551v-266h-879v268z" />
    <glyph glyph-name="minus" unicode="&#x2212;" horiz-adv-x="983" 
d="M844 727v-213h-705v213h705z" />
    <glyph glyph-name="radical" unicode="&#x221a;" horiz-adv-x="1484" 
d="M1626 1714v-217h-469l-588 -1497h-237l-316 872h232l205 -587l548 1429h625z" />
    <glyph glyph-name="infinity" unicode="&#x221e;" horiz-adv-x="1683" 
d="M134 732q52 89 141.5 140.5t195.5 51.5q236 0 371 -215q72 115 165 165t207 50q106 0 195.5 -51.5t142 -140.5t52.5 -197q0 -109 -52.5 -198t-141.5 -140.5t-196 -51.5q-233 0 -372 215q-135 -215 -371 -215q-106 0 -195.5 52.5t-141.5 141.5t-52 196q0 108 52 197z
M359 422q44 -45 110 -45q59 0 120.5 34.5t96.5 123.5q-33 86 -94.5 122.5t-122.5 36.5q-66 0 -110 -45t-44 -114q0 -68 44 -113zM1091.5 414q61.5 -37 125.5 -37q63 0 109 45t46 113t-46 113.5t-109 45.5t-125 -36.5t-95 -122.5q33 -84 94.5 -121z" />
    <glyph glyph-name="integral" unicode="&#x222b;" horiz-adv-x="862" 
d="M805 1337v-231h-139q-45 0 -75 -25.5t-30 -101.5v-641q0 -162 -96 -260t-248 -98h-160v227h140q109 0 108 131v641q0 162 95.5 260t246.5 98h158z" />
    <glyph glyph-name="approxequal" unicode="&#x2248;" horiz-adv-x="870" 
d="M813 811q10 -137 -55.5 -213t-167.5 -76q-57 0 -102.5 22.5t-96.5 61.5q-41 31 -67.5 44.5t-53.5 13.5q-33 0 -52 -21.5t-19 -64.5q0 -16 2 -27h-142q-2 12 -2 37q0 115 63.5 182.5t160.5 67.5q55 0 99 -21.5t97 -62.5q43 -31 69.5 -45.5t55.5 -14.5q35 0 55.5 28
t14.5 89h141zM813 432q10 -137 -55.5 -214t-167.5 -77q-57 0 -102.5 22.5t-96.5 61.5q-41 31 -67.5 44.5t-53.5 13.5q-31 0 -51 -20.5t-20 -63.5q0 -16 2 -27h-142q-2 12 -2 35q0 117 64.5 184.5t159.5 67.5q55 0 97 -21.5t99 -62.5q41 -31 68.5 -46.5t56.5 -15.5
q72 0 72 93l-2 26h141z" />
    <glyph glyph-name="notequal" unicode="&#x2260;" horiz-adv-x="1126" 
d="M741 741l-125 -229h404v-213h-520l-107 -197h-239l108 197h-158v213h275l125 229h-400v217h519l106 195h238l-107 -195h160v-217h-279z" />
    <glyph glyph-name="lessequal" unicode="&#x2264;" horiz-adv-x="1124" 
d="M145 596v211l840 289v-240l-534 -156l534 -153v-240zM141 0v207h840v-207h-840z" />
    <glyph glyph-name="greaterequal" unicode="&#x2265;" horiz-adv-x="1124" 
d="M141 547l533 153l-533 156v240l840 -289v-211l-840 -289v240zM143 207h842v-207h-842v207z" />
    <glyph glyph-name="uni2388" unicode="&#x2388;" horiz-adv-x="1759" 
d="M825 -31q-133 12 -247.5 79t-190.5 175l-197 -114l-55 94l197 112q-55 127 -56 256q0 133 54 252l-193 113l56 94l194 -110q74 106 189.5 173.5t248.5 80.5v223h109v-223q133 -12 248.5 -80t191.5 -176l195 112l55 -94l-197 -113q55 -117 56 -252q0 -131 -56 -254
l195 -112l-55 -96l-195 112q-78 -106 -191.5 -172.5t-246.5 -79.5v-227h-109v227zM1264 854q-59 80 -145.5 130t-184.5 63v-383zM825 1044q-98 -10 -184 -60t-143 -130l327 -188v378zM1356 571q0 94 -39 189l-328 -191l328 -188q39 94 39 190zM770 569l-328 189
q-39 -90 -39 -187q0 -98 41 -190zM825 475l-327 -188q59 -80 144 -129t183 -60v377zM1117 158q85 49 143 127l-326 188v-377q98 13 183 62z" />
    <glyph glyph-name="uni2602" unicode="&#x2602;" horiz-adv-x="1812" 
d="M1292.5 1310q151.5 -81 233.5 -220.5t82 -317.5h-76q0 78 -50 126t-132 48q-80 0 -129.5 -48t-49.5 -126h-75q0 70 -41 116t-111 56v-811q0 -111 -68.5 -179.5t-181.5 -68.5q-115 0 -181.5 67.5t-66.5 180.5h66q0 -82 50 -132t132 -50q80 0 128 50t48 132v811
q-72 -10 -112.5 -56t-40.5 -116h-76q0 78 -49 126t-129 48q-82 0 -132 -48t-50 -126h-76q0 178 82 317.5t233.5 220.5t351.5 87l11 131h51l8 -131q199 -6 350.5 -87z" />
    <glyph glyph-name="uni2605" unicode="&#x2605;" horiz-adv-x="1703" 
d="M711 791l141 423l127 -423h457l-363 -254l141 -424l-362 268l-363 -268l142 424l-363 254h443z" />
    <glyph glyph-name="uni2609" unicode="&#x2609;" horiz-adv-x="1945" 
d="M213 152q66 0 106.5 23.5t57.5 92.5l137 787q2 8 2 22q0 53 -32.5 68.5t-94.5 13.5l29 152l467 2l-27 -152q-2 0 -33.5 1t-64.5 -26.5t-41 -80.5l-131 -711q-16 -86 -32.5 -131t-53.5 -78l24 -33q51 41 110.5 51.5t156.5 10.5h591q55 0 86 5t53.5 27.5t30.5 71.5l29 176
h176l-61 -444h-1512zM1519.5 1116.5q16.5 16.5 45.5 16.5q27 0 43 -16.5t16 -45.5q0 -25 -16.5 -42t-42.5 -17q-27 0 -44.5 17.5t-17.5 41.5q0 29 16.5 45.5zM721 442h199l6 33q-80 41 -121 111.5t-41 161.5q0 104 52 189t147.5 134t218.5 49q168 0 271 -88t103 -231
q0 -117 -67.5 -206t-177.5 -120l-8 -33h184l-21 -147h-348l35 215q106 16 172 88t66 168q0 94 -58.5 148.5t-156.5 54.5q-111 0 -180.5 -69t-69.5 -173q0 -80 41 -138.5t108 -78.5l-37 -215h-344zM1530 1037.5q12 -13.5 35 -13.5q20 0 32.5 13.5t12.5 33.5q0 23 -12.5 36
t-32.5 13q-23 0 -35 -12t-12 -35q0 -22 12 -35.5zM1542 1102h27q23 0 22 -19q0 -14 -12 -18l12 -23h-14l-10 21h-13v-21h-12v60zM1567 1071q12 0 12 10t-10 11h-15v-21h13z" />
    <glyph glyph-name="uni261C" unicode="&#x261c;" horiz-adv-x="1832" 
d="M1266 172.5q-82 -22.5 -172 -22.5q-84 0 -152 20q-49 -14 -94 -14q-57 0 -89 24.5t-32 65.5q0 16 2 24q-45 0 -75.5 24.5t-30.5 70.5q0 25 8 41q-39 10 -62.5 38.5t-23.5 65.5q0 35 18 61l-305 17q-49 4 -77.5 32.5t-28.5 77.5q0 53 35.5 83t101.5 30l491 2q0 10 2 27.5
t6 31.5q33 125 218 125q106 0 171.5 -32.5t141.5 -96.5q59 -51 104 -77q16 12 44 20t55 8q94 0 136 -92t42 -233q0 -170 -52.5 -239t-125.5 -69q-37 0 -73 12.5t-58 32.5q-43 -36 -125 -58.5zM1112 205q158 0 253 84t95 223q0 66 -17.5 132.5t-45.5 98.5q-29 14 -60.5 37
t-60.5 45q-70 57 -128 86t-149 29q-51 0 -98 -15.5t-57 -60.5q-23 -106 -56 -246q-6 -18 12.5 -28t41.5 -10q47 0 73 41q31 47 31 102q0 20 -6 40.5t-6 31.5q0 10 6 16t14 6q18 0 27 -16q12 -25 18 -68q6 2 14.5 6t28.5 23q14 14 23 14q23 0 22 -24q0 -16 -10 -29
q-23 -31 -84 -57q-8 -39 -30 -68q0 -33 30 -63q53 -53 176 -54q47 0 93 4h4q14 0 22 -7t8 -17q0 -16 -22 -25q-27 -10 -105 -10q-80 0 -131 20q0 -33 -4 -40q72 -18 72 -84t-76 -111q43 -6 82 -6zM1606.5 309.5q33.5 65.5 33.5 192.5t-32.5 196.5t-89.5 69.5q-33 0 -58 -18
q57 -102 58 -238q0 -76 -21.5 -137.5t-60.5 -100.5q14 -14 30.5 -22t42.5 -8q64 0 97.5 65.5zM733 639q16 35 27 117h-473q-78 0 -78 -58q0 -25 14.5 -39t38.5 -16l389 -18q39 14 82 14zM811 506l43 16q-37 0 -70.5 16.5t-48.5 47.5q-59 -6 -94 -23q-35 -12 -35 -51
q0 -25 13.5 -39t33.5 -14q31 0 158 47zM846 353.5q76 27.5 100 41.5q14 8 22.5 21.5t8.5 27.5t-9.5 25.5t-25.5 11.5q-25 0 -101.5 -23.5t-117.5 -39.5q-20 -8 -28.5 -16.5t-8.5 -24.5q0 -27 16.5 -39t36.5 -12q31 0 107 27.5zM983.5 238.5q63.5 31.5 63.5 78.5
q0 18 -10.5 27.5t-24.5 9.5q-31 0 -193 -65q-31 -12 -31 -39q0 -43 60 -43q72 0 135.5 31.5z" />
    <glyph glyph-name="uni261E" unicode="&#x261e;" horiz-adv-x="1832" 
d="M185.5 255q-52.5 69 -52.5 239q0 141 42 233t136 92q27 0 54.5 -8t44.5 -20q45 27 104 77q76 63 141.5 96t171.5 33q184 0 217 -125q4 -14 6.5 -31.5t2.5 -27.5l491 -2q66 0 101.5 -29.5t35.5 -83.5q0 -49 -28.5 -77.5t-77.5 -32.5l-305 -17q6 -8 12 -26.5t6 -34.5
q0 -37 -23.5 -65.5t-62.5 -38.5q8 -16 8 -41q0 -45 -30.5 -70t-75.5 -25q2 -8 2 -24q0 -41 -32 -65.5t-89 -24.5q-43 0 -94 14q-68 -20 -152 -20q-90 0 -172 22.5t-125 58.5q-23 -20 -58.5 -32.5t-72.5 -12.5q-73 0 -125.5 69zM727 322q0 66 72 84q-4 8 -4 40
q-51 -20 -131 -20q-78 0 -105 10q-23 8 -22 25q0 12 9 19t25 5q43 -6 91 -6q49 0 98 12.5t80 43.5t30 63q-23 29 -30 68q-61 27 -84 57q-10 12 -11 29q0 25 23 24q8 0 23 -14q20 -20 29 -23.5t14 -5.5q2 16 8 37t10 31q8 16 27 16q8 0 14 -6t6 -16t-6 -31t-6 -41
q0 -55 31 -102q27 -41 73 -41q23 0 41.5 10t11.5 28q-31 123 -55 246q-10 45 -57 60.5t-98 15.5q-90 0 -148.5 -28.5t-128.5 -86.5q-29 -23 -60.5 -45t-60.5 -37q-29 -33 -46 -99t-17 -132q0 -139 95 -223t253 -84q39 0 82 6q-76 45 -76 111zM366.5 252q16.5 8 30.5 22
q-39 39 -60.5 100.5t-21.5 137.5q0 135 58 238q-25 18 -58 18q-57 0 -89.5 -69.5t-32.5 -196.5q0 -125 32.5 -191.5t96.5 -66.5q28 0 44.5 8zM1571 643q25 2 39 16.5t14 38.5q0 57 -78 58h-473q10 -82 27 -117q43 0 82 -14zM1213.5 473q13.5 14 13.5 39q0 41 -33 51
q-39 16 -96 23q-16 -29 -49 -45.5t-68 -20.5l41 -14q6 -2 66.5 -24.5t91.5 -22.5q20 0 33.5 14zM1130.5 338q16.5 12 16.5 39q0 16 -8.5 24.5t-28.5 16.5q-41 16 -118 39.5t-101 23.5q-16 0 -25.5 -11t-9.5 -26q0 -14 8 -27.5t23 -21.5q25 -14 100.5 -41.5t106.5 -27.5
q20 0 36.5 12zM1044 250q0 27 -30 39q-162 66 -193 65q-14 0 -24.5 -9t-10.5 -28q0 -47 64.5 -78.5t136.5 -31.5q57 0 57 43z" />
    <glyph glyph-name="uni2639" unicode="&#x2639;" horiz-adv-x="1388" 
d="M1220.5 357q-79.5 -132 -219 -205.5t-309.5 -73.5t-308 72.5t-217 204.5t-79 300t80 301.5t218 207t308 73.5t308.5 -73.5t218 -206t79.5 -300.5t-79.5 -300zM1136.5 912.5q-65.5 111.5 -180 173t-258.5 61.5q-145 0 -260.5 -62.5t-182.5 -174t-67 -255.5
q0 -141 67 -252.5t182.5 -173t258.5 -61.5t259 61.5t181.5 173t65.5 254.5q0 144 -65.5 255.5zM457.5 752.5q-31.5 31.5 -31.5 72.5t31.5 72t72.5 31t72 -31t31 -72t-31 -72.5t-72 -31.5t-72.5 31.5zM765 752.5q-32 31.5 -32 72.5t32 72t73 31t71.5 -31t30.5 -72
t-30.5 -72.5t-71.5 -31.5t-73 31.5zM489.5 520q90.5 49 204.5 49q115 0 205 -49t133 -131l-57 -41q-102 133 -281 133q-178 0 -280 -133l-58 41q43 82 133.5 131z" />
    <glyph glyph-name="smileface" unicode="&#x263a;" horiz-adv-x="1388" 
d="M1220.5 357q-79.5 -132 -219 -205.5t-309.5 -73.5t-308 72.5t-217 204.5t-79 300t80 301.5t218 207t308 73.5t308.5 -73.5t218 -206t79.5 -300.5t-79.5 -300zM1136.5 912.5q-65.5 111.5 -180 173t-258.5 61.5q-145 0 -260.5 -62.5t-182.5 -174t-67 -255.5
q0 -141 67 -252.5t182.5 -173t258.5 -61.5t259 61.5t181.5 173t65.5 254.5q0 144 -65.5 255.5zM457.5 752.5q-31.5 31.5 -31.5 72.5t31.5 72t72.5 31t72 -31t31 -72t-31 -72.5t-72 -31.5t-72.5 31.5zM765 752.5q-32 31.5 -32 72.5t32 72t73 31t71.5 -31t30.5 -72
t-30.5 -72.5t-71.5 -31.5t-73 31.5zM428 569q23 -63 96.5 -102t169.5 -39t170 39t97 102h81q-27 -102 -122 -165.5t-226 -63.5t-226 63.5t-122 165.5h82z" />
    <glyph glyph-name="invsmileface" unicode="&#x263b;" horiz-adv-x="1388" 
d="M384 148.5q-138 72.5 -218 204.5t-80 302q0 172 81 304.5t219 206t308 73.5t308.5 -73.5t219.5 -206t81 -302.5t-81 -303t-220.5 -205.5t-309.5 -72.5t-308 72.5zM603 750.5q32 31.5 32 74.5t-32 74t-73 31q-43 0 -74.5 -31t-31.5 -74t31.5 -74.5t74.5 -31.5
q41 0 73 31.5zM910.5 750.5q31.5 31.5 31.5 74.5t-31.5 74t-72.5 31q-43 0 -75 -31t-32 -74t32 -74.5t75 -31.5q41 0 72.5 31.5zM923.5 402.5q96.5 64.5 123.5 168.5h-89q-23 -63 -95 -102t-169 -39q-96 0 -168.5 39t-95.5 102h-88q27 -104 123 -168.5t229 -64.5t229.5 64.5
z" />
    <glyph glyph-name="uni2709" unicode="&#x2709;" horiz-adv-x="1435" 
d="M1251 1026v-784h-1067v784h1067zM1116 936h-794l311 -260q37 31 86 31q47 0 84 -31zM274 868v-534h887v534l-315 -264q2 -8 2 -26q0 -55 -38 -93.5t-91 -38.5q-55 0 -93 38t-38 94q0 12 4 28z" />
    <glyph glyph-name="uni2713" unicode="&#x2713;" horiz-adv-x="1605" 
d="M223 582l289 -273l860 961l160 -144l-995 -1112l-449 422z" />
    <glyph glyph-name="uni2715" unicode="&#x2715;" horiz-adv-x="1548" 
d="M74 111l602 616l-600 614l100 99l598 -613l598 613l101 -99l-603 -614l605 -616l-99 -99l-602 615l-602 -615z" />
    <glyph glyph-name="uni2736" unicode="&#x2736;" horiz-adv-x="1320" 
d="M524 874l135 439l119 -439l455 119l-320 -336l320 -321l-455 102l-119 -438l-135 438l-438 -102l320 321l-320 336z" />
    <glyph glyph-name="uni2737" unicode="&#x2737;" horiz-adv-x="1583" 
d="M694 887l97 426l98 -426l364 233l-229 -366l424 -97l-424 -98l229 -364l-364 231l-98 -426l-97 426l-364 -231l227 364l-422 98l422 97l-227 366z" />
    <glyph glyph-name="uni2764" unicode="&#x2764;" horiz-adv-x="1198" 
d="M236.5 760.5q68.5 68.5 169.5 68.5q68 0 117.5 -35.5t74.5 -97.5q25 59 75 96t120 37q100 0 168.5 -68.5t68.5 -178.5q0 -117 -56 -203t-144.5 -148.5t-231.5 -140.5q-143 78 -227 136.5t-143.5 146.5t-59.5 209q0 110 68.5 178.5z" />
    <glyph glyph-name="uni27A1" unicode="&#x27a1;" horiz-adv-x="1617" 
d="M1001 266h-802v451h802v237l500 -460l-500 -461v233z" />
    <glyph glyph-name="uni2B05" unicode="&#x2b05;" horiz-adv-x="1617" 
d="M117 494l499 460v-237h803v-451h-803v-233z" />
    <glyph glyph-name="uni2B06" unicode="&#x2b06;" horiz-adv-x="1214" 
d="M836 836v-801h-451v801h-240l463 499l461 -499h-233z" />
    <glyph glyph-name="uni2B07" unicode="&#x2b07;" horiz-adv-x="1214" 
d="M608 -12l-463 499h240v801h451v-801h233z" />
    <glyph glyph-name="uni3020" unicode="&#x3020;" horiz-adv-x="1912" 
d="M1620 1047h-1327v155h1327v-155zM879 799h-586v155h1327v-155h-586v-453h-155v453zM487 584q6 25 27 45l-37 53l49 37l41 -57q20 4 35 4q23 0 41 -7l41 60l49 -37l-39 -57q16 -23 21 -41h67v-62h-67q-10 -37 -41 -60.5t-72 -23.5q-43 0 -73.5 23.5t-41.5 60.5h-59v62h59z
M1376.5 461.5q-30.5 -23.5 -71.5 -23.5q-43 0 -74 23.5t-41 60.5h-60v62h60q6 25 27 45l-37 53l49 37l41 -57q20 4 35 4q23 0 41 -7l40 60l50 -37l-41 -57q16 -20 22 -41h68v-62h-68q-10 -37 -40.5 -60.5zM1732.5 632.5q57.5 -61.5 57.5 -153.5q0 -84 -54.5 -144.5
t-133.5 -70.5q-76 -147 -254.5 -236t-391.5 -89t-391 89t-254 236q-80 10 -134 70.5t-54 144.5q0 92 57.5 153.5t157.5 61.5v-63q-57 0 -95 -42t-38 -110q0 -66 42 -113t128 -47q59 -135 220 -217t361 -82q201 0 362 82t220 217q86 0 128 47.5t42 112.5q0 68 -38 110t-95 42
v63q100 0 157.5 -61.5zM560 595q-15 -15 -15 -42t15 -43t42 -16q25 0 40 16t15 43t-15 42t-40 15q-27 0 -42 -15zM1344.5 510q15.5 16 15.5 43t-15.5 42t-39.5 15q-27 0 -42.5 -15t-15.5 -42t15.5 -43t42.5 -16q24 0 39.5 16zM1170.5 163q-103.5 -38 -214.5 -38t-214 38
t-185 109l53 62q150 -127 346 -127q197 0 347 127l53 -62q-82 -71 -185.5 -109z" />
    <glyph glyph-name="uni5350" unicode="&#x5350;" horiz-adv-x="2000" 
d="M1120 1184v-369h551v-815h-229v590h-322v-590h-790v221h551v369h-551v815h227v-590h324v590h790v-221h-551z" />
    <glyph glyph-name="C.aalt" horiz-adv-x="1198" 
d="M158 1014.5q88 154.5 248.5 239.5t373.5 85q76 0 155 -11t134 -30v-251q-119 47 -254 47q-139 0 -244.5 -55.5t-163 -155t-57.5 -228.5t57.5 -227t161 -152.5t240.5 -54.5q70 0 147.5 14.5t143.5 45.5v-252q-61 -25 -146.5 -40.5t-173.5 -15.5q-213 0 -373.5 85
t-248.5 240t-88 359q0 203 88 357.5z" />
    <glyph glyph-name="Cacute.aalt" horiz-adv-x="1198" 
d="M700 1493l312 334l127 -127l-363 -285zM158 1014.5q88 154.5 248.5 239.5t373.5 85q76 0 155 -11t134 -30v-251q-119 47 -254 47q-139 0 -244.5 -55.5t-163 -155t-57.5 -228.5t57.5 -227t161 -152.5t240.5 -54.5q70 0 147.5 14.5t143.5 45.5v-252q-61 -25 -146.5 -40.5
t-173.5 -15.5q-213 0 -373.5 85t-248.5 240t-88 359q0 203 88 357.5z" />
    <glyph glyph-name="Ccaron.aalt" horiz-adv-x="1198" 
d="M571 1786l205 -215l205 215l119 -84l-213 -285h-221l-213 285zM158 1014.5q88 154.5 248.5 239.5t373.5 85q76 0 155 -11t134 -30v-251q-119 47 -254 47q-139 0 -244.5 -55.5t-163 -155t-57.5 -228.5t57.5 -227t161 -152.5t240.5 -54.5q70 0 147.5 14.5t143.5 45.5v-252
q-61 -25 -146.5 -40.5t-173.5 -15.5q-213 0 -373.5 85t-248.5 240t-88 359q0 203 88 357.5z" />
    <glyph glyph-name="Ccedilla.aalt" horiz-adv-x="1198" 
d="M782 -86q72 0 128.5 -45t56.5 -137q0 -100 -74 -155.5t-178 -55.5q-90 0 -160 41v131q20 -20 56 -33.5t73 -13.5q49 0 82 22.5t33 69.5q0 41 -29 63.5t-74 22.5q-23 0 -47 -6l-55 59l145 215h92v-72l-75 -108q8 2 26 2zM158 1014.5q-88 -154.5 -88 -357.5
q0 -205 88 -359.5t248.5 -239.5t373.5 -85q88 0 173 15.5t147 40.5v252q-66 -31 -143.5 -45.5t-147.5 -14.5q-137 0 -240.5 54.5t-161 152.5t-57.5 227t57.5 228.5t163 155t244.5 55.5q135 0 254 -47v251q-55 18 -134 29.5t-155 11.5q-213 0 -373.5 -85t-248.5 -239.5z" />
    <glyph glyph-name="Ccircumflex.aalt" horiz-adv-x="1198" 
d="M666 1772h221l211 -285l-117 -82l-205 215l-205 -215l-118 82zM158 1014.5q88 154.5 248.5 239.5t373.5 85q76 0 155 -11t134 -30v-251q-119 47 -254 47q-139 0 -244.5 -55.5t-163 -155t-57.5 -228.5t57.5 -227t161 -152.5t240.5 -54.5q70 0 147.5 14.5t143.5 45.5v-252
q-61 -25 -146.5 -40.5t-173.5 -15.5q-213 0 -373.5 85t-248.5 240t-88 359q0 203 88 357.5z" />
    <glyph glyph-name="Cdotaccent.aalt" horiz-adv-x="1198" 
d="M683 1458q-38 37 -38 90q0 57 38 93t93 36t91 -35.5t36 -93.5q0 -53 -37 -90t-90 -37q-55 0 -93 37zM158 1014.5q88 154.5 248.5 239.5t373.5 85q76 0 155 -11t134 -30v-251q-119 47 -254 47q-139 0 -244.5 -55.5t-163 -155t-57.5 -228.5t57.5 -227t161 -152.5
t240.5 -54.5q70 0 147.5 14.5t143.5 45.5v-252q-61 -25 -146.5 -40.5t-173.5 -15.5q-213 0 -373.5 85t-248.5 240t-88 359q0 203 88 357.5z" />
    <glyph glyph-name="G.salt" horiz-adv-x="1570" 
d="M1516 494h-125q-23 -158 -111 -275t-226.5 -181.5t-314.5 -64.5q-201 0 -352 85t-234 238t-83 351q0 203 86 360.5t241.5 244.5t356.5 87q164 0 297 -57t218 -160.5t109 -238.5h-280q-35 98 -128 154.5t-220 56.5q-186 0 -295 -120t-109 -323q0 -201 107.5 -315.5
t289.5 -114.5q150 0 251.5 75t119.5 198h-383v221h785v-221z" />
    <glyph glyph-name="Gbreve.aalt" horiz-adv-x="1570" 
d="M941 1504q-93 -81 -232 -81q-145 0 -237.5 84t-100.5 222h176q6 -63 50 -100.5t112 -37.5t109.5 37t45.5 101h178q-8 -144 -101 -225zM1516 494h-125q-23 -158 -111 -275t-226.5 -181.5t-314.5 -64.5q-201 0 -352 85t-234 238t-83 351q0 203 86 360.5t241.5 244.5
t356.5 87q164 0 297 -57t218 -160.5t109 -238.5h-280q-35 98 -128 154.5t-220 56.5q-186 0 -295 -120t-109 -323q0 -201 107.5 -315.5t289.5 -114.5q150 0 251.5 75t119.5 198h-383v221h785v-221z" />
    <glyph glyph-name="Gcircumflex.aalt" horiz-adv-x="1570" 
d="M596 1778h221l211 -285l-117 -82l-204 215l-205 -215l-119 82zM1516 494h-125q-23 -158 -111 -275t-226.5 -181.5t-314.5 -64.5q-201 0 -352 85t-234 238t-83 351q0 203 86 360.5t241.5 244.5t356.5 87q164 0 297 -57t218 -160.5t109 -238.5h-280q-35 98 -128 154.5
t-220 56.5q-186 0 -295 -120t-109 -323q0 -201 107.5 -315.5t289.5 -114.5q150 0 251.5 75t119.5 198h-383v221h785v-221z" />
    <glyph glyph-name="uni0122.aalt" horiz-adv-x="1570" 
d="M883 -127q37 -43 37 -113q0 -104 -64.5 -172.5t-181.5 -72.5v55q68 8 102.5 42t38.5 83q-25 -10 -47 -10q-47 0 -76.5 31.5t-29.5 78.5q0 53 35.5 87t90.5 34q58 0 95 -43zM1516 494h-125q-23 -158 -111 -275t-226.5 -181.5t-314.5 -64.5q-201 0 -352 85t-234 238
t-83 351q0 203 86 360.5t241.5 244.5t356.5 87q164 0 297 -57t218 -160.5t109 -238.5h-280q-35 98 -128 154.5t-220 56.5q-186 0 -295 -120t-109 -323q0 -201 107.5 -315.5t289.5 -114.5q150 0 251.5 75t119.5 198h-383v221h785v-221z" />
    <glyph glyph-name="Gdotaccent.aalt" horiz-adv-x="1570" 
d="M613 1464q-38 37 -38 90q0 57 38 93t94 36q55 0 91 -35.5t36 -93.5q0 -53 -37 -90t-90 -37q-56 0 -94 37zM1516 494h-125q-23 -158 -111 -275t-226.5 -181.5t-314.5 -64.5q-201 0 -352 85t-234 238t-83 351q0 203 86 360.5t241.5 244.5t356.5 87q164 0 297 -57
t218 -160.5t109 -238.5h-280q-35 98 -128 154.5t-220 56.5q-186 0 -295 -120t-109 -323q0 -201 107.5 -315.5t289.5 -114.5q150 0 251.5 75t119.5 198h-383v221h785v-221z" />
    <glyph glyph-name="Q.aalt" horiz-adv-x="1548" 
d="M1145 -428l-416 401q-190 8 -340.5 96.5t-234.5 240t-84 345.5q0 199 90 354.5t248.5 242.5t359.5 87t360.5 -86t249.5 -241.5t90 -354.5q0 -231 -119.5 -401t-320.5 -240l526 -444h-409zM403.5 428q53.5 -98 148.5 -152.5t216 -54.5t215 55.5t148.5 154.5t54.5 226
t-53.5 226.5t-148.5 154t-214 54.5q-121 0 -216 -55.5t-149.5 -154t-54.5 -227.5t53.5 -227z" />
    <glyph glyph-name="R.aalt" horiz-adv-x="1292" 
d="M1072 491.5q38 -51.5 52 -133.5l66 -358h-275l-63 330q-18 88 -60 120.5t-133 32.5h-247v-483h-267v1313h590q211 0 333 -108.5t122 -301.5q0 -117 -60.5 -207t-164.5 -135q69 -18 107 -69.5zM853 749.5q56 53.5 56 141.5q0 84 -55 137t-168 53h-274v-385h270
q115 0 171 53.5z" />
    <glyph glyph-name="Racute.aalt" horiz-adv-x="1292" 
d="M516 1499l311 334l127 -127l-362 -285zM1072 491.5q38 -51.5 52 -133.5l66 -358h-275l-63 330q-18 88 -60 120.5t-133 32.5h-247v-483h-267v1313h590q211 0 333 -108.5t122 -301.5q0 -117 -60.5 -207t-164.5 -135q69 -18 107 -69.5zM853 749.5q56 53.5 56 141.5
q0 84 -55 137t-168 53h-274v-385h270q115 0 171 53.5z" />
    <glyph glyph-name="Rcaron.aalt" horiz-adv-x="1292" 
d="M387 1792l205 -215l205 215l118 -84l-213 -285h-221l-213 285zM1072 491.5q38 -51.5 52 -133.5l66 -358h-275l-63 330q-18 88 -60 120.5t-133 32.5h-247v-483h-267v1313h590q211 0 333 -108.5t122 -301.5q0 -117 -60.5 -207t-164.5 -135q69 -18 107 -69.5zM853 749.5
q56 53.5 56 141.5q0 84 -55 137t-168 53h-274v-385h270q115 0 171 53.5z" />
    <glyph glyph-name="uni0156.aalt" horiz-adv-x="1292" 
d="M754 -70q37 -43 37 -112q0 -104 -64.5 -173t-181.5 -73v55q68 8 102.5 42t38.5 83q-25 -10 -47 -10q-47 0 -77 31.5t-30 79.5q0 53 36 86.5t91 33.5q58 0 95 -43zM1072 491.5q38 -51.5 52 -133.5l66 -358h-275l-63 330q-18 88 -60 120.5t-133 32.5h-247v-483h-267v1313
h590q211 0 333 -108.5t122 -301.5q0 -117 -60.5 -207t-164.5 -135q69 -18 107 -69.5zM853 749.5q56 53.5 56 141.5q0 84 -55 137t-168 53h-274v-385h270q115 0 171 53.5z" />
    <glyph glyph-name="S.aalt" horiz-adv-x="1130" 
d="M403.5 884.5q24.5 -26.5 66.5 -42t124 -35.5q12 -2 63 -16q178 -43 276.5 -135.5t98.5 -262.5q0 -203 -138 -311.5t-372 -108.5q-115 0 -228.5 27t-184.5 70v252q90 -53 195.5 -83t211.5 -30q117 0 175.5 39t58.5 110q0 55 -34 88t-83 50.5t-135 38.5l-54 12
q-164 39 -255 128t-91 253q0 195 135.5 303t366.5 108q90 0 187.5 -20.5t166.5 -52.5v-252q-74 39 -168 64.5t-180 25.5q-113 0 -170 -39t-57 -109q0 -45 24.5 -71.5z" />
    <glyph glyph-name="Sacute.aalt" horiz-adv-x="1130" 
d="M463 1495l311 334l127 -127l-362 -285zM403.5 884.5q24.5 -26.5 66.5 -42t124 -35.5q12 -2 63 -16q178 -43 276.5 -135.5t98.5 -262.5q0 -203 -138 -311.5t-372 -108.5q-115 0 -228.5 27t-184.5 70v252q90 -53 195.5 -83t211.5 -30q117 0 175.5 39t58.5 110q0 55 -34 88
t-83 50.5t-135 38.5l-54 12q-164 39 -255 128t-91 253q0 195 135.5 303t366.5 108q90 0 187.5 -20.5t166.5 -52.5v-252q-74 39 -168 64.5t-180 25.5q-113 0 -170 -39t-57 -109q0 -45 24.5 -71.5z" />
    <glyph glyph-name="Scaron.aalt" horiz-adv-x="1130" 
d="M334 1788l205 -215l204 215l119 -84l-213 -285h-221l-213 285zM403.5 884.5q24.5 -26.5 66.5 -42t124 -35.5q12 -2 63 -16q178 -43 276.5 -135.5t98.5 -262.5q0 -203 -138 -311.5t-372 -108.5q-115 0 -228.5 27t-184.5 70v252q90 -53 195.5 -83t211.5 -30q117 0 175.5 39
t58.5 110q0 55 -34 88t-83 50.5t-135 38.5l-54 12q-164 39 -255 128t-91 253q0 195 135.5 303t366.5 108q90 0 187.5 -20.5t166.5 -52.5v-252q-74 39 -168 64.5t-180 25.5q-113 0 -170 -39t-57 -109q0 -45 24.5 -71.5z" />
    <glyph glyph-name="Scedilla.salt" horiz-adv-x="1130" 
d="M575 -96q72 0 128.5 -45t56.5 -138q0 -100 -74 -155t-178 -55q-90 0 -160 40v132q20 -20 56 -34t73 -14q49 0 82 23t33 70q0 41 -28.5 63.5t-74.5 22.5q-23 0 -47 -7l-55 60l145 215h93v-72l-76 -108q8 2 26 2zM403.5 884.5q24.5 -26.5 66.5 -42t124 -35.5q12 -2 63 -16
q178 -43 276.5 -135.5t98.5 -262.5q0 -203 -138 -311.5t-372 -108.5q-115 0 -228.5 27t-184.5 70v252q90 -53 195.5 -83t211.5 -30q117 0 175.5 39t58.5 110q0 55 -34 88t-83 50.5t-135 38.5l-54 12q-164 39 -255 128t-91 253q0 195 135.5 303t366.5 108q90 0 187.5 -20.5
t166.5 -52.5v-252q-74 39 -168 64.5t-180 25.5q-113 0 -170 -39t-57 -109q0 -45 24.5 -71.5z" />
    <glyph glyph-name="Scircumflex.aalt" horiz-adv-x="1130" 
d="M428 1774h221l211 -285l-117 -82l-204 215l-205 -215l-119 82zM403.5 884.5q24.5 -26.5 66.5 -42t124 -35.5q12 -2 63 -16q178 -43 276.5 -135.5t98.5 -262.5q0 -203 -138 -311.5t-372 -108.5q-115 0 -228.5 27t-184.5 70v252q90 -53 195.5 -83t211.5 -30q117 0 175.5 39
t58.5 110q0 55 -34 88t-83 50.5t-135 38.5l-54 12q-164 39 -255 128t-91 253q0 195 135.5 303t366.5 108q90 0 187.5 -20.5t166.5 -52.5v-252q-74 39 -168 64.5t-180 25.5q-113 0 -170 -39t-57 -109q0 -45 24.5 -71.5z" />
    <glyph glyph-name="uni0218.aalt" horiz-adv-x="1130" 
d="M635 -147q37 -43 37 -113q0 -104 -64.5 -173t-181.5 -73v55q68 8 102.5 42t38.5 83q-25 -10 -47 -10q-47 0 -76.5 32t-29.5 79q0 53 35.5 87t91.5 34q57 0 94 -43zM403.5 884.5q24.5 -26.5 66.5 -42t124 -35.5q12 -2 63 -16q178 -43 276.5 -135.5t98.5 -262.5
q0 -203 -138 -311.5t-372 -108.5q-115 0 -228.5 27t-184.5 70v252q90 -53 195.5 -83t211.5 -30q117 0 175.5 39t58.5 110q0 55 -34 88t-83 50.5t-135 38.5l-54 12q-164 39 -255 128t-91 253q0 195 135.5 303t366.5 108q90 0 187.5 -20.5t166.5 -52.5v-252q-74 39 -168 64.5
t-180 25.5q-113 0 -170 -39t-57 -109q0 -45 24.5 -71.5z" />
    <glyph glyph-name="Z.aalt" horiz-adv-x="1107" 
d="M1024 1268l-545 -1026h529v-242h-926v55l534 1016h-522v242h930v-45z" />
    <glyph glyph-name="Zacute.aalt" horiz-adv-x="1107" 
d="M473 1466l311 334l127 -127l-362 -284zM1024 1268l-545 -1026h529v-242h-926v55l534 1016h-522v242h930v-45z" />
    <glyph glyph-name="Zcaron.aalt" horiz-adv-x="1107" 
d="M344 1759l205 -215l205 215l118 -84l-213 -284h-221l-213 284zM1024 1268l-545 -1026h529v-242h-926v55l534 1016h-522v242h930v-45z" />
    <glyph glyph-name="Zdotaccent.aalt" horiz-adv-x="1107" 
d="M456 1431.5q-38 36.5 -38 90.5q0 57 38 93t93 36t91 -36t36 -93q0 -53 -37 -90t-90 -37q-55 0 -93 36.5zM1024 1268l-545 -1026h529v-242h-926v55l534 1016h-522v242h930v-45z" />
    <glyph glyph-name="G.ss02" horiz-adv-x="1505" 
d="M1399 719v-719h-219l-23 147q-78 -84 -192.5 -128t-249.5 -44q-193 0 -338.5 83t-226 234.5t-80.5 350.5q0 207 85 364.5t241.5 244.5t361.5 87q160 0 293 -57t220 -160.5t111 -240.5h-295q-31 102 -127 157.5t-217 55.5q-180 0 -288.5 -122t-108.5 -323t108.5 -314.5
t295.5 -113.5q145 0 242.5 70.5t125.5 193.5h-387v234h668z" />
    <glyph glyph-name="K.aalt" horiz-adv-x="1277" 
d="M680 500h-268v-500h-267v1313h267v-592h250q115 0 156.5 54t41.5 163v375h266v-445q0 -111 -45 -190.5t-129 -124.5l250 -553h-307z" />
    <glyph glyph-name="M.aalt" horiz-adv-x="1765" 
d="M1397 0l-133 762l-250 -723h-262l-250 723l-137 -762h-299l270 1313h260l287 -895l286 895h258l273 -1313h-303z" />
    <glyph glyph-name="Y.aalt" horiz-adv-x="1302" 
d="M1194 1313v-371q0 -188 -109.5 -310t-298.5 -155v-477h-268v475q-188 33 -298.5 154t-110.5 313v371h268v-340q0 -139 75.5 -201.5t198.5 -62.5q125 0 201 63.5t76 200.5v340h266z" />
    <glyph glyph-name="Yacute.aalt" horiz-adv-x="1302" 
d="M575 1466l312 334l127 -127l-363 -284zM1194 1313v-371q0 -188 -109.5 -310t-298.5 -155v-477h-268v475q-188 33 -298.5 154t-110.5 313v371h268v-340q0 -139 75.5 -201.5t198.5 -62.5q125 0 201 63.5t76 200.5v340h266z" />
    <glyph glyph-name="Ycircumflex.aalt" horiz-adv-x="1302" 
d="M541 1745h221l211 -285l-117 -82l-205 215l-205 -215l-118 82zM1194 1313v-371q0 -188 -109.5 -310t-298.5 -155v-477h-268v475q-188 33 -298.5 154t-110.5 313v371h268v-340q0 -139 75.5 -201.5t198.5 -62.5q125 0 201 63.5t76 200.5v340h266z" />
    <glyph glyph-name="Ydieresis.aalt" horiz-adv-x="1302" 
d="M363.5 1431.5q-37.5 36.5 -37.5 90.5q0 57 37.5 93t93.5 36q55 0 91 -36t36 -93q0 -53 -37 -90t-90 -37q-56 0 -93.5 36.5zM755 1431.5q-38 36.5 -38 90.5q0 57 38 93t93 36t92 -36t37 -93q0 -53 -37 -90t-92 -37t-93 36.5zM1194 1313v-371q0 -188 -109.5 -310
t-298.5 -155v-477h-268v475q-188 33 -298.5 154t-110.5 313v371h268v-340q0 -139 75.5 -201.5t198.5 -62.5q125 0 201 63.5t76 200.5v340h266z" />
    <glyph glyph-name="Ygrave.aalt" horiz-adv-x="1302" 
d="M289 1673l127 127l311 -334l-76 -77zM1194 1313v-371q0 -188 -109.5 -310t-298.5 -155v-477h-268v475q-188 33 -298.5 154t-110.5 313v371h268v-340q0 -139 75.5 -201.5t198.5 -62.5q125 0 201 63.5t76 200.5v340h266z" />
    <glyph glyph-name="i.locl" horiz-adv-x="493" 
d="M155 1083.5q-38 36.5 -38 90.5q0 57 38 93t93 36t91 -36t36 -93q0 -53 -37 -90t-90 -37q-55 0 -93 36.5zM375 918v-918h-256v918h256z" />
    <glyph glyph-name="c.aalt" horiz-adv-x="894" 
d="M206 102q-136 129 -136 353q0 147 63.5 258.5t178 173t266.5 61.5q66 0 132 -11t113 -30v-229q-43 20 -100 31.5t-111 11.5q-133 0 -207.5 -70.5t-74.5 -189.5q0 -125 74.5 -192.5t203.5 -67.5q57 0 121 13t111 32v-226q-55 -23 -128 -35t-141 -12q-229 0 -365 129z" />
    <glyph glyph-name="cacute.aalt" horiz-adv-x="894" 
d="M440 1102l312 334l127 -127l-363 -285zM206 102q-136 129 -136 353q0 147 63.5 258.5t178 173t266.5 61.5q66 0 132 -11t113 -30v-229q-43 20 -100 31.5t-111 11.5q-133 0 -207.5 -70.5t-74.5 -189.5q0 -125 74.5 -192.5t203.5 -67.5q57 0 121 13t111 32v-226
q-55 -23 -128 -35t-141 -12q-229 0 -365 129z" />
    <glyph glyph-name="ccaron.aalt" horiz-adv-x="894" 
d="M311 1395l205 -215l205 215l119 -84l-213 -285h-221l-213 285zM206 102q-136 129 -136 353q0 147 63.5 258.5t178 173t266.5 61.5q66 0 132 -11t113 -30v-229q-43 20 -100 31.5t-111 11.5q-133 0 -207.5 -70.5t-74.5 -189.5q0 -125 74.5 -192.5t203.5 -67.5q57 0 121 13
t111 32v-226q-55 -23 -128 -35t-141 -12q-229 0 -365 129z" />
    <glyph glyph-name="ccedilla.aalt" horiz-adv-x="894" 
d="M543 -82q72 0 128 -45t56 -137q0 -100 -73.5 -155.5t-178.5 -55.5q-90 0 -160 41v131q20 -20 56.5 -33.5t72.5 -13.5q49 0 82 22.5t33 69.5q0 41 -28.5 63.5t-73.5 22.5q-23 0 -47 -6l-56 59l146 215h92v-71l-76 -109q9 2 27 2zM206 102q136 -129 365 -129
q68 0 140.5 12.5t128.5 34.5v226q-47 -18 -110.5 -31.5t-121.5 -13.5q-129 0 -203.5 67.5t-74.5 192.5q0 119 74.5 189.5t207.5 70.5q53 0 110.5 -11.5t100.5 -31.5v229q-47 18 -113.5 29.5t-131.5 11.5q-152 0 -266.5 -61.5t-178 -173t-63.5 -258.5q0 -224 136 -353z" />
    <glyph glyph-name="ccircumflex.aalt" horiz-adv-x="894" 
d="M406 1380h221l211 -284l-117 -82l-205 215l-205 -215l-118 82zM206 102q-136 129 -136 353q0 147 63.5 258.5t178 173t266.5 61.5q66 0 132 -11t113 -30v-229q-43 20 -100 31.5t-111 11.5q-133 0 -207.5 -70.5t-74.5 -189.5q0 -125 74.5 -192.5t203.5 -67.5q57 0 121 13
t111 32v-226q-55 -23 -128 -35t-141 -12q-229 0 -365 129z" />
    <glyph glyph-name="cdotaccent.aalt" horiz-adv-x="894" 
d="M423 1067q-38 37 -38 90q0 57 38 93t93 36t91 -36t36 -93q0 -53 -37 -90t-90 -37q-55 0 -93 37zM206 102q-136 129 -136 353q0 147 63.5 258.5t178 173t266.5 61.5q66 0 132 -11t113 -30v-229q-43 20 -100 31.5t-111 11.5q-133 0 -207.5 -70.5t-74.5 -189.5
q0 -125 74.5 -192.5t203.5 -67.5q57 0 121 13t111 32v-226q-55 -23 -128 -35t-141 -12q-229 0 -365 129z" />
    <glyph glyph-name="e.aalt" horiz-adv-x="1028" 
d="M954 389h-632q8 -88 83.5 -138t210.5 -50q76 0 144.5 15t148.5 48v-229q-68 -29 -156.5 -45.5t-174.5 -16.5q-242 0 -378.5 133.5t-136.5 354.5q0 145 58.5 255.5t163 171t237.5 60.5q131 0 231.5 -54t156 -154.5t55.5 -233.5q-1 -72 -11 -117zM711 565q-2 84 -54.5 129
t-136.5 45t-138 -46t-56 -128h385z" />
    <glyph glyph-name="eacute.aalt" horiz-adv-x="1028" 
d="M451 1102l311 334l127 -127l-363 -285zM954 389h-632q8 -88 83.5 -138t210.5 -50q76 0 144.5 15t148.5 48v-229q-68 -29 -156.5 -45.5t-174.5 -16.5q-242 0 -378.5 133.5t-136.5 354.5q0 145 58.5 255.5t163 171t237.5 60.5q131 0 231.5 -54t156 -154.5t55.5 -233.5
q-1 -72 -11 -117zM711 565q-2 84 -54.5 129t-136.5 45t-138 -46t-56 -128h385z" />
    <glyph glyph-name="ebreve.aalt" horiz-adv-x="1028" 
d="M761 1107q-93 -81 -233 -81q-145 0 -237 84t-101 221h177q6 -63 50 -100t111 -37q68 0 110 37t46 100h178q-8 -143 -101 -224zM954 389h-632q8 -88 83.5 -138t210.5 -50q76 0 144.5 15t148.5 48v-229q-68 -29 -156.5 -45.5t-174.5 -16.5q-242 0 -378.5 133.5
t-136.5 354.5q0 145 58.5 255.5t163 171t237.5 60.5q131 0 231.5 -54t156 -154.5t55.5 -233.5q-1 -72 -11 -117zM711 565q-2 84 -54.5 129t-136.5 45t-138 -46t-56 -128h385z" />
    <glyph glyph-name="ecaron.aalt" horiz-adv-x="1028" 
d="M322 1395l204 -215l205 215l119 -84l-213 -285h-221l-213 285zM954 389h-632q8 -88 83.5 -138t210.5 -50q76 0 144.5 15t148.5 48v-229q-68 -29 -156.5 -45.5t-174.5 -16.5q-242 0 -378.5 133.5t-136.5 354.5q0 145 58.5 255.5t163 171t237.5 60.5q131 0 231.5 -54
t156 -154.5t55.5 -233.5q-1 -72 -11 -117zM711 565q-2 84 -54.5 129t-136.5 45t-138 -46t-56 -128h385z" />
    <glyph glyph-name="ecircumflex.aalt" horiz-adv-x="1028" 
d="M416 1380h221l211 -284l-117 -82l-205 215l-204 -215l-119 82zM954 389h-632q8 -88 83.5 -138t210.5 -50q76 0 144.5 15t148.5 48v-229q-68 -29 -156.5 -45.5t-174.5 -16.5q-242 0 -378.5 133.5t-136.5 354.5q0 145 58.5 255.5t163 171t237.5 60.5q131 0 231.5 -54
t156 -154.5t55.5 -233.5q-1 -72 -11 -117zM711 565q-2 84 -54.5 129t-136.5 45t-138 -46t-56 -128h385z" />
    <glyph glyph-name="edieresis.aalt" horiz-adv-x="1028" 
d="M238.5 1067q-37.5 37 -37.5 90q0 57 37.5 93t93.5 36q55 0 91 -36t36 -93q0 -53 -37 -90t-90 -37q-56 0 -93.5 37zM630 1067q-38 37 -38 90q0 57 38 93t93 36t92 -36t37 -93q0 -53 -37 -90t-92 -37t-93 37zM954 389h-632q8 -88 83.5 -138t210.5 -50q76 0 144.5 15
t148.5 48v-229q-68 -29 -156.5 -45.5t-174.5 -16.5q-242 0 -378.5 133.5t-136.5 354.5q0 145 58.5 255.5t163 171t237.5 60.5q131 0 231.5 -54t156 -154.5t55.5 -233.5q-1 -72 -11 -117zM711 565q-2 84 -54.5 129t-136.5 45t-138 -46t-56 -128h385z" />
    <glyph glyph-name="edotaccent.aalt" horiz-adv-x="1028" 
d="M433 1067q-38 37 -38 90q0 57 38 93t93 36t91 -36t36 -93q0 -53 -36.5 -90t-90.5 -37q-55 0 -93 37zM954 389h-632q8 -88 83.5 -138t210.5 -50q76 0 144.5 15t148.5 48v-229q-68 -29 -156.5 -45.5t-174.5 -16.5q-242 0 -378.5 133.5t-136.5 354.5q0 145 58.5 255.5
t163 171t237.5 60.5q131 0 231.5 -54t156 -154.5t55.5 -233.5q-1 -72 -11 -117zM711 565q-2 84 -54.5 129t-136.5 45t-138 -46t-56 -128h385z" />
    <glyph glyph-name="egrave.aalt" horiz-adv-x="1028" 
d="M164 1309l127 127l311 -334l-76 -78zM954 389h-632q8 -88 83.5 -138t210.5 -50q76 0 144.5 15t148.5 48v-229q-68 -29 -156.5 -45.5t-174.5 -16.5q-242 0 -378.5 133.5t-136.5 354.5q0 145 58.5 255.5t163 171t237.5 60.5q131 0 231.5 -54t156 -154.5t55.5 -233.5
q-1 -72 -11 -117zM711 565q-2 84 -54.5 129t-136.5 45t-138 -46t-56 -128h385z" />
    <glyph glyph-name="emacron.aalt" horiz-adv-x="1028" 
d="M805 1212v-172h-557v172h557zM954 389h-632q8 -88 83.5 -138t210.5 -50q76 0 144.5 15t148.5 48v-229q-68 -29 -156.5 -45.5t-174.5 -16.5q-242 0 -378.5 133.5t-136.5 354.5q0 145 58.5 255.5t163 171t237.5 60.5q131 0 231.5 -54t156 -154.5t55.5 -233.5
q-1 -72 -11 -117zM711 565q-2 84 -54.5 129t-136.5 45t-138 -46t-56 -128h385z" />
    <glyph glyph-name="eogonek.aalt" horiz-adv-x="1028" 
d="M913 39q-57 -33 -85.5 -73t-28.5 -75q0 -29 20.5 -47t57.5 -18q27 0 63 12v-133q-61 -20 -119 -20q-86 0 -136 45t-50 112q0 53 33.5 105.5t99.5 91.5h145zM954 389h-632q8 -88 83.5 -138t210.5 -50q76 0 144.5 15t148.5 48v-229q-68 -29 -156.5 -45.5t-174.5 -16.5
q-242 0 -378.5 133.5t-136.5 354.5q0 145 58.5 255.5t163 171t237.5 60.5q131 0 231.5 -54t156 -154.5t55.5 -233.5q-1 -72 -11 -117zM711 565q-2 84 -54.5 129t-136.5 45t-138 -46t-56 -128h385z" />
    <glyph glyph-name="g.salt" horiz-adv-x="1155" 
d="M309 -425q-92 19 -155 54v228q147 -80 319 -80q162 0 240 67.5t78 186.5v114q-39 -61 -119 -96t-178 -35q-127 0 -226.5 58.5t-156 163t-56.5 239.5q0 137 57.5 245.5t158 168t227.5 59.5q100 0 178 -37t119 -100l16 107h236v-877q0 -229 -143.5 -357t-399.5 -128
q-103 0 -195 19zM716.5 305.5q67.5 69.5 67.5 175.5q0 109 -67.5 177.5t-171.5 68.5q-102 0 -166 -68.5t-64 -177.5t65.5 -177t166.5 -68q102 0 169.5 69.5z" />
    <glyph glyph-name="gbreve.salt" horiz-adv-x="1155" 
d="M791.5 1107q-93.5 -81 -232.5 -81q-145 0 -237.5 84t-100.5 221h176q6 -63 50.5 -100t111.5 -37q68 0 110 37t46 100h178q-8 -143 -101.5 -224zM309 -425q-92 19 -155 54v228q147 -80 319 -80q162 0 240 67.5t78 186.5v114q-39 -61 -119 -96t-178 -35q-127 0 -226.5 58.5
t-156 163t-56.5 239.5q0 137 57.5 245.5t158 168t227.5 59.5q100 0 178 -37t119 -100l16 107h236v-877q0 -229 -143.5 -357t-399.5 -128q-103 0 -195 19zM716.5 305.5q67.5 69.5 67.5 175.5q0 109 -67.5 177.5t-171.5 68.5q-102 0 -166 -68.5t-64 -177.5t65.5 -177
t166.5 -68q102 0 169.5 69.5z" />
    <glyph glyph-name="gcircumflex.salt" horiz-adv-x="1155" 
d="M446 1380h222l211 -284l-117 -82l-205 215l-205 -215l-119 82zM309 -425q-92 19 -155 54v228q147 -80 319 -80q162 0 240 67.5t78 186.5v114q-39 -61 -119 -96t-178 -35q-127 0 -226.5 58.5t-156 163t-56.5 239.5q0 137 57.5 245.5t158 168t227.5 59.5q100 0 178 -37
t119 -100l16 107h236v-877q0 -229 -143.5 -357t-399.5 -128q-103 0 -195 19zM716.5 305.5q67.5 69.5 67.5 175.5q0 109 -67.5 177.5t-171.5 68.5q-102 0 -166 -68.5t-64 -177.5t65.5 -177t166.5 -68q102 0 169.5 69.5z" />
    <glyph glyph-name="uni0123.salt" horiz-adv-x="1155" 
d="M652.5 1218.5q29.5 -30.5 29.5 -77.5q0 -53 -35 -87t-92 -34q-59 0 -95 43t-36 113q0 104 64.5 172.5t181.5 70.5v-55q-68 -8 -104 -44t-38 -83q16 12 50 12q45 0 74.5 -30.5zM309 -425q-92 19 -155 54v228q147 -80 319 -80q162 0 240 67.5t78 186.5v114
q-39 -61 -119 -96t-178 -35q-127 0 -226.5 58.5t-156 163t-56.5 239.5q0 137 57.5 245.5t158 168t227.5 59.5q100 0 178 -37t119 -100l16 107h236v-877q0 -229 -143.5 -357t-399.5 -128q-103 0 -195 19zM716.5 305.5q67.5 69.5 67.5 175.5q0 109 -67.5 177.5t-171.5 68.5
q-102 0 -166 -68.5t-64 -177.5t65.5 -177t166.5 -68q102 0 169.5 69.5z" />
    <glyph glyph-name="gdotaccent.salt" horiz-adv-x="1155" 
d="M464 1067q-38 37 -38 90q0 57 38 93t93 36t91 -36t36 -93q0 -53 -37 -90t-90 -37q-55 0 -93 37zM309 -425q-92 19 -155 54v228q147 -80 319 -80q162 0 240 67.5t78 186.5v114q-39 -61 -119 -96t-178 -35q-127 0 -226.5 58.5t-156 163t-56.5 239.5q0 137 57.5 245.5
t158 168t227.5 59.5q100 0 178 -37t119 -100l16 107h236v-877q0 -229 -143.5 -357t-399.5 -128q-103 0 -195 19zM716.5 305.5q67.5 69.5 67.5 175.5q0 109 -67.5 177.5t-171.5 68.5q-102 0 -166 -68.5t-64 -177.5t65.5 -177t166.5 -68q102 0 169.5 69.5z" />
    <glyph glyph-name="s.aalt" horiz-adv-x="894" 
d="M177.5 864q103.5 84 283.5 84q80 0 158.5 -16.5t138.5 -42.5v-225q-66 33 -147 51t-152 18q-129 0 -129 -74q0 -37 25.5 -50t84.5 -25l113 -23q135 -27 201.5 -101.5t66.5 -180.5q0 -139 -109.5 -222.5t-293.5 -83.5q-90 0 -176 18.5t-140 47.5v231q74 -41 163 -62.5
t171 -21.5q127 0 127 74q0 37 -27.5 53.5t-78.5 26.5l-95 18q-117 20 -202.5 80t-85.5 199q0 143 103.5 227z" />
    <glyph glyph-name="sacute.aalt" horiz-adv-x="894" 
d="M385 1104l311 334l127 -127l-362 -285zM177.5 864q103.5 84 283.5 84q80 0 158.5 -16.5t138.5 -42.5v-225q-66 33 -147 51t-152 18q-129 0 -129 -74q0 -37 25.5 -50t84.5 -25l113 -23q135 -27 201.5 -101.5t66.5 -180.5q0 -139 -109.5 -222.5t-293.5 -83.5
q-90 0 -176 18.5t-140 47.5v231q74 -41 163 -62.5t171 -21.5q127 0 127 74q0 37 -27.5 53.5t-78.5 26.5l-95 18q-117 20 -202.5 80t-85.5 199q0 143 103.5 227z" />
    <glyph glyph-name="scaron.aalt" horiz-adv-x="894" 
d="M256 1397l205 -215l205 215l118 -84l-213 -285h-221l-213 285zM177.5 864q103.5 84 283.5 84q80 0 158.5 -16.5t138.5 -42.5v-225q-66 33 -147 51t-152 18q-129 0 -129 -74q0 -37 25.5 -50t84.5 -25l113 -23q135 -27 201.5 -101.5t66.5 -180.5q0 -139 -109.5 -222.5
t-293.5 -83.5q-90 0 -176 18.5t-140 47.5v231q74 -41 163 -62.5t171 -21.5q127 0 127 74q0 37 -27.5 53.5t-78.5 26.5l-95 18q-117 20 -202.5 80t-85.5 199q0 143 103.5 227z" />
    <glyph glyph-name="scedilla.salt" horiz-adv-x="894" 
d="M465 -82q72 0 128 -45t56 -137q0 -100 -73.5 -155.5t-178.5 -55.5q-90 0 -159 41v131q20 -20 56 -33.5t73 -13.5q49 0 81.5 22.5t32.5 69.5q0 41 -28.5 63.5t-73.5 22.5q-23 0 -47 -6l-56 59l146 215h92v-71l-76 -109q9 2 27 2zM177.5 864q-103.5 -84 -103.5 -227
q0 -139 86 -198.5t202 -80.5l95 -18q51 -10 78.5 -26.5t27.5 -53.5q0 -74 -127 -74q-82 0 -171 21.5t-163 62.5v-231q53 -29 139.5 -47.5t176.5 -18.5q184 0 293.5 83t109.5 223q0 106 -66.5 181t-201.5 101l-113 23q-59 12 -84.5 25.5t-25.5 49.5q0 74 129 74
q72 0 152.5 -18.5t146.5 -50.5v225q-59 27 -138 43t-159 16q-180 0 -283.5 -84z" />
    <glyph glyph-name="scircumflex.aalt" horiz-adv-x="894" 
d="M350 1382h221l211 -284l-116 -82l-205 215l-205 -215l-119 82zM177.5 864q103.5 84 283.5 84q80 0 158.5 -16.5t138.5 -42.5v-225q-66 33 -147 51t-152 18q-129 0 -129 -74q0 -37 25.5 -50t84.5 -25l113 -23q135 -27 201.5 -101.5t66.5 -180.5q0 -139 -109.5 -222.5
t-293.5 -83.5q-90 0 -176 18.5t-140 47.5v231q74 -41 163 -62.5t171 -21.5q127 0 127 74q0 37 -27.5 53.5t-78.5 26.5l-95 18q-117 20 -202.5 80t-85.5 199q0 143 103.5 227z" />
    <glyph glyph-name="uni0219.aalt" horiz-adv-x="890" 
d="M553 -133q37 -43 37 -113q0 -104 -64.5 -172.5t-181.5 -73.5v56q68 8 102.5 42t38.5 83q-25 -10 -47 -11q-47 0 -76.5 32t-29.5 79q0 53 35.5 87t91.5 34q57 0 94 -43zM177.5 864q103.5 84 283.5 84q80 0 158.5 -16.5t138.5 -42.5v-225q-66 33 -147 51t-152 18
q-129 0 -129 -74q0 -37 25.5 -50t84.5 -25l113 -23q135 -27 201.5 -101.5t66.5 -180.5q0 -139 -109.5 -222.5t-293.5 -83.5q-90 0 -176 18.5t-140 47.5v231q74 -41 163 -62.5t171 -21.5q127 0 127 74q0 37 -27.5 53.5t-78.5 26.5l-95 18q-117 20 -202.5 80t-85.5 199
q0 143 103.5 227z" />
    <glyph glyph-name="t.aalt" horiz-adv-x="681" 
d="M33 762l358 412h25v-256h223v-209h-223v-351q0 -68 27.5 -110.5t113.5 -42.5q25 0 47.5 3t34.5 7v-215q-61 -14 -143 -14q-152 0 -224.5 61.5t-90 139t-17.5 173.5v349h-131v53z" />
    <glyph glyph-name="tbar.aalt" horiz-adv-x="671" 
d="M33 762l358 412h25v-256h223v-209h-223v-351q0 -68 27.5 -110.5t113.5 -42.5q25 0 47.5 3t34.5 7v-215q-61 -14 -143 -14q-152 0 -224.5 61.5t-90 139t-17.5 173.5v349h-131v53zM642 378h-601v191h601v-191z" />
    <glyph glyph-name="tcaron.aalt" horiz-adv-x="708" 
d="M635 1004h-133v389h174zM33 762l358 412h25v-256h223v-209h-223v-351q0 -68 27.5 -110.5t113.5 -42.5q25 0 47.5 3t34.5 7v-215q-61 -14 -143 -14q-152 0 -224.5 61.5t-90 139t-17.5 173.5v349h-131v53z" />
    <glyph glyph-name="uni0163.salt" horiz-adv-x="681" 
d="M471 -74q72 0 128 -45t56 -137q0 -100 -73.5 -155.5t-178.5 -55.5q-90 0 -159 41v131q20 -20 56 -33.5t73 -13.5q49 0 81.5 22.5t32.5 69.5q0 41 -28.5 63.5t-73.5 22.5q-23 0 -47 -6l-55 59l145 215h92v-71l-76 -109q9 2 27 2zM33 762v-53h131v-349q0 -96 17.5 -173.5
t90 -139t224.5 -61.5q82 0 143 14v215q-12 -4 -34.5 -7t-47.5 -3q-86 0 -113.5 43t-27.5 110v351h223v209h-223v256h-25z" />
    <glyph glyph-name="uni021B.aalt" horiz-adv-x="681" 
d="M530.5 -125q36.5 -43 36.5 -113q0 -104 -64.5 -172.5t-180.5 -72.5v55q68 8 102.5 42t38.5 83q-25 -10 -47 -10q-47 0 -77 31.5t-30 78.5q0 53 36 87t91 34q58 0 94.5 -43zM33 762l358 412h25v-256h223v-209h-223v-351q0 -68 27.5 -110.5t113.5 -42.5q25 0 47.5 3t34.5 7
v-215q-61 -14 -143 -14q-152 0 -224.5 61.5t-90 139t-17.5 173.5v349h-131v53z" />
    <glyph glyph-name="y.salt" horiz-adv-x="1089" 
d="M313 918l246 -543l229 543h277l-590 -1346h-270l221 508l-403 838h290z" />
    <glyph glyph-name="yacute.aalt" horiz-adv-x="1089" 
d="M463 1073l311 334l127 -127l-362 -285zM313 918l246 -543l229 543h277l-590 -1346h-270l221 508l-403 838h290z" />
    <glyph glyph-name="ycircumflex.aalt" horiz-adv-x="1089" 
d="M428 1352h221l211 -285l-117 -82l-204 215l-205 -215l-119 82zM313 918l246 -543l229 543h277l-590 -1346h-270l221 508l-403 838h290z" />
    <glyph glyph-name="ydieresis.aalt" horiz-adv-x="1089" 
d="M251 1038q-38 37 -38 90q0 57 38 93t93 36t91 -35.5t36 -93.5q0 -53 -37 -90t-90 -37q-55 0 -93 37zM642 1038q-38 37 -38 90q0 57 38 93t93 36t92 -35.5t37 -93.5q0 -53 -36.5 -90t-92.5 -37q-55 0 -93 37zM313 918l246 -543l229 543h277l-590 -1346h-270l221 508
l-403 838h290z" />
    <glyph glyph-name="ygrave.aalt" horiz-adv-x="1089" 
d="M176 1280l127 127l311 -334l-75 -78zM313 918l246 -543l229 543h277l-590 -1346h-270l221 508l-403 838h290z" />
    <glyph glyph-name="z.aalt" horiz-adv-x="888" 
d="M819 883l-358 -656h352v-227h-743v33l370 661h-346v224h725v-35z" />
    <glyph glyph-name="zacute.aalt" horiz-adv-x="888" 
d="M377 1073l311 334l127 -127l-362 -285zM819 883l-358 -656h352v-227h-743v33l370 661h-346v224h725v-35z" />
    <glyph glyph-name="zcaron.aalt" horiz-adv-x="888" 
d="M248 1366l205 -215l204 215l119 -84l-213 -285h-221l-213 285zM819 883l-358 -656h352v-227h-743v33l370 661h-346v224h725v-35z" />
    <glyph glyph-name="zdotaccent.aalt" horiz-adv-x="888" 
d="M359.5 1038q-37.5 37 -37.5 90q0 57 37.5 93t93.5 36q55 0 91 -35.5t36 -93.5q0 -53 -37 -90t-90 -37q-56 0 -93.5 37zM819 883l-358 -656h352v-227h-743v33l370 661h-346v224h725v-35z" />
    <glyph glyph-name="a.aalt" horiz-adv-x="1007" 
d="M800.5 850q108.5 -98 108.5 -275v-575h-221l-18 104q-41 -61 -117 -96t-172 -35q-143 0 -226 75t-83 200q0 129 88 206.5t248 94.5l254 22v23q0 80 -46.5 120t-126.5 40q-84 0 -133 -38t-47 -104h-215q0 98 51.5 175t145.5 119t215 42q186 0 294.5 -98zM610.5 218
q53.5 56 53.5 151v39l-191 -19q-72 -4 -107.5 -35.5t-35.5 -81.5q0 -55 36.5 -82.5t98.5 -27.5q92 0 145.5 56z" />
    <glyph glyph-name="aacute.aalt" horiz-adv-x="1007" 
d="M428 1102l311 334l127 -127l-362 -285zM800.5 850q108.5 -98 108.5 -275v-575h-221l-18 104q-41 -61 -117 -96t-172 -35q-143 0 -226 75t-83 200q0 129 88 206.5t248 94.5l254 22v23q0 80 -46.5 120t-126.5 40q-84 0 -133 -38t-47 -104h-215q0 98 51.5 175t145.5 119
t215 42q186 0 294.5 -98zM610.5 218q53.5 56 53.5 151v39l-191 -19q-72 -4 -107.5 -35.5t-35.5 -81.5q0 -55 36.5 -82.5t98.5 -27.5q92 0 145.5 56z" />
    <glyph glyph-name="abreve.aalt" horiz-adv-x="1007" 
d="M738 1107q-93 -81 -232 -81q-145 0 -237.5 84t-100.5 221h176q6 -63 50 -100t112 -37t109.5 37t46.5 100h178q-9 -143 -102 -224zM800.5 850q108.5 -98 108.5 -275v-575h-221l-18 104q-41 -61 -117 -96t-172 -35q-143 0 -226 75t-83 200q0 129 88 206.5t248 94.5l254 22
v23q0 80 -46.5 120t-126.5 40q-84 0 -133 -38t-47 -104h-215q0 98 51.5 175t145.5 119t215 42q186 0 294.5 -98zM610.5 218q53.5 56 53.5 151v39l-191 -19q-72 -4 -107.5 -35.5t-35.5 -81.5q0 -55 36.5 -82.5t98.5 -27.5q92 0 145.5 56z" />
    <glyph glyph-name="acircumflex.aalt" horiz-adv-x="1007" 
d="M393 1380h221l211 -284l-116 -82l-205 215l-205 -215l-119 82zM800.5 850q108.5 -98 108.5 -275v-575h-221l-18 104q-41 -61 -117 -96t-172 -35q-143 0 -226 75t-83 200q0 129 88 206.5t248 94.5l254 22v23q0 80 -46.5 120t-126.5 40q-84 0 -133 -38t-47 -104h-215
q0 98 51.5 175t145.5 119t215 42q186 0 294.5 -98zM610.5 218q53.5 56 53.5 151v39l-191 -19q-72 -4 -107.5 -35.5t-35.5 -81.5q0 -55 36.5 -82.5t98.5 -27.5q92 0 145.5 56z" />
    <glyph glyph-name="adieresis.aalt" horiz-adv-x="1007" 
d="M216 1067q-38 37 -38 90q0 57 38 93t93 36t91 -36t36 -93q0 -53 -37 -90t-90 -37q-55 0 -93 37zM607 1067q-38 37 -38 90q0 57 38 93t93 36t92 -36t37 -93q0 -53 -36.5 -90t-92.5 -37q-55 0 -93 37zM800.5 850q108.5 -98 108.5 -275v-575h-221l-18 104q-41 -61 -117 -96
t-172 -35q-143 0 -226 75t-83 200q0 129 88 206.5t248 94.5l254 22v23q0 80 -46.5 120t-126.5 40q-84 0 -133 -38t-47 -104h-215q0 98 51.5 175t145.5 119t215 42q186 0 294.5 -98zM610.5 218q53.5 56 53.5 151v39l-191 -19q-72 -4 -107.5 -35.5t-35.5 -81.5
q0 -55 36.5 -82.5t98.5 -27.5q92 0 145.5 56z" />
    <glyph glyph-name="agrave.aalt" horiz-adv-x="1007" 
d="M141 1309l127 127l312 -334l-76 -78zM800.5 850q108.5 -98 108.5 -275v-575h-221l-18 104q-41 -61 -117 -96t-172 -35q-143 0 -226 75t-83 200q0 129 88 206.5t248 94.5l254 22v23q0 80 -46.5 120t-126.5 40q-84 0 -133 -38t-47 -104h-215q0 98 51.5 175t145.5 119
t215 42q186 0 294.5 -98zM610.5 218q53.5 56 53.5 151v39l-191 -19q-72 -4 -107.5 -35.5t-35.5 -81.5q0 -55 36.5 -82.5t98.5 -27.5q92 0 145.5 56z" />
    <glyph glyph-name="amacron.aalt" horiz-adv-x="1007" 
d="M782 1212v-172h-557v172h557zM800.5 850q108.5 -98 108.5 -275v-575h-221l-18 104q-41 -61 -117 -96t-172 -35q-143 0 -226 75t-83 200q0 129 88 206.5t248 94.5l254 22v23q0 80 -46.5 120t-126.5 40q-84 0 -133 -38t-47 -104h-215q0 98 51.5 175t145.5 119t215 42
q186 0 294.5 -98zM610.5 218q53.5 56 53.5 151v39l-191 -19q-72 -4 -107.5 -35.5t-35.5 -81.5q0 -55 36.5 -82.5t98.5 -27.5q92 0 145.5 56z" />
    <glyph glyph-name="aogonek.aalt" horiz-adv-x="1007" 
d="M909 0q-57 -33 -85.5 -73t-28.5 -74q0 -29 20.5 -47.5t56.5 -18.5q27 0 64 12v-133q-61 -20 -119 -20q-86 0 -136 45t-50 112q0 53 33.5 105.5t99.5 91.5h145zM800.5 850q108.5 -98 108.5 -275v-575h-221l-18 104q-41 -61 -117 -96t-172 -35q-143 0 -226 75t-83 200
q0 129 88 206.5t248 94.5l254 22v23q0 80 -46.5 120t-126.5 40q-84 0 -133 -38t-47 -104h-215q0 98 51.5 175t145.5 119t215 42q186 0 294.5 -98zM610.5 218q53.5 56 53.5 151v39l-191 -19q-72 -4 -107.5 -35.5t-35.5 -81.5q0 -55 36.5 -82.5t98.5 -27.5q92 0 145.5 56z" />
    <glyph glyph-name="aring.aalt" horiz-adv-x="1007" 
d="M311.5 1069q-71.5 74 -71.5 174q0 102 71.5 175t192.5 73q78 0 138 -35t93 -92t33 -121q0 -66 -31.5 -122t-92 -91t-140.5 -35q-121 0 -192.5 74zM576.5 1171.5q29.5 30.5 29.5 75.5q0 41 -29.5 72t-72.5 31q-41 0 -72 -30t-31 -73q0 -45 30 -75.5t73 -30.5t72.5 30.5z
M800.5 850q108.5 -98 108.5 -275v-575h-221l-18 104q-41 -61 -117 -96t-172 -35q-143 0 -226 75t-83 200q0 129 88 206.5t248 94.5l254 22v23q0 80 -46.5 120t-126.5 40q-84 0 -133 -38t-47 -104h-215q0 98 51.5 175t145.5 119t215 42q186 0 294.5 -98zM610.5 218
q53.5 56 53.5 151v39l-191 -19q-72 -4 -107.5 -35.5t-35.5 -81.5q0 -55 36.5 -82.5t98.5 -27.5q92 0 145.5 56z" />
    <glyph glyph-name="aringacute.aalt" horiz-adv-x="1015" 
d="M390 1276l406 207l76 -162l-438 -144zM311.5 897q71.5 -74 192.5 -74q80 0 140.5 35t92 91.5t31.5 121.5q0 63 -33 120.5t-93 92.5t-138 35q-121 0 -192.5 -72.5t-71.5 -175.5q0 -100 71.5 -174zM576.5 999.5q-29.5 -30.5 -72.5 -30.5t-73 30.5t-30 75.5q0 43 31 73
t72 30q43 0 72.5 -31t29.5 -72q0 -45 -29.5 -75.5zM800.5 850q108.5 -98 108.5 -275v-575h-221l-18 104q-41 -61 -117 -96t-172 -35q-143 0 -226 75t-83 200q0 129 88 206.5t248 94.5l254 22v23q0 80 -46.5 120t-126.5 40q-84 0 -133 -38t-47 -104h-215q0 98 51.5 175
t145.5 119t215 42q186 0 294.5 -98zM610.5 218q53.5 56 53.5 151v39l-191 -19q-72 -4 -107.5 -35.5t-35.5 -81.5q0 -55 36.5 -82.5t98.5 -27.5q92 0 145.5 56z" />
    <glyph glyph-name="atilde.aalt" horiz-adv-x="1007" 
d="M201 1102q0 94 46 149.5t122 55.5q41 0 72.5 -13.5t80.5 -42.5q31 -18 52.5 -28.5t39.5 -10.5q37 0 50.5 22.5t11.5 70.5h125q6 -33 6 -66q0 -88 -47 -142.5t-125 -54.5q-41 0 -78 15.5t-82 42.5q-23 14 -46 24.5t-40 10.5q-37 0 -49 -31t-8 -74h-125q-6 41 -6 72z
M800.5 850q108.5 -98 108.5 -275v-575h-221l-18 104q-41 -61 -117 -96t-172 -35q-143 0 -226 75t-83 200q0 129 88 206.5t248 94.5l254 22v23q0 80 -46.5 120t-126.5 40q-84 0 -133 -38t-47 -104h-215q0 98 51.5 175t145.5 119t215 42q186 0 294.5 -98zM610.5 218
q53.5 56 53.5 151v39l-191 -19q-72 -4 -107.5 -35.5t-35.5 -81.5q0 -55 36.5 -82.5t98.5 -27.5q92 0 145.5 56z" />
    <glyph glyph-name="g.ss02" horiz-adv-x="966" 
d="M961 795h-158q61 -86 61 -197q0 -80 -32.5 -148.5t-94.5 -117.5l-225 -170q45 4 68 4q160 0 252 -81t92 -210q0 -98 -58.5 -174t-162 -117t-232.5 -41q-201 0 -320.5 87t-127.5 231h237q8 -53 62.5 -85t140.5 -32q92 0 146.5 36t54.5 97q0 59 -50.5 89t-140.5 30
q-135 0 -233 -49l-82 129l233 174q-166 18 -257 114.5t-91 233.5q0 96 47 176t139.5 127t223.5 47q94 0 168 -24l340 63v-192zM334 487q45 -43 119 -43t118.5 43t44.5 111t-45 111t-118 43q-74 0 -119 -43t-45 -111t45 -111z" />
    <glyph glyph-name="gbreve.ss02" horiz-adv-x="966" 
d="M687 1107q-93 -81 -232 -81q-145 0 -237.5 84t-100.5 221h176q6 -63 50 -100t112 -37t109.5 37t45.5 100h178q-8 -143 -101 -224zM961 795h-158q61 -86 61 -197q0 -80 -32.5 -148.5t-94.5 -117.5l-225 -170q45 4 68 4q160 0 252 -81t92 -210q0 -98 -58.5 -174t-162 -117
t-232.5 -41q-201 0 -320.5 87t-127.5 231h237q8 -53 62.5 -85t140.5 -32q92 0 146.5 36t54.5 97q0 59 -50.5 89t-140.5 30q-135 0 -233 -49l-82 129l233 174q-166 18 -257 114.5t-91 233.5q0 96 47 176t139.5 127t223.5 47q94 0 168 -24l340 63v-192zM334 487
q45 -43 119 -43t118.5 43t44.5 111t-45 111t-118 43q-74 0 -119 -43t-45 -111t45 -111z" />
    <glyph glyph-name="gcircumflex.ss02" horiz-adv-x="966" 
d="M342 1380h221l211 -284l-117 -82l-204 215l-205 -215l-119 82zM961 795h-158q61 -86 61 -197q0 -80 -32.5 -148.5t-94.5 -117.5l-225 -170q45 4 68 4q160 0 252 -81t92 -210q0 -98 -58.5 -174t-162 -117t-232.5 -41q-201 0 -320.5 87t-127.5 231h237q8 -53 62.5 -85
t140.5 -32q92 0 146.5 36t54.5 97q0 59 -50.5 89t-140.5 30q-135 0 -233 -49l-82 129l233 174q-166 18 -257 114.5t-91 233.5q0 96 47 176t139.5 127t223.5 47q94 0 168 -24l340 63v-192zM334 487q45 -43 119 -43t118.5 43t44.5 111t-45 111t-118 43q-74 0 -119 -43
t-45 -111t45 -111z" />
    <glyph glyph-name="uni0123.ss02" horiz-adv-x="966" 
d="M548 1218.5q30 -30.5 30 -77.5q0 -53 -35 -87t-92 -34q-59 0 -95.5 43t-36.5 113q0 104 65 172.5t181 70.5v-55q-68 -8 -103.5 -44t-37.5 -83q16 12 49 12q45 0 75 -30.5zM961 795h-158q61 -86 61 -197q0 -80 -32.5 -148.5t-94.5 -117.5l-225 -170q45 4 68 4
q160 0 252 -81t92 -210q0 -98 -58.5 -174t-162 -117t-232.5 -41q-201 0 -320.5 87t-127.5 231h237q8 -53 62.5 -85t140.5 -32q92 0 146.5 36t54.5 97q0 59 -50.5 89t-140.5 30q-135 0 -233 -49l-82 129l233 174q-166 18 -257 114.5t-91 233.5q0 96 47 176t139.5 127
t223.5 47q94 0 168 -24l340 63v-192zM334 487q45 -43 119 -43t118.5 43t44.5 111t-45 111t-118 43q-74 0 -119 -43t-45 -111t45 -111z" />
    <glyph glyph-name="gdotaccent.ss02" horiz-adv-x="966" 
d="M359.5 1067q-37.5 37 -37.5 90q0 57 37.5 93t93.5 36q55 0 91 -36t36 -93q0 -53 -37 -90t-90 -37q-56 0 -93.5 37zM961 795h-158q61 -86 61 -197q0 -80 -32.5 -148.5t-94.5 -117.5l-225 -170q45 4 68 4q160 0 252 -81t92 -210q0 -98 -58.5 -174t-162 -117t-232.5 -41
q-201 0 -320.5 87t-127.5 231h237q8 -53 62.5 -85t140.5 -32q92 0 146.5 36t54.5 97q0 59 -50.5 89t-140.5 30q-135 0 -233 -49l-82 129l233 174q-166 18 -257 114.5t-91 233.5q0 96 47 176t139.5 127t223.5 47q94 0 168 -24l340 63v-192zM334 487q45 -43 119 -43t118.5 43
t44.5 111t-45 111t-118 43q-74 0 -119 -43t-45 -111t45 -111z" />
    <glyph glyph-name="j.ss02" horiz-adv-x="524" 
d="M154.5 1133.5q-50.5 48.5 -50.5 117.5q0 72 49.5 119t125.5 47q74 0 123 -47t49 -119q0 -70 -49.5 -118t-122.5 -48q-74 0 -124.5 48.5zM6 -229q96 0 122 45t26 118v984h252v-990q0 -197 -92.5 -284.5t-264.5 -87.5q-57 0 -119 12v209q33 -6 76 -6z" />
    <glyph glyph-name="o.aalt" horiz-adv-x="1136" 
d="M125.5 711.5q64.5 111.5 180.5 174t261 62.5q147 0 263 -62.5t180.5 -174t64.5 -250.5q0 -141 -65.5 -253t-181 -173.5t-261.5 -61.5q-145 0 -259.5 61.5t-180.5 173t-66 253.5q0 139 64.5 250.5z" />
    <glyph glyph-name="germandbls.aalt" horiz-adv-x="1120" 
d="M129 895q0 213 127 328.5t338 115.5q186 0 299 -86t113 -229q0 -160 -140 -258l-86 -59q-49 -37 -62 -50.5t-13 -35.5q0 -25 13 -37.5t35.5 -25.5t30.5 -17l82 -47q193 -111 193 -267q0 -113 -90 -182.5t-232 -69.5q-135 0 -214 65.5t-79 178.5l183 31q-4 -45 22.5 -72.5
t73.5 -27.5q45 0 72.5 19t27.5 52q0 39 -26.5 61.5t-94.5 59.5l-81 45q-70 37 -117 89t-47 134q0 119 112 191l107 69q82 55 82 131q0 63 -45 100.5t-123 37.5q-102 0 -158.5 -64.5t-56.5 -177.5v-895h-246v893z" />
    <glyph glyph-name="y.ss03" horiz-adv-x="1058" 
d="M1034 918l-381 -904v-110q0 -174 -94 -261t-262 -87q-57 0 -119 12v209q45 -8 80 -8q92 0 117.5 47t25.5 118v80l-378 904h270l80 -213l63 -175q76 -201 96 -266q39 145 144 420l90 234h268z" />
    <glyph glyph-name="c_h.dlig" horiz-adv-x="2203" 
d="M2005 846.5q88 -101.5 88 -277.5v-569h-254v510q0 121 -53 165t-115 44q-74 0 -135 -43t-61 -156v-520h-254v1071q0 55 -26 82t-69 27q-49 0 -74.5 -32t-25.5 -85v-492h-260q-18 74 -73.5 113t-135.5 39q-102 0 -164.5 -71.5t-62.5 -192.5q0 -119 61.5 -190.5
t165.5 -71.5q82 0 138.5 42t70.5 109h260q-18 -168 -146 -271.5t-319 -103.5q-145 0 -256.5 60.5t-173 171t-61.5 256.5q0 145 61.5 255.5t173 171t256.5 60.5q158 0 275 -69v208q0 147 88 234.5t235 87.5t232.5 -87t85.5 -239v-264q41 61 114.5 95t163.5 34
q162 0 250 -101.5z" />
    <glyph glyph-name="c_k.dlig" horiz-adv-x="2152" 
d="M1800 578l311 -580h-288l-205 389l-141 -147v-242h-256v1073q0 55 -26 82t-69 27q-49 0 -74.5 -32t-25.5 -85v-492h-260q-18 74 -73.5 113t-135.5 39q-102 0 -164.5 -71.5t-62.5 -192.5q0 -119 61.5 -190.5t165.5 -71.5q82 0 138.5 42t70.5 109h260q-18 -168 -146 -271.5
t-319 -103.5q-145 0 -256.5 60.5t-173 171t-61.5 256.5q0 145 61.5 255.5t173 171t256.5 60.5q158 0 275 -69v208q0 147 88 234.5t235 87.5t232.5 -87t85.5 -239v-530l338 365h313z" />
    <glyph glyph-name="c_t.dlig" horiz-adv-x="1742" 
d="M1712 709h-174v-709h-254v662h-2v47h-135v209h135v139q0 66 -31.5 101.5t-93.5 35.5q-63 0 -97 -39t-34 -104v-480h-260q-18 74 -73.5 113t-135.5 39q-102 0 -164.5 -71.5t-62.5 -192.5q0 -119 61.5 -190.5t165.5 -71.5q82 0 138.5 42t70.5 109h260q-18 -168 -146 -271.5
t-319 -103.5q-145 0 -256.5 60.5t-173 171t-61.5 256.5q0 145 61.5 255.5t173 171t256.5 60.5q158 0 275 -69v170q0 174 95 265t263 91q160 0 252 -91t92 -245v-151h174v-209z" />
    <glyph glyph-name="c_t_i.dlig" horiz-adv-x="2236" 
d="M1867 1133.5q-50 48.5 -50 117.5q0 70 50 118t124 48t123 -47t49 -119q0 -70 -49.5 -118t-122.5 -48q-74 0 -124 48.5zM1538 918h580v-918h-256v709h-324v-709h-254v709h-139v209h137v139q0 66 -31.5 101.5t-93.5 35.5q-63 0 -97 -39t-34 -104v-480h-260
q-18 74 -73.5 113t-135.5 39q-102 0 -164.5 -71.5t-62.5 -192.5q0 -119 61.5 -190.5t165.5 -71.5q82 0 138.5 42t70.5 109h260q-18 -168 -146 -271.5t-319 -103.5q-145 0 -256.5 60.5t-173 171t-61.5 256.5q0 145 61.5 255.5t173 171t256.5 60.5q158 0 275 -69v170
q0 174 95 265t263 91q160 0 252 -91t92 -245v-151z" />
    <glyph glyph-name="c_t_t.dlig" horiz-adv-x="2324" 
d="M2292 709h-174v-709h-254v709h-326v-709h-254v662h-2v47h-135v209h135v139q0 66 -31.5 101.5t-93.5 35.5q-63 0 -97 -39t-34 -104v-480h-260q-18 74 -73.5 113t-135.5 39q-102 0 -164.5 -71.5t-62.5 -192.5q0 -119 61.5 -190.5t165.5 -71.5q82 0 138.5 42t70.5 109h260
q-18 -168 -146 -271.5t-319 -103.5q-145 0 -256.5 60.5t-173 171t-61.5 256.5q0 145 61.5 255.5t173 171t256.5 60.5q158 0 275 -69v170q0 174 95 265t263 91q160 0 252 -91t92 -245v-151h326v239h254v-239h174v-209z" />
    <glyph glyph-name="f_f_b.dlig" horiz-adv-x="2584" 
d="M2296.5 887.5q103.5 -60.5 161 -172t57.5 -254.5t-57.5 -255t-160 -172.5t-233.5 -60.5q-104 0 -189 40t-132 110l-17 -123h-210v475l-3 508q0 109 -59 168t-168 59q-104 0 -164.5 -60t-60.5 -161v-71h338v-209h-338v-709h-254v709h-399v-709h-252l-2 709h-125v209h125
v98q0 195 117.5 307.5t310.5 112.5q113 0 202.5 -40t143.5 -112q59 72 155.5 112t214.5 40q213 0 341 -120t128 -333v-149q47 55 124 84.5t171 29.5q131 0 234.5 -60.5zM807 1014q0 96 -53.5 146t-145.5 50q-94 0 -147 -51t-53 -139v-102h399v96zM2188.5 276.5
q66.5 71.5 66.5 186.5t-66.5 186.5t-173.5 71.5q-109 0 -176 -70.5t-67 -187.5t67.5 -187.5t175.5 -70.5q107 0 173.5 71.5z" />
    <glyph glyph-name="f_f_h.dlig" horiz-adv-x="2494" 
d="M2298 848q88 -100 88 -279v-569h-256v510q0 121 -53.5 165t-114.5 44q-72 0 -134.5 -43t-62.5 -156v-520h-252l-2 983q0 109 -59 168t-166 59q-104 0 -164.5 -60t-60.5 -161v-71h338v-209h-338v-709h-254v709h-399v-709h-252l-2 709h-125v209h125v98q0 195 117.5 307.5
t310.5 112.5q113 0 202.5 -40t143.5 -112q59 72 155.5 112t214.5 40q213 0 340 -120t127 -333v-6h2v-158q41 61 116 95t167 34q160 0 248 -100zM807 1014q0 96 -53.5 146t-145.5 50q-94 0 -147 -51t-53 -139v-102h399v96z" />
    <glyph glyph-name="w_w_w.dlig" horiz-adv-x="3952" 
d="M2718 918l69 -234q70 -240 92 -346q51 174 100 334q48 160 70 229h269q23 -72 72 -251q50 -179 88 -328q33 133 96 348l76 248h270l-324 -918h-248q-63 207 -109 374t-56 212q-61 -236 -172 -586h-261l-307 918h275zM1513 918l70 -234q70 -240 92 -346q51 174 100 334
q48 160 70 229h269q23 -72 72 -251q50 -179 87 -328q33 133 97 348l75 248h271l-324 -918h-248q-63 207 -109 374t-57 212q-61 -236 -172 -586h-260l-307 918h274zM307 918l70 -234q70 -240 92 -346q51 174 99 334t71 229h268q23 -72 73 -251t87 -328q33 133 96 348l76 248
h270l-323 -918h-248q-63 207 -110 374q-46 167 -56 212q-61 -236 -172 -586h-260l-307 918h274z" />
    <glyph glyph-name="c_h.dlig.salt" horiz-adv-x="2000" 
d="M1802 846.5q88 -101.5 88 -277.5v-569h-254v510q0 121 -53 165t-115 44q-72 0 -134 -43t-62 -156v-520h-254v1071q0 55 -25.5 82t-68.5 27q-49 0 -75 -32t-26 -85v-385q-43 20 -100 31.5t-111 11.5q-133 0 -207.5 -70.5t-74.5 -189.5q0 -125 74.5 -192.5t203.5 -67.5
q57 0 121 13t111 32v-226q-55 -23 -128 -35t-141 -12q-229 0 -365 129t-136 353q0 147 63.5 258.5t178 173t266.5 61.5q37 0 55 -2v141q0 147 88 234.5t235 87.5t232.5 -87t85.5 -239v-264q41 61 114.5 95t163.5 34q162 0 250 -101.5z" />
    <glyph glyph-name="c_k.dlig.salt" horiz-adv-x="1951" 
d="M1597 578l312 -580h-289l-203 389l-143 -147v-242h-256v1073q0 55 -25.5 82t-68.5 27q-49 0 -75 -32t-26 -85v-385q-43 20 -100 31.5t-111 11.5q-133 0 -207.5 -70.5t-74.5 -189.5q0 -125 74.5 -192.5t203.5 -67.5q57 0 121 13t111 32v-226q-55 -23 -128 -35t-141 -12
q-229 0 -365 129t-136 353q0 147 63.5 258.5t178 173t266.5 61.5q37 0 55 -2v141q0 147 88 234.5t235 87.5t232.5 -87t85.5 -239v-530l338 365h313z" />
    <glyph glyph-name="c_t.dlig.salt" horiz-adv-x="1603" 
d="M1337 358q0 -68 28 -110.5t114 -42.5q51 0 82 10v-215q-63 -14 -146 -14q-152 0 -225.5 61.5t-91 139t-17.5 173.5v349h-129v53l129 158v137q0 66 -32.5 101.5t-94.5 35.5q-63 0 -97 -39t-34 -104v-373q-43 20 -100 31.5t-111 11.5q-133 0 -207.5 -70.5t-74.5 -189.5
q0 -125 74.5 -192.5t203.5 -67.5q57 0 121 13t111 32v-226q-55 -23 -128 -35t-141 -12q-229 0 -365 129t-136 353q0 147 63.5 258.5t178 173t266.5 61.5q37 0 55 -2v103q0 174 95 265t263 91q162 0 254 -90t92 -246v-151h224v-209h-224v-351z" />
    <glyph glyph-name="c_t_i.dlig.salt" horiz-adv-x="2101" 
d="M1731.5 1125.5q-50.5 48.5 -50.5 117.5q0 72 49.5 119t124.5 47q76 0 124.5 -47t48.5 -119q0 -70 -49.5 -118t-123.5 -48q-73 0 -123.5 48.5zM1982 0h-256v709h-389v-351q0 -68 28 -110.5t114 -42.5q51 0 82 10v-215q-63 -14 -146 -14q-152 0 -225.5 61.5t-91 139
t-17.5 173.5v349h-129v53l129 158v137q0 66 -32.5 101.5t-94.5 35.5q-63 0 -97 -39t-34 -104v-373q-43 20 -100 31.5t-111 11.5q-133 0 -207.5 -70.5t-74.5 -189.5q0 -125 74.5 -192.5t203.5 -67.5q57 0 121 13t111 32v-226q-55 -23 -128 -35t-141 -12q-229 0 -365 129
t-136 353q0 147 63.5 258.5t178 173t266.5 61.5q37 0 55 -2v103q0 174 95 265t263 91q162 0 254 -90t92 -246v-151h645v-918z" />
    <glyph glyph-name="c_t_t.dlig.salt" horiz-adv-x="2203" 
d="M1948 709v-351q0 -68 27.5 -110.5t113.5 -42.5q25 0 47.5 3t36.5 7v-215q-63 -14 -145 -14q-152 0 -224.5 61.5t-90 139t-17.5 173.5v349h-361v-351q0 -68 28 -110.5t114 -42.5q25 0 47 3t37 7v-215q-63 -14 -146 -14q-152 0 -223.5 61.5t-89 139t-17.5 173.5v302h-6v47
h-127v53l127 145v150q0 66 -31.5 101.5t-93.5 35.5q-63 0 -97 -39t-34 -104v-373q-43 20 -100 31.5t-111 11.5q-133 0 -207.5 -70.5t-74.5 -189.5q0 -125 74.5 -192.5t203.5 -67.5q57 0 121 13t111 32v-226q-55 -23 -128 -35t-141 -12q-229 0 -365 129t-136 353
q0 147 63.5 258.5t178 173t266.5 61.5q37 0 55 -2v103q0 174 95 265t263 91q160 0 252 -91t92 -245v-151h365l223 256h25v-256h225v-209h-225z" />
    <glyph glyph-name="f_t.liga.salt" horiz-adv-x="1282" 
d="M1016 709v-351q0 -63 24.5 -108t116.5 -45q25 0 47.5 3t36.5 7v-215q-63 -14 -145 -14q-152 0 -224.5 61.5t-90 138t-17.5 172.5v351h-313v-709h-254v709h-168v209h168v155q0 344 356 344q61 0 119 -12v-209q-18 6 -66 6q-102 0 -128.5 -48t-26.5 -122v-114h317l223 256
h25v-256h225v-209h-225z" />
    <glyph glyph-name="f_y.liga.salt" horiz-adv-x="1845" 
d="M1069 918l246 -543l229 543h277l-590 -1346h-270l221 508l-404 838h291zM477 1154q-27 -48 -26 -122v-114h221v-209h-221v-709h-254v709h-168v209h168v155q0 344 356 344q61 0 119 -12v-209q-18 6 -66 6q-102 0 -129 -48z" />
    <glyph glyph-name="glyph581" horiz-adv-x="1687" 
d="M121 918h506v126q0 197 93 285t265 88q59 0 117 -12v-209q-31 6 -76 6q-68 0 -99.5 -24.5t-38.5 -57.5t-7 -82v-120h282l232 256h26v-256h224v-209h-224v-351q0 -68 28 -110.5t114 -42.5q51 0 82 10v-215q-63 -14 -146 -14q-152 0 -223.5 61.5t-89 139t-17.5 173.5v349
h-288v-709h-254v709h-252v-709h-254v918zM124 1361q50 48 124 48q76 0 124 -47t48 -119q0 -70 -49 -118t-123 -48t-124 48.5t-50 117.5q0 70 50 118z" />
    <glyph glyph-name="i_t_i.liga.salt" horiz-adv-x="1671" 
d="M124 1125.5q-50 48.5 -50 117.5q0 70 50 118t124 48q76 0 124 -47t48 -119q0 -70 -49 -118t-123 -48t-124 48.5zM1301.5 1125.5q-50.5 48.5 -50.5 117.5q0 72 49.5 119t124.5 47q76 0 124 -47t48 -119q0 -70 -49 -118t-123 -48q-73 0 -123.5 48.5zM1552 0h-256v709h-419
v-351q0 -63 24.5 -108t116.5 -45q51 0 82 10v-215q-63 -14 -146 -14q-152 0 -223.5 61.5t-88.5 138t-17 172.5v351h-250v-709h-254v918h506l223 256h27v-256h675v-918z" />
    <glyph glyph-name="i_t_y.liga.salt" horiz-adv-x="2093" 
d="M124 1125.5q-50 48.5 -50 117.5q0 70 50 118t124 48q76 0 124 -47t48 -119q0 -70 -49 -118t-123 -48t-124 48.5zM2071 918l-590 -1346h-271l222 508l-304 629h-268v-351q0 -63 24.5 -108t116.5 -45q25 0 47.5 3t36.5 7v-215q-63 -14 -145 -14q-152 0 -223.5 61.5t-89 138
t-17.5 172.5v351h-235v-709h-254v918h491l224 256h24v-256h457l248 -543l229 543h277z" />
    <glyph glyph-name="t_i.liga.salt" horiz-adv-x="1179" 
d="M810 1125.5q-50 48.5 -50 117.5q0 70 50 118t124 48q76 0 124 -47t48 -119q0 -70 -49 -118t-123 -48t-124 48.5zM1061 918v-918h-254v709h-391v-351q0 -63 24.5 -108t116.5 -45q25 0 47.5 3t34.5 7v-215q-61 -14 -143 -14q-152 0 -224.5 61.5t-90 138t-17.5 172.5v351
h-131v53l358 412h25v-256h645z" />
    </font>
</defs>
</svg>
