<?xml version="1.0" standalone="no"?>
<!DOCTYPE svg PUBLIC "-//W3C//DTD SVG 1.1//EN" "http://www.w3.org/Graphics/SVG/1.1/DTD/svg11.dtd" >
<svg xmlns="http://www.w3.org/2000/svg" xmlns:xlink="http://www.w3.org/1999/xlink" version="1.1">
<metadata>
Created by FontForge 20170731 at Mon Mar 26 22:41:50 2018
 By Aleksey,,,
Copyright (c) 2017 by Deni Anggara. All rights reserved.
</metadata>
<defs>
<font id="Gelion-Bold" horiz-adv-x="0" >
  <font-face 
    font-family="Gelion Bold"
    font-weight="700"
    font-stretch="normal"
    units-per-em="2048"
    panose-1="0 0 8 0 0 0 0 0 0 0"
    ascent="1638"
    descent="-410"
    x-height="924"
    cap-height="1313"
    bbox="-1194 -547 3963 1966"
    underline-thickness="0"
    underline-position="0"
    unicode-range="U+000D-FB02"
  />
<missing-glyph horiz-adv-x="950" 
d="M475 586l-379 549h758zM455 563l-383 -547v1094zM496 563l383 547v-1094zM475 541l379 -549h-758z" />
    <glyph glyph-name="uniFB01" unicode="fi" horiz-adv-x="1220" 
d="M1157 0h-285v688h-436v-688h-282l-2 688h-127v236h127v45q0 213 133 340t372 127q217 0 348.5 -108.5t147.5 -293.5h-285q-14 72 -69.5 111t-136.5 39q-100 0 -163 -58.5t-63 -156.5v-45h721v-924z" />
    <glyph glyph-name="uniFB02" unicode="fl" horiz-adv-x="1284" 
d="M1039.5 1310q134.5 -126 134.5 -341v-969h-285l-2 969q0 98 -61.5 156.5t-163.5 58.5t-164 -59.5t-62 -155.5v-45h342v-236h-342v-688h-282l-2 688h-127v236h127v45q0 215 134 341t376 126q243 0 377.5 -126z" />
    <glyph glyph-name="f_f.liga" unicode="ff" horiz-adv-x="1398" 
d="M1168.5 1128.5q-27.5 -47.5 -27.5 -116.5v-88h223v-236h-223v-688h-283v688h-381v-688h-282v688h-170v236h170v133q0 186 99 273t279 87q76 0 127 -12v-236q-18 6 -67 7q-102 0 -129 -46.5t-27 -117.5v-88h381v133q0 186 99.5 273t279.5 87q76 0 127 -12v-236
q-18 6 -66 7q-102 0 -129.5 -47.5z" />
    <glyph glyph-name="f_f_i.liga" unicode="ffi" horiz-adv-x="1859" 
d="M1110 924h684v-924h-285v688h-399v-688h-285v688h-391v-688h-280l-2 688h-127v236h127v73q0 129 59 228.5t165.5 155t246.5 55.5q111 0 199.5 -37t146.5 -103q121 139 350 140q201 0 329 -105.5t148 -296.5h-283q-12 70 -66 110t-130 40q-94 0 -150.5 -53.5t-56.5 -143.5
v-63zM825 993q0 94 -52 142.5t-142 48.5q-92 0 -144.5 -50.5t-52.5 -132.5v-77h391v69z" />
    <glyph glyph-name="f_f_l.liga" unicode="ffl" horiz-adv-x="1957" 
d="M1711 1311q136 -125 136 -350v-961h-284l-2 961q0 104 -59.5 163.5t-166.5 59.5q-102 0 -163.5 -59.5t-61.5 -155.5v-45h342v-236h-342v-688h-283l-2 688h-391v-688h-280l-2 688h-127v236h127v73q0 129 58 228.5t163.5 155t238.5 55.5q113 0 203 -40t146 -110
q66 74 165 112t222 38q227 0 363 -125zM825 993q0 94 -52 142.5t-142 48.5q-92 0 -144.5 -50.5t-52.5 -132.5v-77h391v69z" />
    <glyph glyph-name="f_f_t.liga" unicode="fft" horiz-adv-x="2041" 
d="M2015 688h-168v-688h-284l-2 688h-150v236h150v37q0 104 -59.5 163.5t-166.5 59.5q-102 0 -163.5 -59.5t-61.5 -155.5v-45h215v-236h-215v-688h-283l-2 688h-391v-688h-280l-2 688h-127v236h127v73q0 129 58 228.5t163.5 155t238.5 55.5q113 0 203 -40t146 -110
q66 74 165 112t222 38q227 0 363 -125t136 -350v-37h168v-236zM825 993q0 94 -52 142.5t-142 48.5q-92 0 -144.5 -50.5t-52.5 -132.5v-77h391v69z" />
    <glyph glyph-name="f_t.liga" unicode="ft" horiz-adv-x="1361" 
d="M1335 688h-161v-688h-285l-2 688h-158v236h158v45q0 98 -61.5 156.5t-163.5 58.5t-164 -59.5t-62 -155.5v-45h209v-236h-209v-688h-282l-2 688h-127v236h127v45q0 215 134 341t376 126q244 0 378 -126t134 -341v-45h161v-236z" />
    <glyph glyph-name="f_y.liga" unicode="fy" horiz-adv-x="1679" 
d="M1657 924l-428 -1074q-35 -84 -77 -146t-124 -110q-82 -47 -207 -47q-84 0 -188 23l4 233q76 -14 133 -14q70 0 111 20q41 19 60 48t36 73l16 41l-395 953h309l217 -605l230 605h303zM504 1129q-27 -46 -27 -117v-88h223v-236h-223v-688h-282v688h-170v236h170v133
q0 186 99 273t279 87q76 0 127 -12v-236q-18 6 -67 7q-102 -1 -129 -47z" />
    <glyph glyph-name="i_j.liga" unicode="ij" horiz-adv-x="1011" 
d="M118.5 1112q-55.5 53 -55.5 129q0 78 54.5 130t136.5 52t136 -52t54 -130q0 -74 -55 -128t-135 -54t-135.5 53zM624.5 1112q-55.5 53 -55.5 129q0 78 54.5 130t136.5 52t136 -52t54 -130q0 -74 -55 -128t-135 -54t-135.5 53zM903 -436h-285l-2 1124h-219v-688h-286v924
h792v-1360z" />
    <glyph glyph-name="i_t_i.liga" unicode="iti" horiz-adv-x="1695" 
d="M1305.5 1122.5q-54.5 53.5 -54.5 128.5q0 78 54.5 130.5t136.5 52.5q80 0 135 -52.5t55 -130.5q0 -76 -55 -129t-135 -53q-82 0 -136.5 53.5zM118.5 1112q-55.5 53 -55.5 129q0 78 54.5 130t136.5 52t136 -52t54 -130q0 -74 -55 -128t-135 -54t-135.5 53zM991 924h594
v-924h-287v688h-307v-688h-286v688h-308v-688h-286v924h594v239h286v-239z" />
    <glyph glyph-name="i_t_y.liga" unicode="ity" horiz-adv-x="2134" 
d="M118.5 1112q-55.5 53 -55.5 129q0 78 54.5 130t136.5 52t136 -52t54 -130q0 -74 -55 -128t-135 -54t-135.5 53zM2111 924l-428 -1074q-33 -82 -75.5 -145t-124.5 -110.5t-207 -47.5q-88 0 -186 23l2 233q76 -14 135 -14q70 0 109.5 19.5t59 47t38.5 74.5l14 41l-297 717
h-199v-688h-286v688h-269v-688h-286v924h555v239h286v-239h410l219 -605l227 605h303z" />
    <glyph glyph-name="t_i.liga" unicode="ti" horiz-adv-x="1187" 
d="M799.5 1122.5q-54.5 53.5 -54.5 128.5q0 78 54.5 130.5t136.5 52.5q80 0 135 -52.5t55 -130.5q0 -76 -55 -129t-135 -53q-82 0 -136.5 53.5zM485 924h594v-924h-286v688h-308v-688h-286v688h-172v236h172v239h286v-239z" />
    <glyph glyph-name="t_t.liga" unicode="tt" horiz-adv-x="1353" 
d="M1327 688h-170v-688h-285v688h-387v-688h-286v688h-172v236h172v239h286v-239h387v239h285v-239h170v-236z" />
    <glyph glyph-name="t_u.liga" unicode="tu" horiz-adv-x="1783" 
d="M1683 924v-924h-237l-19 104q-96 -131 -282 -131q-166 0 -256 98.5t-90 268.5v348h-316v-688h-286v688h-170v236h170v239h286v-239h602v-541q0 -86 40 -124t116 -38q74 0 115 46t41 124v533h286z" />
    <glyph glyph-name="t_y.liga" unicode="ty" horiz-adv-x="1667" 
d="M1645 924l-428 -1074q-35 -84 -77 -146t-124 -109.5t-207 -47.5q-84 0 -188 23l4 233q76 -14 133 -14q70 0 110.5 19.5t60 48t36.5 73.5l16 41l-297 717h-199v-688h-286v688h-172v236h172v239h286v-239h410l217 -605l229 605h304z" />
    <glyph glyph-name=".notdef" horiz-adv-x="950" 
d="M475 586l-379 549h758zM455 563l-383 -547v1094zM496 563l383 547v-1094zM475 541l379 -549h-758z" />
    <glyph glyph-name="glyph1" 
 />
    <glyph glyph-name="uni000D" unicode="&#xd;" horiz-adv-x="401" 
 />
    <glyph glyph-name="space" unicode=" " horiz-adv-x="487" 
 />
    <glyph glyph-name="exclam" unicode="!" horiz-adv-x="645" 
d="M227 496l-61 817h313l-57 -817h-195zM179.5 22.5q-58.5 53.5 -58.5 141.5q0 90 58.5 142t146.5 52q84 0 142 -52t58 -142q0 -88 -57 -141.5t-143 -53.5q-88 0 -146.5 53.5z" />
    <glyph glyph-name="quotedbl" unicode="&#x22;" horiz-adv-x="806" 
d="M104 1282q41 43 105 43q63 0 104 -43t41 -111q0 -16 -6 -41l-100 -473h-80l-98 469q-6 37 -7 45q0 68 41 111zM494 1282q41 43 106 43q61 0 102 -43t41 -111q0 -16 -6 -41l-100 -473h-80l-98 469q-6 37 -6 45q0 68 41 111z" />
    <glyph glyph-name="numbersign" unicode="#" horiz-adv-x="1376" 
d="M1067 727l-29 -141h209l-53 -275h-211l-63 -311h-285l63 311h-182l-63 -311h-281l64 311h-168l55 275h168l28 141h-186l55 277h187l63 309h283l-64 -309h183l63 309h283l-64 -309h189l-56 -277h-188zM784 727h-182l-31 -141h183z" />
    <glyph glyph-name="dollar" unicode="$" horiz-adv-x="1210" 
d="M968.5 159.5q-110.5 -98.5 -286.5 -116.5v-195h-152v195q-176 20 -283.5 123.5t-115.5 265.5h277q4 -74 56 -118t148 -44q88 0 134.5 36t46.5 95q0 43 -22.5 69t-55.5 40t-99 35l-129 41q-84 27 -153.5 61.5t-126.5 108t-57 190.5q0 158 102 260.5t278 118.5v197h152
v-199q166 -23 263 -125t99 -258h-274q-2 74 -50 117t-132 43q-80 0 -122 -35t-42 -94t51 -90t139 -56l164 -49q156 -45 228.5 -138t72.5 -220q0 -160 -110.5 -258.5z" />
    <glyph glyph-name="percent" unicode="%" horiz-adv-x="1579" 
d="M122 1238q40 71 111.5 113t163.5 42q94 0 167 -42t112 -112t39 -152q0 -80 -38 -148.5t-109.5 -110.5t-164.5 -42q-94 0 -167.5 42t-113.5 112t-40 147q0 80 40 151zM178 0l1039 1368h202l-1038 -1368h-203zM308 1000.5q36 -35.5 93 -35.5q55 0 89 35.5t34 86.5
q0 53 -33.5 90t-91.5 37q-57 0 -93 -35.5t-34 -88.5q0 -54 36 -89.5zM903 419.5q39 69.5 111.5 111.5t165.5 42q94 0 165.5 -42t111.5 -111.5t40 -149.5t-39 -149.5t-110.5 -110.5t-165.5 -41t-166 41t-112 110.5t-40 149.5t39 149.5zM1088.5 182q35.5 -35 91.5 -35
q57 0 91 36t34 87t-34 88t-93 37q-57 0 -91 -35.5t-34 -89.5q0 -53 35.5 -88z" />
    <glyph glyph-name="ampersand" unicode="&#x26;" horiz-adv-x="1519" 
d="M1044 -2l-75 84q-72 -51 -171.5 -76.5t-209.5 -25.5q-197 0 -319 94t-122 254q0 90 38 158.5t75 103.5t92 78l49 34l-45 50q-45 49 -81.5 110.5t-36.5 153.5t50 166.5t141 116.5t208 42q174 0 283.5 -87t109.5 -228q0 -92 -48 -165t-136 -138l-55 -43l170 -184
q16 49 21 99t5 122h399v-219h-159q-6 -59 -24.5 -116.5t-47.5 -98.5l260 -285h-371zM554 1090.5q-30 -29.5 -30 -72.5q0 -37 18.5 -64.5t37 -44t22.5 -22.5l27 -29l35 31q33 31 55 58.5t22 70.5t-27.5 72.5t-80.5 29.5q-49 0 -79 -29.5zM795 272l-234 254l-31 -22
q-72 -59 -71 -137q0 -63 47 -101.5t127 -38.5q94 0 162 45z" />
    <glyph glyph-name="quotesingle" unicode="'" horiz-adv-x="419" 
d="M104 1282q41 43 107 43q63 0 104 -43t41 -111q0 -16 -6 -41l-100 -473h-80l-100 469q-6 37 -7 45q0 68 41 111z" />
    <glyph glyph-name="parenleft" unicode="(" horiz-adv-x="630" 
d="M412 -383q-156 156 -247 391.5t-91 503.5q0 254 87 493.5t251 403.5h219q-123 -158 -196 -394.5t-73 -502.5q0 -244 68 -483.5t201 -411.5h-219z" />
    <glyph glyph-name="parenright" unicode=")" horiz-adv-x="624" 
d="M199.5 29.5q68.5 238.5 68.5 482.5q0 262 -72.5 499.5t-195.5 397.5h217q164 -164 251 -403.5t87 -493.5q0 -268 -91 -503.5t-247 -391.5h-217q131 174 199.5 412.5z" />
    <glyph glyph-name="asterisk" unicode="*" horiz-adv-x="780" 
d="M625 969l114 -66l-67 -117l-113 68q-68 39 -119 86q16 -78 17 -145v-133h-133v133q0 63 16 145q-61 -53 -119 -86l-115 -68l-65 117l115 66q37 23 133 59q-72 20 -133 55l-115 68l65 115l115 -66q72 -41 119 -88q-16 82 -16 148v133h133v-133q0 -66 -17 -148
q41 43 119 88l113 66l67 -115l-114 -68q-61 -35 -133 -55q96 -36 133 -59z" />
    <glyph glyph-name="plus" unicode="+" horiz-adv-x="1222" 
d="M1049 514h-318v-336h-235v336h-322v215h322v338h235v-338h318v-215z" />
    <glyph glyph-name="comma" unicode="," horiz-adv-x="503" 
d="M369.5 258q54.5 -55 54.5 -145q0 -100 -46 -180t-127 -127.5t-181 -53.5v78q96 12 147 61.5t51 114.5q-20 -10 -53 -10q-68 0 -112 42t-44 109q0 72 48.5 119t123.5 47q84 0 138.5 -55z" />
    <glyph glyph-name="hyphen" unicode="-" horiz-adv-x="1200" 
d="M1055 621v-252h-910v252h910z" />
    <glyph glyph-name="period" unicode="." horiz-adv-x="466" 
d="M107.5 22.5q-48.5 49.5 -48.5 118.5q0 72 48.5 121t125.5 49q76 0 125.5 -50t49.5 -120q0 -68 -49.5 -118t-125.5 -50q-77 0 -125.5 49.5z" />
    <glyph glyph-name="slash" unicode="/" horiz-adv-x="917" 
d="M573 1313h283l-512 -1313h-283z" />
    <glyph glyph-name="zero" unicode="0" horiz-adv-x="1187" 
d="M311.5 59q-118.5 82 -181 236t-62.5 360q0 209 62.5 364t180 237.5t281.5 82.5q162 0 281.5 -82.5t184 -237.5t64.5 -364q0 -207 -64.5 -360.5t-184 -235.5t-281.5 -82t-280.5 82zM767 344.5q58 108.5 58 310.5q0 203 -58 312.5t-173 109.5q-113 0 -172.5 -108.5
t-59.5 -313.5q0 -201 59.5 -310t172.5 -109q115 0 173 108.5z" />
    <glyph glyph-name="one" unicode="1" horiz-adv-x="837" 
d="M66 1079q182 0 268 58.5t110 175.5h261v-1313h-293v858h-346v221z" />
    <glyph glyph-name="two" unicode="2" horiz-adv-x="1073" 
d="M559 260h432v-260h-864v207l469 489q51 55 80 104.5t29 112.5q0 76 -45.5 119t-122.5 43q-86 0 -133.5 -52t-41.5 -136h-284q-8 133 52 236.5t171 159.5t252 56q131 0 232.5 -50t156.5 -141t55 -212q0 -127 -51 -217t-131 -178z" />
    <glyph glyph-name="three" unicode="3" horiz-adv-x="1118" 
d="M958.5 681.5q92.5 -106.5 92.5 -261.5q0 -129 -63.5 -228.5t-176.5 -155.5t-256 -56q-141 0 -253 55t-173 157.5t-59 237.5h286q0 -86 56.5 -140t146.5 -54q88 0 143.5 51t55.5 139q0 84 -54.5 132t-144.5 52q-25 2 -139 2h-78v191l266 260h-465v250h836v-236l-268 -266
q155 -23 247.5 -129.5z" />
    <glyph glyph-name="four" unicode="4" horiz-adv-x="1144" 
d="M1096 502v-242h-168v-260h-283v260h-596v217l526 836h353v-811h168zM645 502v454l-285 -454h285z" />
    <glyph glyph-name="five" unicode="5" horiz-adv-x="1165" 
d="M863.5 825.5q103.5 -57.5 161.5 -159t58 -228.5q0 -133 -67.5 -237.5t-183 -161.5t-259.5 -57q-141 0 -252.5 56t-175 158.5t-63.5 235.5h287q0 -86 57 -140t145 -54q92 0 154.5 57t62.5 147q0 88 -59 144.5t-156 56.5q-59 0 -110 -23.5t-82 -60.5l-279 29l170 725h723
v-250h-501l-58 -217q74 37 191 37q133 0 236.5 -57.5z" />
    <glyph glyph-name="six" unicode="6" horiz-adv-x="1181" 
d="M874.5 833.5q108.5 -55.5 171 -155.5t62.5 -232q0 -133 -66.5 -239.5t-186.5 -166.5t-273 -60q-154 0 -268.5 60t-175 164.5t-60.5 231.5q0 125 51 231.5t141 235.5l289 410h318l-308 -428q41 4 64 4q133 0 241.5 -55.5zM748.5 293q64.5 55 64.5 147t-63.5 146.5
t-153.5 54.5q-94 0 -158.5 -54.5t-64.5 -146.5q0 -94 63.5 -148t155.5 -54t156.5 55z" />
    <glyph glyph-name="seven" unicode="7" horiz-adv-x="960" 
d="M932 1313v-226l-500 -1087h-311l489 1063h-581v250h903z" />
    <glyph glyph-name="eight" unicode="8" horiz-adv-x="1120" 
d="M1002.5 579q50.5 -83 50.5 -190q0 -125 -63.5 -218t-176.5 -141t-252 -48q-143 0 -254.5 49t-175 141t-63.5 217q0 109 50 191t136 122q-63 43 -103 117t-40 156q0 104 57 187t159.5 130t233.5 47t234.5 -48t161 -131t57.5 -187q0 -88 -42 -160t-110 -113
q90 -38 140.5 -121zM442 1046.5q-45 -38.5 -45 -98.5q0 -63 48.5 -102t115.5 -39q66 0 115 40t49 101q0 59 -46 98t-120 39q-72 0 -117 -38.5zM701.5 284q54.5 46 54.5 119q0 74 -54.5 118t-140.5 44q-88 0 -143.5 -45t-55.5 -117q0 -74 55.5 -119.5t141.5 -45.5
q88 0 142.5 46z" />
    <glyph glyph-name="nine" unicode="9" horiz-adv-x="1185" 
d="M869.5 1275.5q115.5 -61.5 177 -166.5t61.5 -232t-51 -229.5t-144 -233.5l-286 -414h-320l309 426q-45 -4 -63 -4q-133 0 -241.5 56.5t-171 156.5t-62.5 231q0 137 67.5 244t186.5 167t268 60q154 0 269.5 -61.5zM434.5 728q63.5 -54 155.5 -54q94 0 157.5 53t63.5 145
q0 94 -63.5 147.5t-155.5 53.5t-156.5 -53t-64.5 -146q0 -92 63.5 -146z" />
    <glyph glyph-name="colon" unicode=":" horiz-adv-x="636" 
d="M201 649q-51 49 -51 117t50 118t119 50q68 0 118 -50t50 -118t-50 -117t-118 -49q-67 0 -118 49zM200 39q-50 49 -50 117t50 118t119 50q68 0 118 -51.5t50 -116.5q0 -68 -50 -117t-118 -49q-69 0 -119 49z" />
    <glyph glyph-name="semicolon" unicode=";" horiz-adv-x="612" 
d="M193.5 648q-50.5 48 -50.5 118t50.5 119t121.5 49q70 0 119 -49t49 -119t-49 -118t-119 -48q-71 0 -121.5 48zM442.5 260q53.5 -55 53.5 -147q0 -100 -46.5 -180t-127 -127.5t-181.5 -53.5v78q96 12 147.5 61.5t51.5 114.5q-27 -10 -53 -10q-68 0 -112 42t-44 109
q0 74 49 121t125 47q84 0 137.5 -55z" />
    <glyph glyph-name="less" unicode="&#x3c;" horiz-adv-x="808" 
d="M66 616l669 324v-317l-354 -156l354 -160v-315l-669 323v301z" />
    <glyph glyph-name="equal" unicode="=" horiz-adv-x="1130" 
d="M928 958v-235h-725v235h725zM928 500v-238h-725v238h725z" />
    <glyph glyph-name="greater" unicode="&#x3e;" horiz-adv-x="823" 
d="M72 307l356 160l-356 156v317l671 -324v-301l-671 -323v315z" />
    <glyph glyph-name="question" unicode="?" horiz-adv-x="1021" 
d="M740.5 1296q97.5 -43 152.5 -120.5t55 -180.5q0 -106 -52 -179t-151 -159q-70 -61 -103.5 -102t-39.5 -88v-18h-266v18q0 100 51 171t143 148q70 61 103 102.5t33 90.5q0 55 -43 90t-109 35q-80 0 -127 -47t-43 -119h-268q-4 109 49 201t155.5 146t239.5 54
q123 0 220.5 -43zM607.5 284q54.5 -48 54.5 -130t-53.5 -129.5t-135.5 -47.5t-135 47.5t-53 129.5t53 130t135 48q80 0 134.5 -48z" />
    <glyph glyph-name="at" unicode="@" horiz-adv-x="1964" 
d="M1341 846v-518q0 -55 31 -88t78 -33q88 0 133 80t45 219q0 186 -81 330.5t-227 223.5t-337 79q-188 0 -335.5 -82t-230.5 -230.5t-83 -339.5q0 -193 83 -342t230.5 -231t335.5 -82q205 0 363 98l96 -180q-205 -117 -459 -117q-246 0 -443.5 107.5t-311 301.5t-113.5 445
q0 250 114.5 444.5t312 301t441.5 106.5q240 0 438.5 -105.5t313 -293.5t114.5 -424q0 -145 -51 -258t-144 -175.5t-216 -62.5q-131 0 -204 66t-91 154q-37 -49 -98.5 -78t-139.5 -29q-154 0 -249 100.5t-95 262.5q0 106 45 191t126 132t188 47q76 0 139 -27.5t100 -78.5
l10 86h172zM1084.5 355.5q52.5 54.5 52.5 142.5t-52.5 143t-132.5 55q-88 0 -140 -55t-52 -141q0 -88 53 -143.5t137 -55.5q82 0 134.5 54.5z" />
    <glyph glyph-name="A" unicode="A" horiz-adv-x="1298" 
d="M506 1313h289l487 -1313h-317l-97 270h-442l-98 -270h-312zM782 520l-51 142q-18 55 -53 165l-27 82q-6 -27 -31.5 -99.5t-54.5 -147.5l-53 -142h270z" />
    <glyph glyph-name="B" unicode="B" horiz-adv-x="1228" 
d="M1100.5 540.5q62.5 -75.5 62.5 -194.5q0 -168 -125 -257t-342 -89h-555v1313h557q211 0 331 -99.5t120 -263.5q0 -115 -57.5 -189.5t-157.5 -107.5q104 -37 166.5 -112.5zM436 1061v-299h248q82 0 125 45t43 102t-42 104.5t-126 47.5h-248zM822 291q46 39 46 104
q0 63 -48 106.5t-120 43.5h-264v-293h264q76 0 122 39z" />
    <glyph glyph-name="C" unicode="C" horiz-adv-x="1480" 
d="M399.5 58q-157.5 85 -245.5 241t-88 360q0 201 87 356.5t243.5 240.5t361.5 85q170 0 312 -60t233.5 -172t111.5 -261h-332q-23 96 -112.5 155.5t-216.5 59.5q-172 0 -272.5 -110.5t-100.5 -297.5q0 -188 102.5 -296.5t270.5 -108.5q123 0 213 60.5t116 158.5h332
q-18 -145 -106 -258t-231.5 -175.5t-319.5 -62.5q-201 0 -358.5 85z" />
    <glyph glyph-name="D" unicode="D" horiz-adv-x="1402" 
d="M1016.5 1228q150.5 -85 235.5 -235.5t85 -341.5q0 -188 -84 -336.5t-234.5 -231.5t-342.5 -83h-535v1313h535q190 0 340.5 -85zM920.5 375.5q101.5 105.5 101.5 275.5q0 176 -101.5 283.5t-273.5 107.5h-207v-772h207q172 0 273.5 105.5z" />
    <glyph glyph-name="E" unicode="E" horiz-adv-x="1112" 
d="M440 1042v-249h506v-261h-506v-262h568v-270h-867v1313h867v-271h-568z" />
    <glyph glyph-name="F" unicode="F" horiz-adv-x="1073" 
d="M440 1042v-270h484l-2 -260h-482v-512h-299v1313h873v-271h-574z" />
    <glyph glyph-name="G" unicode="G" horiz-adv-x="1478" 
d="M1413 727v-141q0 -182 -85 -320.5t-237.5 -215.5t-347.5 -77q-203 0 -356.5 84t-237 236.5t-83.5 353.5q0 203 87 360.5t243.5 245.5t359.5 88q168 0 303 -59t221 -165.5t111 -246.5h-320q-33 90 -119 141.5t-202 51.5q-174 0 -274.5 -111.5t-100.5 -300.5
q0 -188 101.5 -294.5t271.5 -106.5q131 0 224 59.5t120 163.5h-353v254h674z" />
    <glyph glyph-name="H" unicode="H" horiz-adv-x="1374" 
d="M141 1313h299v-522h510v522h301v-1313h-301v530h-510v-530h-299v1313z" />
    <glyph glyph-name="I" unicode="I" horiz-adv-x="563" 
d="M141 0v1313h299v-1313h-299z" />
    <glyph glyph-name="J" unicode="J" horiz-adv-x="1071" 
d="M940 389q0 -125 -56.5 -219t-159.5 -145.5t-237 -51.5q-133 0 -235 52.5t-157.5 146.5t-55.5 217v76h289v-66q0 -74 42 -114.5t113 -40.5q76 0 117 42t41 113v643h-375v271h674v-924z" />
    <glyph glyph-name="K" unicode="K" horiz-adv-x="1306" 
d="M635 489l-195 -243v-252h-299v1319h299v-602l475 602h373l-450 -565l452 -748h-358z" />
    <glyph glyph-name="L" unicode="L" horiz-adv-x="1028" 
d="M981 270v-270h-840v1313h303v-1043h537z" />
    <glyph glyph-name="M" unicode="M" horiz-adv-x="1607" 
d="M1468 1313v-1313h-290v164q0 272 22 485l-278 -612h-265l-256 596q25 -262 25 -469v-164h-285v1313h262l396 -946l405 946h264z" />
    <glyph glyph-name="N" unicode="N" horiz-adv-x="1392" 
d="M1253 1313v-1313h-278l-539 795v-795h-295v1313h279l536 -797v797h297z" />
    <glyph glyph-name="O" unicode="O" horiz-adv-x="1544" 
d="M1387.5 301q-91.5 -156 -252 -242t-365.5 -86q-203 0 -363.5 86t-250.5 241t-90 355q0 201 90 356.5t250.5 242.5t365.5 87q203 0 363.5 -86t252 -241.5t91.5 -356.5q0 -200 -91.5 -356zM1112 868.5q-49 92.5 -137 143.5t-201 51q-115 0 -204 -51t-139 -143.5t-50 -213.5
q0 -119 49 -211t138 -142t204 -50q113 0 202 51t138 143.5t49 210.5q0 119 -49 211.5z" />
    <glyph glyph-name="P" unicode="P" horiz-adv-x="1206" 
d="M1036 1194q123 -119 123 -322q0 -129 -55 -228t-160.5 -154.5t-251.5 -55.5h-252v-434h-299v1313h557q215 0 338 -119zM793.5 745.5q50.5 55.5 50.5 133.5q0 68 -50.5 121t-154.5 53h-199v-363h197q106 0 156.5 55.5z" />
    <glyph glyph-name="Q" unicode="Q" horiz-adv-x="1544" 
d="M1407 339q-72 -142 -200 -234.5t-296 -118.5v-60q0 -66 27 -101.5t117 -35.5q45 0 78 6v-235q-78 -18 -156 -19q-350 0 -350 334v111q-166 27 -293 118t-197.5 233t-70.5 318q0 201 90 356.5t250.5 242.5t365.5 87q203 0 363.5 -86t252 -241.5t91.5 -356.5
q0 -176 -72 -318zM430 444.5q49 -92.5 138 -142.5t204 -50q113 0 202 51t138 143.5t49 210.5q0 119 -49 211.5t-137 143.5t-201 51q-115 0 -204 -51t-139 -143.5t-50 -213.5q0 -118 49 -210.5z" />
    <glyph glyph-name="R" unicode="R" horiz-adv-x="1269" 
d="M141 1313h529q260 0 390 -108.5t130 -317.5q0 -135 -57.5 -230.5t-167.5 -146.5l239 -510h-336l-202 459h-226v-459h-299v1313zM668 715q104 0 155 48t51 122q0 72 -49 120t-155 48h-230v-338h228z" />
    <glyph glyph-name="S" unicode="S" horiz-adv-x="1189" 
d="M163.5 1145q61.5 94 172 145t258.5 51q143 0 255 -50t174 -142t64 -211h-309q-2 68 -58 110t-142 42q-76 0 -122 -35t-46 -94q0 -55 39.5 -83t117.5 -47l207 -47q174 -41 261 -141t87 -244q0 -129 -64.5 -225t-182 -148.5t-273.5 -52.5q-233 0 -377.5 113t-158.5 307h307
q6 -80 68.5 -124t164.5 -44q94 0 147.5 38t53.5 104q0 53 -35 82.5t-98 44.5l-217 51q-184 43 -269.5 141t-85.5 238q0 127 61.5 221z" />
    <glyph glyph-name="T" unicode="T" horiz-adv-x="1150" 
d="M1118 1042h-391v-1042h-299v1042h-395v271h1085v-271z" />
    <glyph glyph-name="U" unicode="U" horiz-adv-x="1409" 
d="M131 1313h299v-811q2 -131 76 -195.5t196 -64.5q133 0 205 68.5t72 191.5v811h299v-824q0 -246 -156.5 -381t-419.5 -135q-264 0 -417.5 138.5t-153.5 377.5v824z" />
    <glyph glyph-name="V" unicode="V" horiz-adv-x="1376" 
d="M346 1313l164 -418q41 -115 98.5 -287t81.5 -243q25 72 84.5 243.5t102.5 288.5l161 416h320l-512 -1313h-307l-521 1313h328z" />
    <glyph glyph-name="W" unicode="W" horiz-adv-x="1959" 
d="M344 1313l125 -412q53 -172 83 -296t30 -132q27 82 145 498l90 307h328l180 -614l55 -191q0 8 30 132t83 296l127 412h319l-417 -1313h-291l-78 258q-43 141 -99.5 334.5t-72.5 257.5q-16 -61 -70.5 -256t-99.5 -336l-80 -258h-291l-417 1313h321z" />
    <glyph glyph-name="X" unicode="X" horiz-adv-x="1382" 
d="M422 1313l110 -164q33 -45 91.5 -143.5t76.5 -131.5l271 439h379l-465 -658l463 -657h-385l-86 127q-55 84 -108.5 176t-68.5 119l-292 -420h-375l471 655l-471 658h389z" />
    <glyph glyph-name="Y" unicode="Y" horiz-adv-x="1284" 
d="M365 1313l131 -228q57 -100 99 -181t52 -101q10 23 52 103.5t100 178.5l133 228h336l-475 -801v-512h-301v512l-474 801h347z" />
    <glyph glyph-name="Z" unicode="Z" horiz-adv-x="1132" 
d="M1059 1083l-594 -813h588v-270h-981v242l596 800h-584v271h975v-230z" />
    <glyph glyph-name="bracketleft" unicode="[" horiz-adv-x="606" 
d="M596 -207h-455v1759h455v-215h-215v-1331h215v-213z" />
    <glyph glyph-name="backslash" unicode="\" horiz-adv-x="815" 
d="M532 0l-532 1313h285l530 -1313h-283z" />
    <glyph glyph-name="bracketright" unicode="]" horiz-adv-x="604" 
d="M223 6v1331h-213v215h453v-1759h-453v213h213z" />
    <glyph glyph-name="asciicircum" unicode="^" horiz-adv-x="991" 
d="M604 887l-106 200l-107 -200h-244l230 426h239l228 -426h-240z" />
    <glyph glyph-name="underscore" unicode="_" horiz-adv-x="806" 
d="M811 -31v-200h-815v200h815z" />
    <glyph glyph-name="grave" unicode="`" horiz-adv-x="743" 
d="M139 1702l135 139l330 -348l-84 -88z" />
    <glyph glyph-name="a" unicode="a" horiz-adv-x="1198" 
d="M1090 924v-924h-275v106q-47 -61 -131 -97t-182 -36q-129 0 -228.5 60.5t-153.5 169t-54 252.5q0 150 58 263t163.5 175.5t240.5 62.5q199 0 303 -122l19 90h240zM740.5 295.5q62.5 64.5 62.5 171.5q0 104 -62.5 167.5t-162.5 63.5t-160 -64.5t-60 -168.5t60.5 -169
t159.5 -65q100 0 162.5 64.5z" />
    <glyph glyph-name="b" unicode="b" horiz-adv-x="1200" 
d="M914.5 895q103.5 -61 162 -174t58.5 -258t-58.5 -256t-162 -172.5t-236.5 -61.5q-100 0 -183 36t-130 102l-17 -111h-237v1405h286v-549q47 47 119 73.5t162 26.5q133 0 236.5 -61zM781.5 295.5q60.5 64.5 60.5 169.5q0 104 -59.5 168.5t-159.5 64.5t-162 -63.5
t-62 -167.5q0 -106 61.5 -171t162.5 -65q98 0 158.5 64.5z" />
    <glyph glyph-name="c" unicode="c" horiz-adv-x="1107" 
d="M128 722q62 112 176 173t261 61q133 0 237.5 -49t167 -139t70.5 -207h-290q-16 70 -67.5 105.5t-121.5 35.5q-92 0 -148.5 -64.5t-56.5 -174.5q0 -109 55.5 -173.5t149.5 -64.5q74 0 125 39t64 101h290q-10 -115 -72.5 -204t-167 -138.5t-235.5 -49.5q-147 0 -261 61.5
t-176 172t-62 256.5q0 147 62 259z" />
    <glyph glyph-name="d" unicode="d" horiz-adv-x="1189" 
d="M1090 1405v-1405h-238l-16 111q-47 -66 -130 -102t-184 -36q-133 0 -236.5 61.5t-161.5 172t-58 256.5q0 145 58 258t161.5 174t236.5 61q92 0 164 -25.5t119 -74.5v549h285zM740.5 295.5q62.5 64.5 62.5 171.5q0 104 -62.5 167.5t-162.5 63.5t-160 -64.5t-60 -168.5
t60.5 -169t159.5 -65q100 0 162.5 64.5z" />
    <glyph glyph-name="e" unicode="e" horiz-adv-x="1069" 
d="M861 62.5q-128 -89.5 -306 -89.5q-145 0 -256 61.5t-172 173t-61 257.5q0 147 61 259t172 172t250 60q137 0 243.5 -57t165 -158.5t58.5 -230.5q0 -72 -12 -125h-656q4 -82 60.5 -131t146.5 -49q68 0 117 25.5t67 66.5h279q-29 -145 -157 -234.5zM723 571
q-2 70 -53.5 111t-130.5 41q-80 0 -131.5 -41t-55.5 -111h371z" />
    <glyph glyph-name="f" unicode="f" horiz-adv-x="735" 
d="M503.5 1129.5q-26.5 -46.5 -26.5 -117.5v-88h223v-236h-223v-688h-282v688h-170v236h170v133q0 186 99 273t279 87q76 0 127 -12v-236q-18 6 -67 7q-103 0 -129.5 -46.5z" />
    <glyph glyph-name="g" unicode="g" horiz-adv-x="1181" 
d="M1079 924v-926q0 -213 -136 -339t-376 -126q-137 0 -246.5 50t-174 141.5t-74.5 212.5h282q12 -76 70.5 -114t142.5 -38q106 0 166 54.5t60 146.5v139q-41 -51 -117 -83t-168 -32q-127 0 -227.5 58.5t-157.5 165t-57 243.5q0 141 58 250t159.5 169t226.5 60
q94 0 172 -33.5t119 -91.5l12 93h266zM722.5 321.5q63.5 63.5 63.5 161.5q0 100 -63.5 163t-155.5 63t-150.5 -63.5t-58.5 -162.5q0 -100 59.5 -162.5t151.5 -62.5q90 0 153.5 63.5z" />
    <glyph glyph-name="h" unicode="h" horiz-adv-x="1112" 
d="M111 1405h286v-571q41 57 113 89.5t158 32.5q166 0 255 -103t89 -280v-573h-285v506q0 115 -51 152.5t-105 37.5q-61 0 -118.5 -34.5t-57.5 -147.5v-514h-284v1405z" />
    <glyph glyph-name="i" unicode="i" horiz-adv-x="505" 
d="M118.5 1112q-55.5 53 -55.5 129q0 78 54.5 130t136.5 52t136 -52t54 -130q0 -74 -55 -128t-135 -54t-135.5 53zM111 924h286v-924h-286v924z" />
    <glyph glyph-name="j" unicode="j" horiz-adv-x="505" 
d="M118.5 1112q-55.5 53 -55.5 129q0 78 54.5 130t136.5 52t136 -52t54 -130q0 -74 -55 -128t-135 -54t-135.5 53zM111 924h286v-1360h-284z" />
    <glyph glyph-name="k" unicode="k" horiz-adv-x="1077" 
d="M731 582l309 -582h-323l-191 369l-129 -133v-236h-286v1405h286v-819l310 338h354z" />
    <glyph glyph-name="l" unicode="l" horiz-adv-x="507" 
d="M111 1405h286v-1405h-286v1405z" />
    <glyph glyph-name="m" unicode="m" horiz-adv-x="1681" 
d="M1487 860q94 -96 94 -254v-606h-285v537q0 82 -41 127t-104 45q-78 0 -121 -51.5t-43 -135.5v-522h-280v537q0 80 -41 125t-111 45q-74 0 -116 -51.5t-42 -133.5v-522h-286v924h264l12 -86q43 55 112.5 86.5t147.5 31.5q98 0 177 -44t118 -119q43 78 121 120.5t180 42.5
q150 0 244 -96z" />
    <glyph glyph-name="n" unicode="n" horiz-adv-x="1103" 
d="M911.5 852q92.5 -104 92.5 -279v-573h-287v506q0 190 -156 190q-82 0 -124 -48t-42 -134v-514h-284v924h237l19 -101q43 61 119.5 97t166.5 36q166 0 258.5 -104z" />
    <glyph glyph-name="o" unicode="o" horiz-adv-x="1157" 
d="M130.5 718.5q64.5 112.5 181 175t268.5 62.5t267.5 -62.5t180 -175t64.5 -255.5q0 -141 -64.5 -253t-181.5 -174.5t-266 -62.5q-152 0 -268.5 62.5t-181 174.5t-64.5 253q0 143 64.5 255.5zM419.5 293.5q61.5 -66.5 160.5 -66.5q98 0 159.5 66.5t61.5 171.5
q0 104 -60.5 169.5t-160.5 65.5t-161 -65.5t-61 -169.5q0 -105 61.5 -171.5z" />
    <glyph glyph-name="p" unicode="p" horiz-adv-x="1200" 
d="M914.5 895q103.5 -61 162 -173t58.5 -257t-58.5 -257t-162 -173.5t-236.5 -61.5q-90 0 -162 26t-119 73v-508h-286v1360h237l17 -107q47 66 130 102.5t183 36.5q133 0 236.5 -61zM781.5 293.5q60.5 64.5 60.5 169.5q0 104 -59.5 168.5t-159.5 64.5t-162 -63.5t-62 -169.5
t61.5 -170t162.5 -64q98 0 158.5 64.5z" />
    <glyph glyph-name="q" unicode="q" horiz-adv-x="1189" 
d="M1090 924v-1360h-285v516q-51 -51 -125 -79t-160 -28q-133 0 -236.5 61.5t-160.5 173t-57 257.5q0 145 58 257t161.5 173t236.5 61q98 0 182 -36.5t132 -102.5l16 107h238zM740.5 293.5q62.5 64.5 62.5 169.5q0 104 -62.5 168.5t-162.5 64.5t-160 -64.5t-60 -168.5
t60.5 -169t159.5 -65q100 0 162.5 64.5z" />
    <glyph glyph-name="r" unicode="r" horiz-adv-x="727" 
d="M696 924v-248q-14 2 -43 2q-123 0 -189.5 -64.5t-66.5 -181.5v-432h-286v924h262l18 -125q23 66 81 99.5t138 33.5q45 0 86 -8z" />
    <glyph glyph-name="s" unicode="s" horiz-adv-x="944" 
d="M189.5 56q-111.5 83 -123.5 227h282q2 -47 38 -73t91 -26q49 0 78 18.5t29 55.5q0 33 -22.5 48.5t-61.5 23.5l-148 37q-264 63 -264 278q0 139 106.5 225t278.5 86q170 0 275.5 -84t109.5 -221h-278q-2 41 -33 65.5t-80 24.5q-43 0 -67.5 -18t-24.5 -51t20.5 -45.5
t69.5 -24.5l172 -41q125 -29 183.5 -101.5t58.5 -172.5q0 -143 -108.5 -228.5t-293.5 -85.5q-176 0 -287.5 83z" />
    <glyph glyph-name="t" unicode="t" horiz-adv-x="684" 
d="M657 688h-174v-688h-286v688h-170v236h170v239h286v-239h174v-236z" />
    <glyph glyph-name="u" unicode="u" horiz-adv-x="1085" 
d="M985 924v-924h-237l-19 104q-49 -66 -121.5 -98.5t-161.5 -32.5q-166 0 -256 98.5t-90 268.5v584h287v-541q0 -86 40 -124t116 -38q74 0 114.5 46t40.5 124v533h287z" />
    <glyph glyph-name="v" unicode="v" horiz-adv-x="1073" 
d="M330 924l94 -275q33 -94 64.5 -202.5t41.5 -141.5q12 35 50 147.5t71 196.5l105 275h295l-387 -924h-281l-360 924h307z" />
    <glyph glyph-name="w" unicode="w" horiz-adv-x="1576" 
d="M342 924l59 -211q57 -205 84 -334q4 14 138 471l16 55h303q18 -63 61.5 -225t81.5 -320q31 135 93 347l63 217h303l-325 -924h-279q-100 336 -152 551q-10 -45 -54 -206t-101 -345h-291l-309 924h309z" />
    <glyph glyph-name="x" unicode="x" horiz-adv-x="1019" 
d="M348 0h-311l295 449l-309 475h329l54 -86q98 -164 116 -193l156 279h319l-305 -471l295 -453h-328q-106 174 -157 266z" />
    <glyph glyph-name="y" unicode="y" horiz-adv-x="1101" 
d="M1081 924l-428 -1074q-35 -84 -76.5 -146t-123.5 -109.5t-207 -47.5q-84 0 -189 23l4 233q76 -14 134 -14q70 0 110.5 19.5t60 48t35.5 73.5l17 41l-395 953h309l217 -605l229 605h303z" />
    <glyph glyph-name="z" unicode="z" horiz-adv-x="929" 
d="M78 252l414 422h-414v250h774v-254l-426 -416h426v-254h-774v252z" />
    <glyph glyph-name="braceleft" unicode="{" horiz-adv-x="696" 
d="M486.5 784.5q-31.5 -69.5 -107.5 -112.5q78 -45 108.5 -115t30.5 -178v-248q0 -106 41 -152.5t117 -46.5v-196q-203 -4 -298 96t-95 285v209q0 133 -41 191t-138 58v191q98 2 138.5 60.5t40.5 191.5v209q0 201 103 293t290 88v-197q-86 -2 -122 -53t-36 -148v-247
q0 -109 -31.5 -178.5z" />
    <glyph glyph-name="bar" unicode="|" horiz-adv-x="722" 
d="M471 1405v-1565h-219v1565h219z" />
    <glyph glyph-name="braceright" unicode="}" horiz-adv-x="698" 
d="M454 826.5q40 -58.5 138 -60.5v-191q-96 0 -137 -58t-41 -191v-209q0 -184 -95.5 -284.5t-300.5 -96.5v196q78 0 118 47.5t40 151.5v248q0 109 32 178.5t109 114.5q-78 41 -109.5 111.5t-31.5 179.5v247q0 98 -37 148.5t-121 52.5v197q186 4 291 -88.5t105 -292.5v-209
q0 -133 40 -191.5z" />
    <glyph glyph-name="asciitilde" unicode="~" horiz-adv-x="884" 
d="M827 694q2 -14 2 -41q0 -127 -67.5 -196.5t-165.5 -69.5q-57 0 -101 21.5t-102 64.5q-41 31 -66.5 45t-52.5 14q-31 0 -49 -21.5t-18 -64.5q0 -18 2 -28h-152q-2 12 -2 37q0 123 66.5 194.5t165.5 71.5q59 0 103 -22.5t97 -63.5q43 -33 69 -47.5t54 -14.5q70 0 70 91
q0 20 -2 30h149z" />
    <glyph glyph-name="uni00A0" unicode="&#xa0;" horiz-adv-x="487" 
 />
    <glyph glyph-name="exclamdown" unicode="&#xa1;" horiz-adv-x="645" 
d="M469 1290q57 -53 57 -141q0 -90 -58 -143.5t-142 -53.5q-88 0 -146.5 53.5t-58.5 143.5q0 88 58.5 141t146.5 53q86 0 143 -53zM479 0h-313l51 815h215z" />
    <glyph glyph-name="cent" unicode="&#xa2;" horiz-adv-x="1280" 
d="M772 485q51 39 64 101h290q-14 -158 -122.5 -262.5t-278.5 -124.5v-199h-170v203q-184 29 -293.5 157.5t-109.5 323.5q0 197 109.5 327t293.5 158v199h170v-194q172 -20 281.5 -126t119.5 -266h-290q-16 70 -67.5 106t-121.5 36q-92 0 -148.5 -64.5t-56.5 -175.5
q0 -109 55.5 -173.5t149.5 -64.5q74 0 125 39z" />
    <glyph glyph-name="sterling" unicode="&#xa3;" horiz-adv-x="1363" 
d="M1233 453v-453h-1083v246q88 2 140 64.5t52 158.5q0 33 -6 59h-186v209h114q-25 74 -24 148q0 135 62.5 237.5t176 159.5t258.5 57q143 0 252 -54t170.5 -153.5t61.5 -228.5h-279q2 84 -56.5 134t-154.5 50t-155.5 -56t-59.5 -150q0 -61 35 -144h352v-209h-287v-26
q0 -82 -32.5 -148.5t-94.5 -107.5l496 -2v209h248z" />
    <glyph glyph-name="currency" unicode="&#xa4;" horiz-adv-x="1413" 
d="M1151 416l152 -133l-185 -185l-137 150q-125 -80 -274 -80q-152 0 -277 80l-135 -150l-184 185l153 135q-74 121 -74 266t74 270l-153 136l184 186l135 -152q127 82 277 82q147 0 274 -82l137 152l185 -186l-154 -136q78 -123 78 -270q0 -143 -76 -268zM833.5 462
q59.5 36 95.5 95t36 127q0 70 -35 130t-94.5 95t-128.5 35q-70 0 -130.5 -35t-95.5 -95t-35 -130q0 -68 36 -127t95.5 -95t129.5 -36q67 0 126.5 36z" />
    <glyph glyph-name="yen" unicode="&#xa5;" horiz-adv-x="1562" 
d="M1047 766h186v-209h-311v-115h311v-206h-311v-236h-285v236h-313v206h313v115h-313v209h190l-367 547h340l293 -510v2l291 508h344z" />
    <glyph glyph-name="brokenbar" unicode="&#xa6;" horiz-adv-x="745" 
d="M494 1407v-588h-242v588h242zM494 481v-604h-242v604h242z" />
    <glyph glyph-name="section" unicode="&#xa7;" horiz-adv-x="1083" 
d="M248.5 -282.5q-113.5 96.5 -115.5 253.5h268q-2 -70 42 -107.5t110 -37.5q63 0 101 32.5t38 88.5q0 57 -39 80.5t-76.5 32t-48.5 10.5l-118 30q-96 23 -182.5 89.5t-86.5 201.5q0 92 48.5 158.5t136.5 99.5q-102 37 -154.5 107.5t-52.5 167.5q0 152 114.5 241.5
t296.5 89.5q190 0 304 -96t114 -254h-268q0 72 -43 109t-111 37q-61 0 -98 -32t-37 -85q0 -45 24.5 -70.5t53.5 -35t84 -21.5l121 -31q98 -20 183 -87.5t85 -201.5q0 -94 -49 -161.5t-135 -98.5q207 -76 207 -276q0 -150 -116 -240t-298 -90q-189 0 -302.5 96.5zM653 363.5
q37 27.5 37 76.5q0 51 -42 77t-109 26q-72 0 -110 -29t-38 -76q0 -51 42 -76.5t112 -25.5q71 0 108 27.5z" />
    <glyph glyph-name="dieresis" unicode="&#xa8;" horiz-adv-x="862" 
d="M120 1444q-40 39 -40 98q0 61 40 100t99 39t98 -38.5t39 -100.5q0 -57 -38.5 -97t-98.5 -40q-59 0 -99 39zM529 1445q-40 40 -40 97q0 61 40 100t100 39q59 0 98 -38.5t39 -100.5q0 -57 -39 -97t-98 -40q-60 0 -100 40z" />
    <glyph glyph-name="copyright" unicode="&#xa9;" horiz-adv-x="1351" 
d="M403.5 225.5q-122.5 69.5 -193.5 190.5t-71 268q0 150 71 270.5t193.5 190t274.5 69.5q150 0 271.5 -69.5t192 -191.5t70.5 -269t-70.5 -268t-192.5 -190.5t-271 -69.5q-152 0 -274.5 69.5zM884 334q91 53 143 145t52 205q0 115 -52 207t-143 145.5t-206 53.5
q-117 0 -209 -53.5t-144.5 -146.5t-52.5 -206t52.5 -205t145.5 -145t208 -53t206 53zM505.5 866.5q69.5 69.5 178.5 69.5q88 0 151.5 -49t77.5 -127h-129q-10 31 -36.5 49t-63.5 18q-53 0 -87 -39.5t-34 -103.5q0 -61 34 -99t87 -38q35 0 62.5 16.5t37.5 48.5h129
q-14 -78 -78.5 -127t-150.5 -49q-109 0 -178.5 68.5t-69.5 179.5q0 113 69.5 182.5z" />
    <glyph glyph-name="guillemotleft" unicode="&#xab;" horiz-adv-x="1169" 
d="M444 463l220 -391h-314l-221 391l221 387h314zM907 463l217 -391h-313l-219 391l219 387h313z" />
    <glyph glyph-name="logicalnot" unicode="&#xac;" horiz-adv-x="1212" 
d="M807 227v217h-705v304h1008v-521h-303z" />
    <glyph glyph-name="registered" unicode="&#xae;" horiz-adv-x="1112" 
d="M807 1279q111 -60 175.5 -171t64.5 -250q0 -141 -64.5 -251.5t-175.5 -171t-246 -60.5q-139 0 -252.5 60.5t-179.5 170t-66 252.5q0 141 66 251t179.5 170t252.5 60q135 0 246 -60zM747.5 531.5q83.5 46.5 132 131.5t48.5 193q0 109 -48.5 193t-132 131t-188.5 47
q-106 0 -191 -47t-133.5 -131t-48.5 -193t48.5 -192.5t133.5 -131t191 -47.5q105 0 188.5 46.5zM670 801l67 -146h-110l-58 129h-75v-129h-103v402h199q72 0 112.5 -37t40.5 -100q1 -86 -73 -119zM494 879h84q51 0 51 41q0 39 -51 38h-84v-79z" />
    <glyph glyph-name="macron" unicode="&#xaf;" horiz-adv-x="880" 
d="M743 1610v-191h-581v191h581z" />
    <glyph glyph-name="degree" unicode="&#xb0;" horiz-adv-x="632" 
d="M130 892q-75 75 -75 185q0 113 75 187.5t185 74.5q113 0 188 -74.5t75 -187.5q0 -111 -75 -185.5t-188 -74.5q-110 0 -185 75zM394 1001.5q32 30.5 32 75.5q0 47 -30.5 79t-80.5 32q-49 0 -78.5 -33t-29.5 -78t29.5 -75.5t78.5 -30.5q47 0 79 30.5z" />
    <glyph glyph-name="plusminus" unicode="&#xb1;" horiz-adv-x="925" 
d="M852 721v-221h-277v-168h-223v168h-278v221h278v166h223v-166h277zM74 221h778v-221h-778v221z" />
    <glyph glyph-name="uni00B2" unicode="&#xb2;" horiz-adv-x="813" 
d="M713.5 995.5q-23.5 -57.5 -79.5 -126t-183 -199.5h284v-199h-620v156l114 116q123 125 177.5 183.5t80 101.5t25.5 82q0 49 -28.5 72.5t-75.5 23.5q-55 0 -84 -34.5t-25 -86.5h-221q-6 96 37 170t122.5 114t180.5 40q143 0 231 -78t88 -205q0 -73 -23.5 -130.5z" />
    <glyph glyph-name="uni00B3" unicode="&#xb3;" horiz-adv-x="837" 
d="M701.5 945q66.5 -73 66.5 -181q0 -88 -45 -158.5t-126 -110.5t-181 -40q-152 0 -250 87t-96 234h219q0 -53 38 -86t93 -33q53 0 89 31t36 76q0 59 -47 94t-113 31h-51h-76v145l166 162h-305v193h598v-175l-180 -176q98 -20 164.5 -93z" />
    <glyph glyph-name="acute" unicode="&#xb4;" horiz-adv-x="692" 
d="M240 1493l327 350l138 -139l-383 -297z" />
    <glyph glyph-name="mu" unicode="&#xb5;" horiz-adv-x="1331" 
d="M1253 197v-197q-70 -20 -141 -20q-88 0 -152.5 33.5t-93.5 95.5q-33 -61 -101.5 -98.5t-146.5 -37.5q-80 0 -138 32t-83 85v-534h-282v1368h286v-486q0 -109 53.5 -163t143.5 -54q92 0 145.5 55.5t53.5 157.5v490h284v-592q0 -74 29 -106.5t86 -32.5q39 0 57 4z" />
    <glyph glyph-name="paragraph" unicode="&#xb6;" horiz-adv-x="1110" 
d="M1143 1198h-144v-1477h-86v1477h-176v-1472h-239v915h-142q-145 0 -231 94t-86 244q0 145 86 239.5t231 94.5h787v-115z" />
    <glyph glyph-name="periodcentered" unicode="&#xb7;" horiz-adv-x="737" 
d="M214 403.5q-67 65.5 -67 151.5q0 90 67 155.5t157 65.5q88 0 153.5 -66.5t65.5 -154.5q0 -86 -64.5 -151.5t-154.5 -65.5t-157 65.5z" />
    <glyph glyph-name="cedilla" unicode="&#xb8;" horiz-adv-x="604" 
d="M402.5 -141.5q48.5 -20.5 82 -67.5t33.5 -119q0 -104 -75.5 -161.5t-184.5 -57.5q-94 0 -174 45v144q20 -25 55 -38.5t72 -13.5q49 0 83 25t34 70q0 43 -34 71.5t-75 28.5l-18 -2l-51 63l114 226h117v-74l-70 -123q43 4 91.5 -16.5z" />
    <glyph glyph-name="uni00B9" unicode="&#xb9;" horiz-adv-x="628" 
d="M66 1239q102 0 165.5 41t79.5 109h185v-918h-228v608h-202v160z" />
    <glyph glyph-name="guillemotright" unicode="&#xbb;" horiz-adv-x="1169" 
d="M580 463l-220 -391h-315l221 391l-221 387h315zM1040 463l-217 -391h-315l219 391l-219 387h315z" />
    <glyph glyph-name="onequarter" unicode="&#xbc;" horiz-adv-x="1589" 
d="M1563 348v-180h-111v-168h-215v168h-381v162l330 524h266v-506h111zM1237 348v264l-166 -264h166zM246 0l915 1399l125 -80l-917 -1395zM39 1165q102 0 164 40q61 40 80 108h180v-854h-223v549h-201v157z" />
    <glyph glyph-name="onehalf" unicode="&#xbd;" horiz-adv-x="1632" 
d="M1566 484q-22 -52 -72 -111t-165 -178h256v-195h-584v154l121 120q147 147 196 206q48 58 48 110q0 41 -26 60t-64 20q-49 0 -74 -29t-20 -72h-217q-4 92 37 161q42 69 118 106t166 36q133 0 217 -73q84 -74 84 -191q1 -72 -21 -124zM246 0l915 1399l125 -80l-917 -1395z
M39 1165q102 0 164 40q61 40 80 108h180v-854h-223v549h-201v157z" />
    <glyph glyph-name="threequarters" unicode="&#xbe;" horiz-adv-x="1712" 
d="M1686 348v-180h-111v-168h-215v168h-381v162l330 524h266v-506h111zM1360 348v264l-166 -264h166zM369 0l915 1399l125 -80l-917 -1395zM634 897q60 -66 60 -166q0 -125 -93 -206t-239 -81q-147 0 -238 83t-87 218h217q0 -45 32 -74q32 -30 81 -30q47 0 75 28
q29 28 29 66q0 49 -44 80t-97 27q-2 0 -15 -2q-12 -2 -30 -2h-74v145l143 137h-270v193h561v-172l-162 -158q91 -20 151 -86z" />
    <glyph glyph-name="questiondown" unicode="&#xbf;" horiz-adv-x="1021" 
d="M415.5 1032q-53.5 49 -53.5 131q0 80 53.5 128t133.5 48q82 0 136 -48t54 -128q0 -82 -54 -131t-136 -49q-80 0 -133.5 49zM899 178q-53 -92 -155.5 -146.5t-241.5 -54.5q-123 0 -219.5 43t-151.5 120t-55 179q0 109 53 182.5t150 155.5q72 66 104.5 105t36.5 88v18h266
v-18q0 -100 -50 -170t-144 -152q-68 -57 -102 -100t-34 -92q0 -53 43 -88t111 -35q80 0 127 47t43 119h268q4 -109 -49 -201z" />
    <glyph glyph-name="Agrave" unicode="&#xc0;" horiz-adv-x="1298" 
d="M268 1683l135 140l330 -348l-84 -89zM506 1313h289l487 -1313h-317l-97 270h-442l-98 -270h-312zM782 520l-51 142q-18 55 -53 165l-27 82q-6 -27 -31.5 -99.5t-54.5 -147.5l-53 -142h270z" />
    <glyph glyph-name="Aacute" unicode="&#xc1;" horiz-adv-x="1298" 
d="M567 1475l328 350l137 -139l-383 -297zM506 1313h289l487 -1313h-317l-97 270h-442l-98 -270h-312zM782 520l-51 142q-18 55 -53 165l-27 82q-6 -27 -31.5 -99.5t-54.5 -147.5l-53 -142h270z" />
    <glyph glyph-name="Acircumflex" unicode="&#xc2;" horiz-adv-x="1298" 
d="M526 1765h246l221 -299l-133 -92l-211 225l-213 -225l-131 92zM506 1313h289l487 -1313h-317l-97 270h-442l-98 -270h-312zM782 520l-51 142q-18 55 -53 165l-27 82q-6 -27 -31.5 -99.5t-54.5 -147.5l-53 -142h270z" />
    <glyph glyph-name="Atilde" unicode="&#xc3;" horiz-adv-x="1298" 
d="M326 1464q0 102 50 164t132 62q41 0 77 -15.5t85 -44.5q25 -14 49 -26.5t43 -12.5q37 0 50 23.5t11 71.5h140q6 -37 6 -72q0 -96 -49.5 -154.5t-131.5 -58.5q-45 0 -82.5 15.5t-84.5 43.5q-25 14 -48.5 25.5t-40.5 11.5q-39 0 -52 -31.5t-9 -74.5h-139q-6 40 -6 73z
M506 1313h289l487 -1313h-317l-97 270h-442l-98 -270h-312zM782 520l-51 142q-18 55 -53 165l-27 82q-6 -27 -31.5 -99.5t-54.5 -147.5l-53 -142h270z" />
    <glyph glyph-name="Adieresis" unicode="&#xc4;" horiz-adv-x="1298" 
d="M345 1423q-40 39 -40 99q0 61 40 100t99 39t98.5 -39t39.5 -100q0 -57 -39 -97.5t-99 -40.5q-59 0 -99 39zM755 1424q-40 40 -40 98q0 61 40 100t99 39t98 -39t39 -100q0 -57 -39 -97.5t-98 -40.5t-99 40zM506 1313h289l487 -1313h-317l-97 270h-442l-98 -270h-312z
M782 520l-51 142q-18 55 -53 165l-27 82q-6 -27 -31.5 -99.5t-54.5 -147.5l-53 -142h270z" />
    <glyph glyph-name="Aring" unicode="&#xc5;" horiz-adv-x="1298" 
d="M501.5 1206q63.5 -37 149.5 -37q84 0 148.5 37t98.5 96.5t34 127.5t-35 128t-98.5 97t-147.5 37q-86 0 -149.5 -37t-97 -97.5t-33.5 -127.5q0 -68 33.5 -127.5t97 -96.5zM724 1357q-30 -32 -73 -32q-45 0 -74.5 30.5t-29.5 78.5q0 43 29.5 72.5t74.5 29.5q43 0 73 -30.5
t30 -71.5q0 -45 -30 -77zM506 1313h289l487 -1313h-317l-97 270h-442l-98 -270h-312zM782 520l-51 142q-18 55 -53 165l-27 82q-6 -27 -31.5 -99.5t-54.5 -147.5l-53 -142h270z" />
    <glyph glyph-name="AE" unicode="&#xc6;" horiz-adv-x="1802" 
d="M1108 1034v-233l526 -2v-269h-526v-247l592 -2v-281l-592 2v-2h-281v285h-354l-113 -285h-342l547 1298v15h1135v-281zM827 1034h-59l-195 -493h254v493z" />
    <glyph glyph-name="Ccedilla" unicode="&#xc7;" horiz-adv-x="1480" 
d="M830.5 -124.5q48.5 -20.5 82 -68t33.5 -118.5q0 -104 -75.5 -161.5t-184.5 -57.5q-94 0 -174 45v143q20 -25 55 -38t72 -13q49 0 83 24.5t34 69.5q0 43 -34 71.5t-75 28.5l-18 -2l-51 64l114 225h117v-74l-70 -123q43 5 91.5 -15.5zM399.5 58q157.5 -85 358.5 -85
q176 0 319.5 62.5t231.5 175.5t106 258h-332q-27 -98 -116.5 -158.5t-212.5 -60.5q-168 0 -270.5 108.5t-102.5 296.5q0 186 100.5 297t272.5 111q127 0 217 -59.5t112 -155.5h332q-20 150 -111.5 261.5t-233.5 171.5t-312 60q-205 0 -361.5 -85t-243.5 -240.5t-87 -356.5
q0 -205 88 -360.5t245.5 -240.5z" />
    <glyph glyph-name="Egrave" unicode="&#xc8;" horiz-adv-x="1112" 
d="M193 1683l135 140l329 -348l-84 -89zM440 1042v-249h506v-261h-506v-262h568v-270h-867v1313h867v-271h-568z" />
    <glyph glyph-name="Eacute" unicode="&#xc9;" horiz-adv-x="1112" 
d="M492 1475l327 350l137 -139l-383 -297zM440 1042v-249h506v-261h-506v-262h568v-270h-867v1313h867v-271h-568z" />
    <glyph glyph-name="Ecircumflex" unicode="&#xca;" horiz-adv-x="1112" 
d="M451 1765h245l222 -299l-134 -92l-211 225l-213 -225l-131 92zM440 1042v-249h506v-261h-506v-262h568v-270h-867v1313h867v-271h-568z" />
    <glyph glyph-name="Edieresis" unicode="&#xcb;" horiz-adv-x="1112" 
d="M269 1423q-40 39 -40 99q0 61 40 100t100 39q59 0 98 -39t39 -100q0 -57 -39 -97.5t-98 -40.5q-60 0 -100 39zM679 1424q-40 40 -40 98q0 61 40 100t99 39t98 -39t39 -100q0 -57 -38.5 -97.5t-98.5 -40.5q-59 0 -99 40zM440 1042v-249h506v-261h-506v-262h568v-270h-867
v1313h867v-271h-568z" />
    <glyph glyph-name="Igrave" unicode="&#xcc;" horiz-adv-x="563" 
d="M-90 1683l135 140l330 -348l-84 -89zM141 0v1313h299v-1313h-299z" />
    <glyph glyph-name="Iacute" unicode="&#xcd;" horiz-adv-x="563" 
d="M209 1475l328 350l137 -139l-383 -297zM141 0v1313h299v-1313h-299z" />
    <glyph glyph-name="Icircumflex" unicode="&#xce;" horiz-adv-x="563" 
d="M168 1765h246l221 -299l-133 -92l-211 225l-213 -225l-131 92zM141 0v1313h299v-1313h-299z" />
    <glyph glyph-name="Idieresis" unicode="&#xcf;" horiz-adv-x="563" 
d="M-13 1423q-40 39 -40 99q0 61 40 100t99 39t98 -39t39 -100q0 -57 -39 -97.5t-98 -40.5t-99 39zM396 1424q-40 40 -40 98q0 61 40 100t100 39q59 0 98 -39t39 -100q0 -57 -39 -97.5t-98 -40.5q-60 0 -100 40zM141 0v1313h299v-1313h-299z" />
    <glyph glyph-name="Eth" unicode="&#xd0;" horiz-adv-x="1476" 
d="M1020.5 1228q150.5 -85 235.5 -235.5t85 -341.5q0 -188 -83.5 -336.5t-234.5 -231.5t-343 -83h-535v555h-118v205h118v553h535q190 0 340.5 -85zM924.5 375.5q101.5 105.5 101.5 275.5q0 176 -101.5 283.5t-273.5 107.5h-207v-282h181v-205h-181v-285h207
q172 0 273.5 105.5z" />
    <glyph glyph-name="Ntilde" unicode="&#xd1;" horiz-adv-x="1392" 
d="M383 1501q0 102 50 163.5t132 61.5q41 0 77 -15t85 -44q25 -14 49.5 -26.5t42.5 -12.5q37 0 50.5 23.5t11.5 70.5h139q6 -37 6 -71q0 -96 -49 -154.5t-131 -58.5q-45 0 -83 15t-85 44q-25 14 -48.5 25.5t-39.5 11.5q-39 0 -52.5 -32t-9.5 -75h-139q-6 41 -6 74z
M1253 1313v-1313h-278l-539 795v-795h-295v1313h279l536 -797v797h297z" />
    <glyph glyph-name="Ograve" unicode="&#xd2;" horiz-adv-x="1544" 
d="M391 1712l135 139l330 -348l-84 -88zM1387.5 301q-91.5 -156 -252 -242t-365.5 -86q-203 0 -363.5 86t-250.5 241t-90 355q0 201 90 356.5t250.5 242.5t365.5 87q203 0 363.5 -86t252 -241.5t91.5 -356.5q0 -200 -91.5 -356zM1112 868.5q-49 92.5 -137 143.5t-201 51
q-115 0 -204 -51t-139 -143.5t-50 -213.5q0 -119 49 -211t138 -142t204 -50q113 0 202 51t138 143.5t49 210.5q0 119 -49 211.5z" />
    <glyph glyph-name="Oacute" unicode="&#xd3;" horiz-adv-x="1544" 
d="M690 1503l328 350l137 -139l-383 -297zM1387.5 301q-91.5 -156 -252 -242t-365.5 -86q-203 0 -363.5 86t-250.5 241t-90 355q0 201 90 356.5t250.5 242.5t365.5 87q203 0 363.5 -86t252 -241.5t91.5 -356.5q0 -200 -91.5 -356zM1112 868.5q-49 92.5 -137 143.5t-201 51
q-115 0 -204 -51t-139 -143.5t-50 -213.5q0 -119 49 -211t138 -142t204 -50q113 0 202 51t138 143.5t49 210.5q0 119 -49 211.5z" />
    <glyph glyph-name="Ocircumflex" unicode="&#xd4;" horiz-adv-x="1544" 
d="M649 1794h246l221 -299l-133 -92l-211 225l-213 -225l-131 92zM1387.5 301q-91.5 -156 -252 -242t-365.5 -86q-203 0 -363.5 86t-250.5 241t-90 355q0 201 90 356.5t250.5 242.5t365.5 87q203 0 363.5 -86t252 -241.5t91.5 -356.5q0 -200 -91.5 -356zM1112 868.5
q-49 92.5 -137 143.5t-201 51q-115 0 -204 -51t-139 -143.5t-50 -213.5q0 -119 49 -211t138 -142t204 -50q113 0 202 51t138 143.5t49 210.5q0 119 -49 211.5z" />
    <glyph glyph-name="Otilde" unicode="&#xd5;" horiz-adv-x="1544" 
d="M449 1493q0 102 50 163.5t132 61.5q41 0 76.5 -15t85.5 -44q25 -14 49 -26.5t43 -12.5q37 0 50 23.5t11 70.5h139q6 -37 7 -72q0 -96 -49.5 -154t-131.5 -58q-45 0 -82.5 15t-85.5 44q-25 14 -48 25.5t-40 11.5q-39 0 -52 -32t-9 -75h-139q-6 41 -6 74zM1387.5 301
q-91.5 -156 -252 -242t-365.5 -86q-203 0 -363.5 86t-250.5 241t-90 355q0 201 90 356.5t250.5 242.5t365.5 87q203 0 363.5 -86t252 -241.5t91.5 -356.5q0 -200 -91.5 -356zM1112 868.5q-49 92.5 -137 143.5t-201 51q-115 0 -204 -51t-139 -143.5t-50 -213.5
q0 -119 49 -211t138 -142t204 -50q113 0 202 51t138 143.5t49 210.5q0 119 -49 211.5z" />
    <glyph glyph-name="Odieresis" unicode="&#xd6;" horiz-adv-x="1544" 
d="M468 1452q-40 39 -40 98q0 61 40 100.5t99 39.5t98.5 -39t39.5 -101q0 -57 -39 -97t-99 -40q-59 0 -99 39zM878 1453q-40 40 -40 97q0 61 40 100.5t99 39.5t98 -39t39 -101q0 -57 -39 -97t-98 -40t-99 40zM1387.5 301q-91.5 -156 -252 -242t-365.5 -86q-203 0 -363.5 86
t-250.5 241t-90 355q0 201 90 356.5t250.5 242.5t365.5 87q203 0 363.5 -86t252 -241.5t91.5 -356.5q0 -200 -91.5 -356zM1112 868.5q-49 92.5 -137 143.5t-201 51q-115 0 -204 -51t-139 -143.5t-50 -213.5q0 -119 49 -211t138 -142t204 -50q113 0 202 51t138 143.5
t49 210.5q0 119 -49 211.5z" />
    <glyph glyph-name="multiply" unicode="&#xd7;" horiz-adv-x="1118" 
d="M403 623l-231 231l152 154l231 -234l233 234l154 -154l-233 -231l233 -234l-154 -151l-231 231l-233 -233l-154 153z" />
    <glyph glyph-name="Oslash" unicode="&#xd8;" horiz-adv-x="1544" 
d="M1135.5 1257q160.5 -86 252 -241.5t91.5 -356.5t-91.5 -356.5t-252 -241.5t-365.5 -86q-203 0 -363.5 86t-250.5 241t-90 355q0 201 90 356.5t250.5 242.5t365.5 87q203 0 363.5 -86zM570 1014q-89 -51 -139 -143.5t-50 -213.5q0 -152 80 -260l407 658q-47 10 -94 10
q-115 0 -204 -51zM974 305q89 51 138 143.5t49 210.5q0 162 -88 273l-405 -666q49 -12 104 -12q113 0 202 51z" />
    <glyph glyph-name="Ugrave" unicode="&#xd9;" horiz-adv-x="1409" 
d="M324 1683l135 140l329 -348l-83 -89zM131 1313h299v-811q2 -131 76 -195.5t196 -64.5q133 0 205 68.5t72 191.5v811h299v-824q0 -246 -156.5 -381t-419.5 -135q-264 0 -417.5 138.5t-153.5 377.5v824z" />
    <glyph glyph-name="Uacute" unicode="&#xda;" horiz-adv-x="1409" 
d="M623 1475l327 350l137 -139l-382 -297zM131 1313h299v-811q2 -131 76 -195.5t196 -64.5q133 0 205 68.5t72 191.5v811h299v-824q0 -246 -156.5 -381t-419.5 -135q-264 0 -417.5 138.5t-153.5 377.5v824z" />
    <glyph glyph-name="Ucircumflex" unicode="&#xdb;" horiz-adv-x="1409" 
d="M582 1765h245l222 -299l-134 -92l-210 225l-213 -225l-132 92zM131 1313h299v-811q2 -131 76 -195.5t196 -64.5q133 0 205 68.5t72 191.5v811h299v-824q0 -246 -156.5 -381t-419.5 -135q-264 0 -417.5 138.5t-153.5 377.5v824z" />
    <glyph glyph-name="Udieresis" unicode="&#xdc;" horiz-adv-x="1409" 
d="M400 1423q-40 39 -40 99q0 61 40 100t100 39q59 0 98 -39t39 -100q0 -57 -39 -97.5t-98 -40.5q-60 0 -100 39zM810 1424q-40 40 -40 98q0 61 40 100t99 39t98.5 -39t39.5 -100q0 -57 -39 -97.5t-99 -40.5q-59 0 -99 40zM131 1313h299v-811q2 -131 76 -195.5t196 -64.5
q133 0 205 68.5t72 191.5v811h299v-824q0 -246 -156.5 -381t-419.5 -135q-264 0 -417.5 138.5t-153.5 377.5v824z" />
    <glyph glyph-name="Yacute" unicode="&#xdd;" horiz-adv-x="1284" 
d="M567 1475l328 350l137 -139l-383 -297zM365 1313l131 -228q57 -100 99 -181t52 -101q10 23 52 103.5t100 178.5l133 228h336l-475 -801v-512h-301v512l-474 801h347z" />
    <glyph glyph-name="Thorn" unicode="&#xde;" horiz-adv-x="1206" 
d="M1036 983q123 -123 123 -334q0 -135 -55 -239.5t-160.5 -162t-251.5 -57.5h-252v-190h-299v1313h299v-207h258q215 0 338 -123zM793.5 509q50.5 60 50.5 146q0 74 -50.5 130.5t-154.5 56.5h-199v-393h197q106 0 156.5 60z" />
    <glyph glyph-name="germandbls" unicode="&#xdf;" horiz-adv-x="1146" 
d="M1005.5 659.5q75.5 -106.5 75.5 -253.5q0 -125 -56 -220.5t-157.5 -148.5t-234.5 -53q-102 0 -154 18v246q37 -12 88 -12q104 0 164 56t60 152q0 102 -66 161t-180 59h-27v239h27q70 0 110.5 41t40.5 107q0 63 -40 102t-107 39q-70 0 -111 -46t-41 -122v-1026h-286v1001
q0 203 122.5 320t327.5 117q193 0 310.5 -98.5t117.5 -260.5q0 -106 -53 -184t-143 -100q137 -27 212.5 -133.5z" />
    <glyph glyph-name="agrave" unicode="&#xe0;" horiz-adv-x="1198" 
d="M143 1327l136 139l329 -348l-84 -88zM1090 924v-924h-275v106q-47 -61 -131 -97t-182 -36q-129 0 -228.5 60.5t-153.5 169t-54 252.5q0 150 58 263t163.5 175.5t240.5 62.5q199 0 303 -122l19 90h240zM740.5 295.5q62.5 64.5 62.5 171.5q0 104 -62.5 167.5t-162.5 63.5
t-160 -64.5t-60 -168.5t60.5 -169t159.5 -65q100 0 162.5 64.5z" />
    <glyph glyph-name="aacute" unicode="&#xe1;" horiz-adv-x="1198" 
d="M442 1118l328 348l137 -139l-383 -297zM1090 924v-924h-275v106q-47 -61 -131 -97t-182 -36q-129 0 -228.5 60.5t-153.5 169t-54 252.5q0 150 58 263t163.5 175.5t240.5 62.5q199 0 303 -122l19 90h240zM740.5 295.5q62.5 64.5 62.5 171.5q0 104 -62.5 167.5t-162.5 63.5
t-160 -64.5t-60 -168.5t60.5 -169t159.5 -65q100 0 162.5 64.5z" />
    <glyph glyph-name="acircumflex" unicode="&#xe2;" horiz-adv-x="1198" 
d="M401 1409h244l221 -299l-131 -92l-211 225l-213 -225l-131 92zM1090 924v-924h-275v106q-47 -61 -131 -97t-182 -36q-129 0 -228.5 60.5t-153.5 169t-54 252.5q0 150 58 263t163.5 175.5t240.5 62.5q199 0 303 -122l19 90h240zM740.5 295.5q62.5 64.5 62.5 171.5
q0 104 -62.5 167.5t-162.5 63.5t-160 -64.5t-60 -168.5t60.5 -169t159.5 -65q100 0 162.5 64.5z" />
    <glyph glyph-name="atilde" unicode="&#xe3;" horiz-adv-x="1198" 
d="M201 1108q0 102 50 163.5t132 61.5q41 0 77 -15t85 -44q25 -14 49 -26.5t43 -12.5q37 0 50 23.5t11 70.5h140q6 -37 6 -72q0 -96 -49.5 -154.5t-130.5 -58.5q-45 0 -83 15.5t-85 44.5q-25 14 -48.5 25.5t-39.5 11.5q-39 0 -52.5 -32t-9.5 -75h-139q-6 41 -6 74zM1090 924
v-924h-275v106q-47 -61 -131 -97t-182 -36q-129 0 -228.5 60.5t-153.5 169t-54 252.5q0 150 58 263t163.5 175.5t240.5 62.5q199 0 303 -122l19 90h240zM740.5 295.5q62.5 64.5 62.5 171.5q0 104 -62.5 167.5t-162.5 63.5t-160 -64.5t-60 -168.5t60.5 -169t159.5 -65
q100 0 162.5 64.5z" />
    <glyph glyph-name="adieresis" unicode="&#xe4;" horiz-adv-x="1198" 
d="M220 1070q-40 40 -40 99q0 61 39 99.5t100 38.5q59 0 98.5 -38t39.5 -100q0 -59 -39 -99t-99 -40q-59 0 -99 40zM630 1070q-40 40 -40 99q0 61 40 99.5t99 38.5t98 -38t39 -100q0 -59 -39 -99t-98 -40t-99 40zM1090 924v-924h-275v106q-47 -61 -131 -97t-182 -36
q-129 0 -228.5 60.5t-153.5 169t-54 252.5q0 150 58 263t163.5 175.5t240.5 62.5q199 0 303 -122l19 90h240zM740.5 295.5q62.5 64.5 62.5 171.5q0 104 -62.5 167.5t-162.5 63.5t-160 -64.5t-60 -168.5t60.5 -169t159.5 -65q100 0 162.5 64.5z" />
    <glyph glyph-name="aring" unicode="&#xe5;" horiz-adv-x="1198" 
d="M374.5 1042.5q-63.5 36.5 -97 96t-33.5 127.5t33.5 128t97 97t149.5 37q84 0 147.5 -37t98.5 -97.5t35 -127.5q0 -68 -34 -127.5t-98.5 -96t-148.5 -36.5q-86 0 -149.5 36.5zM597 1193q30 32 30 77q0 41 -30 71.5t-73 30.5q-45 0 -74.5 -29.5t-29.5 -72.5q0 -47 29.5 -78
t74.5 -31q43 0 73 32zM1090 924v-924h-275v106q-47 -61 -131 -97t-182 -36q-129 0 -228.5 60.5t-153.5 169t-54 252.5q0 150 58 263t163.5 175.5t240.5 62.5q199 0 303 -122l19 90h240zM740.5 295.5q62.5 64.5 62.5 171.5q0 104 -62.5 167.5t-162.5 63.5t-160 -64.5
t-60 -168.5t60.5 -169t159.5 -65q100 0 162.5 64.5z" />
    <glyph glyph-name="ae" unicode="&#xe6;" horiz-adv-x="1681" 
d="M1620 295q-37 -145 -163 -233.5t-302 -88.5q-125 0 -222 43t-151 117q-49 -76 -140 -118t-210 -42q-168 0 -266 81t-98 218q0 135 99 216t279 81h203v29q0 68 -42 104.5t-115 36.5q-72 0 -116 -31.5t-48 -84.5h-238q4 150 121 241.5t299 91.5q205 0 309 -122
q131 121 328 120q137 0 242.5 -57t164 -157.5t58.5 -227.5q0 -43 -5 -80t-8 -47h-651q2 -76 58.5 -126t150.5 -50q68 0 117 22.5t69 63.5h277zM1003.5 679q-49.5 -42 -53.5 -110h371q-2 70 -54.5 111t-129.5 41q-84 0 -133.5 -42zM651 389h-135q-86 0 -122 -31.5t-36 -76.5
q0 -47 34 -73t91 -26q78 0 123 44t45 118v45z" />
    <glyph glyph-name="ccedilla" unicode="&#xe7;" horiz-adv-x="1107" 
d="M671 -120.5q48 -20.5 81.5 -68t33.5 -118.5q0 -104 -75.5 -161.5t-184.5 -57.5q-94 0 -174 45v143q20 -25 55 -38t72 -13q49 0 83 24.5t34 69.5q0 43 -34 71.5t-75 28.5l-18 -2l-51 64l114 225h117v-74l-69 -122q43 4 91 -16.5zM128 722q-62 -112 -62 -259
q0 -145 62 -256t176 -172.5t261 -61.5q131 0 235.5 49.5t167 138.5t72.5 204h-290q-12 -61 -63.5 -100.5t-125.5 -39.5q-94 0 -149.5 64.5t-55.5 173.5q0 111 56.5 175t148.5 64q70 0 121 -35.5t68 -105.5h290q-8 117 -70.5 207t-167 139t-237.5 49q-147 0 -261 -61
t-176 -173z" />
    <glyph glyph-name="egrave" unicode="&#xe8;" horiz-adv-x="1069" 
d="M168 1327l135 139l330 -348l-84 -88zM861 62.5q-128 -89.5 -306 -89.5q-145 0 -256 61.5t-172 173t-61 257.5q0 147 61 259t172 172t250 60q137 0 243.5 -57t165 -158.5t58.5 -230.5q0 -72 -12 -125h-656q4 -82 60.5 -131t146.5 -49q68 0 117 25.5t67 66.5h279
q-29 -145 -157 -234.5zM723 571q-2 70 -53.5 111t-130.5 41q-80 0 -131.5 -41t-55.5 -111h371z" />
    <glyph glyph-name="eacute" unicode="&#xe9;" horiz-adv-x="1069" 
d="M467 1118l328 350l137 -139l-383 -297zM861 62.5q-128 -89.5 -306 -89.5q-145 0 -256 61.5t-172 173t-61 257.5q0 147 61 259t172 172t250 60q137 0 243.5 -57t165 -158.5t58.5 -230.5q0 -72 -12 -125h-656q4 -82 60.5 -131t146.5 -49q68 0 117 25.5t67 66.5h279
q-29 -145 -157 -234.5zM723 571q-2 70 -53.5 111t-130.5 41q-80 0 -131.5 -41t-55.5 -111h371z" />
    <glyph glyph-name="ecircumflex" unicode="&#xea;" horiz-adv-x="1069" 
d="M426 1409h246l221 -299l-133 -92l-211 225l-213 -225l-131 92zM861 62.5q-128 -89.5 -306 -89.5q-145 0 -256 61.5t-172 173t-61 257.5q0 147 61 259t172 172t250 60q137 0 243.5 -57t165 -158.5t58.5 -230.5q0 -72 -12 -125h-656q4 -82 60.5 -131t146.5 -49
q68 0 117 25.5t67 66.5h279q-29 -145 -157 -234.5zM723 571q-2 70 -53.5 111t-130.5 41q-80 0 -131.5 -41t-55.5 -111h371z" />
    <glyph glyph-name="edieresis" unicode="&#xeb;" horiz-adv-x="1069" 
d="M245 1070q-40 40 -40 99q0 61 39 99.5t100 38.5q59 0 98 -38t39 -100q0 -59 -39 -99t-98 -40t-99 40zM654 1070q-40 40 -40 99q0 61 40 99.5t100 38.5q59 0 98 -38t39 -100q0 -59 -39 -99t-98 -40q-60 0 -100 40zM861 62.5q-128 -89.5 -306 -89.5q-145 0 -256 61.5
t-172 173t-61 257.5q0 147 61 259t172 172t250 60q137 0 243.5 -57t165 -158.5t58.5 -230.5q0 -72 -12 -125h-656q4 -82 60.5 -131t146.5 -49q68 0 117 25.5t67 66.5h279q-29 -145 -157 -234.5zM723 571q-2 70 -53.5 111t-130.5 41q-80 0 -131.5 -41t-55.5 -111h371z" />
    <glyph glyph-name="igrave" unicode="&#xec;" horiz-adv-x="507" 
d="M-127 1350l135 139l330 -348l-84 -88zM397 924v-924h-286v924h286z" />
    <glyph glyph-name="iacute" unicode="&#xed;" horiz-adv-x="507" 
d="M172 1141l328 350l137 -139l-383 -297zM397 924v-924h-286v924h286z" />
    <glyph glyph-name="icircumflex" unicode="&#xee;" horiz-adv-x="507" 
d="M131 1432h246l221 -299l-133 -93l-211 226l-213 -226l-131 93zM397 924v-924h-286v924h286z" />
    <glyph glyph-name="idieresis" unicode="&#xef;" horiz-adv-x="507" 
d="M-50 1089.5q-40 38.5 -40 98.5q0 61 40 100t99 39t98 -39t39 -100q0 -57 -38.5 -97t-98.5 -40q-59 0 -99 38.5zM359 1090.5q-40 39.5 -40 97.5q0 61 40 100t100 39q59 0 98 -39t39 -100q0 -57 -39 -97t-98 -40q-60 0 -100 39.5zM397 924v-924h-286v924h286z" />
    <glyph glyph-name="eth" unicode="&#xf0;" horiz-adv-x="1112" 
d="M990.5 716.5q56.5 -106.5 56.5 -255.5q0 -145 -62.5 -256t-176.5 -171.5t-261 -60.5q-145 0 -255 58.5t-168 161t-58 231.5q0 139 62 241.5t167.5 154.5t234.5 46l-104 119l-207 -96l-80 168l162 76l-156 180h359l53 -62l182 84l76 -168l-131 -61l160 -182
q90 -101 146.5 -207.5zM703.5 289.5q56.5 64.5 56.5 169.5q0 104 -55.5 167.5t-147.5 63.5t-148.5 -63.5t-56.5 -167.5t56.5 -169t148.5 -65q90 0 146.5 64.5z" />
    <glyph glyph-name="ntilde" unicode="&#xf1;" horiz-adv-x="1103" 
d="M227 1108q0 102 50.5 163.5t132.5 61.5q41 0 76.5 -15t84.5 -44q25 -14 49.5 -26.5t43.5 -12.5q37 0 50 23.5t11 70.5h139q6 -37 6 -72q0 -96 -49 -154.5t-131 -58.5q-45 0 -83 15.5t-85 44.5q-25 14 -48 25.5t-40 11.5q-39 0 -52 -32t-9 -75h-140q-6 41 -6 74z
M911.5 852q92.5 -104 92.5 -279v-573h-287v506q0 190 -156 190q-82 0 -124 -48t-42 -134v-514h-284v924h237l19 -101q43 61 119.5 97t166.5 36q166 0 258.5 -104z" />
    <glyph glyph-name="ograve" unicode="&#xf2;" horiz-adv-x="1157" 
d="M199 1327l135 139l330 -348l-84 -88zM130.5 718.5q64.5 112.5 181 175t268.5 62.5t267.5 -62.5t180 -175t64.5 -255.5q0 -141 -64.5 -253t-181.5 -174.5t-266 -62.5q-152 0 -268.5 62.5t-181 174.5t-64.5 253q0 143 64.5 255.5zM419.5 293.5q61.5 -66.5 160.5 -66.5
q98 0 159.5 66.5t61.5 171.5q0 104 -60.5 169.5t-160.5 65.5t-161 -65.5t-61 -169.5q0 -105 61.5 -171.5z" />
    <glyph glyph-name="oacute" unicode="&#xf3;" horiz-adv-x="1157" 
d="M498 1118l327 350l138 -139l-383 -297zM130.5 718.5q64.5 112.5 181 175t268.5 62.5t267.5 -62.5t180 -175t64.5 -255.5q0 -141 -64.5 -253t-181.5 -174.5t-266 -62.5q-152 0 -268.5 62.5t-181 174.5t-64.5 253q0 143 64.5 255.5zM419.5 293.5q61.5 -66.5 160.5 -66.5
q98 0 159.5 66.5t61.5 171.5q0 104 -60.5 169.5t-160.5 65.5t-161 -65.5t-61 -169.5q0 -105 61.5 -171.5z" />
    <glyph glyph-name="ocircumflex" unicode="&#xf4;" horiz-adv-x="1157" 
d="M457 1409h245l222 -299l-133 -92l-211 225l-213 -225l-131 92zM130.5 718.5q64.5 112.5 181 175t268.5 62.5t267.5 -62.5t180 -175t64.5 -255.5q0 -141 -64.5 -253t-181.5 -174.5t-266 -62.5q-152 0 -268.5 62.5t-181 174.5t-64.5 253q0 143 64.5 255.5zM419.5 293.5
q61.5 -66.5 160.5 -66.5q98 0 159.5 66.5t61.5 171.5q0 104 -60.5 169.5t-160.5 65.5t-161 -65.5t-61 -169.5q0 -105 61.5 -171.5z" />
    <glyph glyph-name="otilde" unicode="&#xf5;" horiz-adv-x="1157" 
d="M256 1108q0 102 50 163.5t132 61.5q41 0 77 -15t85 -44q25 -14 49.5 -26.5t42.5 -12.5q37 0 50.5 23.5t11.5 70.5h139q6 -37 6 -72q0 -96 -49 -154.5t-131 -58.5q-45 0 -83 15.5t-85 44.5q-25 14 -48.5 25.5t-39.5 11.5q-39 0 -52.5 -32t-9.5 -75h-139q-6 41 -6 74z
M130.5 718.5q64.5 112.5 181 175t268.5 62.5t267.5 -62.5t180 -175t64.5 -255.5q0 -141 -64.5 -253t-181.5 -174.5t-266 -62.5q-152 0 -268.5 62.5t-181 174.5t-64.5 253q0 143 64.5 255.5zM419.5 293.5q61.5 -66.5 160.5 -66.5q98 0 159.5 66.5t61.5 171.5
q0 104 -60.5 169.5t-160.5 65.5t-161 -65.5t-61 -169.5q0 -105 61.5 -171.5z" />
    <glyph glyph-name="odieresis" unicode="&#xf6;" horiz-adv-x="1157" 
d="M275.5 1067q-39.5 39 -39.5 98q0 61 39.5 100.5t99.5 39.5q59 0 98 -39t39 -101q0 -57 -39 -97t-98 -40q-60 0 -99.5 39zM685 1068q-40 40 -40 97q0 61 40 100.5t99 39.5t98.5 -39t39.5 -101q0 -57 -39 -97t-99 -40q-59 0 -99 40zM130.5 718.5q64.5 112.5 181 175
t268.5 62.5t267.5 -62.5t180 -175t64.5 -255.5q0 -141 -64.5 -253t-181.5 -174.5t-266 -62.5q-152 0 -268.5 62.5t-181 174.5t-64.5 253q0 143 64.5 255.5zM419.5 293.5q61.5 -66.5 160.5 -66.5q98 0 159.5 66.5t61.5 171.5q0 104 -60.5 169.5t-160.5 65.5t-161 -65.5
t-61 -169.5q0 -105 61.5 -171.5z" />
    <glyph glyph-name="divide" unicode="&#xf7;" horiz-adv-x="1019" 
d="M402.5 865q-46.5 44 -46.5 106q0 61 46.5 106t109.5 45q59 0 105.5 -45t46.5 -106t-46.5 -105.5t-105.5 -44.5q-63 0 -109.5 44zM872 715v-219h-725v219h725zM402.5 133q-46.5 45 -46.5 105q0 63 46.5 107t109.5 44q59 0 105.5 -45t46.5 -106q0 -59 -46.5 -104.5
t-105.5 -45.5q-63 0 -109.5 45z" />
    <glyph glyph-name="oslash" unicode="&#xf8;" horiz-adv-x="1157" 
d="M178 -10l654 1040l152 -93l-655 -1040zM130.5 718.5q64.5 112.5 181 175t268.5 62.5t267.5 -62.5t180 -175t64.5 -255.5q0 -141 -64.5 -253t-181.5 -174.5t-266 -62.5q-152 0 -268.5 62.5t-181 174.5t-64.5 253q0 143 64.5 255.5zM419.5 293.5q61.5 -66.5 160.5 -66.5
q98 0 159.5 66.5t61.5 171.5q0 104 -60.5 169.5t-160.5 65.5t-161 -65.5t-61 -169.5q0 -105 61.5 -171.5z" />
    <glyph glyph-name="ugrave" unicode="&#xf9;" horiz-adv-x="1085" 
d="M162 1294l135 140l330 -349l-84 -88zM985 924v-924h-237l-19 104q-49 -66 -121.5 -98.5t-161.5 -32.5q-166 0 -256 98.5t-90 268.5v584h287v-541q0 -86 40 -124t116 -38q74 0 114.5 46t40.5 124v533h287z" />
    <glyph glyph-name="uacute" unicode="&#xfa;" horiz-adv-x="1085" 
d="M461 1085l327 351l138 -140l-383 -297zM985 924v-924h-237l-19 104q-49 -66 -121.5 -98.5t-161.5 -32.5q-166 0 -256 98.5t-90 268.5v584h287v-541q0 -86 40 -124t116 -38q74 0 114.5 46t40.5 124v533h287z" />
    <glyph glyph-name="ucircumflex" unicode="&#xfb;" horiz-adv-x="1085" 
d="M420 1376h246l221 -299l-133 -92l-211 225l-213 -225l-131 92zM985 924v-924h-237l-19 104q-49 -66 -121.5 -98.5t-161.5 -32.5q-166 0 -256 98.5t-90 268.5v584h287v-541q0 -86 40 -124t116 -38q74 0 114.5 46t40.5 124v533h287z" />
    <glyph glyph-name="udieresis" unicode="&#xfc;" horiz-adv-x="1085" 
d="M239 1034q-40 39 -40 99q0 61 40 100t99 39t98 -39t39 -100q0 -57 -39 -97.5t-98 -40.5t-99 39zM648 1035q-40 40 -40 98q0 61 40 100t100 39q59 0 98 -39t39 -100q0 -57 -39 -97.5t-98 -40.5q-60 0 -100 40zM985 924v-924h-237l-19 104q-49 -66 -121.5 -98.5
t-161.5 -32.5q-166 0 -256 98.5t-90 268.5v584h287v-541q0 -86 40 -124t116 -38q74 0 114.5 46t40.5 124v533h287z" />
    <glyph glyph-name="yacute" unicode="&#xfd;" horiz-adv-x="1101" 
d="M473 1085l328 351l137 -140l-383 -297zM1081 924l-428 -1074q-35 -84 -76.5 -146t-123.5 -109.5t-207 -47.5q-84 0 -189 23l4 233q76 -14 134 -14q70 0 110.5 19.5t60 48t35.5 73.5l17 41l-395 953h309l217 -605l229 605h303z" />
    <glyph glyph-name="thorn" unicode="&#xfe;" horiz-adv-x="1224" 
d="M938 894q111 -60 171 -171t60 -256t-60 -256t-172 -172.5t-261 -61.5q-166 0 -270 76v-497h-281v1849h274v-535q55 39 130 61.5t155 22.5q143 0 254 -60zM816.5 294.5q66.5 65.5 66.5 168.5q0 102 -66.5 166.5t-173.5 64.5q-102 0 -167.5 -64.5t-65.5 -166.5
q0 -104 65.5 -169t167.5 -65q107 0 173.5 65.5z" />
    <glyph glyph-name="ydieresis" unicode="&#xff;" horiz-adv-x="1101" 
d="M251 1034q-40 39 -40 99q0 61 40 100t99 39t98 -39t39 -100q0 -57 -38.5 -97.5t-98.5 -40.5q-59 0 -99 39zM660.5 1035q-39.5 40 -39.5 98q0 61 39.5 100t99.5 39q59 0 98 -39t39 -100q0 -57 -39 -97.5t-98 -40.5q-60 0 -99.5 40zM1081 924l-428 -1074
q-35 -84 -76.5 -146t-123.5 -109.5t-207 -47.5q-84 0 -189 23l4 233q76 -14 134 -14q70 0 110.5 19.5t60 48t35.5 73.5l17 41l-395 953h309l217 -605l229 605h303z" />
    <glyph glyph-name="Amacron" unicode="&#x100;" horiz-adv-x="1298" 
d="M942 1591v-190h-582v190h582zM506 1313h289l487 -1313h-317l-97 270h-442l-98 -270h-312zM782 520l-51 142q-18 55 -53 165l-27 82q-6 -27 -31.5 -99.5t-54.5 -147.5l-53 -142h270z" />
    <glyph glyph-name="amacron" unicode="&#x101;" horiz-adv-x="1198" 
d="M817 1235v-191h-581v191h581zM1090 924v-924h-275v106q-47 -61 -131 -97t-182 -36q-129 0 -228.5 60.5t-153.5 169t-54 252.5q0 150 58 263t163.5 175.5t240.5 62.5q199 0 303 -122l19 90h240zM740.5 295.5q62.5 64.5 62.5 171.5q0 104 -62.5 167.5t-162.5 63.5
t-160 -64.5t-60 -168.5t60.5 -169t159.5 -65q100 0 162.5 64.5z" />
    <glyph glyph-name="Abreve" unicode="&#x102;" horiz-adv-x="1298" 
d="M897 1475q-100 -86 -248 -86q-156 0 -253 89t-105 236h196q2 -66 47.5 -102.5t114.5 -36.5q72 0 113 37t45 102h199q-9 -153 -109 -239zM506 1313h289l487 -1313h-317l-97 270h-442l-98 -270h-312zM782 520l-51 142q-18 55 -53 165l-27 82q-6 -27 -31.5 -99.5
t-54.5 -147.5l-53 -142h270z" />
    <glyph glyph-name="abreve" unicode="&#x103;" horiz-adv-x="1198" 
d="M772 1118q-100 -86 -248 -86q-156 0 -253 89t-105 237h196q2 -66 47.5 -102.5t114.5 -36.5q72 0 113 36.5t45 102.5h199q-9 -154 -109 -240zM1090 924v-924h-275v106q-47 -61 -131 -97t-182 -36q-129 0 -228.5 60.5t-153.5 169t-54 252.5q0 150 58 263t163.5 175.5
t240.5 62.5q199 0 303 -122l19 90h240zM740.5 295.5q62.5 64.5 62.5 171.5q0 104 -62.5 167.5t-162.5 63.5t-160 -64.5t-60 -168.5t60.5 -169t159.5 -65q100 0 162.5 64.5z" />
    <glyph glyph-name="Aogonek" unicode="&#x104;" horiz-adv-x="1298" 
d="M1280 0q-57 -37 -85 -76t-28 -74q0 -31 21.5 -49t58.5 -18q29 0 66 12v-143q-63 -20 -125 -21q-92 0 -145.5 48.5t-53.5 117.5q0 53 34 107.5t99 95.5h158zM506 1313h289l487 -1313h-317l-97 270h-442l-98 -270h-312zM782 520l-51 142q-18 55 -53 165l-27 82
q-6 -27 -31.5 -99.5t-54.5 -147.5l-53 -142h270z" />
    <glyph glyph-name="aogonek" unicode="&#x105;" horiz-adv-x="1198" 
d="M1087 0q-57 -37 -84.5 -76t-27.5 -74q0 -31 21.5 -49t58.5 -18q29 0 65 12v-143q-63 -20 -125 -21q-92 0 -145 48.5t-53 117.5q0 53 33.5 107.5t99.5 95.5h157zM1090 924v-924h-275v106q-47 -61 -131 -97t-182 -36q-129 0 -228.5 60.5t-153.5 169t-54 252.5q0 150 58 263
t163.5 175.5t240.5 62.5q199 0 303 -122l19 90h240zM740.5 295.5q62.5 64.5 62.5 171.5q0 104 -62.5 167.5t-162.5 63.5t-160 -64.5t-60 -168.5t60.5 -169t159.5 -65q100 0 162.5 64.5z" />
    <glyph glyph-name="Cacute" unicode="&#x106;" horiz-adv-x="1480" 
d="M676 1503l328 348l137 -139l-383 -297zM399.5 58q-157.5 85 -245.5 241t-88 360q0 201 87 356.5t243.5 240.5t361.5 85q170 0 312 -60t233.5 -172t111.5 -261h-332q-23 96 -112.5 155.5t-216.5 59.5q-172 0 -272.5 -110.5t-100.5 -297.5q0 -188 102.5 -296.5
t270.5 -108.5q123 0 213 60.5t116 158.5h332q-18 -145 -106 -258t-231.5 -175.5t-319.5 -62.5q-201 0 -358.5 85z" />
    <glyph glyph-name="cacute" unicode="&#x107;" horiz-adv-x="1107" 
d="M483 1118l328 348l137 -139l-383 -297zM128 722q62 112 176 173t261 61q133 0 237.5 -49t167 -139t70.5 -207h-290q-16 70 -67.5 105.5t-121.5 35.5q-92 0 -148.5 -64.5t-56.5 -174.5q0 -109 55.5 -173.5t149.5 -64.5q74 0 125 39t64 101h290q-10 -115 -72.5 -204
t-167 -138.5t-235.5 -49.5q-147 0 -261 61.5t-176 172t-62 256.5q0 147 62 259z" />
    <glyph glyph-name="Ccircumflex" unicode="&#x108;" horiz-adv-x="1480" 
d="M635 1794h244l221 -299l-131 -92l-211 225l-213 -225l-131 92zM399.5 58q-157.5 85 -245.5 241t-88 360q0 201 87 356.5t243.5 240.5t361.5 85q170 0 312 -60t233.5 -172t111.5 -261h-332q-23 96 -112.5 155.5t-216.5 59.5q-172 0 -272.5 -110.5t-100.5 -297.5
q0 -188 102.5 -296.5t270.5 -108.5q123 0 213 60.5t116 158.5h332q-18 -145 -106 -258t-231.5 -175.5t-319.5 -62.5q-201 0 -358.5 85z" />
    <glyph glyph-name="ccircumflex" unicode="&#x109;" horiz-adv-x="1107" 
d="M442 1409h244l221 -299l-131 -92l-211 225l-213 -225l-131 92zM128 722q62 112 176 173t261 61q133 0 237.5 -49t167 -139t70.5 -207h-290q-16 70 -67.5 105.5t-121.5 35.5q-92 0 -148.5 -64.5t-56.5 -174.5q0 -109 55.5 -173.5t149.5 -64.5q74 0 125 39t64 101h290
q-10 -115 -72.5 -204t-167 -138.5t-235.5 -49.5q-147 0 -261 61.5t-176 172t-62 256.5q0 147 62 259z" />
    <glyph glyph-name="Cdotaccent" unicode="&#x10a;" horiz-adv-x="1480" 
d="M658 1457q-40 40 -40 99q0 61 39 99.5t101 38.5q59 0 98 -38t39 -100q0 -59 -39 -99t-98 -40q-60 0 -100 40zM399.5 58q-157.5 85 -245.5 241t-88 360q0 201 87 356.5t243.5 240.5t361.5 85q170 0 312 -60t233.5 -172t111.5 -261h-332q-23 96 -112.5 155.5t-216.5 59.5
q-172 0 -272.5 -110.5t-100.5 -297.5q0 -188 102.5 -296.5t270.5 -108.5q123 0 213 60.5t116 158.5h332q-18 -145 -106 -258t-231.5 -175.5t-319.5 -62.5q-201 0 -358.5 85z" />
    <glyph glyph-name="cdotaccent" unicode="&#x10b;" horiz-adv-x="1107" 
d="M466 1072q-40 40 -40 99q0 61 39 99.5t100 38.5q59 0 98 -38t39 -100q0 -59 -38.5 -99t-98.5 -40q-59 0 -99 40zM128 722q62 112 176 173t261 61q133 0 237.5 -49t167 -139t70.5 -207h-290q-16 70 -67.5 105.5t-121.5 35.5q-92 0 -148.5 -64.5t-56.5 -174.5
q0 -109 55.5 -173.5t149.5 -64.5q74 0 125 39t64 101h290q-10 -115 -72.5 -204t-167 -138.5t-235.5 -49.5q-147 0 -261 61.5t-176 172t-62 256.5q0 147 62 259z" />
    <glyph glyph-name="Ccaron" unicode="&#x10c;" horiz-adv-x="1480" 
d="M545 1808l213 -225l211 225l133 -92l-221 -299h-246l-221 299zM399.5 58q-157.5 85 -245.5 241t-88 360q0 201 87 356.5t243.5 240.5t361.5 85q170 0 312 -60t233.5 -172t111.5 -261h-332q-23 96 -112.5 155.5t-216.5 59.5q-172 0 -272.5 -110.5t-100.5 -297.5
q0 -188 102.5 -296.5t270.5 -108.5q123 0 213 60.5t116 158.5h332q-18 -145 -106 -258t-231.5 -175.5t-319.5 -62.5q-201 0 -358.5 85z" />
    <glyph glyph-name="ccaron" unicode="&#x10d;" horiz-adv-x="1107" 
d="M352 1423l213 -225l211 225l133 -92l-221 -299h-246l-221 299zM128 722q62 112 176 173t261 61q133 0 237.5 -49t167 -139t70.5 -207h-290q-16 70 -67.5 105.5t-121.5 35.5q-92 0 -148.5 -64.5t-56.5 -174.5q0 -109 55.5 -173.5t149.5 -64.5q74 0 125 39t64 101h290
q-10 -115 -72.5 -204t-167 -138.5t-235.5 -49.5q-147 0 -261 61.5t-176 172t-62 256.5q0 147 62 259z" />
    <glyph glyph-name="Dcaron" unicode="&#x10e;" horiz-adv-x="1402" 
d="M330 1780l213 -226l211 226l133 -92l-221 -299h-246l-221 299zM1016.5 1228q150.5 -85 235.5 -235.5t85 -341.5q0 -188 -84 -336.5t-234.5 -231.5t-342.5 -83h-535v1313h535q190 0 340.5 -85zM920.5 375.5q101.5 105.5 101.5 275.5q0 176 -101.5 283.5t-273.5 107.5h-207
v-772h207q172 0 273.5 105.5z" />
    <glyph glyph-name="dcaron" unicode="&#x10f;" horiz-adv-x="1341" 
d="M817 1405h285v-1405h-271l-8 96q-47 -55 -127 -87t-166 -32q-139 0 -246.5 60.5t-167 170t-59.5 255.5q0 145 59.5 256.5t166 173t247.5 61.5q88 0 166 -25.5t121 -70.5v547zM1405 1405l-43 -451h-174v451h217zM742.5 297.5q66.5 64.5 66.5 171.5q0 104 -65.5 165.5
t-165.5 61.5t-167 -60.5t-67 -166.5t67.5 -171t166.5 -65q98 0 164.5 64.5z" />
    <glyph glyph-name="Dcroat" unicode="&#x110;" horiz-adv-x="1536" 
d="M1076.5 1228q150.5 -85 235.5 -235.5t85 -341.5q0 -188 -84 -336.5t-234.5 -231.5t-343.5 -83h-534v555h-119v205h119v553h534q191 0 341.5 -85zM980 375.5q101 105.5 101 275.5q0 176 -101 283.5t-273 107.5h-207v-282h180v-205h-180v-285h207q172 0 273 105.5z" />
    <glyph glyph-name="dcroat" unicode="&#x111;" horiz-adv-x="1200" 
d="M1265 1256v-190h-789v190h789zM1090 1405v-1405h-238l-16 111q-47 -66 -130 -102t-184 -36q-133 0 -236.5 61.5t-161.5 172t-58 256.5q0 145 58 258t161.5 174t236.5 61q92 0 164 -25.5t119 -74.5v549h285zM740.5 295.5q62.5 64.5 62.5 171.5q0 104 -62.5 167.5
t-162.5 63.5t-160 -64.5t-60 -168.5t60.5 -169t159.5 -65q100 0 162.5 64.5z" />
    <glyph glyph-name="Emacron" unicode="&#x112;" horiz-adv-x="1112" 
d="M866 1591v-190h-581v190h581zM440 1042v-249h506v-261h-506v-262h568v-270h-867v1313h867v-271h-568z" />
    <glyph glyph-name="emacron" unicode="&#x113;" horiz-adv-x="1069" 
d="M842 1235v-191h-582v191h582zM861 62.5q-128 -89.5 -306 -89.5q-145 0 -256 61.5t-172 173t-61 257.5q0 147 61 259t172 172t250 60q137 0 243.5 -57t165 -158.5t58.5 -230.5q0 -72 -12 -125h-656q4 -82 60.5 -131t146.5 -49q68 0 117 25.5t67 66.5h279
q-29 -145 -157 -234.5zM723 571q-2 70 -53.5 111t-130.5 41q-80 0 -131.5 -41t-55.5 -111h371z" />
    <glyph glyph-name="Ebreve" unicode="&#x114;" horiz-adv-x="1112" 
d="M821.5 1475q-100.5 -86 -248.5 -86q-156 0 -253 89t-105 236h197q2 -66 47 -102.5t114 -36.5q72 0 113 37t45 102h199q-8 -153 -108.5 -239zM440 1042v-249h506v-261h-506v-262h568v-270h-867v1313h867v-271h-568z" />
    <glyph glyph-name="ebreve" unicode="&#x115;" horiz-adv-x="1069" 
d="M796.5 1118q-100.5 -86 -247.5 -86q-156 0 -253 89t-106 237h197q2 -66 47 -102.5t115 -36.5q72 0 112.5 36.5t45.5 102.5h198q-8 -154 -108.5 -240zM861 62.5q-128 -89.5 -306 -89.5q-145 0 -256 61.5t-172 173t-61 257.5q0 147 61 259t172 172t250 60q137 0 243.5 -57
t165 -158.5t58.5 -230.5q0 -72 -12 -125h-656q4 -82 60.5 -131t146.5 -49q68 0 117 25.5t67 66.5h279q-29 -145 -157 -234.5zM723 571q-2 70 -53.5 111t-130.5 41q-80 0 -131.5 -41t-55.5 -111h371z" />
    <glyph glyph-name="Edotaccent" unicode="&#x116;" horiz-adv-x="1112" 
d="M474 1428.5q-40 39.5 -40 99.5q0 61 39 99t100 38q59 0 98.5 -38t39.5 -99q0 -59 -39 -99t-99 -40q-59 0 -99 39.5zM440 1042v-249h506v-261h-506v-262h568v-270h-867v1313h867v-271h-568z" />
    <glyph glyph-name="edotaccent" unicode="&#x117;" horiz-adv-x="1069" 
d="M449.5 1072q-39.5 40 -39.5 99q0 61 38.5 99.5t100.5 38.5q59 0 98 -38t39 -100q0 -59 -39 -99t-98 -40q-60 0 -99.5 40zM861 62.5q-128 -89.5 -306 -89.5q-145 0 -256 61.5t-172 173t-61 257.5q0 147 61 259t172 172t250 60q137 0 243.5 -57t165 -158.5t58.5 -230.5
q0 -72 -12 -125h-656q4 -82 60.5 -131t146.5 -49q68 0 117 25.5t67 66.5h279q-29 -145 -157 -234.5zM723 571q-2 70 -53.5 111t-130.5 41q-80 0 -131.5 -41t-55.5 -111h371z" />
    <glyph glyph-name="Eogonek" unicode="&#x118;" horiz-adv-x="1112" 
d="M1008 0q-57 -37 -85 -76t-28 -74q0 -31 21.5 -49t58.5 -18q29 0 65 12v-143q-63 -20 -125 -21q-92 0 -145 48.5t-53 117.5q0 53 33.5 107.5t99.5 95.5h158zM440 1042v-249h506v-261h-506v-262h568v-270h-867v1313h867v-271h-568z" />
    <glyph glyph-name="eogonek" unicode="&#x119;" horiz-adv-x="1069" 
d="M688 31q-57 -37 -85 -76t-28 -74q0 -31 21.5 -49t58.5 -18q29 0 66 12v-143q-63 -20 -125 -21q-92 0 -145.5 48t-53.5 118q0 53 34 107.5t99 95.5h158zM861 62.5q128 89.5 157 234.5h-279q-18 -41 -67 -66.5t-117 -25.5q-90 0 -146.5 49t-60.5 131h656q12 53 12 125
q0 129 -58.5 230.5t-165 158.5t-243.5 57q-139 0 -250 -60t-172 -172t-61 -259q0 -145 61 -257t172 -173.5t256 -61.5q178 0 306 89.5zM723 571h-371q4 70 55.5 111t131.5 41t131 -41t53 -111z" />
    <glyph glyph-name="Ecaron" unicode="&#x11a;" horiz-adv-x="1112" 
d="M360 1780l213 -226l211 226l134 -92l-222 -299h-245l-222 299zM440 1042v-249h506v-261h-506v-262h568v-270h-867v1313h867v-271h-568z" />
    <glyph glyph-name="ecaron" unicode="&#x11b;" horiz-adv-x="1069" 
d="M336 1423l213 -225l211 225l133 -92l-221 -299h-246l-221 299zM861 62.5q-128 -89.5 -306 -89.5q-145 0 -256 61.5t-172 173t-61 257.5q0 147 61 259t172 172t250 60q137 0 243.5 -57t165 -158.5t58.5 -230.5q0 -72 -12 -125h-656q4 -82 60.5 -131t146.5 -49
q68 0 117 25.5t67 66.5h279q-29 -145 -157 -234.5zM723 571q-2 70 -53.5 111t-130.5 41q-80 0 -131.5 -41t-55.5 -111h371z" />
    <glyph glyph-name="Gcircumflex" unicode="&#x11c;" horiz-adv-x="1478" 
d="M633 1794h244l221 -299l-131 -92l-211 225l-213 -225l-131 92zM1413 727v-141q0 -182 -85 -320.5t-237.5 -215.5t-347.5 -77q-203 0 -356.5 84t-237 236.5t-83.5 353.5q0 203 87 360.5t243.5 245.5t359.5 88q168 0 303 -59t221 -165.5t111 -246.5h-320q-33 90 -119 141.5
t-202 51.5q-174 0 -274.5 -111.5t-100.5 -300.5q0 -188 101.5 -294.5t271.5 -106.5q131 0 224 59.5t120 163.5h-353v254h674z" />
    <glyph glyph-name="gcircumflex" unicode="&#x11d;" horiz-adv-x="1230" 
d="M539 1386h243l222 -255l-132 -79l-210 192l-213 -192l-132 79zM1079 924v-926q0 -213 -136 -339t-376 -126q-137 0 -246.5 50t-174 141.5t-74.5 212.5h282q12 -76 70.5 -114t142.5 -38q106 0 166 54.5t60 146.5v139q-41 -51 -117 -83t-168 -32q-127 0 -227.5 58.5
t-157.5 165t-57 243.5q0 141 58 250t159.5 169t226.5 60q94 0 172 -33.5t119 -91.5l12 93h266zM722.5 321.5q63.5 63.5 63.5 161.5q0 100 -63.5 163t-155.5 63t-150.5 -63.5t-58.5 -162.5q0 -100 59.5 -162.5t151.5 -62.5q90 0 153.5 63.5z" />
    <glyph glyph-name="Gbreve" unicode="&#x11e;" horiz-adv-x="1478" 
d="M1003.5 1503q-100.5 -86 -247.5 -86q-156 0 -253 89t-106 237h197q2 -66 47 -102.5t115 -36.5q72 0 112.5 36.5t44.5 102.5h199q-8 -154 -108.5 -240zM1413 727v-141q0 -182 -85 -320.5t-237.5 -215.5t-347.5 -77q-203 0 -356.5 84t-237 236.5t-83.5 353.5
q0 203 87 360.5t243.5 245.5t359.5 88q168 0 303 -59t221 -165.5t111 -246.5h-320q-33 90 -119 141.5t-202 51.5q-174 0 -274.5 -111.5t-100.5 -300.5q0 -188 101.5 -294.5t271.5 -106.5q131 0 224 59.5t120 163.5h-353v254h674z" />
    <glyph glyph-name="gbreve" unicode="&#x11f;" horiz-adv-x="1181" 
d="M757.5 1118q-100.5 -86 -247.5 -86q-156 0 -253 89t-105 237h196q2 -66 47 -102.5t115 -36.5q72 0 113 36.5t45 102.5h198q-8 -154 -108.5 -240zM1079 924v-926q0 -213 -136 -339t-376 -126q-137 0 -246.5 50t-174 141.5t-74.5 212.5h282q12 -76 70.5 -114t142.5 -38
q106 0 166 54.5t60 146.5v139q-41 -51 -117 -83t-168 -32q-127 0 -227.5 58.5t-157.5 165t-57 243.5q0 141 58 250t159.5 169t226.5 60q94 0 172 -33.5t119 -91.5l12 93h266zM722.5 321.5q63.5 63.5 63.5 161.5q0 100 -63.5 163t-155.5 63t-150.5 -63.5t-58.5 -162.5
q0 -100 59.5 -162.5t151.5 -62.5q90 0 153.5 63.5z" />
    <glyph glyph-name="Gdotaccent" unicode="&#x120;" horiz-adv-x="1478" 
d="M656 1457q-40 40 -40 99q0 61 39 99.5t101 38.5q59 0 98 -38t39 -100q0 -59 -39 -99t-98 -40q-60 0 -100 40zM1413 727v-141q0 -182 -85 -320.5t-237.5 -215.5t-347.5 -77q-203 0 -356.5 84t-237 236.5t-83.5 353.5q0 203 87 360.5t243.5 245.5t359.5 88q168 0 303 -59
t221 -165.5t111 -246.5h-320q-33 90 -119 141.5t-202 51.5q-174 0 -274.5 -111.5t-100.5 -300.5q0 -188 101.5 -294.5t271.5 -106.5q131 0 224 59.5t120 163.5h-353v254h674z" />
    <glyph glyph-name="gdotaccent" unicode="&#x121;" horiz-adv-x="1181" 
d="M411 1072q-40 40 -40 99q0 61 39 99.5t100 38.5q59 0 98 -38t39 -100q0 -59 -39 -99t-98 -40t-99 40zM1079 924v-926q0 -213 -136 -339t-376 -126q-137 0 -246.5 50t-174 141.5t-74.5 212.5h282q12 -76 70.5 -114t142.5 -38q106 0 166 54.5t60 146.5v139
q-41 -51 -117 -83t-168 -32q-127 0 -227.5 58.5t-157.5 165t-57 243.5q0 141 58 250t159.5 169t226.5 60q94 0 172 -33.5t119 -91.5l12 93h266zM722.5 321.5q63.5 63.5 63.5 161.5q0 100 -63.5 163t-155.5 63t-150.5 -63.5t-58.5 -162.5q0 -100 59.5 -162.5t151.5 -62.5
q90 0 153.5 63.5z" />
    <glyph glyph-name="uni0122" unicode="&#x122;" horiz-adv-x="1478" 
d="M879 -130q39 -46 39 -118q0 -109 -66 -182.5t-195 -77.5v57q72 12 109 47t41 87q-20 -12 -49 -13q-51 0 -83 34t-32 83q0 57 38 93t97 36q62 0 101 -46zM1413 727v-141q0 -182 -85 -320.5t-237.5 -215.5t-347.5 -77q-203 0 -356.5 84t-237 236.5t-83.5 353.5
q0 203 87 360.5t243.5 245.5t359.5 88q168 0 303 -59t221 -165.5t111 -246.5h-320q-33 90 -119 141.5t-202 51.5q-174 0 -274.5 -111.5t-100.5 -300.5q0 -188 101.5 -294.5t271.5 -106.5q131 0 224 59.5t120 163.5h-353v254h674z" />
    <glyph glyph-name="uni0123" unicode="&#x123;" horiz-adv-x="1181" 
d="M428 1118l328 350l137 -139l-383 -297zM1079 924v-926q0 -213 -136 -339t-376 -126q-137 0 -246.5 50t-174 141.5t-74.5 212.5h282q12 -76 70.5 -114t142.5 -38q106 0 166 54.5t60 146.5v139q-41 -51 -117 -83t-168 -32q-127 0 -227.5 58.5t-157.5 165t-57 243.5
q0 141 58 250t159.5 169t226.5 60q94 0 172 -33.5t119 -91.5l12 93h266zM722.5 321.5q63.5 63.5 63.5 161.5q0 100 -63.5 163t-155.5 63t-150.5 -63.5t-58.5 -162.5q0 -100 59.5 -162.5t151.5 -62.5q90 0 153.5 63.5z" />
    <glyph glyph-name="Hbar" unicode="&#x126;" horiz-adv-x="1374" 
d="M1378 1160v-226h-1354v226h1354zM141 1313h299v-522h510v522h301v-1313h-301v530h-510v-530h-299v1313z" />
    <glyph glyph-name="hbar" unicode="&#x127;" horiz-adv-x="1112" 
d="M653 1033h-641v202h641v-202zM111 1405h286v-571q41 57 113 90t158 32q166 0 255 -103t89 -280v-573h-285v506q0 115 -51 152q-51 38 -105 38q-61 0 -118 -34q-57 -35 -58 -148v-514h-284v1405z" />
    <glyph glyph-name="Itilde" unicode="&#x128;" horiz-adv-x="563" 
d="M-33 1464q0 102 50.5 164t132.5 62q41 0 76.5 -15.5t84.5 -44.5q25 -14 49.5 -26.5t42.5 -12.5q37 0 50.5 23.5t11.5 71.5h139q6 -37 6 -72q0 -96 -49 -154.5t-131 -58.5q-45 0 -83 15.5t-85 43.5q-25 14 -48.5 25.5t-39.5 11.5q-39 0 -52 -31.5t-9 -74.5h-140
q-6 40 -6 73zM141 0v1313h299v-1313h-299z" />
    <glyph glyph-name="itilde" unicode="&#x129;" horiz-adv-x="507" 
d="M-70 1130q0 102 50.5 164t132.5 62q41 0 76.5 -15.5t84.5 -44.5q25 -14 49.5 -26.5t43.5 -12.5q37 0 50 24t11 71h139q6 -37 6 -72q0 -96 -49 -154.5t-131 -58.5q-45 0 -83 15.5t-85 43.5q-25 14 -48 25.5t-40 11.5q-39 0 -52 -31.5t-9 -74.5h-139q-7 40 -7 73zM397 924
v-924h-286v924h286z" />
    <glyph glyph-name="Imacron" unicode="&#x12a;" horiz-adv-x="563" 
d="M584 1591v-190h-582v190h582zM141 0v1313h299v-1313h-299z" />
    <glyph glyph-name="imacron" unicode="&#x12b;" horiz-adv-x="507" 
d="M547 1257v-190h-582v190h582zM397 924v-924h-286v924h286z" />
    <glyph glyph-name="Iogonek" unicode="&#x12e;" horiz-adv-x="563" 
d="M440 4q-57 -37 -84.5 -76t-27.5 -73q0 -31 21.5 -49.5t58.5 -18.5q29 0 65 12v-143q-63 -20 -125 -21q-92 0 -145 48.5t-53 117.5q0 53 33.5 107.5t99.5 95.5h157zM141 0v1313h299v-1313h-299z" />
    <glyph glyph-name="iogonek" unicode="&#x12f;" horiz-adv-x="507" 
d="M395 0q-57 -37 -84.5 -76t-27.5 -74q0 -31 21.5 -49t57.5 -18q29 0 66 12v-143q-63 -20 -125 -21q-92 0 -145.5 48.5t-53.5 117.5q0 53 34 107.5t100 95.5h157zM155 1095q-40 40 -40 99q0 61 39 99t100 38q59 0 98 -38t39 -99q0 -59 -39 -99t-98 -40t-99 40zM397 924
v-924h-286v924h286z" />
    <glyph glyph-name="Idotaccent" unicode="&#x130;" horiz-adv-x="563" 
d="M191.5 1428.5q-39.5 39.5 -39.5 99.5q0 61 38.5 99t100.5 38q59 0 98 -38t39 -99q0 -59 -39 -99t-98 -40q-60 0 -99.5 39.5zM141 0v1313h299v-1313h-299z" />
    <glyph glyph-name="dotlessi" unicode="&#x131;" horiz-adv-x="507" 
d="M397 924v-924h-286v924h286z" />
    <glyph glyph-name="Jcircumflex" unicode="&#x134;" horiz-adv-x="1071" 
d="M489 1765h244l221 -299l-131 -92l-211 225l-213 -225l-131 92zM940 389q0 -125 -56.5 -219t-159.5 -145.5t-237 -51.5q-133 0 -235 52.5t-157.5 146.5t-55.5 217v76h289v-66q0 -74 42 -114.5t113 -40.5q76 0 117 42t41 113v643h-375v271h674v-924z" />
    <glyph glyph-name="jcircumflex" unicode="&#x135;" horiz-adv-x="569" 
d="M166 1432h244l221 -299l-131 -93l-211 226l-213 -226l-131 93zM143 924h287v-1368h-285z" />
    <glyph glyph-name="uni0136" unicode="&#x136;" horiz-adv-x="1306" 
d="M786.5 -109.5q38.5 -46.5 38.5 -117.5q0 -109 -65.5 -182.5t-194.5 -77.5v57q72 12 109 47t41 86q-20 -12 -49 -12q-51 0 -83 33.5t-32 82.5q0 57 38 93.5t97 36.5q62 0 100.5 -46.5zM635 489l-195 -243v-252h-299v1319h299v-602l475 602h373l-450 -565l452 -748h-358z
" />
    <glyph glyph-name="uni0137" unicode="&#x137;" horiz-adv-x="1077" 
d="M641 -109.5q39 -46.5 39 -117.5q0 -109 -65.5 -182.5t-194.5 -77.5v57q72 12 108.5 47t40.5 86q-20 -12 -49 -12q-51 0 -82.5 33.5t-31.5 82.5q0 57 37.5 93.5t97.5 36.5q61 0 100 -46.5zM731 582l309 -582h-323l-191 369l-129 -133v-236h-286v1405h286v-819l310 338h354
z" />
    <glyph glyph-name="Lacute" unicode="&#x139;" horiz-adv-x="1028" 
d="M211 1475l328 348l137 -140l-383 -297zM981 270v-270h-840v1313h303v-1043h537z" />
    <glyph glyph-name="lacute" unicode="&#x13a;" horiz-adv-x="507" 
d="M174 1569l328 350l137 -139l-383 -297zM111 1405h286v-1405h-286v1405z" />
    <glyph glyph-name="uni013B" unicode="&#x13b;" horiz-adv-x="1028" 
d="M627 -109.5q39 -46.5 39 -117.5q0 -109 -65.5 -182.5t-194.5 -77.5v57q72 12 108.5 47t40.5 86q-20 -12 -49 -12q-51 0 -83 33.5t-32 82.5q0 57 38 93.5t97 36.5q62 0 101 -46.5zM981 270v-270h-840v1313h303v-1043h537z" />
    <glyph glyph-name="uni013C" unicode="&#x13c;" horiz-adv-x="507" 
d="M356 -109.5q39 -46.5 39 -117.5q0 -109 -65.5 -182.5t-194.5 -77.5v57q72 12 109 47t41 86q-20 -12 -49 -12q-51 0 -83 33.5t-32 82.5q0 57 38 93.5t97 36.5q61 0 100 -46.5zM111 1405h286v-1405h-286v1405z" />
    <glyph glyph-name="Lcaron" unicode="&#x13d;" horiz-adv-x="1069" 
d="M833.5 1297q38.5 -46 38.5 -117q0 -109 -65.5 -182.5t-194.5 -77.5v57q72 12 109 47t41 86q-20 -12 -49 -12q-51 0 -83 33.5t-32 82.5q0 57 38 93t97 36q62 0 100.5 -46zM981 270v-270h-840v1313h303v-1043h537z" />
    <glyph glyph-name="lcaron" unicode="&#x13e;" horiz-adv-x="507" 
d="M111 1405h286v-1405h-286v1405z" />
    <glyph glyph-name="Ldot" unicode="&#x13f;" horiz-adv-x="1069" 
d="M662 620.5q-44 43.5 -44 100.5q0 60 44 103t104 43q58 0 102 -44t44 -102q0 -57 -43 -100.5t-103 -43.5t-104 43.5zM981 270v-270h-840v1313h303v-1043h537z" />
    <glyph glyph-name="ldot" unicode="&#x140;" horiz-adv-x="874" 
d="M593 532q-45 44 -45 102q0 61 45 105t105 44q59 0 103.5 -44.5t44.5 -104.5q0 -58 -43.5 -102t-104.5 -44q-60 0 -105 44zM111 1405h286v-1405h-286v1405z" />
    <glyph glyph-name="Lslash" unicode="&#x141;" horiz-adv-x="1028" 
d="M981 270v-270h-840v610l-137 -65v223l137 66v479h303v-336l205 98v-223l-205 -98v-484h537z" />
    <glyph glyph-name="lslash" unicode="&#x142;" horiz-adv-x="561" 
d="M522 805l-98 -47v-758h-287v621l-98 -48v201l98 47v584h287v-449l98 48v-199z" />
    <glyph glyph-name="Nacute" unicode="&#x143;" horiz-adv-x="1392" 
d="M625 1511l327 349l138 -140l-383 -297zM1253 1313v-1313h-278l-539 795v-795h-295v1313h279l536 -797v797h297z" />
    <glyph glyph-name="nacute" unicode="&#x144;" horiz-adv-x="1103" 
d="M469 1118l328 348l137 -139l-383 -297zM911.5 852q92.5 -104 92.5 -279v-573h-287v506q0 190 -156 190q-82 0 -124 -48t-42 -134v-514h-284v924h237l19 -101q43 61 119.5 97t166.5 36q166 0 258.5 -104z" />
    <glyph glyph-name="uni0145" unicode="&#x145;" horiz-adv-x="1392" 
d="M799 -109.5q39 -46.5 39 -117.5q0 -109 -65.5 -182.5t-194.5 -77.5v57q72 12 108.5 47t40.5 86q-20 -12 -49 -12q-51 0 -83 33.5t-32 82.5q0 57 38 93.5t97 36.5q62 0 101 -46.5zM1253 1313v-1313h-278l-539 795v-795h-295v1313h279l536 -797v797h297z" />
    <glyph glyph-name="uni0146" unicode="&#x146;" horiz-adv-x="1103" 
d="M657 -109.5q39 -46.5 39 -117.5q0 -109 -65.5 -182.5t-194.5 -77.5v57q72 12 109 47t41 86q-20 -12 -49 -12q-51 0 -83 33.5t-32 82.5q0 57 38 93.5t97 36.5q61 0 100 -46.5zM911.5 852q92.5 -104 92.5 -279v-573h-287v506q0 190 -156 190q-82 0 -124 -48t-42 -134v-514
h-284v924h237l19 -101q43 61 119.5 97t166.5 36q166 0 258.5 -104z" />
    <glyph glyph-name="Ncaron" unicode="&#x147;" horiz-adv-x="1392" 
d="M494 1817l213 -226l211 226l133 -93l-222 -299h-245l-222 299zM1253 1313v-1313h-278l-539 795v-795h-295v1313h279l536 -797v797h297z" />
    <glyph glyph-name="ncaron" unicode="&#x148;" horiz-adv-x="1103" 
d="M338 1423l213 -225l211 225l133 -92l-221 -299h-246l-221 299zM911.5 852q92.5 -104 92.5 -279v-573h-287v506q0 190 -156 190q-82 0 -124 -48t-42 -134v-514h-284v924h237l19 -101q43 61 119.5 97t166.5 36q166 0 258.5 -104z" />
    <glyph glyph-name="Eng" unicode="&#x14a;" horiz-adv-x="1449" 
d="M141 1313h295l578 -842v842h297v-1434q0 -172 -107.5 -248.5t-255.5 -76.5q-59 0 -125 14v223h95q57 0 90.5 28.5t33.5 106.5v74h-28l-578 840v-840h-295v1313z" />
    <glyph glyph-name="eng" unicode="&#x14b;" horiz-adv-x="1116" 
d="M111 924h266l20 -97q45 59 119 93t158 34q162 0 252 -104.5t90 -278.5v-637q0 -168 -90 -239.5t-215 -71.5q-66 0 -121 19v219q29 -4 39 -4q100 0 100 106v539q0 117 -48 155.5t-106 38.5q-68 0 -124 -35.5t-56 -148.5v-512h-284v924z" />
    <glyph glyph-name="Omacron" unicode="&#x14c;" horiz-adv-x="1544" 
d="M1065 1620v-190h-582v190h582zM1387.5 301q-91.5 -156 -252 -242t-365.5 -86q-203 0 -363.5 86t-250.5 241t-90 355q0 201 90 356.5t250.5 242.5t365.5 87q203 0 363.5 -86t252 -241.5t91.5 -356.5q0 -200 -91.5 -356zM1112 868.5q-49 92.5 -137 143.5t-201 51
q-115 0 -204 -51t-139 -143.5t-50 -213.5q0 -119 49 -211t138 -142t204 -50q113 0 202 51t138 143.5t49 210.5q0 119 -49 211.5z" />
    <glyph glyph-name="omacron" unicode="&#x14d;" horiz-adv-x="1157" 
d="M872 1235v-191h-581v191h581zM130.5 718.5q64.5 112.5 181 175t268.5 62.5t267.5 -62.5t180 -175t64.5 -255.5q0 -141 -64.5 -253t-181.5 -174.5t-266 -62.5q-152 0 -268.5 62.5t-181 174.5t-64.5 253q0 143 64.5 255.5zM419.5 293.5q61.5 -66.5 160.5 -66.5
q98 0 159.5 66.5t61.5 171.5q0 104 -60.5 169.5t-160.5 65.5t-161 -65.5t-61 -169.5q0 -105 61.5 -171.5z" />
    <glyph glyph-name="Ohungarumlaut" unicode="&#x150;" horiz-adv-x="1544" 
d="M487 1503l328 348l137 -139l-383 -297zM893 1503l328 348l135 -139l-381 -297zM1387.5 301q-91.5 -156 -252 -242t-365.5 -86q-203 0 -363.5 86t-250.5 241t-90 355q0 201 90 356.5t250.5 242.5t365.5 87q203 0 363.5 -86t252 -241.5t91.5 -356.5q0 -200 -91.5 -356z
M1112 868.5q-49 92.5 -137 143.5t-201 51q-115 0 -204 -51t-139 -143.5t-50 -213.5q0 -119 49 -211t138 -142t204 -50q113 0 202 51t138 143.5t49 210.5q0 119 -49 211.5z" />
    <glyph glyph-name="ohungarumlaut" unicode="&#x151;" horiz-adv-x="1157" 
d="M295 1118l328 348l137 -139l-383 -297zM700 1118l328 348l135 -139l-381 -297zM130.5 718.5q64.5 112.5 181 175t268.5 62.5t267.5 -62.5t180 -175t64.5 -255.5q0 -141 -64.5 -253t-181.5 -174.5t-266 -62.5q-152 0 -268.5 62.5t-181 174.5t-64.5 253q0 143 64.5 255.5z
M419.5 293.5q61.5 -66.5 160.5 -66.5q98 0 159.5 66.5t61.5 171.5q0 104 -60.5 169.5t-160.5 65.5t-161 -65.5t-61 -169.5q0 -105 61.5 -171.5z" />
    <glyph glyph-name="OE" unicode="&#x152;" horiz-adv-x="2265" 
d="M1552 1104v-273h541v-266h-541v-284h609v-281h-906v135q-78 -74 -197.5 -117t-254.5 -43q-225 0 -392 91.5t-256 253t-89 366.5q0 209 91 373t258 257t384 93q145 0 265 -41t191 -113v129h906v-280h-609zM1040.5 319.5q98.5 53.5 153.5 150.5t55 222q0 127 -55 224.5
t-153.5 150.5t-225.5 53t-225 -54t-153.5 -151.5t-55.5 -222.5t55.5 -221t154.5 -150.5t226 -54.5q125 0 223.5 53.5z" />
    <glyph glyph-name="oe" unicode="&#x153;" horiz-adv-x="1916" 
d="M1697 62.5q-128 -89.5 -306 -89.5q-145 0 -256 61.5t-172.5 173t-61.5 257.5q0 147 61.5 259t172 172t249.5 60q137 0 244 -57t165 -158.5t58 -230.5q0 -72 -12 -125h-655q4 -82 60 -131t147 -49q68 0 116.5 25.5t67.5 66.5h278q-28 -145 -156 -234.5zM1559 571
q-2 70 -53.5 111t-131.5 41t-131 -41t-55 -111h371zM130.5 718.5q64.5 112.5 181 175t268.5 62.5t267.5 -62.5t180 -175t64.5 -255.5q0 -141 -64.5 -253t-181.5 -174.5t-266 -62.5q-152 0 -268.5 62.5t-181 174.5t-64.5 253q0 143 64.5 255.5zM419.5 293.5
q61.5 -66.5 160.5 -66.5q98 0 159.5 66.5t61.5 171.5q0 104 -60.5 169.5t-160.5 65.5t-161 -65.5t-61 -169.5q0 -105 61.5 -171.5z" />
    <glyph glyph-name="Racute" unicode="&#x154;" horiz-adv-x="1269" 
d="M487 1475l328 348l137 -140l-383 -297zM141 1313h529q260 0 390 -108.5t130 -317.5q0 -135 -57.5 -230.5t-167.5 -146.5l239 -510h-336l-202 459h-226v-459h-299v1313zM668 715q104 0 155 48t51 122q0 72 -49 120t-155 48h-230v-338h228z" />
    <glyph glyph-name="racute" unicode="&#x155;" horiz-adv-x="727" 
d="M160 1085l327 349l138 -140l-383 -297zM696 924v-248q-14 2 -43 2q-123 0 -189.5 -64.5t-66.5 -181.5v-432h-286v924h262l18 -125q23 66 81 99.5t138 33.5q45 0 86 -8z" />
    <glyph glyph-name="uni0156" unicode="&#x156;" horiz-adv-x="1269" 
d="M754 -109.5q39 -46.5 39 -117.5q0 -109 -65.5 -182.5t-195.5 -77.5v57q72 12 109 47t41 86q-20 -12 -49 -12q-51 0 -83 33.5t-32 82.5q0 57 38 93.5t97 36.5q62 0 101 -46.5zM141 1313h529q260 0 390 -108.5t130 -317.5q0 -135 -57.5 -230.5t-167.5 -146.5l239 -510h-336
l-202 459h-226v-459h-299v1313zM668 715q104 0 155 48t51 122q0 72 -49 120t-155 48h-230v-338h228z" />
    <glyph glyph-name="uni0157" unicode="&#x157;" horiz-adv-x="727" 
d="M356 -109.5q39 -46.5 39 -117.5q0 -109 -65.5 -182.5t-194.5 -77.5v57q72 12 109 47t41 86q-20 -12 -49 -12q-51 0 -83 33.5t-32 82.5q0 57 38 93.5t97 36.5q61 0 100 -46.5zM696 924v-248q-14 2 -43 2q-123 0 -189.5 -64.5t-66.5 -181.5v-432h-286v924h262l18 -125
q23 66 81 99.5t138 33.5q45 0 86 -8z" />
    <glyph glyph-name="Rcaron" unicode="&#x158;" horiz-adv-x="1269" 
d="M356 1780l213 -226l211 226l133 -92l-221 -299h-246l-221 299zM141 1313h529q260 0 390 -108.5t130 -317.5q0 -135 -57.5 -230.5t-167.5 -146.5l239 -510h-336l-202 459h-226v-459h-299v1313zM668 715q104 0 155 48t51 122q0 72 -49 120t-155 48h-230v-338h228z" />
    <glyph glyph-name="rcaron" unicode="&#x159;" horiz-adv-x="727" 
d="M29 1391l213 -226l211 226l133 -93l-221 -299h-246l-221 299zM696 924v-248q-14 2 -43 2q-123 0 -189.5 -64.5t-66.5 -181.5v-432h-286v924h262l18 -125q23 66 81 99.5t138 33.5q45 0 86 -8z" />
    <glyph glyph-name="Sacute" unicode="&#x15a;" horiz-adv-x="1189" 
d="M510 1503l328 348l137 -139l-383 -297zM163.5 1145q61.5 94 172 145t258.5 51q143 0 255 -50t174 -142t64 -211h-309q-2 68 -58 110t-142 42q-76 0 -122 -35t-46 -94q0 -55 39.5 -83t117.5 -47l207 -47q174 -41 261 -141t87 -244q0 -129 -64.5 -225t-182 -148.5
t-273.5 -52.5q-233 0 -377.5 113t-158.5 307h307q6 -80 68.5 -124t164.5 -44q94 0 147.5 38t53.5 104q0 53 -35 82.5t-98 44.5l-217 51q-184 43 -269.5 141t-85.5 238q0 127 61.5 221z" />
    <glyph glyph-name="sacute" unicode="&#x15b;" horiz-adv-x="944" 
d="M391 1118l328 348l137 -139l-383 -297zM189.5 56q-111.5 83 -123.5 227h282q2 -47 38 -73t91 -26q49 0 78 18.5t29 55.5q0 33 -22.5 48.5t-61.5 23.5l-148 37q-264 63 -264 278q0 139 106.5 225t278.5 86q170 0 275.5 -84t109.5 -221h-278q-2 41 -33 65.5t-80 24.5
q-43 0 -67.5 -18t-24.5 -51t20.5 -45.5t69.5 -24.5l172 -41q125 -29 183.5 -101.5t58.5 -172.5q0 -143 -108.5 -228.5t-293.5 -85.5q-176 0 -287.5 83z" />
    <glyph glyph-name="Scircumflex" unicode="&#x15c;" horiz-adv-x="1189" 
d="M469 1794h244l221 -299l-131 -92l-211 225l-213 -225l-131 92zM163.5 1145q61.5 94 172 145t258.5 51q143 0 255 -50t174 -142t64 -211h-309q-2 68 -58 110t-142 42q-76 0 -122 -35t-46 -94q0 -55 39.5 -83t117.5 -47l207 -47q174 -41 261 -141t87 -244
q0 -129 -64.5 -225t-182 -148.5t-273.5 -52.5q-233 0 -377.5 113t-158.5 307h307q6 -80 68.5 -124t164.5 -44q94 0 147.5 38t53.5 104q0 53 -35 82.5t-98 44.5l-217 51q-184 43 -269.5 141t-85.5 238q0 127 61.5 221z" />
    <glyph glyph-name="scircumflex" unicode="&#x15d;" horiz-adv-x="944" 
d="M350 1409h244l221 -299l-131 -92l-211 225l-213 -225l-131 92zM189.5 56q-111.5 83 -123.5 227h282q2 -47 38 -73t91 -26q49 0 78 18.5t29 55.5q0 33 -22.5 48.5t-61.5 23.5l-148 37q-264 63 -264 278q0 139 106.5 225t278.5 86q170 0 275.5 -84t109.5 -221h-278
q-2 41 -33 65.5t-80 24.5q-43 0 -67.5 -18t-24.5 -51t20.5 -45.5t69.5 -24.5l172 -41q125 -29 183.5 -101.5t58.5 -172.5q0 -143 -108.5 -228.5t-293.5 -85.5q-176 0 -287.5 83z" />
    <glyph glyph-name="Scedilla" unicode="&#x15e;" horiz-adv-x="1189" 
d="M629 -92q72 0 133 -48t61 -147q0 -106 -78.5 -163.5t-187.5 -57.5q-98 0 -166 41v143q20 -23 57 -36t74 -13q49 0 83 23.5t34 70.5q0 43 -29.5 66t-77.5 23q-14 0 -43 -5l-59 62l148 223h104v-74l-76 -110zM163.5 1145q-61.5 -94 -61.5 -221q0 -139 85 -237.5t270 -141.5
l217 -51q63 -14 98 -44t35 -83q0 -66 -53.5 -104t-147.5 -38q-102 0 -164.5 44t-68.5 124h-307q14 -195 158.5 -307.5t377.5 -112.5q156 0 273.5 52.5t182 148.5t64.5 225q0 143 -87 243.5t-261 141.5l-207 47q-78 18 -117.5 46t-39.5 84q0 59 46 94t122 35q86 0 142 -42
t58 -110h309q-2 119 -64 211t-174 142t-255 50q-147 0 -258 -51t-172.5 -145z" />
    <glyph glyph-name="scedilla" unicode="&#x15f;" horiz-adv-x="944" 
d="M502 -78q72 0 133 -48t61 -146q0 -106 -78.5 -164t-187.5 -58q-98 0 -166 41v144q20 -23 57 -36t74 -13q49 0 83 23.5t34 70.5q0 43 -29.5 65.5t-76.5 22.5q-14 0 -44 -4l-59 61l148 223h104v-73l-76 -111zM189.5 56q111.5 -83 287.5 -83q184 0 293 85t109 229
q0 100 -58.5 172.5t-183.5 101.5l-172 41q-49 12 -69.5 24.5t-20.5 45.5t24.5 51t67.5 18q49 0 80 -24.5t33 -65.5h278q-4 137 -109.5 221t-275.5 84q-172 0 -278.5 -86t-106.5 -225q0 -215 264 -278l148 -37q39 -8 61.5 -23.5t22.5 -48.5q0 -37 -29 -55.5t-78 -18.5
q-55 0 -91 26t-38 73h-282q12 -144 123.5 -227z" />
    <glyph glyph-name="Scaron" unicode="&#x160;" horiz-adv-x="1189" 
d="M379 1808l213 -225l211 225l133 -92l-221 -299h-246l-221 299zM163.5 1145q61.5 94 172 145t258.5 51q143 0 255 -50t174 -142t64 -211h-309q-2 68 -58 110t-142 42q-76 0 -122 -35t-46 -94q0 -55 39.5 -83t117.5 -47l207 -47q174 -41 261 -141t87 -244
q0 -129 -64.5 -225t-182 -148.5t-273.5 -52.5q-233 0 -377.5 113t-158.5 307h307q6 -80 68.5 -124t164.5 -44q94 0 147.5 38t53.5 104q0 53 -35 82.5t-98 44.5l-217 51q-184 43 -269.5 141t-85.5 238q0 127 61.5 221z" />
    <glyph glyph-name="scaron" unicode="&#x161;" horiz-adv-x="944" 
d="M260 1423l213 -225l211 225l133 -92l-221 -299h-246l-221 299zM189.5 56q-111.5 83 -123.5 227h282q2 -47 38 -73t91 -26q49 0 78 18.5t29 55.5q0 33 -22.5 48.5t-61.5 23.5l-148 37q-264 63 -264 278q0 139 106.5 225t278.5 86q170 0 275.5 -84t109.5 -221h-278
q-2 41 -33 65.5t-80 24.5q-43 0 -67.5 -18t-24.5 -51t20.5 -45.5t69.5 -24.5l172 -41q125 -29 183.5 -101.5t58.5 -172.5q0 -143 -108.5 -228.5t-293.5 -85.5q-176 0 -287.5 83z" />
    <glyph glyph-name="uni0162" unicode="&#x162;" horiz-adv-x="1150" 
d="M664 -109q72 0 133 -48t61 -146q0 -106 -79 -163.5t-187 -57.5q-98 0 -166 41v143q20 -23 57 -36t74 -13q49 0 83 23.5t34 70.5q0 43 -30 65.5t-77 22.5q-14 0 -43 -4l-59 61l147 224h105v-74l-76 -111zM1118 1042h-391v-1042h-299v1042h-395v271h1085v-271z" />
    <glyph glyph-name="uni0163" unicode="&#x163;" horiz-adv-x="684" 
d="M428 -109q72 0 133.5 -48t61.5 -146q0 -106 -79 -163.5t-188 -57.5q-98 0 -166 41v143q20 -23 57.5 -36t74.5 -13q49 0 82.5 23.5t33.5 70.5q0 43 -29.5 65.5t-76.5 22.5q-14 0 -43 -4l-60 61l148 224h104v-74l-75 -111zM657 688h-174v-688h-286v688h-170v236h170v239
h286v-239h174v-236z" />
    <glyph glyph-name="Tcaron" unicode="&#x164;" horiz-adv-x="1150" 
d="M362 1780l213 -226l211 226l134 -92l-222 -299h-245l-222 299zM1118 1042h-391v-1042h-299v1042h-395v271h1085v-271z" />
    <glyph glyph-name="tcaron" unicode="&#x165;" horiz-adv-x="684" 
d="M750 1405l-43 -399h-148v399h191zM483 924h174v-242h-174v-682h-286v682h-170v242h170v239h286v-239z" />
    <glyph glyph-name="Tbar" unicode="&#x166;" horiz-adv-x="1150" 
d="M1047 805v-252h-910v252h910zM1118 1042h-391v-1042h-299v1042h-395v271h1085v-271z" />
    <glyph glyph-name="tbar" unicode="&#x167;" horiz-adv-x="684" 
d="M656 345h-630v216h630v-216zM657 688h-174v-688h-286v688h-170v236h170v239h286v-239h174v-236z" />
    <glyph glyph-name="Utilde" unicode="&#x168;" horiz-adv-x="1409" 
d="M381 1464q0 102 50 164t132 62q41 0 77 -15.5t85 -44.5q25 -14 49.5 -26.5t42.5 -12.5q37 0 50.5 23.5t11.5 71.5h139q6 -37 6 -72q0 -96 -49 -154.5t-131 -58.5q-45 0 -83 15.5t-85 43.5q-25 14 -48.5 25.5t-39.5 11.5q-39 0 -52.5 -31.5t-9.5 -74.5h-139q-6 40 -6 73z
M131 1313h299v-811q2 -131 76 -195.5t196 -64.5q133 0 205 68.5t72 191.5v811h299v-824q0 -246 -156.5 -381t-419.5 -135q-264 0 -417.5 138.5t-153.5 377.5v824z" />
    <glyph glyph-name="utilde" unicode="&#x169;" horiz-adv-x="1085" 
d="M219 1075q0 102 50 163.5t132 61.5q41 0 77 -15t85 -44q25 -14 49.5 -26.5t42.5 -12.5q37 0 50.5 23.5t11.5 70.5h139q6 -37 6 -71q0 -96 -49 -154.5t-131 -58.5q-45 0 -83 15t-85 44q-25 14 -48.5 25.5t-39.5 11.5q-39 0 -52.5 -32t-8.5 -75h-140q-6 41 -6 74zM985 924
v-924h-237l-19 104q-49 -66 -121.5 -98.5t-161.5 -32.5q-166 0 -256 98.5t-90 268.5v584h287v-541q0 -86 40 -124t116 -38q74 0 114.5 46t40.5 124v533h287z" />
    <glyph glyph-name="Umacron" unicode="&#x16a;" horiz-adv-x="1409" 
d="M997 1591v-190h-581v190h581zM131 1313h299v-811q2 -131 76 -195.5t196 -64.5q133 0 205 68.5t72 191.5v811h299v-824q0 -246 -156.5 -381t-419.5 -135q-264 0 -417.5 138.5t-153.5 377.5v824z" />
    <glyph glyph-name="umacron" unicode="&#x16b;" horiz-adv-x="1085" 
d="M836 1202v-190h-582v190h582zM985 924v-924h-237l-19 104q-49 -66 -121.5 -98.5t-161.5 -32.5q-166 0 -256 98.5t-90 268.5v584h287v-541q0 -86 40 -124t116 -38q74 0 114.5 46t40.5 124v533h287z" />
    <glyph glyph-name="Uring" unicode="&#x16e;" horiz-adv-x="1409" 
d="M555 1399q-63 37 -97 96t-34 127t34 128t97 97t150 37q84 0 147 -37t98 -97t35 -128t-33.5 -127t-98.5 -96t-148 -37q-87 0 -150 37zM777.5 1549.5q29.5 31.5 29.5 76.5q0 41 -29.5 72t-72.5 31q-45 0 -75 -30t-30 -73q0 -47 29.5 -77.5t75.5 -30.5q43 0 72.5 31.5z
M131 1313h299v-811q2 -131 76 -195.5t196 -64.5q133 0 205 68.5t72 191.5v811h299v-824q0 -246 -156.5 -381t-419.5 -135q-264 0 -417.5 138.5t-153.5 377.5v824z" />
    <glyph glyph-name="uring" unicode="&#x16f;" horiz-adv-x="1085" 
d="M393.5 1010q-63.5 37 -97.5 96t-34 127t34 128t97.5 97t149.5 37q84 0 147.5 -37t98 -97.5t34.5 -127.5q0 -68 -33.5 -127t-98 -96t-148.5 -37q-86 0 -149.5 37zM615.5 1160q29.5 32 29.5 77q0 41 -29.5 71.5t-72.5 30.5q-45 0 -75 -29.5t-30 -72.5q0 -47 30 -78t75 -31
q43 0 72.5 32zM985 924v-924h-237l-19 104q-49 -66 -121.5 -98.5t-161.5 -32.5q-166 0 -256 98.5t-90 268.5v584h287v-541q0 -86 40 -124t116 -38q74 0 114.5 46t40.5 124v533h287z" />
    <glyph glyph-name="Uhungarumlaut" unicode="&#x170;" horiz-adv-x="1409" 
d="M420 1475l328 350l137 -139l-383 -297zM825 1475l328 350l135 -139l-381 -297zM131 1313h299v-811q2 -131 76 -195.5t196 -64.5q133 0 205 68.5t72 191.5v811h299v-824q0 -246 -156.5 -381t-419.5 -135q-264 0 -417.5 138.5t-153.5 377.5v824z" />
    <glyph glyph-name="uhungarumlaut" unicode="&#x171;" horiz-adv-x="1085" 
d="M258 1085l328 351l137 -140l-383 -297zM664 1085l327 351l135 -140l-381 -297zM985 924v-924h-237l-19 104q-49 -66 -121.5 -98.5t-161.5 -32.5q-166 0 -256 98.5t-90 268.5v584h287v-541q0 -86 40 -124t116 -38q74 0 114.5 46t40.5 124v533h287z" />
    <glyph glyph-name="Uogonek" unicode="&#x172;" horiz-adv-x="1409" 
d="M838 -8q-57 -37 -85 -76t-28 -74q0 -31 21.5 -49t58.5 -18q29 0 65 12v-143q-63 -20 -125 -21q-92 0 -145 48t-53 118q0 53 33.5 107.5t99.5 95.5h158zM131 1313h299v-811q2 -131 76 -195.5t196 -64.5q133 0 205 68.5t72 191.5v811h299v-824q0 -246 -156.5 -381
t-419.5 -135q-264 0 -417.5 138.5t-153.5 377.5v824z" />
    <glyph glyph-name="uogonek" unicode="&#x173;" horiz-adv-x="1085" 
d="M983 0q-57 -37 -85 -76t-28 -74q0 -31 21.5 -49t58.5 -18q29 0 66 12v-143q-63 -20 -125 -21q-92 0 -145.5 48.5t-53.5 117.5q0 53 34 107.5t99 95.5h158zM985 924v-924h-237l-19 104q-49 -66 -121.5 -98.5t-161.5 -32.5q-166 0 -256 98.5t-90 268.5v584h287v-541
q0 -86 40 -124t116 -38q74 0 114.5 46t40.5 124v533h287z" />
    <glyph glyph-name="Wcircumflex" unicode="&#x174;" horiz-adv-x="1959" 
d="M852 1765h246l221 -299l-133 -92l-211 225l-213 -225l-131 92zM344 1313l125 -412q53 -172 83 -296t30 -132q27 82 145 498l90 307h328l180 -614l55 -191q0 8 30 132t83 296l127 412h319l-417 -1313h-291l-78 258q-43 141 -99.5 334.5t-72.5 257.5q-16 -61 -70.5 -256
t-99.5 -336l-80 -258h-291l-417 1313h321z" />
    <glyph glyph-name="wcircumflex" unicode="&#x175;" horiz-adv-x="1576" 
d="M672 1376h246l221 -299l-133 -92l-211 225l-213 -225l-131 92zM342 924l59 -211q57 -205 84 -334q4 14 138 471l16 55h303q18 -63 61.5 -225t81.5 -320q31 135 93 347l63 217h303l-325 -924h-279q-100 336 -152 551q-10 -45 -54 -206t-101 -345h-291l-309 924h309z" />
    <glyph glyph-name="Ycircumflex" unicode="&#x176;" horiz-adv-x="1284" 
d="M526 1765h246l221 -299l-133 -92l-211 225l-213 -225l-131 92zM365 1313l131 -228q57 -100 99 -181t52 -101q10 23 52 103.5t100 178.5l133 228h336l-475 -801v-512h-301v512l-474 801h347z" />
    <glyph glyph-name="ycircumflex" unicode="&#x177;" horiz-adv-x="1101" 
d="M432 1376h246l221 -299l-133 -92l-211 225l-213 -225l-131 92zM1081 924l-428 -1074q-35 -84 -76.5 -146t-123.5 -109.5t-207 -47.5q-84 0 -189 23l4 233q76 -14 134 -14q70 0 110.5 19.5t60 48t35.5 73.5l17 41l-395 953h309l217 -605l229 605h303z" />
    <glyph glyph-name="Ydieresis" unicode="&#x178;" horiz-adv-x="1284" 
d="M345 1423q-40 39 -40 99q0 61 40 100t99 39t98.5 -39t39.5 -100q0 -57 -39 -97.5t-99 -40.5q-59 0 -99 39zM755 1424q-40 40 -40 98q0 61 40 100t99 39t98 -39t39 -100q0 -57 -39 -97.5t-98 -40.5t-99 40zM365 1313l131 -228q57 -100 99 -181t52 -101q10 23 52 103.5
t100 178.5l133 228h336l-475 -801v-512h-301v512l-474 801h347z" />
    <glyph glyph-name="Zacute" unicode="&#x179;" horiz-adv-x="1132" 
d="M489 1475l328 348l137 -140l-383 -297zM1059 1083l-594 -813h588v-270h-981v242l596 800h-584v271h975v-230z" />
    <glyph glyph-name="zacute" unicode="&#x17a;" horiz-adv-x="929" 
d="M383 1085l328 349l137 -140l-383 -297zM78 252l414 422h-414v250h774v-254l-426 -416h426v-254h-774v252z" />
    <glyph glyph-name="Zdotaccent" unicode="&#x17b;" horiz-adv-x="1132" 
d="M472 1428.5q-40 39.5 -40 99.5q0 61 39 99t100 38q59 0 98.5 -38t39.5 -99q0 -59 -39 -99t-99 -40q-59 0 -99 39.5zM1059 1083l-594 -813h588v-270h-981v242l596 800h-584v271h975v-230z" />
    <glyph glyph-name="zdotaccent" unicode="&#x17c;" horiz-adv-x="929" 
d="M366 1039q-40 40 -40 100q0 61 38.5 99t100.5 38q59 0 98 -38t39 -99q0 -59 -39 -99.5t-98 -40.5t-99 40zM78 252l414 422h-414v250h774v-254l-426 -416h426v-254h-774v252z" />
    <glyph glyph-name="Zcaron" unicode="&#x17d;" horiz-adv-x="1132" 
d="M358 1780l213 -226l211 226l133 -92l-221 -299h-245l-222 299zM1059 1083l-594 -813h588v-270h-981v242l596 800h-584v271h975v-230z" />
    <glyph glyph-name="zcaron" unicode="&#x17e;" horiz-adv-x="929" 
d="M252 1391l213 -226l211 226l133 -93l-221 -299h-246l-221 299zM78 252l414 422h-414v250h774v-254l-426 -416h426v-254h-774v252z" />
    <glyph glyph-name="florin" unicode="&#x192;" horiz-adv-x="1339" 
d="M880 1025q-44 -40 -59 -128l-6 -35h348v-209h-381l-51 -315q-31 -182 -144.5 -260t-305.5 -78h-168l-2 250h129q106 0 155 46t66 153l33 204h-240v209h274l15 88q35 207 147.5 285t317.5 78h155v-248h-139q-100 0 -144 -40z" />
    <glyph glyph-name="Aringacute" unicode="&#x1fa;" horiz-adv-x="1298" 
d="M586 1680l383 286l111 -161l-429 -226zM499.5 1247q63.5 -37 149.5 -37q84 0 148.5 37t98.5 96.5t34 126.5q0 68 -35 128.5t-98.5 97.5t-147.5 37q-86 0 -149.5 -37t-97 -97.5t-33.5 -128.5t33.5 -127t97 -96zM722 1398q-30 -32 -73 -32q-45 0 -74.5 30.5t-29.5 78.5
q0 43 29.5 72.5t74.5 29.5q43 0 73 -30.5t30 -71.5q0 -45 -30 -77zM506 1313h289l487 -1313h-317l-97 270h-442l-98 -270h-312zM782 520l-51 142q-18 55 -53 165l-27 82q-6 -27 -31.5 -99.5t-54.5 -147.5l-53 -142h270z" />
    <glyph glyph-name="aringacute" unicode="&#x1fb;" horiz-adv-x="1191" 
d="M565 1178l328 348l137 -140l-383 -296zM374.5 860q63.5 -37 149.5 -37q84 0 148.5 37t98.5 96.5t34 126.5q0 68 -35 128.5t-98.5 97.5t-147.5 37q-86 0 -149.5 -37t-97 -97.5t-33.5 -128.5t33.5 -127t97 -96zM597 1010.5q-30 -31.5 -73 -31.5q-45 0 -74.5 30.5
t-29.5 77.5q0 43 29.5 73t74.5 30q43 0 73 -31t30 -72q0 -45 -30 -76.5zM1090 924v-924h-275v106q-47 -61 -131 -97t-182 -36q-129 0 -228.5 60.5t-153.5 169t-54 252.5q0 150 58 263t163.5 175.5t240.5 62.5q199 0 303 -122l19 90h240zM740.5 295.5q62.5 64.5 62.5 171.5
q0 104 -62.5 167.5t-162.5 63.5t-160 -64.5t-60 -168.5t60.5 -169t159.5 -65q100 0 162.5 64.5z" />
    <glyph glyph-name="AEacute" unicode="&#x1fc;" horiz-adv-x="1802" 
d="M983 1511l328 349l137 -140l-383 -297zM1108 1034v-233l526 -2v-269h-526v-247l592 -2v-281l-592 2v-2h-281v285h-354l-113 -285h-342l547 1298v15h1135v-281zM827 1034h-59l-195 -493h254v493z" />
    <glyph glyph-name="aeacute" unicode="&#x1fd;" horiz-adv-x="1681" 
d="M748 1141l327 348l137 -139l-383 -297zM1620 295q-37 -145 -163 -233.5t-302 -88.5q-125 0 -222 43t-151 117q-49 -76 -140 -118t-210 -42q-168 0 -266 81t-98 218q0 135 99 216t279 81h203v29q0 68 -42 104.5t-115 36.5q-72 0 -116 -31.5t-48 -84.5h-238
q4 150 121 241.5t299 91.5q205 0 309 -122q131 121 328 120q137 0 242.5 -57t164 -157.5t58.5 -227.5q0 -43 -5 -80t-8 -47h-651q2 -76 58.5 -126t150.5 -50q68 0 117 22.5t69 63.5h277zM1003.5 679q-49.5 -42 -53.5 -110h371q-2 70 -54.5 111t-129.5 41q-84 0 -133.5 -42z
M651 389h-135q-86 0 -122 -31.5t-36 -76.5q0 -47 34 -73t91 -26q78 0 123 44t45 118v45z" />
    <glyph glyph-name="Oslashacute" unicode="&#x1fe;" horiz-adv-x="1544" 
d="M727 1556l328 349l137 -140l-383 -297zM1135.5 1257q160.5 -86 252 -241.5t91.5 -356.5t-91.5 -356.5t-252 -241.5t-365.5 -86q-203 0 -363.5 86t-250.5 241t-90 355q0 201 90 356.5t250.5 242.5t365.5 87q203 0 363.5 -86zM570 1014q-89 -51 -139 -143.5t-50 -213.5
q0 -152 80 -260l407 658q-47 10 -94 10q-115 0 -204 -51zM974 305q89 51 138 143.5t49 210.5q0 162 -88 273l-405 -666q49 -12 104 -12q113 0 202 51z" />
    <glyph glyph-name="oslashacute" unicode="&#x1ff;" horiz-adv-x="1157" 
d="M498 1118l327 348l138 -139l-383 -297zM178 -10l654 1040l152 -93l-655 -1040zM130.5 718.5q64.5 112.5 181 175t268.5 62.5t267.5 -62.5t180 -175t64.5 -255.5q0 -141 -64.5 -253t-181.5 -174.5t-266 -62.5q-152 0 -268.5 62.5t-181 174.5t-64.5 253q0 143 64.5 255.5z
M419.5 293.5q61.5 -66.5 160.5 -66.5q98 0 159.5 66.5t61.5 171.5q0 104 -60.5 169.5t-160.5 65.5t-161 -65.5t-61 -169.5q0 -105 61.5 -171.5z" />
    <glyph glyph-name="uni0218" unicode="&#x218;" horiz-adv-x="1189" 
d="M692 -150.5q39 -46.5 39 -117.5q0 -109 -65.5 -182.5t-194.5 -77.5v57q72 12 108.5 47t41.5 86q-20 -12 -50 -12q-51 0 -82.5 33.5t-31.5 83.5q0 57 37.5 93t97.5 36q61 0 100 -46.5zM163.5 1145q61.5 94 172 145t258.5 51q143 0 255 -50t174 -142t64 -211h-309
q-2 68 -58 110t-142 42q-76 0 -122 -35t-46 -94q0 -55 39.5 -83t117.5 -47l207 -47q174 -41 261 -141t87 -244q0 -129 -64.5 -225t-182 -148.5t-273.5 -52.5q-233 0 -377.5 113t-158.5 307h307q6 -80 68.5 -124t164.5 -44q94 0 147.5 38t53.5 104q0 53 -35 82.5t-98 44.5
l-217 51q-184 43 -269.5 141t-85.5 238q0 127 61.5 221z" />
    <glyph glyph-name="uni0219" unicode="&#x219;" horiz-adv-x="927" 
d="M604 -136q39 -46 39 -118q0 -109 -65.5 -182.5t-194.5 -77.5v57q72 12 108.5 47t40.5 86q-20 -12 -49 -12q-51 0 -82.5 34t-31.5 83q0 57 37.5 93t97.5 36q61 0 100 -46zM189.5 56q-111.5 83 -123.5 227h282q2 -47 38 -73t91 -26q49 0 78 18.5t29 55.5q0 33 -22.5 48.5
t-61.5 23.5l-148 37q-264 63 -264 278q0 139 106.5 225t278.5 86q170 0 275.5 -84t109.5 -221h-278q-2 41 -33 65.5t-80 24.5q-43 0 -67.5 -18t-24.5 -51t20.5 -45.5t69.5 -24.5l172 -41q125 -29 183.5 -101.5t58.5 -172.5q0 -143 -108.5 -228.5t-293.5 -85.5
q-176 0 -287.5 83z" />
    <glyph glyph-name="uni021A" unicode="&#x21a;" horiz-adv-x="1150" 
d="M680 -167q39 -46 39 -118q0 -109 -65.5 -182.5t-194.5 -77.5v58q72 12 108.5 46.5t40.5 86.5q-20 -12 -49 -13q-51 0 -83 34t-32 83q0 57 38 93t98 36q61 0 100 -46zM1118 1042h-391v-1042h-299v1042h-395v271h1085v-271z" />
    <glyph glyph-name="uni021B" unicode="&#x21b;" horiz-adv-x="698" 
d="M446.5 -103.5q38.5 -46.5 38.5 -117.5q0 -109 -65.5 -182.5t-194.5 -77.5v57q72 12 109 47t41 86q-20 -12 -49 -12q-51 0 -83 33.5t-32 83.5q0 57 38 93t97 36q62 0 100.5 -46.5zM657 688h-174v-688h-286v688h-170v236h170v239h286v-239h174v-236z" />
    <glyph glyph-name="uni0237" unicode="&#x237;" horiz-adv-x="569" 
d="M143 924h287v-1368h-285z" />
    <glyph glyph-name="uni0243" unicode="&#x243;" horiz-adv-x="1228" 
d="M1102.5 554q60.5 -85 60.5 -202q0 -170 -126 -261t-341 -91h-555v322h-121v174h121v817h557q139 0 241.5 -45t156 -126t53.5 -186q0 -106 -55.5 -181t-151.5 -103q100 -33 160.5 -118zM436 1061v-281h248q82 0 125 41t43 99q0 59 -41 100t-127 41h-248zM822 296
q46 44 46 116q0 70 -46 110.5t-122 40.5h-264v-67h178v-174h-178v-70h264q76 0 122 44z" />
    <glyph glyph-name="circumflex" unicode="&#x2c6;" horiz-adv-x="942" 
d="M346 1784h246l221 -299l-133 -92l-211 225l-213 -225l-131 92z" />
    <glyph glyph-name="caron" unicode="&#x2c7;" horiz-adv-x="942" 
d="M256 1798l213 -225l211 225l133 -92l-221 -299h-246l-221 299z" />
    <glyph glyph-name="breve" unicode="&#x2d8;" horiz-adv-x="1038" 
d="M768 1493q-100 -86 -248 -86q-156 0 -253 89t-105 237h196q2 -66 47.5 -103t114.5 -37q72 0 113 37t45 103h199q-9 -154 -109 -240z" />
    <glyph glyph-name="dotaccent" unicode="&#x2d9;" horiz-adv-x="442" 
d="M120 1444q-40 39 -40 98q0 61 40 100t99 39t98 -38.5t39 -100.5q0 -57 -38.5 -97t-98.5 -40q-59 0 -99 39z" />
    <glyph glyph-name="ring" unicode="&#x2da;" horiz-adv-x="768" 
d="M235.5 1397q-63.5 37 -97.5 96t-34 127t34 128t97.5 97t149.5 37q84 0 147.5 -37t98.5 -97t35 -128t-34 -127t-98.5 -96t-148.5 -37q-86 0 -149.5 37zM457.5 1547.5q29.5 31.5 29.5 76.5q0 41 -29.5 71.5t-72.5 30.5q-45 0 -74.5 -29.5t-29.5 -72.5q0 -47 29.5 -77.5
t74.5 -30.5q43 0 72.5 31.5z" />
    <glyph glyph-name="ogonek" unicode="&#x2db;" horiz-adv-x="575" 
d="M446 0q-57 -37 -84.5 -76t-27.5 -74q0 -31 21.5 -49t58.5 -18q29 0 65 12v-143q-63 -20 -125 -21q-92 0 -145 48.5t-53 117.5q0 53 33.5 107.5t99.5 95.5h157z" />
    <glyph glyph-name="tilde" unicode="&#x2dc;" horiz-adv-x="1017" 
d="M184 1483q0 102 50.5 163.5t132.5 61.5q41 0 76.5 -15.5t84.5 -43.5q25 -14 49.5 -26.5t43.5 -12.5q37 0 50 23.5t11 70.5h139q6 -37 6 -72q0 -96 -49 -154.5t-131 -58.5q-45 0 -83 15.5t-85 44.5q-25 14 -48 25.5t-40 11.5q-39 0 -52 -32t-9 -75h-140q-6 41 -6 74z" />
    <glyph glyph-name="hungarumlaut" unicode="&#x2dd;" horiz-adv-x="1124" 
d="M240 1493l327 350l138 -139l-383 -297zM645 1493l328 350l135 -139l-381 -297z" />
    <glyph glyph-name="gravecomb" unicode="&#x300;" 
d="M-602 1702l135 139l330 -348l-84 -88z" />
    <glyph glyph-name="acutecomb" unicode="&#x301;" 
d="M-451 1493l328 348l137 -139l-383 -297z" />
    <glyph glyph-name="uni0302" unicode="&#x302;" 
d="M-594 1784h244l221 -299l-131 -92l-211 225l-213 -225l-131 92z" />
    <glyph glyph-name="tildecomb" unicode="&#x303;" 
d="M-834 1483q0 102 50.5 163.5t132.5 61.5q41 0 76.5 -15.5t85.5 -43.5q25 -14 49 -26.5t43 -12.5q37 0 50 23.5t11 70.5h139q6 -37 7 -72q0 -96 -49.5 -154.5t-131.5 -58.5q-45 0 -83 15.5t-85 44.5q-25 14 -48 25.5t-40 11.5q-39 0 -52 -32t-9 -75h-139q-7 41 -7 74z" />
    <glyph glyph-name="uni0304" unicode="&#x304;" 
d="M-137 1610v-191h-582v191h582z" />
    <glyph glyph-name="uni0306" unicode="&#x306;" 
d="M-270.5 1493q-100.5 -86 -247.5 -86q-156 0 -253 89t-106 237h197q2 -66 47 -103t115 -37q72 0 112.5 37t45.5 103h198q-8 -154 -108.5 -240z" />
    <glyph glyph-name="uni0307" unicode="&#x307;" 
d="M-333 1447q-40 40 -40 99q0 61 39 99t101 38q59 0 98 -37.5t39 -99.5q0 -59 -39 -99t-98 -40q-60 0 -100 40z" />
    <glyph glyph-name="uni0308" unicode="&#x308;" 
d="M-742 1447q-40 40 -40 99q0 61 38.5 99t100.5 38q59 0 98 -37.5t39 -99.5q0 -59 -39 -99t-98 -40t-99 40zM-333 1447q-40 40 -40 99q0 61 40 99t100 38q59 0 98 -37.5t39 -99.5q0 -59 -39 -99t-98 -40q-60 0 -100 40z" />
    <glyph glyph-name="uni030A" unicode="&#x30a;" 
d="M-532.5 1417q-63.5 37 -97.5 96.5t-34 126.5q0 68 34 128.5t97.5 97.5t149.5 37q84 0 147.5 -37t98.5 -97.5t35 -128.5t-34 -127t-98.5 -96t-148.5 -37q-86 0 -149.5 37zM-310.5 1567.5q29.5 31.5 29.5 77.5q0 41 -29.5 71.5t-72.5 30.5q-45 0 -74.5 -29.5t-29.5 -72.5
q0 -47 29.5 -78t74.5 -31q43 0 72.5 31.5z" />
    <glyph glyph-name="uni030B" unicode="&#x30b;" 
d="M-881 1493l328 348l137 -139l-383 -297zM-475 1493l328 348l135 -139l-381 -297z" />
    <glyph glyph-name="uni030C" unicode="&#x30c;" 
d="M-684 1798l213 -225l211 225l133 -92l-221 -299h-246l-221 299z" />
    <glyph glyph-name="uni0312" unicode="&#x312;" 
d="M-105.5 1613q31.5 -34 31.5 -83q0 -55 -36.5 -91t-98.5 -36q-63 0 -101 46t-38 118q0 109 66.5 182.5t193.5 75.5v-58q-72 -10 -108.5 -47t-41.5 -86q18 12 52 13q49 0 80.5 -34z" />
    <glyph glyph-name="uni0326" unicode="&#x326;" 
d="M-113 -62.5q39 -46.5 39 -117.5q0 -109 -65.5 -182.5t-194.5 -77.5v57q72 12 109 47t41 86q-20 -12 -49 -12q-51 0 -83 33.5t-32 83.5q0 57 38 93t97 36q61 0 100 -46.5z" />
    <glyph glyph-name="uni0327" unicode="&#x327;" 
d="M-281 -111q72 0 133.5 -48t61.5 -146q0 -106 -79 -163.5t-187 -57.5q-98 0 -166 41v143q20 -23 57 -36t74 -13q49 0 83 23.5t34 70.5q0 43 -30 65.5t-77 22.5q-14 0 -43 -4l-59 61l147 224h105v-74l-76 -111z" />
    <glyph glyph-name="uni0338" unicode="&#x338;" 
d="M-1194 -154l778 1237l180 -110l-778 -1237z" />
    <glyph glyph-name="uni03A9" unicode="&#x3a9;" horiz-adv-x="1591" 
d="M1421.5 419q-75.5 -130 -215.5 -206h260v-213h-571v287q129 39 208 140t79 241q0 160 -105.5 255t-275.5 95q-174 0 -280.5 -99.5t-106.5 -259.5q0 -135 75.5 -235t196.5 -137v-287h-573v213h268q-139 76 -213 206t-74 292q0 178 89 318t249 219t365 79q203 0 362.5 -78
t248.5 -218t89 -318q0 -164 -75.5 -294z" />
    <glyph glyph-name="pi" unicode="&#x3c0;" horiz-adv-x="1310" 
d="M49 1108h1116v-227h-161v-525q0 -80 28.5 -107.5t102.5 -27.5h30v-221q-63 -14 -139 -14q-176 0 -240.5 86t-64.5 260v549h-240v-881h-280v881h-152v227z" />
    <glyph glyph-name="uni0E3F" unicode="&#xe3f;" horiz-adv-x="1228" 
d="M1100.5 540.5q62.5 -75.5 62.5 -194.5q0 -168 -125 -257t-342 -89h-24v-211h-152v211h-379v1313h379v194h152v-194h26q211 0 331 -99.5t120 -263.5q0 -115 -57.5 -189.5t-157.5 -107.5q104 -37 166.5 -112.5zM436 1061v-299h248q82 0 125 45t43 102t-42 104.5t-126 47.5
h-248zM822 291q46 39 46 104q0 63 -48 106.5t-120 43.5h-264v-293h264q76 0 122 39z" />
    <glyph glyph-name="Wgrave" unicode="&#x1e80;" horiz-adv-x="1959" 
d="M594 1683l135 140l330 -348l-84 -89zM344 1313l125 -412q53 -172 83 -296t30 -132q27 82 145 498l90 307h328l180 -614l55 -191q0 8 30 132t83 296l127 412h319l-417 -1313h-291l-78 258q-43 141 -99.5 334.5t-72.5 257.5q-16 -61 -70.5 -256t-99.5 -336l-80 -258h-291
l-417 1313h321z" />
    <glyph glyph-name="wgrave" unicode="&#x1e81;" horiz-adv-x="1576" 
d="M414 1294l135 140l330 -349l-84 -88zM342 924l59 -211q57 -205 84 -334q4 14 138 471l16 55h303q18 -63 61.5 -225t81.5 -320q31 135 93 347l63 217h303l-325 -924h-279q-100 336 -152 551q-10 -45 -54 -206t-101 -345h-291l-309 924h309z" />
    <glyph glyph-name="Wacute" unicode="&#x1e82;" horiz-adv-x="1959" 
d="M893 1475l328 350l137 -139l-383 -297zM344 1313l125 -412q53 -172 83 -296t30 -132q27 82 145 498l90 307h328l180 -614l55 -191q0 8 30 132t83 296l127 412h319l-417 -1313h-291l-78 258q-43 141 -99.5 334.5t-72.5 257.5q-16 -61 -70.5 -256t-99.5 -336l-80 -258h-291
l-417 1313h321z" />
    <glyph glyph-name="wacute" unicode="&#x1e83;" horiz-adv-x="1576" 
d="M713 1085l327 351l138 -140l-383 -297zM342 924l59 -211q57 -205 84 -334q4 14 138 471l16 55h303q18 -63 61.5 -225t81.5 -320q31 135 93 347l63 217h303l-325 -924h-279q-100 336 -152 551q-10 -45 -54 -206t-101 -345h-291l-309 924h309z" />
    <glyph glyph-name="Wdieresis" unicode="&#x1e84;" horiz-adv-x="1959" 
d="M671 1423q-40 39 -40 99q0 61 40 100t99 39t98 -39t39 -100q0 -57 -39 -97.5t-98 -40.5t-99 39zM1080 1424q-40 40 -40 98q0 61 40 100t100 39q59 0 98 -39t39 -100q0 -57 -39 -97.5t-98 -40.5q-60 0 -100 40zM344 1313l125 -412q53 -172 83 -296t30 -132q27 82 145 498
l90 307h328l180 -614l55 -191q0 8 30 132t83 296l127 412h319l-417 -1313h-291l-78 258q-43 141 -99.5 334.5t-72.5 257.5q-16 -61 -70.5 -256t-99.5 -336l-80 -258h-291l-417 1313h321z" />
    <glyph glyph-name="wdieresis" unicode="&#x1e85;" horiz-adv-x="1576" 
d="M490.5 1034q-39.5 39 -39.5 99q0 61 39.5 100t99.5 39q59 0 98 -39t39 -100q0 -57 -39 -97.5t-98 -40.5q-60 0 -99.5 39zM900 1035q-40 40 -40 98q0 61 40 100t99 39t98.5 -39t39.5 -100q0 -57 -39 -97.5t-99 -40.5q-59 0 -99 40zM342 924l59 -211q57 -205 84 -334
q4 14 138 471l16 55h303q18 -63 61.5 -225t81.5 -320q31 135 93 347l63 217h303l-325 -924h-279q-100 336 -152 551q-10 -45 -54 -206t-101 -345h-291l-309 924h309z" />
    <glyph glyph-name="Ygrave" unicode="&#x1ef2;" horiz-adv-x="1284" 
d="M268 1683l135 140l330 -348l-84 -89zM365 1313l131 -228q57 -100 99 -181t52 -101q10 23 52 103.5t100 178.5l133 228h336l-475 -801v-512h-301v512l-474 801h347z" />
    <glyph glyph-name="ygrave" unicode="&#x1ef3;" horiz-adv-x="1101" 
d="M174 1294l135 140l330 -349l-84 -88zM1081 924l-428 -1074q-35 -84 -76.5 -146t-123.5 -109.5t-207 -47.5q-84 0 -189 23l4 233q76 -14 134 -14q70 0 110.5 19.5t60 48t35.5 73.5l17 41l-395 953h309l217 -605l229 605h303z" />
    <glyph glyph-name="endash" unicode="&#x2013;" horiz-adv-x="1894" 
d="M1749 621v-252h-1604v252h1604z" />
    <glyph glyph-name="emdash" unicode="&#x2014;" horiz-adv-x="2351" 
d="M2206 621v-252h-2061v252h2061z" />
    <glyph glyph-name="quoteleft" unicode="&#x2018;" horiz-adv-x="524" 
d="M393 1027q41 -40 41 -105q0 -70 -46 -114t-120 -44q-80 0 -129 57.5t-49 151.5q0 133 91 223t243 104v-75q-90 -10 -140.5 -58.5t-50.5 -111.5q25 12 58 12q61 0 102 -40z" />
    <glyph glyph-name="quoteright" unicode="&#x2019;" horiz-adv-x="524" 
d="M385 1267.5q49 -57.5 49 -151.5q0 -133 -90 -223t-244 -105v76q92 10 141.5 58.5t49.5 111.5q-25 -12 -58 -12q-59 0 -100 40t-41 105q0 70 45 114t119 44q80 0 129 -57.5z" />
    <glyph glyph-name="quotesinglbase" unicode="&#x201a;" horiz-adv-x="555" 
d="M397 260l-237 -534h-146l92 534h291z" />
    <glyph glyph-name="quotedblleft" unicode="&#x201c;" horiz-adv-x="944" 
d="M393 1028q41 -41 41 -106q0 -68 -47 -113t-121 -45q-80 0 -128 56.5t-48 152.5q0 129 88 221t242 106v-75q-84 -10 -135.5 -57.5t-51.5 -110.5q33 12 58 12q61 0 102 -41zM815 1028q41 -41 41 -106q0 -68 -46 -113t-118 -45q-82 0 -131 57.5t-49 151.5q0 133 92 224
t240 103v-75q-86 -10 -136.5 -55.5t-52.5 -112.5q27 12 58 12q61 0 102 -41z" />
    <glyph glyph-name="quotedblright" unicode="&#x201d;" horiz-adv-x="948" 
d="M385 1267.5q49 -57.5 49 -151.5q0 -133 -90 -223t-244 -105v76q92 10 141.5 58.5t49.5 111.5q-25 -12 -58 -12q-59 0 -100 40t-41 105q0 70 45 114t119 44q80 0 129 -57.5zM807 1267.5q49 -57.5 49 -151.5q0 -135 -91 -225t-239 -103v76q90 10 138.5 58.5t50.5 111.5
q-29 -12 -58 -12q-59 0 -101 40t-42 105q0 70 46 114t118 44q80 0 129 -57.5z" />
    <glyph glyph-name="quotedblbase" unicode="&#x201e;" horiz-adv-x="1013" 
d="M492 260l-222 -534h-237l186 534h273zM911 260l-260 -534h-239l225 534h274z" />
    <glyph glyph-name="dagger" unicode="&#x2020;" horiz-adv-x="856" 
d="M772 541h-260v-293h-166v293h-262v153h262v619h166v-619h260v-153z" />
    <glyph glyph-name="daggerdbl" unicode="&#x2021;" horiz-adv-x="786" 
d="M477 903v-209h207v-157h-207v-254h-166v254h-209v157h209v209h-209v156h209v254h166v-254h207v-156h-207z" />
    <glyph glyph-name="bullet" unicode="&#x2022;" horiz-adv-x="1077" 
d="M339 223q-91 51 -143.5 139.5t-52.5 196.5q0 109 52.5 200t143.5 144t202 53t200.5 -53t141 -143t51.5 -201q0 -106 -51.5 -195.5t-141.5 -140.5t-200 -51q-111 0 -202 51z" />
    <glyph glyph-name="ellipsis" unicode="&#x2026;" horiz-adv-x="1595" 
d="M159 15.5q-50 50.5 -50 117.5q0 68 50 119t120 51q68 0 119 -51t51 -119q0 -66 -51.5 -117t-118.5 -51q-70 0 -120 50.5zM679 15.5q-50 50.5 -50 117.5q0 68 50 119t120 51q66 0 117 -51t51 -119q0 -66 -51.5 -117t-116.5 -51q-70 0 -120 50.5zM1195 15.5
q-50 50.5 -50 117.5q0 68 50 119t118 51q70 0 122 -51t52 -119q0 -66 -52.5 -117t-121.5 -51q-68 0 -118 50.5z" />
    <glyph glyph-name="perthousand" unicode="&#x2030;" horiz-adv-x="2299" 
d="M122 1238q40 71 111.5 113t163.5 42q94 0 167 -42t112 -112t39 -152q0 -80 -38 -148.5t-109.5 -110.5t-164.5 -42q-94 0 -167.5 42t-113.5 112t-40 147q0 80 40 151zM178 0l1039 1368h204l-1038 -1368h-205zM308 1000.5q36 -35.5 93 -35.5q55 0 89 35.5t34 86.5
q0 53 -33.5 90t-91.5 37q-57 0 -93 -35.5t-34 -88.5q0 -54 36 -89.5zM902 419.5q40 69.5 112.5 111.5t165.5 42q92 0 164.5 -40.5t112.5 -110.5t40 -152t-39 -150.5t-110.5 -109.5t-163.5 -41q-94 0 -168 42t-114 110.5t-40 148.5t40 149.5zM1623 419.5q40 69.5 111.5 111.5
t163.5 42q94 0 167 -42t112 -111.5t39 -149.5t-38 -149.5t-109.5 -110.5t-165.5 -41t-167 42t-113 110.5t-40 148.5t40 149.5zM1088.5 183q37.5 -36 91.5 -36q57 0 91 36t34 87q0 53 -34 89t-91 36t-93 -35.5t-36 -87.5q0 -53 37.5 -89zM1810.5 182q34.5 -35 92.5 -35
q55 0 88.5 36t33.5 87q0 53 -33.5 89t-90.5 36t-91 -35.5t-34 -89.5q0 -53 34.5 -88z" />
    <glyph glyph-name="minute" unicode="&#x2032;" horiz-adv-x="419" 
d="M104 1282q41 43 107 43q63 0 104 -43t41 -111q0 -16 -6 -41l-100 -473h-80l-100 469q-6 37 -7 45q0 68 41 111z" />
    <glyph glyph-name="guilsinglleft" unicode="&#x2039;" horiz-adv-x="710" 
d="M444 463l220 -391h-314l-221 391l221 387h314z" />
    <glyph glyph-name="guilsinglright" unicode="&#x203a;" horiz-adv-x="710" 
d="M582 463l-222 -391h-313l217 391l-217 387h313z" />
    <glyph glyph-name="uni2042" unicode="&#x2042;" horiz-adv-x="1841" 
d="M969 1063q16 -78 16 -145v-134h-133v134q0 63 16 145q-55 -51 -118 -86l-113 -68l-68 117l115 66q61 37 135 59q-72 18 -135 55l-115 68l68 115l113 -66q72 -39 118 -86q-16 78 -16 145v134h133v-134q0 -68 -16 -145q49 47 118 86l115 66l66 -115l-113 -68
q-66 -37 -135 -55q80 -27 135 -59l113 -66l-66 -117l-115 68q-57 33 -118 86zM674 399q-61 -35 -133 -55q76 -25 133 -59l114 -66l-67 -117l-113 68q-68 39 -119 86q16 -78 17 -145v-134h-133v134q0 68 16 145q-61 -53 -119 -86l-114 -68l-66 117l115 66q57 35 133 59
q-72 20 -133 55l-115 68l66 115l114 -66q70 -39 119 -86q-16 78 -16 145v134h133v-134q0 -68 -17 -145q43 43 119 86l113 66l67 -115zM1634 285l113 -66l-66 -117l-114 68q-63 35 -117 86q14 -68 14 -145v-134h-131v134q0 84 17 145q-61 -53 -119 -86l-115 -68l-65 117
l112 66q61 37 135 59q-72 18 -135 55l-112 68l65 115l115 -66q70 -39 119 -86q-16 61 -17 145v134h131v-134q0 -78 -14 -145q45 45 117 86l114 66l66 -115l-113 -68q-63 -37 -135 -55q74 -22 135 -59z" />
    <glyph glyph-name="fraction" unicode="&#x2044;" horiz-adv-x="1191" 
d="M76 0l915 1399l125 -80l-917 -1395z" />
    <glyph glyph-name="uni2070" unicode="&#x2070;" horiz-adv-x="940" 
d="M175.5 583q-107.5 130 -107.5 349q0 217 108.5 347t292.5 130q186 0 295.5 -130t109.5 -347t-109.5 -348t-295.5 -131t-293.5 130zM599 730q46 75 46 202q0 125 -46 200.5t-128 75.5q-86 0 -132 -75.5t-46 -200.5q0 -123 46 -200t132 -77q82 0 128 75z" />
    <glyph glyph-name="uni2074" unicode="&#x2074;" horiz-adv-x="849" 
d="M801 838v-185h-119v-182h-219v182h-414v166l322 570h311v-551h119zM463 838v321l-180 -319z" />
    <glyph glyph-name="uni2075" unicode="&#x2075;" horiz-adv-x="876" 
d="M640 1055q73 -41 114 -113t41 -160q0 -94 -47.5 -168.5t-130 -116.5t-183.5 -42q-100 0 -181 41t-126 114.5t-45 167.5h219q0 -53 38 -86t93 -33q57 0 97 35t40 92q0 53 -37.5 89t-99.5 36q-37 0 -71.5 -14t-51.5 -37l-217 21l121 508h520v-193h-352l-33 -121
q55 20 127 21q92 0 165 -41z" />
    <glyph glyph-name="uni2076" unicode="&#x2076;" horiz-adv-x="888" 
d="M718 1014q97 -86 97 -226q0 -96 -48 -171.5t-134 -118.5t-195 -43t-190.5 44t-125.5 118.5t-44 162.5q0 90 38 165t103 167l199 277h244l-216 -289h29q146 0 243 -86zM548 691q42 34 42 89q0 59 -43 93t-103 34q-55 0 -97 -32.5t-42 -90.5q0 -59 42 -93t99 -34
q60 0 102 34z" />
    <glyph glyph-name="uni2077" unicode="&#x2077;" horiz-adv-x="704" 
d="M676 1389v-172l-344 -746h-240l336 725h-399v193h647z" />
    <glyph glyph-name="uni2078" unicode="&#x2078;" horiz-adv-x="835" 
d="M733 877.5q35 -56.5 35 -127.5q0 -135 -98.5 -215t-251.5 -80q-154 0 -252 79.5t-98 215.5q0 72 33.5 128t91.5 85q-43 31 -70 82t-27 106q0 72 41 131t114 93t167 34t166.5 -34t113.5 -93t41 -131q0 -59 -28.5 -109.5t-71.5 -78.5q59 -29 94 -85.5zM345 1191
q-30 -26 -30 -61q0 -39 31 -64.5t72 -25.5q39 0 68.5 26t29.5 64q0 37 -28.5 62t-71.5 25q-41 0 -71 -26zM505 685q34 28 34 73t-33 72.5t-88 27.5t-89 -28.5t-34 -71.5t33.5 -72t87.5 -29q55 0 89 28z" />
    <glyph glyph-name="uni2079" unicode="&#x2079;" horiz-adv-x="892" 
d="M644 1364q83 -43 127 -116.5t44 -162.5q0 -88 -38 -166.5t-103 -168.5l-197 -279h-246l215 293q-10 -2 -30 -2q-94 0 -171 39t-122 110.5t-45 163.5q0 96 48 172t133 118t192 42q110 0 193 -43zM345 987q42 -35 101 -35t100.5 34t41.5 91q0 59 -42 94t-100 35
q-57 0 -100 -33.5t-43 -91.5q0 -59 42 -94z" />
    <glyph glyph-name="uni2080" unicode="&#x2080;" horiz-adv-x="940" 
d="M175.5 112q-107.5 130 -107.5 349q0 217 108.5 347t292.5 130q186 0 295.5 -130t109.5 -347t-109.5 -348t-295.5 -131t-293.5 130zM599 259q46 75 46 202q0 125 -46 200.5t-128 75.5q-86 0 -132 -75.5t-46 -200.5q0 -123 46 -200t132 -77q82 0 128 75z" />
    <glyph glyph-name="uni2081" unicode="&#x2081;" horiz-adv-x="628" 
d="M66 768q102 0 165.5 41t79.5 109h185v-918h-228v608h-202v160z" />
    <glyph glyph-name="uni2082" unicode="&#x2082;" horiz-adv-x="813" 
d="M712.5 524.5q-24.5 -57.5 -79.5 -125t-182 -200.5h264v-199h-600v156l114 116q123 125 177.5 183.5t80 101.5t25.5 82q0 49 -28.5 72.5t-75.5 23.5q-55 0 -84 -34.5t-25 -86.5h-221q-6 96 37 170t122.5 114t180.5 40q143 0 231 -78t88 -205q0 -73 -24.5 -130.5z" />
    <glyph glyph-name="uni2083" unicode="&#x2083;" horiz-adv-x="837" 
d="M701.5 474q66.5 -73 66.5 -181q0 -88 -45 -159t-126 -110.5t-181 -39.5q-152 0 -250 87t-96 234h219q0 -53 38 -86t93 -33q53 0 89 31t36 76q0 59 -47 94t-113 31h-51h-76v145l166 162h-305v193h598v-175l-180 -176q98 -20 164.5 -93z" />
    <glyph glyph-name="uni2084" unicode="&#x2084;" horiz-adv-x="849" 
d="M801 367v-185h-119v-182h-219v182h-414v166l322 570h311v-551h119zM463 367v321l-180 -319z" />
    <glyph glyph-name="uni2085" unicode="&#x2085;" horiz-adv-x="878" 
d="M642 584q73 -41 114 -113t41 -160q0 -94 -48.5 -168.5t-131 -116.5t-183.5 -42q-100 0 -181 41t-126 114.5t-45 167.5h219q0 -53 38 -86t93 -33q59 0 98 35t39 92q0 53 -37.5 89t-99.5 36q-37 0 -71.5 -14t-51.5 -37l-217 21l121 508h520v-193h-352l-33 -121
q55 20 127 21q94 0 167 -41z" />
    <glyph glyph-name="uni2086" unicode="&#x2086;" horiz-adv-x="888" 
d="M648 590q77 -39 122 -109.5t45 -163.5q0 -96 -48 -171.5t-133 -118.5t-194 -43q-111 0 -192.5 44t-125.5 118.5t-44 162.5q0 90 38 165t103 167l199 277h244l-216 -291q12 2 33 2q92 0 169 -39zM548 220q42 34 42 89q0 59 -43 93t-101 34q-57 0 -99 -32.5t-42 -90.5
q0 -59 42 -93t102 -34q57 0 99 34z" />
    <glyph glyph-name="uni2087" unicode="&#x2087;" horiz-adv-x="704" 
d="M676 918v-173l-344 -745h-240l336 725h-399v193h647z" />
    <glyph glyph-name="uni2088" unicode="&#x2088;" horiz-adv-x="835" 
d="M733 406.5q35 -56.5 35 -127.5q0 -135 -98.5 -215t-251.5 -80q-154 0 -252 79.5t-98 215.5q0 72 33.5 128t91.5 85q-43 31 -70 82t-27 106q0 72 41 131t114 93t167 34t166.5 -34t113.5 -93t41 -131q0 -59 -28.5 -109.5t-71.5 -78.5q59 -29 94 -85.5zM345 719.5
q-30 -25.5 -30 -60.5q0 -39 31 -64.5t72 -25.5q39 0 68.5 26t29.5 64q0 37 -28.5 61.5t-71.5 24.5q-41 0 -71 -25.5zM505 214q34 28 34 73t-33 72.5t-88 27.5t-89 -28.5t-34 -71.5t33.5 -72t87.5 -29q55 0 89 28z" />
    <glyph glyph-name="uni2089" unicode="&#x2089;" horiz-adv-x="892" 
d="M644 893q83 -43 127 -117t44 -162t-38 -166.5t-103 -168.5l-197 -279h-246l218 293q-12 -2 -35 -2q-94 0 -170 39t-121 110.5t-45 163.5q0 96 48 172t133 118t192 42q110 0 193 -43zM345 516q42 -35 101 -35t100.5 34t41.5 91q0 59 -42 94t-100 35q-57 0 -100 -33.5
t-43 -91.5q0 -59 42 -94z" />
    <glyph glyph-name="uni20AA" unicode="&#x20aa;" horiz-adv-x="1538" 
d="M141 1405h537q203 0 292 -113.5t89 -322.5v-529h-232v537q0 119 -58 166t-169 47h-229v-1190h-230v1405zM568 113.5q-89 113.5 -89 322.5v529h232v-537q0 -119 58 -166t169 -47h231v1190h228v-1405h-537q-203 0 -292 113.5z" />
    <glyph glyph-name="Euro" unicode="&#x20ac;" horiz-adv-x="1251" 
d="M537 913h426l-35 -198h-457q-2 -18 -2 -56q0 -39 2 -57h434l-35 -199h-335q117 -176 399 -176q106 0 194 27v-252q-104 -29 -219 -29q-252 0 -427 114t-242 316h-148v199h111q-2 16 -2 51q0 41 2 62h-111v198h150q70 201 240.5 314.5t410.5 113.5q74 0 142.5 -10
t92.5 -18v-252q-74 25 -188 24q-284 0 -403 -172z" />
    <glyph glyph-name="uni20B9" unicode="&#x20b9;" horiz-adv-x="1269" 
d="M1151 1104h-272q37 -51 53 -121h219v-209h-215q-51 -264 -332 -311l309 -463h-348l-344 514v150h195q186 0 225 110h-422v209h420q-14 61 -73.5 91t-149.5 30h-195v209h930v-209z" />
    <glyph glyph-name="uni2116" unicode="&#x2116;" horiz-adv-x="2562" 
d="M1675.5 525.5q-106.5 54.5 -166 152.5t-59.5 227q0 127 60.5 225.5t166 152.5t238.5 54q135 0 240.5 -54t166 -152.5t60.5 -225.5t-60.5 -226t-166 -153.5t-240.5 -54.5q-133 0 -239.5 54.5zM176 1313h252l621 -889v889h247v-1313h-247l-621 891v-891h-252v1313z
M2074.5 760.5q61.5 60.5 61.5 146.5q0 84 -60.5 143.5t-158.5 59.5t-158.5 -59.5t-60.5 -143.5t60.5 -145.5t158.5 -61.5q96 0 157.5 60.5zM1599 344h635v-201h-635v201z" />
    <glyph glyph-name="uni2117" unicode="&#x2117;" horiz-adv-x="1351" 
d="M949 1144.5q122 -69.5 192.5 -191.5t70.5 -269t-70.5 -268t-192.5 -190.5t-271 -69.5q-152 0 -274.5 69.5t-193.5 190.5t-71 268q0 150 71 270.5t193.5 190t274.5 69.5q149 0 271 -69.5zM884 334q91 53 143 145t52 205q0 115 -52 207t-143 145.5t-206 53.5
q-117 0 -209 -53.5t-144.5 -146.5t-52.5 -206t52.5 -205t145.5 -145t208 -53t206 53zM876.5 879q49.5 -45 49.5 -119q2 -74 -47.5 -120t-130.5 -46h-119v-170h-125v500h244q79 0 128.5 -45zM779.5 710.5q19.5 18.5 19.5 49.5t-19.5 46t-54.5 15h-96v-129h96q35 0 54.5 18.5z
" />
    <glyph glyph-name="trademark" unicode="&#x2122;" horiz-adv-x="1654" 
d="M51 1405h604v-154h-204v-618h-189v618h-211v154zM737 1405h215l187 -553l186 553h215v-772h-188v115q0 78 10 227l6 78l-143 -400h-172l-144 400q4 -49 4 -72q12 -184 13 -233v-115h-189v772z" />
    <glyph glyph-name="estimated" unicode="&#x212e;" horiz-adv-x="1515" 
d="M350 590v-285q63 -104 179 -159.5t257 -55.5q125 0 233.5 52.5t164.5 140.5h155q-80 -147 -222 -228.5t-339 -81.5q-199 0 -345 84t-225 239t-79 359q0 213 82 368t227.5 236.5t335.5 81.5q186 0 324.5 -79.5t212 -230t73.5 -355.5q0 -35 -2 -57.5t-2 -28.5h-1030z
M542.5 1164q-104.5 -50 -175.5 -144v-311h782v342q-68 78 -165 120.5t-210 42.5q-127 0 -231.5 -50z" />
    <glyph glyph-name="oneeighth" unicode="&#x215b;" horiz-adv-x="1648" 
d="M1582 381q32 -51 32 -121q0 -127 -93 -201t-237 -73q-145 0 -236 74q-91 75 -92 200q0 68 30 120t83 77q-39 27 -63 73q-25 47 -25 99q0 104 86 174t217 69q131 0 217 -69q86 -70 86 -176q0 -53 -25 -100q-26 -46 -65 -70q53 -25 85 -76zM1226 658q-24 -19 -24 -50
t27 -52q27 -22 55 -21q33 0 59 20q27 20 27 51q0 33 -24 52q-25 19 -62 20q-34 -1 -58 -20zM1360 209q29 25 29 61q0 37 -30 61t-75 23q-47 0 -76 -24q-29 -25 -28 -60q0 -37 28 -61q29 -25 76 -25t76 25zM246 0l915 1399l125 -80l-917 -1395zM39 1165q102 0 164 40
q61 40 80 108h180v-854h-223v549h-201v157z" />
    <glyph glyph-name="threeeighths" unicode="&#x215c;" horiz-adv-x="1771" 
d="M1705 381q32 -51 32 -121q0 -127 -93 -201t-237 -73q-145 0 -237 74q-91 75 -91 200q0 68 30 120t83 77q-39 27 -64 73q-25 47 -24 99q0 104 86 174t217 69q131 0 217 -69q86 -70 86 -176q0 -53 -26 -100q-26 -46 -64 -70q53 -25 85 -76zM1349 658q-24 -19 -24 -50
t27 -52q27 -22 55 -21q33 0 59 20q27 20 27 51q0 33 -25 52t-61 20q-34 -1 -58 -20zM1483 209q29 25 28 61q0 37 -29 61q-30 24 -75 23q-47 0 -76 -24q-29 -25 -28 -60q0 -37 28 -61q29 -25 76 -25t76 25zM369 0l915 1399l125 -80l-917 -1395zM634 897q60 -66 60 -166
q0 -125 -93 -206t-239 -81q-147 0 -238 83t-87 218h217q0 -45 32 -74q32 -30 81 -30q47 0 75 28q29 28 29 66q0 49 -44 80t-97 27q-2 0 -15 -2q-12 -2 -30 -2h-74v145l143 137h-270v193h561v-172l-162 -158q91 -20 151 -86z" />
    <glyph glyph-name="fiveeighths" unicode="&#x215d;" horiz-adv-x="1810" 
d="M1744 381q32 -51 32 -121q0 -127 -94 -201q-93 -74 -236 -73q-145 0 -237 74q-91 75 -91 200q0 68 30 120t83 77q-39 27 -64 73q-25 47 -24 99q0 104 86 174t217 69q131 0 217 -69q86 -70 86 -176q0 -53 -26 -100q-26 -46 -64 -70q53 -25 85 -76zM1388 658
q-24 -19 -24 -50t27 -52q27 -22 55 -21q33 0 59 20q27 20 27 51q0 33 -25 52t-61 20q-34 -1 -58 -20zM1522 209q29 25 28 61q0 37 -29 61q-30 24 -75 23q-47 0 -76 -24q-29 -25 -29 -60q0 -37 29 -61q29 -25 76 -25t76 25zM408 0l915 1399l125 -80l-918 -1395zM577 1004
q69 -39 106 -106q38 -67 38 -146q0 -90 -46 -160t-124 -108t-172 -38q-145 0 -239 83q-93 83 -93 219h217q0 -45 33 -75t80 -30q49 0 84 30t35 81q0 45 -33 76q-33 32 -86 32q-33 0 -62 -12t-45 -33l-215 23l111 473h493v-193h-325l-25 -94q47 16 111 16q88 1 157 -38z" />
    <glyph glyph-name="uni2160" unicode="&#x2160;" horiz-adv-x="1009" 
d="M653 1063v-813h269v-250h-832v250h272v813h-272v250h832v-250h-269z" />
    <glyph glyph-name="uni2161" unicode="&#x2161;" horiz-adv-x="1605" 
d="M90 250h279v813h-279v250h1430v-250h-279v-813h279v-250h-1430v250zM950 250v813h-291v-813h291z" />
    <glyph glyph-name="uni2162" unicode="&#x2162;" horiz-adv-x="2166" 
d="M90 250h279v813h-279v250h1991v-250h-279v-813h279v-250h-1991v250zM940 250v813h-281v-813h281zM1511 250v813h-280v-813h280z" />
    <glyph glyph-name="uni2163" unicode="&#x2163;" horiz-adv-x="2160" 
d="M88 0v250h268v813h-268v250h1987v-250h-217l-271 -813h490v-250h-1989zM1077 250l-270 813h-158v-813h428zM1114 1063l221 -711l224 711h-445z" />
    <glyph glyph-name="uni2164" unicode="&#x2164;" horiz-adv-x="1648" 
d="M1348 1063l-269 -813h480v-250h-1467v250h475l-270 813h-207v250h1473v-250h-215zM604 1063l223 -711l224 711h-447z" />
    <glyph glyph-name="uni2165" unicode="&#x2165;" horiz-adv-x="2154" 
d="M88 0v250h481l-272 813h-209v250h1978v-250h-270v-813h270v-250h-1978zM604 1063l223 -711l224 711h-447zM1503 250v813h-155l-267 -813h422z" />
    <glyph glyph-name="uni2166" unicode="&#x2166;" horiz-adv-x="2723" 
d="M88 0v250h481l-272 813h-209v250h2548v-250h-277v-813h277v-250h-2548zM604 1063l223 -711l224 711h-447zM1503 250v813h-155l-269 -813h424zM1794 1063v-813h274v813h-274z" />
    <glyph glyph-name="uni2167" unicode="&#x2167;" horiz-adv-x="3268" 
d="M88 250h479l-270 813h-209v250h3095v-250h-273v-813h273v-250h-3095v250zM1044 1063h-440l221 -711zM1501 250v813h-160l-266 -813h426zM2060 250v813h-266v-813h266zM2617 250v813h-266v-813h266z" />
    <glyph glyph-name="uni2168" unicode="&#x2168;" horiz-adv-x="2105" 
d="M88 0v250h268v813h-268v250h1933v-250h-213l-307 -416l299 -397h221v-250h-1933zM649 1063v-813h170l301 399l-307 414h-164zM1466 1063h-309l154 -219zM1456 250l-149 201l-150 -201h299z" />
    <glyph glyph-name="uni2169" unicode="&#x2169;" horiz-adv-x="1593" 
d="M1294 1063l-305 -418l297 -395h221v-250h-1417v250h215l303 399l-309 414h-209v250h1417v-250h-213zM954 1063h-309l156 -213zM942 250l-149 201l-148 -201h297z" />
    <glyph glyph-name="uni216C" unicode="&#x216c;" horiz-adv-x="1343" 
d="M90 0v250h238v813h-238v250h784v-250h-256v-813h363v350h274v-600h-1165z" />
    <glyph glyph-name="uni216D" unicode="&#x216d;" horiz-adv-x="1517" 
d="M412.5 59q-152.5 86 -237.5 241t-85 355q0 201 84 356.5t236.5 241.5t349.5 86q127 0 230.5 -38.5t164.5 -110.5v121h266v-498h-280q-12 61 -53 123.5t-116 104.5t-181 42q-119 0 -210.5 -53t-142.5 -150.5t-51 -224.5q0 -125 51 -222t142.5 -150.5t210.5 -53.5
q106 0 181 42t115.5 104.5t53.5 124.5h280v-500h-266v125q-61 -72 -165.5 -112t-227.5 -40q-197 0 -349.5 86z" />
    <glyph glyph-name="uni216E" unicode="&#x216e;" horiz-adv-x="1521" 
d="M1126.5 1232q149.5 -81 229.5 -230.5t80 -346.5t-81 -345t-230.5 -229t-350.5 -81h-684v250h248v813h-248v250h688q199 0 348.5 -81zM1032.5 356.5q106.5 106.5 106.5 298.5q0 195 -107.5 301.5t-279.5 106.5h-121v-813h123q172 0 278.5 106.5z" />
    <glyph glyph-name="uni216F" unicode="&#x216f;" horiz-adv-x="2142" 
d="M90 250h236v813h-236v250h617l362 -875l350 875h635v-250h-237v-813h237v-250h-690v250h164v629l-352 -863h-215l-353 856v-622h156v-250h-674v250z" />
    <glyph glyph-name="arrowleft" unicode="&#x2190;" horiz-adv-x="1980" 
d="M1812 430h-1257l406 -498h-302l-491 603l494 606h299l-406 -500l1257 -2v-209z" />
    <glyph glyph-name="arrowup" unicode="&#x2191;" horiz-adv-x="1429" 
d="M1319 733l-500 410v-1282h-213v1278l-495 -406v287l602 489l606 -495v-281z" />
    <glyph glyph-name="arrowright" unicode="&#x2192;" horiz-adv-x="1980" 
d="M1812 535l-491 -603h-299l405 498h-1259v209l1259 2l-405 500h297z" />
    <glyph glyph-name="arrowdown" unicode="&#x2193;" horiz-adv-x="1429" 
d="M1319 547v-279l-606 -497l-602 491v285l495 -406v1276h213v-1278z" />
    <glyph glyph-name="arrowboth" unicode="&#x2194;" horiz-adv-x="2406" 
d="M662 1141h299l-406 -500h1298l-405 500h297l493 -606l-491 -603h-299l405 498h-1298l406 -498h-302l-491 603z" />
    <glyph glyph-name="arrowupdn" unicode="&#x2195;" horiz-adv-x="1544" 
d="M168 291l498 -406v1299l-498 -406v301l602 492l606 -494v-299l-497 406v-1299l497 406v-297l-606 -494l-602 492v299z" />
    <glyph glyph-name="carriagereturn" unicode="&#x21b5;" horiz-adv-x="1482" 
d="M1386 1249v-858h-851v-297l-467 400l467 401v-293h645l-2 647h208z" />
    <glyph glyph-name="uni21BA" unicode="&#x21ba;" horiz-adv-x="1916" 
d="M518 57q-160 84 -254 241t-94 361q0 199 93 354.5t256 241.5t366 86q106 0 200.5 -21.5t159.5 -59.5l-71 -162q-57 31 -133 48t-158 17q-147 0 -266 -63.5t-187 -178t-68 -262.5q0 -150 66 -264t180.5 -177.5t257.5 -63.5q147 0 264 63.5t182.5 176t63.5 257.5h-270
l348 406l350 -406h-243q2 -203 -87.5 -356.5t-248 -237.5t-355.5 -84q-192 0 -352 84z" />
    <glyph glyph-name="uni21BB" unicode="&#x21bb;" horiz-adv-x="1916" 
d="M686 57q-156 84 -244 238t-88 356h-241l348 406l348 -406h-270q0 -145 63.5 -258.5t177 -176t260.5 -62.5q145 0 263 63.5t184.5 179t66.5 262.5t-67.5 262t-186 178.5t-266.5 63.5q-82 0 -158.5 -17.5t-134.5 -47.5l-69 159q63 39 159.5 60.5t202.5 21.5q203 0 366 -86
t255 -240.5t92 -355.5q0 -203 -95.5 -358.5t-257 -240.5t-356.5 -85q-196 0 -352 84z" />
    <glyph glyph-name="partialdiff" unicode="&#x2202;" horiz-adv-x="1210" 
d="M973 1021q74 -130 119 -256t45 -247q0 -160 -69 -283.5t-191.5 -192.5t-280.5 -69q-152 0 -271.5 61.5t-186 173t-66.5 255.5q0 143 65.5 254.5t178 174t249.5 62.5q88 0 174 -32q-98 184 -284 471h293q151 -242 225 -372zM774.5 299q69.5 68 69.5 170q0 104 -69.5 173
t-172.5 69q-102 0 -169.5 -70t-67.5 -172q0 -104 65.5 -171t169.5 -67q105 0 174.5 68z" />
    <glyph glyph-name="emptyset" unicode="&#x2205;" horiz-adv-x="1548" 
d="M1135.5 1255q160.5 -86 252 -241.5t91.5 -356.5t-91.5 -356.5t-252 -241.5t-365.5 -86q-203 0 -363.5 86t-250.5 241t-90 355q0 201 90 356.5t250.5 242.5t365.5 87q203 0 363.5 -86zM570 1012q-89 -51 -139 -143.5t-50 -213.5q0 -94 31 -172l589 512q-100 68 -227 68
q-115 0 -204 -51zM974 303q89 51 138 143.5t49 210.5q0 96 -31 172l-587 -512q96 -66 229 -65q113 0 202 51z" />
    <glyph glyph-name="Delta" unicode="&#x2206;" horiz-adv-x="1333" 
d="M1223 240v-240h-1112v240l424 1073h264zM373 240h588l-295 731z" />
    <glyph glyph-name="product" unicode="&#x220f;" horiz-adv-x="1320" 
d="M92 1192h1153v-268h-176v-551q0 -76 30.5 -108t92.5 -32q16 0 53 5v-240q-76 -16 -133 -16q-158 0 -243 97t-85 277v568h-239v-924h-287v924h-166v268z" />
    <glyph glyph-name="summation" unicode="&#x2211;" horiz-adv-x="1101" 
d="M94 301l389 363l-389 352v297h916v-301h-541l360 -348l-364 -363h545v-301h-916v301z" />
    <glyph glyph-name="minus" unicode="&#x2212;" horiz-adv-x="1015" 
d="M868 745v-239h-721v239h721z" />
    <glyph glyph-name="radical" unicode="&#x221a;" horiz-adv-x="1527" 
d="M1675 1733v-242h-493l-590 -1491h-260l-324 899h254l203 -586l543 1420h667z" />
    <glyph glyph-name="infinity" unicode="&#x221e;" horiz-adv-x="1708" 
d="M130 741.5q54 92.5 146.5 146.5t202.5 54q117 0 210 -47t165 -162q72 113 164 161t213 48q109 0 201 -54t146 -147.5t54 -203.5q0 -111 -54 -203t-146.5 -145.5t-200.5 -53.5q-121 0 -213 47t-164 162q-74 -117 -165 -163t-210 -46q-111 0 -203 53.5t-146 145.5t-54 203
q0 112 54 204.5zM378 433q42 -42 99 -42t115.5 32t87.5 114q-27 84 -85 116.5t-118 32.5q-57 0 -99 -43t-42 -106q0 -62 42 -104zM1114 424q57 -33 119 -33q57 0 100 42t43 104q0 63 -43 106t-100 43q-61 0 -119.5 -34t-85.5 -115q29 -80 86 -113z" />
    <glyph glyph-name="integral" unicode="&#x222b;" horiz-adv-x="905" 
d="M848 1337v-260h-139q-49 0 -80 -25.5t-31 -109.5v-569q0 -178 -104.5 -284.5t-272.5 -106.5h-164v254h142q51 0 80.5 28.5t29.5 108.5v569q0 117 47 207t132 139t196 49h164z" />
    <glyph glyph-name="approxequal" unicode="&#x2248;" horiz-adv-x="884" 
d="M827 829q2 -14 2 -41q0 -127 -67.5 -196.5t-165.5 -69.5q-57 0 -101 21.5t-102 64.5q-41 31 -66.5 45.5t-52.5 14.5q-31 0 -49 -20.5t-18 -63.5q0 -18 2 -29h-152q-2 12 -2 37q0 123 66.5 193.5t165.5 70.5q59 0 103 -22.5t97 -63.5q43 -33 69 -47t54 -14q70 0 70 90
q0 20 -2 30h149zM827 434q2 -14 2 -41q0 -125 -67.5 -194.5t-165.5 -69.5q-57 0 -101 21.5t-102 64.5q-41 31 -66.5 45t-52.5 14q-31 0 -49 -21.5t-18 -64.5q0 -16 2 -26h-152q-2 12 -2 37q0 123 66.5 193.5t165.5 70.5q57 0 101 -22.5t99 -65.5q43 -33 69 -47.5t54 -14.5
q70 0 70 90q0 18 -2 31h149z" />
    <glyph glyph-name="notequal" unicode="&#x2260;" horiz-adv-x="1167" 
d="M772 739l-119 -219h404v-239h-535l-96 -179h-266l98 179h-147v239h276l121 219h-397v240h528l98 180h264l-98 -180h154v-240h-285z" />
    <glyph glyph-name="lessequal" unicode="&#x2264;" horiz-adv-x="1126" 
d="M143 616v232l840 289v-267l-502 -137l502 -139v-266zM141 0v231h842v-231h-842z" />
    <glyph glyph-name="greaterequal" unicode="&#x2265;" horiz-adv-x="1126" 
d="M141 594l504 139l-504 137v267l840 -289v-232l-840 -288v266zM143 231h840v-231h-840v231z" />
    <glyph glyph-name="uni2388" unicode="&#x2388;" horiz-adv-x="1759" 
d="M821 -35q-133 14 -246.5 81t-187.5 171l-197 -113l-61 99l199 114q-55 117 -56 254q0 131 54 250l-195 113l59 102l195 -112q76 106 189.5 172.5t246.5 81.5v223h117v-223q135 -14 248.5 -81t187.5 -173l195 110l61 -98l-196 -115q53 -117 53 -250q0 -137 -55 -252
l196 -114l-59 -103l-197 113q-76 -104 -189.5 -169.5t-244.5 -80.5v-227h-117v227zM821 1040q-96 -12 -179 -60t-138 -124l317 -184v368zM1257 854q-57 78 -140 126t-179 60v-370zM1352 571q0 96 -37 183l-318 -185l318 -182q37 94 37 184zM762 569l-318 183
q-37 -82 -36 -181q0 -90 36 -184zM821 469l-317 -184q57 -74 139 -122t178 -61v367zM1116 161q82 48 137 124l-315 182v-365q96 11 178 59z" />
    <glyph glyph-name="uni2602" unicode="&#x2602;" horiz-adv-x="1812" 
d="M1292.5 1310q151.5 -81 233.5 -220.5t82 -317.5h-76q0 78 -50 126t-132 48q-80 0 -129.5 -48t-49.5 -126h-75q0 70 -41 116t-111 56v-811q0 -111 -68.5 -179.5t-181.5 -68.5q-115 0 -181.5 67.5t-66.5 180.5h66q0 -82 50 -132t132 -50q80 0 128 50t48 132v811
q-72 -10 -112.5 -56t-40.5 -116h-76q0 78 -49 126t-129 48q-82 0 -132 -48t-50 -126h-76q0 178 82 317.5t233.5 220.5t351.5 87l11 131h51l8 -131q199 -6 350.5 -87z" />
    <glyph glyph-name="uni2605" unicode="&#x2605;" horiz-adv-x="1703" 
d="M711 791l141 423l127 -423h457l-363 -254l141 -424l-362 268l-363 -268l142 424l-363 254h443z" />
    <glyph glyph-name="uni2609" unicode="&#x2609;" horiz-adv-x="1945" 
d="M213 152q66 0 106.5 23.5t57.5 92.5l137 787q2 8 2 22q0 53 -32.5 68.5t-94.5 13.5l29 152l467 2l-27 -152q-2 0 -33.5 1t-64.5 -26.5t-41 -80.5l-131 -711q-16 -86 -32.5 -131t-53.5 -78l24 -33q51 41 110.5 51.5t156.5 10.5h591q55 0 86 5t53.5 27.5t30.5 71.5l29 176
h176l-61 -444h-1512zM1519.5 1116.5q16.5 16.5 45.5 16.5q27 0 43 -16.5t16 -45.5q0 -25 -16.5 -42t-42.5 -17q-27 0 -44.5 17.5t-17.5 41.5q0 29 16.5 45.5zM721 442h199l6 33q-80 41 -121 111.5t-41 161.5q0 104 52 189t147.5 134t218.5 49q168 0 271 -88t103 -231
q0 -117 -67.5 -206t-177.5 -120l-8 -33h184l-21 -147h-348l35 215q106 16 172 88t66 168q0 94 -58.5 148.5t-156.5 54.5q-111 0 -180.5 -69t-69.5 -173q0 -80 41 -138.5t108 -78.5l-37 -215h-344zM1530 1037.5q12 -13.5 35 -13.5q20 0 32.5 13.5t12.5 33.5q0 23 -12.5 36
t-32.5 13q-23 0 -35 -12t-12 -35q0 -22 12 -35.5zM1542 1102h27q23 0 22 -19q0 -14 -12 -18l12 -23h-14l-10 21h-13v-21h-12v60zM1567 1071q12 0 12 10t-10 11h-15v-21h13z" />
    <glyph glyph-name="uni261C" unicode="&#x261c;" horiz-adv-x="1832" 
d="M1266 172.5q-82 -22.5 -172 -22.5q-84 0 -152 20q-49 -14 -94 -14q-57 0 -89 24.5t-32 65.5q0 16 2 24q-45 0 -75.5 24.5t-30.5 70.5q0 25 8 41q-39 10 -62.5 38.5t-23.5 65.5q0 16 6 34.5t12 26.5l-305 17q-49 4 -77.5 32.5t-28.5 77.5q0 53 35.5 83t101.5 30l491 2
q0 10 2 27.5t6 31.5q33 125 218 125q106 0 171.5 -32.5t141.5 -96.5q59 -51 104 -77q16 12 44 20t55 8q94 0 136 -92t42 -233q0 -170 -52.5 -239t-125.5 -69q-37 0 -73 12.5t-58 32.5q-43 -36 -125 -58.5zM1112 205q158 0 253 84t95 223q0 66 -17.5 132.5t-45.5 98.5
q-29 14 -60.5 37t-60.5 45q-70 57 -128 86t-149 29q-51 0 -98 -15.5t-57 -60.5q-29 -143 -56 -246q-6 -18 12.5 -28t41.5 -10q47 0 73 41q31 47 31 102q0 20 -6 40.5t-6 31.5q0 10 6 16t14 6q18 0 27 -16q4 -10 10 -29.5t8 -38.5q4 2 13.5 5t29.5 24q14 14 23 14
q23 0 22 -24q0 -16 -10 -29q-23 -31 -84 -57q-8 -39 -30 -68q0 -33 30 -63q55 -55 178 -56q51 0 91 6h4q14 0 22 -7t8 -17q0 -16 -22 -25q-27 -10 -105 -10q-80 0 -131 20q0 -33 -4 -40q72 -18 72 -84t-76 -111q43 -6 82 -6zM1607.5 310.5q32.5 66.5 32.5 191.5
q0 127 -32.5 196.5t-89.5 69.5q-33 0 -58 -18q57 -102 58 -238q0 -76 -21.5 -137.5t-60.5 -100.5q14 -14 30.5 -22t44.5 -8q64 0 96.5 66.5zM733 639q16 35 27 117h-473q-78 0 -78 -58q0 -25 14.5 -39t38.5 -16l389 -18q39 14 82 14zM741.5 480.5q59.5 21.5 69.5 25.5
q25 10 32 11t11 3q-37 2 -69.5 19.5t-49.5 46.5q-57 -6 -96 -23q-33 -10 -33 -51q0 -25 13.5 -39t33.5 -14q29 0 88.5 21.5zM846 353.5q76 27.5 100 41.5q14 8 22.5 21.5t8.5 27.5t-9.5 25.5t-25.5 11.5q-25 0 -101.5 -23.5t-117.5 -39.5q-20 -8 -28.5 -16.5t-8.5 -24.5
q0 -27 16.5 -39t36.5 -12q31 0 107 27.5zM983.5 238.5q63.5 31.5 63.5 78.5q0 18 -10.5 27.5t-24.5 9.5q-31 0 -193 -65q-31 -12 -31 -39q0 -43 60 -43q72 0 135.5 31.5z" />
    <glyph glyph-name="uni261E" unicode="&#x261e;" horiz-adv-x="1832" 
d="M185.5 255q-52.5 69 -52.5 239q0 141 42 233t136 92q27 0 54.5 -8t44.5 -20q45 27 104 77q76 63 141.5 96t171.5 33q184 0 217 -125q4 -14 6.5 -31.5t2.5 -27.5l491 -2q66 0 101.5 -29.5t35.5 -83.5q0 -49 -28.5 -77.5t-77.5 -32.5l-305 -17q6 -8 12 -26.5t6 -34.5
q0 -37 -23.5 -65.5t-62.5 -38.5q8 -16 8 -41q0 -45 -30.5 -70t-75.5 -25q2 -8 2 -24q0 -41 -32 -65.5t-89 -24.5q-43 0 -94 14q-68 -20 -152 -20q-90 0 -172 22.5t-125 58.5q-23 -20 -58.5 -32.5t-72.5 -12.5q-73 0 -125.5 69zM727 322q0 66 72 84q-4 8 -4 40
q-51 -20 -131 -20q-78 0 -105 10q-23 8 -22 25q0 12 9 19t25 5q43 -6 91 -6q49 0 98 12.5t80 43.5t30 63q-23 29 -30 68q-61 27 -84 57q-10 12 -11 29q0 25 23 24q8 0 23 -14q20 -20 29 -23.5t14 -5.5q2 16 8 37t10 31q8 16 27 16q8 0 14 -6t6 -16t-6 -31t-6 -41
q0 -55 31 -102q27 -41 73 -41q23 0 41.5 10t11.5 28q-31 123 -55 246q-10 45 -57 60.5t-98 15.5q-90 0 -148.5 -28.5t-128.5 -86.5q-29 -23 -60.5 -45t-60.5 -37q-29 -33 -46 -99t-17 -132q0 -139 95 -223t253 -84q39 0 82 6q-76 45 -76 111zM366.5 252q16.5 8 30.5 22
q-39 39 -60.5 100.5t-21.5 137.5q0 135 58 238q-25 18 -58 18q-57 0 -89.5 -69.5t-32.5 -196.5q0 -125 32.5 -191.5t96.5 -66.5q28 0 44.5 8zM1571 643q25 2 39 16.5t14 38.5q0 57 -78 58h-473q10 -82 27 -117q43 0 82 -14zM1213.5 473q13.5 14 13.5 39q0 41 -33 51
q-39 16 -96 23q-16 -29 -49 -45.5t-68 -20.5l41 -14q6 -2 66.5 -24.5t91.5 -22.5q20 0 33.5 14zM1130.5 338q16.5 12 16.5 39q0 16 -8.5 24.5t-28.5 16.5q-41 16 -118 39.5t-101 23.5q-16 0 -25.5 -11t-9.5 -26q0 -14 8 -27.5t23 -21.5q25 -14 100.5 -41.5t106.5 -27.5
q20 0 36.5 12zM1044 250q0 27 -30 39q-162 66 -193 65q-14 0 -24.5 -9t-10.5 -28q0 -47 64.5 -78.5t136.5 -31.5q57 0 57 43z" />
    <glyph glyph-name="uni2639" unicode="&#x2639;" horiz-adv-x="1388" 
d="M1220.5 355q-79.5 -132 -219 -204.5t-309.5 -72.5t-307 72.5t-217 203.5t-80 301t80 303.5t218 206t308 72.5t308.5 -72.5t218 -205t79.5 -302.5t-79.5 -302zM1135.5 912.5q-66.5 111.5 -181 173t-256.5 61.5q-143 0 -259.5 -62.5t-183.5 -174t-67 -255.5
q0 -143 67 -253.5t182.5 -172t258.5 -61.5t258 61.5t181.5 173t66.5 254.5q0 144 -66.5 255.5zM456.5 751.5q-30.5 30.5 -30.5 73.5t30.5 73t73.5 30q41 0 72 -30t31 -73t-31 -73.5t-72 -30.5q-43 0 -73.5 30.5zM764 751.5q-31 30.5 -31 73.5t31 73t74 30q41 0 71.5 -30
t30.5 -73t-30.5 -73.5t-71.5 -30.5q-43 0 -74 30.5zM488.5 520q91.5 49 205.5 49q115 0 206 -49t134 -133l-59 -41q-47 63 -119 99t-162 36t-161.5 -35.5t-118.5 -99.5l-60 41q43 84 134.5 133z" />
    <glyph glyph-name="smileface" unicode="&#x263a;" horiz-adv-x="1388" 
d="M1220.5 355q-79.5 -132 -219 -204.5t-309.5 -72.5t-307 72.5t-217 203.5t-80 301t80 303.5t218 206t308 72.5t308.5 -72.5t218 -205t79.5 -302.5t-79.5 -302zM1135.5 912.5q-66.5 111.5 -181 173t-256.5 61.5q-143 0 -259.5 -62.5t-183.5 -174t-67 -255.5
q0 -143 67 -253.5t182.5 -172t258.5 -61.5t258 61.5t181.5 173t66.5 254.5q0 144 -66.5 255.5zM456.5 751.5q-30.5 30.5 -30.5 73.5t30.5 73t73.5 30q41 0 72 -30t31 -73t-31 -73.5t-72 -30.5q-43 0 -73.5 30.5zM764 751.5q-31 30.5 -31 73.5t31 73t74 30q41 0 71.5 -30
t30.5 -73t-30.5 -73.5t-71.5 -30.5q-43 0 -74 30.5zM428 569q25 -63 97.5 -102t168.5 -39t169 39t98 102h83q-27 -102 -123 -165.5t-227 -63.5t-227 63.5t-123 165.5h84z" />
    <glyph glyph-name="invsmileface" unicode="&#x263b;" horiz-adv-x="1388" 
d="M384 148.5q-138 72.5 -218 204.5t-80 302q0 172 81 304.5t219 206t308 73.5t308.5 -73.5t219.5 -206t81 -302.5t-81 -303t-220.5 -205.5t-309.5 -72.5t-308 72.5zM603 750.5q32 31.5 32 74.5t-32 74t-73 31q-43 0 -74.5 -31t-31.5 -74t31.5 -74.5t74.5 -31.5
q41 0 73 31.5zM910.5 750.5q31.5 31.5 31.5 74.5t-31.5 74t-72.5 31q-43 0 -75 -31t-32 -74t32 -74.5t75 -31.5q41 0 72.5 31.5zM923.5 402.5q96.5 64.5 123.5 168.5h-89q-23 -63 -95 -102t-169 -39q-96 0 -168.5 39t-95.5 102h-88q27 -104 123 -168.5t229 -64.5t229.5 64.5
z" />
    <glyph glyph-name="uni2709" unicode="&#x2709;" horiz-adv-x="1435" 
d="M1251 1030v-784h-1067v784h1067zM1106 932h-774l303 -250q35 29 84 29q47 0 84 -31zM281 860v-518h874v516l-309 -254q2 -6 2 -22q0 -55 -38 -93t-91 -38q-55 0 -93 37.5t-38 93.5q0 16 2 24z" />
    <glyph glyph-name="uni2713" unicode="&#x2713;" horiz-adv-x="1617" 
d="M236 604l282 -266l850 954l176 -159l-999 -1119l-457 430z" />
    <glyph glyph-name="uni2715" unicode="&#x2715;" horiz-adv-x="1548" 
d="M70 111l602 616l-600 614l104 103l598 -613l598 613l105 -103l-603 -614l605 -616l-103 -103l-602 615l-602 -615z" />
    <glyph glyph-name="uni2736" unicode="&#x2736;" horiz-adv-x="1300" 
d="M516 874l135 439l119 -439l455 119l-320 -336l320 -321l-455 102l-119 -438l-135 438l-438 -102l319 321l-319 336z" />
    <glyph glyph-name="uni2737" unicode="&#x2737;" horiz-adv-x="1583" 
d="M694 887l97 426l98 -426l364 233l-229 -366l424 -97l-424 -98l229 -364l-364 231l-98 -426l-97 426l-364 -231l227 364l-422 98l422 97l-227 366z" />
    <glyph glyph-name="uni2764" unicode="&#x2764;" horiz-adv-x="1198" 
d="M236.5 760.5q68.5 68.5 169.5 68.5q68 0 117.5 -35.5t74.5 -97.5q25 59 75 96t120 37q100 0 168.5 -68.5t68.5 -178.5q0 -117 -56 -203t-144.5 -149.5t-231.5 -139.5q-143 78 -227 136.5t-143.5 146.5t-59.5 209q0 110 68.5 178.5z" />
    <glyph glyph-name="uni27A1" unicode="&#x27a1;" horiz-adv-x="1665" 
d="M1026 246h-823v479h823v242l520 -480l-520 -479v238z" />
    <glyph glyph-name="uni2B05" unicode="&#x2b05;" horiz-adv-x="1665" 
d="M121 487l518 480v-242h825v-479h-825v-238z" />
    <glyph glyph-name="uni2B06" unicode="&#x2b06;" horiz-adv-x="1257" 
d="M870 842v-826h-479v826h-241l481 520l477 -520h-238z" />
    <glyph glyph-name="uni2B07" unicode="&#x2b07;" horiz-adv-x="1257" 
d="M631 -39l-481 520h241v824h479v-824h238z" />
    <glyph glyph-name="uni3020" unicode="&#x3020;" horiz-adv-x="1912" 
d="M1620 1047h-1327v155h1327v-155zM879 799h-586v155h1327v-155h-586v-453h-155v453zM487 584q6 25 27 45l-37 53l49 37l41 -57q20 4 35 4q23 0 41 -7l41 60l49 -37l-39 -57q16 -23 21 -41h67v-62h-67q-10 -37 -41 -60.5t-72 -23.5q-43 0 -73.5 23.5t-41.5 60.5h-59v62h59z
M1376.5 461.5q-30.5 -23.5 -71.5 -23.5q-43 0 -74 23.5t-41 60.5h-60v62h60q6 25 27 45l-37 53l49 37l41 -57q20 4 35 4q23 0 41 -7l40 60l50 -37l-41 -57q16 -20 22 -41h68v-62h-68q-10 -37 -40.5 -60.5zM1732.5 632.5q57.5 -61.5 57.5 -153.5q0 -84 -54.5 -144.5
t-133.5 -70.5q-76 -147 -254.5 -236t-391.5 -89t-391 89t-254 236q-80 10 -134 70.5t-54 144.5q0 92 57.5 153.5t157.5 61.5v-63q-57 0 -95 -42t-38 -110q0 -66 42 -113t128 -47q59 -135 220 -217t361 -82q201 0 362 82t220 217q86 0 128 47.5t42 112.5q0 68 -38 110t-95 42
v63q100 0 157.5 -61.5zM560 595q-15 -15 -15 -42t15 -43t42 -16q25 0 40 16t15 43t-15 42t-40 15q-27 0 -42 -15zM1344.5 510q15.5 16 15.5 43t-15.5 42t-39.5 15q-27 0 -42.5 -15t-15.5 -42t15.5 -43t42.5 -16q24 0 39.5 16zM1170.5 163q-103.5 -38 -214.5 -38t-214 38
t-185 109l53 62q150 -127 346 -127q197 0 347 127l53 -62q-82 -71 -185.5 -109z" />
    <glyph glyph-name="uni5350" unicode="&#x5350;" horiz-adv-x="2000" 
d="M1135 1161v-334h536v-827h-256v578h-280v-578h-805v244h536v334h-536v827h254v-578h282v578h805v-244h-536z" />
    <glyph glyph-name="C.aalt" horiz-adv-x="1187" 
d="M154 1016.5q88 154.5 250.5 239.5t377.5 85q72 0 150 -11t133 -27v-281q-111 41 -242 41t-231 -51t-155.5 -143.5t-55.5 -213.5t53 -213t151.5 -142t225.5 -50q66 0 142.5 14.5t140.5 42.5v-280q-141 -53 -312 -54q-215 0 -377.5 85t-250.5 240t-88 359q0 205 88 359.5z
" />
    <glyph glyph-name="Cacute.aalt" horiz-adv-x="1187" 
d="M698 1503l328 348l137 -139l-383 -297zM154 1016.5q88 154.5 250.5 239.5t377.5 85q72 0 150 -11t133 -27v-281q-111 41 -242 41t-231 -51t-155.5 -143.5t-55.5 -213.5t53 -213t151.5 -142t225.5 -50q66 0 142.5 14.5t140.5 42.5v-280q-141 -53 -312 -54
q-215 0 -377.5 85t-250.5 240t-88 359q0 205 88 359.5z" />
    <glyph glyph-name="Ccaron.aalt" horiz-adv-x="1187" 
d="M565 1808l213 -225l211 225l133 -92l-221 -299h-246l-221 299zM154 1016.5q88 154.5 250.5 239.5t377.5 85q72 0 150 -11t133 -27v-281q-111 41 -242 41t-231 -51t-155.5 -143.5t-55.5 -213.5t53 -213t151.5 -142t225.5 -50q66 0 142.5 14.5t140.5 42.5v-280
q-141 -53 -312 -54q-215 0 -377.5 85t-250.5 240t-88 359q0 205 88 359.5z" />
    <glyph glyph-name="Ccedilla.aalt" horiz-adv-x="1187" 
d="M784 -82q72 0 133.5 -48t61.5 -146q0 -106 -79 -164t-187 -58q-98 0 -166 41v144q20 -23 57 -36t74 -13q49 0 83 23.5t34 70.5q0 43 -30 65.5t-77 22.5q-14 0 -43 -4l-59 61l147 223h105v-73l-76 -111zM154 1016.5q-88 -154.5 -88 -359.5t88 -359.5t250.5 -239.5
t377.5 -85q170 0 312 54v280q-63 -29 -140 -43t-143 -14q-127 0 -225.5 50t-151.5 142.5t-53 212.5q0 121 55.5 213.5t155.5 143.5t231 51t242 -41v281q-55 16 -133 27t-150 11q-215 0 -377.5 -85t-250.5 -239.5z" />
    <glyph glyph-name="Ccircumflex.aalt" horiz-adv-x="1187" 
d="M657 1794h244l221 -299l-131 -92l-211 225l-213 -225l-131 92zM154 1016.5q88 154.5 250.5 239.5t377.5 85q72 0 150 -11t133 -27v-281q-111 41 -242 41t-231 -51t-155.5 -143.5t-55.5 -213.5t53 -213t151.5 -142t225.5 -50q66 0 142.5 14.5t140.5 42.5v-280
q-141 -53 -312 -54q-215 0 -377.5 85t-250.5 240t-88 359q0 205 88 359.5z" />
    <glyph glyph-name="Cdotaccent.aalt" horiz-adv-x="1187" 
d="M681 1457q-40 40 -40 99q0 61 39 99.5t100 38.5q59 0 98.5 -38t39.5 -100q0 -59 -39 -99t-99 -40q-59 0 -99 40zM154 1016.5q88 154.5 250.5 239.5t377.5 85q72 0 150 -11t133 -27v-281q-111 41 -242 41t-231 -51t-155.5 -143.5t-55.5 -213.5t53 -213t151.5 -142
t225.5 -50q66 0 142.5 14.5t140.5 42.5v-280q-141 -53 -312 -54q-215 0 -377.5 85t-250.5 240t-88 359q0 205 88 359.5z" />
    <glyph glyph-name="G.salt" horiz-adv-x="1581" 
d="M1528 473h-131q-27 -152 -116 -264.5t-227.5 -174t-310.5 -61.5q-203 0 -356.5 84t-237 238t-83.5 352q0 203 87 360.5t244.5 245.5t360.5 88q168 0 302 -59t220 -165.5t111 -246.5h-318q-33 92 -118 142.5t-203 50.5q-176 0 -276.5 -111.5t-100.5 -300.5
q0 -186 101.5 -293.5t271.5 -107.5q131 0 224 60.5t115 162.5h-348v250h789v-250z" />
    <glyph glyph-name="Gbreve.aalt" horiz-adv-x="1581" 
d="M962.5 1511q-100.5 -86 -247.5 -86q-156 0 -253 89.5t-106 236.5h197q2 -66 47 -102.5t115 -36.5q72 0 112.5 37t44.5 102h199q-8 -154 -108.5 -240zM1528 473h-131q-27 -152 -116 -264.5t-227.5 -174t-310.5 -61.5q-203 0 -356.5 84t-237 238t-83.5 352q0 203 87 360.5
t244.5 245.5t360.5 88q168 0 302 -59t220 -165.5t111 -246.5h-318q-33 92 -118 142.5t-203 50.5q-176 0 -276.5 -111.5t-100.5 -300.5q0 -186 101.5 -293.5t271.5 -107.5q131 0 224 60.5t115 162.5h-348v250h789v-250z" />
    <glyph glyph-name="Gcircumflex.aalt" horiz-adv-x="1581" 
d="M592 1802h244l221 -299l-131 -92l-211 225l-213 -225l-131 92zM1528 473h-131q-27 -152 -116 -264.5t-227.5 -174t-310.5 -61.5q-203 0 -356.5 84t-237 238t-83.5 352q0 203 87 360.5t244.5 245.5t360.5 88q168 0 302 -59t220 -165.5t111 -246.5h-318q-33 92 -118 142.5
t-203 50.5q-176 0 -276.5 -111.5t-100.5 -300.5q0 -186 101.5 -293.5t271.5 -107.5q131 0 224 60.5t115 162.5h-348v250h789v-250z" />
    <glyph glyph-name="uni0122.aalt" horiz-adv-x="1581" 
d="M893 -130q39 -46 39 -118q0 -109 -65.5 -182.5t-194.5 -77.5v57q72 12 108.5 47t40.5 87q-20 -12 -49 -13q-51 0 -83 34t-32 83q0 57 38 93t98 36q61 0 100 -46zM1528 473h-131q-27 -152 -116 -264.5t-227.5 -174t-310.5 -61.5q-203 0 -356.5 84t-237 238t-83.5 352
q0 203 87 360.5t244.5 245.5t360.5 88q168 0 302 -59t220 -165.5t111 -246.5h-318q-33 92 -118 142.5t-203 50.5q-176 0 -276.5 -111.5t-100.5 -300.5q0 -186 101.5 -293.5t271.5 -107.5q131 0 224 60.5t115 162.5h-348v250h789v-250z" />
    <glyph glyph-name="Gdotaccent.aalt" horiz-adv-x="1581" 
d="M615 1465q-40 40 -40 100q0 61 39 99t101 38q59 0 98 -38t39 -99q0 -59 -39 -99.5t-98 -40.5q-60 0 -100 40zM1528 473h-131q-27 -152 -116 -264.5t-227.5 -174t-310.5 -61.5q-203 0 -356.5 84t-237 238t-83.5 352q0 203 87 360.5t244.5 245.5t360.5 88q168 0 302 -59
t220 -165.5t111 -246.5h-318q-33 92 -118 142.5t-203 50.5q-176 0 -276.5 -111.5t-100.5 -300.5q0 -186 101.5 -293.5t271.5 -107.5q131 0 224 60.5t115 162.5h-348v250h789v-250z" />
    <glyph glyph-name="Q.aalt" horiz-adv-x="1556" 
d="M1135 -436l-418 411q-188 10 -337 99.5t-231.5 239t-82.5 341.5q0 201 90 356.5t250.5 242.5t365.5 87q203 0 363.5 -86t252 -241.5t91.5 -356.5q0 -227 -115 -395t-313 -239l540 -459h-456zM430 444.5q49 -92.5 138 -142.5t204 -50q113 0 202 51t138 143.5t49 210.5
q0 119 -49 211.5t-137 143.5t-201 51q-115 0 -204 -51t-139 -143.5t-50 -213.5q0 -118 49 -210.5z" />
    <glyph glyph-name="R.aalt" horiz-adv-x="1304" 
d="M1212 0h-309l-63 317q-18 86 -59.5 119t-127.5 33h-213v-469h-299v1313h607q215 0 338.5 -109.5t123.5 -308.5q0 -115 -59 -206t-164 -138q129 -33 160 -201zM844 755q51 50 51 128q0 74 -50 122t-157 48h-248v-348h244q109 0 160 50z" />
    <glyph glyph-name="Racute.aalt" horiz-adv-x="1304" 
d="M524 1511l328 349l137 -140l-383 -297zM1212 0h-309l-63 317q-18 86 -59.5 119t-127.5 33h-213v-469h-299v1313h607q215 0 338.5 -109.5t123.5 -308.5q0 -115 -59 -206t-164 -138q129 -33 160 -201zM844 755q51 50 51 128q0 74 -50 122t-157 48h-248v-348h244
q109 0 160 50z" />
    <glyph glyph-name="Rcaron.aalt" horiz-adv-x="1304" 
d="M391 1817l213 -226l211 226l133 -93l-221 -299h-246l-221 299zM1212 0h-309l-63 317q-18 86 -59.5 119t-127.5 33h-213v-469h-299v1313h607q215 0 338.5 -109.5t123.5 -308.5q0 -115 -59 -206t-164 -138q129 -33 160 -201zM844 755q51 50 51 128q0 74 -50 122t-157 48
h-248v-348h244q109 0 160 50z" />
    <glyph glyph-name="uni0156.aalt" horiz-adv-x="1304" 
d="M766 -64.5q39 -46.5 39 -117.5q0 -109 -65.5 -182.5t-194.5 -77.5v57q72 12 108.5 47t40.5 86q-20 -12 -49 -12q-51 0 -83 33.5t-32 83.5q0 57 38 93t98 36q61 0 100 -46.5zM1212 0h-309l-63 317q-18 86 -59.5 119t-127.5 33h-213v-469h-299v1313h607q215 0 338.5 -109.5
t123.5 -308.5q0 -115 -59 -206t-164 -138q129 -33 160 -201zM844 755q51 50 51 128q0 74 -50 122t-157 48h-248v-348h244q109 0 160 50z" />
    <glyph glyph-name="S.aalt" horiz-adv-x="1144" 
d="M434.5 884.5q22.5 -22.5 60 -34.5t117.5 -31l60 -14q178 -41 277.5 -134t99.5 -268q0 -209 -140.5 -319.5t-378.5 -110.5q-121 0 -236.5 28t-187.5 73v280q92 -57 200 -87.5t214 -30.5t158.5 32.5t52.5 93.5q0 47 -28.5 75t-72.5 42.5t-124 32.5l-60 14q-170 37 -261 127
t-91 262q0 203 140.5 314.5t375.5 111.5q90 0 187.5 -20.5t169.5 -52.5v-283q-74 41 -169.5 66.5t-179.5 25.5q-104 0 -155 -33.5t-51 -95.5q0 -41 22.5 -63.5z" />
    <glyph glyph-name="Sacute.aalt" horiz-adv-x="1144" 
d="M469 1505l328 348l137 -139l-383 -297zM434.5 884.5q22.5 -22.5 60 -34.5t117.5 -31l60 -14q178 -41 277.5 -134t99.5 -268q0 -209 -140.5 -319.5t-378.5 -110.5q-121 0 -236.5 28t-187.5 73v280q92 -57 200 -87.5t214 -30.5t158.5 32.5t52.5 93.5q0 47 -28.5 75
t-72.5 42.5t-124 32.5l-60 14q-170 37 -261 127t-91 262q0 203 140.5 314.5t375.5 111.5q90 0 187.5 -20.5t169.5 -52.5v-283q-74 41 -169.5 66.5t-179.5 25.5q-104 0 -155 -33.5t-51 -95.5q0 -41 22.5 -63.5z" />
    <glyph glyph-name="Scaron.aalt" horiz-adv-x="1144" 
d="M336 1810l213 -225l211 225l133 -92l-221 -299h-246l-221 299zM434.5 884.5q22.5 -22.5 60 -34.5t117.5 -31l60 -14q178 -41 277.5 -134t99.5 -268q0 -209 -140.5 -319.5t-378.5 -110.5q-121 0 -236.5 28t-187.5 73v280q92 -57 200 -87.5t214 -30.5t158.5 32.5t52.5 93.5
q0 47 -28.5 75t-72.5 42.5t-124 32.5l-60 14q-170 37 -261 127t-91 262q0 203 140.5 314.5t375.5 111.5q90 0 187.5 -20.5t169.5 -52.5v-283q-74 41 -169.5 66.5t-179.5 25.5q-104 0 -155 -33.5t-51 -95.5q0 -41 22.5 -63.5z" />
    <glyph glyph-name="Scedilla.salt" horiz-adv-x="1144" 
d="M588 -94q72 0 133 -48t61 -147q0 -106 -78.5 -163.5t-187.5 -57.5q-98 0 -166 41v143q20 -23 57 -36t74 -13q49 0 83 23.5t34 70.5q0 43 -29.5 65.5t-76.5 22.5q-14 0 -43 -4l-60 62l148 223h104v-74l-76 -110zM434.5 884.5q-22.5 22.5 -22.5 63.5q0 61 51 95t155 34
q84 0 179.5 -25.5t169.5 -66.5v283q-72 33 -169.5 53t-187.5 20q-236 0 -376 -111.5t-140 -314.5q0 -172 91 -262t261 -127l60 -14q80 -18 124 -32.5t72.5 -42t28.5 -75.5q0 -61 -52 -93.5t-159 -32.5q-106 0 -213.5 30.5t-200.5 87.5v-280q72 -45 188 -73t236 -28
q238 0 378.5 111t140.5 319q0 174 -99.5 267.5t-277.5 134.5l-60 14q-80 18 -117.5 30.5t-60 35z" />
    <glyph glyph-name="Scircumflex.aalt" horiz-adv-x="1144" 
d="M428 1796h244l221 -299l-131 -92l-211 225l-213 -225l-131 92zM434.5 884.5q22.5 -22.5 60 -34.5t117.5 -31l60 -14q178 -41 277.5 -134t99.5 -268q0 -209 -140.5 -319.5t-378.5 -110.5q-121 0 -236.5 28t-187.5 73v280q92 -57 200 -87.5t214 -30.5t158.5 32.5t52.5 93.5
q0 47 -28.5 75t-72.5 42.5t-124 32.5l-60 14q-170 37 -261 127t-91 262q0 203 140.5 314.5t375.5 111.5q90 0 187.5 -20.5t169.5 -52.5v-283q-74 41 -169.5 66.5t-179.5 25.5q-104 0 -155 -33.5t-51 -95.5q0 -41 22.5 -63.5z" />
    <glyph glyph-name="uni0218.aalt" horiz-adv-x="1144" 
d="M651 -152.5q39 -46.5 39 -117.5q0 -109 -65.5 -182.5t-194.5 -77.5v57q72 12 108.5 47t41.5 86q-20 -12 -50 -12q-51 0 -82.5 33.5t-31.5 82.5q0 57 38 93.5t97 36.5q61 0 100 -46.5zM434.5 884.5q22.5 -22.5 60 -34.5t117.5 -31l60 -14q178 -41 277.5 -134t99.5 -268
q0 -209 -140.5 -319.5t-378.5 -110.5q-121 0 -236.5 28t-187.5 73v280q92 -57 200 -87.5t214 -30.5t158.5 32.5t52.5 93.5q0 47 -28.5 75t-72.5 42.5t-124 32.5l-60 14q-170 37 -261 127t-91 262q0 203 140.5 314.5t375.5 111.5q90 0 187.5 -20.5t169.5 -52.5v-283
q-74 41 -169.5 66.5t-179.5 25.5q-104 0 -155 -33.5t-51 -95.5q0 -41 22.5 -63.5z" />
    <glyph glyph-name="Z.aalt" horiz-adv-x="1107" 
d="M1034 1266l-514 -996h496v-270h-942v59l504 983h-492v271h948v-47z" />
    <glyph glyph-name="Zacute.aalt" horiz-adv-x="1107" 
d="M469 1475l328 348l137 -140l-383 -297zM1034 1266l-514 -996h496v-270h-942v59l504 983h-492v271h948v-47z" />
    <glyph glyph-name="Zcaron.aalt" horiz-adv-x="1107" 
d="M336 1780l213 -226l211 226l133 -92l-221 -299h-246l-221 299zM1034 1266l-514 -996h496v-270h-942v59l504 983h-492v271h948v-47z" />
    <glyph glyph-name="Zdotaccent.aalt" horiz-adv-x="1107" 
d="M452 1428.5q-40 39.5 -40 99.5q0 61 38.5 99t100.5 38q59 0 98 -38t39 -99q0 -59 -39 -99t-98 -40t-99 39.5zM1034 1266l-514 -996h496v-270h-942v59l504 983h-492v271h948v-47z" />
    <glyph glyph-name="G.ss02" horiz-adv-x="1509" 
d="M1411 727v-727h-250l-22 129q-78 -78 -188.5 -117t-239.5 -39q-193 0 -338.5 83t-226 235.5t-80.5 351.5q0 207 87 365.5t244.5 245.5t366.5 87q164 0 298 -59t221 -166.5t110 -247.5h-330q-29 94 -117 144.5t-198 50.5q-170 0 -271.5 -113.5t-101.5 -302.5
q0 -186 101.5 -291.5t275.5 -105.5q131 0 219 56t119 159h-351v262h672z" />
    <glyph glyph-name="K.aalt" horiz-adv-x="1302" 
d="M678 492h-238v-492h-299v1313h299v-574h228q109 0 149.5 51.5t40.5 155.5v367h299v-443q0 -111 -45 -191.5t-129 -127.5l252 -551h-346z" />
    <glyph glyph-name="M.aalt" horiz-adv-x="1777" 
d="M1378 0l-116 690l-226 -655h-293l-229 653l-117 -688h-338l269 1313h290l271 -846l268 846h291l272 -1313h-342z" />
    <glyph glyph-name="Y.aalt" horiz-adv-x="1308" 
d="M1208 1313v-367q0 -186 -106.5 -309t-294.5 -158v-479h-301v479q-188 35 -297 158t-109 309v367h299v-332q2 -127 71 -185.5t185 -58.5q117 0 185.5 59.5t68.5 184.5v332h299z" />
    <glyph glyph-name="Yacute.aalt" horiz-adv-x="1308" 
d="M573 1475l328 348l137 -140l-383 -297zM1208 1313v-367q0 -186 -106.5 -309t-294.5 -158v-479h-301v479q-188 35 -297 158t-109 309v367h299v-332q2 -127 71 -185.5t185 -58.5q117 0 185.5 59.5t68.5 184.5v332h299z" />
    <glyph glyph-name="Ycircumflex.aalt" horiz-adv-x="1308" 
d="M532 1765h244l221 -299l-131 -92l-211 225l-213 -225l-131 92zM1208 1313v-367q0 -186 -106.5 -309t-294.5 -158v-479h-301v479q-188 35 -297 158t-109 309v367h299v-332q2 -127 71 -185.5t185 -58.5q117 0 185.5 59.5t68.5 184.5v332h299z" />
    <glyph glyph-name="Ydieresis.aalt" horiz-adv-x="1308" 
d="M351 1426q-40 40 -40 100q0 61 39 99t101 38q59 0 98 -38t39 -99q0 -59 -39 -99.5t-98 -40.5q-60 0 -100 40zM761 1426q-40 40 -40 100q0 61 40 99t99 38t98 -38t39 -99q0 -59 -38.5 -99.5t-98.5 -40.5q-59 0 -99 40zM1208 1313v-367q0 -186 -106.5 -309t-294.5 -158
v-479h-301v479q-188 35 -297 158t-109 309v367h299v-332q2 -127 71 -185.5t185 -58.5q117 0 185.5 59.5t68.5 184.5v332h299z" />
    <glyph glyph-name="Ygrave.aalt" horiz-adv-x="1308" 
d="M274 1683l136 140l329 -348l-84 -89zM1208 1313v-367q0 -186 -106.5 -309t-294.5 -158v-479h-301v479q-188 35 -297 158t-109 309v367h299v-332q2 -127 71 -185.5t185 -58.5q117 0 185.5 59.5t68.5 184.5v332h299z" />
    <glyph glyph-name="i.locl" horiz-adv-x="507" 
d="M155 1095q-40 40 -40 99q0 61 39 99t100 38q59 0 98 -38t39 -99q0 -59 -39 -99t-98 -40t-99 40zM397 924v-924h-286v924h286z" />
    <glyph glyph-name="c.aalt" horiz-adv-x="894" 
d="M204 102q-138 129 -138 357q0 147 64.5 259.5t182 175t271.5 62.5q61 0 127.5 -10t113.5 -26v-258q-41 18 -95 28t-105 10q-127 0 -198 -64.5t-71 -172.5q0 -115 71 -174.5t191 -59.5q55 0 117 11.5t105 29.5v-252q-55 -23 -127 -34t-140 -11q-231 0 -369 129z" />
    <glyph glyph-name="cacute.aalt" horiz-adv-x="894" 
d="M436 1118l328 348l137 -139l-383 -297zM204 102q-138 129 -138 357q0 147 64.5 259.5t182 175t271.5 62.5q61 0 127.5 -10t113.5 -26v-258q-41 18 -95 28t-105 10q-127 0 -198 -64.5t-71 -172.5q0 -115 71 -174.5t191 -59.5q55 0 117 11.5t105 29.5v-252
q-55 -23 -127 -34t-140 -11q-231 0 -369 129z" />
    <glyph glyph-name="ccaron.aalt" horiz-adv-x="894" 
d="M303 1423l213 -225l211 225l133 -92l-221 -299h-246l-221 299zM204 102q-138 129 -138 357q0 147 64.5 259.5t182 175t271.5 62.5q61 0 127.5 -10t113.5 -26v-258q-41 18 -95 28t-105 10q-127 0 -198 -64.5t-71 -172.5q0 -115 71 -174.5t191 -59.5q55 0 117 11.5
t105 29.5v-252q-55 -23 -127 -34t-140 -11q-231 0 -369 129z" />
    <glyph glyph-name="ccedilla.aalt" horiz-adv-x="894" 
d="M539 -78q72 0 133 -48t61 -146q0 -106 -79 -164t-187 -58q-98 0 -166 41v144q20 -23 57 -36t74 -13q49 0 83 23.5t34 70.5q0 43 -30 65.5t-77 22.5q-14 0 -43 -4l-59 61l147 223h105v-73l-76 -111zM204 102q138 -129 369 -129q68 0 139.5 11.5t127.5 33.5v252
q-43 -18 -104.5 -29.5t-117.5 -11.5q-121 0 -191.5 59.5t-70.5 174.5q0 109 71 173t198 64q51 0 105 -10t95 -28v258q-47 16 -113.5 26t-127.5 10q-154 0 -271.5 -62.5t-182 -175t-64.5 -259.5q0 -228 138 -357z" />
    <glyph glyph-name="ccircumflex.aalt" horiz-adv-x="894" 
d="M395 1409h244l221 -299l-131 -92l-211 225l-213 -225l-131 92zM204 102q-138 129 -138 357q0 147 64.5 259.5t182 175t271.5 62.5q61 0 127.5 -10t113.5 -26v-258q-41 18 -95 28t-105 10q-127 0 -198 -64.5t-71 -172.5q0 -115 71 -174.5t191 -59.5q55 0 117 11.5
t105 29.5v-252q-55 -23 -127 -34t-140 -11q-231 0 -369 129z" />
    <glyph glyph-name="cdotaccent.aalt" horiz-adv-x="894" 
d="M419 1072q-40 40 -40 99q0 61 39 99.5t100 38.5q59 0 98 -38t39 -100q0 -59 -38.5 -99t-98.5 -40q-59 0 -99 40zM204 102q-138 129 -138 357q0 147 64.5 259.5t182 175t271.5 62.5q61 0 127.5 -10t113.5 -26v-258q-41 18 -95 28t-105 10q-127 0 -198 -64.5t-71 -172.5
q0 -115 71 -174.5t191 -59.5q55 0 117 11.5t105 29.5v-252q-55 -23 -127 -34t-140 -11q-231 0 -369 129z" />
    <glyph glyph-name="e.aalt" horiz-adv-x="1032" 
d="M961 387h-611q8 -74 80 -117t197 -43q74 0 140.5 15.5t147.5 48.5v-256q-61 -29 -151 -45.5t-180 -16.5q-248 0 -386.5 133.5t-138.5 358.5q0 145 58.5 257t165 173t241.5 61q133 0 234.5 -55t158 -157.5t56.5 -235.5q0 -78 -12 -121zM686 580q-2 70 -48 106.5t-116 36.5
q-74 0 -120 -38t-48 -105h332z" />
    <glyph glyph-name="eacute.aalt" horiz-adv-x="1032" 
d="M444 1118l328 348l137 -139l-383 -297zM961 387h-611q8 -74 80 -117t197 -43q74 0 140.5 15.5t147.5 48.5v-256q-61 -29 -151 -45.5t-180 -16.5q-248 0 -386.5 133.5t-138.5 358.5q0 145 58.5 257t165 173t241.5 61q133 0 234.5 -55t158 -157.5t56.5 -235.5
q0 -78 -12 -121zM686 580q-2 70 -48 106.5t-116 36.5q-74 0 -120 -38t-48 -105h332z" />
    <glyph glyph-name="ebreve.aalt" horiz-adv-x="1032" 
d="M774 1118q-100 -86 -248 -86q-156 0 -253 89t-105 237h197q2 -66 47 -102.5t114 -36.5q72 0 113 36.5t45 102.5h199q-9 -154 -109 -240zM961 387h-611q8 -74 80 -117t197 -43q74 0 140.5 15.5t147.5 48.5v-256q-61 -29 -151 -45.5t-180 -16.5q-248 0 -386.5 133.5
t-138.5 358.5q0 145 58.5 257t165 173t241.5 61q133 0 234.5 -55t158 -157.5t56.5 -235.5q0 -78 -12 -121zM686 580q-2 70 -48 106.5t-116 36.5q-74 0 -120 -38t-48 -105h332z" />
    <glyph glyph-name="ecaron.aalt" horiz-adv-x="1032" 
d="M311 1423l213 -225l211 225l133 -92l-221 -299h-246l-221 299zM961 387h-611q8 -74 80 -117t197 -43q74 0 140.5 15.5t147.5 48.5v-256q-61 -29 -151 -45.5t-180 -16.5q-248 0 -386.5 133.5t-138.5 358.5q0 145 58.5 257t165 173t241.5 61q133 0 234.5 -55t158 -157.5
t56.5 -235.5q0 -78 -12 -121zM686 580q-2 70 -48 106.5t-116 36.5q-74 0 -120 -38t-48 -105h332z" />
    <glyph glyph-name="ecircumflex.aalt" horiz-adv-x="1032" 
d="M403 1409h244l221 -299l-131 -92l-211 225l-213 -225l-131 92zM961 387h-611q8 -74 80 -117t197 -43q74 0 140.5 15.5t147.5 48.5v-256q-61 -29 -151 -45.5t-180 -16.5q-248 0 -386.5 133.5t-138.5 358.5q0 145 58.5 257t165 173t241.5 61q133 0 234.5 -55t158 -157.5
t56.5 -235.5q0 -78 -12 -121zM686 580q-2 70 -48 106.5t-116 36.5q-74 0 -120 -38t-48 -105h332z" />
    <glyph glyph-name="edieresis.aalt" horiz-adv-x="1032" 
d="M222 1070q-40 40 -40 99q0 61 39 99.5t101 38.5q59 0 98 -38t39 -100q0 -59 -39 -99t-98 -40q-60 0 -100 40zM632 1070q-40 40 -40 99q0 61 40 99.5t99 38.5t98 -38t39 -100q0 -59 -38.5 -99t-98.5 -40q-59 0 -99 40zM961 387h-611q8 -74 80 -117t197 -43
q74 0 140.5 15.5t147.5 48.5v-256q-61 -29 -151 -45.5t-180 -16.5q-248 0 -386.5 133.5t-138.5 358.5q0 145 58.5 257t165 173t241.5 61q133 0 234.5 -55t158 -157.5t56.5 -235.5q0 -78 -12 -121zM686 580q-2 70 -48 106.5t-116 36.5q-74 0 -120 -38t-48 -105h332z" />
    <glyph glyph-name="edotaccent.aalt" horiz-adv-x="1032" 
d="M427 1072q-40 40 -40 99q0 61 39 99.5t100 38.5q59 0 98.5 -38t39.5 -100q0 -59 -39 -99t-99 -40q-59 0 -99 40zM961 387h-611q8 -74 80 -117t197 -43q74 0 140.5 15.5t147.5 48.5v-256q-61 -29 -151 -45.5t-180 -16.5q-248 0 -386.5 133.5t-138.5 358.5q0 145 58.5 257
t165 173t241.5 61q133 0 234.5 -55t158 -157.5t56.5 -235.5q0 -78 -12 -121zM686 580q-2 70 -48 106.5t-116 36.5q-74 0 -120 -38t-48 -105h332z" />
    <glyph glyph-name="egrave.aalt" horiz-adv-x="1032" 
d="M145 1327l136 139l329 -348l-84 -88zM961 387h-611q8 -74 80 -117t197 -43q74 0 140.5 15.5t147.5 48.5v-256q-61 -29 -151 -45.5t-180 -16.5q-248 0 -386.5 133.5t-138.5 358.5q0 145 58.5 257t165 173t241.5 61q133 0 234.5 -55t158 -157.5t56.5 -235.5q0 -78 -12 -121
zM686 580q-2 70 -48 106.5t-116 36.5q-74 0 -120 -38t-48 -105h332z" />
    <glyph glyph-name="emacron.aalt" horiz-adv-x="1032" 
d="M819 1235v-191h-581v191h581zM961 387h-611q8 -74 80 -117t197 -43q74 0 140.5 15.5t147.5 48.5v-256q-61 -29 -151 -45.5t-180 -16.5q-248 0 -386.5 133.5t-138.5 358.5q0 145 58.5 257t165 173t241.5 61q133 0 234.5 -55t158 -157.5t56.5 -235.5q0 -78 -12 -121z
M686 580q-2 70 -48 106.5t-116 36.5q-74 0 -120 -38t-48 -105h332z" />
    <glyph glyph-name="eogonek.aalt" horiz-adv-x="1032" 
d="M922 41q-57 -37 -85 -76t-28 -74q0 -31 21.5 -49t58.5 -18q29 0 65 12v-143q-63 -20 -125 -21q-92 0 -145 48.5t-53 117.5q0 53 33.5 107.5t99.5 95.5h158zM961 387h-611q8 -74 80 -117t197 -43q74 0 140.5 15.5t147.5 48.5v-256q-61 -29 -151 -45.5t-180 -16.5
q-248 0 -386.5 133.5t-138.5 358.5q0 145 58.5 257t165 173t241.5 61q133 0 234.5 -55t158 -157.5t56.5 -235.5q0 -78 -12 -121zM686 580q-2 70 -48 106.5t-116 36.5q-74 0 -120 -38t-48 -105h332z" />
    <glyph glyph-name="g.salt" horiz-adv-x="1167" 
d="M311 -433.5q-92 19.5 -157 54.5v252q152 -78 319 -78q154 0 230.5 62.5t76.5 171.5v98q-39 -53 -116.5 -85t-169.5 -32q-127 0 -227.5 58.5t-157 165t-56.5 243.5q0 141 58.5 250t160 169t226.5 60q94 0 170.5 -33.5t115.5 -91.5l17 93h266v-879q0 -236 -147.5 -367
t-411.5 -131q-105 0 -197 19.5zM710.5 321.5q63.5 63.5 63.5 161.5t-64.5 162t-156.5 64t-150.5 -62.5t-58.5 -163.5q0 -100 59.5 -162.5t151.5 -62.5t155.5 63.5z" />
    <glyph glyph-name="gbreve.salt" horiz-adv-x="1167" 
d="M815 1118q-100 -86 -248 -86q-156 0 -253 89t-105 237h197q2 -66 47 -102.5t114 -36.5q72 0 113 36.5t45 102.5h199q-9 -154 -109 -240zM311 -433.5q-92 19.5 -157 54.5v252q152 -78 319 -78q154 0 230.5 62.5t76.5 171.5v98q-39 -53 -116.5 -85t-169.5 -32
q-127 0 -227.5 58.5t-157 165t-56.5 243.5q0 141 58.5 250t160 169t226.5 60q94 0 170.5 -33.5t115.5 -91.5l17 93h266v-879q0 -236 -147.5 -367t-411.5 -131q-105 0 -197 19.5zM710.5 321.5q63.5 63.5 63.5 161.5t-64.5 162t-156.5 64t-150.5 -62.5t-58.5 -163.5
q0 -100 59.5 -162.5t151.5 -62.5t155.5 63.5z" />
    <glyph glyph-name="gcircumflex.salt" horiz-adv-x="1167" 
d="M444 1409h244l221 -299l-131 -92l-211 225l-213 -225l-131 92zM311 -433.5q-92 19.5 -157 54.5v252q152 -78 319 -78q154 0 230.5 62.5t76.5 171.5v98q-39 -53 -116.5 -85t-169.5 -32q-127 0 -227.5 58.5t-157 165t-56.5 243.5q0 141 58.5 250t160 169t226.5 60
q94 0 170.5 -33.5t115.5 -91.5l17 93h266v-879q0 -236 -147.5 -367t-411.5 -131q-105 0 -197 19.5zM710.5 321.5q63.5 63.5 63.5 161.5t-64.5 162t-156.5 64t-150.5 -62.5t-58.5 -163.5q0 -100 59.5 -162.5t151.5 -62.5t155.5 63.5z" />
    <glyph glyph-name="uni0123.salt" horiz-adv-x="1167" 
d="M668.5 1236q31.5 -34 31.5 -83q0 -55 -36.5 -91t-98.5 -36q-63 0 -101 46t-38 118q0 109 66.5 182.5t193.5 75.5v-57q-72 -10 -108.5 -47t-40.5 -87q18 12 51 13q49 0 80.5 -34zM311 -433.5q-92 19.5 -157 54.5v252q152 -78 319 -78q154 0 230.5 62.5t76.5 171.5v98
q-39 -53 -116.5 -85t-169.5 -32q-127 0 -227.5 58.5t-157 165t-56.5 243.5q0 141 58.5 250t160 169t226.5 60q94 0 170.5 -33.5t115.5 -91.5l17 93h266v-879q0 -236 -147.5 -367t-411.5 -131q-105 0 -197 19.5zM710.5 321.5q63.5 63.5 63.5 161.5t-64.5 162t-156.5 64
t-150.5 -62.5t-58.5 -163.5q0 -100 59.5 -162.5t151.5 -62.5t155.5 63.5z" />
    <glyph glyph-name="gdotaccent.salt" horiz-adv-x="1167" 
d="M468 1072q-40 40 -40 99q0 61 39 99.5t100 38.5q59 0 98.5 -38t39.5 -100q0 -59 -39 -99t-99 -40q-59 0 -99 40zM311 -433.5q-92 19.5 -157 54.5v252q152 -78 319 -78q154 0 230.5 62.5t76.5 171.5v98q-39 -53 -116.5 -85t-169.5 -32q-127 0 -227.5 58.5t-157 165
t-56.5 243.5q0 141 58.5 250t160 169t226.5 60q94 0 170.5 -33.5t115.5 -91.5l17 93h266v-879q0 -236 -147.5 -367t-411.5 -131q-105 0 -197 19.5zM710.5 321.5q63.5 63.5 63.5 161.5t-64.5 162t-156.5 64t-150.5 -62.5t-58.5 -163.5q0 -100 59.5 -162.5t151.5 -62.5
t155.5 63.5z" />
    <glyph glyph-name="s.aalt" horiz-adv-x="901" 
d="M173.5 868q105.5 88 289.5 88q82 0 163 -17t142 -46v-252q-63 33 -149.5 52.5t-157.5 19.5q-57 0 -81 -13.5t-24 -42.5q0 -27 21.5 -38t75.5 -19l106 -20q139 -27 207 -104t68 -187q0 -143 -112 -229.5t-300 -86.5q-90 0 -180 19.5t-144 46.5v258q78 -41 169 -63.5
t173 -22.5q104 0 105 55q0 31 -22.5 42t-67.5 20l-86 16q-125 23 -213 83t-88 206q0 147 105.5 235z" />
    <glyph glyph-name="sacute.aalt" horiz-adv-x="901" 
d="M385 1118l328 348l137 -139l-383 -297zM173.5 868q105.5 88 289.5 88q82 0 163 -17t142 -46v-252q-63 33 -149.5 52.5t-157.5 19.5q-57 0 -81 -13.5t-24 -42.5q0 -27 21.5 -38t75.5 -19l106 -20q139 -27 207 -104t68 -187q0 -143 -112 -229.5t-300 -86.5q-90 0 -180 19.5
t-144 46.5v258q78 -41 169 -63.5t173 -22.5q104 0 105 55q0 31 -22.5 42t-67.5 20l-86 16q-125 23 -213 83t-88 206q0 147 105.5 235z" />
    <glyph glyph-name="scaron.aalt" horiz-adv-x="901" 
d="M252 1423l213 -225l211 225l133 -92l-221 -299h-246l-221 299zM173.5 868q105.5 88 289.5 88q82 0 163 -17t142 -46v-252q-63 33 -149.5 52.5t-157.5 19.5q-57 0 -81 -13.5t-24 -42.5q0 -27 21.5 -38t75.5 -19l106 -20q139 -27 207 -104t68 -187q0 -143 -112 -229.5
t-300 -86.5q-90 0 -180 19.5t-144 46.5v258q78 -41 169 -63.5t173 -22.5q104 0 105 55q0 31 -22.5 42t-67.5 20l-86 16q-125 23 -213 83t-88 206q0 147 105.5 235z" />
    <glyph glyph-name="scedilla.salt" horiz-adv-x="901" 
d="M467 -78q72 0 133.5 -48t61.5 -146q0 -106 -79 -164t-188 -58q-98 0 -166 41v144q20 -23 57.5 -36t73.5 -13q49 0 83 23.5t34 70.5q0 43 -29.5 65.5t-76.5 22.5q-14 0 -43 -4l-60 61l148 223h104v-73l-76 -111zM173.5 868q-105.5 -88 -105.5 -235q0 -145 88 -205.5
t213 -83.5l86 -16q45 -8 67.5 -19.5t22.5 -42.5q0 -55 -105 -55q-82 0 -173 22.5t-169 63.5v-258q53 -27 143.5 -46.5t180.5 -19.5q188 0 300 86t112 230q0 111 -68 187.5t-207 103.5l-106 20q-53 8 -75 19.5t-22 37.5q0 29 23.5 42.5t81.5 13.5q72 0 158 -19.5t149 -52.5
v252q-61 29 -142 46t-163 17q-184 0 -289.5 -88z" />
    <glyph glyph-name="scircumflex.aalt" horiz-adv-x="901" 
d="M344 1409h244l221 -299l-131 -92l-211 225l-213 -225l-131 92zM173.5 868q105.5 88 289.5 88q82 0 163 -17t142 -46v-252q-63 33 -149.5 52.5t-157.5 19.5q-57 0 -81 -13.5t-24 -42.5q0 -27 21.5 -38t75.5 -19l106 -20q139 -27 207 -104t68 -187q0 -143 -112 -229.5
t-300 -86.5q-90 0 -180 19.5t-144 46.5v258q78 -41 169 -63.5t173 -22.5q104 0 105 55q0 31 -22.5 42t-67.5 20l-86 16q-125 23 -213 83t-88 206q0 147 105.5 235z" />
    <glyph glyph-name="uni0219.aalt" horiz-adv-x="899" 
d="M563 -136q39 -46 39 -118q0 -109 -65.5 -182.5t-194.5 -77.5v57q72 12 108.5 47t41.5 86q-20 -12 -50 -12q-51 0 -82.5 34t-31.5 83q0 57 37.5 93t97.5 36q61 0 100 -46zM173.5 868q105.5 88 289.5 88q82 0 163 -17t142 -46v-252q-63 33 -149.5 52.5t-157.5 19.5
q-57 0 -81 -13.5t-24 -42.5q0 -27 21.5 -38t75.5 -19l106 -20q139 -27 207 -104t68 -187q0 -143 -112 -229.5t-300 -86.5q-90 0 -180 19.5t-144 46.5v258q78 -41 169 -63.5t173 -22.5q104 0 105 55q0 31 -22.5 42t-67.5 20l-86 16q-125 23 -213 83t-88 206q0 147 105.5 235z
" />
    <glyph glyph-name="t.aalt" horiz-adv-x="700" 
d="M27 748l385 440h28v-264h224v-236h-224v-307q0 -63 26 -106.5t112 -43.5q37 0 86 9v-240q-82 -16 -158 -16q-160 0 -236.5 65.5t-94 147.5t-17.5 188v303h-131v60z" />
    <glyph glyph-name="tbar.aalt" horiz-adv-x="690" 
d="M27 748l385 440h28v-264h224v-236h-224v-307q0 -63 26 -106.5t112 -43.5q37 0 86 9v-240q-82 -16 -158 -16q-160 0 -236.5 65.5t-94 147.5t-17.5 188v303h-131v60zM664 363h-630v216h630v-216z" />
    <glyph glyph-name="tcaron.aalt" horiz-adv-x="735" 
d="M664 1006h-148v399h193zM27 748l385 440h28v-264h224v-236h-224v-307q0 -63 26 -106.5t112 -43.5q37 0 86 9v-240q-82 -16 -158 -16q-160 0 -236.5 65.5t-94 147.5t-17.5 188v303h-131v60z" />
    <glyph glyph-name="uni0163.salt" horiz-adv-x="700" 
d="M483 -74q72 0 133.5 -48t61.5 -146q0 -106 -79 -163.5t-187 -57.5q-98 0 -166 40v144q20 -23 57 -36t74 -13q49 0 83 23.5t34 70.5q0 43 -30 65.5t-77 22.5q-14 0 -43 -4l-59 61l147 224h105v-74l-76 -111zM27 748v-60h131v-303q0 -106 17.5 -188t94 -147.5t236.5 -65.5
q76 0 158 16v240q-49 -8 -86 -9q-86 0 -112 43t-26 107v307h224v236h-224v264h-28z" />
    <glyph glyph-name="uni021B.aalt" horiz-adv-x="700" 
d="M547 -132q39 -46 39 -118q0 -109 -65.5 -182.5t-194.5 -77.5v57q72 12 108.5 47t40.5 87q-20 -12 -49 -13q-51 0 -83 34t-32 83q0 57 38 93t97 36q62 0 101 -46zM27 748l385 440h28v-264h224v-236h-224v-307q0 -63 26 -106.5t112 -43.5q37 0 86 9v-240q-82 -16 -158 -16
q-160 0 -236.5 65.5t-94 147.5t-17.5 188v303h-131v60z" />
    <glyph glyph-name="y.salt" horiz-adv-x="1122" 
d="M348 924l227 -514l216 514h311l-596 -1360h-303l221 516l-401 844h325z" />
    <glyph glyph-name="yacute.aalt" horiz-adv-x="1122" 
d="M473 1085l328 349l137 -140l-383 -297zM348 924l227 -514l216 514h311l-596 -1360h-303l221 516l-401 844h325z" />
    <glyph glyph-name="ycircumflex.aalt" horiz-adv-x="1122" 
d="M432 1376h244l221 -299l-131 -92l-211 225l-213 -225l-131 92zM348 924l227 -514l216 514h311l-596 -1360h-303l221 516l-401 844h325z" />
    <glyph glyph-name="ydieresis.aalt" horiz-adv-x="1122" 
d="M251 1037q-40 40 -40 100q0 61 39 99t100 38q59 0 98 -38t39 -99q0 -59 -38.5 -99.5t-98.5 -40.5q-59 0 -99 40zM660.5 1037q-39.5 40 -39.5 100q0 61 39.5 99t99.5 38q59 0 98 -38t39 -99q0 -59 -39 -99.5t-98 -40.5q-60 0 -99.5 40zM348 924l227 -514l216 514h311
l-596 -1360h-303l221 516l-401 844h325z" />
    <glyph glyph-name="ygrave.aalt" horiz-adv-x="1122" 
d="M174 1294l135 140l330 -349l-84 -88zM348 924l227 -514l216 514h311l-596 -1360h-303l221 516l-401 844h325z" />
    <glyph glyph-name="z.aalt" horiz-adv-x="913" 
d="M846 887l-340 -633h332v-254h-772v35l354 639h-326v250h752v-37z" />
    <glyph glyph-name="zacute.aalt" horiz-adv-x="913" 
d="M381 1085l328 349l137 -140l-383 -297zM846 887l-340 -633h332v-254h-772v35l354 639h-326v250h752v-37z" />
    <glyph glyph-name="zcaron.aalt" horiz-adv-x="913" 
d="M248 1391l213 -226l211 226l133 -93l-221 -299h-246l-221 299zM846 887l-340 -633h332v-254h-772v35l354 639h-326v250h752v-37z" />
    <glyph glyph-name="zdotaccent.aalt" horiz-adv-x="913" 
d="M363.5 1039q-39.5 40 -39.5 100q0 61 38.5 99t100.5 38q59 0 98 -38t39 -99q0 -59 -39 -99.5t-98 -40.5q-60 0 -99.5 40zM846 887l-340 -633h332v-254h-772v35l354 639h-326v250h752v-37z" />
    <glyph glyph-name="a.aalt" horiz-adv-x="1021" 
d="M815.5 855q110.5 -101 110.5 -282v-573h-250l-17 96q-41 -59 -114.5 -91t-165.5 -32q-145 0 -228 76t-83 203q0 129 89 208t246 93l246 22v23q0 70 -41 105.5t-116 35.5q-78 0 -122 -34.5t-42 -96.5h-238q-2 102 51.5 182t149.5 123t221 43q193 0 303.5 -101zM604 230.5
q47 48.5 47 127.5v37l-170 -16q-61 -4 -92 -30.5t-31 -67.5q0 -49 32 -74t87 -25q80 0 127 48.5z" />
    <glyph glyph-name="aacute.aalt" horiz-adv-x="1021" 
d="M428 1118l328 348l137 -139l-383 -297zM815.5 855q110.5 -101 110.5 -282v-573h-250l-17 96q-41 -59 -114.5 -91t-165.5 -32q-145 0 -228 76t-83 203q0 129 89 208t246 93l246 22v23q0 70 -41 105.5t-116 35.5q-78 0 -122 -34.5t-42 -96.5h-238q-2 102 51.5 182
t149.5 123t221 43q193 0 303.5 -101zM604 230.5q47 48.5 47 127.5v37l-170 -16q-61 -4 -92 -30.5t-31 -67.5q0 -49 32 -74t87 -25q80 0 127 48.5z" />
    <glyph glyph-name="abreve.aalt" horiz-adv-x="1021" 
d="M757.5 1118q-100.5 -86 -247.5 -86q-156 0 -253 89t-105 237h196q2 -66 47 -102.5t115 -36.5q72 0 113 36.5t45 102.5h198q-8 -154 -108.5 -240zM815.5 855q110.5 -101 110.5 -282v-573h-250l-17 96q-41 -59 -114.5 -91t-165.5 -32q-145 0 -228 76t-83 203q0 129 89 208
t246 93l246 22v23q0 70 -41 105.5t-116 35.5q-78 0 -122 -34.5t-42 -96.5h-238q-2 102 51.5 182t149.5 123t221 43q193 0 303.5 -101zM604 230.5q47 48.5 47 127.5v37l-170 -16q-61 -4 -92 -30.5t-31 -67.5q0 -49 32 -74t87 -25q80 0 127 48.5z" />
    <glyph glyph-name="acircumflex.aalt" horiz-adv-x="1021" 
d="M387 1409h244l221 -299l-131 -92l-211 225l-213 -225l-131 92zM815.5 855q110.5 -101 110.5 -282v-573h-250l-17 96q-41 -59 -114.5 -91t-165.5 -32q-145 0 -228 76t-83 203q0 129 89 208t246 93l246 22v23q0 70 -41 105.5t-116 35.5q-78 0 -122 -34.5t-42 -96.5h-238
q-2 102 51.5 182t149.5 123t221 43q193 0 303.5 -101zM604 230.5q47 48.5 47 127.5v37l-170 -16q-61 -4 -92 -30.5t-31 -67.5q0 -49 32 -74t87 -25q80 0 127 48.5z" />
    <glyph glyph-name="adieresis.aalt" horiz-adv-x="1021" 
d="M206 1070q-40 40 -40 99q0 61 39 99.5t100 38.5q59 0 98 -38t39 -100q0 -59 -38.5 -99t-98.5 -40q-59 0 -99 40zM615 1070q-40 40 -40 99q0 61 40 99.5t100 38.5q59 0 98 -38t39 -100q0 -59 -39 -99t-98 -40q-60 0 -100 40zM815.5 855q110.5 -101 110.5 -282v-573h-250
l-17 96q-41 -59 -114.5 -91t-165.5 -32q-145 0 -228 76t-83 203q0 129 89 208t246 93l246 22v23q0 70 -41 105.5t-116 35.5q-78 0 -122 -34.5t-42 -96.5h-238q-2 102 51.5 182t149.5 123t221 43q193 0 303.5 -101zM604 230.5q47 48.5 47 127.5v37l-170 -16q-61 -4 -92 -30.5
t-31 -67.5q0 -49 32 -74t87 -25q80 0 127 48.5z" />
    <glyph glyph-name="agrave.aalt" horiz-adv-x="1021" 
d="M129 1327l135 139l330 -348l-84 -88zM815.5 855q110.5 -101 110.5 -282v-573h-250l-17 96q-41 -59 -114.5 -91t-165.5 -32q-145 0 -228 76t-83 203q0 129 89 208t246 93l246 22v23q0 70 -41 105.5t-116 35.5q-78 0 -122 -34.5t-42 -96.5h-238q-2 102 51.5 182t149.5 123
t221 43q193 0 303.5 -101zM604 230.5q47 48.5 47 127.5v37l-170 -16q-61 -4 -92 -30.5t-31 -67.5q0 -49 32 -74t87 -25q80 0 127 48.5z" />
    <glyph glyph-name="amacron.aalt" horiz-adv-x="1021" 
d="M803 1235v-191h-582v191h582zM815.5 855q110.5 -101 110.5 -282v-573h-250l-17 96q-41 -59 -114.5 -91t-165.5 -32q-145 0 -228 76t-83 203q0 129 89 208t246 93l246 22v23q0 70 -41 105.5t-116 35.5q-78 0 -122 -34.5t-42 -96.5h-238q-2 102 51.5 182t149.5 123t221 43
q193 0 303.5 -101zM604 230.5q47 48.5 47 127.5v37l-170 -16q-61 -4 -92 -30.5t-31 -67.5q0 -49 32 -74t87 -25q80 0 127 48.5z" />
    <glyph glyph-name="aogonek.aalt" horiz-adv-x="1021" 
d="M926 0q-57 -37 -85 -76t-28 -74q0 -31 21.5 -49t58.5 -18q29 0 65 12v-143q-63 -20 -124 -21q-92 0 -145.5 48.5t-53.5 117.5q0 53 33.5 107.5t99.5 95.5h158zM815.5 855q110.5 -101 110.5 -282v-573h-250l-17 96q-41 -59 -114.5 -91t-165.5 -32q-145 0 -228 76t-83 203
q0 129 89 208t246 93l246 22v23q0 70 -41 105.5t-116 35.5q-78 0 -122 -34.5t-42 -96.5h-238q-2 102 51.5 182t149.5 123t221 43q193 0 303.5 -101zM604 230.5q47 48.5 47 127.5v37l-170 -16q-61 -4 -92 -30.5t-31 -67.5q0 -49 32 -74t87 -25q80 0 127 48.5z" />
    <glyph glyph-name="aring.aalt" horiz-adv-x="1021" 
d="M360.5 1042.5q-63.5 36.5 -97.5 96t-34 127.5t34 128t97.5 97t149.5 37q84 0 147.5 -37t98.5 -97.5t35 -127.5q0 -68 -34 -127.5t-98.5 -96t-148.5 -36.5q-86 0 -149.5 36.5zM582.5 1193q29.5 32 29.5 77q0 41 -29.5 71.5t-72.5 30.5q-45 0 -74.5 -29.5t-29.5 -72.5
q0 -47 29.5 -78t74.5 -31q43 0 72.5 32zM815.5 855q110.5 -101 110.5 -282v-573h-250l-17 96q-41 -59 -114.5 -91t-165.5 -32q-145 0 -228 76t-83 203q0 129 89 208t246 93l246 22v23q0 70 -41 105.5t-116 35.5q-78 0 -122 -34.5t-42 -96.5h-238q-2 102 51.5 182t149.5 123
t221 43q193 0 303.5 -101zM604 230.5q47 48.5 47 127.5v37l-170 -16q-61 -4 -92 -30.5t-31 -67.5q0 -49 32 -74t87 -25q80 0 127 48.5z" />
    <glyph glyph-name="aringacute.aalt" horiz-adv-x="1030" 
d="M392 1299l427 215l82 -178l-462 -148zM360.5 856q63.5 -37 149.5 -37q84 0 148.5 37t98.5 96.5t34 126.5q0 68 -35 128.5t-98.5 97t-147.5 36.5q-86 0 -149.5 -36.5t-97.5 -97t-34 -128.5t34 -127t97.5 -96zM582.5 1006.5q-29.5 -31.5 -72.5 -31.5q-45 0 -74.5 30.5
t-29.5 77.5q0 43 29.5 73t74.5 30q43 0 72.5 -31t29.5 -72q0 -45 -29.5 -76.5zM815.5 855q110.5 -101 110.5 -282v-573h-250l-17 96q-41 -59 -114.5 -91t-165.5 -32q-145 0 -228 76t-83 203q0 129 89 208t246 93l246 22v23q0 70 -41 105.5t-116 35.5q-78 0 -122 -34.5
t-42 -96.5h-238q-2 102 51.5 182t149.5 123t221 43q193 0 303.5 -101zM604 230.5q47 48.5 47 127.5v37l-170 -16q-61 -4 -92 -30.5t-31 -67.5q0 -49 32 -74t87 -25q80 0 127 48.5z" />
    <glyph glyph-name="atilde.aalt" horiz-adv-x="1021" 
d="M186 1108q0 102 50.5 163.5t132.5 61.5q41 0 76.5 -15t84.5 -44q25 -14 49.5 -26.5t43.5 -12.5q37 0 50 23.5t11 70.5h139q6 -37 6 -72q0 -96 -49 -154.5t-131 -58.5q-45 0 -83 15.5t-85 44.5q-25 14 -48 25.5t-40 11.5q-39 0 -52 -32t-9 -75h-139q-7 41 -7 74z
M815.5 855q110.5 -101 110.5 -282v-573h-250l-17 96q-41 -59 -114.5 -91t-165.5 -32q-145 0 -228 76t-83 203q0 129 89 208t246 93l246 22v23q0 70 -41 105.5t-116 35.5q-78 0 -122 -34.5t-42 -96.5h-238q-2 102 51.5 182t149.5 123t221 43q193 0 303.5 -101zM604 230.5
q47 48.5 47 127.5v37l-170 -16q-61 -4 -92 -30.5t-31 -67.5q0 -49 32 -74t87 -25q80 0 127 48.5z" />
    <glyph glyph-name="g.ss02" horiz-adv-x="978" 
d="M983 788h-154q55 -82 56 -188q0 -78 -32 -146.5t-93 -115.5v-2l-219 -164q18 2 55 2q162 0 255 -83t93 -214q0 -102 -60.5 -180t-167 -121t-239.5 -43q-205 0 -326.5 89t-134.5 237h269q8 -47 58 -75t126 -28q86 0 135 33t49 88q0 53 -47 81t-131 28q-133 0 -231 -49
l-92 141l231 174q-164 18 -255 115.5t-91 232.5q0 98 49 179t144.5 129t230.5 48q96 0 170 -24l352 69v-213zM354 503q41 -38 107 -38q68 0 107.5 38t39.5 97q0 61 -40 99t-107 38q-66 0 -107 -39t-41 -98t41 -97z" />
    <glyph glyph-name="gbreve.ss02" horiz-adv-x="978" 
d="M708.5 1118q-100.5 -86 -247.5 -86q-156 0 -253 89t-106 237h197q2 -66 47 -102.5t115 -36.5q72 0 112.5 36.5t44.5 102.5h199q-8 -154 -108.5 -240zM983 788h-154q55 -82 56 -188q0 -78 -32 -146.5t-93 -115.5v-2l-219 -164q18 2 55 2q162 0 255 -83t93 -214
q0 -102 -60.5 -180t-167 -121t-239.5 -43q-205 0 -326.5 89t-134.5 237h269q8 -47 58 -75t126 -28q86 0 135 33t49 88q0 53 -47 81t-131 28q-133 0 -231 -49l-92 141l231 174q-164 18 -255 115.5t-91 232.5q0 98 49 179t144.5 129t230.5 48q96 0 170 -24l352 69v-213z
M354 503q41 -38 107 -38q68 0 107.5 38t39.5 97q0 61 -40 99t-107 38q-66 0 -107 -39t-41 -98t41 -97z" />
    <glyph glyph-name="gcircumflex.ss02" horiz-adv-x="978" 
d="M338 1409h244l221 -299l-131 -92l-211 225l-213 -225l-131 92zM983 788h-154q55 -82 56 -188q0 -78 -32 -146.5t-93 -115.5v-2l-219 -164q18 2 55 2q162 0 255 -83t93 -214q0 -102 -60.5 -180t-167 -121t-239.5 -43q-205 0 -326.5 89t-134.5 237h269q8 -47 58 -75
t126 -28q86 0 135 33t49 88q0 53 -47 81t-131 28q-133 0 -231 -49l-92 141l231 174q-164 18 -255 115.5t-91 232.5q0 98 49 179t144.5 129t230.5 48q96 0 170 -24l352 69v-213zM354 503q41 -38 107 -38q68 0 107.5 38t39.5 97q0 61 -40 99t-107 38q-66 0 -107 -39t-41 -98
t41 -97z" />
    <glyph glyph-name="uni0123.ss02" horiz-adv-x="978" 
d="M562 1236q32 -34 32 -83q0 -55 -37 -91t-98 -36q-63 0 -101.5 46t-38.5 118q0 109 67 182.5t194 75.5v-57q-72 -10 -109 -47t-41 -87q18 12 51 13q49 0 81 -34zM983 788h-154q55 -82 56 -188q0 -78 -32 -146.5t-93 -115.5v-2l-219 -164q18 2 55 2q162 0 255 -83t93 -214
q0 -102 -60.5 -180t-167 -121t-239.5 -43q-205 0 -326.5 89t-134.5 237h269q8 -47 58 -75t126 -28q86 0 135 33t49 88q0 53 -47 81t-131 28q-133 0 -231 -49l-92 141l231 174q-164 18 -255 115.5t-91 232.5q0 98 49 179t144.5 129t230.5 48q96 0 170 -24l352 69v-213z
M354 503q41 -38 107 -38q68 0 107.5 38t39.5 97q0 61 -40 99t-107 38q-66 0 -107 -39t-41 -98t41 -97z" />
    <glyph glyph-name="gdotaccent.ss02" horiz-adv-x="978" 
d="M361.5 1072q-39.5 40 -39.5 99q0 61 38.5 99.5t100.5 38.5q59 0 98 -38t39 -100q0 -59 -39 -99t-98 -40q-60 0 -99.5 40zM983 788h-154q55 -82 56 -188q0 -78 -32 -146.5t-93 -115.5v-2l-219 -164q18 2 55 2q162 0 255 -83t93 -214q0 -102 -60.5 -180t-167 -121
t-239.5 -43q-205 0 -326.5 89t-134.5 237h269q8 -47 58 -75t126 -28q86 0 135 33t49 88q0 53 -47 81t-131 28q-133 0 -231 -49l-92 141l231 174q-164 18 -255 115.5t-91 232.5q0 98 49 179t144.5 129t230.5 48q96 0 170 -24l352 69v-213zM354 503q41 -38 107 -38
q68 0 107.5 38t39.5 97q0 61 -40 99t-107 38q-66 0 -107 -39t-41 -98t41 -97z" />
    <glyph glyph-name="j.ss02" horiz-adv-x="538" 
d="M150.5 1122.5q-54.5 53.5 -54.5 128.5q0 78 54.5 130.5t136.5 52.5t136 -52.5t54 -130.5q0 -76 -55 -129t-135 -53q-82 0 -136.5 53.5zM2 -211q66 0 97.5 23.5t38.5 55.5t7 77v979h285v-983q0 -209 -99.5 -301.5t-281.5 -92.5q-76 0 -127 13v235q35 -6 80 -6z" />
    <glyph glyph-name="o.aalt" horiz-adv-x="1138" 
d="M122.5 718.5q65.5 112.5 182.5 175t264 62.5t265 -62.5t183.5 -175t65.5 -255.5q0 -145 -66.5 -256t-183 -172.5t-264.5 -61.5q-147 0 -264 61.5t-182.5 172t-65.5 256.5q0 143 65.5 255.5z" />
    <glyph glyph-name="germandbls.aalt" horiz-adv-x="1146" 
d="M125 885q0 221 133 338.5t350 117.5q193 0 310.5 -89t117.5 -234q0 -82 -35.5 -147.5t-97.5 -110.5l-80 -58q-49 -35 -61 -46t-12 -33q0 -20 11 -32.5t31.5 -25t32.5 -20.5l72 -41q82 -49 137.5 -113.5t55.5 -157.5q0 -115 -91.5 -186.5t-238.5 -71.5q-141 0 -222 68
t-81 184l202 33q-6 -41 16.5 -66.5t67.5 -25.5q39 0 61.5 16.5t22.5 42.5q0 29 -20.5 47.5t-51 37t-44.5 26.5l-70 39q-72 41 -121 94t-49 139q0 117 113 195l98 65q78 51 78 121q0 59 -41 93t-115 34q-98 0 -151.5 -63.5t-53.5 -171.5v-881h-274v883z" />
    <glyph glyph-name="y.ss03" horiz-adv-x="1089" 
d="M1069 924l-383 -906v-106q0 -182 -101.5 -273.5t-279.5 -91.5q-76 0 -127 13v235q37 -10 82 -10q92 0 116.5 45t24.5 113v75l-378 906h303l63 -176l64 -175q76 -207 96 -278q39 162 141 428l78 201h301z" />
    <glyph glyph-name="c_h.dlig" horiz-adv-x="2228" 
d="M2039 853q89 -103 89 -280v-573h-287v506q0 115 -50 152.5t-103 37.5q-63 0 -120 -34.5t-57 -147.5v-514h-284v1063q0 53 -24.5 77.5t-65.5 24.5q-47 0 -72 -29.5t-25 -80.5v-494h-290q-16 70 -67.5 105.5t-121.5 35.5q-92 0 -148.5 -64.5t-56.5 -174.5
q0 -109 55.5 -173.5t149.5 -64.5q74 0 125 39t64 101h290q-10 -115 -72.5 -204t-167 -138.5t-235.5 -49.5q-147 0 -261 61.5t-176 172t-62 256.5q0 147 62 259t176 173t261 61q150 0 264 -63v190q0 154 94.5 247t250.5 93q160 0 249.5 -93t89.5 -253v-243q41 59 114 90.5
t161 31.5q162 0 251 -103z" />
    <glyph glyph-name="c_k.dlig" horiz-adv-x="2193" 
d="M1845 580l312 -582h-324l-191 369l-129 -134v-235h-286v1065q0 53 -24.5 77.5t-65.5 24.5q-47 0 -72 -29.5t-25 -80.5v-494h-290q-16 70 -67.5 105.5t-121.5 35.5q-92 0 -148.5 -64.5t-56.5 -174.5q0 -109 55.5 -173.5t149.5 -64.5q74 0 125 39t64 101h290
q-10 -115 -72.5 -204t-167 -138.5t-235.5 -49.5q-147 0 -261 61.5t-176 172t-62 256.5q0 147 62 259t176 173t261 61q150 0 264 -63v190q0 154 94.5 247t250.5 93q160 0 249.5 -93t89.5 -253v-493l310 338h354z" />
    <glyph glyph-name="c_t.dlig" horiz-adv-x="1773" 
d="M1747 688h-170v-688h-287v670h-2v18h-131v236h131v131q0 129 -121 129q-61 0 -94 -38t-33 -102v-483h-290q-16 70 -67.5 105.5t-121.5 35.5q-92 0 -148.5 -64.5t-56.5 -174.5q0 -109 55.5 -173.5t149.5 -64.5q74 0 125 39t64 101h290q-10 -115 -72.5 -204t-167 -138.5
t-235.5 -49.5q-147 0 -261 61.5t-176 172t-62 256.5q0 147 62 259t176 173t261 61q150 0 264 -63v151q0 184 101.5 280.5t279.5 96.5q170 0 268.5 -95t98.5 -257v-145h170v-236z" />
    <glyph glyph-name="c_t_i.dlig" horiz-adv-x="2279" 
d="M1891.5 1122.5q-54.5 53.5 -54.5 128.5q0 78 54.5 130.5t136.5 52.5q80 0 135 -52.5t55 -130.5q0 -76 -55.5 -129t-134.5 -53q-82 0 -136.5 53.5zM1577 924h592v-924h-285v688h-307v-688h-287v688h-135v236h133v131q0 129 -121 129q-61 0 -94 -38t-33 -102v-483h-290
q-16 70 -67.5 105.5t-121.5 35.5q-92 0 -148.5 -64.5t-56.5 -174.5q0 -109 55.5 -173.5t149.5 -64.5q74 0 125 39t64 101h290q-10 -115 -72.5 -204t-167 -138.5t-235.5 -49.5q-147 0 -261 61.5t-176 172t-62 256.5q0 147 62 259t176 173t261 61q150 0 264 -63v151
q0 184 101.5 280.5t279.5 96.5q170 0 268.5 -95t98.5 -257v-145z" />
    <glyph glyph-name="c_t_t.dlig" horiz-adv-x="2383" 
d="M2357 688h-174v-688h-287v688h-319v-688h-287v670h-2v18h-131v236h131v131q0 129 -121 129q-61 0 -94 -38t-33 -102v-483h-290q-16 70 -67.5 105.5t-121.5 35.5q-92 0 -148.5 -64.5t-56.5 -174.5q0 -109 55.5 -173.5t149.5 -64.5q74 0 125 39t64 101h290
q-10 -115 -72.5 -204t-167 -138.5t-235.5 -49.5q-147 0 -261 61.5t-176 172t-62 256.5q0 147 62 259t176 173t261 61q150 0 264 -63v151q0 184 101.5 280.5t279.5 96.5q170 0 268.5 -95t98.5 -257v-145h319v239h287v-239h174v-236z" />
    <glyph glyph-name="f_f_b.dlig" horiz-adv-x="2650" 
d="M2364.5 895q103.5 -61 162 -174t58.5 -258t-58.5 -256t-161 -172.5t-235.5 -61.5q-100 0 -183 36t-130 102l-17 -111h-237v471l-2 490q0 104 -59.5 163.5t-166.5 59.5q-102 0 -163.5 -59.5t-61.5 -155.5v-45h342v-236h-342v-688h-283l-2 688h-391v-688h-280l-2 688h-127
v236h127v73q0 205 123.5 322t326.5 117q117 0 210 -39t149 -111q66 72 165 111t224 39q225 0 361 -125t136 -350v-105q49 49 121 74.5t162 25.5q131 0 234.5 -61zM825 993q0 94 -52 142.5t-142 48.5q-92 0 -144.5 -50.5t-52.5 -132.5v-77h391v69zM2232.5 295.5
q61.5 64.5 61.5 169.5q0 104 -60.5 168.5t-160.5 64.5q-98 0 -161 -63.5t-63 -167.5t62.5 -170t161.5 -66q98 0 159.5 64.5z" />
    <glyph glyph-name="f_f_h.dlig" horiz-adv-x="2564" 
d="M2374 853q88 -103 88 -280v-573h-285v506q0 115 -50 152.5t-104 37.5q-63 0 -120.5 -34.5t-57.5 -147.5v-514h-284v961q0 104 -59.5 163.5t-166.5 59.5q-102 0 -163.5 -59.5t-61.5 -155.5v-45h342v-236h-342v-688h-283l-2 688h-391v-688h-280l-2 688h-127v236h127v73
q0 205 123.5 322t326.5 117q117 0 210 -39t149 -111q66 72 165 111t224 39q225 0 360 -125t135 -350v-9h2v-118q41 57 115 89.5t164 32.5q160 0 248 -103zM825 993q0 94 -52 142.5t-142 48.5q-92 0 -144.5 -50.5t-52.5 -132.5v-77h391v69z" />
    <glyph glyph-name="w_w_w.dlig" horiz-adv-x="3995" 
d="M2761 924l59 -211q57 -205 84 -334q4 14 137 471l17 55h303q18 -63 61 -225t82 -320q31 135 92 347l64 217h303l-326 -924h-278q-100 336 -152 551q-10 -45 -54 -206t-101 -345h-291l-310 924h310zM1550 924l60 -211q57 -205 84 -334q4 14 137 471l16 55h303
q18 -63 62 -225q43 -162 82 -320q31 135 92 347l63 217h304l-326 -924h-279q-100 336 -151 551q-10 -45 -54 -206t-102 -345h-291l-309 924h309zM342 924l59 -211q57 -205 84 -334q4 14 138 471l16 55h303q18 -63 62 -225q43 -162 81 -320q31 135 93 347l63 217h303
l-325 -924h-279q-100 336 -152 551q-10 -45 -54 -206t-101 -345h-291l-309 924h309z" />
    <glyph glyph-name="c_h.dlig.salt" horiz-adv-x="2011" 
d="M1822 853q89 -103 89 -280v-573h-285v506q0 115 -51 152.5t-105 37.5q-63 0 -119.5 -34.5t-56.5 -147.5v-514h-284v1063q0 53 -24.5 77.5t-65.5 24.5q-47 0 -71 -29.5t-24 -80.5v-393q-41 18 -95 28t-105 10q-127 0 -198 -64.5t-71 -172.5q0 -115 71 -174.5t191 -59.5
q55 0 117 11.5t105 29.5v-252q-55 -23 -127 -34t-140 -11q-231 0 -369 129t-138 357q0 147 64.5 259.5t182 175t271.5 62.5h28v127q0 154 94.5 247t249.5 93q160 0 250 -93t90 -253v-243q41 57 114 89.5t161 32.5q162 0 251 -103z" />
    <glyph glyph-name="c_k.dlig.salt" horiz-adv-x="1976" 
d="M1630 580l309 -582h-323l-191 369l-129 -134v-235h-286v1065q0 53 -24.5 77.5t-65.5 24.5q-47 0 -71 -29.5t-24 -80.5v-393q-41 18 -95 28t-105 10q-127 0 -198 -64.5t-71 -172.5q0 -115 71 -174.5t191 -59.5q55 0 117 11.5t105 29.5v-252q-55 -23 -127 -34t-140 -11
q-231 0 -369 129t-138 357q0 147 64.5 259.5t182 175t271.5 62.5h28v127q0 154 94.5 247t249.5 93q160 0 250 -93t90 -253v-493l310 338h354z" />
    <glyph glyph-name="c_t.dlig.salt" horiz-adv-x="1619" 
d="M1360 381q0 -63 25.5 -106.5t111.5 -43.5q31 0 88 9v-240q-86 -16 -158 -16q-164 0 -241.5 65.5t-96 147.5t-18.5 188v303h-125v60l125 153v154q0 129 -121 129q-59 0 -92 -38t-33 -102v-382q-41 18 -95 28t-105 10q-127 0 -198 -64.5t-71 -172.5q0 -115 71 -174.5
t191 -59.5q55 0 117 11.5t105 29.5v-252q-55 -23 -127 -34t-140 -11q-231 0 -369 129t-138 357q0 147 64.5 259.5t182 175t271.5 62.5h28v88q0 184 101.5 280.5t279.5 96.5q170 0 268.5 -95t98.5 -257v-145h225v-236h-225v-307z" />
    <glyph glyph-name="c_t_i.dlig.salt" horiz-adv-x="2134" 
d="M1745 1112q-55 53 -55 129q0 78 55 130t137 52t135.5 -52t53.5 -130q0 -76 -54.5 -129t-134.5 -53q-82 0 -137 53zM2023 0h-284v688h-379v-307q0 -63 25.5 -106.5t111.5 -43.5q31 0 88 9v-240q-86 -16 -158 -16q-164 0 -241.5 65.5t-96 147.5t-18.5 188v303h-125v60
l125 153v154q0 129 -121 129q-59 0 -92 -38t-33 -102v-382q-41 18 -95 28t-105 10q-127 0 -198 -64.5t-71 -172.5q0 -115 71 -174.5t191 -59.5q55 0 117 11.5t105 29.5v-252q-55 -23 -127 -34t-140 -11q-231 0 -369 129t-138 357q0 147 64.5 259.5t182 175t271.5 62.5h28v88
q0 184 101.5 280.5t279.5 96.5q170 0 268.5 -95t98.5 -257v-145h663v-924z" />
    <glyph glyph-name="c_t_t.dlig.salt" horiz-adv-x="2240" 
d="M1989 688v-307q0 -63 26.5 -106.5t110.5 -43.5q31 0 88 9v-240q-86 -16 -158 -16q-160 0 -236.5 65.5t-95 147.5t-18.5 188v303h-346v-307q0 -63 25.5 -106.5t111.5 -43.5q37 0 86 9v-240q-82 -16 -158 -16q-160 0 -236.5 65.5t-94 147.5t-17.5 188v285h-6v18h-125v60
l125 141v166q0 129 -121 129q-59 0 -92 -38t-33 -102v-382q-41 18 -95 28t-105 10q-127 0 -198 -64.5t-71 -172.5q0 -115 71 -174.5t191 -59.5q55 0 117 11.5t105 29.5v-252q-55 -23 -127 -34t-140 -11q-231 0 -369 129t-138 357q0 147 64.5 259.5t182 175t271.5 62.5h28v88
q0 184 101.5 280.5t279.5 96.5q170 0 268.5 -95t98.5 -257v-145h371l231 264h27v-264h225v-236h-225z" />
    <glyph glyph-name="f_t.liga.salt" horiz-adv-x="1318" 
d="M1057 688v-307q0 -61 23.5 -105.5t113.5 -44.5q31 0 88 9v-240q-86 -16 -158 -16q-160 0 -236.5 65.5t-95 147.5t-18.5 188v303h-297v-688h-282v688h-170v236h170v133q0 186 99 273t279 87q76 0 127 -12v-236q-18 6 -67 7q-102 0 -129 -46.5t-27 -117.5v-88h322l231 264
h27v-264h225v-236h-225z" />
    <glyph glyph-name="f_y.liga.salt" horiz-adv-x="1908" 
d="M1135 924l227 -514l215 514h311l-596 -1360h-303l221 516l-401 844h326zM504 1129q-27 -46 -27 -117v-88h223v-236h-223v-688h-282v688h-170v236h170v133q0 186 99 273t279 87q76 0 127 -12v-236q-18 6 -67 7q-102 -1 -129 -47z" />
    <glyph glyph-name="glyph581" horiz-adv-x="1734" 
d="M117.5 1371q54.5 52 136.5 52t136 -52t54 -130q0 -74 -55 -128t-135 -54t-135.5 53t-55.5 129q0 78 54.5 130zM111 924h524v100q0 209 98 301t281 92q76 0 127 -12v-236q-35 6 -80 7q-66 0 -97.5 -24t-38.5 -55.5t-7 -76.5v-96h286l244 264h27v-264h225v-236h-225v-307
q0 -63 25.5 -106.5t111.5 -43.5q31 0 88 9v-240q-86 -16 -158 -16q-160 0 -236.5 65.5t-95 147.5t-18.5 188v303h-274v-688h-283v688h-238v-688h-286v924z" />
    <glyph glyph-name="i_t_i.liga.salt" horiz-adv-x="1730" 
d="M118.5 1112q-55.5 53 -55.5 129q0 78 54.5 130t136.5 52t136 -52t54 -130q0 -74 -55 -128t-135 -54t-135.5 53zM1341.5 1112q-55.5 53 -55.5 129q0 78 54.5 130t136.5 52t136 -52t54 -130q0 -76 -54 -129t-136 -53q-80 0 -135.5 53zM1620 0h-287v688h-418v-307
q0 -61 24 -105.5t114 -44.5q39 0 88 9v-240q-82 -16 -158 -16q-160 0 -236.5 65.5t-95 147.5t-18.5 188v303h-236v-688h-286v924h546l232 264h26v-264h705v-924z" />
    <glyph glyph-name="i_t_y.liga.salt" horiz-adv-x="2158" 
d="M118.5 1112q-55.5 53 -55.5 129q0 78 54.5 130t136.5 52t136 -52t54 -130q0 -74 -55 -128t-135 -54t-135.5 53zM2136 924l-596 -1360h-303l223 516l-291 608h-270v-307q0 -61 23.5 -105.5t113.5 -44.5q37 0 86 9v-240q-82 -16 -155 -16q-160 0 -237 65.5t-95.5 147.5
t-18.5 188v303h-219v-688h-286v924h530l231 264h27v-264h485l226 -514l215 514h311z" />
    <glyph glyph-name="t_i.liga.salt" horiz-adv-x="1214" 
d="M825.5 1112q-55.5 53 -55.5 129q0 78 55.5 130t137.5 52t135 -52t53 -130q0 -76 -54.5 -129t-133.5 -53q-82 0 -137.5 53zM1104 924v-924h-287v688h-377v-307q0 -61 23.5 -105.5t114.5 -44.5q37 0 86 9v-240q-82 -16 -158 -16q-160 0 -236.5 65.5t-94 147.5t-17.5 188
v303h-131v60l385 440h28v-264h664z" />
    <glyph glyph-name="t_t.liga.salt" horiz-adv-x="1329" 
d="M1069 688v-307q0 -63 25.5 -106.5t111.5 -43.5q31 0 88 9v-240q-86 -16 -157 -16q-160 0 -237 65.5t-95.5 147.5t-18.5 188v303h-346v-307q0 -63 26 -106.5t112 -43.5q37 0 86 9v-240q-82 -16 -158 -16q-160 0 -236.5 65.5t-94 147.5t-17.5 188v303h-131v60l385 440h28
v-264h371l231 264h27v-264h225v-236h-225z" />
    </font>
</defs>
</svg>
